<?xml version="1.0" encoding="UTF-8"?>
<svg id="a" xmlns="http://www.w3.org/2000/svg" viewBox="0 0 780 155.47">
  <defs>
    <style>
      .cls-1 {
        fill: #f8bd37;
      }

      .cls-2 {
        fill: #003660;
      }
    </style>
  </defs>
  <g>
    <rect class="cls-2" x="398.98" y="11.51" width="2.57" height="136.2"/>
    <path class="cls-2" d="M401.05,12.01v135.2h-1.57V12.01h1.57M402.05,11.01h-3.57v137.2h3.57V11.01h0Z"/>
  </g>
  <g>
    <path class="cls-2" d="M145.19,42.26h-21.96c-.23,0-.44.12-.56.31l-29.63,47.64h-.46l-4.1-47.35c-.03-.34-.32-.61-.66-.61h-22.39c-.29,0-.55.19-.63.46l-23.15,73.26c-.14.43.18.87.63.87h15.7c.29,0,.55-.19.64-.48l9.77-32.84c2.51-8.25,3.93-13.75,5.37-19.96h.46l4.39,52.67c.03.34.32.61.66.61h13.6c.23,0,.45-.12.57-.32l31.85-52.96h.46c-1.67,6.22-3.29,12.04-5.03,19.96l-7.22,32.51c-.09.42.22.81.65.81h15.96c.32,0,.59-.22.65-.53l15.09-73.26c.08-.41-.23-.8-.65-.8h-.01Z"/>
    <path class="cls-2" d="M206.15,60.38c-12.63,0-22.24,7.85-24.23,15.44-1.67,6.36.86,11.63,7.34,15.23,1.89,1.03,3.25,1.69,4.69,2.39,1.31.64,2.71,1.32,4.67,2.36,3.64,1.91,4.06,3.09,3.6,4.85-.62,2.37-3.63,4.76-8.94,4.76-6.2,0-6.98-4.51-6.54-8.26.13-.82-.04-1.42-.51-1.77-.49-.38-1.26-.43-2.31-.15l-8.72,2.56c-1.28.38-2.16,1.39-2.33,2.74-.99,9.58,6.2,16.53,17.09,16.53,12.37,0,23.62-7.27,26.15-16.9,1.74-6.63-1.01-11.59-8.66-15.6-1.91-.99-3.82-1.89-5.5-2.67-.82-.38-1.6-.75-2.34-1.11-3.28-1.58-4.54-2.61-3.93-4.96.64-2.45,4.29-3.91,7.44-3.91,1.65,0,3.29.28,4.36,1.28,1.18,1.11,1.25,2.84,1.6,4.4.12.53.29,1.06.66,1.44.37.37.98.42,1.69.31l9.17-2.89s1.84-.29,1.6-2.93c-.74-8.25-6.22-13.14-16.04-13.14h-.01Z"/>
    <path class="cls-2" d="M250.94,103.44c-.58-.28-1.37-.25-2.26.08l-.13.04c-1.08.35-2.2.75-4.01.75-2.38,0-3.54-.56-2.41-4.83l6.58-24.78c.08-.29.34-.49.64-.49h12.75c.31,0,.57-.21.65-.51l.59-2.45,1.82-6.25s.01-.04.02-.06l.54-1.39h-12.93c-.43,0-.75-.41-.64-.83l2.73-10.78c.11-.42-.21-.83-.64-.83h-12.42c-.3,0-.56.2-.64.49l-3.1,11.45c-.08.29-.34.49-.64.49h-6.36c-.27,0-.51.16-.61.4l-.36.83-.03.09-1.84,6.84-.46,1.65c-.12.42.2.84.64.84h4.52c.44,0,.75.41.64.84l-6.39,24.08c-4.14,15.77,6.01,17.97,12.3,17.97s10.39-1.99,12.03-3.63c.73-.73,1.15-1.54,1.07-2.22l-.83-6.45c-.07-.8-.49-1.18-.83-1.35h0Z"/>
    <path class="cls-2" d="M365.04,58.74c-1.03-.16-2.23-.03-3.23-.03-8.89,0-14.19,5.74-18.55,11.95h-.34l1.91-9.87c.08-.41-.24-.79-.65-.79h-12.62c-.31,0-.57.21-.65.5l-3.09,12.32-12.07,43.13c-.11.42.2.84.64.84h14.71c.3,0,.56-.2.64-.49l8.08-28.19c2.23-8.47,7.67-14.16,14.62-14.16,1.51,0,3.55.07,5.01.45.33.09.66-.1.78-.41l5.3-14.36c.14-.38-.09-.82-.5-.89h0Z"/>
    <path class="cls-2" d="M296.98,60.79c-15.51,0-30.37,11.93-34.6,28.02-5.12,19.47,6.66,28.24,19.76,28.24,12.3,0,20.45-6.75,25-11.55,1.14-1.21-.1-1.7-.1-1.7l-8.49-3.84c-1.45-.66-2.23.31-2.23.31-2.56,2.74-5.91,4.79-11.04,4.79-7.4,0-10.2-4.72-9.65-10.33,0-.05.02-.1.03-.14.04-.27.25-.83.25-.83h32.13c4.52,0,6.1-3.31,7.4-8.22,3.71-14.1-4.03-24.74-18.46-24.74h0ZM301.76,82.52c-.05.32-.33.56-.66.56h-20.45c-.52,0-.83-.56-.57-1.01,3.21-5.52,8.55-8.15,13.66-8.15,5.73,0,8.91,2.77,8.03,8.6h0Z"/>
    <path class="cls-2" d="M163.94,57.78c-2.96-1.28-7.75-.77-8.64-.3-.42.22-.9.32-1.02.79-1.68,6.89-11.72,56.94-11.72,56.94-.16.79.44,1.53,1.25,1.53h15.39c1.11,0,2.06-.79,2.28-1.87l9.05-50.04s-.58-4.45-6.58-7.04h0Z"/>
    <path class="cls-1" d="M177.3,62.4c-3.55-10.31,2.38-21.55,12.68-25.1-10.15,3.5-21.23-1.9-24.95-11.92.31-.14.63-.27.96-.39l-.26-.75c-5.11,1.76-10.72-1-12.49-6.15l-.75.26c.85,2.47.69,5.12-.47,7.46-1.15,2.33-3.15,4.09-5.63,4.94l.26.75c2.46-.85,5.08-.67,7.38.49,2.28,1.16,4.01,3.17,4.89,5.73l.75-.26c-1.63-4.74.73-9.93,5.31-12.06,3.22,10.17-2.27,20.99-12.42,24.48,10.31-3.55,21.13,2.07,24.68,12.37l.05.13v.02h0ZM158.39,34.84c-1.01-1.5-2.37-2.72-3.99-3.54-1.45-.74-3.02-1.11-4.61-1.11-.18,0-.36,0-.54.01,3.02-2.09,4.76-5.61,4.56-9.25,2.1,3.05,5.64,4.8,9.31,4.61-3.09,2.1-4.9,5.63-4.74,9.27h.01Z"/>
    <path class="cls-1" d="M173.63,27.02l.02.07c-1.83-5.33,1.3-11.16,6.63-13-5.33,1.83-11.16-1.06-12.99-6.39,1.83,5.33-1.02,11.07-6.35,12.9,5.33-1.83,10.85,1.09,12.69,6.42Z"/>
    <path class="cls-2" d="M341.95,110.21c0-3.75,3.11-6.78,6.86-6.78s6.58,2.94,6.58,6.61-3.05,6.75-6.78,6.75-6.67-2.94-6.67-6.58h.01ZM354.08,110.04c0-2.94-2.35-5.35-5.29-5.35s-5.46,2.49-5.46,5.49,2.38,5.35,5.29,5.35,5.46-2.47,5.46-5.49ZM345.85,106.34h3.05c1.85,0,2.86.84,2.86,2.1,0,1.12-.84,1.82-1.77,2.05l2.35,3.14h-2.07l-2.07-2.86h-.64v2.86h-1.71v-7.28h0ZM348.71,109.5c.95,0,1.26-.42,1.26-.98,0-.5-.36-.92-1.26-.92h-1.15v1.9h1.15Z"/>
  </g>
  <g>
    <g>
      <path class="cls-2" d="M487.2,100.35v16.38h-4.52v-16.38h-6.25v-4.17h17.03v4.17h-6.26Z"/>
      <path class="cls-2" d="M523.29,116.73l-4.4-6.58h-3.55v6.58h-4.52v-20.55h9.4c2.45,0,4.35.6,5.71,1.79,1.36,1.19,2.04,2.86,2.04,4.99v.06c0,1.66-.41,3.02-1.22,4.07s-1.88,1.82-3.19,2.3l5.02,7.34h-5.29ZM523.38,103.19c0-.98-.31-1.71-.94-2.2s-1.5-.73-2.61-.73h-4.49v5.9h4.58c1.12,0,1.97-.26,2.57-.79.6-.53.9-1.23.9-2.11v-.06h-.01Z"/>
      <path class="cls-2" d="M561.23,116.73l-1.88-4.61h-8.69l-1.88,4.61h-4.61l8.81-20.7h4.17l8.81,20.7s-4.73,0-4.73,0ZM555.01,101.46l-2.73,6.67h5.46l-2.73-6.67h0Z"/>
      <path class="cls-2" d="M599.43,114.94c-.57.45-1.19.84-1.87,1.16-.67.32-1.41.57-2.22.73s-1.7.25-2.7.25c-1.51,0-2.91-.27-4.2-.82s-2.41-1.3-3.35-2.25-1.67-2.07-2.2-3.36-.79-2.67-.79-4.14v-.06c0-1.47.26-2.84.79-4.12.53-1.28,1.26-2.41,2.2-3.38.94-.97,2.06-1.73,3.38-2.29,1.31-.56,2.76-.84,4.35-.84.96,0,1.84.08,2.63.24.79.16,1.51.37,2.16.65.65.27,1.24.61,1.79,1s1.06.82,1.53,1.29l-2.88,3.32c-.8-.72-1.62-1.29-2.45-1.7s-1.77-.62-2.8-.62c-.86,0-1.66.17-2.39.5-.73.33-1.37.79-1.89,1.38-.53.59-.94,1.27-1.23,2.04-.29.77-.44,1.6-.44,2.48v.06c0,.88.15,1.71.44,2.5.29.78.7,1.47,1.22,2.06.52.59,1.15,1.05,1.88,1.39s1.54.51,2.42.51c1.17,0,2.17-.21,2.98-.65s1.62-1.02,2.42-1.76l2.88,2.91c-.53.57-1.08,1.08-1.64,1.53h-.02Z"/>
      <path class="cls-2" d="M631.85,116.73l-6.37-8.75-2.38,2.47v6.28h-4.52v-20.55h4.52v8.99l8.34-8.99h5.46l-8.37,8.72,8.75,11.83h-5.43Z"/>
      <path class="cls-2" d="M653.9,116.73v-20.55h15.47v4.02h-11.01v4.17h9.69v4.02h-9.69v4.32h11.16v4.02h-15.62,0Z"/>
      <path class="cls-2" d="M699.94,116.73l-4.41-6.58h-3.55v6.58h-4.52v-20.55h9.4c2.45,0,4.35.6,5.71,1.79,1.36,1.19,2.04,2.86,2.04,4.99v.06c0,1.66-.41,3.02-1.22,4.07s-1.88,1.82-3.19,2.3l5.02,7.34h-5.29,0ZM700.03,103.19c0-.98-.31-1.71-.94-2.2s-1.5-.73-2.61-.73h-4.49v5.9h4.58c1.12,0,1.97-.26,2.57-.79.6-.53.9-1.23.9-2.11v-.06h-.01Z"/>
    </g>
    <g>
      <path class="cls-2" d="M514.43,57.18h15.68v4.09h-11.15v4.44h9.83v4.09h-9.83v7.97h-4.53v-20.6Z"/>
      <path class="cls-2" d="M547.54,57.18h15.51v4.03h-11.04v4.18h9.71v4.03h-9.71v4.33h11.18v4.03h-15.66v-20.6Z"/>
      <path class="cls-2" d="M581.05,57.18h8.03c1.61,0,3.08.26,4.43.78,1.34.52,2.5,1.24,3.47,2.16.97.92,1.72,2.01,2.25,3.25.53,1.25.79,2.59.79,4.05v.06c0,1.45-.26,2.81-.79,4.06-.53,1.26-1.28,2.34-2.25,3.27-.97.92-2.13,1.65-3.47,2.18-1.34.53-2.82.79-4.43.79h-8.03v-20.6ZM589.09,73.69c.92,0,1.77-.15,2.53-.44.76-.29,1.42-.72,1.96-1.27.54-.55.96-1.2,1.27-1.94.3-.75.46-1.58.46-2.5v-.06c0-.9-.15-1.74-.46-2.5-.3-.77-.73-1.42-1.27-1.97-.54-.55-1.19-.98-1.96-1.28-.77-.3-1.61-.46-2.53-.46h-3.5v12.42h3.5Z"/>
      <path class="cls-2" d="M617.87,57.18h15.51v4.03h-11.04v4.18h9.71v4.03h-9.71v4.33h11.18v4.03h-15.66v-20.6Z"/>
      <path class="cls-2" d="M657,67.3l-6.89-10.12h5.3l4.33,6.68,4.36-6.68h5.15l-6.89,10.06,7.18,10.53h-5.3l-4.62-7.06-4.65,7.06h-5.15l7.18-10.48Z"/>
    </g>
  </g>
</svg>