<?xml version="1.0" encoding="UTF-8"?>
<svg id="a" xmlns="http://www.w3.org/2000/svg" version="1.1" viewBox="0 0 780 155.5">
  <!-- Generator: Adobe Illustrator 29.0.1, SVG Export Plug-In . SVG Version: 2.1.0 Build 192)  -->
  <defs>
    <style>
      .st0 {
        fill: #fff;
      }

      .st1 {
        fill: #c3e4e0;
      }

      .st2 {
        fill: #004a7c;
      }

      .st3 {
        fill: #6dc4bc;
      }
    </style>
  </defs>
  <g>
    <rect class="st2" x="399" y="11.5" width="2.6" height="136.2"/>
    <path class="st2" d="M401,12v135.2h-1.6V12h1.6M402,11h-3.6v137.2h3.6V11h0Z"/>
  </g>
  <g>
    <path class="st2" d="M445.8,77.7v-20.5h4.5v20.5h-4.5Z"/>
    <path class="st2" d="M483.8,77.7l-10-13.1v13.1h-4.5v-20.5h4.2l9.6,12.7v-12.7h4.5v20.5h-3.9Z"/>
    <path class="st2" d="M517,77.9h-4l-8.3-20.7h5l5.4,14.5,5.4-14.5h4.9l-8.3,20.7Z"/>
    <path class="st2" d="M542.4,77.7v-20.5h15.5v4h-11v4.2h9.7v4h-9.7v4.3h11.2v4h-15.6,0Z"/>
    <path class="st2" d="M590.4,77.7l-10-13.1v13.1h-4.5v-20.5h4.2l9.6,12.7v-12.7h4.5v20.5h-3.8Z"/>
    <path class="st2" d="M622.3,61.3v16.4h-4.5v-16.4h-6.2v-4.2h17v4.2h-6.3Z"/>
    <path class="st2" d="M666.1,71.6c-.5,1.3-1.3,2.4-2.3,3.4s-2.1,1.7-3.5,2.3-2.8.8-4.4.8-3-.3-4.4-.8c-1.3-.6-2.5-1.3-3.5-2.3-1-.9-1.7-2.1-2.3-3.3-.5-1.3-.8-2.7-.8-4.1h0c0-1.5.3-2.9.8-4.2.5-1.3,1.3-2.4,2.3-3.4,1-1,2.1-1.7,3.5-2.3s2.8-.8,4.4-.8,3,.3,4.4.8c1.3.6,2.5,1.3,3.5,2.3,1,1,1.7,2.1,2.3,3.3.5,1.3.8,2.7.8,4.1h0c0,1.5-.3,2.9-.8,4.2h0ZM662.2,67.5c0-.9-.2-1.7-.5-2.5-.3-.8-.7-1.5-1.3-2.1s-1.2-1-2-1.4-1.6-.5-2.5-.5-1.8.2-2.5.5-1.4.8-1.9,1.4-1,1.3-1.3,2-.5,1.6-.5,2.5h0c0,.9.2,1.8.5,2.6.3.8.7,1.5,1.3,2.1s1.2,1.1,2,1.4c.8.3,1.6.5,2.5.5s1.7-.2,2.5-.5c.8-.3,1.4-.8,2-1.4s1-1.3,1.3-2c.3-.8.5-1.6.5-2.5h0Z"/>
    <path class="st2" d="M697.3,77.7l-4.4-6.6h-3.5v6.6h-4.5v-20.5h9.4c2.5,0,4.3.6,5.7,1.8,1.4,1.2,2,2.9,2,5h0c0,1.7-.4,3.1-1.2,4.1s-1.9,1.8-3.2,2.3l5,7.3h-5.3,0ZM697.4,64.2c0-1-.3-1.7-.9-2.2s-1.5-.7-2.6-.7h-4.5v5.9h4.6c1.1,0,2-.3,2.6-.8.6-.5.9-1.2.9-2.1h0c0,0,0,0,0,0Z"/>
    <path class="st2" d="M730.2,69.5v8.2h-4.5v-8.1l-7.9-12.5h5.3l4.9,8.3,5-8.2h5.1l-7.9,12.4h0Z"/>
    <path class="st2" d="M487.2,100.3v16.4h-4.5v-16.4h-6.2v-4.2h17v4.2h-6.3Z"/>
    <path class="st2" d="M523.3,116.7l-4.4-6.6h-3.5v6.6h-4.5v-20.5h9.4c2.5,0,4.3.6,5.7,1.8,1.4,1.2,2,2.9,2,5h0c0,1.7-.4,3.1-1.2,4.1s-1.9,1.8-3.2,2.3l5,7.3h-5.3ZM523.4,103.2c0-1-.3-1.7-.9-2.2s-1.5-.7-2.6-.7h-4.5v5.9h4.6c1.1,0,2-.3,2.6-.8.6-.5.9-1.2.9-2.1h0c0,0,0,0,0,0Z"/>
    <path class="st2" d="M561.2,116.7l-1.9-4.6h-8.7l-1.9,4.6h-4.6l8.8-20.7h4.2l8.8,20.7s-4.7,0-4.7,0ZM555,101.5l-2.7,6.7h5.5l-2.7-6.7h0Z"/>
    <path class="st2" d="M599.4,114.9c-.6.4-1.2.8-1.9,1.2-.7.3-1.4.6-2.2.7s-1.7.2-2.7.2c-1.5,0-2.9-.3-4.2-.8s-2.4-1.3-3.3-2.2-1.7-2.1-2.2-3.4-.8-2.7-.8-4.1h0c0-1.5.3-2.9.8-4.2.5-1.3,1.3-2.4,2.2-3.4.9-1,2.1-1.7,3.4-2.3,1.3-.6,2.8-.8,4.3-.8s1.8,0,2.6.2c.8.2,1.5.4,2.2.7.7.3,1.2.6,1.8,1s1.1.8,1.5,1.3l-2.9,3.3c-.8-.7-1.6-1.3-2.5-1.7s-1.8-.6-2.8-.6-1.7.2-2.4.5c-.7.3-1.4.8-1.9,1.4-.5.6-.9,1.3-1.2,2-.3.8-.4,1.6-.4,2.5h0c0,.9.2,1.8.4,2.6.3.8.7,1.5,1.2,2.1.5.6,1.2,1.1,1.9,1.4s1.5.5,2.4.5,2.2-.2,3-.7,1.6-1,2.4-1.8l2.9,2.9c-.5.6-1.1,1.1-1.6,1.5h0Z"/>
    <path class="st2" d="M631.8,116.7l-6.4-8.8-2.4,2.5v6.3h-4.5v-20.5h4.5v9l8.3-9h5.5l-8.4,8.7,8.8,11.8h-5.4Z"/>
    <path class="st2" d="M653.9,116.7v-20.5h15.5v4h-11v4.2h9.7v4h-9.7v4.3h11.2v4h-15.6,0Z"/>
    <path class="st2" d="M699.9,116.7l-4.4-6.6h-3.5v6.6h-4.5v-20.5h9.4c2.5,0,4.3.6,5.7,1.8,1.4,1.2,2,2.9,2,5h0c0,1.7-.4,3.1-1.2,4.1s-1.9,1.8-3.2,2.3l5,7.3h-5.3,0ZM700,103.2c0-1-.3-1.7-.9-2.2s-1.5-.7-2.6-.7h-4.5v5.9h4.6c1.1,0,2-.3,2.6-.8.6-.5.9-1.2.9-2.1h0c0,0,0,0,0,0Z"/>
  </g>
  <g>
    <g>
      <g>
        <g>
          <path class="st3" d="M68.8,87.6c-1-1.2-2-2.3-2.7-3.6-1.9-3-3.2-6.3-3.9-9.9-.3-1.4-.4-3-.4-4.6,0-3.7.7-7.3,2.2-10.6-.6-.3-1.3-.4-2.2-.7-1.6-.6-3.3-1.2-5-1.6-1.3-.3-2.4-.7-3.6-.9,0,0,0,.1-.1.4-.1.6-.3,1.6-.4,2.9v1.4c0,11.3,5.9,21.4,14.7,27.3.7.4,1.6,1,2.3,1.4.1.1.7.4.9.4-.3-.7-1.2-1.6-1.6-2h0Z"/>
          <path class="st3" d="M49.9,58.5c-1.7-.1-3.5-.3-5-.3h-.6v1c.1,1.3.3,2.6.6,3.7,1.7,8.5,6.6,15.4,13.2,20-5.2-6.3-8.2-14.2-8.2-22.7-.1-.6,0-1.2,0-1.7h0Z"/>
          <path class="st3" d="M81.6,72c-1-6.3-6.3-12.6-12.5-16.7-.4.6-.7,1.2-1,1.7-2.2,3.6-3.3,7.8-3.3,12.2s1.3,8.9,3.5,12.5c1,1.7,2.2,3.2,3.6,4.6.3.3.6.4.7.7.7.7,1.6,1.3,2.3,1.9h0c.3.1.6.4,1,.6.4.3.7.4,1.2.7,1.6.9,3.3,1.6,5.2,2,.1-2.4.3-9.3-.1-15.2-.1-1.9-.3-3.6-.4-5h0Z"/>
        </g>
        <g>
          <path class="st3" d="M98.4,87.6c1-1.2,2-2.3,2.7-3.6,1.9-3,3.2-6.3,3.9-9.9.3-1.4.4-3,.4-4.6,0-3.7-.7-7.3-2.2-10.6.6-.3,1.3-.4,2.2-.7,1.6-.6,3.3-1.2,5-1.6,1.3-.3,2.4-.7,3.6-.9,0,0,0,.1.1.4.1.6.3,1.6.4,2.9v1.4c0,11.3-5.9,21.4-14.7,27.3-.7.4-1.6,1-2.3,1.4-.1.1-.7.4-.9.4.3-.7,1.2-1.6,1.6-2h0Z"/>
          <path class="st3" d="M117.2,58.5c1.7-.1,3.5-.3,5-.3h.6v1c-.1,1.3-.3,2.6-.6,3.7-1.7,8.5-6.6,15.4-13.1,20,5.2-6.3,8.2-14.2,8.2-22.7s0-1.2-.1-1.7h0Z"/>
          <path class="st3" d="M85.7,72c1-6.3,6.3-12.6,12.5-16.7.4.6.7,1.2,1,1.7,2.2,3.6,3.3,7.8,3.3,12.2s-1.3,8.9-3.5,12.5c-1,1.7-2.2,3.2-3.6,4.6s-.6.4-.7.7c-.7.7-1.6,1.3-2.3,1.9h0c-.3.1-.6.4-1,.6-.4.3-.7.4-1.2.7-1.6.9-3.3,1.6-5.2,2-.1-2.4-.3-9.3.1-15.2,0-1.9.1-3.6.4-5h0Z"/>
        </g>
      </g>
      <path class="st2" d="M83.6,97c-18.8,0-34.9-11.8-41.2-28.5,4.2,19,21.1,33.2,41.2,33.2s37.1-14.2,41.4-33.2c-6.5,16.7-22.6,28.5-41.4,28.5Z"/>
      <path class="st2" d="M65.2,56.2c.4-.7.9-1.6,1.4-2.3l1.6-2.3,2.3,1.6c6.3,4.2,11.1,9.9,12.9,15.5,2-5.8,6.8-11.5,12.9-15.5l2.3-1.6,1.6,2.3c.6.7,1,1.6,1.4,2.3,2.3-.9,5.8-2,8.8-2.7-2.9-12.1-13.8-20.8-26.9-20.8s-23.9,8.8-27.2,20.8c3.2.7,6.6,2,8.8,2.7Z"/>
    </g>
    <g>
      <polygon class="st2" points="153.7 61.5 140.2 42.4 135.8 42.4 135.8 69.6 140.4 69.6 140.4 50.5 154 69.6 158.5 69.6 158.5 42.4 153.7 42.4 153.7 61.5"/>
      <path class="st2" d="M176.3,42c-8.1,0-14.2,6-14.2,13.9s6,13.9,14.2,13.9,14.2-6,14.2-13.9-6-13.9-14.2-13.9ZM185.7,55.9c0,4.8-3.5,9.6-9.3,9.6s-9.3-4.9-9.3-9.6,3.5-9.6,9.3-9.6,9.3,4.9,9.3,9.6Z"/>
      <path class="st2" d="M211.9,50.8c0-4.9-3.9-8.3-9.8-8.3h-7.8v27h4.6v-10.5h1.4l7.3,10.5h5.6l-7.8-11.1c2.2-.4,6.3-2.3,6.3-7.6h0ZM207.4,50.8c0,2.6-1.9,4-5,4h-3.3v-8.1h3.3c3.2,0,5,1.4,5,4Z"/>
      <polygon class="st2" points="214.1 46.7 221.9 46.7 221.9 69.6 226.6 69.6 226.6 46.7 234.3 46.7 234.3 42.4 214.1 42.4 214.1 46.7"/>
      <polygon class="st2" points="254.8 53.5 242.4 53.5 242.4 42.4 237.7 42.4 237.7 69.6 242.4 69.6 242.4 57.8 254.8 57.8 254.8 69.6 259.4 69.6 259.4 42.4 254.8 42.4 254.8 53.5"/>
      <polygon class="st2" points="308.5 57.8 320 57.8 320 53.5 308.5 53.5 308.5 46.7 321 46.7 321 42.4 303.8 42.4 303.8 69.6 321.2 69.6 321.2 65.3 308.5 65.3 308.5 57.8"/>
      <path class="st2" d="M335.5,54.1c-3.9-1.7-5.8-2.6-5.8-4.6s1.4-3.2,3.9-3.2,4.8,2.3,4.8,2.4l.4.6,3.6-2.7-.4-.6c-.1-.1-2.9-4-8.3-4s-8.6,3.7-8.6,7.5,4.5,6.9,7.9,8.5c3.2,1.3,4.9,2.3,4.9,4.5s-2.3,3.3-4.5,3.3c-3.9,0-5.3-3.5-5.3-3.6l-.3-.7-3.9,2.2.3.6c.1.3,2.4,5.8,9.3,5.8s9.2-3.2,9.2-7.6c.1-4.8-3.2-6.5-7.2-8.2h0Z"/>
      <polygon class="st2" points="345.3 42.4 345.3 46.7 353.2 46.7 353.2 69.6 357.8 69.6 357.8 46.7 365.6 46.7 365.6 42.4 345.3 42.4"/>
      <polygon class="st2" points="274.3 69.7 281.6 51.2 288.8 69.7 290.1 69.7 301 42.4 296 42.4 289.6 59.1 283.4 42.4 280.1 42.4 273.7 59.1 267.3 42.4 262.2 42.4 273 69.7 274.3 69.7"/>
    </g>
    <g>
      <polygon class="st2" points="146.8 87.7 138.6 87.7 138.6 80.4 135.8 80.4 135.8 98 138.6 98 138.6 90.3 146.8 90.3 146.8 98 149.7 98 149.7 80.4 146.8 80.4 146.8 87.7"/>
      <polygon class="st2" points="164.5 90.3 172.1 90.3 172.1 87.7 164.5 87.7 164.5 83.1 172.7 83.1 172.7 80.4 161.6 80.4 161.6 98 172.8 98 172.8 95.3 164.5 95.3 164.5 90.3"/>
      <path class="st2" d="M190.2,80.4l-7.3,17.5h3.2l1.9-4.6h7.2l1.9,4.6h3.2l-7.3-17.5h-2.6ZM193.9,90.7h-4.9l2.4-6,2.4,6h0Z"/>
      <polygon class="st2" points="213.5 80.4 210.5 80.4 210.5 98 221.4 98 221.4 95.3 213.5 95.3 213.5 80.4"/>
      <polygon class="st2" points="228.6 83.1 233.6 83.1 233.6 98 236.6 98 236.6 83.1 241.8 83.1 241.8 80.4 228.6 80.4 228.6 83.1"/>
      <polygon class="st2" points="264 87.7 255.8 87.7 255.8 80.4 252.9 80.4 252.9 98 255.8 98 255.8 90.3 264 90.3 264 98 267 98 267 80.4 264 80.4 264 87.7"/>
      <path class="st2" d="M291.7,93.5s-1.9,2.2-4.9,2.2-6.2-3.3-6.2-6.3,2.3-6.3,6.2-6.3,4.6,1.9,4.6,1.9l.3.3,2-1.9-.3-.3c-.1-.1-2.4-2.7-6.8-2.7s-9.2,3.9-9.2,9.1,4,9.1,9.2,9.1,6.8-2.7,6.9-2.9l.3-.3-2-2v.3c-.1,0-.1,0-.1,0Z"/>
      <path class="st2" d="M309.7,80.4l-7.3,17.5h3.2l1.9-4.6h7.2l1.9,4.6h3.2l-7.3-17.5h-2.6ZM313.4,90.7h-4.9l2.4-6,2.4,6h0Z"/>
      <path class="st2" d="M341.3,85.8c0-3.2-2.6-5.3-6.3-5.3h-5v17.5h2.9v-6.9h1l4.9,6.9h3.6l-5-7.2c1.3-.4,4-1.6,4-5ZM338.4,85.8c0,1.7-1.2,2.6-3.3,2.6h-2.3v-5.3h2.3c2,0,3.3,1,3.3,2.7Z"/>
      <polygon class="st2" points="355.9 95.3 355.9 90.3 363.6 90.3 363.6 87.7 355.9 87.7 355.9 83.1 364.1 83.1 364.1 80.4 353.1 80.4 353.1 98 364.3 98 364.3 95.3 355.9 95.3"/>
    </g>
    <rect class="st3" x="41.6" y="109.8" width="323.4" height="22.7"/>
    <g>
      <path class="st0" d="M52.4,127.4v-12.1h1.7l2,5.2c.4,1.2,1,2.6,1.4,3.9h0c-.1-1.6-.1-3.5-.1-5.6v-3.5h1.7v12.1h-1.7l-2-5.2c-.4-1.2-1-2.6-1.3-3.9h0c.1,1.4.1,3.2.1,5.6v3.3h-1.9v.2Z"/>
      <path class="st0" d="M64.3,127.5c-2.4,0-3.6-2.6-3.6-6.2s1.3-6.2,3.7-6.2,3.6,2.7,3.6,6-1.7,6.3-3.7,6.3h0ZM64.3,125.8c1.3,0,1.6-2.2,1.6-4.6s-.3-4.5-1.6-4.5-1.7,2.3-1.7,4.5.4,4.6,1.7,4.6h0Z"/>
      <path class="st0" d="M69.5,115.4c.7-.1,1.4-.3,2.3-.3,1.3,0,2.3.1,3,.9.7.6.9,1.4.9,2.4,0,1.4-.7,2.4-1.9,3h0c.9.3,1.3,1.2,1.6,2.6s.6,2.7.7,3.2h-2c-.1-.3-.4-1.6-.6-2.9-.3-1.6-.7-2-1.6-2h-.4v5h-1.9v-11.9h-.2ZM71.4,120.7h.6c1.2,0,1.9-.9,1.9-2.2s-.4-2-1.7-2-.4,0-.6.1v4h-.1Z"/>
      <path class="st0" d="M78.7,117h-2.2v-1.7h6.3v1.7h-2.2v10.3h-1.9v-10.3s-.1,0-.1,0Z"/>
      <path class="st0" d="M85.9,115.2v5h2.9v-5h1.9v12.1h-1.9v-5.3h-2.9v5.3h-1.9v-12.1h1.9Z"/>
      <path class="st0" d="M94.1,127.4l-2.2-12.2h2l.7,5.3c.1,1.4.3,2.9.6,4.3h0c.1-1.4.4-2.9.7-4.3l1-5.3h1.6l.9,5.2c.3,1.4.4,2.7.7,4.3h0c.1-1.6.3-3,.6-4.3l.7-5.2h1.9l-2.2,12.1h-2l-.9-4.8c-.1-1.2-.4-2.6-.6-4h0c-.1,1.4-.4,2.7-.7,4l-1,4.8h-1.9c0,.1,0,.1,0,.1Z"/>
      <path class="st0" d="M109.3,121.7h-2.9v3.9h3.3v1.7h-5.2v-12.1h5v1.7h-3v3.3h2.9v1.4s-.1,0-.1,0Z"/>
      <path class="st0" d="M111,125.2c.4.3,1.3.4,1.9.4,1.2,0,1.9-.7,1.9-1.7s-.6-1.6-1.6-2.2c-1.3-.9-2.3-2-2.3-3.3,0-1.9,1.3-3.3,3.6-3.3s1.4.3,1.7.4l-.3,1.7c-.3-.3-.9-.4-1.4-.4-1.2,0-1.6.7-1.6,1.4s.4,1.3,1.7,2.2c1.6,1,2.2,2.2,2.2,3.5,0,2.2-1.6,3.6-3.7,3.6s-1.9-.3-2.2-.6v-1.7c.1,0,.2,0,.2,0Z"/>
      <path class="st0" d="M119.4,117h-2.2v-1.7h6.3v1.7h-2.2v10.3h-1.9v-10.3s-.1,0-.1,0Z"/>
      <path class="st1" d="M128.8,115.2h.7v12.1h-.7v-12.1Z"/>
      <path class="st0" d="M137.9,127.5c-2.4,0-3.6-2.6-3.6-6.2s1.3-6.2,3.7-6.2,3.6,2.7,3.6,6-1.6,6.3-3.7,6.3h0ZM138,125.8c1.3,0,1.6-2.2,1.6-4.6s-.3-4.5-1.6-4.5-1.7,2.3-1.7,4.5.4,4.6,1.7,4.6h0Z"/>
      <path class="st0" d="M143.2,115.4c.7-.1,1.4-.3,2.3-.3,1.3,0,2.3.1,3,.9.7.6.9,1.4.9,2.4,0,1.4-.7,2.4-1.9,3h0c.9.3,1.3,1.2,1.6,2.6s.6,2.7.7,3.2h-2c-.1-.3-.4-1.6-.6-2.9-.3-1.6-.7-2-1.6-2h-.6v5h-1.9v-11.9h0ZM145.1,120.7h.6c1.2,0,1.9-.9,1.9-2.2s-.4-2-1.7-2-.4,0-.6.1v4h-.1Z"/>
      <path class="st0" d="M154,127.5c-2.4,0-3.6-2.6-3.6-6.2s1.3-6.2,3.7-6.2,3.6,2.7,3.6,6-1.6,6.3-3.7,6.3h0ZM154.1,125.8c1.3,0,1.6-2.2,1.6-4.6s-.3-4.5-1.6-4.5-1.7,2.3-1.7,4.5.4,4.6,1.7,4.6h0Z"/>
      <path class="st0" d="M163.9,127.4l-2.7-12.1h2.2l1,5.5c.3,1.3.6,2.9.7,4.5h0c.1-1.4.4-3,.7-4.5l1-5.3h2l-2.7,12.1h-2.2s0-.1,0-.1Z"/>
      <path class="st0" d="M170.5,124.2l-.6,3.2h-1.9l2.7-12.1h2.3l2.4,12.1h-1.9l-.6-3.2h-2.6ZM172.7,122.6l-.4-2.7c-.1-.7-.3-1.9-.4-2.7h0c-.1.9-.3,2-.4,2.7l-.6,2.7h1.9Z"/>
      <path class="st0" d="M176.7,115.2h1.9v10.5h3.2v1.6h-5s0-12.1,0-12.1Z"/>
      <path class="st0" d="M183.1,115.2h1.9v10.5h3.2v1.6h-5.2v-12.1h.1Z"/>
      <path class="st0" d="M194.1,121.7h-2.9v3.9h3.3v1.7h-5.2v-12.1h5v1.7h-3v3.3h2.9v1.4s-.1,0-.1,0Z"/>
      <path class="st0" d="M197.8,127.4v-4.9l-2.6-7.2h2l.9,2.9c.3.9.6,1.7.7,2.6h0c.1-.9.4-1.9.7-2.7l.9-2.9h2l-2.7,7.2v4.9h-1.9q0,.1,0,.1Z"/>
      <path class="st1" d="M207.8,115.2h.7v12.1h-.7v-12.1Z"/>
      <path class="st0" d="M214.2,125.2c.4.3,1.3.4,1.9.4,1.2,0,1.9-.7,1.9-1.7s-.6-1.6-1.6-2.2c-1.3-.9-2.3-2-2.3-3.3,0-1.9,1.3-3.3,3.6-3.3s1.4.3,1.7.4l-.3,1.7c-.3-.3-.9-.4-1.4-.4-1.2,0-1.6.7-1.6,1.4s.4,1.3,1.7,2.2c1.6,1,2.2,2.2,2.2,3.5,0,2.2-1.6,3.6-3.7,3.6s-1.9-.3-2.2-.6v-1.7c.1,0,.2,0,.2,0Z"/>
      <path class="st0" d="M222.9,124.2l-.7,3.2h-1.9l2.7-12.1h2.3l2.4,12.1h-1.9l-.7-3.2h-2.3,0ZM225.2,122.6l-.6-2.7c-.1-.7-.3-1.9-.4-2.7h0c-.1.9-.3,2-.4,2.7l-.6,2.7h2Z"/>
      <path class="st0" d="M230.9,115.2v5h2.9v-5h1.9v12.1h-1.9v-5.3h-2.9v5.3h-1.9v-12.1h1.9Z"/>
      <path class="st0" d="M239.5,115.2v8.1c0,2,.6,2.6,1.3,2.6s1.4-.6,1.4-2.6v-7.9h1.9v7.6c0,3.2-1.3,4.6-3.3,4.6s-3.3-1.4-3.3-4.5v-7.8h2Z"/>
      <path class="st0" d="M247.6,124.2l-.7,3.2h-1.9l2.7-12.1h2.3l2.4,12.1h-1.9l-.7-3.2h-2.3,0ZM249.7,122.6l-.6-2.7c-.1-.7-.3-1.9-.4-2.7h0c-.1.9-.3,2-.4,2.7l-.6,2.7h2Z"/>
      <path class="st0" d="M253.6,115.4c.7-.1,1.4-.3,2.3-.3,1.3,0,2.3.1,3,.9.7.6.9,1.4.9,2.4,0,1.4-.7,2.4-1.9,3h0c.9.3,1.3,1.2,1.6,2.6.3,1.4.6,2.7.7,3.2h-2c-.1-.3-.4-1.6-.6-2.9-.3-1.6-.7-2-1.6-2h-.4v5h-1.9v-11.9h-.2ZM255.6,120.7h.6c1.2,0,1.9-.9,1.9-2.2s-.4-2-1.7-2-.4,0-.7.1v4h0Z"/>
      <path class="st0" d="M263.4,115.2v12.1h-1.9v-12.1h1.9Z"/>
      <path class="st0" d="M266.7,117h-2.2v-1.7h6.3v1.7h-2.2v10.3h-1.9v-10.3h-.1,0Z"/>
      <path class="st0" d="M273,124.2l-.7,3.2h-1.9l2.7-12.1h2.3l2.4,12.1h-1.9l-.6-3.2h-2.4ZM275.2,122.6l-.6-2.7c-.1-.7-.3-1.9-.4-2.7h0c-.1.9-.3,2-.4,2.7l-.6,2.7h2Z"/>
      <path class="st1" d="M283.8,115.2h.7v12.1h-.7v-12.1Z"/>
      <path class="st0" d="M292.4,115.2v5h2.9v-5h1.9v12.1h-1.9v-5.3h-2.9v5.3h-1.9v-12.1h1.9Z"/>
      <path class="st0" d="M302.2,127.5c-2.4,0-3.6-2.6-3.6-6.2s1.4-6.2,3.7-6.2,3.6,2.7,3.6,6-1.6,6.3-3.7,6.3h0ZM302.3,125.8c1.3,0,1.6-2.2,1.6-4.6s-.3-4.5-1.7-4.5-1.7,2.3-1.7,4.5c.1,2.4.6,4.6,1.9,4.6h0Z"/>
      <path class="st0" d="M309.4,115.2v8.1c0,2,.6,2.6,1.3,2.6s1.4-.6,1.4-2.6v-7.9h1.9v7.6c0,3.2-1.3,4.6-3.3,4.6s-3.3-1.4-3.3-4.5v-7.8h2Z"/>
      <path class="st0" d="M322.3,126.9c-.6.1-1.4.4-2.3.4-1.3,0-2.3-.3-3-1.2-1-1-1.6-2.7-1.4-4.9,0-4.6,2.6-6.3,4.9-6.3s1.4.1,1.9.3l-.4,1.6c-.3-.1-.7-.3-1.4-.3-1.6,0-3,1.2-3,4.6s1.3,4.5,2.6,4.5.6,0,.6-.1v-3.5h-1.3v-1.6h3v6.5h0Z"/>
      <path class="st0" d="M325.9,115.2v5h2.9v-5h1.9v12.1h-1.9v-5.3h-2.9v5.3h-1.9v-12.1h1.9Z"/>
      <path class="st0" d="M334.1,117h-2.2v-1.7h6.3v1.7h-2.2v10.3h-1.9v-10.3h-.1,0Z"/>
      <path class="st0" d="M342.1,127.5c-2.4,0-3.6-2.6-3.6-6.2s1.4-6.2,3.7-6.2,3.6,2.7,3.6,6-1.6,6.3-3.7,6.3h0ZM342.3,125.8c1.3,0,1.6-2.2,1.6-4.6s-.3-4.5-1.7-4.5-1.7,2.3-1.7,4.5c.1,2.4.6,4.6,1.9,4.6h0Z"/>
      <path class="st0" d="M347.5,127.4v-12.1h1.7l2,5.2c.4,1.2,1,2.6,1.4,3.9h0c-.1-1.6-.1-3.5-.1-5.6v-3.5h1.7v12.1h-1.7l-2-5.2c-.4-1.2-1-2.6-1.3-3.9h0c.1,1.4.1,3.2.1,5.6v3.3h-1.9c0,.1,0,.2,0,.2Z"/>
    </g>
  </g>
</svg>