<?xml version="1.0" encoding="UTF-8"?>
<svg id="a" xmlns="http://www.w3.org/2000/svg" version="1.1" viewBox="0 0 780 155.5">
  <!-- Generator: Adobe Illustrator 29.0.1, SVG Export Plug-In . SVG Version: 2.1.0 Build 192)  -->
  <defs>
    <style>
      .st0 {
        fill: #5d9741;
      }

      .st1 {
        fill: #507033;
      }

      .st2 {
        fill: #7bc143;
      }

      .st3 {
        fill: #5f6163;
      }

      .st4 {
        fill: none;
        stroke: #5e5f61;
        stroke-miterlimit: 10;
        stroke-width: .2px;
      }
    </style>
  </defs>
  <g>
    <rect class="st0" x="399" y="11.5" width="2.6" height="136.2"/>
    <path class="st0" d="M401,12v135.2h-1.6V12h1.6M402,11h-3.6v137.2h3.6V11h0Z"/>
  </g>
  <g>
    <path class="st3" d="M445.8,77.7v-20.5h4.5v20.5h-4.5Z"/>
    <path class="st3" d="M483.8,77.7l-10-13.1v13.1h-4.5v-20.5h4.2l9.6,12.7v-12.7h4.5v20.5h-3.9Z"/>
    <path class="st3" d="M517,77.9h-4l-8.3-20.7h5l5.4,14.5,5.4-14.5h4.9l-8.3,20.7Z"/>
    <path class="st3" d="M542.4,77.7v-20.5h15.5v4h-11v4.2h9.7v4h-9.7v4.3h11.2v4h-15.6,0Z"/>
    <path class="st3" d="M590.4,77.7l-10-13.1v13.1h-4.5v-20.5h4.2l9.6,12.7v-12.7h4.5v20.5h-3.8Z"/>
    <path class="st3" d="M622.3,61.3v16.4h-4.5v-16.4h-6.2v-4.2h17v4.2h-6.3Z"/>
    <path class="st3" d="M666.1,71.6c-.5,1.3-1.3,2.4-2.3,3.4s-2.1,1.7-3.5,2.3-2.8.8-4.4.8-3-.3-4.4-.8c-1.3-.6-2.5-1.3-3.5-2.3-1-.9-1.7-2.1-2.3-3.3-.5-1.3-.8-2.7-.8-4.1h0c0-1.5.3-2.9.8-4.2.5-1.3,1.3-2.4,2.3-3.4,1-1,2.1-1.7,3.5-2.3s2.8-.8,4.4-.8,3,.3,4.4.8c1.3.6,2.5,1.3,3.5,2.3,1,1,1.7,2.1,2.3,3.3.5,1.3.8,2.7.8,4.1h0c0,1.5-.3,2.9-.8,4.2h0ZM662.2,67.5c0-.9-.2-1.7-.5-2.5-.3-.8-.7-1.5-1.3-2.1s-1.2-1-2-1.4-1.6-.5-2.5-.5-1.8.2-2.5.5-1.4.8-1.9,1.4-1,1.3-1.3,2-.5,1.6-.5,2.5h0c0,.9.2,1.8.5,2.6.3.8.7,1.5,1.3,2.1s1.2,1.1,2,1.4c.8.3,1.6.5,2.5.5s1.7-.2,2.5-.5c.8-.3,1.4-.8,2-1.4s1-1.3,1.3-2c.3-.8.5-1.6.5-2.5h0Z"/>
    <path class="st3" d="M697.3,77.7l-4.4-6.6h-3.5v6.6h-4.5v-20.5h9.4c2.5,0,4.3.6,5.7,1.8,1.4,1.2,2,2.9,2,5h0c0,1.7-.4,3.1-1.2,4.1s-1.9,1.8-3.2,2.3l5,7.3h-5.3,0ZM697.4,64.2c0-1-.3-1.7-.9-2.2s-1.5-.7-2.6-.7h-4.5v5.9h4.6c1.1,0,2-.3,2.6-.8.6-.5.9-1.2.9-2.1h0c0,0,0,0,0,0Z"/>
    <path class="st3" d="M730.2,69.5v8.2h-4.5v-8.1l-7.9-12.5h5.3l4.9,8.3,5-8.2h5.1l-7.9,12.4h0Z"/>
    <path class="st3" d="M487.2,100.3v16.4h-4.5v-16.4h-6.2v-4.2h17v4.2h-6.3Z"/>
    <path class="st3" d="M523.3,116.7l-4.4-6.6h-3.5v6.6h-4.5v-20.5h9.4c2.5,0,4.3.6,5.7,1.8,1.4,1.2,2,2.9,2,5h0c0,1.7-.4,3.1-1.2,4.1s-1.9,1.8-3.2,2.3l5,7.3h-5.3ZM523.4,103.2c0-1-.3-1.7-.9-2.2s-1.5-.7-2.6-.7h-4.5v5.9h4.6c1.1,0,2-.3,2.6-.8.6-.5.9-1.2.9-2.1h0c0,0,0,0,0,0Z"/>
    <path class="st3" d="M561.2,116.7l-1.9-4.6h-8.7l-1.9,4.6h-4.6l8.8-20.7h4.2l8.8,20.7s-4.7,0-4.7,0ZM555,101.5l-2.7,6.7h5.5l-2.7-6.7h0Z"/>
    <path class="st3" d="M599.4,114.9c-.6.4-1.2.8-1.9,1.2-.7.3-1.4.6-2.2.7s-1.7.2-2.7.2c-1.5,0-2.9-.3-4.2-.8s-2.4-1.3-3.3-2.2-1.7-2.1-2.2-3.4-.8-2.7-.8-4.1h0c0-1.5.3-2.9.8-4.2.5-1.3,1.3-2.4,2.2-3.4.9-1,2.1-1.7,3.4-2.3,1.3-.6,2.8-.8,4.3-.8s1.8,0,2.6.2c.8.2,1.5.4,2.2.7.7.3,1.2.6,1.8,1s1.1.8,1.5,1.3l-2.9,3.3c-.8-.7-1.6-1.3-2.5-1.7s-1.8-.6-2.8-.6-1.7.2-2.4.5c-.7.3-1.4.8-1.9,1.4-.5.6-.9,1.3-1.2,2-.3.8-.4,1.6-.4,2.5h0c0,.9.2,1.8.4,2.6.3.8.7,1.5,1.2,2.1.5.6,1.2,1.1,1.9,1.4s1.5.5,2.4.5,2.2-.2,3-.7,1.6-1,2.4-1.8l2.9,2.9c-.5.6-1.1,1.1-1.6,1.5h0Z"/>
    <path class="st3" d="M631.8,116.7l-6.4-8.8-2.4,2.5v6.3h-4.5v-20.5h4.5v9l8.3-9h5.5l-8.4,8.7,8.8,11.8h-5.4Z"/>
    <path class="st3" d="M653.9,116.7v-20.5h15.5v4h-11v4.2h9.7v4h-9.7v4.3h11.2v4h-15.6,0Z"/>
    <path class="st3" d="M699.9,116.7l-4.4-6.6h-3.5v6.6h-4.5v-20.5h9.4c2.5,0,4.3.6,5.7,1.8,1.4,1.2,2,2.9,2,5h0c0,1.7-.4,3.1-1.2,4.1s-1.9,1.8-3.2,2.3l5,7.3h-5.3,0ZM700,103.2c0-1-.3-1.7-.9-2.2s-1.5-.7-2.6-.7h-4.5v5.9h4.6c1.1,0,2-.3,2.6-.8.6-.5.9-1.2.9-2.1h0c0,0,0,0,0,0Z"/>
  </g>
  <g>
    <g>
      <path class="st3" d="M221,90.7c0,2.3-.3,4.1-.9,5.3-.4.9-1,1.7-1.8,2.2-.8.6-1.6.8-2.5.8s-1.9-.4-2.5-1.2c-.7-.8-1-1.8-1-3s.4-2.6,1.3-3.7c.4-.5.9-1,1.4-1.3.5-.4,1.4-.9,2.8-1.6,1.2-.6,2.3-1.3,3.2-2.2v4.6h0ZM229,98.1c-.3.2-.8.3-1.3.3-1.2,0-1.9-.7-2.2-1.9-.1-.6-.2-1.8-.2-3.5v-10.1c0-1.3,0-2.2-.2-2.8-.3-1.1-1-2-2.2-2.6-.8-.5-1.8-.8-3.1-1.1s-2.4-.4-3.5-.4-2,.1-3.1.3c-1,.2-1.9.5-2.6.8-1.3.6-2,1.4-2,2.3s.2,1.1.6,1.5c.4.4.9.6,1.6.6.9,0,1.6-.4,2-1.3l.7-1.6c.3-.7.7-1.2,1.3-1.6.6-.4,1.2-.6,2-.6s1.2.1,1.8.4c.6.3,1,.6,1.4,1.1.8,1,1.2,2.5,1.2,4.7s-.1,1.8-.3,2.3c-.2.6-.6,1.1-1.2,1.5-.5.4-1.1.7-1.9,1-.8.3-1.9.6-3.5,1-1.3.3-2.4.7-3.1,1-.7.3-1.3.8-1.9,1.3-1,1-1.5,2.3-1.5,3.8s.6,2.9,1.8,3.9c1.2,1,2.8,1.5,4.8,1.5s2.9-.3,4.1-1c.6-.3,1.5-1.1,2.8-2.2.6,1,1.2,1.8,1.8,2.2.9.6,1.9,1,3.2,1,2.3,0,3.9-1,4.5-2.9l-.5-.3c-.4.6-.8,1-1.1,1.2M162.2,76.8v.6c.8,0,1.5.2,1.9.4.4.2.8.6,1.1,1.1.3.5.5,1.1.6,1.8,0,.7.1,2.1.1,3.9v6.7c0,1.6,0,2.8-.1,3.7s-.2,1.5-.4,1.9c-.3.6-.7,1.1-1.2,1.3-.5.3-1.3.5-2.3.6v.6h12.1v-.6c-1.4-.2-2.3-.6-2.8-1.1-.4-.4-.7-.9-.9-1.4-.1-.6-.2-1.5-.2-2.7v-7c0-1.7,0-3,.3-4,.2-1,.6-2,1-2.7.5-.8,1.2-1.5,2.1-2,.9-.5,1.9-.7,2.9-.7s1.7.2,2.5.6c.7.4,1.3.9,1.7,1.5.4.6.6,1.4.8,2.4s.2,2.6.2,4.7v5.1c0,1.6,0,2.8-.1,3.6,0,.9-.2,1.5-.4,1.9-.3.6-.7,1.1-1.2,1.3-.5.3-1.2.5-2.3.6v.6h12.1v-.6c-1.4-.2-2.3-.6-2.8-1.1-.4-.4-.7-.9-.8-1.4-.1-.6-.2-1.5-.2-2.7v-2.1s0-5.3,0-5.3c0-3,.4-5.3,1.3-6.7,1-1.7,2.7-2.5,4.9-2.5s3.6.8,4.4,2.3c.4.7.6,1.5.7,2.4.1.9.2,2.4.2,4.4v5.2c0,1.6,0,2.8-.1,3.6,0,.9-.2,1.5-.4,1.9-.3.6-.7,1.1-1.2,1.3-.5.3-1.2.5-2.3.6v.6h12.1v-.6c-1.4-.2-2.3-.6-2.8-1.1-.4-.4-.7-.9-.8-1.4-.1-.6-.2-1.5-.2-2.7v-2.1s0-9.3,0-9.3c0-1.9-.7-3.5-2.1-4.7-1.4-1.2-3.2-1.8-5.3-1.8s-3.1.3-4.5,1c-1.4.7-2.8,1.7-4.2,3.1-.9-1.3-1.7-2.2-2.4-2.8-1.2-.9-2.6-1.3-4.3-1.3s-3,.3-4.5,1c-1.4.7-2.7,1.6-3.9,2.8,0-1.3-.3-2.5-.6-3.8l-7.5.9h0ZM156.1,65.4c.5-.5.7-1,.7-1.7s-.2-1.2-.7-1.7c-.5-.5-1.1-.7-1.8-.7s-1.3.2-1.8.7-.7,1-.7,1.7.2,1.3.7,1.7,1.1.7,1.8.7,1.3-.2,1.8-.7M148.6,77.4c.8,0,1.5.2,1.9.4.4.2.8.6,1.1,1.1.3.5.5,1.1.6,1.8,0,.8.1,2.1.1,3.9v6.7c0,1.6,0,2.8-.1,3.7s-.2,1.5-.4,1.9c-.3.6-.7,1.1-1.2,1.3-.5.3-1.3.5-2.3.6v.6h12.1v-.6c-1.4-.2-2.3-.6-2.8-1.1-.4-.4-.7-.9-.9-1.4-.1-.6-.2-1.5-.2-2.7v-2.1s0-15.8,0-15.8l-7.9,1v.6h0ZM128.9,64.2h2.2c1.5,0,2.4,0,2.8,0,1.5.2,2.8.7,3.8,1.6.9.8,1.7,1.7,2.2,2.9.5,1.2.7,2.5.7,4,0,2.6-.9,4.7-2.6,6.3-.7.7-1.6,1.2-2.5,1.4-.9.2-2.3.4-4,.4h-2.6v-16.7h0ZM134,81.7c2.3,0,3.7,0,4.4,0,1.9-.2,3.5-.6,4.8-1.4,2.5-1.5,3.8-3.9,3.8-7.1s-1.3-5.7-3.8-7.6c-1.1-.9-2.3-1.4-3.6-1.7-1.3-.3-3.4-.4-6.2-.4h-16v.6h.2c1.1,0,2,.3,2.8.6.7.3,1.3.9,1.7,1.6.3.5.6,1.2.7,2s.2,2,.2,3.5v19.5c0,1.8,0,3.2-.3,4s-.6,1.6-1.1,2.1c-.5.5-1,.9-1.7,1.1-.6.2-1.5.4-2.5.4v.6h16.9v-.6c-1,0-1.8-.2-2.5-.4-.6-.2-1.2-.6-1.7-1.1-.6-.6-.9-1.3-1.1-2.2-.2-.9-.3-2.2-.3-4v-9.5h5.2,0Z"/>
      <path class="st4" d="M221,90.7c0,2.3-.3,4.1-.9,5.3-.4.9-1,1.7-1.8,2.2-.8.6-1.6.8-2.5.8s-1.9-.4-2.5-1.2c-.7-.8-1-1.8-1-3s.4-2.6,1.3-3.7c.4-.5.9-1,1.4-1.3.5-.4,1.4-.9,2.8-1.6,1.2-.6,2.3-1.3,3.2-2.2v4.6h0ZM229,98.1c-.3.2-.8.3-1.3.3-1.2,0-1.9-.7-2.2-1.9-.1-.6-.2-1.8-.2-3.5v-10.1c0-1.3,0-2.2-.2-2.8-.3-1.1-1-2-2.2-2.6-.8-.5-1.8-.8-3.1-1.1s-2.4-.4-3.5-.4-2,.1-3.1.3c-1,.2-1.9.5-2.6.8-1.3.6-2,1.4-2,2.3s.2,1.1.6,1.5c.4.4.9.6,1.6.6.9,0,1.6-.4,2-1.3l.7-1.6c.3-.7.7-1.2,1.3-1.6.6-.4,1.2-.6,2-.6s1.2.1,1.8.4c.6.3,1,.6,1.4,1.1.8,1,1.2,2.5,1.2,4.7s-.1,1.8-.3,2.3c-.2.6-.6,1.1-1.2,1.5-.5.4-1.1.7-1.9,1-.8.3-1.9.6-3.5,1-1.3.3-2.4.7-3.1,1-.7.3-1.3.8-1.9,1.3-1,1-1.5,2.3-1.5,3.8s.6,2.9,1.8,3.9c1.2,1,2.8,1.5,4.8,1.5s2.9-.3,4.1-1c.6-.3,1.5-1.1,2.8-2.2.6,1,1.2,1.8,1.8,2.2.9.6,1.9,1,3.2,1,2.3,0,3.9-1,4.5-2.9l-.5-.3c-.4.6-.8,1-1.1,1.2h0ZM162.2,76.8v.6c.8,0,1.5.2,1.9.4.4.2.8.6,1.1,1.1.3.5.5,1.1.6,1.8,0,.7.1,2.1.1,3.9v6.7c0,1.6,0,2.8-.1,3.7s-.2,1.5-.4,1.9c-.3.6-.7,1.1-1.2,1.3-.5.3-1.3.5-2.3.6v.6h12.1v-.6c-1.4-.2-2.3-.6-2.8-1.1-.4-.4-.7-.9-.9-1.4-.1-.6-.2-1.5-.2-2.7v-7c0-1.7,0-3,.3-4,.2-1,.6-2,1-2.7.5-.8,1.2-1.5,2.1-2,.9-.5,1.9-.7,2.9-.7s1.7.2,2.5.6c.7.4,1.3.9,1.7,1.5.4.6.6,1.4.8,2.4s.2,2.6.2,4.7v5.1c0,1.6,0,2.8-.1,3.6,0,.9-.2,1.5-.4,1.9-.3.6-.7,1.1-1.2,1.3-.5.3-1.2.5-2.3.6v.6h12.1v-.6c-1.4-.2-2.3-.6-2.8-1.1-.4-.4-.7-.9-.8-1.4-.1-.6-.2-1.5-.2-2.7v-2.1s0-5.3,0-5.3c0-3,.4-5.3,1.3-6.7,1-1.7,2.7-2.5,4.9-2.5s3.6.8,4.4,2.3c.4.7.6,1.5.7,2.4.1.9.2,2.4.2,4.4v5.2c0,1.6,0,2.8-.1,3.6,0,.9-.2,1.5-.4,1.9-.3.6-.7,1.1-1.2,1.3-.5.3-1.2.5-2.3.6v.6h12.1v-.6c-1.4-.2-2.3-.6-2.8-1.1-.4-.4-.7-.9-.8-1.4-.1-.6-.2-1.5-.2-2.7v-2.1s0-9.3,0-9.3c0-1.9-.7-3.5-2.1-4.7-1.4-1.2-3.2-1.8-5.3-1.8s-3.1.3-4.5,1c-1.4.7-2.8,1.7-4.2,3.1-.9-1.3-1.7-2.2-2.4-2.8-1.2-.9-2.6-1.3-4.3-1.3s-3,.3-4.5,1c-1.4.7-2.7,1.6-3.9,2.8,0-1.3-.3-2.5-.6-3.8l-7.5.9h0ZM156.1,65.3c.5-.5.7-1,.7-1.7s-.2-1.2-.7-1.7c-.5-.5-1.1-.7-1.8-.7s-1.3.2-1.8.7-.7,1-.7,1.7.2,1.3.7,1.7,1.1.7,1.8.7,1.3-.2,1.8-.7ZM148.6,77.4c.8,0,1.5.2,1.9.4.4.2.8.6,1.1,1.1.3.5.5,1.1.6,1.8,0,.8.1,2.1.1,3.9v6.7c0,1.6,0,2.8-.1,3.7s-.2,1.5-.4,1.9c-.3.6-.7,1.1-1.2,1.3-.5.3-1.3.5-2.3.6v.6h12.1v-.6c-1.4-.2-2.3-.6-2.8-1.1-.4-.4-.7-.9-.9-1.4-.1-.6-.2-1.5-.2-2.7v-2.1s0-15.8,0-15.8l-7.9,1v.6h0ZM128.9,64.2h2.2c1.5,0,2.4,0,2.8,0,1.5.2,2.8.7,3.8,1.6.9.8,1.7,1.7,2.2,2.9.5,1.2.7,2.5.7,4,0,2.6-.9,4.7-2.6,6.3-.7.7-1.6,1.2-2.5,1.4-.9.2-2.3.4-4,.4h-2.6v-16.7h0ZM134.1,81.7c2.3,0,3.7,0,4.4,0,1.9-.2,3.5-.6,4.8-1.4,2.5-1.5,3.8-3.9,3.8-7.1s-1.3-5.7-3.8-7.6c-1.1-.9-2.3-1.4-3.6-1.7-1.3-.3-3.4-.4-6.2-.4h-16v.6h.2c1.1,0,2,.3,2.8.6.7.3,1.3.9,1.7,1.6.3.5.6,1.2.7,2s.2,2,.2,3.5v19.5c0,1.8,0,3.2-.3,4s-.6,1.6-1.1,2.1c-.5.5-1,.9-1.7,1.1-.6.2-1.5.4-2.5.4v.6h16.9v-.6c-1,0-1.8-.2-2.5-.4-.6-.2-1.2-.6-1.7-1.1-.6-.6-.9-1.3-1.1-2.2-.2-.9-.3-2.2-.3-4v-9.5h5.2,0Z"/>
      <path class="st3" d="M358.9,116.2h.3v-8c0-.5,0-.9,0-1.1s.2-.5.3-.6c.3-.3.7-.4,1.2-.4v-.2h-3.5v.2c.3,0,.5,0,.7.1s.3.2.5.3c.2.2.3.4.3.6s0,.6,0,1.2v5.5l-6.2-7.9h-2.9v.2c.3,0,.5,0,.7.1.2,0,.3.2.5.3.2.2.3.4.3.6s0,.6,0,1.1v5.6c0,.5,0,.9,0,1.2,0,.2-.2.5-.3.6-.1.1-.3.2-.5.3s-.4.1-.7.1v.2h3.5v-.2c-.3,0-.5,0-.7-.1-.2,0-.3-.2-.5-.3-.2-.2-.3-.4-.3-.6s0-.6,0-1.2v-6.6l7.2,9h0ZM339.7,108.9c.2-.7.5-1.3.9-1.8.3-.4.7-.7,1.1-.9.4-.2.9-.3,1.4-.3s1,0,1.4.3c.4.2.8.5,1.1.9.4.5.7,1.1.9,1.8.2.7.3,1.5.3,2.3,0,1.5-.4,2.7-1.2,3.7-.4.5-.7.8-1.2,1-.4.2-.9.3-1.4.3s-1-.1-1.4-.3c-.4-.2-.8-.5-1.1-1-.8-1-1.2-2.3-1.2-3.7s.1-1.6.3-2.3M337.9,113c.2.6.6,1.1,1,1.6.5.6,1.2,1.1,1.9,1.4.7.3,1.5.5,2.3.5s1.6-.2,2.3-.5c.7-.3,1.4-.8,1.9-1.4.4-.5.8-1,1-1.7s.4-1.2.4-1.9c0-1.3-.4-2.5-1.3-3.5-.6-.6-1.2-1.1-1.9-1.5-.7-.3-1.5-.5-2.3-.5s-1.2.1-1.8.3-1.2.5-1.7.9c-.7.5-1.2,1.2-1.6,1.9-.4.7-.6,1.5-.6,2.4s.1,1.3.3,1.9M331.5,105.8v.2c.3,0,.5,0,.7.1.2,0,.3.2.5.3.2.2.3.4.3.6s0,.6,0,1.2v5.6c0,.5,0,.9,0,1.2,0,.2-.2.5-.3.6-.1.1-.3.2-.5.3s-.4.1-.7.1v.2h4.9v-.2c-.3,0-.6,0-.8-.2-.2-.1-.4-.2-.5-.5,0-.1-.2-.3-.2-.6,0-.2,0-.6,0-1v-5.6c0-.4,0-.7,0-.9,0-.4.2-.6.4-.8s.3-.2.5-.3.4-.1.7-.1v-.2h-4.9ZM328.8,116.2h.3v-8c0-.5,0-.9,0-1.1s.2-.5.3-.6c.3-.3.7-.4,1.2-.4v-.2h-3.5v.2c.3,0,.5,0,.7.1.2,0,.3.2.5.3.2.2.3.4.3.6s0,.6,0,1.2v5.5l-6.2-7.9h-2.9v.2c.3,0,.5,0,.7.1.2,0,.3.2.5.3.2.2.3.4.3.6s0,.6,0,1.1v5.6c0,.5,0,.9,0,1.2,0,.2-.2.5-.3.6-.1.1-.3.2-.5.3s-.4.1-.7.1v.2h3.5v-.2c-.3,0-.5,0-.7-.1s-.3-.2-.5-.3c-.2-.2-.3-.4-.3-.6s0-.6,0-1.2v-6.6l7.2,9h0ZM308,105.8v.2c.3,0,.5,0,.7.1.2,0,.3.2.5.3.2.2.3.4.3.6s0,.6,0,1.2v4.6c0,.6,0,1,0,1.2,0,.6.4,1.1.8,1.5.7.6,1.7.9,3.2.9s2.4-.3,3.2-1c.3-.3.5-.6.7-.9.1-.3.2-.9.2-1.6v-4.8c0-.5,0-.9,0-1.2,0-.2.2-.5.3-.6.1-.1.3-.2.5-.3s.4-.1.7-.1v-.2h-3.5v.2c.3,0,.5,0,.7.1.2,0,.3.2.5.3.2.2.3.4.3.6s0,.6,0,1.2v4.2c0,.8,0,1.3,0,1.5,0,.3,0,.6-.2.8,0,.2-.2.4-.4.6-.3.3-.7.5-1.2.7s-1,.2-1.5.2-1,0-1.3-.3c-.4-.2-.7-.5-.9-.9-.2-.3-.3-.6-.3-.9s0-.8,0-1.5v-4.3c0-.6,0-1,0-1.3,0-.2.2-.5.3-.6.1-.1.3-.2.5-.3s.4-.1.7-.1v-.2h-4.8,0ZM287.9,105.8v.2c.3,0,.5,0,.7.1.2,0,.3.2.5.3.2.2.3.4.3.6s0,.6,0,1.2v5.6c0,.5,0,.9,0,1.2,0,.2-.2.5-.3.6-.1.1-.3.2-.5.3s-.4.1-.7.1v.2h4.8v-.2c-.4,0-.6,0-.8-.2-.2-.1-.4-.2-.5-.5,0-.1-.2-.3-.2-.6,0-.2,0-.6,0-1v-5.6c0-.4,0-.7,0-.9,0-.4.2-.6.4-.8.1-.1.3-.2.5-.3s.4-.1.7-.1v-.2h-4.9ZM280.1,106.1c.7,0,1.2,0,1.6.2.8.2,1.5.7,2,1.3.4.5.7,1,.9,1.7.2.7.3,1.3.3,2.1s0,1.3-.3,1.8c-.2.6-.4,1.1-.8,1.5-.4.5-.7.8-1.2,1-.4.2-1,.3-1.6.3s-1.3-.2-1.6-.6c-.2-.2-.2-.4-.3-.7,0-.3,0-.6,0-1.1v-7.5h.9,0ZM275.9,116.2h5.6c.7,0,1.3,0,1.9-.2.8-.2,1.5-.5,2.1-1.1.4-.4.7-.9.9-1.5s.3-1.3.3-2-.2-1.8-.6-2.6c-.4-.8-.9-1.5-1.7-2-.7-.5-1.7-.8-2.7-.9-.2,0-.9,0-1.8,0h-4.2v.2c.5,0,.9.1,1.1.4.2.2.3.4.4.6,0,.3.1.7.1,1.2v5.6c0,.5,0,.9,0,1.2,0,.2-.2.5-.3.6-.1.1-.3.2-.5.3s-.4.1-.7.1v.2h0ZM266.2,105.8v.2c.3,0,.5,0,.7.1.2,0,.3.2.5.3.2.2.3.4.3.6s0,.6,0,1.2v5.6c0,.5,0,.9,0,1.2,0,.2-.2.5-.3.6-.1.1-.3.2-.5.3s-.4.1-.7.1v.2h9.1v-3c.1,0,0,0,0,0,0,.4-.2.8-.3,1.1-.1.3-.3.5-.4.7-.2.3-.6.6-1,.7-.4.2-.9.2-1.5.2s-1,0-1.4-.2c-.4-.2-.6-.4-.8-.8-.1-.2-.2-.5-.2-.8,0-.3,0-.8,0-1.5v-1.7h.4c.4,0,.7,0,.9.1s.4.2.6.4c.2.2.3.4.4.6s.2.6.2.9h.2v-4.1s-.1,0-.1,0c0,.4-.1.7-.2.9,0,.2-.2.4-.3.5-.1.2-.3.3-.6.3s-.6,0-1,0h-.5v-4.6h1.7c.5,0,1,0,1.3.1.3,0,.6.2.9.4.3.2.5.5.7.7.1.3.3.6.3,1.1h.2v-2.5h-8.3,0ZM259.4,106.1h.3c.6,0,1,0,1.3.1.3,0,.6.2.8.4.3.2.5.5.6.9s.2.7.2,1.1c0,.7-.3,1.4-.8,1.9-.2.2-.5.4-.8.4s-.7.1-1.3.1h-.3v-4.9h0ZM259.8,111.1c.2,0,.4,0,.6,0,.2,0,.3.1.4.2.3.2.6.6.9,1.1.3.6.6,1.2,1,1.9l.5,1.2s.1.2.2.5h2.5v-.2c-.2,0-.4,0-.5-.1-.1,0-.2-.2-.4-.3-.2-.2-.4-.5-.6-.9s-.6-1.1-1-2c-.2-.4-.3-.7-.4-.9s-.2-.3-.3-.4c-.1-.1-.4-.3-.7-.4.4,0,.7-.2.9-.3.2,0,.4-.2.6-.4.6-.5.9-1.1.9-1.9s-.1-1-.4-1.4c-.3-.4-.7-.7-1.2-.9-.4-.2-1.1-.3-1.8-.3h-4.9v.2c.3,0,.5,0,.7.1.2,0,.3.2.5.3.2.2.3.4.3.6s0,.6,0,1.2v5.6c0,.5,0,.9,0,1.2,0,.2-.2.5-.3.6-.1.1-.3.2-.5.3s-.4.1-.7.1v.2h4.8v-.2c-.3,0-.5,0-.7-.1-.2,0-.3-.2-.5-.3-.2-.2-.3-.4-.3-.6s0-.6,0-1.2v-2.7h.4ZM254.9,105.8c0,.1,0,.2-.1.2,0,.1-.2.2-.3.2s-.2,0-.3,0l-.6-.2c-.7-.2-1.3-.4-2-.4s-1.3.1-1.9.3c-.6.2-1.2.5-1.7.9-.6.5-1.1,1.1-1.4,1.9-.3.8-.5,1.6-.5,2.6s.3,2.3.9,3.1c.6.9,1.4,1.5,2.4,1.8.6.2,1.3.3,2,.3s1.4-.1,2-.4c.6-.2,1-.6,1.3-1,.3-.5.6-1.1.7-1.9h-.2c-.1.7-.3,1.2-.6,1.7-.2.4-.6.7-1.1.9-.5.2-1,.3-1.6.3-1.2,0-2.1-.4-2.8-1.2-.4-.4-.7-1-.9-1.6s-.3-1.3-.3-2.1.1-1.8.4-2.5c.2-.5.5-1,.8-1.4.3-.4.7-.7,1-.9.4-.2.9-.4,1.5-.4s.7,0,1,.2.6.3.9.6c.4.4.7.7.9,1.2.1.2.2.6.4,1.1,0,0,0,.2.1.3h.2v-3.4h-.3,0Z"/>
      <path class="st4" d="M358.9,116.2h.3v-8c0-.5,0-.9,0-1.1s.2-.5.3-.6c.3-.3.7-.4,1.2-.4v-.2h-3.5v.2c.3,0,.5,0,.7.1s.3.2.5.3c.2.2.3.4.3.6s0,.6,0,1.2v5.5l-6.2-7.9h-2.9v.2c.3,0,.5,0,.7.1.2,0,.3.2.5.3.2.2.3.4.3.6s0,.6,0,1.1v5.6c0,.5,0,.9,0,1.2,0,.2-.2.5-.3.6-.1.1-.3.2-.5.3s-.4.1-.7.1v.2h3.5v-.2c-.3,0-.5,0-.7-.1-.2,0-.3-.2-.5-.3-.2-.2-.3-.4-.3-.6s0-.6,0-1.2v-6.6l7.2,9h0ZM339.7,108.9c.2-.7.5-1.3.9-1.8.3-.4.7-.7,1.1-.9.4-.2.9-.3,1.4-.3s1,0,1.4.3c.4.2.8.5,1.1.9.4.5.7,1.1.9,1.8.2.7.3,1.5.3,2.3,0,1.5-.4,2.7-1.2,3.7-.4.5-.7.8-1.2,1-.4.2-.9.3-1.4.3s-1-.1-1.4-.3c-.4-.2-.8-.5-1.1-1-.8-1-1.2-2.3-1.2-3.7s.1-1.6.3-2.3h0ZM337.9,113c.2.6.6,1.1,1,1.6.5.6,1.2,1.1,1.9,1.4.7.3,1.5.5,2.3.5s1.6-.2,2.3-.5c.7-.3,1.4-.8,1.9-1.4.4-.5.8-1,1-1.7s.4-1.2.4-1.9c0-1.3-.4-2.5-1.3-3.5-.6-.6-1.2-1.1-1.9-1.5-.7-.3-1.5-.5-2.3-.5s-1.2.1-1.8.3-1.2.5-1.7.9c-.7.5-1.2,1.2-1.6,1.9-.4.7-.6,1.5-.6,2.4s.1,1.3.3,1.9h0ZM331.6,105.9v.2c.3,0,.5,0,.7.1.2,0,.3.2.5.3.2.2.3.4.3.6s0,.6,0,1.2v5.6c0,.5,0,.9,0,1.2,0,.2-.2.5-.3.6-.1.1-.3.2-.5.3s-.4.1-.7.1v.2h4.9v-.2c-.3,0-.6,0-.8-.2-.2-.1-.4-.2-.5-.5,0-.1-.2-.3-.2-.6,0-.2,0-.6,0-1v-5.6c0-.4,0-.7,0-.9,0-.4.2-.6.4-.8s.3-.2.5-.3.4-.1.7-.1v-.2h-4.9ZM328.9,116.2h.3v-8c0-.5,0-.9,0-1.1s.2-.5.3-.6c.3-.3.7-.4,1.2-.4v-.2h-3.5v.2c.3,0,.5,0,.7.1.2,0,.3.2.5.3.2.2.3.4.3.6s0,.6,0,1.2v5.5l-6.2-7.9h-2.9v.2c.3,0,.5,0,.7.1.2,0,.3.2.5.3.2.2.3.4.3.6s0,.6,0,1.1v5.6c0,.5,0,.9,0,1.2,0,.2-.2.5-.3.6-.1.1-.3.2-.5.3s-.4.1-.7.1v.2h3.5v-.2c-.3,0-.5,0-.7-.1s-.3-.2-.5-.3c-.2-.2-.3-.4-.3-.6s0-.6,0-1.2v-6.6l7.2,9h0ZM308,105.9v.2c.3,0,.5,0,.7.1.2,0,.3.2.5.3.2.2.3.4.3.6s0,.6,0,1.2v4.6c0,.6,0,1,0,1.2,0,.6.4,1.1.8,1.5.7.6,1.7.9,3.2.9s2.4-.3,3.2-1c.3-.3.5-.6.7-.9.1-.3.2-.9.2-1.6v-4.8c0-.5,0-.9,0-1.2,0-.2.2-.5.3-.6.1-.1.3-.2.5-.3s.4-.1.7-.1v-.2h-3.5v.2c.3,0,.5,0,.7.1.2,0,.3.2.5.3.2.2.3.4.3.6s0,.6,0,1.2v4.2c0,.8,0,1.3,0,1.5,0,.3,0,.6-.2.8,0,.2-.2.4-.4.6-.3.3-.7.5-1.2.7s-1,.2-1.5.2-1,0-1.3-.3c-.4-.2-.7-.5-.9-.9-.2-.3-.3-.6-.3-.9s0-.8,0-1.5v-4.3c0-.6,0-1,0-1.3,0-.2.2-.5.3-.6.1-.1.3-.2.5-.3s.4-.1.7-.1v-.2h-4.8,0ZM287.9,105.9v.2c.3,0,.5,0,.7.1.2,0,.3.2.5.3.2.2.3.4.3.6s0,.6,0,1.2v5.6c0,.5,0,.9,0,1.2,0,.2-.2.5-.3.6-.1.1-.3.2-.5.3s-.4.1-.7.1v.2h4.8v-.2c-.4,0-.6,0-.8-.2-.2-.1-.4-.2-.5-.5,0-.1-.2-.3-.2-.6,0-.2,0-.6,0-1v-5.6c0-.4,0-.7,0-.9,0-.4.2-.6.4-.8.1-.1.3-.2.5-.3s.4-.1.7-.1v-.2h-4.9ZM280.1,106.1c.7,0,1.2,0,1.6.2.8.2,1.5.7,2,1.3.4.5.7,1,.9,1.7.2.7.3,1.3.3,2.1s0,1.3-.3,1.8c-.2.6-.4,1.1-.8,1.5-.4.5-.7.8-1.2,1-.4.2-1,.3-1.6.3s-1.3-.2-1.6-.6c-.2-.2-.2-.4-.3-.7,0-.3,0-.6,0-1.1v-7.5h.9,0ZM275.9,116.2h5.6c.7,0,1.3,0,1.9-.2.8-.2,1.5-.5,2.1-1.1.4-.4.7-.9.9-1.5s.3-1.3.3-2-.2-1.8-.6-2.6c-.4-.8-.9-1.5-1.7-2-.7-.5-1.7-.8-2.7-.9-.2,0-.9,0-1.8,0h-4.2v.2c.5,0,.9.1,1.1.4.2.2.3.4.4.6,0,.3.1.7.1,1.2v5.6c0,.5,0,.9,0,1.2,0,.2-.2.5-.3.6-.1.1-.3.2-.5.3s-.4.1-.7.1v.2h0ZM266.2,105.9v.2c.3,0,.5,0,.7.1.2,0,.3.2.5.3.2.2.3.4.3.6s0,.6,0,1.2v5.6c0,.5,0,.9,0,1.2,0,.2-.2.5-.3.6-.1.1-.3.2-.5.3s-.4.1-.7.1v.2h9.1v-3c.1,0,0,0,0,0,0,.4-.2.8-.3,1.1-.1.3-.3.5-.4.7-.2.3-.6.6-1,.7-.4.2-.9.2-1.5.2s-1,0-1.4-.2c-.4-.2-.6-.4-.8-.8-.1-.2-.2-.5-.2-.8,0-.3,0-.8,0-1.5v-1.7h.4c.4,0,.7,0,.9.1s.4.2.6.4c.2.2.3.4.4.6s.2.6.2.9h.2v-4.1s-.1,0-.1,0c0,.4-.1.7-.2.9,0,.2-.2.4-.3.5-.1.2-.3.3-.6.3s-.6,0-1,0h-.5v-4.6h1.7c.5,0,1,0,1.3.1.3,0,.6.2.9.4.3.2.5.5.7.7.1.3.3.6.3,1.1h.2v-2.5h-8.3,0ZM259.4,106.1h.3c.6,0,1,0,1.3.1.3,0,.6.2.8.4.3.2.5.5.6.9s.2.7.2,1.1c0,.7-.3,1.4-.8,1.9-.2.2-.5.4-.8.4s-.7.1-1.3.1h-.3v-4.9h0ZM259.8,111.1c.2,0,.4,0,.6,0,.2,0,.3.1.4.2.3.2.6.6.9,1.1.3.6.6,1.2,1,1.9l.5,1.2s.1.2.2.5h2.5v-.2c-.2,0-.4,0-.5-.1-.1,0-.2-.2-.4-.3-.2-.2-.4-.5-.6-.9s-.6-1.1-1-2c-.2-.4-.3-.7-.4-.9s-.2-.3-.3-.4c-.1-.1-.4-.3-.7-.4.4,0,.7-.2.9-.3.2,0,.4-.2.6-.4.6-.5.9-1.1.9-1.9s-.1-1-.4-1.4c-.3-.4-.7-.7-1.2-.9-.4-.2-1.1-.3-1.8-.3h-4.9v.2c.3,0,.5,0,.7.1.2,0,.3.2.5.3.2.2.3.4.3.6s0,.6,0,1.2v5.6c0,.5,0,.9,0,1.2,0,.2-.2.5-.3.6-.1.1-.3.2-.5.3s-.4.1-.7.1v.2h4.8v-.2c-.3,0-.5,0-.7-.1-.2,0-.3-.2-.5-.3-.2-.2-.3-.4-.3-.6s0-.6,0-1.2v-2.7h.4ZM254.9,105.8c0,.1,0,.2-.1.2,0,.1-.2.2-.3.2s-.2,0-.3,0l-.6-.2c-.7-.2-1.3-.4-2-.4s-1.3.1-1.9.3c-.6.2-1.2.5-1.7.9-.6.5-1.1,1.1-1.4,1.9-.3.8-.5,1.6-.5,2.6s.3,2.3.9,3.1c.6.9,1.4,1.5,2.4,1.8.6.2,1.3.3,2,.3s1.4-.1,2-.4c.6-.2,1-.6,1.3-1,.3-.5.6-1.1.7-1.9h-.2c-.1.7-.3,1.2-.6,1.7-.2.4-.6.7-1.1.9-.5.2-1,.3-1.6.3-1.2,0-2.1-.4-2.8-1.2-.4-.4-.7-1-.9-1.6s-.3-1.3-.3-2.1.1-1.8.4-2.5c.2-.5.5-1,.8-1.4.3-.4.7-.7,1-.9.4-.2.9-.4,1.5-.4s.7,0,1,.2.6.3.9.6c.4.4.7.7.9,1.2.1.2.2.6.4,1.1,0,0,0,.2.1.3h.2v-3.4h-.3,0Z"/>
      <path class="st0" d="M356.8,93c-1.4,3.7-3.6,5.9-5.1,5.9s-1.3-.5-1.3-1.8.7-3.5,1-4.5l9.7-31.8h-.6c-1.7.6-3.6,1-6.9,1l-.4,1.2h1c1.4,0,2.3,0,2.3,1.3s-.8,3.4-1,3.9l-7.5,24.2c-.2.6-.8,3-.8,4.5s1.2,3.6,3.4,3.6c3.8,0,6.3-4.6,7.4-7.6h-1.3,0ZM325.4,95.2c0-4.9,5.8-17.9,10.9-17.9s2.4,1.1,2.4,2.8-1.5,7.6-3.9,12.3c-2,4-5.3,6.5-7,6.5s-2.3-2.4-2.3-3.8M340.2,76.3l-.7,2.5c-.4-2.1-1.8-3-3.5-3-5.1,0-14,9.5-14,18.5s2.5,6.3,4.8,6.3c3.5,0,7.2-4.6,8.3-6.8-.5,1.4-.7,2.8-.7,3.4,0,1.3.6,3.4,2.8,3.4s5.1-2.9,6.9-6.7h-1.2c-1.1,2-2.9,4.5-4.5,4.5s-1-.6-1-1.2c0-.7.7-3.2,1.1-4.3l5-16.5h-3.4ZM306.8,83.4c.9-2.1,2.8-5.7,4.3-5.7s.9,1.5.9,1.7c0,1.6-1,4.8-2,8l-3.8,12.7h3.4l.9-2.9c1.6-5.1,6.6-18.7,8.8-18.7s.6.3.9.6c.3.3.6.6,1.3.6s1.7-.7,1.7-1.9-.9-2.1-2.2-2.1c-3.4,0-6.1,7.4-7.8,11.3.4-1.7,1.3-5,1.3-7.4s-1.1-3.9-2.4-3.9c-3,0-5.4,4.8-6.5,7.6h1.2,0ZM292.7,89.2c2.3-8.4,5.9-11.8,7.7-11.8s1.8.4,1.8,2.1c0,3.5-5.7,8-9.5,9.7M301,92.5c-1.7,3.7-4,6.4-6.8,6.4s-2.9,0-2.9-3.6.5-3.5.9-4.7c6.2-2.6,12.2-6.4,12.2-11.2s-.4-3.6-3.2-3.6c-5.1,0-13.2,9.7-13.2,18.7s2.9,6.1,5.2,6.1c3.8,0,7.2-3.4,9.2-8h-1.4ZM267.3,95.8c0-5,5.5-18.5,10.6-18.5s2.5,1.3,2.5,2.7-1.4,6.2-2.8,9.6c-2.3,5.7-5.7,9.5-8.2,9.5s-2.2-2.7-2.2-3.2M284.4,94.6c-1.2,2-3.1,3.9-4.1,3.9s-1-.9-1-1.4c0-.8.3-2,.7-3.6l9.9-32.6h-.5c-1.6.5-4.1,1-6.8,1l-.4,1.2c2.3,0,3.1,0,3.1,1.3s-.4,1.4-.6,2.4l-3.4,11.4c-.7-1.4-2-2.4-3.6-2.4-5.8,0-13.6,9.8-13.6,18.7s1.2,6.1,4.6,6.1,6.1-3.7,7.3-5c-.4,3.6.9,5,2.9,5s5.1-3,6.8-5.9h-1.4ZM251.1,89.2c2.3-8.4,5.9-11.8,7.7-11.8s1.8.4,1.8,2.1c0,3.5-5.7,8-9.5,9.7M259.5,92.5c-1.7,3.7-4,6.4-6.8,6.4s-2.9,0-2.9-3.6.5-3.5.9-4.7c6.2-2.6,12.2-6.4,12.2-11.2s-.3-3.6-3.2-3.6c-5.1,0-13.2,9.7-13.2,18.7s2.9,6.1,5.2,6.1c3.8,0,7.2-3.4,9.2-8h-1.4ZM248.3,75.6h-5.1l1.5-5.4c.8-3,2.8-9.6,7.3-9.6s1.6.6,2.3,1.5c.7.9,1.2,2.1,2.5,2.1s1.5-1.2,1.5-1.6c0-1.6-2.1-3.4-5.3-3.4-8.8,0-11.8,9.9-13.4,16.4h-5.8l-.4,1.3h5.8l-4.5,16.7c-3.6,13.3-6.4,18.9-11.5,18.9s-2.4-1-2.4-1.5.2-.9.2-1.3c0-1.1-.8-2.2-2.2-2.2s-2.1.8-2.1,2.2c0,2.7,3.9,4,6.5,4,9.7,0,13.2-13.3,14.9-19.8l4.6-17.2h5.1l.4-1.3h0Z"/>
      <path class="st3" d="M363.5,97.2c0-.3,0-.4-.2-.5s-.4-.1-.6-.1h-.8v1.4h.6c.3,0,.6,0,.7-.2s.3-.3.3-.6M363.5,99.6l-1-1.5h-.7v1.5h-.3v-3.3h1.1c.3,0,.6,0,.8.2s.3.4.3.7,0,.5-.3.7c-.2.1-.4.2-.6.2l1,1.5h-.3ZM359.8,97.9c0,.4,0,.7.2,1,.1.3.3.6.6.9.2.2.5.4.9.6.3.1.7.2,1.1.2s.7,0,1-.2c.3-.1.6-.3.9-.6.2-.2.4-.5.6-.9.1-.3.2-.7.2-1s0-.7-.2-1c-.1-.3-.3-.6-.6-.9-.2-.2-.5-.4-.9-.6s-.7-.2-1-.2-.7,0-1.1.2c-.3.1-.6.3-.9.6-.2.2-.4.5-.6.9-.1.3-.2.7-.2,1M359.5,97.9c0-.4,0-.8.2-1.2.2-.4.4-.7.7-1,.3-.3.6-.5,1-.6s.8-.2,1.2-.2.8,0,1.2.2.7.4,1,.6.5.6.6,1,.2.8.2,1.2,0,.8-.2,1.2c-.2.4-.4.7-.6.9-.3.3-.6.5-1,.6-.4.2-.8.2-1.2.2s-.8,0-1.2-.2-.7-.4-1-.6-.5-.6-.7-.9c-.2-.4-.2-.7-.2-1.2"/>
      <path class="st4" d="M363.5,97.2c0-.3,0-.4-.2-.5s-.4-.1-.6-.1h-.8v1.4h.6c.3,0,.6,0,.7-.2s.3-.3.3-.6ZM363.5,99.6l-1-1.5h-.7v1.5h-.3v-3.3h1.1c.3,0,.6,0,.8.2s.3.4.3.7,0,.5-.3.7c-.2.1-.4.2-.6.2l1,1.5h-.3ZM359.8,97.9c0,.4,0,.7.2,1,.1.3.3.6.6.9.2.2.5.4.9.6.3.1.7.2,1.1.2s.7,0,1-.2c.3-.1.6-.3.9-.6.2-.2.4-.5.6-.9.1-.3.2-.7.2-1s0-.7-.2-1c-.1-.3-.3-.6-.6-.9-.2-.2-.5-.4-.9-.6s-.7-.2-1-.2-.7,0-1.1.2c-.3.1-.6.3-.9.6-.2.2-.4.5-.6.9-.1.3-.2.7-.2,1ZM359.5,97.9c0-.4,0-.8.2-1.2.2-.4.4-.7.7-1,.3-.3.6-.5,1-.6s.8-.2,1.2-.2.8,0,1.2.2.7.4,1,.6.5.6.6,1,.2.8.2,1.2,0,.8-.2,1.2c-.2.4-.4.7-.6.9-.3.3-.6.5-1,.6-.4.2-.8.2-1.2.2s-.8,0-1.2-.2-.7-.4-1-.6-.5-.6-.7-.9c-.2-.4-.2-.7-.2-1.2Z"/>
      <path class="st3" d="M298,113.8c0,.5,0,.9,0,1.2,0,.2-.2.5-.3.6-.1.1-.3.2-.5.3s-.4.1-.7.1v.2h4.8v-.2c-.3,0-.5,0-.7-.1-.2,0-.3-.2-.5-.3-.2-.2-.3-.4-.3-.6s0-.6,0-1.2v-7.8c1.1,0,1.9,0,2.4.2.6.2,1,.4,1.3.8.3.4.5.9.6,1.6h.2v-2.8h-10.4v2.8c-.1,0,0,0,0,0,.1-.6.3-1.1.5-1.4.2-.4.6-.7.9-.8.4-.2,1-.2,1.7-.3.4,0,.7,0,1,0v7.8h0Z"/>
      <path class="st4" d="M298,113.8c0,.5,0,.9,0,1.2,0,.2-.2.5-.3.6-.1.1-.3.2-.5.3s-.4.1-.7.1v.2h4.8v-.2c-.3,0-.5,0-.7-.1-.2,0-.3-.2-.5-.3-.2-.2-.3-.4-.3-.6s0-.6,0-1.2v-7.8c1.1,0,1.9,0,2.4.2.6.2,1,.4,1.3.8.3.4.5.9.6,1.6h.2v-2.8h-10.4v2.8c-.1,0,0,0,0,0,.1-.6.3-1.1.5-1.4.2-.4.6-.7.9-.8.4-.2,1-.2,1.7-.3.4,0,.7,0,1,0v7.8h0Z"/>
    </g>
    <g>
      <path class="st1" d="M73.1,112.6c-16.3,0-29.5-8.8-29.5-19.7s13.2-19.7,29.5-19.7,29.5,8.8,29.5,19.7-13.2,19.7-29.5,19.7ZM73.1,76.8c-14.2,0-25.9,7.3-25.9,16.1s11.7,16.1,25.9,16.1,25.9-7.3,25.9-16.1-11.5-16.1-25.9-16.1Z"/>
      <path class="st0" d="M61.2,109.9c-4.9,0-9.3-1.7-12.6-4.7-4.1-4.1-5.8-9.8-4.7-16.6,1-6.4,4.4-13.1,9.7-18.3,6.4-6.6,14.8-10.5,22.4-10.5s9.3,1.7,12.6,4.7c4.1,4.1,5.8,9.8,4.7,16.6-1,6.4-4.4,13.1-9.7,18.3-6.4,6.6-14.8,10.5-22.4,10.5ZM76,63.3c-6.6,0-14.1,3.6-19.8,9.3-4.7,4.9-7.8,10.7-8.6,16.4-.9,5.6.5,10.4,3.7,13.6,2.5,2.4,5.9,3.7,10,3.7,6.6,0,14.1-3.6,19.8-9.3,4.7-4.9,7.8-10.7,8.6-16.4.9-5.6-.5-10.4-3.7-13.6-2.5-2.4-5.9-3.7-10-3.7Z"/>
      <path class="st2" d="M59.7,110.6c-.7,0-1.3,0-2.2-.2-11-1.7-18-17-15.3-34.1,2.5-15.8,12.4-27.6,22.9-27.6s1.3,0,2.2.2c5.6.9,10.2,4.9,12.9,11.5,2.7,6.3,3.6,14.2,2.2,22.4-2.4,15.9-12.2,27.8-22.7,27.8h0ZM65.1,52.3c-8.6,0-17.1,10.8-19.3,24.8-2.4,15.1,3.1,28.5,12.2,30,9.2,1.5,18.6-10,21-24.8,1.2-7.5.5-14.8-2-20.5-2.4-5.4-5.9-8.8-10.4-9.5h-1.5,0Z"/>
    </g>
  </g>
</svg>