<?xml version="1.0" encoding="UTF-8"?>
<svg id="a" xmlns="http://www.w3.org/2000/svg" version="1.1" viewBox="0 0 780 155.5">
  <!-- Generator: Adobe Illustrator 29.0.1, SVG Export Plug-In . SVG Version: 2.1.0 Build 192)  -->
  <defs>
    <style>
      .st0 {
        fill: #60504d;
      }

      .st1 {
        fill: #b25c1a;
      }

      .st2 {
        fill: #463738;
      }
    </style>
  </defs>
  <g>
    <rect class="st0" x="399" y="11.5" width="2.6" height="136.2"/>
    <path class="st0" d="M401,12v135.2h-1.6V12h1.6M402,11h-3.6v137.2h3.6V11h0Z"/>
  </g>
  <g>
    <path class="st0" d="M445.8,77.7v-20.5h4.5v20.5h-4.5Z"/>
    <path class="st0" d="M483.8,77.7l-10-13.1v13.1h-4.5v-20.5h4.2l9.6,12.7v-12.7h4.5v20.5h-3.9Z"/>
    <path class="st0" d="M517,77.9h-4l-8.3-20.7h5l5.4,14.5,5.4-14.5h4.9l-8.3,20.7Z"/>
    <path class="st0" d="M542.4,77.7v-20.5h15.5v4h-11v4.2h9.7v4h-9.7v4.3h11.2v4h-15.6,0Z"/>
    <path class="st0" d="M590.4,77.7l-10-13.1v13.1h-4.5v-20.5h4.2l9.6,12.7v-12.7h4.5v20.5h-3.8Z"/>
    <path class="st0" d="M622.3,61.3v16.4h-4.5v-16.4h-6.2v-4.2h17v4.2h-6.3Z"/>
    <path class="st0" d="M666.1,71.6c-.5,1.3-1.3,2.4-2.3,3.4s-2.1,1.7-3.5,2.3-2.8.8-4.4.8-3-.3-4.4-.8c-1.3-.6-2.5-1.3-3.5-2.3-1-.9-1.7-2.1-2.3-3.3-.5-1.3-.8-2.7-.8-4.1h0c0-1.5.3-2.9.8-4.2.5-1.3,1.3-2.4,2.3-3.4,1-1,2.1-1.7,3.5-2.3s2.8-.8,4.4-.8,3,.3,4.4.8c1.3.6,2.5,1.3,3.5,2.3,1,1,1.7,2.1,2.3,3.3.5,1.3.8,2.7.8,4.1h0c0,1.5-.3,2.9-.8,4.2h0ZM662.2,67.5c0-.9-.2-1.7-.5-2.5-.3-.8-.7-1.5-1.3-2.1s-1.2-1-2-1.4-1.6-.5-2.5-.5-1.8.2-2.5.5-1.4.8-1.9,1.4-1,1.3-1.3,2-.5,1.6-.5,2.5h0c0,.9.2,1.8.5,2.6.3.8.7,1.5,1.3,2.1s1.2,1.1,2,1.4c.8.3,1.6.5,2.5.5s1.7-.2,2.5-.5c.8-.3,1.4-.8,2-1.4s1-1.3,1.3-2c.3-.8.5-1.6.5-2.5h0Z"/>
    <path class="st0" d="M697.3,77.7l-4.4-6.6h-3.5v6.6h-4.5v-20.5h9.4c2.5,0,4.3.6,5.7,1.8,1.4,1.2,2,2.9,2,5h0c0,1.7-.4,3.1-1.2,4.1s-1.9,1.8-3.2,2.3l5,7.3h-5.3,0ZM697.4,64.2c0-1-.3-1.7-.9-2.2s-1.5-.7-2.6-.7h-4.5v5.9h4.6c1.1,0,2-.3,2.6-.8.6-.5.9-1.2.9-2.1h0c0,0,0,0,0,0Z"/>
    <path class="st0" d="M730.2,69.5v8.2h-4.5v-8.1l-7.9-12.5h5.3l4.9,8.3,5-8.2h5.1l-7.9,12.4h0Z"/>
    <path class="st0" d="M487.2,100.3v16.4h-4.5v-16.4h-6.2v-4.2h17v4.2h-6.3Z"/>
    <path class="st0" d="M523.3,116.7l-4.4-6.6h-3.5v6.6h-4.5v-20.5h9.4c2.5,0,4.3.6,5.7,1.8,1.4,1.2,2,2.9,2,5h0c0,1.7-.4,3.1-1.2,4.1s-1.9,1.8-3.2,2.3l5,7.3h-5.3ZM523.4,103.2c0-1-.3-1.7-.9-2.2s-1.5-.7-2.6-.7h-4.5v5.9h4.6c1.1,0,2-.3,2.6-.8.6-.5.9-1.2.9-2.1h0c0,0,0,0,0,0Z"/>
    <path class="st0" d="M561.2,116.7l-1.9-4.6h-8.7l-1.9,4.6h-4.6l8.8-20.7h4.2l8.8,20.7s-4.7,0-4.7,0ZM555,101.5l-2.7,6.7h5.5l-2.7-6.7h0Z"/>
    <path class="st0" d="M599.4,114.9c-.6.4-1.2.8-1.9,1.2-.7.3-1.4.6-2.2.7s-1.7.2-2.7.2c-1.5,0-2.9-.3-4.2-.8s-2.4-1.3-3.3-2.2-1.7-2.1-2.2-3.4-.8-2.7-.8-4.1h0c0-1.5.3-2.9.8-4.2.5-1.3,1.3-2.4,2.2-3.4.9-1,2.1-1.7,3.4-2.3,1.3-.6,2.8-.8,4.3-.8s1.8,0,2.6.2c.8.2,1.5.4,2.2.7.7.3,1.2.6,1.8,1s1.1.8,1.5,1.3l-2.9,3.3c-.8-.7-1.6-1.3-2.5-1.7s-1.8-.6-2.8-.6-1.7.2-2.4.5c-.7.3-1.4.8-1.9,1.4-.5.6-.9,1.3-1.2,2-.3.8-.4,1.6-.4,2.5h0c0,.9.2,1.8.4,2.6.3.8.7,1.5,1.2,2.1.5.6,1.2,1.1,1.9,1.4s1.5.5,2.4.5,2.2-.2,3-.7,1.6-1,2.4-1.8l2.9,2.9c-.5.6-1.1,1.1-1.6,1.5h0Z"/>
    <path class="st0" d="M631.8,116.7l-6.4-8.8-2.4,2.5v6.3h-4.5v-20.5h4.5v9l8.3-9h5.5l-8.4,8.7,8.8,11.8h-5.4Z"/>
    <path class="st0" d="M653.9,116.7v-20.5h15.5v4h-11v4.2h9.7v4h-9.7v4.3h11.2v4h-15.6,0Z"/>
    <path class="st0" d="M699.9,116.7l-4.4-6.6h-3.5v6.6h-4.5v-20.5h9.4c2.5,0,4.3.6,5.7,1.8,1.4,1.2,2,2.9,2,5h0c0,1.7-.4,3.1-1.2,4.1s-1.9,1.8-3.2,2.3l5,7.3h-5.3,0ZM700,103.2c0-1-.3-1.7-.9-2.2s-1.5-.7-2.6-.7h-4.5v5.9h4.6c1.1,0,2-.3,2.6-.8.6-.5.9-1.2.9-2.1h0c0,0,0,0,0,0Z"/>
  </g>
  <g>
    <g>
      <path class="st0" d="M356.5,80.3c0-2.4,0-5.1.4-6.1.2-.5.7-.6,1.3-.7l.7-.2c.3-.2.2-.7,0-.9-1.1,0-1.9.1-3.2.1s-2.3,0-3.5-.1c-.3.1-.3.7,0,.9h.7c.8.2,1.3.4,1.5.9.6.9.6,3.8.6,6.1v6c0,.5,0,.7-.1.7-.3-.2-3.2-3.5-4.5-4.9l-3.1-3.3c-1.1-1.2-4.4-5.1-5-6.4-.7,0-1.5.1-2.1.1s-2.5,0-3.6-.1c-.3.1-.3.7-.1.9h.5c.4.2,1.3.4,1.6.7,1.1.9,1,1.4,1,3.8v7.3c0,2.4,0,5.1-.4,6.1-.2.5-.8.6-1.4.7l-.7.2c-.3.2-.2.7,0,.9,1.1,0,1.9-.1,3.2-.1s2.4,0,3.5.1c.3-.1.3-.7,0-.9h-.7c-.8-.2-1.3-.4-1.6-.9-.5-.9-.6-3.8-.6-6.1v-6c0-1.6,0-2,.1-2,.5.5,1.5,1.6,3.5,3.9l7.2,8.2c2.2,2.5,3.1,3.6,3.6,4.2.4,0,.8-.1,1.1-.4-.1-.7-.1-4.5-.1-5.4v-7.4h0ZM325,73.3c4.9,0,7,5.4,7,10.1s-2.8,8.8-6.4,8.8c-5.3,0-7.1-5.8-7.1-10.1,0-6.6,3.4-8.8,6.5-8.8M325.4,72c-6.5,0-11,4.7-11,10.9s4,10.4,11,10.4,10.9-4.5,10.9-10.6-3.7-10.7-10.8-10.7M305.2,93.4c4.5,0,7.2-2.5,7.2-6s-2.2-5-4.2-6.1l-1.9-1c-2-1.1-2.9-2.5-2.9-3.8s1-3.2,3.5-3.2,3.7,2.1,4.2,3.7c.3.2.8.2,1-.1,0-1.5-.3-3.5-.7-4.2-1.5-.3-2.6-.7-4.2-.7-4.5,0-6.8,2.6-6.8,5.6s2,4.7,4.3,5.9l1.3.7c2.3,1.3,3.1,2.7,3.1,4.5s-1.3,3.3-3.7,3.3-4.7-3.3-5.2-4.9c-.3-.2-.8-.2-1,.1,0,1.9.4,4,.9,4.7.6.4,2.2,1.3,5.1,1.3M296.4,72.9c-.3,0-.5-.1-.9-.2-1.5-.4-3.6-.7-5.3-.7-3.1,0-6.2.9-8.5,2.6-2.3,1.8-3.9,4.6-3.9,8.2s1.9,6.9,4.4,8.5c2.2,1.5,4.8,2.1,7.9,2.1s4.1-.5,4.8-.7c.3-.1.7-.2,1.1-.3.4-.6,1.3-2.6,1.5-4.7-.2-.3-.7-.4-.9-.1-.9,2-2.6,4.6-6.5,4.6s-8.1-3.2-8.1-9.8,3.9-9.1,7.9-9.1,5.5,2.6,6,4.5c.2.2.8.2,1,0-.3-2.3-.4-4.1-.4-4.8M258.6,84.8c0,3.1.7,5.3,2,6.6,1.4,1.4,3.5,2,6.4,2s4.4-.6,6-2.3c1.6-1.7,2-4.3,2-7.1v-3.7c0-2.4,0-5.1.4-6.1.2-.5.8-.6,1.4-.7l.7-.2c.3-.2.2-.7,0-.9-1.1,0-2,.1-3.3.1s-2.4,0-3.4-.1c-.3.1-.3.7,0,.9h.6c.8.2,1.3.4,1.5.9.6.9.6,3.8.6,6.1v3.9c0,4.7-1.7,7.7-5.7,7.7s-5.6-3.6-5.6-7.8v-7.1c0-3.3.3-3.4,1.7-3.6h.7c.2-.3.2-.8,0-1-1.4,0-2.7.1-4.1.1s-2.7,0-4-.1c-.3.1-.3.7,0,.9h.5c1.5.4,1.7.4,1.7,3.7v7.8h0ZM243.3,88.4c0,3.3-.3,3.3-1.7,3.5l-1.3.2c-.2.2-.2.8,0,.9,2,0,3.4-.1,4.8-.1s2.7,0,4.5.1c.3-.1.3-.7,0-.9h-1.1c-1.5-.3-1.7-.4-1.7-3.6v-13.3c0-1.3,0-1.4.8-1.4h1.8c3.3,0,3.9.6,4.3,3,.3.2.8.2,1-.1-.1-1,.2-3.6.5-4.9,0-.1-.2-.2-.4-.2s-.3,0-.4.1c-.4.7-.8.8-2.3.8h-12.6c-2.1,0-2.5,0-2.7-.8,0-.1-.2-.1-.3-.1s-.3,0-.3.1c-.2,1.1-.7,3-1.2,4.7.1.3.8.4,1,.2,1.1-2.5,2-2.8,4.8-2.8h1.7c.8,0,.8,0,.8,1.4v13.3h0ZM212.8,83.9c-.7,0-.8,0-.5-.9l1.3-3.6c.5-1.5.8-2.2.9-2.4h0c.2.2.3.8.9,2.4l1.3,3.7c.3.7.1.8-.7.8h-3.2ZM216.4,85.3c.9,0,1,0,1.3.8l1.5,4.2c.5,1.3.3,1.5-.8,1.6h-.7c-.2.3-.2.8.1,1,1.1,0,2.4-.1,3.8-.1s2.7,0,4,.1c.2-.2.2-.7,0-.9h-.5c-1.6-.4-1.7-.6-2.4-2.7l-4.4-12.9c-.5-1.4-.9-2.8-1.4-4.2-.1-.2-.3-.3-.5-.3s-1.1,1.3-2.2,1.5c.1.5-.2,1.3-.6,2.3l-4.2,11c-.7,1.7-1.1,3-1.5,3.8-.5,1-.8,1.3-1.7,1.4l-.9.2c-.2.3-.2.7,0,.9,1.1,0,2-.1,3.1-.1,1.3,0,2.3,0,3.3.1.3-.1.3-.7,0-.9l-.9-.2c-1.1-.2-1.3-.3-.7-2.1l1.3-3.7c.3-.8.3-.8,1.1-.8h4.1,0ZM191.5,75.2c0-1.4,0-1.5,1.6-1.5,2.7,0,4.3,2.1,4.3,4.6s-1.4,4.4-4.4,4.4-1.5,0-1.5-1.1c0,0,0-6.4,0-6.4ZM187.9,88.4c0,3.3-.3,3.4-1.7,3.5h-.7c-.3.3-.2.9,0,1,1.4,0,2.8-.1,4.2-.1s2.7,0,4.1.1c.3-.1.3-.7,0-.9h-.7c-1.5-.3-1.7-.4-1.7-3.6v-3.9c0-.7,0-.7,1-.7s1.4.1,1.9,1.1c.7,1.2,1.6,2.9,2.4,4.2,1.9,2.9,3.5,4.1,6.5,4.1s1.7-.1,2-.2c.1-.2.1-.5,0-.6-.4,0-1.3-.2-2.1-1-1.5-1.2-3-3.8-5.5-8-.1-.2-.2-.4,0-.5,1.5-.6,3.7-2,3.7-4.9s-1.1-3.7-2.7-4.5c-1.4-.7-3.5-1.1-5.9-1.1s-5.1.1-7.1.3c-.3.2-.3.7,0,.9h.8c1.5.3,1.5.6,1.5,3.6v11.3h0ZM170.8,75.2c0-1.4,0-1.5,1.6-1.5,2.7,0,4.3,2.1,4.3,4.6s-1.4,4.4-4.4,4.4-1.5,0-1.5-1.1c0,0,0-6.4,0-6.4ZM167.2,88.4c0,3.3-.3,3.4-1.7,3.5h-.7c-.3.3-.2.9,0,1,1.4,0,2.8-.1,4.2-.1s2.7,0,4.1.1c.3-.1.3-.7,0-.9h-.7c-1.5-.3-1.7-.4-1.7-3.6v-3.9c0-.7,0-.7,1-.7s1.4.1,1.9,1.1c.7,1.2,1.6,2.9,2.4,4.2,1.9,2.9,3.5,4.1,6.5,4.1s1.7-.1,2-.2c.1-.2.1-.5,0-.6-.4,0-1.3-.2-2.1-1-1.5-1.2-3-3.8-5.5-8-.1-.2-.2-.4,0-.5,1.5-.6,3.7-2,3.7-4.9s-1.1-3.7-2.7-4.5c-1.4-.7-3.5-1.1-5.9-1.1s-5.1.1-7.1.3c-.3.2-.3.7,0,.9h.8c1.5.3,1.5.6,1.5,3.6v11.3h0ZM148.7,88.4c0,3.3-.3,3.4-1.7,3.5h-1.1c-.2.3-.2.9,0,1,1.4,0,3.3-.1,4.6-.1h3.5c3.6,0,6.3,0,7.6.1.4-.8,1.1-3.2,1.3-4.5-.2-.3-.7-.4-1-.2-1.1,2.5-1.8,3.4-5.7,3.3-2.6,0-3.1-.3-3.5-.7-.5-.5-.5-1.6-.5-3.2v-3.9c0-.8,0-.8.7-.8h1.5c2.7,0,3.2,0,3.4,1.4l.2,1.2c.3.2.8.2,1,0,0-1-.1-2.1-.1-3.2s0-2.3.1-3.1c-.2-.3-.7-.3-1,0l-.2,1.1c-.3,1.3-.7,1.4-3.4,1.4h-1.5c-.7,0-.7,0-.7-.8v-5.2c0-1.8,0-1.8,1.3-1.8h2.1c.8,0,1.8.1,2.5.3,1,.3,1.5,1,1.9,2.8.3.2.9.1,1-.1-.2-1.3-.4-3.8-.5-4.3-.4,0-2.2.1-4.2.1h-5.9c-1.4,0-2.8,0-4-.1-.3.1-.3.7,0,.9h.5c1.5.3,1.7.4,1.7,3.6v11.5h0ZM140.1,77c0-3.3.3-3.4,1.7-3.5h.7c.2-.3.2-.9,0-1-1.4,0-2.7.1-4.1.1s-2.8,0-4.2-.1c-.3.1-.3.7,0,.9h.7c1.5.3,1.7.4,1.7,3.6v11.5c0,3.3-.3,3.4-1.7,3.5h-.7c-.2.3-.2.9,0,1,1.4,0,2.8-.1,4.2-.1s2.7,0,4.1.1c.3-.1.3-.7,0-.9h-.7c-1.5-.3-1.7-.4-1.7-3.6v-11.5ZM123.9,93.4c4.5,0,7.2-2.5,7.2-6s-2.2-5-4.2-6.1l-1.9-1c-2-1.1-2.9-2.5-2.9-3.8s1-3.2,3.5-3.2,3.7,2.1,4.2,3.7c.3.2.8.2,1-.1,0-1.5-.3-3.5-.7-4.2-1.5-.3-2.6-.7-4.2-.7-4.5,0-6.8,2.6-6.8,5.6s2,4.7,4.3,5.9l1.3.7c2.3,1.3,3.1,2.7,3.1,4.5s-1.3,3.3-3.7,3.3-4.7-3.3-5.2-4.9c-.3-.2-.8-.2-1,.1,0,1.9.4,4,.9,4.7.6.4,2.2,1.3,5.1,1.3"/>
      <path class="st2" d="M362.8,75.4c1.2,0,2.1,1,2.1,2.3s-1,2.2-2.1,2.2-2.1-1-2.1-2.2,1-2.3,2.1-2.3M362.8,74.9c-1.5,0-2.8,1.2-2.8,2.7s1.3,2.7,2.8,2.7,2.8-1.2,2.8-2.7-1.3-2.7-2.8-2.7M362.5,76.8c0-.1,0-.2.3-.2s.4.2.4.5,0,.4-.4.4-.2,0-.2-.2v-.7ZM361.8,78.2c0,.4,0,.4-.3.5h-.1s0,.2,0,.3c.2,0,.4,0,.7,0s.5,0,.7,0c0,0,0-.2,0-.2h0c-.3,0-.3-.2-.3-.5v-.3s0-.1,0-.1.2,0,.2.1c.1.2.2.4.3.6.2.3.5.5.9.5s.2,0,.3,0c0,0,0-.2,0-.2,0,0-.1,0-.2-.1-.2-.1-.4-.4-.6-.8,0-.1,0-.2,0-.2.2,0,.4-.3.4-.6,0-.6-.7-.7-1.2-.7s-.8,0-1.3,0c0,0,0,.2,0,.3h.1c.2,0,.3.2.3.4v1.2h0Z"/>
    </g>
    <path class="st1" d="M51.9,113.4h4.5c2.3-.2,3.5-1.6,4.1-3.9v-5.1c0-.3-.3-.5-.6-.6h-4.2c-2.3.2-3.7,1.5-4.3,3.6v5.6c0,.3.2.4.5.4M61.8,113.4h4.5c2.3-.2,3.5-1.6,4.1-3.9v-5.1c0-.3-.3-.5-.6-.6h-4.2c-2.3.2-3.7,1.5-4.3,3.6v5.6c0,.3.2.4.5.4M80.3,113.4h-4.5c-2.3-.2-3.5-1.6-4.1-3.9v-5.1c0-.3.3-.5.6-.6h4.2c2.2.2,3.7,1.5,4.3,3.6v5.6c0,.3-.2.4-.5.4M90.2,113.5h-4.5c-2.3-.2-3.5-1.6-4.1-3.9v-5.1c0-.3.3-.5.6-.6h4.2c2.2.2,3.7,1.5,4.3,3.6v5.6c0,.3-.2.4-.5.4M99.9,103.1h-4.5c-2.3-.2-3.5-1.6-4.1-3.9v-5.1c0-.3.3-.5.6-.6h4.2c2.2.2,3.7,1.5,4.3,3.6v5.6c0,.3-.2.4-.5.4M90.1,103.1h-4.5c-2.3-.2-3.5-1.6-4.1-3.9v-5.1c0-.3.3-.5.6-.6h4.2c2.2.2,3.7,1.5,4.3,3.6v5.6c0,.3-.2.4-.5.4M80.2,103.1h-4.5c-2.3-.2-3.5-1.6-4.1-3.9v-5.1c0-.3.3-.5.6-.6h4.2c2.2.2,3.7,1.5,4.3,3.6v5.6c0,.3-.2.4-.5.4M61.8,103.1h4.5c2.3-.2,3.5-1.6,4.1-3.9v-5.1c0-.3-.3-.5-.6-.6h-4.2c-2.3.2-3.7,1.5-4.3,3.6v5.6c0,.3.2.4.5.4M51.9,103.1h4.5c2.3-.2,3.5-1.6,4.1-3.9v-5.1c0-.3-.3-.5-.6-.6h-4.2c-2.3.2-3.7,1.5-4.3,3.6v5.6c0,.3.2.4.5.4M42.1,103.1h4.5c2.3-.2,3.5-1.6,4.1-3.9v-5.1c0-.3-.3-.5-.6-.6h-4.2c-2.2.2-3.7,1.5-4.3,3.6v5.6c0,.3.2.4.5.4M42.1,92.5h4.5c2.3-.2,3.5-1.6,4.1-3.9v-5.1c0-.3-.3-.5-.6-.6h-4.2c-2.2.2-3.7,1.5-4.3,3.6v5.6c0,.3.2.4.5.4M51.9,92.5h4.5c2.3-.2,3.5-1.6,4.1-3.9v-5.1c0-.3-.3-.5-.6-.6h-4.2c-2.3.2-3.7,1.5-4.3,3.6v5.6c0,.3.2.4.5.4M61.9,92.5h4.5c2.3-.2,3.5-1.6,4.1-3.9v-5.1c0-.3-.3-.5-.6-.6h-4.2c-2.3.2-3.7,1.5-4.3,3.6v5.6c0,.3.2.4.5.4M80.3,92.5h-4.5c-2.3-.2-3.5-1.6-4.1-3.9v-5.1c0-.3.3-.5.6-.6h4.2c2.2.2,3.7,1.5,4.3,3.6v5.6c0,.3-.2.4-.5.4M90.2,92.5h-4.5c-2.3-.2-3.5-1.6-4.1-3.9v-5.1c0-.3.3-.5.6-.6h4.2c2.2.2,3.7,1.5,4.3,3.6v5.6c0,.3-.2.4-.5.4M100,92.6h-4.5c-2.3-.2-3.5-1.6-4.1-3.9v-5.1c0-.3.3-.5.6-.6h4.2c2.2.2,3.7,1.5,4.3,3.6v5.6c0,.3-.2.4-.5.4M100,72.5h-4.5c-2.3.2-3.5,1.6-4.1,3.9v5.1c0,.3.3.5.6.6h4.2c2.2-.2,3.7-1.5,4.3-3.6v-5.6c0-.3-.2-.4-.5-.4M90.2,72.5h-4.5c-2.3.2-3.5,1.6-4.1,3.9v5.1c0,.3.3.5.6.6h4.2c2.2-.2,3.7-1.5,4.3-3.6v-5.6c0-.3-.2-.4-.5-.4M80.2,72.5h-4.5c-2.3.2-3.5,1.6-4.1,3.9v5.1c0,.3.3.5.6.6h4.2c2.2-.2,3.7-1.5,4.3-3.6v-5.6c0-.3-.2-.4-.5-.4M61.8,72.5h4.5c2.3.2,3.5,1.6,4.1,3.9v5.1c0,.3-.3.5-.6.6h-4.2c-2.3-.2-3.7-1.5-4.3-3.6v-5.6c0-.3.2-.4.5-.4M51.9,72.5h4.5c2.3.2,3.5,1.6,4.1,3.9v5.1c0,.3-.3.5-.6.6h-4.2c-2.3-.2-3.7-1.5-4.3-3.6v-5.6c0-.3.2-.4.5-.4M42.2,72.5h4.5c2.3.2,3.5,1.6,4.1,3.9v5.1c0,.3-.3.5-.6.6h-4.2c-2.2-.2-3.7-1.5-4.3-3.6v-5.6c0-.3.2-.4.5-.4M42.2,62.2h4.5c2.3.2,3.5,1.6,4.1,3.9v5.1c0,.3-.2.5-.6.6h-4.2c-2.2-.2-3.7-1.5-4.3-3.6v-5.6c0-.3.2-.4.5-.4M52,62.2h4.5c2.3.2,3.5,1.6,4.1,3.9v5.1c0,.3-.3.5-.6.6h-4.2c-2.3-.2-3.7-1.5-4.3-3.6v-5.6c0-.3.2-.4.5-.4M61.9,62.2h4.5c2.3.2,3.5,1.6,4.1,3.9v5.1c0,.3-.3.5-.6.6h-4.2c-2.3-.2-3.7-1.5-4.3-3.6v-5.6c0-.3.2-.4.5-.4M80.3,62.2h-4.5c-2.3.2-3.5,1.6-4.1,3.9v5.1c0,.3.3.5.6.6h4.2c2.2-.2,3.7-1.5,4.3-3.6v-5.6c0-.3-.2-.4-.5-.4M90.3,62.2h-4.5c-2.3.2-3.5,1.6-4.1,3.9v5.1c0,.3.3.5.6.6h4.2c2.2-.2,3.7-1.5,4.3-3.6v-5.6c0-.3-.2-.4-.5-.4M100,62.1h-4.5c-2.3.2-3.5,1.6-4.1,3.9v5.1c0,.3.3.5.6.6h4.2c2.2-.2,3.7-1.5,4.3-3.6v-5.6c0-.3-.2-.4-.5-.4M90.2,51.8h-4.5c-2.3.2-3.5,1.6-4.1,3.9v5.1c0,.3.3.5.6.6h4.2c2.2-.2,3.7-1.5,4.3-3.6v-5.6c0-.3-.2-.4-.5-.4M80.3,51.8h-4.5c-2.3.2-3.5,1.6-4.1,3.9v5.1c0,.3.3.5.6.6h4.2c2.2-.2,3.7-1.5,4.3-3.6v-5.6c0-.3-.2-.4-.5-.4M61.9,51.7h4.5c2.3.2,3.5,1.6,4.1,3.9v5.1c0,.3-.3.5-.6.6h-4.2c-2.3-.2-3.7-1.5-4.3-3.6v-5.6c0-.3.2-.4.5-.4M52,51.7h4.5c2.3.2,3.5,1.6,4.1,3.9v5.1c0,.3-.3.5-.6.6h-4.2c-2.3-.2-3.7-1.5-4.3-3.6v-5.6c0-.3.2-.4.5-.4"/>
  </g>
</svg>