<?xml version="1.0" encoding="UTF-8"?>
<svg id="a" xmlns="http://www.w3.org/2000/svg" version="1.1" viewBox="0 0 780 155.5">
  <!-- Generator: Adobe Illustrator 29.0.1, SVG Export Plug-In . SVG Version: 2.1.0 Build 192)  -->
  <defs>
    <style>
      .st0 {
        fill: #008996;
      }

      .st1 {
        fill: #ff6d2d;
      }

      .st2 {
        fill: #231f20;
      }
    </style>
  </defs>
  <g>
    <g>
      <path class="st0" d="M124.9,127.5c-27.3,8-56-7.6-64-34.9-8-27.3,7.6-56,34.9-64,16.8-4.9,34.1-.9,46.8,9.2-13.5-12.2-32.8-17.3-51.5-11.8-28.6,8.4-45,38.4-36.6,67,8.4,28.6,38.4,45,67,36.5,5.5-1.6,10.5-4,15-7.1-3.6,2.1-7.5,3.8-11.7,5.1"/>
      <path class="st1" d="M96.5,30.8c-12.6,3.7-23,12.1-29.3,23.6-6.3,11.5-7.7,24.8-4,37.4.7,2.4,1.6,4.7,2.6,6.9-1.1-3.2-1.9-6.5-2.3-10-3.7-28.3,16.3-54.1,44.6-57.8,7.6-1,15-.3,21.8,1.9-3.1-1.3-6.3-2.4-9.6-3-7.8-1.6-16.1-1.3-23.7,1h0Z"/>
    </g>
    <g>
      <g>
        <path class="st0" d="M79.8,49.8h31l.3,9.3h-1.3c-.6-2.9-1.5-4.8-2.4-5.7s-3.1-1.3-6.3-1.3h-3.1v28.1c0,2.1.3,3.4,1,3.9s2.1.8,4.3,1v1h-16v-1c2.3-.2,3.8-.6,4.3-1.1.6-.6.9-2.1.9-4.4v-27.4h-3.1c-3,0-5.1.4-6.2,1.3-1.1.9-1.9,2.8-2.5,5.7h-1.3l.3-9.3h0Z"/>
        <path class="st0" d="M112.8,85.1c2.3-.2,3.7-.7,4.4-1.5s1-2.6,1-5.5v-22.3c0-2-.3-3.3-.9-3.9s-2-1-4.3-1v-1h10.8l12.6,27.3,12.3-27.3h10.9v1c-2,.1-3.3.5-3.9,1.1-.6.6-.9,1.9-.9,3.8v24.4c0,2,.3,3.3.9,3.8s1.9.9,3.9,1.1v1h-15.4v-1c2.2-.2,3.6-.6,4.1-1.2.6-.6.8-2.1.8-4.4v-24.6l-14.1,31.2h-.8l-13.8-29.9v21.9c0,3,.4,4.9,1.3,5.9.6.6,1.9,1,3.8,1.2v1h-12.9v-1h.1Z"/>
        <path class="st0" d="M184.3,50c2.1.6,3.3.9,3.5.9.5,0,1-.1,1.5-.4.5-.3.8-.7,1-1.3h1.2l.5,12.3h-1.3c-.7-2.4-1.7-4.4-2.9-5.9-2.2-2.8-5.3-4.2-9.1-4.2s-7,1.5-9.4,4.6-3.7,7.2-3.7,12.5,1.3,8.8,3.8,11.7c2.6,2.9,5.8,4.4,9.7,4.4s5.5-.7,7.9-2c1.4-.8,2.9-1.9,4.5-3.5l1,1c-1.2,1.5-2.7,2.9-4.5,4-3.1,2-6.4,2.9-10,2.9-5.9,0-10.6-1.9-14-5.6-3.2-3.5-4.8-7.8-4.8-13s1.7-9.8,5.1-13.4c3.6-3.8,8.2-5.7,13.9-5.7s4,.3,6.1.9h0Z"/>
      </g>
      <g>
        <path class="st2" d="M103.3,91.9h2v8.3h8.9v-8.3h2v18.5h-2v-8.4h-8.9v8.4h-2v-18.5Z"/>
        <path class="st2" d="M120.7,91.9h11.3v1.8h-9.3v6.4h8.3v1.8h-8.3v6.6h9.4v1.8h-11.4v-18.5h0Z"/>
        <path class="st2" d="M141.3,91.8h1.9l7,18.6h-2.1l-1.8-4.9h-8.3l-1.8,4.9h-2l7-18.6h0ZM145.7,103.7l-3.5-9.4-3.5,9.4h7Z"/>
        <path class="st2" d="M153.3,91.9h2v16.6h8.6v1.8h-10.6v-18.5Z"/>
        <path class="st2" d="M169.3,93.7h-5.2v-1.8h12.3v1.8h-5.2v16.6h-2v-16.6h0Z"/>
        <path class="st2" d="M179.7,91.9h2v8.3h8.9v-8.3h2v18.5h-2v-8.4h-8.9v8.4h-2v-18.5Z"/>
      </g>
    </g>
  </g>
  <g>
    <rect class="st2" x="226.1" y="11.5" width="2.6" height="136.2"/>
    <path class="st2" d="M228.2,12v135.2h-1.6V12h1.6M229.2,11h-3.6v137.2h3.6V11h0Z"/>
  </g>
  <g>
    <path class="st0" d="M273,77.7v-20.5h4.5v20.5h-4.5Z"/>
    <path class="st0" d="M310.9,77.7l-10-13.1v13.1h-4.5v-20.5h4.2l9.6,12.7v-12.7h4.5v20.5h-3.9Z"/>
    <path class="st0" d="M344.1,77.9h-4l-8.3-20.7h5l5.4,14.5,5.4-14.5h4.9l-8.3,20.7Z"/>
    <path class="st0" d="M369.5,77.7v-20.5h15.5v4h-11v4.2h9.7v4h-9.7v4.3h11.2v4h-15.6,0Z"/>
    <path class="st0" d="M417.5,77.7l-10-13.1v13.1h-4.5v-20.5h4.2l9.6,12.7v-12.7h4.5v20.5h-3.8Z"/>
    <path class="st0" d="M449.5,61.3v16.4h-4.5v-16.4h-6.2v-4.2h17v4.2h-6.3Z"/>
    <path class="st0" d="M493.2,71.6c-.5,1.3-1.3,2.4-2.3,3.4s-2.1,1.7-3.5,2.3-2.8.8-4.4.8-3-.3-4.4-.8c-1.3-.6-2.5-1.3-3.5-2.3-1-.9-1.7-2.1-2.3-3.3-.5-1.3-.8-2.7-.8-4.1h0c0-1.5.3-2.9.8-4.2.5-1.3,1.3-2.4,2.3-3.4,1-1,2.1-1.7,3.5-2.3s2.8-.8,4.4-.8,3,.3,4.4.8c1.3.6,2.5,1.3,3.5,2.3,1,1,1.7,2.1,2.3,3.3.5,1.3.8,2.7.8,4.1h0c0,1.5-.3,2.9-.8,4.2h0ZM489.3,67.5c0-.9-.2-1.7-.5-2.5-.3-.8-.7-1.5-1.3-2.1s-1.2-1-2-1.4-1.6-.5-2.5-.5-1.8.2-2.5.5-1.4.8-1.9,1.4-1,1.3-1.3,2-.5,1.6-.5,2.5h0c0,.9.2,1.8.5,2.6.3.8.7,1.5,1.3,2.1s1.2,1.1,2,1.4c.8.3,1.6.5,2.5.5s1.7-.2,2.5-.5c.8-.3,1.4-.8,2-1.4s1-1.3,1.3-2c.3-.8.5-1.6.5-2.5h0Z"/>
    <path class="st0" d="M524.4,77.7l-4.4-6.6h-3.5v6.6h-4.5v-20.5h9.4c2.5,0,4.3.6,5.7,1.8,1.4,1.2,2,2.9,2,5h0c0,1.7-.4,3.1-1.2,4.1s-1.9,1.8-3.2,2.3l5,7.3h-5.3,0ZM524.5,64.2c0-1-.3-1.7-.9-2.2s-1.5-.7-2.6-.7h-4.5v5.9h4.6c1.1,0,2-.3,2.6-.8.6-.5.9-1.2.9-2.1h0c0,0,0,0,0,0Z"/>
    <path class="st0" d="M557.4,69.5v8.2h-4.5v-8.1l-7.9-12.5h5.3l4.9,8.3,5-8.2h5.1l-7.9,12.4h0Z"/>
    <path class="st0" d="M314.3,100.3v16.4h-4.5v-16.4h-6.2v-4.2h17v4.2h-6.3Z"/>
    <path class="st0" d="M350.4,116.7l-4.4-6.6h-3.5v6.6h-4.5v-20.5h9.4c2.5,0,4.3.6,5.7,1.8,1.4,1.2,2,2.9,2,5h0c0,1.7-.4,3.1-1.2,4.1s-1.9,1.8-3.2,2.3l5,7.3h-5.3ZM350.5,103.2c0-1-.3-1.7-.9-2.2s-1.5-.7-2.6-.7h-4.5v5.9h4.6c1.1,0,2-.3,2.6-.8.6-.5.9-1.2.9-2.1h0c0,0,0,0,0,0Z"/>
    <path class="st0" d="M388.4,116.7l-1.9-4.6h-8.7l-1.9,4.6h-4.6l8.8-20.7h4.2l8.8,20.7s-4.7,0-4.7,0ZM382.1,101.5l-2.7,6.7h5.5l-2.7-6.7h0Z"/>
    <path class="st0" d="M426.6,114.9c-.6.4-1.2.8-1.9,1.2-.7.3-1.4.6-2.2.7s-1.7.2-2.7.2c-1.5,0-2.9-.3-4.2-.8s-2.4-1.3-3.3-2.2-1.7-2.1-2.2-3.4-.8-2.7-.8-4.1h0c0-1.5.3-2.9.8-4.2.5-1.3,1.3-2.4,2.2-3.4.9-1,2.1-1.7,3.4-2.3,1.3-.6,2.8-.8,4.3-.8s1.8,0,2.6.2c.8.2,1.5.4,2.2.7.7.3,1.2.6,1.8,1s1.1.8,1.5,1.3l-2.9,3.3c-.8-.7-1.6-1.3-2.5-1.7s-1.8-.6-2.8-.6-1.7.2-2.4.5c-.7.3-1.4.8-1.9,1.4-.5.6-.9,1.3-1.2,2-.3.8-.4,1.6-.4,2.5h0c0,.9.2,1.8.4,2.6.3.8.7,1.5,1.2,2.1.5.6,1.2,1.1,1.9,1.4s1.5.5,2.4.5,2.2-.2,3-.7,1.6-1,2.4-1.8l2.9,2.9c-.5.6-1.1,1.1-1.6,1.5h0Z"/>
    <path class="st0" d="M459,116.7l-6.4-8.8-2.4,2.5v6.3h-4.5v-20.5h4.5v9l8.3-9h5.5l-8.4,8.7,8.8,11.8h-5.4Z"/>
    <path class="st0" d="M481,116.7v-20.5h15.5v4h-11v4.2h9.7v4h-9.7v4.3h11.2v4h-15.6,0Z"/>
    <path class="st0" d="M527.1,116.7l-4.4-6.6h-3.5v6.6h-4.5v-20.5h9.4c2.5,0,4.3.6,5.7,1.8,1.4,1.2,2,2.9,2,5h0c0,1.7-.4,3.1-1.2,4.1s-1.9,1.8-3.2,2.3l5,7.3h-5.3,0ZM527.2,103.2c0-1-.3-1.7-.9-2.2s-1.5-.7-2.6-.7h-4.5v5.9h4.6c1.1,0,2-.3,2.6-.8.6-.5.9-1.2.9-2.1h0c0,0,0,0,0,0Z"/>
  </g>
</svg>