<?xml version="1.0" encoding="UTF-8"?><svg id="a" xmlns="http://www.w3.org/2000/svg" xmlns:xlink="http://www.w3.org/1999/xlink" viewBox="0 0 434.06 70.88"><defs><style>.d{fill:#00aeef;}.e{clip-path:url(#b);}.f{clip-path:url(#c);}.g{fill:#0089d0;}.h{fill:#231f20;}</style><clipPath id="b"><path class="d" d="M49.88,12.7c-1.27,0-2.3,1.03-2.3,2.3,0,.4,.09,.76,.27,1.09l8.6,14.9c.4,.69,1.14,1.15,1.99,1.15s1.59-.46,1.99-1.15l8.6-14.9c.19-.32,.27-.69,.27-1.09,0-1.27-1.03-2.3-2.3-2.3h-17.13Z"/></clipPath><clipPath id="c"><path class="d" d="M31.2,12.7c-.98,0-1.77,.79-1.77,1.77,0,.3,.07,.59,.21,.84l10.7,18.54c.49,.83,.77,1.8,.77,2.84s-.26,1.95-.73,2.76l-9.31,16.12c-.14,.24-.21,.53-.21,.84,0,.98,.79,1.77,1.77,1.77h9c1.92,0,3.65-.96,4.55-2.53l.19-.32,8.95-15.5,.17-.29c.46-.79,.67-1.7,.67-2.66s-.26-1.95-.72-2.75l-.09-.16-10.64-18.42-.19-.32c-.9-1.56-2.63-2.53-4.55-2.53h-8.76Z"/></clipPath></defs><rect class="h" x="87.64" y="13.36" width=".51" height="44.06"/><g><path class="g" d="M109.72,35.33c-.16,.32-.37,.6-.65,.82s-.6,.38-.96,.5c-.37,.12-.76,.16-1.18,.16h-1.25v2.26h-1.66v-7.52h3.07c.45,0,.86,.06,1.2,.19,.36,.13,.66,.3,.9,.53s.44,.5,.57,.82,.2,.67,.2,1.05v.02c0,.45-.09,.83-.24,1.16h0Zm-1.44-1.1c0-.37-.12-.66-.36-.85-.24-.2-.57-.29-.98-.29h-1.27v2.29h1.31c.42,0,.74-.1,.96-.32s.35-.49,.35-.81v-.02h-.01Z"/><path class="g" d="M125.82,39.09l-1.61-2.41h-1.3v2.41h-1.66v-7.52h3.44c.89,0,1.59,.22,2.09,.66,.5,.44,.74,1.04,.74,1.83v.02c0,.61-.15,1.1-.44,1.48-.3,.38-.68,.66-1.17,.85l1.83,2.69h-1.92Zm.02-5.01c0-.36-.12-.63-.35-.8s-.54-.27-.95-.27h-1.64v2.15h1.68c.41,0,.72-.09,.94-.29s.32-.45,.32-.78v-.02h0Z"/><path class="g" d="M139.18,39.09v-7.52h1.66v7.52h-1.66Z"/><path class="g" d="M158.07,39.09l-3.64-4.77v4.77h-1.63v-7.52h1.53l3.52,4.62v-4.62h1.63v7.52h-1.41Z"/><path class="g" d="M174.78,33.1v5.99h-1.66v-5.99h-2.28v-1.53h6.23v1.53h-2.29Z"/><path class="g" d="M207.44,35.33c-.16,.32-.37,.6-.65,.82s-.6,.38-.96,.5-.76,.16-1.18,.16h-1.25v2.26h-1.66v-7.52h3.07c.45,0,.86,.06,1.2,.19,.36,.13,.66,.3,.9,.53s.44,.5,.57,.82,.2,.67,.2,1.05v.02c0,.45-.08,.83-.24,1.16h0Zm-1.44-1.1c0-.37-.12-.66-.36-.85-.24-.2-.57-.29-.98-.29h-1.27v2.29h1.31c.42,0,.74-.1,.96-.32,.23-.22,.35-.49,.35-.81v-.02h-.01Z"/><path class="g" d="M226.36,36.84c-.2,.46-.47,.88-.83,1.24s-.78,.64-1.26,.83c-.49,.21-1.02,.3-1.6,.3s-1.11-.1-1.6-.3c-.49-.21-.9-.47-1.26-.82s-.63-.75-.82-1.23-.29-.97-.29-1.51v-.02c0-.53,.1-1.04,.3-1.51,.2-.46,.47-.88,.83-1.24s.78-.64,1.26-.83c.49-.21,1.02-.3,1.61-.3s1.11,.1,1.6,.3c.49,.21,.9,.47,1.26,.82s.63,.75,.82,1.23c.2,.47,.29,.97,.29,1.51v.02c0,.53-.1,1.03-.31,1.51h0Zm-1.42-1.52c0-.32-.06-.63-.16-.92s-.27-.53-.47-.75c-.21-.22-.44-.38-.73-.51s-.58-.19-.92-.19-.64,.06-.92,.19c-.28,.13-.51,.29-.71,.51s-.35,.46-.46,.74-.16,.58-.16,.9v.02c0,.32,.06,.63,.16,.92s.27,.53,.47,.75c.21,.21,.44,.38,.72,.51,.28,.13,.58,.19,.92,.19s.64-.06,.92-.19c.28-.12,.52-.29,.72-.51s.35-.46,.46-.74,.16-.59,.16-.9v-.02h0Z"/><path class="g" d="M242.78,39.09l-1.61-2.41h-1.3v2.41h-1.66v-7.52h3.44c.89,0,1.59,.22,2.09,.66,.5,.44,.74,1.04,.74,1.83v.02c0,.61-.15,1.1-.44,1.48-.3,.38-.68,.66-1.16,.85l1.83,2.69h-1.93Zm.03-5.01c0-.36-.12-.63-.35-.8s-.54-.27-.96-.27h-1.64v2.15h1.68c.41,0,.72-.09,.94-.29s.32-.45,.32-.78v-.02h.01Z"/><path class="g" d="M259.47,33.1v5.99h-1.66v-5.99h-2.28v-1.53h6.23v1.53h-2.29Z"/><path class="g" d="M278.72,39.09l-.68-1.69h-3.17l-.68,1.69h-1.69l3.22-7.56h1.53l3.22,7.56h-1.75Zm-2.28-5.58l-1,2.43h1.99l-1-2.43h.01Z"/><path class="g" d="M291.69,39.09v-7.52h1.66v6.02h3.74v1.49h-5.4Z"/></g><g><g><path class="d" d="M49.88,12.7c-1.27,0-2.3,1.03-2.3,2.3,0,.4,.09,.76,.27,1.09l8.6,14.9c.4,.69,1.14,1.15,1.99,1.15s1.59-.46,1.99-1.15l8.6-14.9c.19-.32,.27-.69,.27-1.09,0-1.27-1.03-2.3-2.3-2.3h-17.13Z"/><g><path class="d" d="M49.88,12.7c-1.27,0-2.3,1.03-2.3,2.3,0,.4,.09,.76,.27,1.09l8.6,14.9c.4,.69,1.14,1.15,1.99,1.15s1.59-.46,1.99-1.15l8.6-14.9c.19-.32,.27-.69,.27-1.09,0-1.27-1.03-2.3-2.3-2.3h-17.13Z"/><g class="e"><rect class="d" x="47.58" y="12.7" width="21.73" height="19.43"/></g></g></g><g><path class="d" d="M70.53,13.94c0-.69,.56-1.25,1.26-1.25s1.25,.56,1.25,1.25-.56,1.25-1.25,1.25-1.26-.56-1.26-1.25m.26,0c0,.55,.45,.99,1,1,.55,0,.99-.45,1-1,0-.55-.45-.99-1-1-.55,0-1,.45-1,1"/><path class="d" d="M72.26,14.57h-.12s-.07,0-.11-.05l-.34-.42h-.09v.4c0,.05-.02,.07-.07,.07h-.08c-.06,0-.08-.01-.08-.07v-1.13c0-.06,.03-.06,.08-.06h.36c.21,0,.25,.01,.32,.08,.07,.07,.1,.19,.1,.35,0,.21-.08,.33-.28,.35l.32,.39s.03,.09-.03,.09m-.3-1.06c-.05-.03-.29-.01-.35-.01v.41h.24c.08,0,.13-.02,.15-.04,.01-.02,.03-.04,.03-.14,0-.14-.02-.19-.07-.22"/></g><g><path class="d" d="M31.2,12.7c-.98,0-1.77,.79-1.77,1.77,0,.3,.07,.59,.21,.84l10.7,18.54c.49,.83,.77,1.8,.77,2.84s-.26,1.95-.73,2.76l-9.31,16.12c-.14,.24-.21,.53-.21,.84,0,.98,.79,1.77,1.77,1.77h9c1.92,0,3.65-.96,4.55-2.53l.19-.32,8.95-15.5,.17-.29c.46-.79,.67-1.7,.67-2.66s-.26-1.95-.72-2.75l-.09-.16-10.64-18.42-.19-.32c-.9-1.56-2.63-2.53-4.55-2.53h-8.76Z"/><g><path class="d" d="M31.2,12.7c-.98,0-1.77,.79-1.77,1.77,0,.3,.07,.59,.21,.84l10.7,18.54c.49,.83,.77,1.8,.77,2.84s-.26,1.95-.73,2.76l-9.31,16.12c-.14,.24-.21,.53-.21,.84,0,.98,.79,1.77,1.77,1.77h9c1.92,0,3.65-.96,4.55-2.53l.19-.32,8.95-15.5,.17-.29c.46-.79,.67-1.7,.67-2.66s-.26-1.95-.72-2.75l-.09-.16-10.64-18.42-.19-.32c-.9-1.56-2.63-2.53-4.55-2.53h-8.76Z"/><g class="f"><rect class="d" x="29.42" y="12.7" width="26.73" height="45.49"/></g></g></g><g><path class="d" d="M30.71,41.62c-.16,0-.33,.07-.48,.09-.5,.11-1.06,.22-1.66,.22-.33,0-.63-.07-.82-.15-.42-.19-.46-.72-.45-1.4h3.32c.48,0,.57-.08,.57-.83,0-.87-.08-1.73-.5-2.34-.4-.56-1.08-.85-2.21-.85-1.2,0-1.95,.31-2.36,.9-.42,.6-.55,1.4-.55,2.6,0,1.35,.19,2.24,.76,2.77,.45,.42,1.18,.64,2.21,.64,.58,0,1.39-.05,2.05-.18,.42-.07,.49-.29,.49-.6,0-.15,0-.31-.03-.45-.04-.18-.16-.42-.37-.42m-3.41-2.56c0-.99,.2-1.34,1.18-1.34,.93,0,1.05,.35,1.05,1.2v.26h-2.23v-.12h0Zm-4.87-2.7c-.74,0-1.39,.25-1.84,.46v-2.52c0-.26-.11-.59-.53-.59h-.61c-.4,0-.6,.12-.6,.59v8.24c0,.33,.11,.54,.49,.54h.72c.42,0,.53-.23,.53-.61v-3.12c0-.98,.2-1.31,1.17-1.31,.91,0,1.03,.35,1.03,1.17v.25h0c0,.13,0,.28,0,.45v2.55c0,.41,.14,.61,.49,.61h.72c.42,0,.53-.23,.53-.61v-4.18c0-.89-.42-1.94-2.1-1.94"/><path class="d" d="M17.43,38h-1.47v2.74c0,.64,.03,.89,.08,.99,.04,.07,.11,.11,.2,.11,.38,0,.8-.2,1.12-.2s.37,.23,.37,.38v.49c0,.5-.14,.64-.57,.68-.44,.04-.74,.07-1.19,.07-1.44,0-1.76-.53-1.76-2.15v-3.11h-.38c-.26,0-.33-.18-.33-.4v-.59c0-.34,.14-.45,.37-.45h.34v-1.1c0-.46,.19-.6,.58-.6h.61c.42,0,.54,.34,.54,.6v1.1h1.34c.3,0,.46,.04,.46,.44v.48c0,.46-.08,.52-.33,.52"/><path class="d" d="M49.5,53.89l1.04,1.77,.99,.57c.14,.08,.16,.18,.09,.31l-.11,.2c-.09,.15-.17,.19-.33,.1l-.95-.55-2.17-.03c-.06,0-.12,0-.16-.03-.11-.07-.08-.19-.04-.26l.14-.25c.08-.14,.16-.15,.27-.15l1.48,.03-.76-1.29c-.06-.09-.08-.17,0-.3l.12-.2c.07-.12,.16-.14,.25-.09,.05,.03,.11,.11,.14,.17"/><path class="d" d="M54.13,52.2l-.11,.19c-.08,.14-.18,.15-.31,.08l-1.94-.96c.08,.09,.19,.22,.29,.32,.35,.41,.72,.83,.95,1.11,.09,.11,.12,.2,.03,.35l-.07,.12c-.09,.15-.18,.17-.32,.14-.35-.05-.91-.16-1.44-.25-.14-.02-.3-.07-.42-.09l1.8,1.2c.13,.08,.16,.18,.08,.31l-.11,.19c-.08,.14-.18,.21-.34,.1l-2.54-1.78c-.16-.11-.12-.22-.05-.33l.14-.25c.07-.13,.15-.17,.28-.15,.52,.08,1.43,.25,2.13,.37-.46-.54-1.07-1.25-1.39-1.66-.08-.1-.08-.19,0-.32l.14-.25c.06-.11,.14-.2,.31-.12l2.81,1.31c.18,.08,.16,.2,.08,.35"/><path class="d" d="M55.57,49.79c-.1,.21-.16,.32-.28,.54-.1,.17-.23,.37-.37,.51-.52,.55-1.16,.37-1.95-.09-1.35-.78-1.35-1.35-.84-2.25,.12-.21,.2-.32,.33-.51,.12-.18,.19-.2,.3-.14l.15,.09c.16,.09,.2,.15,.12,.3-.1,.17-.17,.24-.31,.48-.08,.15-.21,.39-.23,.54-.03,.34,.32,.56,.85,.86,.52,.3,.94,.51,1.24,.15,.06-.08,.14-.2,.23-.34,.14-.25,.17-.34,.26-.51,.08-.15,.15-.14,.32-.05l.15,.09c.1,.06,.12,.14,.02,.33"/><path class="d" d="M57.25,46.79l-.14,.25c-.08,.14-.18,.14-.29,.12l-.69-.13c-.11,.2-.19,.35-.31,.55-.11,.19-.21,.36-.31,.52l.44,.5c.1,.11,.15,.19,.06,.35l-.12,.21c-.09,.16-.14,.15-.21,.11-.03-.02-.08-.06-.12-.12l-2.08-2.46c-.11-.14-.15-.22-.05-.39l.11-.19c.1-.17,.19-.19,.36-.15l3.25,.55s.06,0,.08,.02c.11,.07,.08,.17,.04,.25m-2.99-.11l.87,.99c.06-.11,.13-.23,.2-.36,.08-.14,.14-.24,.22-.37l-1.29-.26Z"/></g></g></svg>