<?xml version="1.0" encoding="UTF-8"?><svg id="a" xmlns="http://www.w3.org/2000/svg" xmlns:xlink="http://www.w3.org/1999/xlink" viewBox="0 0 780 250"><defs><style>.d{fill:#fff;}.e{fill:#00aeef;}.f{clip-path:url(#b);}.g{clip-path:url(#c);}.h{fill:#0089d0;}</style><clipPath id="b"><path class="d" d="M214.71,52.62c-4.04,0-7.31,3.27-7.31,7.31,0,1.26,.28,2.43,.87,3.47l27.38,47.42c1.26,2.19,3.62,3.67,6.33,3.67s5.07-1.48,6.33-3.67l27.37-47.42c.6-1.03,.87-2.21,.87-3.47,0-4.04-3.27-7.31-7.31-7.31h-54.54Z"/></clipPath><clipPath id="c"><path class="d" d="M155.24,52.62c-3.11,0-5.64,2.52-5.64,5.64,0,.97,.22,1.89,.67,2.67l34.07,59.02c1.56,2.65,2.45,5.74,2.45,9.04s-.84,6.2-2.32,8.8l-29.63,51.33c-.45,.77-.67,1.7-.67,2.67,0,3.11,2.52,5.64,5.64,5.64h28.65c6.11,0,11.62-3.07,14.49-8.05l.59-1.03,28.49-49.35,.53-.92c1.45-2.52,2.12-5.4,2.12-8.46s-.82-6.2-2.3-8.77l-.3-.52-33.86-58.64-.59-1.02c-2.87-4.97-8.38-8.05-14.49-8.05h-27.92Z"/></clipPath></defs><rect class="e" width="780" height="250"/><g><rect class="h" x="329.08" y="56.9" width="2.57" height="136.2"/><path class="h" d="M331.15,57.4V192.6h-1.57V57.4h1.57m1-1h-3.57V193.6h3.57V56.4h0Z"/></g><g><g><path class="d" d="M444.29,97.5c-.65,1.36-1.55,2.5-2.69,3.42s-2.47,1.61-4,2.06c-1.52,.46-3.16,.69-4.9,.69h-5.19v9.32h-6.84v-31.07h12.7c1.86,0,3.53,.26,4.99,.78s2.71,1.25,3.73,2.2c1.02,.95,1.8,2.08,2.35,3.4,.55,1.32,.82,2.77,.82,4.37v.09c0,1.8-.32,3.38-.97,4.74h0Zm-5.95-4.7c0-1.54-.5-2.71-1.49-3.51s-2.35-1.2-4.06-1.2h-5.28v9.5h5.42c1.72,0,3.05-.45,4-1.35s1.42-2.02,1.42-3.35v-.09h-.01Z"/><path class="d" d="M491.39,113l-6.66-9.94h-5.37v9.94h-6.84v-31.08h14.21c3.7,0,6.58,.9,8.64,2.71s3.08,4.32,3.08,7.55v.09c0,2.52-.61,4.57-1.84,6.15-1.23,1.58-2.83,2.75-4.82,3.48l7.59,11.1h-7.99Zm.13-20.47c0-1.48-.47-2.59-1.42-3.33s-2.26-1.11-3.95-1.11h-6.79v8.92h6.92c1.69,0,2.98-.4,3.88-1.2,.9-.8,1.35-1.86,1.35-3.2v-.08h.01Z"/><path class="d" d="M527.12,113v-31.08h6.84v31.07h-6.84Z"/><path class="d" d="M585.72,113l-15.05-19.75v19.75h-6.75v-31.08h6.3l14.56,19.13v-19.13h6.75v31.07h-5.81Z"/><path class="d" d="M635.26,88.23v24.77h-6.84v-24.77h-9.46v-6.3h25.75v6.3h-9.45Z"/></g><g><path class="d" d="M408.04,152.43c-.65,1.36-1.55,2.5-2.69,3.42s-2.47,1.61-3.99,2.06c-1.52,.46-3.16,.69-4.91,.69h-5.19v9.32h-6.84v-31.07h12.7c1.86,0,3.53,.26,4.99,.78s2.71,1.25,3.73,2.2c1.02,.95,1.81,2.08,2.35,3.4,.55,1.32,.82,2.78,.82,4.37v.09c0,1.8-.32,3.38-.97,4.74h0Zm-5.95-4.7c0-1.54-.5-2.71-1.49-3.51-.99-.8-2.35-1.2-4.06-1.2h-5.28v9.5h5.42c1.72,0,3.05-.45,4-1.35,.95-.9,1.42-2.02,1.42-3.35v-.09h-.01Z"/><path class="d" d="M466.68,158.63c-.83,1.94-1.97,3.64-3.44,5.11-1.47,1.46-3.21,2.62-5.24,3.46-2.03,.84-4.24,1.26-6.64,1.26s-4.6-.42-6.61-1.26c-2.01-.84-3.75-1.98-5.22-3.42-1.46-1.44-2.61-3.12-3.42-5.06-.81-1.94-1.22-4.02-1.22-6.24v-.09c0-2.22,.42-4.3,1.24-6.24,.83-1.94,1.97-3.64,3.44-5.1,1.46-1.46,3.21-2.62,5.24-3.46,2.03-.84,4.24-1.27,6.64-1.27s4.6,.42,6.61,1.27c2.01,.84,3.75,1.98,5.22,3.42s2.6,3.12,3.42,5.06c.81,1.94,1.22,4.02,1.22,6.24v.09c.01,2.21-.41,4.29-1.24,6.23h0Zm-5.9-6.24c0-1.33-.23-2.59-.69-3.77-.46-1.18-1.11-2.22-1.95-3.11s-1.84-1.59-3-2.11c-1.15-.52-2.41-.78-3.77-.78s-2.66,.25-3.79,.75c-1.14,.5-2.12,1.2-2.93,2.09s-1.45,1.92-1.91,3.09-.69,2.42-.69,3.75v.09c0,1.33,.23,2.59,.69,3.77,.46,1.18,1.11,2.22,1.95,3.11s1.83,1.59,2.97,2.11,2.4,.78,3.8,.78,2.62-.25,3.77-.75,2.14-1.2,2.95-2.09,1.45-1.92,1.91-3.09,.69-2.42,.69-3.75v-.09h0Z"/><path class="d" d="M515.07,167.93l-6.66-9.94h-5.37v9.94h-6.84v-31.07h14.21c3.7,0,6.58,.9,8.63,2.71,2.06,1.81,3.09,4.32,3.09,7.55v.07c0,2.52-.61,4.57-1.84,6.15-1.23,1.58-2.83,2.75-4.82,3.48l7.59,11.1h-7.99Zm.14-20.42c0-1.48-.47-2.59-1.42-3.33s-2.26-1.11-3.95-1.11h-6.79v8.92h6.92c1.69,0,2.98-.4,3.89-1.2,.9-.8,1.35-1.86,1.35-3.2v-.08Z"/><path class="d" d="M564.57,143.15v24.77h-6.84v-24.77h-9.45v-6.3h25.75v6.3h-9.46Z"/><path class="d" d="M624.59,167.93l-2.84-6.97h-13.14l-2.84,6.97h-6.97l13.32-31.3h6.3l13.32,31.3h-7.15Zm-9.41-23.09l-4.13,10.08h8.26l-4.13-10.08Z"/><path class="d" d="M658.73,167.93v-31.07h6.84v24.9h15.49v6.17h-22.33Z"/></g></g><g><g><path class="d" d="M214.71,52.62c-4.04,0-7.31,3.27-7.31,7.31,0,1.26,.28,2.43,.87,3.47l27.38,47.42c1.26,2.19,3.62,3.67,6.33,3.67s5.07-1.48,6.33-3.67l27.37-47.42c.6-1.03,.87-2.21,.87-3.47,0-4.04-3.27-7.31-7.31-7.31h-54.54Z"/><g class="f"><rect class="d" x="207.4" y="52.62" width="69.16" height="61.86"/></g></g><g><path class="d" d="M280.46,56.58c0-2.2,1.79-3.99,4-3.99s3.99,1.79,3.99,3.99-1.78,3.99-3.99,3.99-4-1.79-4-3.99m.82,0c0,1.75,1.42,3.16,3.17,3.17,1.74,0,3.16-1.42,3.17-3.17,0-1.75-1.42-3.16-3.17-3.17-1.75,0-3.17,1.42-3.17,3.17"/><path class="d" d="M285.96,58.58h-.38c-.15,0-.23-.02-.34-.15l-1.08-1.35h-.29v1.28c0,.16-.07,.22-.21,.22h-.26c-.18,0-.24-.04-.24-.22v-3.59c0-.19,.11-.2,.24-.2h1.16c.66,0,.79,.04,1.03,.27,.21,.22,.31,.59,.31,1.12,0,.67-.27,1.05-.89,1.1l1.03,1.23c.12,.14,.1,.29-.08,.29m-.97-3.37c-.16-.08-.91-.04-1.12-.04v1.32h.76c.27,0,.4-.05,.47-.14,.04-.07,.09-.14,.09-.44,0-.44-.07-.62-.21-.7"/></g><g><path class="d" d="M155.24,52.62c-3.11,0-5.64,2.52-5.64,5.64,0,.97,.22,1.89,.67,2.67l34.07,59.02c1.56,2.65,2.45,5.74,2.45,9.04s-.84,6.2-2.32,8.8l-29.63,51.33c-.45,.77-.67,1.7-.67,2.67,0,3.11,2.52,5.64,5.64,5.64h28.65c6.11,0,11.62-3.07,14.49-8.05l.59-1.03,28.49-49.35,.53-.92c1.45-2.52,2.12-5.4,2.12-8.46s-.82-6.2-2.3-8.77l-.3-.52-33.86-58.64-.59-1.02c-2.87-4.97-8.38-8.05-14.49-8.05h-27.92Z"/><g class="g"><rect class="d" x="149.59" y="52.62" width="85.1" height="144.8"/></g></g><g><path class="d" d="M153.68,144.69c-.52,0-1.04,.21-1.52,.3-1.6,.35-3.38,.7-5.29,.7-1.04,0-2-.22-2.6-.48-1.34-.61-1.47-2.3-1.43-4.47h10.58c1.52,0,1.82-.26,1.82-2.64,0-2.78-.26-5.51-1.6-7.46-1.26-1.78-3.43-2.69-7.03-2.69-3.82,0-6.2,1-7.5,2.86-1.35,1.91-1.74,4.47-1.74,8.28,0,4.3,.61,7.12,2.43,8.81,1.43,1.34,3.77,2.03,7.03,2.03,1.86,0,4.42-.17,6.54-.57,1.35-.21,1.56-.91,1.56-1.91,0-.48,0-1-.08-1.43-.13-.56-.52-1.34-1.17-1.34m-10.84-8.16c0-3.16,.65-4.25,3.77-4.25,2.95,0,3.34,1.13,3.34,3.82v.83h-7.11v-.39Zm-15.49-8.59c-2.34,0-4.42,.78-5.86,1.47v-8.02c0-.82-.34-1.87-1.69-1.87h-1.95c-1.26,0-1.91,.39-1.91,1.87v26.24c0,1.04,.35,1.73,1.56,1.73h2.29c1.34,0,1.69-.74,1.69-1.95v-9.94c0-3.11,.64-4.17,3.71-4.17,2.9,0,3.28,1.11,3.28,3.74v.81h-.01c0,.42,.01,.89,.01,1.43v8.13c0,1.3,.43,1.95,1.56,1.95h2.3c1.34,0,1.69-.74,1.69-1.95v-13.31c0-2.82-1.35-6.16-6.68-6.16"/><path class="d" d="M111.43,133.15h-4.68v8.72c0,2.04,.09,2.82,.26,3.16,.13,.22,.35,.35,.65,.35,1.22,0,2.56-.65,3.56-.65s1.17,.74,1.17,1.21v1.56c0,1.6-.44,2.04-1.82,2.17-1.39,.13-2.34,.22-3.78,.22-4.6,0-5.59-1.69-5.59-6.85v-9.89h-1.21c-.82,0-1.04-.56-1.04-1.26v-1.87c0-1.08,.43-1.43,1.17-1.43h1.08v-3.51c0-1.47,.61-1.91,1.86-1.91h1.95c1.34,0,1.73,1.08,1.73,1.91v3.51h4.25c.95,0,1.47,.13,1.47,1.39v1.52c0,1.47-.26,1.65-1.04,1.65"/><path class="d" d="M213.52,183.75l3.32,5.63,3.14,1.81c.44,.25,.52,.58,.28,1l-.36,.63c-.28,.48-.54,.62-1.05,.33l-3.03-1.75-6.9-.08c-.19,0-.38-.02-.51-.1-.36-.21-.27-.61-.14-.84l.45-.79c.25-.44,.5-.49,.85-.49l4.72,.1-2.43-4.1c-.18-.3-.24-.53,.02-.97l.37-.64c.22-.38,.52-.44,.8-.28,.17,.1,.35,.36,.45,.53"/><path class="d" d="M228.25,178.36l-.35,.61c-.25,.44-.57,.47-.99,.26l-6.17-3.05c.25,.3,.62,.71,.91,1.03,1.1,1.3,2.3,2.64,3.01,3.53,.29,.36,.38,.65,.11,1.13l-.22,.38c-.28,.48-.58,.53-1.03,.46-1.13-.17-2.91-.51-4.58-.81-.43-.07-.94-.21-1.34-.28l5.73,3.82c.4,.27,.52,.56,.27,.99l-.36,.62c-.26,.45-.57,.68-1.09,.33l-8.08-5.66c-.5-.35-.37-.7-.17-1.05l.46-.8c.23-.41,.49-.54,.88-.48,1.66,.24,4.56,.8,6.79,1.19-1.45-1.73-3.4-3.97-4.43-5.28-.24-.32-.26-.6-.02-1.01l.46-.8c.2-.35,.45-.64,1-.38l8.94,4.17c.57,.26,.52,.65,.26,1.11"/><path class="d" d="M232.83,170.7c-.32,.66-.5,1.03-.89,1.71-.31,.54-.73,1.18-1.17,1.62-1.67,1.75-3.69,1.19-6.22-.28-4.3-2.48-4.31-4.3-2.67-7.15,.39-.67,.63-1.02,1.04-1.62,.39-.58,.62-.65,.95-.46l.48,.28c.52,.3,.65,.49,.38,.96-.31,.54-.54,.77-.98,1.54-.27,.47-.67,1.25-.72,1.71-.11,1.08,1.02,1.78,2.7,2.74,1.65,.96,2.99,1.61,3.96,.48,.2-.24,.46-.63,.72-1.08,.45-.78,.53-1.08,.84-1.62,.27-.47,.49-.45,1.02-.15l.48,.28c.32,.18,.37,.43,.07,1.05"/><path class="d" d="M238.19,161.14l-.46,.8c-.26,.45-.56,.46-.91,.39l-2.2-.41c-.35,.64-.62,1.11-.99,1.75-.35,.61-.66,1.16-.98,1.67l1.39,1.58c.32,.36,.47,.6,.18,1.1l-.39,.68c-.29,.5-.46,.49-.68,.36-.09-.05-.24-.19-.39-.38l-6.63-7.82c-.36-.43-.47-.7-.16-1.24l.35-.6c.31-.54,.61-.59,1.14-.49l10.34,1.76c.09,.01,.18,.03,.26,.07,.36,.21,.27,.54,.14,.78m-9.52-.35l2.77,3.16c.2-.34,.41-.74,.65-1.16,.26-.46,.46-.76,.7-1.18l-4.12-.82Z"/></g></g></svg>