<?xml version="1.0" encoding="UTF-8"?><svg id="a" xmlns="http://www.w3.org/2000/svg" xmlns:xlink="http://www.w3.org/1999/xlink" viewBox="0 0 868.12 70.88"><defs><style>.e{fill:#ffc629;}.f{fill:url(#d);}.g{fill:#2c2159;}</style><linearGradient id="d" x1="1509.92" y1="869.26" x2="1580.85" y2="869.26" gradientTransform="translate(-435.2 -1509.92) rotate(90) scale(1 -1)" gradientUnits="userSpaceOnUse"><stop offset="0" stop-color="#fff" stop-opacity="0"/><stop offset=".14" stop-color="#fff" stop-opacity="0"/><stop offset=".27" stop-color="#fff" stop-opacity=".06"/><stop offset=".39" stop-color="#fff" stop-opacity=".13"/><stop offset=".51" stop-color="#fff" stop-opacity=".23"/><stop offset=".63" stop-color="#fff" stop-opacity=".36"/><stop offset=".74" stop-color="#fff" stop-opacity=".52"/><stop offset=".86" stop-color="#fff" stop-opacity=".71"/><stop offset=".96" stop-color="#fff" stop-opacity=".92"/><stop offset="1" stop-color="#fff"/></linearGradient></defs><g id="b"><g id="c"><polygon class="f" points="0 70.93 0 0 868.12 0 868.12 70.93 0 70.93"/></g></g><rect class="e" x="192.88" y="19.47" width=".37" height="31.93"/><g><path class="g" d="M208.87,35.4c-.12,.24-.27,.44-.47,.6s-.44,.28-.7,.36c-.27,.08-.55,.12-.86,.12h-.91v1.64h-1.2v-5.45h2.22c.33,0,.62,.04,.87,.13,.26,.09,.48,.22,.65,.39s.32,.36,.41,.6,.14,.49,.14,.76v.02c0,.33-.07,.6-.18,.84h.03Zm-1.04-.84c0-.27-.08-.48-.26-.61-.18-.14-.41-.21-.71-.21h-.92v1.66h.95c.3,0,.54-.08,.7-.24s.25-.35,.25-.59v-.02h0Z"/><path class="g" d="M220.55,38.12l-1.17-1.75h-.94v1.75h-1.2v-5.45h2.49c.65,0,1.15,.16,1.51,.48s.54,.76,.54,1.33v.02c0,.44-.11,.8-.32,1.07-.22,.28-.5,.48-.85,.61l1.33,1.95h-1.39Zm.02-3.61c0-.26-.08-.45-.25-.58s-.39-.19-.69-.19h-1.19v1.56h1.22c.29,0,.52-.07,.68-.21s.24-.33,.24-.56v-.02h0Z"/><path class="g" d="M230.23,38.12v-5.45h1.2v5.45h-1.2Z"/><path class="g" d="M243.92,38.12l-2.64-3.46v3.46h-1.18v-5.45h1.11l2.55,3.35v-3.35h1.18v5.45h-1.02Z"/><path class="g" d="M256.02,33.78v4.34h-1.2v-4.34h-1.65v-1.11h4.52v1.11h-1.67Z"/><path class="g" d="M279.69,35.4c-.12,.24-.27,.44-.47,.6s-.44,.28-.7,.36-.55,.12-.86,.12h-.91v1.64h-1.2v-5.45h2.22c.33,0,.62,.04,.87,.13,.26,.09,.48,.22,.65,.39,.18,.17,.32,.36,.41,.6s.14,.49,.14,.76v.02c0,.33-.06,.6-.18,.84h.03Zm-1.04-.84c0-.27-.08-.48-.26-.61-.18-.14-.41-.21-.71-.21h-.92v1.66h.95c.3,0,.54-.08,.7-.24,.17-.16,.25-.35,.25-.59v-.02h-.01Z"/><path class="g" d="M293.39,36.49c-.14,.34-.34,.64-.6,.9s-.56,.46-.92,.6c-.35,.15-.74,.22-1.16,.22s-.81-.08-1.16-.22c-.35-.15-.65-.34-.92-.6s-.45-.55-.6-.89-.21-.71-.21-1.09v-.02c0-.39,.08-.76,.22-1.09,.14-.34,.34-.64,.6-.9s.56-.46,.92-.6c.35-.15,.74-.22,1.17-.22s.81,.08,1.16,.22c.35,.15,.65,.34,.92,.6s.45,.55,.6,.89c.14,.34,.21,.71,.21,1.09v.02c0,.39-.08,.75-.23,1.09Zm-1.03-1.1c0-.24-.04-.45-.12-.66s-.19-.39-.34-.55-.32-.28-.53-.37-.42-.13-.66-.13-.46,.04-.66,.13-.37,.21-.51,.37-.25,.34-.34,.54-.12,.42-.12,.65v.02c0,.24,.04,.45,.12,.66s.19,.39,.34,.55c.15,.15,.32,.28,.52,.37,.2,.09,.42,.13,.66,.13s.46-.04,.66-.13c.2-.08,.38-.21,.52-.37s.25-.34,.34-.54,.12-.43,.12-.65v-.02h0Z"/><path class="g" d="M305.3,38.12l-1.17-1.75h-.94v1.75h-1.2v-5.45h2.49c.65,0,1.15,.16,1.51,.48,.36,.32,.54,.76,.54,1.33v.02c0,.44-.11,.8-.32,1.07-.22,.28-.5,.48-.84,.61l1.33,1.95h-1.4Zm.03-3.61c0-.26-.08-.45-.25-.58s-.39-.19-.7-.19h-1.19v1.56h1.22c.29,0,.52-.07,.68-.21s.24-.33,.24-.56v-.02h0Z"/><path class="g" d="M317.39,33.78v4.34h-1.2v-4.34h-1.65v-1.11h4.52v1.11h-1.67Z"/><path class="g" d="M331.34,38.12l-.5-1.23h-2.3l-.5,1.23h-1.23l2.33-5.48h1.11l2.33,5.48h-1.24Zm-1.65-4.05l-.72,1.76h1.44l-.72-1.76Z"/><path class="g" d="M340.74,38.12v-5.45h1.2v4.37h2.71v1.08h-3.91Z"/></g><g><path class="g" d="M165.17,56.08l.02-.69c.02-.75,.06-1.16,.25-1.61,.5-1.17,1.69-1.89,2.97-1.89h1.65s.39-5.06,.78-6.42c.39-1.36,4.28-1.17,4.28-1.17v-3.12c0-1.94,3.5-2.14,3.5-2.14h3.51v17.05h-16.95Zm13.06-6.15h1.95v-3.31h-1.95v3.31Zm0,3.7h1.95v-2.92h-1.95v2.92Zm-2.92-3.7h1.95v-3.31h-1.95v3.31Zm0,3.7h1.95v-2.92h-1.95v2.92Z"/><path class="g" d="M24.74,46.47c1.47,1.29,3.43,2.53,5.17,3.63l-.09,.44h-2.36c-2.16-.99-3.17-1.6-6.48-3.91v1.77c0,.65,.02,.9,.44,1.79l.17,.35h-4.03l.14-.34c.35-.86,.43-1.47,.43-2.18v-4.69c0-.98-.26-1.42-.41-1.69l-.22-.37,3.63-.03c.05,0,.1,0,.16,0,2.86,0,5.09,.65,5.98,1.74,.26,.32,.39,.67,.39,1.01,0,1.03-.98,1.86-2.91,2.46m-3.76-.64c1.42-.21,3.75-.61,3.75-1.7,0-.53-.8-1.45-3.75-1.65v3.35Zm24.78,3.41v-2.75c1.12,.04,1.77,.1,3.6,.38h.07l1.98-1.7h-5.66v-2.62c1.61-.02,2.59,.1,4.39,.53l.09,.02,1.73-1.85h-9.9l.23,.38c.54,.89,.59,1.83,.59,2.09v4.32c0,1.08-.33,1.67-.59,2.14l-.21,.37h9.21l1.7-2.04-.58,.1c-3.43,.61-4.64,.63-6.65,.63m35.62,.84l.61,.44-4.86,.03v-.24c0-.33-.08-.72-.63-1.38l-.93-1.12h-5.72l-.79,.89c-.57,.65-.84,1.18-.79,1.58l.04,.27h-4.31l-.08-.45c.51-.31,.99-.6,2.39-2.07l6.5-6.81h.28l5.72,6.51c1.2,1.37,1.96,1.92,2.58,2.36m-8.56-5.59l-1.62,1.81h3.1l-1.48-1.81Zm24.49,4.68l.09-5.5c.02-1.22,.28-1.57,.6-2.01l.29-.39h-4.18l-.4,.03,.27,.39c.25,.37,.52,.75,.52,1.9v3.9c0,1.85-.22,2.14-.62,2.68l-.3,.4h8.68l1.88-2.25-.61,.13c-1.69,.36-3.33,.61-6.22,.75m17.58-5.87l.46-.09c3.08-.58,4.13-.6,5.11-.6v5.45c0,.94-.18,1.53-.45,2.13l-.15,.35h4.08l-.19-.36c-.29-.56-.44-1.21-.44-1.98v-5.59c1.81,0,2.4,.09,4.15,.47l.09,.02,1.58-1.84h-13.02l-1.23,2.04Zm39.81-2.04h-3.59l.03,.25c.03,.27-.07,.49-.8,1.13l-2.16,2.02-2.23-2.07c-.44-.42-.73-.72-.67-1.07l.05-.29-4.05,.03-.06,.46c.73,.29,1.06,.49,1.84,1.25l3.67,3.45v2.38c0,.82-.15,1.02-.4,1.35l-.29,.39h4.35l-.4-.42c-.34-.35-.38-.72-.38-.87v-2.94l3.93-3.64,.12-.11c.21-.19,.61-.53,1.11-.87l-.09-.44Z"/><path class="g" d="M9.95,55.27h120.72s.03-.01,.03-.03h5.18c0-1.02,0-.31,.03-1.85H9.95s-.03,.01-.03,.03v1.82s.01,.03,.03,.03"/><path class="g" d="M29.05,17.63c.9,.04,1.54,.04,2,0,.33-.03,.57-.11,.75-.24,.2-.14,.41-.3,.61-.48,.21-.19,.39-.38,.51-.57,.14-.18,.22-.34,.24-.5,.04-.2-.02-.4-.14-.55-.1-.11-.28-.25-.59-.25-.08,0-.15,0-.21,.02-.05,0-.11,.02-.22,.04-.08,.02-.25,.04-.63,.09-.31,.04-.75,.08-1.33,.14-.2,.02-.35,.04-.5,.06-.28,.04-.55,.07-1.11,.1-.14,0-.23,.01-.32,.02h-.01c-.1,0-.19,.02-.36,.02-.12,0-.21,.01-.29,.02h-.03c-.13,0-.24,.01-.44,.02h-.31c-.14,.01-.26,.01-.47,.02-.12,0-.18,0-.22,0h-.03s-.06,0-.24,0c-.46,0-.89,0-1.27-.01-.41,0-2.33,0-2.55,0-.23,0-.47,0-.73,0-.55,0-2.86-.02-3.41-.06-.56-.04-1.26-.13-2.05-.26-.18-.03-.37-.06-.56-.1-.2-.04-.39-.08-.58-.12-.19-.04-.36-.08-.52-.11-.14-.03-.91-.13-1.36,0-.13,.05-.29,.12-.47,.2-.19,.09-.38,.18-.58,.29-.19,.1-.34,.26-.53,.51-.21,.29-.36,.49-.56,.99-.2,.5-.27,1.31-.1,1.53,.15,.2,.37,.34,.68,.35,.3,0,.92-.68,1.21-.86,.95-.57,1.59-.47,2.89-.43,.15,0,.25,0,.29,0,.17,.01,.32,.01,.47,.01,.1,0,.2,0,.32,0h.49c.19,.02,.42,.02,.69,.02,.1,0,.47,0,.91,0h.11c.7,0,1.56,0,1.79,.01,.24,0,.51,0,.8,.01h.04l.02,.2c.05,.46,.09,1.41,.12,2.01,.02,.44,.04,.69,.07,.93,.02,.26,.04,.5,.06,.96,0,.16,.01,.28,.02,.39v.04c.01,.18,.03,.36,.03,.77,.02,.65,.02,1.35,.02,2.08,0,.37,0,.4,0,.46,0,.06,0,.14-.01,.53-.01,.78-.03,1.57-.06,2.34-.01,.36-.04,.78-.06,1.29-.03,.5-.06,1.01-.1,1.54-.04,.53-.08,1.04-.13,1.53-.05,.49-.1,.9-.15,1.24-.05,.27-.05,.47,.01,.64,.1,.31,.37,.51,.69,.51,.12,0,.25-.03,.36-.09,.24-.11,.51-.24,.8-.38,.28-.14,.58-.27,.87-.39,.31-.14,.53-.33,.64-.59,.08-.19,.12-.41,.12-.67,0-.04,0-.17,0-.37h0c0-.22,0-.47-.01-.77v-1.01c-.02-.37-.02-.75-.02-1.13,0-.9-.02-1.91-.03-3.02,0-.55-.01-.8-.02-1.03,0-.25-.01-.49-.02-1.08-.01-1.16-.02-1.77-.02-2.89,0-.5,0-.59,0-.77v-.35c0-.53,.01-1.6,.01-2.01,0-.21,0-.26,0-.31,0-.06,0-.11,0-.25v-.31h3.59c.32,0,.69,0,1.09,.03"/><path class="g" d="M36.11,23.19c-.05-.07-.15-.17-.32-.2h-.14c-.16,0-.35,.04-.58,.12-.19,.08-.4,.17-.6,.29-.2,.11-.4,.24-.6,.37-.2,.14-.37,.28-.5,.41-.15,.14-.26,.26-.33,.35-.07,.11-.1,.23-.07,.35s.1,.23,.23,.31h.01v.03c.03,.07,.05,.15,.07,.25,.02,.1,.03,.2,.04,.3,0,.12,.02,.22,.03,.3,.04,.44,.07,.9,.09,1.36,.02,.47,.05,.98,.06,1.5,.04,1.12,.01,2.13-.07,3-.08,.89-.17,1.66-.25,2.28-.03,.15-.03,.27-.02,.38,.01,.08,.07,.33,.41,.41,.14,.04,.31,.04,.53-.03,.12-.04,.27-.1,.43-.21,.15-.09,.32-.22,.52-.37,.2-.15,.43-.35,.7-.59,.15-.13,.24-.3,.26-.49,.01-.12,0-.25-.02-.38-.08-.69-.13-1.4-.16-2.1-.03-.72-.06-1.37-.06-1.92,0-.32,0-.69,0-1.12,0-.41,0-.84,.02-1.29,.02-.45,.05-.9,.1-1.34,.05-.43,.12-.84,.22-1.21v-.03c.03-.1,.05-.21,.07-.33,.04-.2-.02-.33-.07-.41"/><path class="g" d="M36.3,17.51c-.11-.08-.23-.12-.35-.12-.15,0-.37,.05-.57,.29-.14,.16-.27,.3-.39,.43-.12,.13-.21,.23-.25,.28-.24,.28-.46,.5-.65,.67-.21,.18-.39,.36-.53,.52-.14,.15-.22,.31-.26,.47-.03,.12-.05,.22-.06,.3-.03,.23,.01,.41,.12,.53,.09,.11,.23,.17,.39,.17s.33-.06,.5-.18c.18-.11,.4-.27,.65-.46l1.02-.79c.08-.07,.18-.15,.3-.25,.13-.1,.27-.21,.43-.33,.2-.15,.25-.33,.26-.45,0-.1,0-.22-.02-.33-.03-.19-.12-.35-.27-.49-.1-.1-.21-.18-.32-.25"/><path class="g" d="M48.27,34.23c.37-.14,.7-.31,.98-.49,.32-.21,.61-.47,.84-.78,.24-.31,.43-.7,.56-1.16,.1-.34-.1-.53-.19-.59-.07-.04-.14-.07-.23-.1-.1-.04-.21-.06-.33-.06h-.04c-.16,0-.31,.06-.42,.16-.08,.07-.15,.16-.2,.25-.14,.25-.32,.47-.53,.67-.21,.2-.44,.38-.7,.53-.36,.22-.79,.38-1.26,.49-.92,.22-1.91,.23-2.79,.03-.41-.09-.78-.23-1.11-.42-.53-.31-.98-.69-1.34-1.13-.37-.45-.65-.92-.86-1.39-.2-.46-.32-.92-.36-1.35-.03-.31-.01-.59,.05-.81v-.03h.04c.73-.14,1.51-.25,2.32-.33,1.57-.15,3.13-.17,4.62-.06,.65,.05,1.29,.08,1.92,.1,.11,.01,.21,.02,.28,.02,.08,0,.15,0,.21,0,.36,0,.48-.21,.52-.3,.06-.13,.05-.3-.02-.59-.09-.4-.28-.83-.54-1.28-.27-.44-.61-.85-1.02-1.22-.41-.37-.89-.68-1.43-.93-.55-.25-1.15-.38-1.79-.38-.38,0-.75,.05-1.13,.14-.61,.15-1.23,.37-1.86,.66-.63,.29-1.22,.65-1.78,1.05-.91,.67-1.59,1.37-2.02,2.1-.43,.73-.68,1.45-.75,2.14-.06,.6-.02,1.19,.12,1.76,.14,.58,.39,1.12,.73,1.6,.34,.49,.8,.92,1.34,1.28,.55,.36,1.2,.63,1.94,.8,.36,.09,.75,.15,1.15,.19,.82,.08,1.72,.08,2.58-.02,.46-.05,.9-.12,1.31-.21,.42-.09,.81-.21,1.18-.35m-6.28-8.41c.28-.19,.59-.34,.9-.47,.33-.14,.67-.25,1-.32,.33-.08,.64-.14,.9-.16h.03s.07-.02,.11-.02c.03,0,.06,0,.1,0,.26,0,.53,.05,.81,.15,.27,.1,.52,.26,.76,.49,.12,.12,.23,.24,.32,.34l.07,.09-.36-.02c-.75-.04-1.99-.04-3.4,0-.39,.01-.79,.02-1.22,.03h-.17l.15-.09Z"/><path class="g" d="M57.33,25.42c.19-.05,.38-.08,.56-.11,.46-.07,.92-.04,1.34,.07,.08,.03,.16,.06,.22,.11,.08,.05,.16,.11,.23,.18l.03,.03c.3,.21,.59,.22,.88,.01,.19-.15,.38-.31,.58-.48,.2-.17,.39-.34,.55-.5,.16-.14,.22-.34,.16-.56-.04-.16-.12-.3-.24-.4h0c-.25-.25-.58-.43-.97-.52-.97-.2-1.88-.18-2.7,.06-.43,.12-.83,.27-1.19,.42-.52,.21-1.02,.45-1.49,.72l-.07,.04v-.08c0-.15-.01-.31-.04-.46-.03-.17-.1-.33-.22-.48-.18-.23-.4-.27-.54-.27-.04,0-.08,0-.11,.01h-.05l-.06,.03c-.15,.06-.31,.13-.48,.22-.16,.08-.32,.17-.48,.27-.15,.09-.3,.19-.43,.28-.15,.1-.26,.19-.34,.27-.09,.09-.35,.42,0,.91,.02,.05,.06,.13,.09,.26,.03,.14,.05,.3,.06,.5,.03,.62,.05,1.23,.06,1.81,.01,.6,.03,1.15,.04,1.66,0,.44,0,.88,0,1.31,0,.44-.02,.85-.03,1.22-.01,.38-.04,.73-.06,1.04-.03,.3-.06,.57-.1,.77-.04,.17-.07,.33-.09,.48-.04,.31,.14,.56,.47,.64h.19c.13,0,.28-.01,.46-.06,.16-.04,.33-.09,.51-.16,.17-.07,.34-.14,.5-.22,.16-.08,.29-.16,.42-.24,.2-.14,.28-.31,.31-.43,.03-.12,.03-.27,.02-.48-.03-.69-.06-1.38-.09-2.07-.03-.67-.05-1.28-.06-1.82,0-.51-.01-.95-.04-1.33-.03-.36-.04-.67-.04-.94,0-.24,.03-.44,.08-.61,.04-.13,.13-.25,.26-.36,.16-.13,.39-.25,.68-.36,.32-.12,.74-.25,1.26-.39"/><path class="g" d="M68.02,25.42c.19-.05,.38-.08,.56-.11,.46-.07,.92-.04,1.34,.07,.08,.03,.16,.06,.22,.11,.08,.05,.16,.11,.23,.18l.03,.03c.3,.21,.6,.22,.88,.01,.19-.15,.38-.31,.59-.48,.2-.17,.39-.34,.55-.5,.16-.14,.22-.34,.16-.56-.04-.16-.12-.3-.24-.4-.25-.25-.58-.43-.97-.52-.97-.2-1.88-.18-2.7,.06-.43,.13-.83,.27-1.2,.42-.52,.21-1.02,.45-1.49,.72l-.07,.04v-.09c0-.15-.01-.31-.04-.46-.03-.17-.1-.33-.22-.48-.18-.23-.4-.27-.54-.27-.04,0-.08,0-.11,.01h-.05l-.06,.03c-.15,.06-.31,.13-.48,.22-.16,.08-.32,.17-.47,.27-.15,.09-.3,.19-.43,.28-.15,.1-.26,.19-.34,.27-.09,.09-.35,.42,0,.91,.02,.05,.06,.12,.09,.26,.03,.14,.05,.3,.06,.5,.03,.62,.05,1.23,.06,1.81,.01,.6,.03,1.15,.04,1.66,0,.44,0,.88,0,1.31,0,.45-.02,.85-.03,1.22-.01,.38-.04,.73-.06,1.04-.03,.3-.06,.57-.1,.77-.04,.17-.07,.33-.09,.48-.04,.31,.14,.56,.47,.64h.19c.13,0,.28-.01,.46-.06,.16-.04,.33-.1,.51-.16,.17-.07,.34-.14,.5-.22,.16-.08,.29-.16,.42-.24,.21-.14,.28-.31,.31-.43,.03-.12,.03-.27,.02-.48-.03-.7-.06-1.4-.09-2.07-.03-.67-.06-1.28-.06-1.82,0-.51-.01-.95-.04-1.33-.03-.35-.04-.67-.04-.94,0-.24,.03-.44,.08-.61,.04-.13,.13-.25,.26-.36,.16-.13,.39-.25,.68-.36,.32-.12,.74-.25,1.26-.39"/><path class="g" d="M81.93,34.35c-.03,.1-.03,.22,.01,.35,.03,.08,.13,.33,.51,.33,.09,0,.16,0,.24-.03,.07-.02,.21-.06,.42-.14,.18-.06,.36-.13,.56-.2l.56-.21c.19-.07,.34-.13,.43-.18,.19-.08,.31-.23,.35-.42,.02-.12,.02-.27-.02-.44-.03-.12-.06-.27-.1-.45-.03-.16-.05-.36-.06-.59-.03-.8-.05-1.56-.08-2.27s-.06-1.36-.1-1.95c-.04-.59-.1-1.12-.18-1.57-.08-.47-.2-.87-.34-1.19-.21-.44-.51-.8-.9-1.08-.37-.27-.79-.47-1.25-.62-.45-.14-.92-.24-1.41-.28-.48-.04-.93-.06-1.35-.04-.59,.04-1.12,.12-1.6,.23-.47,.11-.91,.24-1.31,.39-.39,.14-.76,.3-1.1,.46-.33,.16-.64,.3-.92,.43-.25,.11-.42,.22-.54,.34-.17,.17-.17,.33-.15,.42,.01,.08,.07,.23,.26,.32,.07,.04,.16,.08,.28,.12,.12,.05,.25,.09,.39,.13,.14,.04,.27,.08,.4,.12,.14,.04,.25,.07,.35,.09,.06,.01,.11,.02,.15,.03,.17,.02,.33,0,.47-.06,.1-.04,.21-.12,.33-.23,.47-.41,.93-.72,1.35-.92,.4-.19,.89-.27,1.45-.26,.59,.02,1.07,.09,1.45,.23,.36,.13,.65,.31,.86,.54,.22,.23,.38,.53,.48,.89,.08,.29,.15,.63,.19,1.01v.05h-.04c-.33,.06-.67,.1-1,.13-.47,.05-.94,.11-1.41,.17-.48,.07-.98,.16-1.49,.27-.52,.12-1.06,.29-1.62,.51-.75,.3-1.45,.66-2.07,1.08-.64,.43-1.12,.91-1.41,1.43-.18,.31-.28,.62-.28,.94,0,.31,.05,.6,.17,.88,.12,.28,.29,.53,.5,.75,.21,.22,.45,.4,.71,.54,.44,.23,.92,.4,1.44,.48,.82,.14,1.7,.16,2.56,.07,.34-.04,.65-.08,.92-.12,.6-.11,1.22-.24,1.83-.41,.37-.1,.73-.21,1.08-.33l.09-.03-.02,.09c-.02,.06-.03,.13-.05,.18m-.36-1.76c-.27,.15-.56,.3-.87,.42s-.63,.23-.96,.31c-.32,.09-.64,.15-.95,.2-.18,.03-.38,.04-.58,.04-.24,0-.49-.02-.75-.05-.25-.04-.49-.09-.72-.15-.22-.07-.43-.14-.62-.23-.17-.08-.31-.17-.41-.26-.1-.09-.17-.2-.21-.34-.05-.18-.07-.37-.07-.59,0-.18,.02-.35,.07-.52,.05-.16,.12-.31,.23-.46,.11-.15,.27-.3,.47-.44,.21-.15,.47-.29,.79-.42,.24-.1,.49-.19,.72-.26,.23-.07,.47-.13,.71-.17,.25-.04,.52-.07,.81-.1,.3-.02,.62-.04,.95-.05,.32,0,.67,0,1.03,.02,.28,.02,.57,.04,.88,.07h.04v.05c0,.12,0,.24,0,.35,0,.22,0,.45,0,.68v.75c0,.21,0,.44-.01,.7v.02l-.02,.02c-.17,.15-.36,.28-.57,.4"/><path class="g" d="M106.3,29.1l.05-.03,.02,.05c.07,.17,.15,.35,.24,.55,.16,.37,.33,.79,.52,1.24,.19,.46,.39,.94,.58,1.43l.45,1.14c.11,.3,.19,.51,.24,.67,.08,.23,.16,.4,.25,.52,.19,.24,.48,.35,.79,.28,.1-.02,.22-.06,.4-.13,.03,0,.06-.02,.09-.02,.12-.03,.24-.06,.37-.1l.45-.13,.1-.04c.13-.06,.53-.26,.62-.67,.05-.21,.02-.44-.09-.68l-.03-.06c-.18-.3-.35-.62-.51-.93-.16-.32-.33-.64-.5-.97-.13-.26-.28-.56-.46-.92-.18-.35-.35-.71-.53-1.08-.18-.37-.35-.73-.52-1.07-.16-.33-.3-.61-.41-.85-.11-.21-.19-.38-.25-.52-.07-.15-.13-.28-.18-.4-.05-.11-.11-.23-.16-.34-.05-.11-.11-.24-.18-.41-.09-.18-.2-.44-.35-.77l-.51-1.13c-.19-.42-.38-.85-.58-1.3-.2-.45-.4-.89-.58-1.32-.06-.13-.12-.27-.19-.45-.07-.18-.17-.4-.27-.66-.11-.26-.23-.58-.36-.94-.13-.36-.29-.8-.49-1.36-.11-.3-.2-.59-.28-.87-.08-.28-.16-.57-.22-.86-.03-.12-.04-.21-.05-.29-.02-.14-.05-.26-.09-.37-.08-.21-.23-.36-.43-.45-.17-.07-.36-.08-.57-.03-.07,.01-.14,.03-.2,.06-.08,.03-.16,.08-.26,.15l-.62,.44c-.13,.07-.25,.14-.37,.22-.11,.07-.23,.14-.35,.22-.17,.11-.31,.25-.4,.41-.09,.15-.13,.3-.15,.46-.37,1.85-6.78,12.74-6.78,12.74-.1,.16-.23,.38-.41,.65-.16,.27-.34,.54-.54,.85-.18,.29-.37,.57-.55,.83-.16,.23-.3,.42-.41,.54-.03,.03-.08,.08-.14,.14l-.24,.24c-.08,.09-.16,.17-.24,.24-.07,.07-.12,.12-.16,.15l-.08,.07-.05,.09c-.18,.32-.1,.7,.19,.91,.06,.04,.13,.09,.21,.13,.13,.08,.29,.14,.49,.2,.13,.04,.25,.08,.35,.11l.09,.03h.09c.21,.02,.4-.02,.57-.1,.14-.07,.27-.16,.38-.28,.09-.09,.17-.2,.24-.31,.06-.1,.12-.19,.16-.27l1.84-3.21c.09-.18,.19-.34,.27-.49,.09-.16,.18-.32,.27-.49,.09-.16,.18-.33,.28-.51l.2-.35h.03c.32-.02,.68-.04,1.06-.05,.53-.02,1.07-.04,1.63-.05,.55,0,1.12-.02,1.68-.02,.58,0,1.08,0,1.55,0,.4,0,.75,.02,1.03,.03,.28,.02,.52,.03,.72,.05,.18,.02,.33,.04,.45,.06,.12,.03,.21,.05,.28,.07,.05,.02,.1,.03,.13,.05,.08,.04,.17,.08,.25,.11,.18,.07,.26,.12,.31,.14,.21,.11,.42,.15,.61,.1,.08-.02,.16-.05,.24-.1m-1.38-2.36c-.28,0-.63,.01-1.04,.02h-.16c-.39,0-.86,0-1.38-.03-.64-.02-1.27-.05-1.88-.09-.62-.04-1.19-.08-1.69-.12-.39-.04-.73-.07-1.03-.09h-.08l.78-1.39c.22-.39,.43-.77,.62-1.11l.51-.94c.16-.29,.31-.57,.47-.85,.08-.15,.17-.31,.28-.5,.11-.19,.24-.41,.39-.65,.14-.24,.31-.52,.51-.83l.52-.84,.04,.08c.09,.17,.18,.33,.26,.48,.15,.28,.29,.55,.41,.8,.12,.24,.24,.49,.36,.75,.12,.25,.24,.52,.37,.79,.23,.51,.44,.96,.61,1.33l.69,1.47c.08,.16,.15,.32,.23,.48,.07,.15,.15,.32,.24,.5,.08,.18,.19,.41,.31,.67l.03,.07h-.37Z"/><path class="g" d="M122.4,34.93c.1,0,.21-.03,.32-.08,.14-.07,.29-.15,.44-.23l.92-.47c.15-.08,.29-.16,.41-.23,.22-.15,.33-.36,.3-.59-.01-.1-.03-.22-.05-.38-.02-.14-.03-.31-.04-.5l-.08-1.73c-.02-.33-.03-.69-.05-1.08l-.06-1.16c-.02-.38-.04-.72-.05-1.04-.01-.32-.03-.56-.04-.72-.01-.2-.02-.41-.04-.62-.02-.23-.05-.46-.11-.69-.06-.24-.16-.47-.29-.69-.14-.23-.33-.44-.58-.62-.28-.22-.71-.41-1.32-.58-.95-.27-2.05-.33-3.18-.16-.4,.06-.82,.16-1.23,.29-.41,.13-.83,.31-1.25,.52-.19,.1-.38,.21-.56,.33l-.08,.05v-.1c0-.12,0-.25,0-.38,0-.24-.07-.42-.2-.54-.12-.11-.28-.17-.49-.17h-.08c-.19,.01-.38,.06-.56,.14-.16,.07-.32,.16-.46,.25-.15,.09-.29,.19-.41,.29-.1,.09-.18,.15-.24,.19l-.02,.02c-.16,.13-.27,.27-.35,.41-.11,.19-.12,.49,.16,.72,.08,.08,.13,.16,.15,.27,.04,.16,.06,.36,.08,.58,.04,.54,.07,1.08,.08,1.62,.02,.55,.03,1.09,.04,1.62,.01,.53,.01,1.05,0,1.53,0,.49-.01,.94-.02,1.33-.01,.24-.02,.51-.04,.79-.02,.28-.06,.58-.12,.88-.03,.14-.05,.27-.07,.38-.03,.2,.06,.47,.4,.58,.17,.07,.35,.04,.66-.06,.16-.05,.34-.12,.53-.19,.18-.07,.35-.15,.51-.22,.16-.07,.28-.13,.36-.17l.03-.02c.12-.08,.22-.17,.28-.29,.09-.15,.1-.33,.04-.49-.08-.23-.12-.43-.13-.61l-.03-.6c-.02-.41-.04-.86-.06-1.36-.02-.48-.04-.99-.05-1.56l-.04-1.61c-.01-.46-.02-.89-.02-1.29v-.03l.02-.02c.36-.25,.76-.46,1.18-.62,.49-.18,.99-.31,1.48-.4,.79-.14,1.47-.14,2.09-.02,.27,.05,.51,.14,.72,.27,.2,.12,.35,.27,.48,.47,.12,.18,.19,.42,.2,.7,.03,.49,.05,.97,.06,1.42,.02,.44,.03,.86,.04,1.26,.01,.39,.01,.79,0,1.18,0,.39-.01,.8-.02,1.21-.01,.2-.03,.47-.05,.8-.02,.35-.05,.75-.06,1.18-.01,.22,0,.4,0,.55,.04,.37,.29,.5,.49,.5"/><path class="g" d="M135.16,23.31c-.1,0-.2,.02-.32,.06-.07,.02-.14,.04-.2,.06-.37,.09-.74,.17-1.12,.23-.37,.06-.75,.1-1.11,.12h-.27c-.09,0-.18,0-.28,0-.11,0-.23-.01-.37-.02-.14,0-.3,0-.48-.01h-.32v-.06c.01-.25,.02-.51,.03-.79,.02-.42,.04-.85,.06-1.29,.02-.44,.05-.88,.08-1.32,.03-.43,.06-.86,.1-1.27,.03-.23-.05-.44-.22-.58-.13-.1-.29-.16-.47-.17h-.03c-.14,0-.31,.05-.54,.17-.18,.09-.37,.21-.58,.34-.21,.13-.41,.28-.6,.42-.2,.15-.35,.28-.45,.38-.21,.21-.3,.43-.27,.65,.02,.15,.07,.3,.14,.46,.14,.27,.2,.43,.21,.52,.03,.14,.04,.29,.04,.45v1.42c0,.15,0,.29,0,.42v.17h-.74c-.14,0-.27,0-.44-.01h-.08c-.12,0-.23,.02-.33,.06-.11,.04-.22,.12-.32,.24-.04,.04-.11,.12-.28,.34-.14,.17-.26,.38-.36,.6-.11,.21-.1,.37-.06,.47,.1,.3,.33,.32,.4,.32h.15l.02-.04h.02c.19-.03,.37-.06,.53-.09,.19-.03,.38-.06,.56-.08,.18-.02,.38-.03,.59-.04,.09,0,.18,0,.29-.01h.05v.05c0,.25,0,.49,0,.72v.98c-.02,.3-.02,.55-.03,.77,0,.22,0,.39,0,.49,0,.31-.02,.66-.04,1.06l-.04,1.2c-.01,.41-.03,.81-.04,1.19,0,.39,0,.74,0,1.03,.02,.6,.22,1.11,.58,1.51,.37,.4,.88,.64,1.52,.69h.1c.26,0,.6-.06,1.02-.19,.39-.12,.81-.26,1.22-.43,.41-.16,.8-.32,1.17-.48,.35-.15,.62-.27,.79-.36,.11-.04,.2-.1,.28-.16,.11-.09,.19-.22,.22-.34,.04-.14,.08-.28,.11-.43,.03-.16,.06-.42,.09-.78,.01-.21-.07-.35-.14-.42-.07-.07-.2-.16-.42-.16-.23,0-.45,.09-.62,.27l-.02,.02c-.34,.4-.69,.73-1.03,.99-.33,.25-.6,.41-.81,.46-.13,.04-.24,.07-.34,.08-.11,.01-.2,.02-.29,.02-.16,0-.27-.03-.33-.09-.06-.07-.16-.21-.27-.49-.03-.1-.08-.31-.13-.72-.04-.34-.08-.73-.1-1.14-.03-.42-.05-.83-.06-1.23,0-.41-.01-.75-.01-1.02,0-.18,0-.39,0-.64,0-.25,.01-.52,.02-.81l.05-1.53h.05c.08,.01,.14,.02,.21,.03,.17,.02,.33,.04,.48,.06,.15,.02,.29,.04,.43,.07,.15,.03,.32,.06,.5,.09,.31,.05,.63,.08,.95,.09h.11c.14,0,.27-.02,.4-.04,.14-.03,.28-.09,.4-.17,.17-.09,.33-.21,.5-.33,.17-.13,.32-.27,.47-.41,.15-.16,.27-.32,.36-.5,.1-.19,.15-.4,.15-.6,0-.28-.2-.48-.48-.48"/><path class="g" d="M140.41,17.51c-.11-.08-.23-.12-.35-.12-.15,0-.37,.05-.57,.28-.14,.16-.27,.3-.39,.43-.11,.12-.21,.23-.25,.28-.24,.28-.46,.5-.65,.67-.21,.18-.39,.36-.53,.52-.14,.15-.22,.3-.26,.47-.03,.11-.05,.22-.06,.3-.03,.23,.01,.41,.12,.53,.09,.11,.23,.17,.39,.17s.33-.06,.5-.18c.18-.11,.39-.26,.65-.46l1.02-.79c.08-.07,.18-.15,.3-.25,.13-.1,.27-.21,.43-.33,.2-.15,.25-.33,.26-.45,0-.1,0-.22-.02-.33-.03-.19-.12-.35-.27-.49-.1-.1-.21-.18-.32-.25"/><path class="g" d="M140.22,23.19c-.05-.07-.15-.17-.32-.2h-.14c-.16,0-.35,.04-.58,.12-.19,.08-.4,.17-.6,.29-.2,.11-.4,.24-.6,.37-.2,.14-.37,.28-.5,.4-.15,.14-.26,.26-.33,.36-.07,.11-.1,.23-.07,.35,.03,.12,.1,.23,.23,.31h.01v.03c.03,.07,.05,.15,.07,.24,.02,.1,.03,.2,.04,.3,.01,.12,.02,.22,.03,.3,.04,.44,.07,.89,.09,1.36,.02,.47,.05,.97,.06,1.5,.04,1.12,.01,2.13-.07,3-.08,.89-.17,1.66-.25,2.28-.03,.15-.03,.27-.02,.38,.01,.08,.07,.33,.41,.41,.14,.04,.31,.04,.53-.03,.12-.04,.27-.11,.43-.21,.15-.09,.32-.22,.52-.37,.2-.15,.43-.35,.7-.59,.15-.13,.24-.3,.26-.49,.01-.12,0-.25-.02-.38-.07-.7-.13-1.4-.16-2.1-.03-.72-.06-1.36-.06-1.92,0-.32,0-.69,0-1.12,0-.41,0-.84,.02-1.29,.02-.45,.05-.9,.1-1.34,.05-.43,.12-.84,.22-1.21v-.03c.03-.1,.05-.21,.07-.33,.04-.2-.02-.33-.07-.41"/><path class="g" d="M137.64,49.78c-.17-.22-.33-.41-.47-.56-.05-.05-.1-.07-.15-.07-.04,0-.07,0-.1,.02-.07,.03-.14,.11-.12,.22,.03,.25,.15,1.11,.37,1.65,.3,.72,.78,1.39,1.42,1.99,.84,.77,1.63,1.45,2.81,1.91,1.16,.46,2.36,.83,3.61,.99,1.25,.15,2.52,.18,3.79,.07,1.26-.11,2.48-.4,3.59-.71,1.14-.33,2.24-.75,3.28-1.25,1.03-.5,2-1.11,2.88-1.81,.88-.71,1.68-1.53,2.38-2.44,.7-.91,1.31-1.94,1.81-3.08,.47-1.11,.72-2.21,.73-3.27,.01-.99,.02-1.84-.41-2.95-.23-.6-.63-1.32-1.06-1.94-.37-.52-.86-1-1.47-1.42-.61-.42-1.35-.78-2.19-1.06-.1-.03-.19-.07-.29-.1-.74-.25-1.43-.49-2.35-.56-1.17-.11-2-.13-2.89-.06-.88,.07-1.77,.17-2.59,.28-.99,.14-1.62,.22-2.44,.29-1.13,.11-2.54,.18-3.42-.25-.66-.32-.87-.46-1.05-1.36-.07-.37,.1-.83,.51-1.37h.01s.09-.07,.14-.1c.19-.11,.36-.22,.56-.31,.28-.12,.57-.21,.88-.29,.31-.07,.63-.13,.93-.16,.31-.04,.59-.07,.82-.09,.19-.03,.34-.16,.41-.35,.03-.09,.07-.34,.07-.36v-.04h.04c.24-.06,.46-.12,.67-.18,.3-.08,.6-.18,.88-.3,.28-.11,.56-.25,.83-.41,.27-.16,.55-.36,.83-.59,.58-.47,1.06-.93,1.41-1.37,.37-.46,.6-.91,.7-1.35,.1-.46,.05-.91-.15-1.34-.08-.17-.19-.34-.32-.5l-.06-.08h.1c.16,0,.34-.02,.51-.04,.22-.03,.46-.09,.69-.19,.24-.11,.48-.24,.7-.4,.22-.15,.42-.32,.58-.48,.17-.17,.32-.35,.43-.53,.12-.19,.19-.36,.23-.52,.07-.3,.06-.52-.04-.68-.07-.13-.23-.28-.57-.3-.12-.01-.25-.01-.39,0-.15,.01-.31,.05-.47,.12-.16,.07-.3,.15-.41,.24-.13,.1-.23,.24-.3,.42v.02h-.03s-.07,.03-.12,.04c-.18,.04-.39,.07-.63,.08-.24,.01-.49,.01-.74,0-.25-.01-.46-.03-.62-.06-.41-.06-.75,0-1.01,.2-.15,.11-.3,.25-.45,.41l-.02,.02h-.03c-.76-.21-1.54-.27-2.33-.2-.86,.08-1.69,.3-2.47,.65-.78,.37-1.42,.81-1.92,1.29-.5,.49-.89,1.04-1.15,1.64-.23,.51-.34,1.05-.32,1.61,.02,.56,.16,1.09,.43,1.56,.27,.48,.68,.86,1.22,1.16,.14,.08,.3,.15,.47,.2l.11,.04-.1,.05c-.29,.16-.55,.34-.78,.55-.24,.2-.45,.41-.63,.63l-.03,.04c-.14,.16-.26,.31-.35,.47l-.02,.03c-.13,.21-.22,.41-.28,.59-.26,.8-.17,1.59,.24,2.34,.42,.77,1.13,1.4,2.1,1.88,.62,.3,1.24,.49,1.82,.56,.6,.07,1.2,.1,1.8,.08,.61-.02,1.24-.08,1.87-.17,.65-.09,1.35-.16,2.07-.19,.75-.04,1.54-.02,2.34,.06,.82,.07,1.73,.26,2.71,.56,1.01,.31,1.81,.79,2.37,1.44,.52,.6,1.08,1.35,1.26,2.33,.21,1.12,.23,2.89,.05,3.95-.16,.98-.67,1.79-1.12,2.51l-.06,.09c-.47,.75-1.03,1.42-1.68,1.99-.64,.57-1.39,1.05-2.23,1.44-.84,.39-1.81,.69-2.88,.92-1.02,.21-2.1,.35-3.21,.44-1.12,.09-2.22,.05-3.28-.11h-.05c-1.05-.17-2.24-.35-3.53-.69-2.82-1.09-3.95-2.51-4.7-3.46m6.81-23.04c.08-.23,.21-.47,.38-.7,.16-.22,.39-.41,.67-.58,.28-.16,.6-.29,.93-.37,.32-.08,.66-.12,1-.12h.05c.36,0,.71,.06,1.06,.15,.34,.1,.66,.24,.95,.42,.26,.17,.46,.39,.62,.66,.16,.28,.26,.57,.3,.87,.04,.31,.02,.59-.07,.88-.08,.27-.22,.49-.42,.67-.33,.28-.66,.48-1,.6-.36,.13-.77,.26-1.21,.37-.35,.09-.66,.14-.95,.14-.12,0-.24,0-.34-.02-.36-.05-.68-.17-.94-.33-.26-.17-.49-.39-.67-.65-.19-.28-.34-.58-.45-.89-.02-.07-.05-.21-.05-.45,0-.2,.05-.41,.13-.64"/><path class="g" d="M167.06,34.55c.17-.07,.35-.15,.53-.24,.19-.09,.36-.19,.51-.29,.17-.11,.29-.22,.37-.32,.07-.08,.12-.19,.13-.3,.02-.17-.08-.4-.4-.47h-.04s-.04,0-.09-.09c-.04-.06-.11-.22-.16-.62-.06-.5-.09-1.01-.1-1.53-.01-.52-.02-1.05,0-1.57,0-.52,.03-1.05,.06-1.56,.03-.54,.05-1.04,.07-1.52,.02-.54,.04-1,.07-1.37,.03-.36,.06-.69,.08-.96,.03-.23-.07-.42-.26-.51-.1-.04-.2-.07-.32-.07h-.07c-.34,.01-.68,.07-1.03,.17-.33,.1-.57,.18-.75,.27-.31,.12-.48,.38-.46,.7v.03c.04,.28,.07,.56,.09,.83,.02,.28,.05,.59,.08,.91,.06,.72,.12,1.39,.18,2,.06,.56,.09,1.06,.1,1.48,0,.41-.01,.77-.06,1.07-.05,.28-.14,.54-.27,.78-.14,.24-.33,.47-.58,.69-.26,.23-.6,.48-1.02,.73-.36,.23-.77,.4-1.21,.51-.68,.18-1.4,.22-2.1,.12-.23-.03-.43-.09-.6-.18-.16-.08-.28-.19-.39-.32-.09-.12-.15-.3-.16-.52,0-.11-.02-.27-.02-.48,0-.21,0-.44,0-.71v-1.61c0-.25,0-.45,0-.61,0-.18,0-.3,0-.35,.02-.78,.06-1.55,.11-2.29,.06-.74,.12-1.53,.2-2.32,.01-.13,0-.27-.04-.41-.07-.25-.26-.41-.5-.41h-.08c-.21,.03-.43,.09-.66,.16-.22,.07-.43,.14-.62,.22-.2,.08-.36,.15-.5,.22-.14,.07-.24,.11-.29,.14-.25,.12-.3,.31-.31,.41-.01,.11,0,.21,.05,.33,.05,.1,.08,.23,.1,.37,.02,.16,.03,.33,.03,.52,.02,.49,.03,1,.04,1.51,0,.51,.01,1.01,.02,1.52,0,.51,0,.94,0,1.33,0,.39,.01,.75,.03,1.09,.01,.33,.03,.64,.05,.92,.02,.28,.05,.55,.09,.81,.07,.45,.23,.83,.5,1.14,.25,.29,.57,.53,.94,.71,.36,.17,.76,.3,1.2,.37,1.05,.17,2.17,.13,3.25-.13,.65-.16,1.22-.38,1.69-.65,.05-.02,.09-.04,.12-.06,.02-.01,.08-.05,.17-.11,.09-.06,.24-.15,.44-.27,.08-.05,.18-.11,.29-.18l.08-.05v.09c0,.19,.04,.38,.1,.57,.05,.12,.13,.24,.24,.35,.17,.16,.35,.2,.47,.2h.11c.13-.03,.3-.08,.49-.16"/><path class="g" d="M179.01,34.35c-.03,.1-.03,.22,.01,.35,.03,.08,.13,.33,.51,.33,.09,0,.16,0,.24-.03,.1-.03,.24-.08,.42-.14,.18-.06,.36-.13,.56-.2l.56-.21c.19-.07,.34-.13,.43-.18,.19-.08,.31-.23,.35-.42,.02-.12,.02-.27-.02-.44-.03-.12-.06-.27-.1-.45-.03-.16-.06-.36-.06-.59-.03-.8-.05-1.56-.08-2.27-.02-.71-.06-1.37-.1-1.95-.04-.59-.1-1.12-.18-1.57-.08-.47-.2-.87-.34-1.19-.21-.44-.51-.8-.9-1.08-.37-.27-.79-.47-1.25-.62-.45-.14-.92-.24-1.41-.28-.48-.04-.93-.06-1.35-.04-.59,.04-1.12,.12-1.6,.23-.47,.11-.91,.24-1.31,.39-.39,.14-.76,.3-1.1,.46-.33,.16-.64,.3-.92,.43-.25,.11-.42,.22-.54,.34-.17,.17-.17,.33-.15,.42,.01,.08,.07,.23,.26,.32,.07,.04,.16,.08,.28,.13,.12,.05,.26,.09,.39,.13,.14,.04,.27,.08,.4,.12,.14,.04,.25,.07,.35,.09,.06,.01,.11,.02,.15,.03,.17,.02,.33,0,.47-.06,.1-.04,.21-.12,.33-.23,.47-.41,.93-.72,1.35-.92,.4-.19,.88-.28,1.45-.26,.59,.02,1.07,.09,1.45,.23,.36,.13,.65,.31,.86,.54,.22,.23,.38,.53,.48,.89,.08,.29,.15,.63,.19,1.01v.05h-.04c-.33,.06-.67,.1-1,.13-.47,.05-.94,.11-1.41,.17-.48,.07-.98,.16-1.49,.27-.52,.12-1.06,.29-1.62,.51-.76,.3-1.45,.66-2.07,1.08-.64,.43-1.12,.91-1.41,1.43-.18,.31-.28,.62-.28,.94,0,.31,.05,.6,.17,.88,.12,.28,.28,.53,.5,.75,.21,.22,.45,.4,.71,.54,.44,.23,.92,.4,1.44,.48,.82,.14,1.7,.16,2.56,.07,.34-.04,.65-.08,.92-.12,.6-.11,1.22-.24,1.83-.41,.37-.1,.73-.21,1.08-.33l.09-.03-.02,.09c-.02,.06-.03,.13-.05,.18m-.36-1.76c-.27,.15-.56,.3-.87,.42-.31,.12-.63,.23-.96,.31-.32,.09-.64,.15-.95,.2-.18,.03-.38,.04-.58,.04-.24,0-.5-.02-.75-.05-.25-.04-.49-.09-.72-.15-.22-.07-.43-.14-.62-.23-.17-.08-.31-.17-.41-.26-.1-.09-.17-.2-.21-.34-.05-.18-.07-.37-.07-.59,0-.18,.02-.35,.07-.52,.05-.16,.12-.31,.23-.46,.11-.15,.27-.3,.47-.44,.21-.15,.47-.29,.79-.42,.25-.1,.49-.19,.72-.26,.23-.07,.47-.13,.71-.17,.25-.04,.52-.07,.81-.1,.3-.02,.62-.04,.95-.05,.32,0,.67,0,1.03,.02,.27,.02,.57,.04,.88,.07h.05v.05c0,.12,0,.24,0,.35,0,.22,0,.45,0,.68v.75c0,.21,0,.45-.01,.7v.02l-.02,.02c-.17,.15-.36,.28-.57,.4"/></g></svg>