<?xml version="1.0" encoding="UTF-8"?>
<svg id="a" xmlns="http://www.w3.org/2000/svg" xmlns:xlink="http://www.w3.org/1999/xlink" viewBox="0 0 868.12 70.88">
  <defs>
    <style>
      .cls-1 {
        fill: #ffba00;
      }

      .cls-2 {
        fill: #fff;
      }

      .cls-3 {
        fill: none;
      }

      .cls-4 {
        fill: #231f20;
      }

      .cls-5 {
        fill: url(#linear-gradient);
      }

      .cls-6 {
        clip-path: url(#clippath);
      }

      .cls-7 {
        fill: #0044b5;
      }

      .cls-8 {
        fill: #fd372c;
      }
    </style>
    <linearGradient id="linear-gradient" x1="1976.92" y1="1410.26" x2="2047.85" y2="1410.26" gradientTransform="translate(-976.2 -1976.92) rotate(90) scale(1 -1)" gradientUnits="userSpaceOnUse">
      <stop offset="0" stop-color="#fff" stop-opacity="0"/>
      <stop offset=".14" stop-color="#fff" stop-opacity="0"/>
      <stop offset=".27" stop-color="#fff" stop-opacity=".06"/>
      <stop offset=".39" stop-color="#fff" stop-opacity=".13"/>
      <stop offset=".51" stop-color="#fff" stop-opacity=".23"/>
      <stop offset=".63" stop-color="#fff" stop-opacity=".36"/>
      <stop offset=".74" stop-color="#fff" stop-opacity=".52"/>
      <stop offset=".86" stop-color="#fff" stop-opacity=".71"/>
      <stop offset=".96" stop-color="#fff" stop-opacity=".92"/>
      <stop offset="1" stop-color="#fff"/>
    </linearGradient>
    <clipPath id="clippath">
      <rect class="cls-3" x="10.04" y="14.15" width="124.77" height="42.58"/>
    </clipPath>
  </defs>
  <g id="b">
    <g id="c">
      <polygon class="cls-5" points="0 70.93 0 0 868.12 0 868.12 70.93 0 70.93"/>
    </g>
  </g>
  <g>
    <path class="cls-7" d="M170.58,35.4c-.12.24-.27.44-.47.6s-.44.28-.7.36c-.27.08-.55.12-.86.12h-.91v1.64h-1.2v-5.45h2.22c.33,0,.62.04.87.13.26.09.48.22.65.39s.32.36.41.6.14.49.14.76v.02c0,.33-.07.6-.18.84h.03ZM169.54,34.55c0-.27-.08-.48-.26-.61-.18-.14-.41-.21-.71-.21h-.92v1.66h.95c.3,0,.54-.08.7-.24s.25-.35.25-.59v-.02h0Z"/>
    <path class="cls-7" d="M182.26,38.12l-1.17-1.75h-.94v1.75h-1.2v-5.45h2.49c.65,0,1.15.16,1.51.48s.54.76.54,1.33v.02c0,.44-.11.8-.32,1.07-.22.28-.5.48-.85.61l1.33,1.95h-1.39,0ZM182.28,34.5c0-.26-.08-.45-.25-.58s-.39-.19-.69-.19h-1.19v1.56h1.22c.29,0,.52-.07.68-.21s.24-.33.24-.56v-.02h0Z"/>
    <path class="cls-7" d="M191.94,38.12v-5.45h1.2v5.45h-1.2Z"/>
    <path class="cls-7" d="M205.63,38.12l-2.64-3.46v3.46h-1.18v-5.45h1.11l2.55,3.35v-3.35h1.18v5.45h-1.02Z"/>
    <path class="cls-7" d="M217.73,33.78v4.34h-1.2v-4.34h-1.65v-1.11h4.52v1.11h-1.67Z"/>
    <path class="cls-7" d="M241.4,35.4c-.12.24-.27.44-.47.6s-.44.28-.7.36-.55.12-.86.12h-.91v1.64h-1.2v-5.45h2.22c.33,0,.62.04.87.13.26.09.48.22.65.39.18.17.32.36.41.6s.14.49.14.76v.02c0,.33-.06.6-.18.84h.03ZM240.36,34.55c0-.27-.08-.48-.26-.61-.18-.14-.41-.21-.71-.21h-.92v1.66h.95c.3,0,.54-.08.7-.24.17-.16.25-.35.25-.59v-.02h0Z"/>
    <path class="cls-7" d="M255.1,36.49c-.14.34-.34.64-.6.9s-.56.46-.92.6c-.35.15-.74.22-1.16.22s-.81-.08-1.16-.22c-.35-.15-.65-.34-.92-.6s-.45-.55-.6-.89-.21-.71-.21-1.09v-.02c0-.39.08-.76.22-1.09.14-.34.34-.64.6-.9s.56-.46.92-.6c.35-.15.74-.22,1.17-.22s.81.08,1.16.22c.35.15.65.34.92.6s.45.55.6.89c.14.34.21.71.21,1.09v.02c0,.39-.08.75-.23,1.09ZM254.07,35.39c0-.24-.04-.45-.12-.66s-.19-.39-.34-.55-.32-.28-.53-.37-.42-.13-.66-.13-.46.04-.66.13-.37.21-.51.37-.25.34-.34.54-.12.42-.12.65v.02c0,.24.04.45.12.66s.19.39.34.55c.15.15.32.28.52.37s.42.13.66.13.46-.04.66-.13c.2-.08.38-.21.52-.37s.25-.34.34-.54.12-.43.12-.65v-.02h0Z"/>
    <path class="cls-7" d="M267.01,38.12l-1.17-1.75h-.94v1.75h-1.2v-5.45h2.49c.65,0,1.15.16,1.51.48.36.32.54.76.54,1.33v.02c0,.44-.11.8-.32,1.07-.22.28-.5.48-.84.61l1.33,1.95h-1.4,0ZM267.04,34.5c0-.26-.08-.45-.25-.58s-.39-.19-.7-.19h-1.19v1.56h1.22c.29,0,.52-.07.68-.21s.24-.33.24-.56v-.02h0Z"/>
    <path class="cls-7" d="M279.1,33.78v4.34h-1.2v-4.34h-1.65v-1.11h4.52v1.11h-1.67,0Z"/>
    <path class="cls-7" d="M293.05,38.12l-.5-1.23h-2.3l-.5,1.23h-1.23l2.33-5.48h1.11l2.33,5.48h-1.24,0ZM291.4,34.07l-.72,1.76h1.44l-.72-1.76Z"/>
    <path class="cls-7" d="M302.45,38.12v-5.45h1.2v4.37h2.71v1.08h-3.91Z"/>
  </g>
  <rect class="cls-4" x="154.31" y="16.73" width=".93" height="37.41"/>
  <g>
    <g class="cls-6">
      <path class="cls-7" d="M63.77,27.69c0,2.14-1.35,2.93-3.44,2.93h-.08c-2.1,0-3.44-.77-3.44-2.93v-11.08h2.3v10.72c0,.99.44,1.27,1.19,1.27s1.19-.28,1.19-1.27v-10.72h2.3v11.08Z"/>
      <polygon class="cls-7" points="65.81 30.46 65.81 16.61 68.1 16.61 71.01 25.18 71.01 16.61 73.11 16.61 73.11 30.46 70.93 30.46 67.91 21.46 67.91 30.46 65.81 30.46"/>
      <rect class="cls-7" x="75.23" y="16.61" width="2.3" height="13.85"/>
      <polygon class="cls-7" points="86.01 18.63 83.69 18.63 83.69 30.46 81.4 30.46 81.4 18.63 79.09 18.63 79.09 16.61 86.01 16.61 86.01 18.63"/>
      <polygon class="cls-7" points="87.45 30.46 87.45 16.61 93.53 16.61 93.53 18.63 89.75 18.63 89.75 22.43 92.91 22.43 92.91 24.44 89.75 24.44 89.75 28.44 93.59 28.44 93.59 30.46 87.45 30.46"/>
      <path class="cls-7" d="M102.26,19.54v7.99c0,2.1-1.38,2.93-3.48,2.93h-3.54v-13.85h3.54c2.1,0,3.48.83,3.48,2.93M98.7,18.63h-1.17v9.81h1.17c.75,0,1.27-.28,1.27-1.27v-7.28c0-.99-.51-1.27-1.27-1.27"/>
      <polygon class="cls-7" points="117.03 30.46 114.87 30.46 113.09 20.96 111.31 30.46 109.07 30.46 106.9 16.61 109.15 16.61 110.3 26.5 112.08 16.61 114.14 16.61 115.92 26.5 117.07 16.61 119.2 16.61 117.03 30.46"/>
      <path class="cls-7" d="M124.41,27.37h-2.53l-.49,3.09h-2.22l2.57-13.85h2.89l2.61,13.85h-2.33l-.49-3.09ZM124.11,25.47l-.97-6.15-.97,6.15h1.94Z"/>
      <polygon class="cls-7" points="132.02 30.46 129.72 30.46 129.72 25.53 126.93 16.61 129.35 16.61 130.89 23.04 132.43 16.61 134.81 16.61 132.02 25.53 132.02 30.46"/>
      <path class="cls-2" d="M52.62,35.44c0,11.75-9.54,21.29-21.29,21.29s-21.29-9.54-21.29-21.29S19.56,14.15,31.33,14.15s21.29,9.53,21.29,21.29"/>
      <path class="cls-1" d="M20.23,39.55c.22-.1.72-.32.94-.43.26-.13.22-.24.14-.45-.34-1.02-.5-2.1-.5-3.23,0-5.77,4.69-10.46,10.46-10.46s10.44,4.69,10.44,10.46c0,1.47-.31,2.89-.86,4.16-.05.09-.06.27.09.35.17.07.81.36.99.43.19.07.3.03.4-.17.63-1.47.98-3.08.98-4.77,0-6.66-5.4-12.07-12.05-12.07s-12.06,5.41-12.06,12.07c0,1.37.23,2.67.64,3.9.06.19.16.31.38.21"/>
      <path class="cls-1" d="M17.17,40.97c.24-.13,1.11-.52,1.33-.63.24-.1.18-.3.14-.39-.5-1.41-.78-2.92-.78-4.5,0-7.4,6.01-13.4,13.4-13.4s13.38,6,13.38,13.4c0,1.89-.39,3.69-1.11,5.32-.04.09-.1.29.13.37.2.09,1.17.52,1.34.6.19.08.31.04.4-.18.82-1.87,1.27-3.95,1.27-6.12,0-8.51-6.91-15.44-15.42-15.44s-15.44,6.93-15.44,15.44c0,1.87.34,3.67.96,5.34.04.1.11.31.38.19"/>
      <path class="cls-1" d="M13,42.89c.3-.15,2.11-.99,2.43-1.13.33-.14.19-.39.14-.52-.67-1.81-1.04-3.76-1.04-5.79,0-9.24,7.5-16.75,16.74-16.75s16.72,7.51,16.72,16.75c0,2.34-.49,4.56-1.35,6.58-.06.12-.12.37.19.5.29.13,2.05.91,2.29,1,.24.12.42.09.58-.26,1.02-2.42,1.58-5.06,1.58-7.83,0-11.06-8.98-20.07-20.02-20.07s-20.04,9-20.04,20.07c0,2.54.47,4.97,1.34,7.21.05.13.14.36.43.24"/>
      <path class="cls-8" d="M31.3,31.09c1.18,0,2.15-.96,2.15-2.15s-.97-2.16-2.15-2.16-2.15.96-2.15,2.16.95,2.15,2.15,2.15"/>
      <path class="cls-8" d="M32.09,42.35c.42,0,.75-.34.75-.76v-4.72c.02-.6.45-1.36.86-1.81l4.44-4.44c.3-.3.3-.79,0-1.08l-.81-.81c-.29-.3-.78-.3-1.08,0l-4,4.01c-.28.26-.46.42-.95.42s-.69-.16-.95-.42l-4.01-4.01c-.3-.3-.78-.3-1.07,0l-.82.81c-.3.29-.3.78,0,1.08l4.45,4.44c.42.45.83,1.21.85,1.81v4.72c0,.42.34.76.76.76h1.58"/>
      <path class="cls-7" d="M48.06,53.37h.29c.33,0,.46-.04.46-.28,0-.18-.11-.26-.39-.26h-.36v.55ZM48.06,54.38h-.26v-1.78h.67c.41,0,.62.16.62.5,0,.32-.21.45-.43.48l.48.79h-.32l-.47-.79h-.27v.79ZM49.61,53.47c0-.71-.54-1.26-1.24-1.26s-1.24.55-1.24,1.26.55,1.28,1.24,1.28,1.24-.55,1.24-1.28M46.84,53.47c0-.85.7-1.5,1.53-1.5s1.54.66,1.54,1.5-.7,1.53-1.54,1.53-1.53-.66-1.53-1.53"/>
      <path class="cls-7" d="M34.91,45.36c.45.14.94.32,1.49.55.27.12.52.25.75.4,1.71-.97,3.16-2.34,4.23-3.98.1-.16.08-.37-.04-.51-.38-.43-1.21-.6-1.96-.15h0c-.33.2-.6.48-.82.8-.17.26-.36.51-.57.75-.84.98-1.9,1.7-3.07,2.13"/>
      <path class="cls-7" d="M37.88,46.96c.63.72.86,1.62.64,2.51,2.53-1.3,4.65-3.27,6.14-5.67.06-.09.08-.2.06-.3-.17-.81-1.26-1.3-2.44-.63,0,0,0,0,0,0-.31.24-.48.49-.58.64-1.06,1.51-2.23,2.51-3.82,3.46"/>
      <path class="cls-7" d="M37.43,42.74c.2-.2.36-.43.51-.66.07-.12.09-.26.04-.39-.21-.45-.9-.71-1.61-.34-1.04.53-2.51,1.99-4.13,3.05-.06.04-.06.14.01.17.4.16,1.09.31,1.64.45.43,0,2.24-.94,3.55-2.28"/>
      <path class="cls-7" d="M13.84,44.13c.57-.26,2.5-1.15,2.76-1.27,1.08-.5,2.88-1.36,4.04-1.57.09-.02.18-.03.27-.04.02,0,.03,0,.05,0,.07-.01.14-.02.21-.03.06,0,.11-.01.17-.02.06,0,.13-.01.19-.02.07,0,.15-.01.23-.01.05,0,.11,0,.16,0,.13,0,.26,0,.39,0,0,0,0,0,.01,0h0s.03,0,.04,0c.09,0,.19,0,.28.01.05,0,.1,0,.15,0,.06,0,.13,0,.19.02.06,0,.12.01.17.02.06,0,.11.01.17.02.42.05.87.14,1.34.27,0,0,.01,0,.01,0,.1.03.21.06.31.09.02,0,.04.01.05.02.69.22,1.45.55,2.24.98,1.88,1.01,3.37,2.6,5.54,3.01,1.56.29,5.62,1.36,4.71,3.83-.46,1.24-1.47,1.53-2.75,1.35,0,0-.02,0-.03,0-.06,0-.11-.02-.17-.03-.04,0-.08-.01-.12-.02-.04,0-.09-.02-.13-.03-.07-.01-.14-.03-.21-.05-.02,0-.04,0-.06-.01-1.36-.34-2.94-1.06-4.43-1.68-.04-.02-.08-.03-.12-.05-.07-.03-.13-.06-.2-.08-.07-.03-.14-.06-.21-.09-.06-.02-.11-.05-.17-.07-.08-.03-.17-.07-.25-.1-.04-.02-.09-.04-.13-.05-.13-.05-.25-.1-.37-.14,0,0,0,0,0,0-.08-.03-.16-.06-.24-.09-.12-.04-.24-.08-.36-.12-.12-.04-.23-.07-.34-.1-.51-.14-.98-.23-1.29-.21h0s-.06,0-.09.01c-.01,0-.03,0-.04,0-.02,0-.04.01-.07.02-.02,0-.04.01-.05.02,0,0-.01,0-.02.01-.08.04-.13.11-.13.2-.03.45.61.44,2.18.99,2.4.83,3.11,1.48,5.11,2.1.69.22,1.43.43,2.14.51.01,0,.02,0,.04,0,.08,0,.17.01.25.02.02,0,.03,0,.05,0,.08,0,.16,0,.24,0,.03,0,.06,0,.09,0,.08,0,.16,0,.23-.01.02,0,.04,0,.06,0,.07,0,.14-.02.21-.03.03,0,.05,0,.08-.01.08-.02.16-.03.23-.06.02,0,.04-.01.07-.02.07-.02.13-.04.2-.07.02,0,.04-.01.06-.02.08-.03.15-.07.22-.11.02-.01.04-.02.07-.04.07-.04.15-.09.22-.14.01,0,.02-.02.03-.02.07-.05.13-.1.19-.15.08-.07.16-.15.24-.23,3-1.25,5.55-3.36,7.34-6.02.17-.26.39-.48.66-.64.1-.06.2-.11.28-.14,1.8-.64,3.02.69,2.24,1.96-2.4,3.86-6.1,6.86-10.48,8.37h0c-2.03.7-4.2,1.08-6.47,1.08h0c-.21,0-.42,0-.63,0-4.45-.14-8.56-1.68-11.81-4.28h0s-.02-.02-.03-.02c-2.16-1.68-3.89-3.8-5.13-6.06-.04-.07-.08-.14-.12-.22-.14-.27-.03-.61.25-.74"/>
    </g>
    <g>
      <path class="cls-7" d="M63.19,36.03h-2.62v7.07h-1.13v-7.07h-2.47v-.89h6.07c.02.15.05.3.07.44.02.15.05.3.08.44Z"/>
      <path class="cls-7" d="M67.93,42.5c-.25.23-.55.42-.9.57-.35.14-.67.22-.98.22-.69,0-1.2-.2-1.52-.6-.32-.4-.47-.91-.47-1.52v-3.74h1.13v3.66c0,.37.09.67.27.9.18.23.45.35.81.35.21,0,.45-.06.73-.17.27-.11.53-.27.76-.46v-4.27h1.12v5.67h-.64l-.33-.6Z"/>
      <path class="cls-7" d="M73.05,38.23c-.53,0-.93.19-1.19.58-.26.39-.4.86-.4,1.43,0,.59.12,1.08.37,1.47.25.39.64.58,1.18.58.34,0,.61-.04.81-.11s.42-.16.66-.28l.34.81c-.25.17-.55.3-.91.4-.36.09-.66.14-.9.14-.87,0-1.54-.28-2.01-.83-.46-.55-.7-1.28-.7-2.16,0-.88.25-1.6.72-2.15.47-.55,1.15-.83,2.03-.83.23,0,.53.05.88.15.35.1.66.23.91.4l-.33.8c-.24-.1-.46-.19-.67-.27-.2-.08-.47-.12-.81-.12Z"/>
      <path class="cls-7" d="M79.41,38.61c-.22-.1-.45-.19-.68-.27-.24-.08-.51-.12-.81-.12s-.53.06-.71.18c-.18.12-.26.28-.26.49,0,.17.11.32.31.45.2.13.47.25.81.37.47.17.9.4,1.31.7.41.29.61.67.61,1.14,0,.53-.2.95-.59,1.25-.39.3-.97.45-1.71.45-.24,0-.55-.04-.94-.13-.38-.09-.69-.21-.94-.39l.35-.83c.24.12.49.21.75.28s.51.11.77.11c.37,0,.66-.06.87-.18.21-.12.31-.28.31-.5s-.11-.41-.33-.57c-.22-.16-.52-.3-.88-.42-.44-.15-.87-.35-1.26-.62-.4-.27-.6-.63-.6-1.09,0-.51.19-.92.58-1.21.39-.29.91-.44,1.57-.44.24,0,.55.05.91.14.37.09.67.23.91.4l-.35.81Z"/>
      <path class="cls-7" d="M83.63,43.25c-.86,0-1.51-.29-1.95-.85-.44-.56-.67-1.28-.67-2.16,0-.87.25-1.59.73-2.14.48-.55,1.14-.83,2-.84.89,0,1.56.28,2.02.85.46.57.68,1.29.68,2.18s-.25,1.59-.75,2.13c-.5.54-1.19.81-2.06.82ZM85.31,40.3c0-.61-.12-1.11-.36-1.49-.24-.39-.63-.58-1.17-.58s-.94.18-1.21.54c-.27.36-.4.85-.41,1.46,0,.63.11,1.13.35,1.5.23.37.61.56,1.15.56s.94-.18,1.22-.53c.28-.35.43-.84.43-1.46Z"/>
      <path class="cls-7" d="M88.84,38.17c.24-.27.55-.49.94-.67.38-.18.74-.27,1.06-.27.69,0,1.2.2,1.52.6.32.4.47.91.47,1.52v3.74h-1.12v-3.64c0-.38-.09-.69-.27-.91-.18-.23-.46-.34-.82-.35-.23,0-.51.07-.82.22-.31.15-.58.34-.81.59v4.09h-1.12v-5.67h.63l.35.75Z"/>
      <path class="cls-7" d="M97.31,37.77c.22-.15.53-.27.95-.36.41-.09.74-.14.98-.14.66,0,1.2.18,1.64.55.44.37.66.84.66,1.43v3.85h-.63c-.05-.09-.11-.18-.15-.27-.05-.09-.09-.18-.14-.27-.2.17-.44.33-.75.47-.3.14-.61.21-.91.21-.67,0-1.17-.17-1.49-.5-.32-.34-.49-.76-.49-1.28,0-.57.19-1,.58-1.3.39-.3.89-.45,1.5-.45h1.35c0-.39-.08-.73-.23-1.01-.16-.28-.46-.42-.9-.42-.34,0-.64.04-.91.12-.27.08-.51.17-.73.26l-.32-.89ZM97.98,41.46c0,.22.08.42.23.61.16.19.39.28.71.28.29,0,.56-.07.81-.21.25-.14.48-.32.67-.54v-1.15h-1.38c-.34,0-.6.1-.78.3-.18.2-.27.44-.27.7Z"/>
      <path class="cls-7" d="M104.17,38.17c.24-.27.55-.49.94-.67.38-.18.74-.27,1.06-.27.69,0,1.2.2,1.52.6.32.4.47.91.47,1.52v3.74h-1.12v-3.64c0-.38-.09-.69-.27-.91-.18-.23-.46-.34-.82-.35-.23,0-.51.07-.82.22-.31.15-.58.34-.81.59v4.09h-1.12v-5.67h.63l.35.75Z"/>
      <path class="cls-7" d="M114.7,34.85v8.25h-.64l-.3-.53c-.24.21-.52.38-.85.5-.32.12-.62.18-.9.18-.83,0-1.45-.28-1.87-.85-.42-.57-.63-1.28-.63-2.14s.22-1.59.65-2.16c.43-.57,1.06-.86,1.89-.86.23,0,.49.05.76.15.27.1.53.22.76.38v-2.8l1.13-.12ZM112.24,38.19c-.58,0-1,.21-1.23.62-.24.41-.36.89-.36,1.43,0,.57.11,1.05.34,1.45.23.4.64.6,1.25.6.21,0,.43-.05.66-.15.23-.1.45-.23.66-.4v-3c-.21-.17-.43-.31-.66-.4-.23-.1-.45-.15-.66-.15Z"/>
    </g>
    <g>
      <path class="cls-7" d="M57.82,53.15c.22.11.51.22.88.33.37.11.73.17,1.09.17.57,0,1-.11,1.3-.32.3-.21.44-.49.44-.83,0-.79-.68-1.37-2.05-1.75-1.37-.38-2.05-1.17-2.05-2.37,0-.58.23-1.06.7-1.46.46-.4,1.1-.6,1.91-.6.4,0,.78.05,1.15.16.37.11.69.23.95.36-.05.15-.12.3-.19.44-.07.15-.13.3-.19.44-.2-.1-.43-.2-.7-.29-.26-.09-.58-.13-.95-.13-.44,0-.82.09-1.12.26-.3.17-.45.43-.45.78,0,.8.69,1.4,2.06,1.79,1.37.39,2.06,1.17,2.06,2.33,0,.62-.25,1.14-.74,1.54-.5.4-1.2.6-2.12.6-.34,0-.75-.06-1.25-.19-.5-.12-.83-.26-.98-.4.04-.15.08-.3.12-.44.04-.15.09-.3.13-.44Z"/>
      <path class="cls-7" d="M66.39,54.62c-.86,0-1.51-.29-1.95-.85-.44-.56-.67-1.28-.67-2.16,0-.87.25-1.59.73-2.14.48-.55,1.14-.83,2-.84.89,0,1.56.28,2.02.85.46.57.68,1.29.68,2.18s-.25,1.59-.75,2.13c-.5.54-1.19.81-2.06.82ZM68.06,51.67c0-.61-.12-1.11-.36-1.49-.24-.39-.63-.58-1.17-.58s-.94.18-1.21.54c-.27.36-.4.85-.41,1.46,0,.63.11,1.13.35,1.5.23.37.61.56,1.15.56s.94-.18,1.22-.53c.28-.35.43-.84.43-1.46Z"/>
      <path class="cls-7" d="M74.4,53.87c-.25.23-.55.42-.9.57-.35.14-.67.22-.98.22-.69,0-1.2-.2-1.52-.6-.32-.4-.47-.91-.47-1.52v-3.74h1.13v3.66c0,.37.09.67.27.9.18.23.45.35.81.35.21,0,.45-.06.73-.17.27-.11.53-.27.76-.46v-4.27h1.12v5.67h-.64l-.33-.6Z"/>
      <path class="cls-7" d="M79.96,54.42c-.1.05-.24.11-.43.16-.18.05-.36.08-.53.08-.55,0-.99-.15-1.32-.46s-.49-.74-.49-1.32v-3.17h-.8v-.85s.8,0,.8,0v-1.42l1.12-.26v1.67h1.03l.35.85h-1.38v3c0,.29.06.52.19.71.13.18.33.27.61.27.09,0,.19-.01.29-.04.1-.03.19-.06.26-.09l.29.85Z"/>
      <path class="cls-7" d="M82.22,49.42c.24-.23.54-.43.88-.58.35-.15.67-.23.98-.23.69,0,1.2.2,1.52.6.32.4.47.91.47,1.52v3.74h-1.12v-3.64c0-.38-.09-.69-.27-.91-.18-.23-.46-.34-.84-.35-.23,0-.51.07-.81.22-.31.15-.58.34-.8.59v4.09h-1.12v-8.13l1.12-.13v3.21Z"/>
      <path class="cls-7" d="M92.6,51.88h-4.02c.04.52.2.95.49,1.29.29.34.72.5,1.3.5.34,0,.62-.04.85-.11.23-.07.46-.17.7-.27l.35.82c-.25.17-.57.3-.95.38-.39.08-.7.12-.94.12-.95,0-1.68-.27-2.19-.82-.51-.55-.77-1.27-.77-2.16s.24-1.6.72-2.15c.48-.55,1.14-.83,1.99-.83.92,0,1.56.32,1.93.97.37.65.55,1.4.55,2.27ZM91.51,51.12c-.07-.47-.22-.84-.44-1.11-.23-.27-.55-.41-.98-.41s-.78.14-1.03.42c-.25.28-.4.65-.46,1.11h2.91Z"/>
      <path class="cls-7" d="M93.94,54.47v-5.67h.63l.36.81c.22-.19.49-.37.82-.54.33-.18.65-.26.95-.26l.25.9c-.31,0-.64.08-.98.25-.34.17-.65.38-.92.65v3.87h-1.12Z"/>
      <path class="cls-7" d="M98.89,49.54c.24-.27.55-.49.94-.67.38-.18.74-.27,1.06-.27.69,0,1.2.2,1.52.6.32.4.47.91.47,1.52v3.74h-1.12v-3.64c0-.38-.09-.69-.27-.91-.18-.23-.46-.34-.82-.35-.23,0-.51.07-.82.22-.31.15-.58.34-.81.59v4.09h-1.12v-5.67h.63l.35.75Z"/>
      <path class="cls-7" d="M110.19,46.51l3.07,7.79-1.11.16-.83-2.13h-3.24l-.8,2.13h-1.1l3-7.96h1.02ZM109.67,48.02l-1.28,3.42h2.59l-1.31-3.42Z"/>
      <path class="cls-7" d="M114.18,54.47v-5.67h.63l.36.81c.22-.19.49-.37.82-.54.33-.18.65-.26.95-.26l.25.9c-.31,0-.64.08-.98.25-.34.17-.65.38-.92.65v3.87h-1.12Z"/>
      <path class="cls-7" d="M118.72,47.78c-.2,0-.36-.07-.49-.2-.13-.14-.2-.3-.2-.5,0-.19.06-.36.19-.5s.3-.2.5-.2.36.07.5.2c.14.14.21.3.21.5s-.07.36-.21.5c-.14.14-.31.2-.5.2ZM118.16,54.47v-5.67h1.13v5.67h-1.13Z"/>
      <path class="cls-7" d="M125.12,49.42l-3.15,4.17h3.05l.12.89h-4.52l-.14-.58,3.11-4.18h-2.63l-.25-.91h4.34l.06.62Z"/>
      <path class="cls-7" d="M128.7,54.62c-.86,0-1.51-.29-1.95-.85-.44-.56-.67-1.28-.67-2.16,0-.87.25-1.59.73-2.14.48-.55,1.14-.83,2-.84.89,0,1.56.28,2.02.85.46.57.68,1.29.68,2.18s-.25,1.59-.75,2.13c-.5.54-1.19.81-2.06.82ZM130.37,51.67c0-.61-.12-1.11-.36-1.49-.24-.39-.63-.58-1.17-.58s-.94.18-1.21.54c-.27.36-.4.85-.41,1.46,0,.63.11,1.13.35,1.5.23.37.61.56,1.15.56s.94-.18,1.22-.53c.28-.35.43-.84.43-1.46Z"/>
      <path class="cls-7" d="M133.91,49.54c.24-.27.55-.49.94-.67.38-.18.74-.27,1.06-.27.69,0,1.2.2,1.52.6.32.4.47.91.47,1.52v3.74h-1.12v-3.64c0-.38-.09-.69-.27-.91-.18-.23-.46-.34-.82-.35-.23,0-.51.07-.82.22-.31.15-.58.34-.81.59v4.09h-1.12v-5.67h.63l.35.75Z"/>
      <path class="cls-7" d="M139.62,49.15c.22-.15.53-.27.95-.36.41-.09.74-.14.98-.14.66,0,1.2.18,1.64.55.44.37.66.84.66,1.43v3.85h-.63c-.05-.09-.11-.18-.15-.27-.05-.09-.09-.18-.14-.27-.2.17-.44.33-.75.47-.3.14-.61.21-.91.21-.67,0-1.17-.17-1.49-.5-.32-.34-.49-.76-.49-1.28,0-.57.19-1,.58-1.3.39-.3.89-.45,1.5-.45h1.35c0-.39-.08-.73-.23-1.01-.16-.28-.46-.42-.9-.42-.34,0-.64.04-.91.12-.27.08-.51.17-.73.26l-.32-.89ZM140.28,52.83c0,.22.08.42.23.61.16.19.39.28.71.28.29,0,.56-.07.81-.21.25-.14.48-.32.67-.54v-1.15h-1.38c-.34,0-.6.1-.78.3-.18.2-.27.44-.27.7Z"/>
    </g>
  </g>
</svg>