<?xml version="1.0" encoding="UTF-8"?><svg id="a" xmlns="http://www.w3.org/2000/svg" xmlns:xlink="http://www.w3.org/1999/xlink" viewBox="0 0 780 250"><defs><style>.f{fill:#fff;}.g{fill:#00919d;}.h{opacity:.5;}.i{clip-path:url(#b);}.j{clip-path:url(#c);}.k{clip-path:url(#e);}.l{clip-path:url(#d);}.m{fill:none;}.n{fill:#231f20;}</style><clipPath id="b"><rect class="m" x="259.51" y="183.08" width="30.17" height="31.44"/></clipPath><clipPath id="c"><rect class="m" x="259.5" y="183.08" width="30.17" height="31.44"/></clipPath><clipPath id="d"><rect class="m" x="293.03" y="183.08" width="23.76" height="31.44"/></clipPath><clipPath id="e"><rect class="m" x="293.03" y="183.08" width="23.76" height="31.44"/></clipPath></defs><rect class="g" width="780" height="250"/><g><rect class="n" x="371.08" y="68.9" width="2.57" height="136.2"/><path class="n" d="M373.15,69.4V204.6h-1.57V69.4h1.57m1-1h-3.57V205.6h3.57V68.4h0Z"/></g><g><g><path class="f" d="M486.29,109.5c-.65,1.36-1.55,2.5-2.69,3.42s-2.47,1.61-4,2.06c-1.52,.46-3.16,.69-4.9,.69h-5.19v9.32h-6.84v-31.07h12.7c1.86,0,3.53,.26,4.99,.78s2.71,1.25,3.73,2.2c1.02,.95,1.8,2.08,2.35,3.4,.55,1.32,.82,2.77,.82,4.37v.09c0,1.8-.32,3.38-.97,4.74h0Zm-5.95-4.7c0-1.54-.5-2.71-1.49-3.51s-2.35-1.2-4.06-1.2h-5.28v9.5h5.42c1.72,0,3.05-.45,4-1.35s1.42-2.02,1.42-3.35v-.09h-.01Z"/><path class="f" d="M533.39,125l-6.66-9.94h-5.37v9.94h-6.84v-31.08h14.21c3.7,0,6.58,.9,8.64,2.71s3.08,4.32,3.08,7.55v.09c0,2.52-.61,4.57-1.84,6.15-1.23,1.58-2.83,2.75-4.82,3.48l7.59,11.1h-7.99Zm.13-20.47c0-1.48-.47-2.59-1.42-3.33s-2.26-1.11-3.95-1.11h-6.79v8.92h6.92c1.69,0,2.98-.4,3.88-1.2,.9-.8,1.35-1.86,1.35-3.2v-.08h.01Z"/><path class="f" d="M569.12,125v-31.08h6.84v31.07h-6.84Z"/><path class="f" d="M627.72,125l-15.05-19.75v19.75h-6.75v-31.08h6.3l14.56,19.13v-19.13h6.75v31.07h-5.81Z"/><path class="f" d="M677.26,100.23v24.77h-6.84v-24.77h-9.46v-6.3h25.75v6.3h-9.45Z"/></g><g><path class="f" d="M450.04,164.43c-.65,1.36-1.55,2.5-2.69,3.42s-2.47,1.61-3.99,2.06c-1.52,.46-3.16,.69-4.91,.69h-5.19v9.32h-6.84v-31.07h12.7c1.86,0,3.53,.26,4.99,.78s2.71,1.25,3.73,2.2c1.02,.95,1.81,2.08,2.35,3.4,.55,1.32,.82,2.78,.82,4.37v.09c0,1.8-.32,3.38-.97,4.74h0Zm-5.95-4.7c0-1.54-.5-2.71-1.49-3.51-.99-.8-2.35-1.2-4.06-1.2h-5.28v9.5h5.42c1.72,0,3.05-.45,4-1.35,.95-.9,1.42-2.02,1.42-3.35v-.09h-.01Z"/><path class="f" d="M508.68,170.63c-.83,1.94-1.97,3.64-3.44,5.11-1.47,1.46-3.21,2.62-5.24,3.46-2.03,.84-4.24,1.26-6.64,1.26s-4.6-.42-6.61-1.26c-2.01-.84-3.75-1.98-5.22-3.42-1.46-1.44-2.61-3.12-3.42-5.06-.81-1.94-1.22-4.02-1.22-6.24v-.09c0-2.22,.42-4.3,1.24-6.24,.83-1.94,1.97-3.64,3.44-5.1,1.46-1.46,3.21-2.62,5.24-3.46,2.03-.84,4.24-1.27,6.64-1.27s4.6,.42,6.61,1.27c2.01,.84,3.75,1.98,5.22,3.42s2.6,3.12,3.42,5.06c.81,1.94,1.22,4.02,1.22,6.24v.09c.01,2.21-.41,4.29-1.24,6.23h0Zm-5.9-6.24c0-1.33-.23-2.59-.69-3.77-.46-1.18-1.11-2.22-1.95-3.11s-1.84-1.59-3-2.11c-1.15-.52-2.41-.78-3.77-.78s-2.66,.25-3.79,.75c-1.14,.5-2.12,1.2-2.93,2.09s-1.45,1.92-1.91,3.09-.69,2.42-.69,3.75v.09c0,1.33,.23,2.59,.69,3.77,.46,1.18,1.11,2.22,1.95,3.11s1.83,1.59,2.97,2.11,2.4,.78,3.8,.78,2.62-.25,3.77-.75,2.14-1.2,2.95-2.09,1.45-1.92,1.91-3.09c.46-1.17,.69-2.42,.69-3.75v-.09h0Z"/><path class="f" d="M557.07,179.93l-6.66-9.94h-5.37v9.94h-6.84v-31.07h14.21c3.7,0,6.58,.9,8.63,2.71,2.06,1.81,3.09,4.32,3.09,7.55v.07c0,2.52-.61,4.57-1.84,6.15-1.23,1.58-2.83,2.75-4.82,3.48l7.59,11.1h-7.99Zm.14-20.44c0-1.48-.47-2.59-1.42-3.33s-2.26-1.11-3.95-1.11h-6.79v8.92h6.92c1.69,0,2.98-.4,3.89-1.2,.9-.8,1.35-1.86,1.35-3.2v-.08Z"/><path class="f" d="M606.57,155.15v24.77h-6.84v-24.77h-9.45v-6.3h25.75v6.3h-9.46Z"/><path class="f" d="M666.59,179.93l-2.84-6.97h-13.14l-2.84,6.97h-6.97l13.32-31.3h6.3l13.32,31.3h-7.15Zm-9.41-23.09l-4.13,10.08h8.26l-4.13-10.08Z"/><path class="f" d="M700.73,179.93v-31.07h6.84v24.9h15.49v6.17h-22.33Z"/></g></g><g><path class="n" d="M93.19,214.52h-6.71v-18.35l-9.39,18.35h-4.07l-9.39-18.35v18.35h-6.71v-31.43h7.21l10.9,21.29c3.56-6.96,7.33-14.41,10.9-21.29h7.25v31.43Z"/><path class="n" d="M125.58,214.51h-7.21l-2.56-6.03h-10.68l-2.47,6.03h-7.25l12.95-31.43h4.32l12.91,31.43Zm-11.86-11.61l-3.23-9.05c-.96,2.6-2.14,6.12-3.23,9.05h6.45Z"/><path class="n" d="M146.45,204.54l6.74,9.97h-7.54l-5.74-8.55h-5.03v8.55h-6.75v-31.43h12.61c6.45,.04,11.61,4.94,11.61,11.44,0,4.4-2.35,8.09-5.91,10.02m-11.57-4.15h5.83c2.73,0,4.95-2.47,4.95-5.87s-2.22-5.87-4.95-5.87h-5.83v11.74Z"/><path class="n" d="M183.82,214.51h-7.21l-2.56-6.03h-10.69l-2.47,6.03h-7.25l12.95-31.43h4.32l12.91,31.43Zm-11.86-11.61l-3.23-9.05c-.96,2.6-2.14,6.12-3.23,9.05h6.45Z"/><polygon class="n" points="215.09 214.52 207.92 214.52 194.01 193.89 194.01 214.52 187.26 214.52 187.26 183.08 194.39 183.08 208.34 203.74 208.34 183.08 215.09 183.08 215.09 214.52"/><path class="n" d="M248.02,214.51h-7.2l-2.56-6.03h-10.69l-2.47,6.03h-7.25l12.95-31.43h4.32l12.91,31.43Zm-11.86-11.61l-3.23-9.05c-.96,2.6-2.14,6.12-3.23,9.05h6.45Z"/><g class="h"><g class="i"><g class="j"><path class="n" d="M289.68,214.51h-7.21l-2.56-6.03h-10.69l-2.47,6.03h-7.25l12.95-31.43h4.32l12.91,31.43Zm-11.86-11.61l-3.23-9.05c-.96,2.6-2.14,6.12-3.23,9.05h6.45Z"/></g></g></g><g class="h"><g class="l"><g class="k"><polygon class="n" points="316.79 188.83 300.99 208.94 316.79 208.94 316.79 214.51 293.03 214.51 293.03 208.78 308.87 188.66 293.03 188.66 293.03 183.08 316.79 183.08 316.79 188.83"/></g></g></g><path class="f" d="M143.37,88.88l43.6-53.88,62.46,76.83-12.54,15.44h-62.47l-31.05-38.39Zm96.29,22.95l-52.69-64.8-33.83,41.86,24.9,30.81h55.25l6.38-7.86Z"/><path class="f" d="M136.76,68.71l16.37,20.16-31.32,38.39h-32.75l47.7-58.55Zm6.61,20.16l-6.61-8.14-31.78,38.94h13.22l25.16-30.81Z"/><path class="f" d="M239.66,111.83l17.16-21.13,29.61,36.57h-34.23l-12.54-15.44Zm17.16-9.1l-7.39,9.1,6.39,7.86h14.7l-13.7-16.96Z"/><path class="f" d="M71.82,148.42l-5.18,6.36H220.48c.45-2.41,1.54-4.6,3.11-6.36H71.82Z"/><path class="f" d="M62.37,160.05l-5.18,6.36H223.83c-1.57-1.76-2.68-3.94-3.14-6.36H62.37Z"/><path class="f" d="M236.17,159.85c-1.34,0-2.43-1.09-2.43-2.43s1.09-2.43,2.43-2.43l53.59,.04c5.07,0,9.2-4.13,9.2-9.2s-4.13-9.21-9.2-9.21H81.45l-5.52,6.77h213.82c1.34,0,2.43,1.09,2.43,2.43s-1.09,2.43-2.42,2.43l-53.59-.04c-5.08,0-9.21,4.13-9.21,9.21s4.13,9.2,9.21,9.2h82.14l-5.48-6.77h-76.66Z"/></g></svg>