<?xml version="1.0" encoding="UTF-8"?><svg id="a" xmlns="http://www.w3.org/2000/svg" xmlns:xlink="http://www.w3.org/1999/xlink" viewBox="0 0 434.06 70.88"><defs><style>.f{fill:#00919d;}.g{opacity:.5;}.h{clip-path:url(#b);}.i{clip-path:url(#c);}.j{clip-path:url(#e);}.k{clip-path:url(#d);}.l{fill:none;}.m{fill:#ce9958;}.n{fill:#231f20;}</style><clipPath id="b"><rect class="l" x="68.49" y="50.54" width="8.8" height="9.17"/></clipPath><clipPath id="c"><rect class="l" x="68.49" y="50.54" width="8.8" height="9.17"/></clipPath><clipPath id="d"><rect class="l" x="78.27" y="50.54" width="6.93" height="9.17"/></clipPath><clipPath id="e"><rect class="l" x="78.27" y="50.54" width="6.93" height="9.17"/></clipPath></defs><rect class="m" x="100.5" y="13.36" width=".51" height="44.06"/><g><path class="f" d="M122.57,35.33c-.16,.32-.37,.6-.65,.82s-.6,.38-.96,.5c-.37,.12-.76,.16-1.18,.16h-1.25v2.26h-1.66v-7.52h3.07c.45,0,.86,.06,1.2,.19,.36,.13,.66,.3,.9,.53s.44,.5,.57,.82,.2,.67,.2,1.05v.02c0,.45-.09,.83-.24,1.16h0Zm-1.44-1.12c0-.37-.12-.66-.36-.85-.24-.2-.57-.29-.98-.29h-1.27v2.29h1.31c.42,0,.74-.1,.96-.32s.35-.49,.35-.81v-.02h-.01Z"/><path class="f" d="M138.68,39.09l-1.61-2.41h-1.3v2.41h-1.66v-7.52h3.44c.89,0,1.59,.22,2.09,.66,.5,.44,.74,1.04,.74,1.83v.02c0,.61-.15,1.1-.44,1.48-.3,.38-.68,.66-1.17,.85l1.83,2.69h-1.92Zm.02-4.99c0-.36-.12-.63-.35-.8s-.54-.27-.95-.27h-1.64v2.15h1.68c.41,0,.72-.09,.94-.29s.32-.45,.32-.78v-.02h0Z"/><path class="f" d="M152.04,39.09v-7.52h1.66v7.52h-1.66Z"/><path class="f" d="M170.93,39.09l-3.64-4.77v4.77h-1.63v-7.52h1.53l3.52,4.62v-4.62h1.63v7.52h-1.41Z"/><path class="f" d="M187.64,33.1v5.99h-1.66v-5.99h-2.28v-1.53h6.23v1.53h-2.29Z"/><path class="f" d="M220.3,35.33c-.16,.32-.37,.6-.65,.82s-.6,.38-.96,.5-.76,.16-1.18,.16h-1.25v2.26h-1.66v-7.52h3.07c.45,0,.86,.06,1.2,.19,.36,.13,.66,.3,.9,.53s.44,.5,.57,.82,.2,.67,.2,1.05v.02c0,.45-.08,.83-.24,1.16h0Zm-1.44-1.12c0-.37-.12-.66-.36-.85-.24-.2-.57-.29-.98-.29h-1.27v2.29h1.31c.42,0,.74-.1,.96-.32,.23-.22,.35-.49,.35-.81v-.02h-.01Z"/><path class="f" d="M239.21,36.84c-.2,.46-.47,.88-.83,1.24s-.78,.64-1.26,.83c-.49,.21-1.02,.3-1.6,.3s-1.11-.1-1.6-.3c-.49-.21-.9-.47-1.26-.82s-.63-.75-.82-1.23-.29-.97-.29-1.51v-.02c0-.53,.1-1.04,.3-1.51,.2-.46,.47-.88,.83-1.24s.78-.64,1.26-.83c.49-.21,1.02-.3,1.61-.3s1.11,.1,1.6,.3c.49,.21,.9,.47,1.26,.82s.63,.75,.82,1.23c.2,.47,.29,.97,.29,1.51v.02c0,.53-.1,1.03-.31,1.51h0Zm-1.42-1.52c0-.32-.06-.63-.16-.92s-.27-.53-.47-.75c-.21-.22-.44-.38-.73-.51s-.58-.19-.92-.19-.64,.06-.92,.19c-.28,.13-.51,.29-.71,.51s-.35,.46-.46,.74-.16,.58-.16,.9v.02c0,.32,.06,.63,.16,.92s.27,.53,.47,.75c.21,.21,.44,.38,.72,.51,.28,.13,.58,.19,.92,.19s.64-.06,.92-.19c.28-.12,.52-.29,.72-.51s.35-.46,.46-.74,.16-.59,.16-.9v-.02h0Z"/><path class="f" d="M255.63,39.09l-1.61-2.41h-1.3v2.41h-1.66v-7.52h3.44c.89,0,1.59,.22,2.09,.66,.5,.44,.74,1.04,.74,1.83v.02c0,.61-.15,1.1-.44,1.48-.3,.38-.68,.66-1.16,.85l1.83,2.69h-1.93Zm.03-4.99c0-.36-.12-.63-.35-.8s-.54-.27-.96-.27h-1.64v2.15h1.68c.41,0,.72-.09,.94-.29s.32-.45,.32-.78v-.02h.01Z"/><path class="f" d="M272.33,33.1v5.99h-1.66v-5.99h-2.28v-1.53h6.23v1.53h-2.29Z"/><path class="f" d="M291.57,39.09l-.68-1.69h-3.17l-.68,1.69h-1.69l3.22-7.56h1.53l3.22,7.56h-1.75Zm-2.28-5.58l-1,2.43h1.99l-1-2.43h.01Z"/><path class="f" d="M304.54,39.09v-7.52h1.66v6.02h3.74v1.49h-5.4Z"/></g><g><path class="n" d="M19.97,59.71h-1.96v-5.35l-2.74,5.35h-1.19l-2.74-5.35v5.35h-1.96v-9.17h2.1l3.18,6.21c1.04-2.03,2.14-4.2,3.18-6.21h2.11v9.17Z"/><path class="n" d="M29.42,59.71h-2.1l-.75-1.76h-3.12l-.72,1.76h-2.11l3.78-9.17h1.26l3.77,9.17Zm-3.46-3.39l-.94-2.64c-.28,.76-.62,1.79-.94,2.64h1.88Z"/><path class="n" d="M35.51,56.8l1.97,2.91h-2.2l-1.68-2.49h-1.47v2.49h-1.97v-9.17h3.68c1.88,.01,3.39,1.44,3.39,3.34,0,1.28-.68,2.36-1.72,2.92m-3.37-1.21h1.7c.79,0,1.44-.72,1.44-1.71s-.65-1.71-1.44-1.71h-1.7v3.42Z"/><path class="n" d="M46.41,59.71h-2.1l-.75-1.76h-3.12l-.72,1.76h-2.11l3.78-9.17h1.26l3.76,9.17Zm-3.46-3.39l-.94-2.64c-.28,.76-.62,1.79-.94,2.64h1.88Z"/><polygon class="n" points="55.53 59.71 53.44 59.71 49.38 53.7 49.38 59.71 47.41 59.71 47.41 50.55 49.49 50.55 53.56 56.57 53.56 50.55 55.53 50.55 55.53 59.71"/><path class="n" d="M65.14,59.71h-2.1l-.75-1.76h-3.12l-.72,1.76h-2.11l3.78-9.17h1.26l3.76,9.17Zm-3.46-3.39l-.94-2.64c-.28,.76-.62,1.79-.94,2.64h1.88Z"/><g class="g"><g class="h"><g class="i"><path class="n" d="M77.29,59.71h-2.1l-.75-1.76h-3.12l-.72,1.76h-2.11l3.78-9.17h1.26l3.76,9.17Zm-3.46-3.39l-.94-2.64c-.28,.76-.62,1.79-.94,2.64h1.88Z"/></g></g></g><g class="g"><g class="k"><g class="j"><polygon class="n" points="85.2 52.22 80.59 58.09 85.2 58.09 85.2 59.71 78.27 59.71 78.27 58.04 82.89 52.17 78.27 52.17 78.27 50.55 85.2 50.55 85.2 52.22"/></g></g></g><path class="f" d="M34.61,23.07l12.72-15.72,18.22,22.41-3.66,4.5h-18.22l-9.06-11.2Zm28.09,6.69l-15.37-18.9-9.87,12.21,7.26,8.99h16.12l1.86-2.29Z"/><path class="f" d="M32.69,17.19l4.78,5.88-9.14,11.2h-9.55l13.91-17.08Zm1.93,5.88l-1.93-2.37-9.27,11.36h3.86l7.34-8.99Z"/><path class="f" d="M62.7,29.76l5-6.16,8.64,10.67h-9.98l-3.66-4.5Zm5-2.65l-2.16,2.65,1.86,2.29h4.29l-3.99-4.95Z"/><path class="m" d="M13.74,40.44l-1.51,1.86H57.1c.13-.7,.45-1.34,.91-1.86H13.74Z"/><path class="m" d="M10.98,43.83l-1.51,1.85H58.08c-.46-.51-.78-1.15-.92-1.85H10.98Z"/><path class="f" d="M61.68,43.77c-.39,0-.71-.32-.71-.71s.32-.71,.71-.71h15.63c1.48,.01,2.68-1.19,2.68-2.67s-1.2-2.69-2.68-2.69H16.55l-1.61,1.98h62.37c.39,0,.71,.32,.71,.71s-.32,.71-.71,.71h-15.63c-1.48-.01-2.69,1.19-2.69,2.67s1.2,2.68,2.69,2.68h23.96l-1.6-1.98h-22.36Z"/></g></svg>