<?xml version="1.0" encoding="UTF-8"?><svg id="a" xmlns="http://www.w3.org/2000/svg" viewBox="0 0 434.06 70.88"><defs><style>.b{fill:#fff;}.c{fill:#0c234b;}.d{fill:#ab0520;}</style></defs><rect class="d" x="165.71" y="13.36" width=".51" height="44.06"/><g><path class="c" d="M187.78,35.33c-.16,.32-.37,.6-.65,.82s-.6,.38-.96,.5c-.37,.12-.76,.16-1.18,.16h-1.25v2.26h-1.66v-7.52h3.07c.45,0,.86,.06,1.2,.19,.36,.13,.66,.3,.9,.53s.44,.5,.57,.82,.2,.67,.2,1.05v.02c0,.45-.09,.83-.24,1.16h0Zm-1.44-1.13c0-.37-.12-.66-.36-.85-.24-.2-.57-.29-.98-.29h-1.27v2.29h1.31c.42,0,.74-.1,.96-.32s.35-.49,.35-.81v-.02h-.01Z"/><path class="c" d="M203.89,39.09l-1.61-2.41h-1.3v2.41h-1.66v-7.52h3.44c.89,0,1.59,.22,2.09,.66,.5,.44,.74,1.04,.74,1.83v.02c0,.61-.15,1.1-.44,1.48-.3,.38-.68,.66-1.17,.85l1.83,2.69h-1.92Zm.02-4.98c0-.36-.12-.63-.35-.8s-.54-.27-.95-.27h-1.64v2.15h1.68c.41,0,.72-.09,.94-.29s.32-.45,.32-.78v-.02h0Z"/><path class="c" d="M217.25,39.09v-7.52h1.66v7.52h-1.66Z"/><path class="c" d="M236.14,39.09l-3.64-4.77v4.77h-1.63v-7.52h1.53l3.52,4.62v-4.62h1.63v7.52h-1.41Z"/><path class="c" d="M252.85,33.1v5.99h-1.66v-5.99h-2.28v-1.53h6.23v1.53h-2.29Z"/><path class="c" d="M285.51,35.33c-.16,.32-.37,.6-.65,.82s-.6,.38-.96,.5-.76,.16-1.18,.16h-1.25v2.26h-1.66v-7.52h3.07c.45,0,.86,.06,1.2,.19,.36,.13,.66,.3,.9,.53s.44,.5,.57,.82,.2,.67,.2,1.05v.02c0,.45-.08,.83-.24,1.16h0Zm-1.44-1.13c0-.37-.12-.66-.36-.85-.24-.2-.57-.29-.98-.29h-1.27v2.29h1.31c.42,0,.74-.1,.96-.32,.23-.22,.35-.49,.35-.81v-.02h-.01Z"/><path class="c" d="M304.42,36.84c-.2,.46-.47,.88-.83,1.24s-.78,.64-1.26,.83c-.49,.21-1.02,.3-1.6,.3s-1.11-.1-1.6-.3c-.49-.21-.9-.47-1.26-.82s-.63-.75-.82-1.23-.29-.97-.29-1.51v-.02c0-.53,.1-1.04,.3-1.51,.2-.46,.47-.88,.83-1.24s.78-.64,1.26-.83c.49-.21,1.02-.3,1.61-.3s1.11,.1,1.6,.3c.49,.21,.9,.47,1.26,.82s.63,.75,.82,1.23c.2,.47,.29,.97,.29,1.51v.02c0,.53-.1,1.03-.31,1.51h0Zm-1.42-1.52c0-.32-.06-.63-.16-.92s-.27-.53-.47-.75c-.21-.22-.44-.38-.73-.51s-.58-.19-.92-.19-.64,.06-.92,.19c-.28,.13-.51,.29-.71,.51s-.35,.46-.46,.74-.16,.58-.16,.9v.02c0,.32,.06,.63,.16,.92s.27,.53,.47,.75c.21,.21,.44,.38,.72,.51,.28,.13,.58,.19,.92,.19s.64-.06,.92-.19c.28-.12,.52-.29,.72-.51s.35-.46,.46-.74,.16-.59,.16-.9v-.02h0Z"/><path class="c" d="M320.84,39.09l-1.61-2.41h-1.3v2.41h-1.66v-7.52h3.44c.89,0,1.59,.22,2.09,.66,.5,.44,.74,1.04,.74,1.83v.02c0,.61-.15,1.1-.44,1.48-.3,.38-.68,.66-1.16,.85l1.83,2.69h-1.93Zm.03-4.98c0-.36-.12-.63-.35-.8s-.54-.27-.96-.27h-1.64v2.15h1.68c.41,0,.72-.09,.94-.29s.32-.45,.32-.78v-.02h.01Z"/><path class="c" d="M337.54,33.1v5.99h-1.66v-5.99h-2.28v-1.53h6.23v1.53h-2.29Z"/><path class="c" d="M356.78,39.09l-.68-1.69h-3.17l-.68,1.69h-1.69l3.22-7.56h1.53l3.22,7.56h-1.75Zm-2.28-5.58l-1,2.43h1.99l-1-2.43h.01Z"/><path class="c" d="M369.75,39.09v-7.52h1.66v6.02h3.74v1.49h-5.4Z"/></g><g><path class="c" d="M50.02,33.23c0,.55,.05,.95,.14,1.21s.27,.5,.48,.71h-2.91c.23-.21,.39-.45,.48-.71s.14-.66,.14-1.21v-7.74h-.86c-.59,0-1.07,.05-1.44,.14s-.66,.25-.87,.45l.54-1.78h7.62l-.5,1.75c-.16-.2-.37-.34-.62-.43-.27-.09-.59-.14-.98-.14h-1.2l-.02,7.76h0Z"/><path class="c" d="M55.82,33.44c0,.48,.04,.86,.12,1.09,.09,.23,.23,.45,.43,.62h-2.6c.2-.18,.34-.39,.43-.62s.12-.59,.12-1.09v-6.26c0-.48-.04-.86-.12-1.09s-.23-.45-.43-.62h2.6c-.2,.18-.36,.39-.43,.62-.09,.23-.12,.59-.12,1.09v2.16h5.12v-2.16c0-.48-.04-.86-.12-1.09s-.23-.45-.43-.62h2.6c-.2,.18-.34,.39-.43,.62s-.12,.59-.12,1.09v6.26c0,.48,.04,.86,.12,1.09,.09,.23,.23,.45,.43,.62h-2.6c.21-.18,.36-.39,.43-.62,.09-.23,.12-.59,.12-1.09v-2.98h-5.12v2.98h0Z"/><path class="c" d="M64.26,35.14c.2-.18,.34-.39,.43-.62s.12-.59,.12-1.09v-6.26c0-.48-.04-.86-.12-1.09s-.23-.45-.43-.62h5.21v1.53c-.23-.2-.48-.32-.77-.41-.29-.09-.61-.12-.96-.12-.2,0-.39,.02-.62,.05s-.5,.07-.78,.14v2.73h2.34v1.41c-.11-.12-.27-.23-.45-.29-.2-.05-.54-.09-1.03-.09h-.86v3.46c.36,.05,.7,.09,.98,.12s.55,.04,.77,.04c.48,0,.95-.07,1.37-.2,.43-.12,.86-.34,1.27-.61l-.66,1.89-5.8,.02h0Z"/><path class="c" d="M82.86,35.14v-.82c-.52,.37-1.03,.66-1.57,.84s-1.07,.29-1.61,.29c-.62,0-1.18-.11-1.66-.3-.48-.21-.91-.52-1.25-.93-.27-.32-.48-.71-.59-1.14-.12-.43-.18-1.02-.18-1.75v-5.08c0-.54-.05-.95-.14-1.21s-.25-.48-.48-.7h2.91c-.21,.2-.37,.43-.48,.7-.09,.25-.14,.66-.14,1.21v4.76c0,.73,.04,1.28,.11,1.64s.2,.64,.36,.86c.2,.25,.48,.45,.82,.57s.73,.2,1.21,.2c.39,0,.75-.05,1.09-.18,.34-.11,.62-.29,.89-.5,.23-.18,.39-.43,.48-.73s.14-.7,.14-1.21v-5.39c0-.57-.05-.98-.14-1.23s-.25-.48-.48-.68h2.93c-.23,.2-.39,.43-.48,.71-.09,.27-.14,.68-.14,1.2v6.99c0,.54,.05,.95,.14,1.21s.25,.5,.48,.7l-2.21-.02h0Z"/><path class="c" d="M95.69,25.47c-.21,.18-.36,.39-.43,.62-.09,.23-.12,.59-.12,1.09v8.21c-.34-.02-.64-.12-.95-.32-.3-.21-.68-.61-1.12-1.2l-4.92-6.3v5.89c0,.5,.04,.87,.12,1.11s.23,.43,.43,.61h-2.16c.2-.18,.34-.39,.43-.62s.12-.59,.12-1.09v-6.24c0-.48-.04-.86-.12-1.09s-.23-.45-.43-.62h1.93l5.64,7.26v-5.57c0-.48-.04-.86-.12-1.09s-.23-.45-.43-.62l2.14-.02h0Z"/><path class="c" d="M99.31,33.44c0,.48,.04,.86,.12,1.09,.09,.23,.23,.45,.43,.62h-2.6c.21-.18,.36-.39,.43-.62,.09-.23,.12-.59,.12-1.09v-6.26c0-.48-.04-.86-.12-1.09s-.23-.45-.43-.62h2.6c-.21,.18-.36,.39-.43,.62-.09,.23-.12,.59-.12,1.09v6.26h0Z"/><path class="c" d="M105.39,35.4c-.41-.11-.75-.34-1.03-.7s-.55-.89-.8-1.61l-1.93-5.64c-.16-.46-.3-.84-.45-1.14-.14-.29-.3-.57-.46-.84h1.96c.02,.16,.02,.3,.05,.45,.02,.14,.05,.27,.09,.39l2.32,6.92,2.19-5.76c.07-.18,.11-.36,.16-.54,.04-.18,.05-.34,.05-.5,0-.12-.04-.27-.11-.41s-.2-.32-.37-.55h2.18l-3.85,9.92h0Z"/><path class="c" d="M109.92,35.14c.2-.18,.34-.39,.43-.62s.12-.59,.12-1.09v-6.26c0-.48-.04-.86-.12-1.09s-.23-.45-.43-.62h5.21v1.53c-.23-.2-.48-.32-.77-.41s-.61-.12-.96-.12c-.18,0-.39,.02-.62,.05s-.5,.07-.78,.14v2.73h2.34v1.41c-.11-.12-.27-.23-.45-.29s-.54-.09-1.03-.09h-.86v3.46c.36,.05,.7,.09,.98,.12s.55,.04,.77,.04c.48,0,.95-.07,1.37-.2s.86-.34,1.27-.61l-.66,1.89-5.8,.02h0Z"/><path class="c" d="M119.07,33.44c0,.48,.04,.86,.12,1.09,.09,.23,.23,.45,.43,.62h-2.6c.2-.18,.34-.39,.43-.62s.12-.59,.12-1.09v-6.26c0-.48-.04-.86-.12-1.09s-.23-.45-.43-.62h3.3c.95,0,1.69,.23,2.28,.68,.57,.46,.87,1.05,.87,1.78,0,.54-.18,1-.52,1.39-.36,.41-.89,.77-1.62,1.07l2.48,3.35c.14,.2,.32,.41,.54,.64,.2,.23,.45,.46,.7,.7l-.73,.07h-.12c-.34,0-.68-.09-1.02-.29-.32-.18-.61-.45-.84-.77l-2.84-3.98c.84-.2,1.46-.45,1.86-.78s.59-.77,.59-1.28c0-.48-.16-.89-.5-1.2-.34-.3-.77-.46-1.32-.46-.12,0-.27,.02-.45,.04s-.37,.05-.59,.09l-.02,6.92h0Z"/><path class="c" d="M125.49,34.92l-.45-1.75c.55,.37,1.09,.66,1.61,.84s1.03,.27,1.55,.27c.66,0,1.18-.14,1.57-.43s.59-.66,.59-1.11c0-.12-.02-.27-.05-.39s-.09-.25-.18-.37c-.18-.27-.75-.64-1.75-1.14-.25-.12-.45-.21-.59-.29-.93-.48-1.57-.91-1.91-1.3s-.52-.87-.52-1.43c0-.78,.32-1.41,.95-1.87s1.5-.7,2.59-.7c.32,0,.66,.02,1.03,.07,.37,.04,.78,.11,1.23,.2v1.62c-.39-.3-.78-.54-1.2-.68-.39-.14-.8-.23-1.25-.23-.54,0-.98,.12-1.32,.36s-.5,.55-.5,.93c0,.34,.12,.64,.39,.89,.25,.27,.84,.61,1.75,1.05,.05,.02,.12,.05,.23,.11,.77,.36,1.34,.7,1.71,.98,.29,.21,.5,.5,.66,.82s.23,.66,.23,1.02c0,.84-.37,1.53-1.12,2.12-.75,.57-1.68,.87-2.8,.87-.36,0-.75-.04-1.16-.12-.36-.04-.82-.16-1.3-.34h.01Z"/><path class="c" d="M135.29,33.44c0,.48,.04,.86,.12,1.09,.09,.23,.23,.45,.43,.62h-2.62c.21-.18,.36-.39,.43-.62,.09-.23,.12-.59,.12-1.09v-6.26c0-.48-.04-.86-.12-1.09s-.23-.45-.43-.62h2.64c-.21,.18-.36,.39-.43,.62-.09,.23-.12,.59-.12,1.09l-.02,6.26h0Z"/><path class="c" d="M81.76,41.74l-1.57,4.03h3.12l-1.55-4.03h0Zm.18-3.44l.86,2.1,3.26,8.21c.36,.91,.64,1.8,1.53,2.27v.05h-3.23v-.05c.77-.36,.64-.52,.21-1.64l-.86-2.25h-4l-.82,2.25c-.34,.89-.45,1.36,.32,1.64v.05h-2.89v-.05c.91-.46,1.18-1.36,1.52-2.27l4.05-10.24v-.07h.05Z"/><path class="c" d="M61.73,42.04c-1.05,0-1.93,.37-2.62,1.11-.7,.73-1.03,1.68-1.03,2.84s.34,2.16,1.02,2.94,1.53,1.18,2.55,1.18,1.93-.37,2.62-1.11c.68-.75,1.03-1.69,1.03-2.84s-.34-2.16-1.02-2.94c-.68-.8-1.53-1.18-2.55-1.18h0Zm-.05,9.1c-.73,0-1.41-.12-2.05-.36s-1.2-.57-1.66-1.02c-.48-.46-.86-1.02-1.12-1.64s-.39-1.28-.39-1.98c0-.54,.09-1.07,.25-1.59s.41-.98,.73-1.43c.5-.68,1.11-1.21,1.86-1.57,.73-.37,1.53-.55,2.39-.55,.73,0,1.43,.12,2.07,.36,.64,.23,1.2,.57,1.66,1.02,.5,.46,.87,1.02,1.12,1.64,.27,.64,.39,1.32,.39,2.05,0,.68-.14,1.34-.45,1.98-.29,.64-.71,1.21-1.23,1.71-.48,.45-1.02,.78-1.62,1.02-.59,.23-1.25,.36-1.94,.36h-.01Z"/><path class="c" d="M69.79,49.19c0,.48,.04,.86,.12,1.09s.23,.45,.45,.62h-2.62c.2-.18,.34-.39,.43-.62s.12-.59,.12-1.09v-6.26c0-.48-.04-.86-.12-1.09s-.23-.45-.43-.62h5.23v1.53c-.23-.2-.48-.32-.77-.41-.29-.09-.61-.12-.96-.12-.2,0-.39,.02-.64,.05-.23,.04-.5,.07-.78,.14v2.73h2.35v1.41c-.11-.12-.27-.23-.45-.27-.2-.05-.54-.09-1.03-.09h-.87l-.02,3h-.01Z"/><path class="c" d="M90.37,49.19c0,.48,.04,.84,.12,1.09,.09,.23,.23,.45,.43,.62h-2.6c.2-.18,.34-.39,.43-.62s.12-.59,.12-1.09v-6.26c0-.48-.04-.86-.12-1.09s-.23-.45-.43-.62h3.3c.95,0,1.69,.23,2.28,.68,.57,.46,.86,1.05,.86,1.78,0,.54-.18,1-.52,1.41s-.89,.77-1.62,1.07l2.48,3.35c.14,.2,.32,.41,.54,.62s.45,.45,.71,.7l-.73,.07h-.12c-.34,0-.68-.09-1.02-.29-.34-.18-.61-.45-.84-.77l-2.84-3.98c.84-.2,1.46-.45,1.86-.78,.39-.34,.59-.77,.59-1.28,0-.48-.16-.89-.5-1.2s-.77-.46-1.32-.46c-.12,0-.27,.02-.45,.04s-.37,.05-.59,.09l-.02,6.92h0Z"/><path class="c" d="M99.2,49.19c0,.48,.04,.86,.12,1.09s.23,.45,.43,.62h-2.6c.2-.18,.34-.39,.43-.62s.12-.59,.12-1.09v-6.26c0-.48-.04-.84-.12-1.09-.09-.23-.23-.45-.43-.62h2.6c-.21,.18-.36,.39-.43,.62-.09,.23-.12,.59-.12,1.09v6.26h0Z"/><path class="c" d="M108.85,49.08l-.7,1.8h-7.44l5.07-8.42c-.37-.09-.73-.16-1.07-.21s-.64-.07-.93-.07c-.43,0-.82,.05-1.21,.16s-.78,.27-1.2,.5l.66-1.62h6.17l-5.07,8.42c.57,.07,1.03,.11,1.43,.14,.37,.04,.71,.04,1,.04,.66,0,1.27-.07,1.8-.18,.54-.11,1.03-.32,1.48-.55h0Z"/><path class="c" d="M114.4,42.04c-1.07,0-1.94,.37-2.62,1.11s-1.03,1.68-1.03,2.84,.34,2.16,1.02,2.94,1.53,1.18,2.55,1.18,1.93-.37,2.62-1.11c.68-.75,1.03-1.69,1.03-2.84s-.34-2.16-1.02-2.94c-.7-.8-1.53-1.18-2.55-1.18h0Zm-.05,9.1c-.73,0-1.41-.12-2.05-.36s-1.2-.57-1.66-1.02c-.48-.46-.86-1.02-1.12-1.64s-.39-1.28-.39-1.98c0-.54,.09-1.07,.25-1.59s.41-.98,.73-1.43c.5-.68,1.12-1.21,1.86-1.57,.73-.37,1.53-.55,2.39-.55,.75,0,1.43,.12,2.07,.36,.64,.23,1.2,.57,1.66,1.02,.5,.46,.87,1.02,1.12,1.64,.27,.64,.39,1.32,.39,2.05,0,.68-.14,1.34-.45,1.98-.29,.64-.71,1.21-1.23,1.71-.48,.45-1.02,.78-1.62,1.02-.61,.23-1.25,.36-1.94,.36h0Z"/><path class="c" d="M129.54,41.24c-.21,.18-.36,.39-.43,.62-.09,.23-.12,.59-.12,1.09v8.19c-.34-.02-.64-.12-.95-.32-.3-.21-.68-.61-1.12-1.18l-4.94-6.33v5.89c0,.5,.04,.87,.12,1.11s.21,.43,.43,.61h-2.16c.2-.18,.34-.39,.43-.62s.12-.59,.12-1.09v-6.26c0-.48-.04-.84-.12-1.09-.09-.23-.23-.45-.43-.62h1.93l5.64,7.26v-5.57c0-.48-.05-.84-.12-1.09-.09-.23-.23-.45-.43-.62h2.16v.04h0v-.02Z"/><path class="c" d="M133.06,46.32h2.8l-1.36-3.75-1.44,3.75h0Zm-1.3,3.26c-.04,.09-.07,.2-.09,.3s-.04,.21-.04,.32c0,.09,.04,.2,.09,.3,.07,.11,.18,.23,.32,.37h-2.25c.18-.12,.36-.3,.5-.54s.3-.54,.46-.93l2.68-6.9c.05-.12,.09-.25,.12-.37s.04-.23,.04-.34-.02-.21-.07-.3-.14-.18-.27-.29h2.18l3.03,8.12c.14,.37,.29,.66,.46,.89,.16,.23,.37,.45,.62,.66h-2.73l.04-.04c.25-.27,.37-.46,.37-.59,0-.14-.05-.36-.16-.66-.02-.05-.02-.09-.04-.11l-.82-2.23h-3.55l-.91,2.32h0l.02,.02Z"/><path class="c" d="M144.56,25.47l2.48,4.21,1.66-2.75c.11-.16,.18-.32,.23-.46s.07-.25,.07-.36-.04-.21-.11-.32-.16-.21-.3-.34h2.25l-3.26,5.33v2.64c0,.48,.04,.86,.12,1.09s.23,.45,.43,.62h-2.62c.21-.18,.36-.39,.43-.62,.09-.23,.12-.59,.12-1.09v-2.68l-2.23-3.67c-.23-.34-.39-.37-.61-.46-.23-.09-.62-.09-.98-.09h-1.07v6.9c0,.48,.04,.86,.12,1.09,.09,.23,.23,.45,.43,.62h-2.62c.2-.18,.36-.39,.43-.62,.09-.23,.12-.59,.12-1.09v-6.9h-.77c-.54,0-.96,.04-1.28,.12s-.59,.21-.78,.41l.48-1.59h7.26Z"/><polygon class="b" points="38.79 18.69 38.79 29.57 37.7 29.57 42.09 41.29 45.85 41.33 45.85 52.21 9.57 52.21 9.57 41.33 13.32 41.34 17.74 29.57 16.62 29.57 16.62 18.69 38.79 18.69"/><polyline class="c" points="27.71 22.74 34.72 22.74 34.72 25.56 31.81 25.56 39.47 45.27 41.71 45.27 41.71 48.16 32.24 48.16 32.24 45.36 29.57 45.36 29.57 50.89 44.55 50.89 44.55 42.63 41.18 42.63 35.79 28.27 37.49 28.27 37.49 20.03 27.71 20.03 27.71 20.03 17.94 20.03 17.94 28.27 19.63 28.27 14.24 42.63 10.87 42.63 10.87 50.89 25.84 50.89 25.84 45.36 23.18 45.36 23.18 48.16 13.69 48.16 13.69 45.27 15.96 45.27 23.61 25.56 20.7 25.56 20.7 22.74 27.71 22.74"/><path class="c" d="M48.87,48.48c.27,.27,.41,.59,.41,.98s-.14,.71-.41,.98-.61,.39-1,.39-.73-.12-1-.39-.41-.59-.41-.98,.14-.71,.41-.98,.61-.39,1-.39c.39-.02,.73,.14,1,.39h0Zm-.2,.18c-.21-.21-.48-.34-.8-.34s-.59,.11-.8,.34c-.21,.21-.32,.5-.32,.82s.11,.59,.32,.82c.21,.21,.48,.34,.8,.34s.59-.11,.8-.34c.21-.21,.32-.5,.32-.82,.02-.34-.11-.61-.32-.82h0Zm-1.41,0h.64c.18,0,.3,.04,.41,.11,.09,.07,.14,.18,.14,.32s-.05,.27-.14,.36c-.07,.07-.16,.11-.29,.12l.46,.7h-.29l-.41-.7h-.27v.7h-.27v-1.61h.02Zm.25,.71h.34c.12,0,.2-.02,.27-.07,.05-.04,.09-.11,.09-.2,0-.07-.04-.14-.09-.18s-.14-.05-.27-.05h-.34v.5h0Z"/><path class="d" d="M27.71,22.77l7.78,20.16s1,2.44,2.6,2.44h-5.65s.29,.04,.57-.43c.16-.27,.02-.68,.02-.68l-1.75-4.49h-7.13l-1.75,4.49s-.12,.41,.04,.68c.29,.46,.57,.43,.57,.43h-5.67c1.62,0,2.6-2.44,2.6-2.44l7.78-20.16m-.02,14.86h2.75l-2.73-7.06-2.73,7.06h2.71Z"/></g></svg>