<?xml version="1.0" encoding="UTF-8"?><svg id="a" xmlns="http://www.w3.org/2000/svg" viewBox="0 0 780 250"><defs><style>.b{fill:#fff;}.c{fill:#0c234b;}.d{fill:#ab0520;}</style></defs><rect class="d" width="780" height="250"/><g><rect class="c" x="392.8" y="56.71" width="2.57" height="136.2"/><path class="c" d="M394.87,57.21V192.41h-1.57V57.21h1.57m1-1h-3.57V193.41h3.57V56.21h0Z"/></g><g><g><path class="b" d="M499.01,97.31c-.65,1.36-1.55,2.5-2.69,3.42s-2.47,1.61-4,2.06c-1.52,.46-3.16,.69-4.9,.69h-5.19v9.32h-6.84v-31.07h12.7c1.86,0,3.53,.26,4.99,.78s2.71,1.25,3.73,2.2c1.02,.95,1.8,2.08,2.35,3.4,.55,1.32,.82,2.77,.82,4.37v.09c0,1.8-.32,3.38-.97,4.74Zm-5.95-4.7c0-1.54-.5-2.71-1.49-3.51s-2.35-1.2-4.06-1.2h-5.28v9.5h5.42c1.72,0,3.05-.45,4-1.35s1.42-2.02,1.42-3.35v-.09h-.01Z"/><path class="b" d="M546.11,112.81l-6.66-9.94h-5.37v9.94h-6.84v-31.08h14.21c3.7,0,6.58,.9,8.64,2.71s3.08,4.32,3.08,7.55v.09c0,2.52-.61,4.57-1.84,6.15-1.23,1.58-2.83,2.75-4.82,3.48l7.59,11.1h-7.99Zm.13-20.47c0-1.48-.47-2.59-1.42-3.33s-2.26-1.11-3.95-1.11h-6.79v8.92h6.92c1.69,0,2.98-.4,3.88-1.2,.9-.8,1.35-1.86,1.35-3.2v-.08h.01Z"/><path class="b" d="M581.84,112.81v-31.08h6.84v31.07h-6.84Z"/><path class="b" d="M640.44,112.81l-15.05-19.75v19.75h-6.75v-31.08h6.3l14.56,19.13v-19.13h6.75v31.07h-5.81Z"/><path class="b" d="M689.98,88.04v24.77h-6.84v-24.77h-9.46v-6.3h25.75v6.3h-9.45Z"/></g><g><path class="b" d="M462.76,152.24c-.65,1.36-1.55,2.5-2.69,3.42s-2.47,1.61-3.99,2.06c-1.52,.46-3.16,.69-4.91,.69h-5.19v9.32h-6.84v-31.07h12.7c1.86,0,3.53,.26,4.99,.78s2.71,1.25,3.73,2.2c1.02,.95,1.81,2.08,2.35,3.4,.55,1.32,.82,2.78,.82,4.37v.09c0,1.8-.32,3.38-.97,4.74Zm-5.95-4.7c0-1.54-.5-2.71-1.49-3.51-.99-.8-2.35-1.2-4.06-1.2h-5.28v9.5h5.42c1.72,0,3.05-.45,4-1.35,.95-.9,1.42-2.02,1.42-3.35v-.09h-.01Z"/><path class="b" d="M521.4,158.44c-.83,1.94-1.97,3.64-3.44,5.11-1.47,1.46-3.21,2.62-5.24,3.46-2.03,.84-4.24,1.26-6.64,1.26s-4.6-.42-6.61-1.26c-2.01-.84-3.75-1.98-5.22-3.42-1.46-1.44-2.61-3.12-3.42-5.06-.81-1.94-1.22-4.02-1.22-6.24v-.09c0-2.22,.42-4.3,1.24-6.24,.83-1.94,1.97-3.64,3.44-5.1,1.46-1.46,3.21-2.62,5.24-3.46,2.03-.84,4.24-1.27,6.64-1.27s4.6,.42,6.61,1.27c2.01,.84,3.75,1.98,5.22,3.42s2.6,3.12,3.42,5.06c.81,1.94,1.22,4.02,1.22,6.24v.09c.01,2.21-.41,4.29-1.24,6.23Zm-5.9-6.24c0-1.33-.23-2.59-.69-3.77-.46-1.18-1.11-2.22-1.95-3.11-.84-.89-1.84-1.59-3-2.11-1.15-.52-2.41-.78-3.77-.78s-2.66,.25-3.79,.75c-1.14,.5-2.12,1.2-2.93,2.09s-1.45,1.92-1.91,3.09-.69,2.42-.69,3.75v.09c0,1.33,.23,2.59,.69,3.77,.46,1.18,1.11,2.22,1.95,3.11s1.83,1.59,2.97,2.11,2.4,.78,3.8,.78,2.62-.25,3.77-.75,2.14-1.2,2.95-2.09,1.45-1.92,1.91-3.09c.46-1.17,.69-2.42,.69-3.75v-.09Z"/><path class="b" d="M569.79,167.74l-6.66-9.94h-5.37v9.94h-6.84v-31.07h14.21c3.7,0,6.58,.9,8.63,2.71,2.06,1.81,3.09,4.32,3.09,7.55v.07c0,2.52-.61,4.57-1.84,6.15-1.23,1.58-2.83,2.75-4.82,3.48l7.59,11.1h-7.99Zm.14-20.46c0-1.48-.47-2.59-1.42-3.33s-2.26-1.11-3.95-1.11h-6.79v8.92h6.92c1.69,0,2.98-.4,3.89-1.2,.9-.8,1.35-1.86,1.35-3.2v-.08Z"/><path class="b" d="M619.29,142.96v24.77h-6.84v-24.77h-9.45v-6.3h25.75v6.3h-9.46Z"/><path class="b" d="M679.31,167.74l-2.84-6.97h-13.14l-2.84,6.97h-6.97l13.32-31.3h6.3l13.32,31.3h-7.15Zm-9.41-23.09l-4.13,10.08h8.26l-4.13-10.08Z"/><path class="b" d="M713.45,167.74v-31.07h6.84v24.9h15.49v6.17h-22.33Z"/></g></g><g><path class="b" d="M128.21,120.11c0,1.27,.12,2.17,.33,2.78s.61,1.15,1.1,1.64h-6.67c.53-.49,.9-1.02,1.1-1.64s.33-1.51,.33-2.78v-17.75h-1.96c-1.35,0-2.45,.12-3.31,.33s-1.51,.57-2,1.02l1.23-4.09h17.47l-1.15,4.01c-.37-.45-.86-.78-1.43-.98-.61-.2-1.35-.33-2.25-.33h-2.74l-.04,17.8h0Z"/><path class="b" d="M141.51,120.6c0,1.1,.08,1.96,.29,2.5,.2,.53,.53,1.02,.98,1.43h-5.97c.45-.41,.78-.9,.98-1.43s.29-1.35,.29-2.5v-14.36c0-1.1-.08-1.96-.29-2.5s-.53-1.02-.98-1.43h5.97c-.45,.41-.82,.9-.98,1.43-.2,.53-.29,1.35-.29,2.5v4.95h11.74v-4.95c0-1.1-.08-1.96-.29-2.5s-.53-1.02-.98-1.43h5.97c-.45,.41-.78,.9-.98,1.43s-.29,1.35-.29,2.5v14.36c0,1.1,.08,1.96,.29,2.5,.2,.53,.53,1.02,.98,1.43h-5.97c.49-.41,.82-.9,.98-1.43,.2-.53,.29-1.35,.29-2.5v-6.83h-11.74v6.83h0Z"/><path class="b" d="M160.86,124.48c.45-.41,.78-.9,.98-1.43s.29-1.35,.29-2.5v-14.36c0-1.1-.08-1.96-.29-2.5s-.53-1.02-.98-1.43h11.95v3.52c-.53-.45-1.1-.74-1.76-.94-.65-.2-1.39-.29-2.21-.29-.45,0-.9,.04-1.43,.12s-1.15,.16-1.8,.33v6.26h5.36v3.23c-.25-.29-.61-.53-1.02-.65-.45-.12-1.23-.2-2.37-.2h-1.96v7.94c.82,.12,1.6,.2,2.25,.29s1.27,.08,1.76,.08c1.1,0,2.17-.16,3.15-.45,.98-.29,1.96-.78,2.9-1.39l-1.51,4.34-13.3,.04h0Z"/><path class="b" d="M203.53,124.48v-1.88c-1.19,.86-2.37,1.51-3.6,1.92s-2.45,.65-3.68,.65c-1.43,0-2.7-.25-3.8-.7-1.1-.49-2.09-1.19-2.86-2.13-.61-.74-1.1-1.64-1.35-2.62-.29-.98-.41-2.33-.41-4.01v-11.66c0-1.23-.12-2.17-.33-2.78s-.57-1.1-1.1-1.6h6.67c-.49,.45-.86,.98-1.1,1.6-.2,.57-.33,1.51-.33,2.78v10.92c0,1.68,.08,2.95,.25,3.76s.45,1.47,.82,1.96c.45,.57,1.1,1.02,1.88,1.31s1.68,.45,2.78,.45c.9,0,1.72-.12,2.5-.41,.78-.25,1.43-.65,2.05-1.15,.53-.41,.9-.98,1.1-1.68s.33-1.6,.33-2.78v-12.35c0-1.31-.12-2.25-.33-2.82s-.57-1.1-1.1-1.55h6.71c-.53,.45-.9,.98-1.1,1.64-.2,.61-.33,1.55-.33,2.74v16.04c0,1.23,.12,2.17,.33,2.78s.57,1.15,1.1,1.6l-5.07-.04h0Z"/><path class="b" d="M232.94,102.31c-.49,.41-.82,.9-.98,1.43-.2,.53-.29,1.35-.29,2.5v18.82c-.78-.04-1.47-.29-2.17-.74-.7-.49-1.55-1.39-2.58-2.74l-11.29-14.44v13.5c0,1.15,.08,2,.29,2.54s.53,.98,.98,1.39h-4.95c.45-.41,.78-.9,.98-1.43s.29-1.35,.29-2.5v-14.32c0-1.1-.08-1.96-.29-2.5s-.53-1.02-.98-1.43h4.42l12.93,16.65v-12.76c0-1.1-.08-1.96-.29-2.5s-.53-1.02-.98-1.43l4.91-.04h0Z"/><path class="b" d="M241.24,120.6c0,1.1,.08,1.96,.29,2.5,.2,.53,.53,1.02,.98,1.43h-5.97c.49-.41,.82-.9,.98-1.43,.2-.53,.29-1.35,.29-2.5v-14.36c0-1.1-.08-1.96-.29-2.5s-.53-1.02-.98-1.43h5.97c-.49,.41-.82,.9-.98,1.43-.2,.53-.29,1.35-.29,2.5v14.36h0Z"/><path class="b" d="M255.19,125.1c-.94-.25-1.72-.78-2.37-1.6s-1.27-2.05-1.84-3.68l-4.42-12.93c-.37-1.06-.7-1.92-1.02-2.62-.33-.65-.7-1.31-1.06-1.92h4.5c.04,.37,.04,.7,.12,1.02,.04,.33,.12,.61,.2,.9l5.32,15.87,5.03-13.21c.16-.41,.25-.82,.37-1.23,.08-.41,.12-.78,.12-1.15,0-.29-.08-.61-.25-.94-.16-.33-.45-.74-.86-1.27h4.99l-8.84,22.75h0Z"/><path class="b" d="M265.58,124.48c.45-.41,.78-.9,.98-1.43s.29-1.35,.29-2.5v-14.36c0-1.1-.08-1.96-.29-2.5s-.53-1.02-.98-1.43h11.95v3.52c-.53-.45-1.1-.74-1.76-.94s-1.39-.29-2.21-.29c-.41,0-.9,.04-1.43,.12s-1.15,.16-1.8,.33v6.26h5.36v3.23c-.25-.29-.61-.53-1.02-.65s-1.23-.2-2.37-.2h-1.96v7.94c.82,.12,1.6,.2,2.25,.29s1.27,.08,1.76,.08c1.1,0,2.17-.16,3.15-.45s1.96-.78,2.9-1.39l-1.51,4.34-13.3,.04h0Z"/><path class="b" d="M286.57,120.6c0,1.1,.08,1.96,.29,2.5,.2,.53,.53,1.02,.98,1.43h-5.97c.45-.41,.78-.9,.98-1.43s.29-1.35,.29-2.5v-14.36c0-1.1-.08-1.96-.29-2.5s-.53-1.02-.98-1.43h7.57c2.17,0,3.89,.53,5.24,1.55,1.31,1.06,2,2.41,2,4.09,0,1.23-.41,2.29-1.19,3.19-.82,.94-2.05,1.76-3.72,2.45l5.69,7.69c.33,.45,.74,.94,1.23,1.47,.45,.53,1.02,1.06,1.6,1.6l-1.68,.16h-.29c-.78,0-1.55-.2-2.33-.65-.74-.41-1.39-1.02-1.92-1.76l-6.5-9.12c1.92-.45,3.35-1.02,4.25-1.8s1.35-1.76,1.35-2.95c0-1.1-.37-2.05-1.15-2.74-.78-.7-1.76-1.06-3.03-1.06-.29,0-.61,.04-1.02,.08s-.86,.12-1.35,.2l-.04,15.87h0Z"/><path class="b" d="M301.3,123.99l-1.02-4.01c1.27,.86,2.5,1.51,3.68,1.92s2.37,.61,3.56,.61c1.51,0,2.7-.33,3.6-.98s1.35-1.51,1.35-2.54c0-.29-.04-.61-.12-.9s-.2-.57-.41-.86c-.41-.61-1.72-1.47-4.01-2.62-.57-.29-1.02-.49-1.35-.65-2.13-1.1-3.6-2.09-4.38-2.99s-1.19-2-1.19-3.27c0-1.8,.74-3.23,2.17-4.3s3.44-1.6,5.93-1.6c.74,0,1.51,.04,2.37,.16,.86,.08,1.8,.25,2.82,.45v3.72c-.9-.7-1.8-1.23-2.74-1.55-.9-.33-1.84-.53-2.86-.53-1.23,0-2.25,.29-3.03,.82s-1.15,1.27-1.15,2.13c0,.78,.29,1.47,.9,2.05,.57,.61,1.92,1.39,4.01,2.41,.12,.04,.29,.12,.53,.25,1.76,.82,3.07,1.6,3.93,2.25,.65,.49,1.15,1.15,1.51,1.88s.53,1.51,.53,2.33c0,1.92-.86,3.52-2.58,4.87-1.72,1.31-3.85,2-6.42,2-.82,0-1.72-.08-2.66-.29-.82-.08-1.88-.37-2.99-.78h0Z"/><path class="b" d="M323.76,120.6c0,1.1,.08,1.96,.29,2.5,.2,.53,.53,1.02,.98,1.43h-6.01c.49-.41,.82-.9,.98-1.43,.2-.53,.29-1.35,.29-2.5v-14.36c0-1.1-.08-1.96-.29-2.5s-.53-1.02-.98-1.43h6.05c-.49,.41-.82,.9-.98,1.43-.2,.53-.29,1.35-.29,2.5l-.04,14.36h0Z"/><path class="b" d="M200.99,139.62l-3.6,9.25h7.16l-3.56-9.25h0Zm.41-7.9l1.96,4.83,7.49,18.82c.82,2.09,1.47,4.13,3.52,5.2v.12h-7.4v-.12c1.76-.82,1.47-1.19,.49-3.76l-1.96-5.15h-9.16l-1.88,5.15c-.78,2.05-1.02,3.11,.74,3.76v.12h-6.63v-.12c2.09-1.06,2.7-3.11,3.48-5.2l9.29-23.48v-.16h.08Z"/><path class="b" d="M155.05,140.32c-2.41,0-4.42,.86-6.01,2.54-1.6,1.68-2.37,3.85-2.37,6.5s.78,4.95,2.33,6.75c1.55,1.8,3.52,2.7,5.85,2.7s4.42-.86,6.01-2.54c1.55-1.72,2.37-3.89,2.37-6.5s-.78-4.95-2.33-6.75c-1.55-1.84-3.52-2.7-5.85-2.7h0Zm-.12,20.86c-1.68,0-3.23-.29-4.7-.82s-2.74-1.31-3.8-2.33c-1.1-1.06-1.96-2.33-2.58-3.76s-.9-2.95-.9-4.54c0-1.23,.2-2.45,.57-3.64s.94-2.25,1.68-3.27c1.15-1.55,2.54-2.78,4.25-3.6,1.68-.86,3.52-1.27,5.48-1.27,1.68,0,3.27,.29,4.75,.82,1.47,.53,2.74,1.31,3.8,2.33,1.15,1.06,2,2.33,2.58,3.76,.61,1.47,.9,3.03,.9,4.7,0,1.55-.33,3.07-1.02,4.54-.65,1.47-1.64,2.78-2.82,3.93-1.1,1.02-2.33,1.8-3.72,2.33-1.35,.53-2.86,.82-4.46,.82h0Z"/><path class="b" d="M173.54,156.72c0,1.1,.08,1.96,.29,2.5s.53,1.02,1.02,1.43h-6.01c.45-.41,.78-.9,.98-1.43s.29-1.35,.29-2.5v-14.36c0-1.1-.08-1.96-.29-2.5s-.53-1.02-.98-1.43h11.99v3.52c-.53-.45-1.1-.74-1.76-.94-.65-.2-1.39-.29-2.21-.29-.45,0-.9,.04-1.47,.12-.53,.08-1.15,.16-1.8,.33v6.26h5.4v3.23c-.25-.29-.61-.53-1.02-.61-.45-.12-1.23-.2-2.37-.2h-2l-.04,6.87h0Z"/><path class="b" d="M220.75,156.72c0,1.1,.08,1.92,.29,2.5,.2,.53,.53,1.02,.98,1.43h-5.97c.45-.41,.78-.9,.98-1.43s.29-1.35,.29-2.5v-14.36c0-1.1-.08-1.96-.29-2.5s-.53-1.02-.98-1.43h7.57c2.17,0,3.89,.53,5.24,1.55,1.31,1.06,1.96,2.41,1.96,4.09,0,1.23-.41,2.29-1.19,3.23s-2.05,1.76-3.72,2.45l5.69,7.69c.33,.45,.74,.94,1.23,1.43s1.02,1.02,1.64,1.6l-1.68,.16h-.29c-.78,0-1.55-.2-2.33-.65-.78-.41-1.39-1.02-1.92-1.76l-6.5-9.12c1.92-.45,3.35-1.02,4.25-1.8,.9-.78,1.35-1.76,1.35-2.95,0-1.1-.37-2.05-1.15-2.74s-1.76-1.06-3.03-1.06c-.29,0-.61,.04-1.02,.08s-.86,.12-1.35,.2l-.04,15.87h0Z"/><path class="b" d="M241,156.72c0,1.1,.08,1.96,.29,2.5s.53,1.02,.98,1.43h-5.97c.45-.41,.78-.9,.98-1.43s.29-1.35,.29-2.5v-14.36c0-1.1-.08-1.92-.29-2.5-.2-.53-.53-1.02-.98-1.43h5.97c-.49,.41-.82,.9-.98,1.43-.2,.53-.29,1.35-.29,2.5v14.36h0Z"/><path class="b" d="M263.13,156.47l-1.6,4.13h-17.06l11.62-19.31c-.86-.2-1.68-.37-2.45-.49s-1.47-.16-2.13-.16c-.98,0-1.88,.12-2.78,.37s-1.8,.61-2.74,1.15l1.51-3.72h14.15l-11.62,19.31c1.31,.16,2.37,.25,3.27,.33,.86,.08,1.64,.08,2.29,.08,1.51,0,2.9-.16,4.13-.41,1.23-.25,2.37-.74,3.4-1.27h0Z"/><path class="b" d="M275.85,140.32c-2.45,0-4.46,.86-6.01,2.54s-2.37,3.85-2.37,6.5,.78,4.95,2.33,6.75,3.52,2.7,5.85,2.7,4.42-.86,6.01-2.54c1.55-1.72,2.37-3.89,2.37-6.5s-.78-4.95-2.33-6.75c-1.6-1.84-3.52-2.7-5.85-2.7h0Zm-.12,20.86c-1.68,0-3.23-.29-4.7-.82s-2.74-1.31-3.8-2.33c-1.1-1.06-1.96-2.33-2.58-3.76s-.9-2.95-.9-4.54c0-1.23,.2-2.45,.57-3.64s.94-2.25,1.68-3.27c1.15-1.55,2.58-2.78,4.25-3.6,1.68-.86,3.52-1.27,5.48-1.27,1.72,0,3.27,.29,4.75,.82,1.47,.53,2.74,1.31,3.8,2.33,1.15,1.06,2,2.33,2.58,3.76,.61,1.47,.9,3.03,.9,4.7,0,1.55-.33,3.07-1.02,4.54-.65,1.47-1.64,2.78-2.82,3.93-1.1,1.02-2.33,1.8-3.72,2.33-1.39,.53-2.86,.82-4.46,.82h0Z"/><path class="b" d="M310.58,138.48c-.49,.41-.82,.9-.98,1.43-.2,.53-.29,1.35-.29,2.5v18.78c-.78-.04-1.47-.29-2.17-.74-.7-.49-1.55-1.39-2.58-2.7l-11.33-14.52v13.5c0,1.15,.08,2,.29,2.54s.49,.98,.98,1.39h-4.95c.45-.41,.78-.9,.98-1.43s.29-1.35,.29-2.5v-14.36c0-1.1-.08-1.92-.29-2.5-.2-.53-.53-1.02-.98-1.43h4.42l12.93,16.65v-12.76c0-1.1-.12-1.92-.29-2.5-.2-.53-.53-1.02-.98-1.43h4.95v.08h0Z"/><path class="b" d="M318.64,150.13h6.42l-3.11-8.59-3.31,8.59h0Zm-2.99,7.49c-.08,.2-.16,.45-.2,.7s-.08,.49-.08,.74c0,.2,.08,.45,.2,.7,.16,.25,.41,.53,.74,.86h-5.15c.41-.29,.82-.7,1.15-1.23s.7-1.23,1.06-2.13l6.14-15.83c.12-.29,.2-.57,.29-.86s.08-.53,.08-.78-.04-.49-.16-.7c-.12-.2-.33-.41-.61-.65h4.99l6.95,18.61c.33,.86,.65,1.51,1.06,2.05,.37,.53,.86,1.02,1.43,1.51h-6.26l.08-.08c.57-.61,.86-1.06,.86-1.35,0-.33-.12-.82-.37-1.51-.04-.12-.04-.2-.08-.25l-1.88-5.11h-8.14l-2.09,5.32h0Z"/><path class="b" d="M345.03,102.31l5.69,9.65,3.8-6.3c.25-.37,.41-.74,.53-1.06s.16-.57,.16-.82-.08-.49-.25-.74c-.16-.25-.37-.49-.7-.78h5.15l-7.49,12.23v6.05c0,1.1,.08,1.96,.29,2.5s.53,1.02,.98,1.43h-6.01c.49-.41,.82-.9,.98-1.43,.2-.53,.29-1.35,.29-2.5v-6.14l-5.11-8.43c-.53-.78-.9-.86-1.39-1.06-.53-.2-1.43-.2-2.25-.2h-2.45v15.83c0,1.1,.08,1.96,.29,2.5,.2,.53,.53,1.02,.98,1.43h-6.01c.45-.41,.82-.9,.98-1.43,.2-.53,.29-1.35,.29-2.5v-15.83h-1.76c-1.23,0-2.21,.08-2.95,.29s-1.35,.49-1.8,.94l1.1-3.64h16.65Z"/><polygon class="b" points="102.44 86.77 102.44 111.72 99.94 111.72 110.01 138.6 118.64 138.68 118.64 163.63 35.43 163.63 35.43 138.68 44.02 138.72 54.17 111.72 51.59 111.72 51.59 86.77 102.44 86.77"/><polyline class="c" points="77.03 96.05 93.11 96.05 93.11 102.52 86.44 102.52 103.99 147.72 109.15 147.72 109.15 154.35 87.43 154.35 87.43 147.93 81.29 147.93 81.29 160.61 115.65 160.61 115.65 141.67 107.92 141.67 95.57 108.73 99.45 108.73 99.45 89.83 77.03 89.83 77.03 89.83 54.62 89.83 54.62 108.73 58.5 108.73 46.15 141.67 38.42 141.67 38.42 160.61 72.74 160.61 72.74 147.93 66.64 147.93 66.64 154.35 44.88 154.35 44.88 147.72 50.08 147.72 67.63 102.52 60.96 102.52 60.96 96.05 77.03 96.05"/><path class="c" d="M125.55,155.08c.61,.61,.94,1.35,.94,2.25s-.33,1.64-.94,2.25-1.39,.9-2.29,.9-1.68-.29-2.29-.9-.94-1.35-.94-2.25,.33-1.64,.94-2.25,1.39-.9,2.29-.9c.9-.04,1.68,.33,2.29,.9h0Zm-.45,.41c-.49-.49-1.1-.78-1.84-.78s-1.35,.25-1.84,.78c-.49,.49-.74,1.15-.74,1.88s.25,1.35,.74,1.88c.49,.49,1.1,.78,1.84,.78s1.35-.25,1.84-.78c.49-.49,.74-1.15,.74-1.88,.04-.78-.25-1.39-.74-1.88h0Zm-3.23,0h1.47c.41,0,.7,.08,.94,.25,.2,.16,.33,.41,.33,.74s-.12,.61-.33,.82c-.16,.16-.37,.25-.65,.29l1.06,1.6h-.65l-.94-1.6h-.61v1.6h-.61v-3.68h0Zm.57,1.64h.78c.29,0,.45-.04,.61-.16,.12-.08,.2-.25,.2-.45,0-.16-.08-.33-.2-.41s-.33-.12-.61-.12h-.78v1.15h0Z"/><path class="d" d="M77.03,96.13l17.84,46.23s2.29,5.6,5.97,5.6h-12.97s.65,.08,1.31-.98c.37-.61,.04-1.55,.04-1.55l-4.01-10.31h-16.36l-4.01,10.31s-.29,.94,.08,1.55c.65,1.06,1.31,.98,1.31,.98h-13.01c3.72,0,5.97-5.6,5.97-5.6l17.84-46.23m-.04,34.08h6.3l-6.26-16.2-6.26,16.2h6.22Z"/></g></svg>