<?xml version="1.0" encoding="UTF-8"?><svg id="a" xmlns="http://www.w3.org/2000/svg" viewBox="0 0 780 250"><defs><style>.b{fill:#deba61;}.c{fill:#fbfbfb;}.d{fill:#212221;}.e{fill:#c98b18;}</style></defs><rect class="c" width="780" height="250"/><g><rect class="e" x="388.25" y="57.94" width="3.49" height="134.12"/><g><g><path class="d" d="M509.61,98.12c-.63,1.33-1.51,2.44-2.63,3.34s-2.41,1.58-3.92,2.01c-1.48,.44-3.09,.68-4.79,.68h-5.07v9.11h-6.69v-30.37h12.41c1.82,0,3.45,.25,4.88,.76s2.65,1.22,3.65,2.15c.99,.93,1.76,2.03,2.3,3.32s.8,2.71,.8,4.28v.08c0,1.76-.32,3.3-.95,4.64h.01Zm-5.82-4.59c0-1.5-.49-2.65-1.46-3.43s-2.3-1.17-3.97-1.17h-5.16v9.29h5.3c1.68,0,2.98-.44,3.92-1.32s1.39-1.98,1.39-3.27v-.08h-.01v-.02Z"/><path class="d" d="M555.66,113.26l-6.51-9.71h-5.25v9.71h-6.69v-30.38h13.89c3.62,0,6.43,.88,8.44,2.65s3.02,4.22,3.02,7.38v.08c0,2.47-.59,4.47-1.8,6.01s-2.76,2.69-4.71,3.4l7.42,10.85h-7.81v.02h0Zm.12-20.02c0-1.45-.46-2.53-1.39-3.26s-2.21-1.09-3.86-1.09h-6.64v8.72h6.76c1.65,0,2.91-.39,3.79-1.17s1.32-1.82,1.32-3.13v-.07h.02Z"/><path class="d" d="M590.59,113.26v-30.38h6.69v30.37h-6.69Z"/><path class="d" d="M647.87,113.26l-14.71-19.31v19.31h-6.6v-30.38h6.16l14.23,18.7v-18.7h6.6v30.37h-5.68Z"/><path class="d" d="M696.31,89.05v24.21h-6.69v-24.21h-9.25v-6.16h25.18v6.16h-9.24Z"/></g><g><path class="d" d="M474.17,151.81c-.63,1.33-1.51,2.44-2.63,3.34s-2.41,1.58-3.9,2.01c-1.48,.44-3.09,.68-4.8,.68h-5.07v9.11h-6.69v-30.37h12.41c1.82,0,3.45,.25,4.88,.76s2.65,1.22,3.65,2.15c.99,.93,1.77,2.03,2.3,3.32,.54,1.29,.8,2.72,.8,4.28v.08c0,1.76-.32,3.3-.95,4.64h0Zm-5.82-4.59c0-1.5-.49-2.65-1.46-3.43-.96-.78-2.3-1.17-3.97-1.17h-5.16v9.29h5.3c1.68,0,2.98-.44,3.92-1.32s1.39-1.98,1.39-3.27v-.08h-.01v-.02Z"/><path class="d" d="M531.5,157.87c-.81,1.89-1.93,3.56-3.37,4.99-1.44,1.43-3.14,2.56-5.12,3.39-1.99,.83-4.15,1.23-6.49,1.23s-4.5-.41-6.47-1.23c-1.97-.83-3.66-1.94-5.1-3.34-1.43-1.41-2.55-3.05-3.34-4.94s-1.2-3.93-1.2-6.1v-.08c0-2.17,.41-4.2,1.22-6.1,.81-1.89,1.93-3.56,3.37-4.98,1.43-1.43,3.14-2.56,5.12-3.39,1.99-.83,4.15-1.24,6.49-1.24s4.5,.41,6.47,1.24,3.66,1.94,5.1,3.34,2.54,3.05,3.34,4.94c.79,1.89,1.2,3.93,1.2,6.1v.08c0,2.16-.4,4.19-1.22,6.1h0Zm-5.77-6.12c0-1.3-.22-2.53-.68-3.68-.44-1.15-1.09-2.17-1.9-3.04s-1.8-1.56-2.93-2.06c-1.12-.51-2.36-.76-3.68-.76s-2.6,.24-3.7,.73c-1.11,.49-2.07,1.17-2.87,2.04s-1.42,1.87-1.86,3.02-.68,2.37-.68,3.66v.08c0,1.3,.22,2.53,.68,3.68,.44,1.15,1.09,2.17,1.9,3.04s1.79,1.56,2.9,2.06,2.35,.76,3.71,.76,2.56-.24,3.68-.73,2.1-1.17,2.89-2.04,1.42-1.87,1.86-3.02,.68-2.37,.68-3.66v-.08h0Z"/><path class="d" d="M578.81,166.96l-6.51-9.71h-5.25v9.71h-6.69v-30.37h13.89c3.62,0,6.43,.88,8.43,2.65,2.01,1.77,3.02,4.22,3.02,7.38v.06c0,2.47-.59,4.47-1.8,6.01-1.21,1.55-2.76,2.69-4.71,3.4l7.42,10.85h-7.81v.03h.01Zm.14-19.96c0-1.45-.46-2.53-1.39-3.26s-2.21-1.09-3.86-1.09h-6.64v8.72h6.76c1.65,0,2.91-.39,3.8-1.17,.88-.78,1.32-1.82,1.32-3.13v-.07h.01Z"/><path class="d" d="M627.2,142.74v24.21h-6.69v-24.21h-9.24v-6.16h25.18v6.16h-9.25Z"/><path class="d" d="M685.87,166.96l-2.77-6.82h-12.85l-2.77,6.82h-6.82l13.03-30.6h6.16l13.03,30.6h-7.01Zm-9.2-22.57l-4.04,9.85h8.07l-4.04-9.85h0Z"/><path class="d" d="M719.25,166.96v-30.37h6.69v24.34h15.14v6.03h-21.83Z"/></g></g><g><g><path class="b" d="M113.12,141.84v7.78h25.86c-8.52,14.82-24.47,24.89-42.74,24.89-27.3,0-49.55-22.25-49.55-49.47,0-5.91,1.09-11.58,3.03-16.87h14.14v49.22h15.56v-31.84c0-9.6,7.78-17.38,17.38-17.38h10.1l-12.05-15.56H58.9c9.02-10.51,22.4-17.12,37.34-17.12,9.91,0,19.12,2.99,26.86,8.06h12.45c-12.54-11.93-30.34-18.34-49.58-14.93-23.03,4.08-41.66,22.42-46.01,45.4-6.86,36.28,21.09,68.26,56.28,68.26,25.65,0,47.44-17.09,54.61-40.44h-37.73Z"/><path class="b" d="M133.36,92.61h-29.43l11.82,15.55h16.94c2.51,0,4.55,2.04,4.55,4.55s-2.04,4.55-4.55,4.55h-33.2c-6.09,0-11.02,4.94-11.02,11.02v29.11h15.56v-24.58h29.33c11.11,0,20.11-9,20.11-20.11s-9-20.11-20.11-20.11h0Z"/></g><g><g><path class="d" d="M172.97,82.95h-5.08v-4.3h15.04v4.3h-5.08v20.36h-4.87v-20.36h0Z"/><path class="d" d="M189.12,78.65h4.87v10h5.22v-10h4.87v24.65h-4.87v-10.36h-5.22v10.36h-4.87v-24.65Z"/><path class="d" d="M211.4,78.65h13.27v4.3h-8.39v5.7h6.69v4.3h-6.69v6.06h8.39v4.3h-13.27v-24.65Z"/><path class="d" d="M231.15,78.65h7.21c4.87,0,7.21,2.01,7.21,6.27v.95c0,2.61-1.01,4.23-3.17,5.07v.11c2.23,.6,3.21,2.43,3.21,5.95v2.89c0,1.38,.07,2.36,.56,3.42h-4.98c-.28-.67-.42-1.02-.42-3.45v-3.21c0-2.36-.8-3.21-3.06-3.21h-1.67v9.86h-4.87v-24.65h0Zm6.65,10.5c2.02,0,2.89-.85,2.89-2.75v-.95c0-1.73-.73-2.5-2.37-2.5h-2.3v6.2h1.78Z"/><path class="d" d="M262.49,98.83h-5.47l-.8,4.47h-4.63l5.05-24.65h6.58l5.05,24.65h-4.98l-.8-4.47h-.01Zm-.77-4.23l-1.99-11.02-1.95,11.02h3.93Z"/><path class="d" d="M274.36,78.65h7.17c4.91,0,7.24,2.19,7.24,6.8v1.48c0,4.65-2.33,6.83-7.24,6.83h-2.3v9.55h-4.87v-24.65Zm7.17,10.81c1.67,0,2.37-.74,2.37-2.54v-1.48c0-1.76-.7-2.5-2.37-2.5h-2.3v6.52h2.3Z"/><path class="d" d="M299.29,93.12l-5.89-14.48h5.26l3.28,8.77,3.31-8.77h4.81l-5.89,14.48v10.18h-4.87v-10.18Z"/><path class="d" d="M168.99,114.66h7.17c4.91,0,7.24,2.19,7.24,6.8v1.48c0,4.65-2.33,6.83-7.24,6.83h-2.3v9.55h-4.87v-24.65h0Zm7.17,10.81c1.67,0,2.37-.74,2.37-2.54v-1.48c0-1.76-.7-2.5-2.37-2.5h-2.3v6.52h2.3Z"/><path class="d" d="M198,134.85h-5.47l-.8,4.47h-4.63l5.05-24.65h6.58l5.05,24.65h-4.98l-.8-4.47h-.01Zm-.77-4.23l-1.99-11.02-1.95,11.02h3.93Z"/><path class="d" d="M209.87,114.66h7.21c4.87,0,7.21,2.01,7.21,6.27v.95c0,2.61-1.01,4.23-3.17,5.07v.11c2.23,.6,3.21,2.43,3.21,5.95v2.89c0,1.38,.07,2.36,.56,3.42h-4.98c-.28-.67-.42-1.02-.42-3.45v-3.21c0-2.36-.8-3.21-3.06-3.21h-1.67v9.86h-4.87v-24.65h0Zm6.65,10.5c2.02,0,2.89-.85,2.89-2.75v-.95c0-1.73-.73-2.5-2.37-2.5h-2.3v6.2h1.78Z"/><path class="d" d="M235.22,118.96h-5.08v-4.3h15.04v4.3h-5.08v20.36h-4.87v-20.36h0Z"/><path class="d" d="M251.38,114.66h6.02l4.87,14.27v-14.27h4.35v24.65h-4.91l-5.99-17.54v17.54h-4.35v-24.65h0Z"/><path class="d" d="M273.94,114.66h13.27v4.3h-8.39v5.7h6.69v4.3h-6.69v6.06h8.39v4.3h-13.27v-24.65h0Z"/><path class="d" d="M293.68,114.66h7.21c4.87,0,7.21,2.01,7.21,6.27v.95c0,2.61-1.01,4.23-3.17,5.07v.11c2.23,.6,3.21,2.43,3.21,5.95v2.89c0,1.38,.07,2.36,.56,3.42h-4.98c-.28-.67-.42-1.02-.42-3.45v-3.21c0-2.36-.8-3.21-3.06-3.21h-1.67v9.86h-4.87v-24.65h0Zm6.65,10.5c2.02,0,2.89-.85,2.89-2.75v-.95c0-1.73-.73-2.5-2.37-2.5h-2.3v6.2h1.78Z"/><path class="d" d="M314.4,132.91v-1.09h4.6v1.09c0,1.52,.77,2.61,2.51,2.61,1.53,0,2.54-.95,2.54-2.61,0-2.12-.84-2.64-4.14-4.26-4.18-2.05-5.4-4.15-5.4-7.61,0-4.01,2.51-6.73,7.21-6.73s7.04,2.71,7.04,6.8v.71h-4.6v-.67c0-1.55-.7-2.68-2.4-2.68-1.49,0-2.37,.99-2.37,2.5,0,1.9,.94,2.47,4.21,4.05,4.28,2.08,5.33,4.26,5.33,7.79,0,4.15-2.58,6.87-7.35,6.87s-7.17-2.71-7.17-6.76h0Z"/></g><g><path class="d" d="M168.55,165.46v-8.96c0-3.35,1.89-5.27,5.26-5.27s5.31,1.92,5.31,5.27v.94h-2.03v-1.08c0-2.13-1.15-3.21-3.2-3.21s-3.18,1.08-3.18,3.21v9.18c0,2.13,1.12,3.21,3.18,3.21s3.2-1.08,3.2-3.21v-3.43h-2.96v-2h4.99v5.35c0,3.32-1.89,5.21-5.26,5.21s-5.31-1.89-5.31-5.21h0Z"/><path class="d" d="M187.6,151.5h5.05c3.58,0,5.28,1.51,5.28,4.67v.49c0,2.4-.88,3.76-2.91,4.3v.03c2.03,.43,2.91,1.78,2.91,4.46v2.37c0,.92,.05,1.86,.35,2.59h-2.19c-.19-.62-.29-1.21-.29-2.62v-2.48c0-2.35-.96-3.24-3.5-3.24h-2.54v8.34h-2.16v-18.9h0Zm4.65,8.63c2.46,0,3.52-.97,3.52-3.13v-.49c0-2.19-.93-3.1-3.15-3.1h-2.85v6.72h2.48Z"/><path class="d" d="M206.31,165.41v-8.91c0-3.4,1.89-5.27,5.34-5.27s5.34,1.86,5.34,5.27v8.91c0,3.4-1.89,5.27-5.34,5.27s-5.34-1.86-5.34-5.27Zm8.54,.13v-9.18c0-2.13-1.15-3.21-3.2-3.21s-3.17,1.08-3.17,3.21v9.18c0,2.13,1.12,3.21,3.17,3.21s3.2-1.08,3.2-3.21Z"/><path class="d" d="M225.44,165.41v-13.91h2.16v14.04c0,2.16,1.1,3.21,3.15,3.21s3.12-1.05,3.12-3.21v-14.04h2.08v13.91c0,3.35-1.84,5.27-5.26,5.27s-5.26-1.94-5.26-5.27h-.01Z"/><path class="d" d="M244.68,151.5h5.02c3.63,0,5.34,1.62,5.34,5.02v.78c0,3.4-1.71,5.02-5.34,5.02h-2.85v8.07h-2.16v-18.9h0Zm5.02,8.9c2.24,0,3.17-.86,3.17-3.1v-.78c0-2.21-.93-3.1-3.17-3.1h-2.85v6.99h2.85Z"/></g></g></g></g></svg>