<?xml version="1.0" encoding="UTF-8"?><svg id="a" xmlns="http://www.w3.org/2000/svg" xmlns:xlink="http://www.w3.org/1999/xlink" viewBox="0 0 868.12 70.88"><defs><style>.e{fill:#deba61;}.f{fill:#212221;}.g{fill:#c98b18;}.h{fill:url(#d);}</style><linearGradient id="d" x1="1188.92" y1="-1118.26" x2="1259.85" y2="-1118.26" gradientTransform="translate(-684.2 -1188.92) rotate(90)" gradientUnits="userSpaceOnUse"><stop offset="0" stop-color="#fff" stop-opacity="0"/><stop offset=".14" stop-color="#fff" stop-opacity="0"/><stop offset=".27" stop-color="#fff" stop-opacity=".06"/><stop offset=".39" stop-color="#fff" stop-opacity=".13"/><stop offset=".51" stop-color="#fff" stop-opacity=".23"/><stop offset=".63" stop-color="#fff" stop-opacity=".36"/><stop offset=".74" stop-color="#fff" stop-opacity=".52"/><stop offset=".86" stop-color="#fff" stop-opacity=".71"/><stop offset=".96" stop-color="#fff" stop-opacity=".92"/><stop offset="1" stop-color="#fff"/></linearGradient></defs><g id="b"><g id="c"><polygon class="h" points="0 70.93 0 0 868.12 0 868.12 70.93 0 70.93"/></g></g><g><path class="f" d="M131.38,35.4c-.12,.24-.27,.44-.47,.6s-.44,.28-.7,.36c-.27,.08-.55,.12-.86,.12h-.91v1.64h-1.2v-5.45h2.22c.33,0,.62,.04,.87,.13,.26,.09,.48,.22,.65,.39s.32,.36,.41,.6,.14,.49,.14,.76v.02c0,.33-.07,.6-.18,.84h.03Zm-1.04-.85c0-.27-.08-.48-.26-.61-.18-.14-.41-.21-.71-.21h-.92v1.66h.95c.3,0,.54-.08,.7-.24s.25-.35,.25-.59v-.02h0Z"/><path class="f" d="M143.06,38.12l-1.17-1.75h-.94v1.75h-1.2v-5.45h2.49c.65,0,1.15,.16,1.51,.48s.54,.76,.54,1.33v.02c0,.44-.11,.8-.32,1.07-.22,.28-.5,.48-.85,.61l1.33,1.95h-1.39Zm.02-3.62c0-.26-.08-.45-.25-.58s-.39-.19-.69-.19h-1.19v1.56h1.22c.29,0,.52-.07,.68-.21s.24-.33,.24-.56v-.02h0Z"/><path class="f" d="M152.74,38.12v-5.45h1.2v5.45h-1.2Z"/><path class="f" d="M166.43,38.12l-2.64-3.46v3.46h-1.18v-5.45h1.11l2.55,3.35v-3.35h1.18v5.45h-1.02Z"/><path class="f" d="M178.53,33.78v4.34h-1.2v-4.34h-1.65v-1.11h4.52v1.11h-1.67Z"/><path class="f" d="M202.2,35.4c-.12,.24-.27,.44-.47,.6s-.44,.28-.7,.36-.55,.12-.86,.12h-.91v1.64h-1.2v-5.45h2.22c.33,0,.62,.04,.87,.13,.26,.09,.48,.22,.65,.39,.18,.17,.32,.36,.41,.6s.14,.49,.14,.76v.02c0,.33-.06,.6-.18,.84h.03Zm-1.04-.85c0-.27-.08-.48-.26-.61-.18-.14-.41-.21-.71-.21h-.92v1.66h.95c.3,0,.54-.08,.7-.24,.17-.16,.25-.35,.25-.59v-.02h-.01Z"/><path class="f" d="M215.9,36.49c-.14,.34-.34,.64-.6,.9s-.56,.46-.92,.6c-.35,.15-.74,.22-1.16,.22s-.81-.08-1.16-.22c-.35-.15-.65-.34-.92-.6s-.45-.55-.6-.89-.21-.71-.21-1.09v-.02c0-.39,.08-.76,.22-1.09,.14-.34,.34-.64,.6-.9s.56-.46,.92-.6c.35-.15,.74-.22,1.17-.22s.81,.08,1.16,.22c.35,.15,.65,.34,.92,.6s.45,.55,.6,.89c.14,.34,.21,.71,.21,1.09v.02c0,.39-.08,.75-.23,1.09Zm-1.03-1.1c0-.24-.04-.45-.12-.66s-.19-.39-.34-.55-.32-.28-.53-.37-.42-.13-.66-.13-.46,.04-.66,.13-.37,.21-.51,.37-.25,.34-.34,.54-.12,.42-.12,.65v.02c0,.24,.04,.45,.12,.66s.19,.39,.34,.55c.15,.15,.32,.28,.52,.37,.2,.09,.42,.13,.66,.13s.46-.04,.66-.13c.2-.08,.38-.21,.52-.37s.25-.34,.34-.54,.12-.43,.12-.65v-.02h0Z"/><path class="f" d="M227.81,38.12l-1.17-1.75h-.94v1.75h-1.2v-5.45h2.49c.65,0,1.15,.16,1.51,.48,.36,.32,.54,.76,.54,1.33v.02c0,.44-.11,.8-.32,1.07-.22,.28-.5,.48-.84,.61l1.33,1.95h-1.4Zm.03-3.62c0-.26-.08-.45-.25-.58s-.39-.19-.7-.19h-1.19v1.56h1.22c.29,0,.52-.07,.68-.21s.24-.33,.24-.56v-.02h0Z"/><path class="f" d="M239.9,33.78v4.34h-1.2v-4.34h-1.65v-1.11h4.52v1.11h-1.67Z"/><path class="f" d="M253.85,38.12l-.5-1.23h-2.3l-.5,1.23h-1.23l2.33-5.48h1.11l2.33,5.48h-1.24Zm-1.65-4.05l-.72,1.76h1.44l-.72-1.76Z"/><path class="f" d="M263.25,38.12v-5.45h1.2v4.37h2.71v1.08h-3.91Z"/></g><rect class="g" x="115.11" y="16.73" width=".93" height="37.41"/><g><g><path class="e" d="M34.15,40.93v2.54h8.45c-2.78,4.84-7.99,8.13-13.96,8.13-8.92,0-16.18-7.27-16.18-16.16,0-1.93,.36-3.78,.99-5.51h4.62v16.07h5.08v-10.4c0-3.14,2.54-5.67,5.67-5.67h3.3l-3.94-5.08h-11.74c2.95-3.43,7.32-5.59,12.2-5.59,3.24,0,6.24,.98,8.77,2.63h4.07c-4.09-3.9-9.91-5.99-16.19-4.87-7.52,1.33-13.61,7.32-15.03,14.83-2.24,11.85,6.89,22.29,18.38,22.29,8.38,0,15.49-5.58,17.83-13.21h-12.32Z"/><path class="e" d="M40.76,24.85h-9.61l3.86,5.08h5.53c.82,0,1.49,.67,1.49,1.49s-.67,1.49-1.49,1.49h-10.84c-1.99,0-3.6,1.61-3.6,3.6v9.51h5.08v-8.03h9.58c3.63,0,6.57-2.94,6.57-6.57s-2.94-6.57-6.57-6.57h0Z"/></g><g><g><path class="f" d="M53.7,21.7h-1.66v-1.4h4.91v1.4h-1.66v6.65h-1.59v-6.65h0Z"/><path class="f" d="M58.97,20.3h1.59v3.27h1.71v-3.27h1.59v8.05h-1.59v-3.38h-1.71v3.38h-1.59v-8.05Z"/><path class="f" d="M66.25,20.3h4.33v1.4h-2.74v1.86h2.18v1.4h-2.18v1.98h2.74v1.4h-4.33v-8.05Z"/><path class="f" d="M72.7,20.3h2.35c1.59,0,2.35,.66,2.35,2.05v.31c0,.85-.33,1.38-1.03,1.66v.04c.73,.2,1.05,.79,1.05,1.94v.94c0,.45,.02,.77,.18,1.12h-1.63c-.09-.22-.14-.33-.14-1.13v-1.05c0-.77-.26-1.05-1-1.05h-.55v3.22h-1.59v-8.05h0Zm2.17,3.43c.66,0,.94-.28,.94-.9v-.31c0-.56-.24-.82-.77-.82h-.75v2.02h.58Z"/><path class="f" d="M82.94,26.89h-1.79l-.26,1.46h-1.51l1.65-8.05h2.15l1.65,8.05h-1.63l-.26-1.46h0Zm-.25-1.38l-.65-3.6-.64,3.6h1.28Z"/><path class="f" d="M86.81,20.3h2.34c1.6,0,2.37,.71,2.37,2.22v.48c0,1.52-.76,2.23-2.37,2.23h-.75v3.12h-1.59v-8.05Zm2.34,3.53c.55,0,.77-.24,.77-.83v-.48c0-.57-.23-.82-.77-.82h-.75v2.13h.75Z"/><path class="f" d="M94.95,25.02l-1.92-4.73h1.72l1.07,2.86,1.08-2.86h1.57l-1.92,4.73v3.33h-1.59v-3.33Z"/><path class="f" d="M52.4,32.06h2.34c1.6,0,2.37,.71,2.37,2.22v.48c0,1.52-.76,2.23-2.37,2.23h-.75v3.12h-1.59v-8.05h0Zm2.34,3.53c.55,0,.77-.24,.77-.83v-.48c0-.57-.23-.82-.77-.82h-.75v2.13h.75Z"/><path class="f" d="M61.87,38.65h-1.79l-.26,1.46h-1.51l1.65-8.05h2.15l1.65,8.05h-1.63l-.26-1.46h0Zm-.25-1.38l-.65-3.6-.64,3.6h1.28Z"/><path class="f" d="M65.75,32.06h2.35c1.59,0,2.35,.66,2.35,2.05v.31c0,.85-.33,1.38-1.03,1.66v.04c.73,.2,1.05,.79,1.05,1.94v.94c0,.45,.02,.77,.18,1.12h-1.63c-.09-.22-.14-.33-.14-1.13v-1.05c0-.77-.26-1.05-1-1.05h-.55v3.22h-1.59v-8.05h0Zm2.17,3.43c.66,0,.94-.28,.94-.9v-.31c0-.56-.24-.82-.77-.82h-.75v2.02h.58Z"/><path class="f" d="M74.03,33.46h-1.66v-1.4h4.91v1.4h-1.66v6.65h-1.59v-6.65h0Z"/><path class="f" d="M79.31,32.06h1.97l1.59,4.66v-4.66h1.42v8.05h-1.6l-1.96-5.73v5.73h-1.42v-8.05h0Z"/><path class="f" d="M86.68,32.06h4.33v1.4h-2.74v1.86h2.18v1.4h-2.18v1.98h2.74v1.4h-4.33v-8.05h0Z"/><path class="f" d="M93.12,32.06h2.35c1.59,0,2.35,.66,2.35,2.05v.31c0,.85-.33,1.38-1.03,1.66v.04c.73,.2,1.05,.79,1.05,1.94v.94c0,.45,.02,.77,.18,1.12h-1.63c-.09-.22-.14-.33-.14-1.13v-1.05c0-.77-.26-1.05-1-1.05h-.55v3.22h-1.59v-8.05h0Zm2.17,3.43c.66,0,.94-.28,.94-.9v-.31c0-.56-.24-.82-.77-.82h-.75v2.02h.58Z"/><path class="f" d="M99.89,38.02v-.36h1.5v.36c0,.5,.25,.85,.82,.85,.5,0,.83-.31,.83-.85,0-.69-.27-.86-1.35-1.39-1.36-.67-1.76-1.36-1.76-2.48,0-1.31,.82-2.2,2.35-2.2s2.3,.89,2.3,2.22v.23h-1.5v-.22c0-.51-.23-.87-.78-.87-.49,0-.77,.32-.77,.82,0,.62,.31,.81,1.38,1.32,1.4,.68,1.74,1.39,1.74,2.54,0,1.36-.84,2.24-2.4,2.24s-2.34-.89-2.34-2.21h0Z"/></g><g><path class="f" d="M52.25,48.65v-2.93c0-1.09,.62-1.72,1.72-1.72s1.73,.63,1.73,1.72v.31h-.66v-.35c0-.7-.38-1.05-1.05-1.05s-1.04,.35-1.04,1.05v3c0,.7,.37,1.05,1.04,1.05s1.05-.35,1.05-1.05v-1.12h-.97v-.65h1.63v1.75c0,1.08-.62,1.7-1.72,1.7s-1.73-.62-1.73-1.7h0Z"/><path class="f" d="M58.48,44.09h1.65c1.17,0,1.73,.49,1.73,1.53v.16c0,.78-.29,1.23-.95,1.4h0c.66,.15,.95,.59,.95,1.46v.78c0,.3,.02,.61,.11,.85h-.72c-.06-.2-.1-.4-.1-.85v-.81c0-.77-.31-1.06-1.14-1.06h-.83v2.72h-.71v-6.17h0Zm1.52,2.82c.8,0,1.15-.32,1.15-1.02v-.16c0-.71-.3-1.01-1.03-1.01h-.93v2.2h.81Z"/><path class="f" d="M64.59,48.63v-2.91c0-1.11,.62-1.72,1.74-1.72s1.74,.61,1.74,1.72v2.91c0,1.11-.62,1.72-1.74,1.72s-1.74-.61-1.74-1.72Zm2.79,.04v-3c0-.7-.38-1.05-1.05-1.05s-1.04,.35-1.04,1.05v3c0,.7,.37,1.05,1.04,1.05s1.05-.35,1.05-1.05Z"/><path class="f" d="M70.84,48.63v-4.54h.71v4.59c0,.7,.36,1.05,1.03,1.05s1.02-.34,1.02-1.05v-4.59h.68v4.54c0,1.09-.6,1.72-1.72,1.72s-1.72-.63-1.72-1.72h0Z"/><path class="f" d="M77.12,44.09h1.64c1.19,0,1.74,.53,1.74,1.64v.26c0,1.11-.56,1.64-1.74,1.64h-.93v2.64h-.71v-6.17h0Zm1.64,2.91c.73,0,1.04-.28,1.04-1.01v-.26c0-.72-.3-1.01-1.04-1.01h-.93v2.28h.93Z"/></g></g></g></svg>