<?xml version="1.0" encoding="UTF-8"?><svg id="a" xmlns="http://www.w3.org/2000/svg" xmlns:xlink="http://www.w3.org/1999/xlink" viewBox="0 0 868.12 70.88"><defs><style>.f{fill:#fff;}.g{fill:#836f2a;}.h{fill:#009f53;}.i{fill:url(#d);}.j{fill:url(#e);}.k,.l{fill:#ed1c24;}.l{stroke:#fff;stroke-width:.44px;}.m{fill:#231f20;}</style><linearGradient id="d" x1="1997.92" y1="-309.26" x2="2068.85" y2="-309.26" gradientTransform="translate(124.8 -1997.92) rotate(90)" gradientUnits="userSpaceOnUse"><stop offset="0" stop-color="#fff" stop-opacity="0"/><stop offset=".14" stop-color="#fff" stop-opacity="0"/><stop offset=".27" stop-color="#fff" stop-opacity=".06"/><stop offset=".39" stop-color="#fff" stop-opacity=".13"/><stop offset=".51" stop-color="#fff" stop-opacity=".23"/><stop offset=".63" stop-color="#fff" stop-opacity=".36"/><stop offset=".74" stop-color="#fff" stop-opacity=".52"/><stop offset=".86" stop-color="#fff" stop-opacity=".71"/><stop offset=".96" stop-color="#fff" stop-opacity=".92"/><stop offset="1" stop-color="#fff"/></linearGradient><linearGradient id="e" x1="62.85" y1="-908.53" x2="62.85" y2="-931.78" gradientTransform="translate(10 950)" gradientUnits="userSpaceOnUse"><stop offset="0" stop-color="#fff"/><stop offset=".08" stop-color="#fff"/><stop offset=".87" stop-color="#f5b721"/><stop offset="1" stop-color="#f5b721"/></linearGradient></defs><g id="b"><g id="c"><polygon class="i" points="0 70.93 0 0 868.12 0 868.12 70.93 0 70.93"/></g></g><g><path class="k" d="M170.58,35.4c-.12,.24-.27,.44-.47,.6s-.44,.28-.7,.36c-.27,.08-.55,.12-.86,.12h-.91v1.64h-1.2v-5.45h2.22c.33,0,.62,.04,.87,.13,.26,.09,.48,.22,.65,.39s.32,.36,.41,.6,.14,.49,.14,.76v.02c0,.33-.07,.6-.18,.84h.03Zm-1.04-.85c0-.27-.08-.48-.26-.61-.18-.14-.41-.21-.71-.21h-.92v1.66h.95c.3,0,.54-.08,.7-.24s.25-.35,.25-.59v-.02h0Z"/><path class="k" d="M182.26,38.12l-1.17-1.75h-.94v1.75h-1.2v-5.45h2.49c.65,0,1.15,.16,1.51,.48s.54,.76,.54,1.33v.02c0,.44-.11,.8-.32,1.07-.22,.28-.5,.48-.85,.61l1.33,1.95h-1.39Zm.02-3.62c0-.26-.08-.45-.25-.58s-.39-.19-.69-.19h-1.19v1.56h1.22c.29,0,.52-.07,.68-.21s.24-.33,.24-.56v-.02h0Z"/><path class="k" d="M191.94,38.12v-5.45h1.2v5.45h-1.2Z"/><path class="k" d="M205.63,38.12l-2.64-3.46v3.46h-1.18v-5.45h1.11l2.55,3.35v-3.35h1.18v5.45h-1.02Z"/><path class="k" d="M217.73,33.78v4.34h-1.2v-4.34h-1.65v-1.11h4.52v1.11h-1.67Z"/><path class="k" d="M241.4,35.4c-.12,.24-.27,.44-.47,.6s-.44,.28-.7,.36-.55,.12-.86,.12h-.91v1.64h-1.2v-5.45h2.22c.33,0,.62,.04,.87,.13,.26,.09,.48,.22,.65,.39,.18,.17,.32,.36,.41,.6s.14,.49,.14,.76v.02c0,.33-.06,.6-.18,.84h.03Zm-1.04-.85c0-.27-.08-.48-.26-.61-.18-.14-.41-.21-.71-.21h-.92v1.66h.95c.3,0,.54-.08,.7-.24,.17-.16,.25-.35,.25-.59v-.02h-.01Z"/><path class="k" d="M255.1,36.49c-.14,.34-.34,.64-.6,.9s-.56,.46-.92,.6c-.35,.15-.74,.22-1.16,.22s-.81-.08-1.16-.22c-.35-.15-.65-.34-.92-.6s-.45-.55-.6-.89-.21-.71-.21-1.09v-.02c0-.39,.08-.76,.22-1.09,.14-.34,.34-.64,.6-.9s.56-.46,.92-.6c.35-.15,.74-.22,1.17-.22s.81,.08,1.16,.22c.35,.15,.65,.34,.92,.6s.45,.55,.6,.89c.14,.34,.21,.71,.21,1.09v.02c0,.39-.08,.75-.23,1.09Zm-1.03-1.1c0-.24-.04-.45-.12-.66s-.19-.39-.34-.55-.32-.28-.53-.37-.42-.13-.66-.13-.46,.04-.66,.13-.37,.21-.51,.37-.25,.34-.34,.54-.12,.42-.12,.65v.02c0,.24,.04,.45,.12,.66s.19,.39,.34,.55c.15,.15,.32,.28,.52,.37,.2,.09,.42,.13,.66,.13s.46-.04,.66-.13c.2-.08,.38-.21,.52-.37s.25-.34,.34-.54,.12-.43,.12-.65v-.02h0Z"/><path class="k" d="M267.01,38.12l-1.17-1.75h-.94v1.75h-1.2v-5.45h2.49c.65,0,1.15,.16,1.51,.48,.36,.32,.54,.76,.54,1.33v.02c0,.44-.11,.8-.32,1.07-.22,.28-.5,.48-.84,.61l1.33,1.95h-1.4Zm.03-3.62c0-.26-.08-.45-.25-.58s-.39-.19-.7-.19h-1.19v1.56h1.22c.29,0,.52-.07,.68-.21s.24-.33,.24-.56v-.02h0Z"/><path class="k" d="M279.1,33.78v4.34h-1.2v-4.34h-1.65v-1.11h4.52v1.11h-1.67Z"/><path class="k" d="M293.05,38.12l-.5-1.23h-2.3l-.5,1.23h-1.23l2.33-5.48h1.11l2.33,5.48h-1.24Zm-1.65-4.05l-.72,1.76h1.44l-.72-1.76Z"/><path class="k" d="M302.45,38.12v-5.45h1.2v4.37h2.71v1.08h-3.91Z"/></g><rect class="m" x="154.31" y="16.73" width=".93" height="37.41"/><g><g><g><path class="m" d="M49.54,45.6c.85,0,1.94,.04,2.62,.72,.37,.38,.47,.92,.47,1.77,0,.97-.03,1.53-.82,2.01-.26,.15-.73,.45-2.09,.45-.46,0-1.26-.02-1.75-.19-1.28-.45-1.35-1.23-1.35-2.38,0-.89,0-2.39,2.92-2.39Zm-.88,2.83c0,.17,.04,.61,.1,.76,.16,.43,.73,.43,.88,.43,.96,0,.96-.42,.96-1.7,0-.74,0-1.37-.95-1.37s-.99,.58-.99,.95v.93Z"/><path class="m" d="M53.41,45.74h1.12v-.71c0-.27,0-.71,.86-.98,.52-.16,1.24-.19,1.58-.19,.29,0,.66,0,.99,.04v.93c-1.12,0-1.42,0-1.42,.43v.48h1.42v.95h-1.42v3.79h-2.01v-3.77h-1.12v-.97Z"/><path class="m" d="M68.13,43.91v1.2h-2.63v5.37h-2.42v-5.37h-2.69v-1.2h7.73Z"/><path class="m" d="M73.78,45.74v4.74h-1.84v-.8h-.09c-.43,.45-.98,.92-2.2,.92-1.81,0-1.88-.93-1.88-1.26v-3.59h2.01v3.08c0,.32,.11,.66,.69,.66,.23,0,.55-.09,.65-.13,.36-.13,.53-.28,.65-.37v-3.25h2.01Z"/><path class="m" d="M78.59,47.14c-.03-.25-.1-.54-.82-.54-.95,0-.95,.56-.95,.83v1.39c0,.59,.2,.8,.98,.8,.68,0,.85-.3,.85-.68h1.73c-.03,.48-.07,1.65-2.63,1.65-.4,0-1.37,0-2.06-.39-.67-.38-.89-.95-.89-1.51v-1.12c0-1.11,.7-1.97,2.76-1.97,.48,0,1.51,0,2.17,.52,.48,.36,.48,.73,.49,1.01h-1.62Z"/><path class="m" d="M85.24,46.87c-.68-.29-1.01-.38-1.48-.38s-.78,.13-.78,.37c0,.26,.43,.38,1.02,.55,1.08,.3,2.33,.68,2.33,1.69,0,1.21-1.74,1.51-2.59,1.51-1.38,0-2.16-.38-2.56-.59l.91-.86c.39,.25,.85,.54,1.61,.54,.6,0,.79-.25,.79-.42,0-.27-.3-.35-.91-.53-1.67-.48-2.39-.92-2.39-1.66,0-.47,.32-.95,1.08-1.23,.62-.23,1.14-.23,1.54-.23,.96,0,1.88,.27,2.29,.48l-.86,.78Z"/><path class="m" d="M90.1,45.6c.85,0,1.94,.04,2.62,.72,.37,.38,.47,.92,.47,1.77,0,.97-.03,1.53-.82,2.01-.26,.15-.73,.45-2.08,.45-.46,0-1.27-.02-1.76-.19-1.28-.45-1.35-1.23-1.35-2.38,0-.89,0-2.39,2.92-2.39Zm-.88,2.83c0,.17,.04,.61,.1,.76,.16,.43,.73,.43,.88,.43,.96,0,.96-.42,.96-1.7,0-.74,0-1.37-.95-1.37s-.99,.58-.99,.95v.93Z"/><path class="m" d="M94.46,45.74h1.87v.88h.04c.45-.51,1.18-.97,2.19-.97,1.93,0,1.93,1.01,1.93,1.37v3.47h-2.03v-3.09c0-.19,.01-.64-.66-.64-.57,0-.92,.23-1.31,.49v3.25h-2.03v-4.74Z"/></g><g><path class="m" d="M49.54,45.6c.85,0,1.94,.04,2.62,.72,.37,.38,.47,.92,.47,1.77,0,.97-.03,1.53-.82,2.01-.26,.15-.73,.45-2.09,.45-.46,0-1.26-.02-1.75-.19-1.28-.45-1.35-1.23-1.35-2.38,0-.89,0-2.39,2.92-2.39Zm-.88,2.83c0,.17,.04,.61,.1,.76,.16,.43,.73,.43,.88,.43,.96,0,.96-.42,.96-1.7,0-.74,0-1.37-.95-1.37s-.99,.58-.99,.95v.93Z"/><path class="m" d="M53.41,45.74h1.12v-.71c0-.27,0-.71,.86-.98,.52-.16,1.24-.19,1.58-.19,.29,0,.66,0,.99,.04v.93c-1.12,0-1.42,0-1.42,.43v.48h1.42v.95h-1.42v3.79h-2.01v-3.77h-1.12v-.97Z"/><path class="m" d="M68.13,43.91v1.2h-2.63v5.37h-2.42v-5.37h-2.69v-1.2h7.73Z"/><path class="m" d="M73.78,45.74v4.74h-1.84v-.8h-.09c-.43,.45-.98,.92-2.2,.92-1.81,0-1.88-.93-1.88-1.26v-3.59h2.01v3.08c0,.32,.11,.66,.69,.66,.23,0,.55-.09,.65-.13,.36-.13,.53-.28,.65-.37v-3.25h2.01Z"/><path class="m" d="M78.59,47.14c-.03-.25-.1-.54-.82-.54-.95,0-.95,.56-.95,.83v1.39c0,.59,.2,.8,.98,.8,.68,0,.85-.3,.85-.68h1.73c-.03,.48-.07,1.65-2.63,1.65-.4,0-1.37,0-2.06-.39-.67-.38-.89-.95-.89-1.51v-1.12c0-1.11,.7-1.97,2.76-1.97,.48,0,1.51,0,2.17,.52,.48,.36,.48,.73,.49,1.01h-1.62Z"/><path class="m" d="M85.24,46.87c-.68-.29-1.01-.38-1.48-.38s-.78,.13-.78,.37c0,.26,.43,.38,1.02,.55,1.08,.3,2.33,.68,2.33,1.69,0,1.21-1.74,1.51-2.59,1.51-1.38,0-2.16-.38-2.56-.59l.91-.86c.39,.25,.85,.54,1.61,.54,.6,0,.79-.25,.79-.42,0-.27-.3-.35-.91-.53-1.67-.48-2.39-.92-2.39-1.66,0-.47,.32-.95,1.08-1.23,.62-.23,1.14-.23,1.54-.23,.96,0,1.88,.27,2.29,.48l-.86,.78Z"/><path class="m" d="M90.1,45.6c.85,0,1.94,.04,2.62,.72,.37,.38,.47,.92,.47,1.77,0,.97-.03,1.53-.82,2.01-.26,.15-.73,.45-2.08,.45-.46,0-1.27-.02-1.76-.19-1.28-.45-1.35-1.23-1.35-2.38,0-.89,0-2.39,2.92-2.39Zm-.88,2.83c0,.17,.04,.61,.1,.76,.16,.43,.73,.43,.88,.43,.96,0,.96-.42,.96-1.7,0-.74,0-1.37-.95-1.37s-.99,.58-.99,.95v.93Z"/><path class="m" d="M94.46,45.74h1.87v.88h.04c.45-.51,1.18-.97,2.19-.97,1.93,0,1.93,1.01,1.93,1.37v3.47h-2.03v-3.09c0-.19,.01-.64-.66-.64-.57,0-.92,.23-1.31,.49v3.25h-2.03v-4.74Z"/></g></g><path class="j" d="M98.33,41.47c.38-1.21,.58-2.49,.58-3.81,0-10.15-11.66-19.44-26.05-19.44s-26.05,9.29-26.05,19.44c0,1.31,.2,2.58,.57,3.78l50.96,.03Z"/><path class="f" d="M78.81,24.27c0-.13-.43-1.44-.79-1.41-.21,.01-.38,.04-.52,.06-.08,0-.15,0-.24,.02-.28,.05-.49,.43-.68,.67s-.45,1.56-.41,2.94c.03,1.38-.45,1.8-.61,2.06-.16,.27-.32,.27-.35,.06-.03-.21-.06-4.83-.06-5.62s-.25-5.36-.25-6.86-.92-2.36-1.12-2.53c-.18-.16-.87-.8-1.24-.12l.03-.11s-.51,.21-.7,.41c-.19,.21-.29,.44-.29,.74s-.26,1.06-.29,1.44c-.03,.38,.1,1.65,.22,2.09,.13,.44,.03,.91,.03,1.71s.03,6.3,.03,6.3l.05,.05c-.35-.02-.77,.08-1.01-.05-.38-.21-.7-2.3-.7-2.8s-.48-3.09-.51-3.48c-.03-.38-.7-.83-.89-1.03-.19-.21-.51-.29-.86,0-.18,.15-.34,.34-.44,.59v-.11s-.36,.35-.61,.68c-.25,.32-.25,.94-.16,1.5,.09,.56,.09,1.38,.09,2.09s.25,2.65,.45,3.15c.19,.5,.48,1.38,.73,2.24,.25,.85,.73,.97,1.12,1.09,.38,.12,1.85,.94,1.85,.94,0,0,0,.29-.03,.62-.03,.32,.22,1.47,.41,2.71,.19,1.24,.25,4.18,.22,5.33-.03,1.15-.54,1.33-.54,1.33l1.43-.03v-.03c.39,.31,1.05,.52,1.05,.52l1.82-.44c.16-3.9,.39-8.33,.39-8.33,0,0,.11-.17,.25-.32v.08s.81-.35,1.34-.79c.53-.44,1.43-1.55,1.67-3.6,.24-2.05,.1-3.6,.1-3.73Z"/><g><path class="h" d="M75.04,40.94l-1.82,.44s-.76-.13-.76-.66,.17-1,.19-1.37c.03-.63,.19-2.67-.03-3.64-.22-.97-.35-2.27-.25-2.77,.1-.5,.29-1.53,.35-1.97,.06-.44-.16-1.77-.16-1.77,0,0-.86,.35-1.15,.32-.29-.03-.8-.38-.96-.44-.16-.06-.51-.06-.8-.24-.29-.18-.92-.85-1.34-1.53-.41-.68-.73-1.53-.8-2-.06-.47,.03-1.68,.03-2.33s-.03-2.15-.1-2.83c-.06-.68-.16-1.09,.19-1.38,.35-.29,.67-.21,.86,0,.19,.21,.86,.65,.89,1.03,.03,.38,.51,2.97,.51,3.48s.32,2.59,.7,2.8c.38,.21,.8,.06,1.08,.47,.29,.41,.99,1.77,.99,1.77,0,0,.92-.68,1.05-1.68,.13-1-.06-2.33-.06-3.15s-.19-5.77-.19-5.77l-.73,2.36s-.13-3.3-.13-4.03-.19-1.44,.09-2.39c.29-.94,.86-.21,1.05-.03,.19,.18,1.11,1.03,1.11,2.53s.26,6.07,.26,6.86,.03,5.42,.06,5.63c.03,.21,.19,.21,.35-.06,.16-.27,.64-.68,.6-2.06-.03-1.38,.22-2.71,.41-2.95,.19-.24,1.21-.5,1.37-.26,.16,.24,.51,1.3,.41,2.09-.1,.79-.19,1.12-.19,1.12,0,0-.1-.44-.25-.74-.16-.29-.13,.18-.13,.32s-.32,2.95-.38,3.27c-.06,.32-.1,.85-.29,1-.19,.15-.73,.56-.99,.59-.25,.03-.7,.15-.7,.15,0,0-.22,5.92-.38,9.82Z"/><path class="m" d="M72.36,29.68s-.03,1.68-.1,2.12c-.06,.44-.19,2.06-.13,3.03,.06,.97,.38,2.21,.35,2.83-.03,.62-.32,3.24-.32,3.24l-1.43,.03s.51-.18,.54-1.32c.03-1.15-.03-4.09-.22-5.33-.19-1.24-.45-2.39-.41-2.71,.03-.32,.03-.62,.03-.62,0,0-1.47-.83-1.85-.94-.38-.12-.86-.24-1.11-1.09-.26-.85-.54-1.74-.73-2.24-.19-.5-.45-2.44-.45-3.15s0-1.53-.1-2.09c-.1-.56-.1-1.18,.16-1.5,.25-.32,.6-.68,.6-.68,0,0,.16,2.47,.13,2.83-.03,.35,0,2.56-.06,2.86-.06,.3,.06,.77,.16,1,.1,.24,.92,2,1.4,2.47,.48,.47,.7,.71,.99,.77,.29,.06,.61,.15,.73,.27,.13,.12,.38,.23,.67,.23h1.15Z"/><path class="m" d="M72.75,27.91s-.22-.97-.64-1.32c-.41-.35-.54-.5-.54-.5,0,0-.03-5.51-.03-6.3s.1-1.27-.03-1.71c-.13-.44-.26-1.71-.22-2.09,.03-.38,.29-1.15,.29-1.44s.09-.53,.29-.74c.19-.21,.7-.41,.7-.41,0,0-.29,1-.29,1.32s.19,1.09,.13,1.38c-.06,.29-.03,1.35-.03,1.59s-.03,2.59,.03,2.8c.07,.21,.35,1.38,.35,1.38,0,0,.22-.97,.22-1.21s.35-1.77,.35-1.77c0,0,.06,3.18,.06,3.42s.29,3.83,.13,4.15c-.16,.32-.19,1.03-.77,1.44Z"/><path class="m" d="M67.93,20.34s0,2.12-.06,2.44c-.06,.32-.03,1.91,0,2.24,.03,.32,.03,.91,.29,.91s.16-1.91,.16-2.56,0-3.33-.38-3.03Z"/><path class="m" d="M69.11,23.57c-.1-.83-.45,.75-.29,2.61,.16,1.86,.99,2.33,1.18,2.38,.19,.06-.19-.53-.25-.71-.06-.18-.19-.85-.22-1.12-.03-.26-.19-1.44-.29-1.71-.1-.26-.13-1.46-.13-1.46Z"/><path class="m" d="M74.03,33.33s-.16-1.59-.13-2c.03-.41,.05-1.24,.11-1.37,.06-.13,.22-1.74,.48-1.33,.25,.41,.05,2.77-.02,3.2-.06,.43-.27,2.12-.45,1.5Z"/><path class="m" d="M73.54,30.93s.13,3.08,.13,3.61-.03,3.19-.21,3.89c-.18,.69-.22,.56-.29-.09-.06-.65-.21-2.94-.19-3.46,.02-.52-.14-2.52,.06-3.11,.21-.59,.4-1.05,.49-.84Z"/><path class="m" d="M75.68,32.37v-1.08s.46,0,.69-.07c.24-.07,.79-.51,.91-.62,.12-.11,.19-.42,.22-.55,.02-.13,.43-3.09,.43-3.09,0,0,.19,.35,.26,.18,.07-.18,.31-.77,.33-1.13,.02-.35,.12-1.7,.05-1.94-.07-.24-.41-.91-.6-.99-.33-.15-1,.02-1,.02,0,0,.19-.21,1.03-.26,.36-.02,.79,1.28,.79,1.41s.14,1.68-.1,3.73c-.24,2.05-1.15,3.16-1.67,3.6-.53,.44-1.34,.8-1.34,.8Z"/></g><polygon class="g" points="26.61 42.1 125.26 42.1 116.37 30.59 105.97 36.85 103.45 35.23 96.89 36.34 93.45 34.63 83.15 38.56 81.94 37.15 72.35 39.07 59.12 39.07 50.64 37.25 49.33 38.46 39.13 34.63 35.5 36.44 30.95 35.43 26.61 42.1"/><rect class="h" x="26.12" y="40.86" width="99.2" height="1.32"/><path class="l" d="M13.74,30.83h.94c1.37,0,1.71,1.11,1.71,3.26s-.31,3.22-1.7,3.22h-.96v-6.48Zm-3.82,9.59h5.45c2.85,0,5.02-1.49,5.02-6.21,0-5.07-2.01-6.28-4.86-6.28h-5.6v12.49Z"/><path class="l" d="M21.41,27.93h8.63v3.01h-4.89v1.77h4.68v3.01h-4.68v1.7h4.99v3.01h-8.73v-12.49Z"/><path class="l" d="M39.36,31.35c-.86-.38-1.87-.63-2.95-.63-.6,0-1.64,.02-1.64,.82,0,1.63,5.23,.09,5.23,4.9,0,3.35-2.64,4.19-4.85,4.19-1.47,0-2.68-.18-4.11-.59v-3.24c1.03,.54,2.28,.82,3.42,.82,.9,0,1.71-.23,1.71-.86,0-1.68-5.23-.16-5.23-5.01,0-3.44,2.85-4.05,5.12-4.05,1.07,0,2.25,.16,3.29,.43v3.2Z"/><path class="l" d="M40.94,27.93h8.63v3.01h-4.89v1.77h4.68v3.01h-4.68v1.7h4.99v3.01h-8.73v-12.49Z"/><path class="l" d="M54.36,30.72h1.06c.77,0,1.5,.16,1.5,1.29,0,1.27-.77,1.38-1.55,1.38h-1v-2.67Zm-3.65,9.7h3.82v-4.24h.86c.47,0,.86,.07,1.08,.64,.31,.75,.36,2.7,.53,3.6h3.98c-.4-1.22-.36-3.15-.94-4.47-.36-.66-.86-1.16-1.68-1.34v-.04c1.43-.43,2.38-1.4,2.38-3.31,0-2.4-1.47-3.33-3.85-3.33h-6.17v12.49Z"/><path class="l" d="M71.65,31.62h-3.36v8.8h-3.82v-8.8h-3.36v-3.69h10.55v3.69Z"/><path class="l" d="M87.76,31.62h-3.37v8.8h-3.82v-8.8h-3.36v-3.69h10.55v3.69Z"/><path class="l" d="M92.17,34.18c0-1.16,.11-3.45,1.53-3.45s1.55,2.29,1.57,3.45c-.01,1.34-.06,3.45-1.57,3.45-1.37,0-1.53-2.11-1.53-3.45Zm7.09,0c0-4.19-2.08-6.46-5.56-6.46s-5.52,2.27-5.52,6.46,2.04,6.46,5.52,6.46,5.56-2.2,5.56-6.46Z"/><path class="l" d="M106.82,36.59v3.83h-3.82v-3.83l-3.69-8.66h4.15l1.55,5.23h.03l1.57-5.23h3.95l-3.74,8.66Z"/><path class="l" d="M114.61,34.18c0-1.16,.11-3.45,1.53-3.45s1.55,2.29,1.57,3.45c-.01,1.34-.06,3.45-1.57,3.45-1.37,0-1.53-2.11-1.53-3.45Zm7.09,0c0-4.19-2.08-6.46-5.56-6.46s-5.52,2.27-5.52,6.46,2.04,6.46,5.52,6.46,5.56-2.2,5.56-6.46Z"/><path class="l" d="M132.65,31.62h-3.36v8.8h-3.82v-8.8h-3.36v-3.69h10.55v3.69Z"/><path class="l" d="M137.57,30.61h.03l1.08,4.1h-2.21l1.1-4.1Zm-6.04,9.81h3.81l.61-2.7h3.22l.66,2.7h4.01l-3.55-12.49h-5.26l-3.49,12.49Z"/></g></svg>