<?xml version="1.0" encoding="utf-8"?>
<!-- Generator: Adobe Illustrator 26.0.1, SVG Export Plug-In . SVG Version: 6.00 Build 0)  -->
<svg version="1.1" id="Layer_1" xmlns="http://www.w3.org/2000/svg" xmlns:xlink="http://www.w3.org/1999/xlink" x="0px" y="0px"
	 viewBox="0 0 150 150" style="enable-background:new 0 0 150 150;" xml:space="preserve">
<style type="text/css">
	.st0{fill:#FFFFFF;}
</style>
<g>
	<path class="st0" d="M129.9,58.4l-14.7,54.8c-1,2.8-3.7,4.6-6.4,4.9H26.5c-1.8,0.2-3.7-1.2-3.9-3.7c0-0.4,0-1,0.2-1.5l14.7-55
		c1-2.8,3.7-4.6,6.4-4.9h82.3c1.8-0.2,3.7,1.5,3.9,3.7C129.9,57.3,129.9,57.8,129.9,58.4z"/>
	<path class="st0" d="M20.7,88.9L20,37.8c0-0.2,0-0.2,0-0.2c0-3.1,2.4-5.6,5.6-5.6h33c3.2,0,5.9,0.6,5.9,3.2
		c0.7,2.1,2.4,3.4,4.5,3.2h39.4c3.2,0,5.9,1.2,5.9,3.9V45H38.5c-3.4,0.2-6.2,2.1-7.1,5.5L20.7,88.9z"/>
</g>
</svg>
