<?xml version="1.0" encoding="UTF-8"?><svg id="a" xmlns="http://www.w3.org/2000/svg" xmlns:xlink="http://www.w3.org/1999/xlink" viewBox="0 0 868.12 70.88"><defs><style>.e{fill:#2c3a3d;}.f{fill:#2a3e42;}.g{fill:url(#d);}.h{fill:#59b5ab;}</style><linearGradient id="d" x1="1188.92" y1="-1118.26" x2="1259.85" y2="-1118.26" gradientTransform="translate(-684.2 -1188.92) rotate(90)" gradientUnits="userSpaceOnUse"><stop offset="0" stop-color="#fff" stop-opacity="0"/><stop offset=".14" stop-color="#fff" stop-opacity="0"/><stop offset=".27" stop-color="#fff" stop-opacity=".06"/><stop offset=".39" stop-color="#fff" stop-opacity=".13"/><stop offset=".51" stop-color="#fff" stop-opacity=".23"/><stop offset=".63" stop-color="#fff" stop-opacity=".36"/><stop offset=".74" stop-color="#fff" stop-opacity=".52"/><stop offset=".86" stop-color="#fff" stop-opacity=".71"/><stop offset=".96" stop-color="#fff" stop-opacity=".92"/><stop offset="1" stop-color="#fff"/></linearGradient></defs><g id="b"><g id="c"><polygon class="g" points="0 70.93 0 0 868.12 0 868.12 70.93 0 70.93"/></g></g><g><path class="e" d="M192.74,35.4c-.12,.24-.27,.44-.47,.6s-.44,.28-.7,.36c-.27,.08-.55,.12-.86,.12h-.91v1.64h-1.2v-5.45h2.22c.33,0,.62,.04,.87,.13,.26,.09,.48,.22,.65,.39s.32,.36,.41,.6,.14,.49,.14,.76v.02c0,.33-.07,.6-.18,.84h.03Zm-1.04-.85c0-.27-.08-.48-.26-.61-.18-.14-.41-.21-.71-.21h-.92v1.66h.95c.3,0,.54-.08,.7-.24s.25-.35,.25-.59v-.02h0Z"/><path class="e" d="M204.42,38.12l-1.17-1.75h-.94v1.75h-1.2v-5.45h2.49c.65,0,1.15,.16,1.51,.48s.54,.76,.54,1.33v.02c0,.44-.11,.8-.32,1.07-.22,.28-.5,.48-.85,.61l1.33,1.95h-1.39Zm.02-3.62c0-.26-.08-.45-.25-.58s-.39-.19-.69-.19h-1.19v1.56h1.22c.29,0,.52-.07,.68-.21s.24-.33,.24-.56v-.02h0Z"/><path class="e" d="M214.1,38.12v-5.45h1.2v5.45h-1.2Z"/><path class="e" d="M227.79,38.12l-2.64-3.46v3.46h-1.18v-5.45h1.11l2.55,3.35v-3.35h1.18v5.45h-1.02Z"/><path class="e" d="M239.89,33.78v4.34h-1.2v-4.34h-1.65v-1.11h4.52v1.11h-1.67Z"/><path class="e" d="M263.56,35.4c-.12,.24-.27,.44-.47,.6s-.44,.28-.7,.36-.55,.12-.86,.12h-.91v1.64h-1.2v-5.45h2.22c.33,0,.62,.04,.87,.13,.26,.09,.48,.22,.65,.39,.18,.17,.32,.36,.41,.6s.14,.49,.14,.76v.02c0,.33-.06,.6-.18,.84h.03Zm-1.04-.85c0-.27-.08-.48-.26-.61-.18-.14-.41-.21-.71-.21h-.92v1.66h.95c.3,0,.54-.08,.7-.24,.17-.16,.25-.35,.25-.59v-.02h-.01Z"/><path class="e" d="M277.26,36.49c-.14,.34-.34,.64-.6,.9s-.56,.46-.92,.6c-.35,.15-.74,.22-1.16,.22s-.81-.08-1.16-.22c-.35-.15-.65-.34-.92-.6s-.45-.55-.6-.89-.21-.71-.21-1.09v-.02c0-.39,.08-.76,.22-1.09,.14-.34,.34-.64,.6-.9s.56-.46,.92-.6c.35-.15,.74-.22,1.17-.22s.81,.08,1.16,.22c.35,.15,.65,.34,.92,.6s.45,.55,.6,.89c.14,.34,.21,.71,.21,1.09v.02c0,.39-.08,.75-.23,1.09Zm-1.03-1.1c0-.24-.04-.45-.12-.66s-.19-.39-.34-.55-.32-.28-.53-.37-.42-.13-.66-.13-.46,.04-.66,.13-.37,.21-.51,.37-.25,.34-.34,.54-.12,.42-.12,.65v.02c0,.24,.04,.45,.12,.66s.19,.39,.34,.55c.15,.15,.32,.28,.52,.37,.2,.09,.42,.13,.66,.13s.46-.04,.66-.13c.2-.08,.38-.21,.52-.37s.25-.34,.34-.54,.12-.43,.12-.65v-.02h0Z"/><path class="e" d="M289.17,38.12l-1.17-1.75h-.94v1.75h-1.2v-5.45h2.49c.65,0,1.15,.16,1.51,.48,.36,.32,.54,.76,.54,1.33v.02c0,.44-.11,.8-.32,1.07-.22,.28-.5,.48-.84,.61l1.33,1.95h-1.4Zm.03-3.62c0-.26-.08-.45-.25-.58s-.39-.19-.7-.19h-1.19v1.56h1.22c.29,0,.52-.07,.68-.21s.24-.33,.24-.56v-.02h0Z"/><path class="e" d="M301.26,33.78v4.34h-1.2v-4.34h-1.65v-1.11h4.52v1.11h-1.67Z"/><path class="e" d="M315.21,38.12l-.5-1.23h-2.3l-.5,1.23h-1.23l2.33-5.48h1.11l2.33,5.48h-1.24Zm-1.65-4.05l-.72,1.76h1.44l-.72-1.76Z"/><path class="e" d="M324.61,38.12v-5.45h1.2v4.37h2.71v1.08h-3.91Z"/></g><rect class="h" x="176.47" y="16.73" width=".93" height="37.41"/><g><rect class="f" x="64.7" y="18.79" width="2.63" height="13.12"/><g><path class="f" d="M78.7,22.53c.76,.78,1.15,1.88,1.15,3.28v6.11h-2.63v-5.75c0-.83-.21-1.46-.62-1.91-.41-.45-.98-.67-1.69-.67s-1.3,.22-1.72,.67c-.42,.45-.63,1.08-.63,1.91v5.75h-2.63v-10.41h2.63v1.3c.35-.45,.8-.81,1.34-1.06,.54-.26,1.14-.39,1.79-.39,1.24,0,2.24,.39,3.01,1.17"/><path class="f" d="M85.41,23.66v5.04c0,.35,.08,.6,.25,.76,.17,.16,.45,.24,.85,.24h1.22v2.22h-1.65c-2.22,0-3.33-1.08-3.33-3.23v-5.02h-1.24v-2.16h1.24v-2.58h2.65v2.58h2.33v2.16h-2.33Z"/><path class="f" d="M99.24,27.5h-7.61c.06,.75,.33,1.34,.79,1.77,.46,.43,1.03,.64,1.71,.64,.98,0,1.67-.42,2.09-1.26h2.84c-.3,1-.88,1.83-1.73,2.47-.85,.65-1.9,.97-3.14,.97-1,0-1.9-.22-2.7-.67-.8-.44-1.42-1.07-1.86-1.89-.45-.81-.67-1.75-.67-2.82s.22-2.02,.66-2.84c.44-.81,1.05-1.44,1.84-1.88,.79-.44,1.7-.66,2.73-.66s1.88,.21,2.66,.64c.78,.43,1.39,1.03,1.82,1.81,.43,.78,.65,1.68,.65,2.7,0,.38-.02,.71-.08,1.02m-2.65-1.77c-.01-.68-.26-1.22-.73-1.63-.48-.41-1.06-.61-1.75-.61-.65,0-1.2,.2-1.64,.59-.45,.39-.72,.94-.82,1.64h4.94Z"/><path class="f" d="M110.01,22.53c.76,.78,1.15,1.88,1.15,3.28v6.11h-2.63v-5.75c0-.83-.21-1.46-.62-1.91-.41-.45-.98-.67-1.69-.67s-1.3,.22-1.72,.67c-.42,.45-.63,1.08-.63,1.91v5.75h-2.63v-10.41h2.63v1.3c.35-.45,.8-.81,1.34-1.06,.55-.26,1.14-.39,1.8-.39,1.24,0,2.24,.39,3.01,1.17"/><path class="f" d="M116.72,23.66v5.04c0,.35,.09,.6,.25,.76,.17,.16,.45,.24,.85,.24h1.22v2.22h-1.65c-2.22,0-3.33-1.08-3.33-3.23v-5.02h-1.24v-2.16h1.24v-2.58h2.65v2.58h2.33v2.16h-2.33Z"/><path class="f" d="M121.13,19.82c-.31-.3-.46-.66-.46-1.1s.15-.8,.46-1.1c.31-.29,.69-.44,1.16-.44s.85,.15,1.16,.44c.31,.3,.46,.66,.46,1.1s-.15,.81-.46,1.1c-.31,.29-.69,.44-1.16,.44s-.85-.15-1.16-.44m2.45,12.09h-2.63v-10.41h2.63v10.41Z"/><path class="f" d="M128.09,31.41c-.8-.44-1.43-1.07-1.89-1.89-.46-.81-.69-1.75-.69-2.82s.24-2.01,.7-2.82,1.11-1.44,1.93-1.89c.81-.45,1.72-.67,2.73-.67s1.91,.22,2.72,.67c.82,.45,1.46,1.07,1.93,1.89,.47,.81,.7,1.75,.7,2.82s-.24,2.01-.72,2.82c-.48,.82-1.13,1.45-1.95,1.89-.82,.45-1.74,.67-2.75,.67s-1.9-.22-2.71-.67m4.05-1.97c.42-.23,.76-.58,1.01-1.04,.25-.46,.38-1.03,.38-1.69,0-.99-.26-1.75-.78-2.28-.52-.53-1.16-.8-1.91-.8s-1.38,.27-1.89,.8c-.51,.53-.76,1.29-.76,2.28s.25,1.75,.74,2.28c.49,.53,1.12,.8,1.87,.8,.48,0,.92-.12,1.34-.35"/><path class="f" d="M146.94,22.53c.76,.78,1.15,1.88,1.15,3.28v6.11h-2.63v-5.75c0-.83-.21-1.46-.62-1.91-.41-.45-.98-.67-1.69-.67s-1.3,.22-1.72,.67c-.42,.45-.63,1.08-.63,1.91v5.75h-2.63v-10.41h2.63v1.3c.35-.45,.8-.81,1.34-1.06,.54-.26,1.14-.39,1.79-.39,1.24,0,2.24,.39,3.01,1.17"/><path class="f" d="M150.54,23.87c.42-.81,.99-1.44,1.71-1.88,.72-.44,1.53-.66,2.42-.66,.78,0,1.46,.16,2.04,.47s1.05,.71,1.4,1.18v-1.48h2.65v10.41h-2.65v-1.52c-.34,.49-.8,.89-1.4,1.21-.6,.32-1.28,.48-2.06,.48-.88,0-1.68-.23-2.4-.68s-1.29-1.09-1.71-1.91c-.42-.82-.63-1.76-.63-2.83s.21-1.99,.63-2.8m7.19,1.19c-.25-.46-.59-.81-1.02-1.05-.42-.24-.88-.37-1.37-.37s-.94,.12-1.35,.36c-.41,.24-.75,.59-1.01,1.04-.26,.46-.39,1-.39,1.63s.13,1.17,.39,1.64c.26,.47,.6,.83,1.02,1.08,.42,.25,.87,.38,1.34,.38s.95-.12,1.37-.37c.43-.24,.76-.6,1.02-1.05,.25-.46,.38-1.01,.38-1.65s-.12-1.19-.38-1.64"/><rect class="f" x="163.33" y="18" width="2.63" height="13.91"/><polygon class="f" points="67.27 48.51 71.6 48.51 71.6 50.6 64.64 50.6 64.64 37.48 67.27 37.48 67.27 48.51"/><path class="f" d="M73.45,38.5c-.31-.29-.46-.66-.46-1.1s.15-.81,.46-1.1c.31-.29,.69-.44,1.16-.44s.85,.15,1.16,.44c.31,.29,.46,.66,.46,1.1s-.15,.81-.46,1.1c-.31,.29-.69,.44-1.16,.44s-.85-.15-1.16-.44m2.45,12.09h-2.63v-10.41h2.63v10.41Z"/><path class="f" d="M83.27,42.34h-1.82v8.25h-2.67v-8.25h-1.18v-2.16h1.18v-.53c0-1.28,.36-2.22,1.09-2.82,.73-.6,1.82-.88,3.29-.85v2.22c-.64-.01-1.08,.09-1.33,.32-.25,.23-.38,.63-.38,1.22v.43h1.82v2.16Z"/><path class="f" d="M94.58,46.18h-7.61c.06,.75,.33,1.34,.79,1.77,.46,.43,1.03,.64,1.71,.64,.98,0,1.67-.42,2.09-1.26h2.84c-.3,1-.88,1.83-1.73,2.47-.85,.65-1.9,.97-3.14,.97-1,0-1.9-.22-2.7-.67-.8-.44-1.42-1.07-1.86-1.89-.45-.81-.67-1.75-.67-2.82s.22-2.02,.66-2.84c.44-.81,1.05-1.44,1.84-1.88,.79-.44,1.7-.66,2.73-.66s1.88,.21,2.66,.64c.78,.43,1.39,1.03,1.82,1.81,.43,.78,.65,1.68,.65,2.7,0,.38-.02,.71-.08,1.01m-2.65-1.77c-.01-.68-.26-1.22-.73-1.63-.48-.41-1.06-.61-1.75-.61-.65,0-1.2,.2-1.64,.59-.45,.39-.72,.94-.82,1.64h4.94Z"/><polygon class="h" points="115.35 37.48 115.35 50.6 112.72 50.6 112.72 42.06 109.2 50.6 107.21 50.6 103.68 42.06 103.68 50.6 101.05 50.6 101.05 37.48 104.03 37.48 108.21 47.23 112.38 37.48 115.35 37.48"/><path class="h" d="M127.55,46.18h-7.61c.06,.75,.33,1.34,.79,1.77,.46,.43,1.03,.64,1.71,.64,.98,0,1.67-.42,2.09-1.26h2.84c-.3,1-.88,1.83-1.73,2.47s-1.9,.97-3.14,.97c-1,0-1.9-.22-2.7-.67-.8-.44-1.42-1.07-1.86-1.89-.44-.81-.67-1.75-.67-2.82s.22-2.02,.66-2.84c.44-.81,1.05-1.44,1.84-1.88,.79-.44,1.7-.66,2.73-.66s1.88,.21,2.66,.64c.78,.43,1.39,1.03,1.82,1.81,.43,.78,.65,1.68,.65,2.7,0,.38-.02,.71-.08,1.01m-2.65-1.77c-.01-.68-.26-1.22-.73-1.63-.48-.41-1.06-.61-1.75-.61-.65,0-1.2,.2-1.64,.59-.45,.39-.72,.94-.82,1.64h4.94Z"/><path class="h" d="M129.49,42.55c.42-.81,.99-1.44,1.72-1.88,.73-.44,1.53-.66,2.42-.66,.68,0,1.32,.15,1.94,.44,.61,.29,1.1,.69,1.47,1.17v-4.94h2.67v13.91h-2.67v-1.54c-.33,.51-.78,.93-1.37,1.24-.59,.31-1.27,.47-2.05,.47-.88,0-1.68-.23-2.41-.68-.73-.45-1.3-1.09-1.72-1.91-.42-.82-.63-1.76-.63-2.83s.21-1.99,.63-2.8m7.19,1.19c-.25-.46-.59-.81-1.02-1.05-.42-.24-.88-.37-1.37-.37s-.94,.12-1.35,.36c-.41,.24-.75,.59-1.01,1.04-.26,.46-.39,1-.39,1.63s.13,1.17,.39,1.64c.26,.47,.6,.83,1.02,1.08,.42,.25,.87,.38,1.34,.38s.95-.12,1.37-.37c.43-.24,.76-.6,1.02-1.05,.25-.46,.38-1.01,.38-1.64s-.12-1.19-.38-1.64"/><path class="h" d="M142.46,38.5c-.31-.29-.46-.66-.46-1.1s.15-.81,.46-1.1c.31-.29,.69-.44,1.16-.44s.85,.15,1.16,.44c.31,.29,.46,.66,.46,1.1s-.15,.81-.46,1.1c-.31,.29-.69,.44-1.16,.44s-.85-.15-1.16-.44m2.45,12.09h-2.63v-10.41h2.63v10.41Z"/><path class="h" d="M147.46,42.55c.42-.81,.99-1.44,1.71-1.88,.72-.44,1.53-.66,2.42-.66,.78,0,1.46,.16,2.04,.47s1.05,.71,1.4,1.18v-1.48h2.65v10.41h-2.65v-1.52c-.34,.49-.8,.89-1.4,1.21-.59,.32-1.28,.48-2.06,.48-.88,0-1.68-.23-2.4-.68s-1.29-1.09-1.71-1.91c-.42-.82-.63-1.76-.63-2.83s.21-1.99,.63-2.8m7.19,1.19c-.25-.46-.59-.81-1.02-1.05-.42-.24-.88-.37-1.37-.37s-.94,.12-1.35,.36c-.41,.24-.75,.59-1.01,1.04-.26,.46-.39,1-.39,1.63s.13,1.17,.39,1.64c.26,.47,.6,.83,1.02,1.08,.42,.25,.87,.38,1.34,.38s.95-.12,1.37-.37c.43-.24,.76-.6,1.02-1.05,.25-.46,.38-1.01,.38-1.64s-.12-1.19-.38-1.64"/><path class="h" d="M31.07,37.43c-.49-4.37,1.38-8.94,4.79-11.72,3.41-2.78,8.26-3.69,12.44-2.33,1.06,.35,2.11,.85,2.82,1.72,.08,.1,.16,.22,.17,.35,.01,.17-.09,.32-.19,.45-1.32,1.83-2.65,3.67-3.97,5.5l.06,.05c-2.37-1.8-5.5-2.45-8.45-2.05-1.39,.19-2.78,.61-3.91,1.45-1.54,1.15-2.43,2.96-3.27,4.7"/><path class="h" d="M31.08,37.43c.49-4.37-1.38-8.94-4.79-11.72-3.41-2.78-8.26-3.69-12.44-2.33-1.06,.35-2.11,.85-2.82,1.72-.08,.1-.16,.22-.17,.35-.01,.17,.09,.32,.19,.45,1.32,1.83,2.65,3.67,3.97,5.5l-.06,.05c2.37-1.8,5.5-2.45,8.45-2.05,1.39,.19,2.78,.61,3.91,1.45,1.54,1.15,2.43,2.96,3.27,4.7"/><path class="h" d="M35.56,19.56c0-2.48-2.01-4.48-4.48-4.48s-4.48,2.01-4.48,4.48,2.01,4.48,4.48,4.48,4.48-2.01,4.48-4.48"/><path class="h" d="M40.13,35.09c-4.99,0-9.03,4.04-9.03,9.03h-.05c0-4.99-4.04-9.03-9.03-9.03H9.89c0,11.7,9.49,21.19,21.19,21.19s21.19-9.49,21.19-21.19h-12.13Zm-8.9,18.24c-9.05,0-16.58-6.63-18-15.29h8.41c1.02,.09,2.56,.39,4.14,1.33,.58,.34,1.45,.88,2.25,1.87,.72,.89,.82,1.47,1.73,3.65,.29,.7,.73,1.71,1.3,2.92,.34-.72,.84-1.82,1.44-3.19,.83-1.88,.97-2.3,1.46-3.04,.47-.7,1.2-1.8,2.58-2.61,1.46-.85,2.91-.96,3.74-.94h8.94c-1.41,8.66-8.95,15.29-18,15.29"/></g></g></svg>