<?xml version="1.0" encoding="UTF-8"?><svg id="a" xmlns="http://www.w3.org/2000/svg" viewBox="0 0 780 250"><defs><style>.b{fill:#fff;}.c{fill:#51312d;}.d{fill:#008da5;}</style></defs><rect class="d" x="0" y="0" width="780" height="250"/><g><rect class="c" x="399.5" y="56.9" width="2.57" height="136.2"/><path class="c" d="M401.57,57.4V192.6h-1.57V57.4h1.57m1-1h-3.57V193.6h3.57V56.4h0Z"/></g><g><g><path class="b" d="M505.71,97.5c-.65,1.36-1.55,2.5-2.69,3.42s-2.47,1.61-4,2.06c-1.52,.46-3.16,.69-4.9,.69h-5.19v9.32h-6.84v-31.07h12.7c1.86,0,3.53,.26,4.99,.78s2.71,1.25,3.73,2.2c1.02,.95,1.8,2.08,2.35,3.4,.55,1.32,.82,2.77,.82,4.37v.09c0,1.8-.32,3.38-.97,4.74h0Zm-5.95-4.7c0-1.54-.5-2.71-1.49-3.51s-2.35-1.2-4.06-1.2h-5.28v9.5h5.42c1.72,0,3.05-.45,4-1.35s1.42-2.02,1.42-3.35v-.09h-.01Z"/><path class="b" d="M552.81,113l-6.66-9.94h-5.37v9.94h-6.84v-31.08h14.21c3.7,0,6.58,.9,8.64,2.71s3.08,4.32,3.08,7.55v.09c0,2.52-.61,4.57-1.84,6.15-1.23,1.58-2.83,2.75-4.82,3.48l7.59,11.1h-7.99Zm.13-20.47c0-1.48-.47-2.59-1.42-3.33s-2.26-1.11-3.95-1.11h-6.79v8.92h6.92c1.69,0,2.98-.4,3.88-1.2,.9-.8,1.35-1.86,1.35-3.2v-.08h.01Z"/><path class="b" d="M588.54,113v-31.08h6.84v31.07h-6.84Z"/><path class="b" d="M647.14,113l-15.05-19.75v19.75h-6.75v-31.08h6.3l14.56,19.13v-19.13h6.75v31.07h-5.81Z"/><path class="b" d="M696.68,88.23v24.77h-6.84v-24.77h-9.46v-6.3h25.75v6.3h-9.45Z"/></g><g><path class="b" d="M469.46,152.43c-.65,1.36-1.55,2.5-2.69,3.42s-2.47,1.61-3.99,2.06c-1.52,.46-3.16,.69-4.91,.69h-5.19v9.32h-6.84v-31.07h12.7c1.86,0,3.53,.26,4.99,.78s2.71,1.25,3.73,2.2c1.02,.95,1.81,2.08,2.35,3.4,.55,1.32,.82,2.78,.82,4.37v.09c0,1.8-.32,3.38-.97,4.74h0Zm-5.95-4.7c0-1.54-.5-2.71-1.49-3.51-.99-.8-2.35-1.2-4.06-1.2h-5.28v9.5h5.42c1.72,0,3.05-.45,4-1.35,.95-.9,1.42-2.02,1.42-3.35v-.09h-.01Z"/><path class="b" d="M528.1,158.63c-.83,1.94-1.97,3.64-3.44,5.11-1.47,1.46-3.21,2.62-5.24,3.46-2.03,.84-4.24,1.26-6.64,1.26s-4.6-.42-6.61-1.26c-2.01-.84-3.75-1.98-5.22-3.42-1.46-1.44-2.61-3.12-3.42-5.06-.81-1.94-1.22-4.02-1.22-6.24v-.09c0-2.22,.42-4.3,1.24-6.24,.83-1.94,1.97-3.64,3.44-5.1,1.46-1.46,3.21-2.62,5.24-3.46,2.03-.84,4.24-1.27,6.64-1.27s4.6,.42,6.61,1.27c2.01,.84,3.75,1.98,5.22,3.42s2.6,3.12,3.42,5.06c.81,1.94,1.22,4.02,1.22,6.24v.09c.01,2.21-.41,4.29-1.24,6.23h0Zm-5.9-6.24c0-1.33-.23-2.59-.69-3.77-.46-1.18-1.11-2.22-1.95-3.11s-1.84-1.59-3-2.11c-1.15-.52-2.41-.78-3.77-.78s-2.66,.25-3.79,.75c-1.14,.5-2.12,1.2-2.93,2.09s-1.45,1.92-1.91,3.09-.69,2.42-.69,3.75v.09c0,1.33,.23,2.59,.69,3.77,.46,1.18,1.11,2.22,1.95,3.11s1.83,1.59,2.97,2.11,2.4,.78,3.8,.78,2.62-.25,3.77-.75,2.14-1.2,2.95-2.09,1.45-1.92,1.91-3.09c.46-1.17,.69-2.42,.69-3.75v-.09h0Z"/><path class="b" d="M576.49,167.93l-6.66-9.94h-5.37v9.94h-6.84v-31.07h14.21c3.7,0,6.58,.9,8.63,2.71,2.06,1.81,3.09,4.32,3.09,7.55v.07c0,2.52-.61,4.57-1.84,6.15-1.23,1.58-2.83,2.75-4.82,3.48l7.59,11.1h-7.99Zm.14-20.45c0-1.48-.47-2.59-1.42-3.33s-2.26-1.11-3.95-1.11h-6.79v8.92h6.92c1.69,0,2.98-.4,3.89-1.2,.9-.8,1.35-1.86,1.35-3.2v-.08Z"/><path class="b" d="M625.99,143.15v24.77h-6.84v-24.77h-9.45v-6.3h25.75v6.3h-9.46Z"/><path class="b" d="M686.01,167.93l-2.84-6.97h-13.14l-2.84,6.97h-6.97l13.32-31.3h6.3l13.32,31.3h-7.15Zm-9.41-23.09l-4.13,10.08h8.26l-4.13-10.08Z"/><path class="b" d="M720.15,167.93v-31.07h6.84v24.9h15.49v6.17h-22.33Z"/></g></g><g><polygon class="b" points="161.63 188.61 168.4 188.61 168.4 189.9 162.81 189.9 162.81 194.04 168.35 194.04 168.35 195.33 162.81 195.33 162.81 200.51 168.35 200.51 168.35 201.81 161.63 201.81 161.63 188.61"/><polygon class="b" points="179.49 201.81 179.49 188.61 179.75 188.61 187.61 198.73 187.61 188.61 188.78 188.61 188.78 201.81 188.51 201.81 180.71 191.81 180.71 201.81 179.49 201.81"/><polygon class="b" points="199.52 189.9 199.52 188.61 206 188.61 206 189.9 203.36 189.9 203.36 201.81 202.16 201.81 202.16 189.9 199.52 189.9"/><polygon class="b" points="216.75 188.61 223.52 188.61 223.52 189.9 217.93 189.9 217.93 194.04 223.48 194.04 223.48 195.33 217.93 195.33 217.93 200.51 223.48 200.51 223.48 201.81 216.75 201.81 216.75 188.61"/><g><path class="b" d="M150.89,191.06l-.93,.79c-.52-.74-1.13-1.31-1.85-1.7-.72-.39-1.51-.58-2.37-.58-.94,0-1.81,.25-2.62,.76-.8,.51-1.42,1.19-1.87,2.04-.44,.86-.66,1.82-.66,2.88,0,1.61,.49,2.95,1.48,4.02,.99,1.08,2.23,1.62,3.74,1.62,1.65,0,3.04-.72,4.15-2.17l.93,.79c-.59,.84-1.32,1.49-2.21,1.94-.88,.46-1.86,.69-2.95,.69-2.07,0-3.7-.77-4.89-2.31-1-1.29-1.5-2.87-1.5-4.7,0-1.94,.61-3.56,1.82-4.88,1.21-1.32,2.73-1.98,4.56-1.98,1.1,0,2.1,.25,2.99,.73,.89,.49,1.62,1.17,2.19,2.05"/><g><path class="b" d="M236.53,189.9v4.49l2.04,.02c.79,0,1.37-.08,1.75-.25,.38-.17,.67-.43,.89-.8,.21-.36,.32-.78,.32-1.23s-.11-.85-.32-1.21c-.22-.36-.5-.62-.84-.78-.35-.16-.93-.23-1.74-.23h-2.09Zm-1.18-1.29h2.35c1.31,0,2.2,.06,2.67,.18,.7,.18,1.27,.56,1.71,1.15,.44,.59,.66,1.32,.66,2.18,0,.72-.15,1.35-.45,1.9-.3,.54-.73,.96-1.29,1.23-.56,.28-1.34,.42-2.33,.43l4.25,6.13h-1.46l-4.25-6.13h-.67v6.13h-1.18v-13.2Z"/><path class="b" d="M253.09,199.35l1-.67c.71,1.45,1.52,2.18,2.45,2.18,.4,0,.77-.1,1.12-.31,.35-.2,.61-.48,.79-.83,.18-.35,.27-.71,.27-1.11,0-.44-.13-.88-.4-1.3-.37-.59-1.04-1.29-2.03-2.11-.99-.83-1.6-1.44-1.84-1.81-.42-.62-.63-1.29-.63-2.02,0-.58,.12-1.1,.37-1.57,.25-.47,.59-.85,1.04-1.12,.44-.27,.93-.41,1.46-.41,.55,0,1.08,.15,1.56,.46,.48,.3,1,.87,1.54,1.7l-.96,.82c-.44-.66-.82-1.09-1.14-1.3-.31-.21-.66-.32-1.02-.32-.48,0-.87,.17-1.17,.49-.3,.32-.45,.72-.45,1.19,0,.29,.05,.56,.16,.83,.11,.27,.3,.56,.59,.88,.16,.17,.66,.61,1.52,1.32,1.02,.85,1.73,1.6,2.1,2.25,.38,.66,.57,1.32,.57,1.99,0,.96-.32,1.79-.98,2.49-.65,.71-1.44,1.06-2.37,1.06-.72,0-1.37-.22-1.95-.64-.59-.43-1.12-1.14-1.61-2.15"/></g><path class="b" d="M50,150.37l.98-1.19,20.71,17.48v-17.48h1.52v20.74l-23.21-19.55Zm22.41,26.8l-.98,1.19-20.68-17.47v17.47h-1.52v-20.74l23.18,19.55Z"/><path class="b" d="M71.51,179.24l-20.15-17.02v16.76h-2.76v-22.68l24.66,20.79-1.76,2.14Zm-21.67-1.49h.29v-18.18l21.22,17.93,.19-.23-21.7-18.3v18.79Zm23.99-6.5l-24.69-20.8,1.76-2.14,20.18,17.02v-16.77h2.76v22.68Zm-22.97-20.96l21.74,18.31v-18.8h-.29v18.18l-21.25-17.93-.19,.23Z"/><polygon class="b" points="165.98 170.24 153.6 160.06 153.6 178.26 152.08 178.26 152.08 156.8 165.98 168.25 179.89 156.8 179.89 178.26 178.36 178.26 178.36 160.06 165.98 170.24"/><path class="b" d="M180.5,178.88h-2.76v-17.51l-11.76,9.67-11.76-9.67v17.51h-2.76v-23.39l14.52,11.96,14.52-11.96v23.39Zm-1.52-1.24h.29v-19.54l-13.29,10.94-13.29-10.94v19.54h.29v-18.88l12.99,10.68,12.99-10.68v18.88Z"/><polygon class="b" points="153.48 150.39 154.45 149.24 165.98 158.7 177.51 149.24 178.49 150.39 165.98 160.73 153.48 150.39"/><path class="b" d="M165.98,161.53l-13.38-11.06,1.77-2.09,11.61,9.52,11.61-9.52,1.77,2.09-13.38,11.06Zm-11.63-11.22l11.63,9.62,11.63-9.62-.18-.21-11.45,9.39-11.45-9.39-.18,.21Z"/><rect class="b" x="37.88" y="148.55" width="3.05" height="30.44"/><polygon class="b" points="78.11 151.53 78.11 148.55 94.79 148.55 94.79 151.53 88 151.53 88 179 84.9 179 84.9 151.53 78.11 151.53"/><polygon class="b" points="101.17 148.55 118.62 148.55 118.62 151.53 104.21 151.53 104.21 161.07 118.5 161.07 118.5 164.05 104.21 164.05 104.21 176.02 118.5 176.02 118.5 178.99 101.17 178.99 101.17 148.55"/><g><path class="b" d="M129.05,151.53v10.35l5.24,.04c2.03,0,3.53-.19,4.51-.58,.97-.39,1.74-1.01,2.28-1.85,.54-.85,.82-1.8,.82-2.84s-.28-1.95-.83-2.78c-.55-.84-1.28-1.43-2.18-1.79-.9-.35-2.39-.54-4.48-.54h-5.37Zm-3.04-2.98h6.06c3.38,0,5.67,.14,6.87,.41,1.81,.42,3.28,1.3,4.41,2.66,1.13,1.36,1.7,3.04,1.7,5.03,0,1.66-.39,3.12-1.17,4.37-.78,1.26-1.89,2.21-3.34,2.85-1.45,.64-3.45,.97-6,.98l10.95,14.13h-3.77l-10.95-14.13h-1.72v14.13h-3.04v-30.44Z"/><path class="b" d="M201.41,150.74c-2.25,0-4.39,.59-6.4,1.76-2.02,1.17-3.59,2.75-4.73,4.74-1.13,1.99-1.7,4.2-1.7,6.65,0,3.62,1.26,6.67,3.76,9.16,2.51,2.49,5.53,3.74,9.07,3.74,2.36,0,4.55-.57,6.56-1.72,2.01-1.15,3.58-2.71,4.71-4.7,1.13-1.99,1.69-4.2,1.69-6.63s-.56-4.6-1.69-6.56c-1.13-1.95-2.71-3.52-4.76-4.69-2.05-1.17-4.22-1.76-6.51-1.76m-.13-2.96c4.61,0,8.47,1.54,11.58,4.61,3.1,3.08,4.66,6.87,4.66,11.36s-1.55,8.23-4.65,11.34c-3.1,3.1-6.88,4.66-11.34,4.66s-8.32-1.55-11.43-4.64c-3.11-3.09-4.66-6.83-4.66-11.22,0-2.93,.71-5.64,2.12-8.13,1.41-2.5,3.34-4.46,5.79-5.87,2.45-1.41,5.09-2.12,7.94-2.12"/><path class="b" d="M223.73,148.55h3.04v18.38c0,2.18,.04,3.54,.12,4.08,.15,1.2,.51,2.21,1.06,3.02,.55,.81,1.4,1.48,2.55,2.03,1.14,.54,2.3,.82,3.46,.82,1.01,0,1.97-.21,2.9-.65,.92-.42,1.7-1.02,2.32-1.78,.62-.76,1.08-1.68,1.37-2.75,.21-.77,.31-2.36,.31-4.76v-18.38h3.04v18.38c0,2.72-.27,4.92-.8,6.59-.53,1.68-1.59,3.14-3.18,4.38-1.59,1.25-3.52,1.86-5.79,1.86-2.46,0-4.56-.59-6.31-1.76-1.75-1.17-2.93-2.73-3.52-4.66-.37-1.19-.56-3.33-.56-6.42v-18.38Z"/></g><polygon class="b" points="279.71 151.53 279.71 148.55 296.39 148.55 296.39 151.53 289.6 151.53 289.6 179 286.5 179 286.5 151.53 279.71 151.53"/><path class="b" d="M310.86,155.02l-5.21,11.02h10.41l-5.2-11.02Zm.39-6.47l14.2,30.44h-3.29l-4.79-10.01h-13.11l-4.74,10.01h-3.4l14.39-30.44h.75Z"/><rect class="b" x="328.75" y="148.55" width="3.04" height="30.44"/><path class="b" d="M252.26,150.37l.97-1.19,20.09,16.49v-16.49h1.53v19.75l-22.59-18.57Zm21.19,26.8l-.98,1.19-20.09-16.49v16.49h-1.52v-19.75l22.59,18.56Z"/><path class="b" d="M272.56,179.23l-19.56-16.05v15.8h-2.76v-21.67l24.07,19.78-1.76,2.14Zm-21.08-1.48h.29v-17.17l20.62,16.92,.19-.24-21.11-17.34v17.83Zm23.99-7.51l-24.08-19.78,1.76-2.14,19.56,16.05v-15.8h2.76v21.67Zm-22.34-19.96l21.11,17.35v-17.83h-.3v17.17l-20.62-16.92-.19,.23Z"/><path class="b" d="M340.32,150.37l.98-1.19,20.09,16.49v-16.49h1.52v19.75l-22.59-18.57Zm21.2,26.8l-.98,1.19-20.09-16.49v16.49h-1.53v-19.75l22.59,18.56Z"/><path class="b" d="M360.62,179.23l-19.56-16.05v15.8h-2.76v-21.67l24.08,19.78-1.76,2.14Zm-21.09-1.48h.3v-17.17l20.62,16.92,.19-.24-21.11-17.34v17.83Zm23.99-7.51l-24.08-19.79,1.76-2.14,19.56,16.05v-15.8h2.76v21.67Zm-22.34-19.95l21.11,17.35v-17.83h-.29v17.17l-20.62-16.92-.19,.24Z"/><g><path class="c" d="M203.97,59.67c-1.09,.08-2.19,.14-3.28,.17-5.96,.16-11.88-.47-17.8-.96-.57-.05-1.31-.1-2.16-.16l12.19,10,11.05-9.06Z"/><path class="c" d="M192.68,84.48l-17.65-14.6,1.38-1.61,16.27,13.34,16.27-13.34,1.38,1.61-17.65,14.6Zm62.2,13.22c-1.17-1.53-2.22-3.13-2.94-4.92-.06-.16-.13-.35-.1-.51,.39-1.83,.03-3.57-.61-5.28-.56-1.49-1.35-2.85-2.25-4.15-.36-.52,.25-2.36,.48-2.81,.18-.35,.42-.67,.64-1.01,.14-.21,.7-.42,.5-.71-1.23-1.75-2.92-.02-3.89,0-.51,0-.96-.13-1.37-.48-4.57-3.85-9.15-7.68-13.72-11.53-3.6-3.03-4.05-3.33-7.83-6.15-1.87-1.39-6.75-2.69-8.9-1.89-.45,.17-.89,.23-1.31,.24l-20.65,17.08-20.2-16.7c-3.12,.33-6.41,1.09-9.28,2.64-3.67,1.98-7.48,3.61-10.77,6.22-5.68,4.52-8.56,10.41-8.72,17.65-.07,2.98,.22,5.92,.75,8.85,.16,.9,.29,1.8,.79,2.64,3.89,6.45,7.26,13.16,9.84,20.25,.36,1,.79,1.98,1.01,3.01,.38,1.73,.62,3.48,.9,5.23,.05,.29,.16,.39,.44,.42,.69,.06,1.38,.16,2.07,.24,1.86,.19,3.72,.39,5.59,.54,.44,.04,3.24-.07,3.57,0,.56,.11,4.66,.51,5.87,.18,.99-.27,1.91-.67,2.99-.62,.76,.04,1.22-.89,.93-1.59-.47-1.15-1.26-2.02-2.38-2.57-.59-.3-1.16-.37-1.82-.1-1.48,.6-2.7,.11-3.46-1.3-.14-.26-.25-.53-.35-.81-.43-1.18-.53-2.42-.54-3.67-.02-2.49,22.46-29.88,40.84,11.44,.12,.14,.33,.25,.52,.28,2.95,.44,5.9,.82,8.89,.85,1.88,.01,3.75-.09,5.56-.64,.86-.26,1.68-.61,2.41-1.15-.1-.21-.21-.37-.27-.55-.21-.6-.64-.97-1.18-1.3-1.79-1.06-3.53-2.2-5.32-3.25-1.22-.72-2.01-1.75-2.54-3.02-.46-1.1-.61-2.28-.71-3.45-.12-1.46-.32-2.89-.85-4.27-.47-1.23-.73-2.52-.77-3.85-.06-1.77,.34-3.4,1.59-4.73,1.09-1.16,2.48-1.78,4-2.13,2.14-.5,4.31-.46,6.47-.22,.62,.07,1.3,.1,1.84,.39,2.15,1.14,4.38,2.05,6.76,2.56,2.42,.52,4.86,.95,7.29,1.45,.37,.07,.53-.01,.68-.32,.22-.44,.48-.87,.72-1.3,.2,.06,.36,.11,.51,.17,1.95,.64,3.94,.98,6.01,.74,.66-.08,1.23-.24,1.68-.8,.49-.62,1.08-1.17,1.62-1.75,.33-.35,.66-.7,.97-1.04-.68-.84-1.35-1.62-1.97-2.45"/></g></g></g></svg>