<?xml version="1.0" encoding="UTF-8"?><svg id="a" xmlns="http://www.w3.org/2000/svg" xmlns:xlink="http://www.w3.org/1999/xlink" viewBox="0 0 434.06 70.88"><defs><style>.c{fill:#51312d;}.d{clip-path:url(#b);}.e{fill:#008da5;}</style><clipPath id="b"><path class="e" d="M157.86,38.3c-.16,.32-.37,.6-.65,.82s-.6,.38-.96,.5c-.37,.12-.76,.16-1.18,.16h-1.25v2.26h-1.66v-7.52h3.07c.45,0,.86,.06,1.2,.19,.36,.13,.66,.3,.9,.53s.44,.5,.57,.82,.2,.67,.2,1.05v.02c0,.45-.09,.83-.24,1.16h0Zm-1.44-1.13c0-.37-.12-.66-.36-.85-.24-.2-.57-.29-.98-.29h-1.27v2.29h1.31c.42,0,.74-.1,.96-.32s.35-.49,.35-.81v-.02h-.01Zm17.55,4.9l-1.61-2.41h-1.3v2.41h-1.66v-7.52h3.44c.89,0,1.59,.22,2.09,.66,.5,.44,.74,1.04,.74,1.83v.02c0,.61-.15,1.1-.44,1.48-.3,.38-.68,.66-1.17,.85l1.83,2.69h-1.92Zm.02-4.98c0-.36-.12-.63-.35-.8s-.54-.27-.95-.27h-1.64v2.15h1.68c.41,0,.72-.09,.94-.29s.32-.45,.32-.78v-.02h0Zm13.34,4.98v-7.52h1.66v7.52h-1.66Zm18.89,0l-3.64-4.77v4.77h-1.63v-7.52h1.53l3.52,4.62v-4.62h1.63v7.52h-1.41Zm16.71-5.99v5.99h-1.66v-5.99h-2.28v-1.53h6.23v1.53h-2.29Zm32.66,2.23c-.16,.32-.37,.6-.65,.82s-.6,.38-.96,.5-.76,.16-1.18,.16h-1.25v2.26h-1.66v-7.52h3.07c.45,0,.86,.06,1.2,.19,.36,.13,.66,.3,.9,.53s.44,.5,.57,.82,.2,.67,.2,1.05v.02c0,.45-.08,.83-.24,1.16h0Zm-1.44-1.13c0-.37-.12-.66-.36-.85-.24-.2-.57-.29-.98-.29h-1.27v2.29h1.31c.42,0,.74-.1,.96-.32,.23-.22,.35-.49,.35-.81v-.02h-.01Zm20.35,2.65c-.2,.46-.47,.88-.83,1.24s-.78,.64-1.26,.83c-.49,.21-1.02,.3-1.6,.3s-1.11-.1-1.6-.3c-.49-.21-.9-.47-1.26-.82s-.63-.75-.82-1.23-.29-.97-.29-1.51v-.02c0-.53,.1-1.04,.3-1.51,.2-.46,.47-.88,.83-1.24s.78-.64,1.26-.83c.49-.21,1.02-.3,1.61-.3s1.11,.1,1.6,.3c.49,.21,.9,.47,1.26,.82s.63,.75,.82,1.23c.2,.47,.29,.97,.29,1.51v.02c0,.53-.1,1.03-.31,1.51h0Zm-1.42-1.52c0-.32-.06-.63-.16-.92s-.27-.53-.47-.75c-.21-.22-.44-.38-.73-.51s-.58-.19-.92-.19-.64,.06-.92,.19c-.28,.13-.51,.29-.71,.51s-.35,.46-.46,.74-.16,.58-.16,.9v.02c0,.32,.06,.63,.16,.92s.27,.53,.47,.75c.21,.21,.44,.38,.72,.51,.28,.13,.58,.19,.92,.19s.64-.06,.92-.19c.28-.12,.52-.29,.72-.51s.35-.46,.46-.74,.16-.59,.16-.9v-.02h0Zm17.84,3.77l-1.61-2.41h-1.3v2.41h-1.66v-7.52h3.44c.89,0,1.59,.22,2.09,.66,.5,.44,.74,1.04,.74,1.83v.02c0,.61-.15,1.1-.44,1.48-.3,.38-.68,.66-1.16,.85l1.83,2.69h-1.93Zm.03-4.98c0-.36-.12-.63-.35-.8s-.54-.27-.96-.27h-1.64v2.15h1.68c.41,0,.72-.09,.94-.29s.32-.45,.32-.78v-.02h.01Zm16.67-1.01v5.99h-1.66v-5.99h-2.28v-1.53h6.23v1.53h-2.29Zm19.24,5.99l-.68-1.69h-3.17l-.68,1.69h-1.69l3.22-7.56h1.53l3.22,7.56h-1.75Zm-2.28-5.58l-1,2.43h1.99l-1-2.43h.01Zm15.25,5.58v-7.52h1.66v6.02h3.74v1.49h-5.4Z"/></clipPath></defs><g><path class="e" d="M157.86,38.3c-.16,.32-.37,.6-.65,.82s-.6,.38-.96,.5c-.37,.12-.76,.16-1.18,.16h-1.25v2.26h-1.66v-7.52h3.07c.45,0,.86,.06,1.2,.19,.36,.13,.66,.3,.9,.53s.44,.5,.57,.82,.2,.67,.2,1.05v.02c0,.45-.09,.83-.24,1.16h0Zm-1.44-1.13c0-.37-.12-.66-.36-.85-.24-.2-.57-.29-.98-.29h-1.27v2.29h1.31c.42,0,.74-.1,.96-.32s.35-.49,.35-.81v-.02h-.01Zm17.55,4.9l-1.61-2.41h-1.3v2.41h-1.66v-7.52h3.44c.89,0,1.59,.22,2.09,.66,.5,.44,.74,1.04,.74,1.83v.02c0,.61-.15,1.1-.44,1.48-.3,.38-.68,.66-1.17,.85l1.83,2.69h-1.92Zm.02-4.98c0-.36-.12-.63-.35-.8s-.54-.27-.95-.27h-1.64v2.15h1.68c.41,0,.72-.09,.94-.29s.32-.45,.32-.78v-.02h0Zm13.34,4.98v-7.52h1.66v7.52h-1.66Zm18.89,0l-3.64-4.77v4.77h-1.63v-7.52h1.53l3.52,4.62v-4.62h1.63v7.52h-1.41Zm16.71-5.99v5.99h-1.66v-5.99h-2.28v-1.53h6.23v1.53h-2.29Zm32.66,2.23c-.16,.32-.37,.6-.65,.82s-.6,.38-.96,.5-.76,.16-1.18,.16h-1.25v2.26h-1.66v-7.52h3.07c.45,0,.86,.06,1.2,.19,.36,.13,.66,.3,.9,.53s.44,.5,.57,.82,.2,.67,.2,1.05v.02c0,.45-.08,.83-.24,1.16h0Zm-1.44-1.13c0-.37-.12-.66-.36-.85-.24-.2-.57-.29-.98-.29h-1.27v2.29h1.31c.42,0,.74-.1,.96-.32,.23-.22,.35-.49,.35-.81v-.02h-.01Zm20.35,2.65c-.2,.46-.47,.88-.83,1.24s-.78,.64-1.26,.83c-.49,.21-1.02,.3-1.6,.3s-1.11-.1-1.6-.3c-.49-.21-.9-.47-1.26-.82s-.63-.75-.82-1.23-.29-.97-.29-1.51v-.02c0-.53,.1-1.04,.3-1.51,.2-.46,.47-.88,.83-1.24s.78-.64,1.26-.83c.49-.21,1.02-.3,1.61-.3s1.11,.1,1.6,.3c.49,.21,.9,.47,1.26,.82s.63,.75,.82,1.23c.2,.47,.29,.97,.29,1.51v.02c0,.53-.1,1.03-.31,1.51h0Zm-1.42-1.52c0-.32-.06-.63-.16-.92s-.27-.53-.47-.75c-.21-.22-.44-.38-.73-.51s-.58-.19-.92-.19-.64,.06-.92,.19c-.28,.13-.51,.29-.71,.51s-.35,.46-.46,.74-.16,.58-.16,.9v.02c0,.32,.06,.63,.16,.92s.27,.53,.47,.75c.21,.21,.44,.38,.72,.51,.28,.13,.58,.19,.92,.19s.64-.06,.92-.19c.28-.12,.52-.29,.72-.51s.35-.46,.46-.74,.16-.59,.16-.9v-.02h0Zm17.84,3.77l-1.61-2.41h-1.3v2.41h-1.66v-7.52h3.44c.89,0,1.59,.22,2.09,.66,.5,.44,.74,1.04,.74,1.83v.02c0,.61-.15,1.1-.44,1.48-.3,.38-.68,.66-1.16,.85l1.83,2.69h-1.93Zm.03-4.98c0-.36-.12-.63-.35-.8s-.54-.27-.96-.27h-1.64v2.15h1.68c.41,0,.72-.09,.94-.29s.32-.45,.32-.78v-.02h.01Zm16.67-1.01v5.99h-1.66v-5.99h-2.28v-1.53h6.23v1.53h-2.29Zm19.24,5.99l-.68-1.69h-3.17l-.68,1.69h-1.69l3.22-7.56h1.53l3.22,7.56h-1.75Zm-2.28-5.58l-1,2.43h1.99l-1-2.43h.01Zm15.25,5.58v-7.52h1.66v6.02h3.74v1.49h-5.4Z"/><g class="d"><rect class="e" x="152.16" y="30.12" width="193.07" height="14.28"/></g></g><rect class="c" x="135.79" y="16.33" width=".51" height="44.06"/><polygon class="e" points="51.9 55.14 54.21 55.14 54.21 55.58 52.3 55.58 52.3 56.99 54.19 56.99 54.19 57.44 52.3 57.44 52.3 59.21 54.19 59.21 54.19 59.65 51.9 59.65 51.9 55.14"/><polygon class="e" points="58 59.65 58 55.14 58.09 55.14 60.78 58.6 60.78 55.14 61.18 55.14 61.18 59.65 61.09 59.65 58.42 56.23 58.42 59.65 58 59.65"/><polygon class="e" points="64.85 55.58 64.85 55.14 67.06 55.14 67.06 55.58 66.16 55.58 66.16 59.65 65.75 59.65 65.75 55.58 64.85 55.58"/><polygon class="e" points="70.74 55.14 73.05 55.14 73.05 55.58 71.14 55.58 71.14 56.99 73.04 56.99 73.04 57.44 71.14 57.44 71.14 59.21 73.04 59.21 73.04 59.65 70.74 59.65 70.74 55.14"/><g><path class="e" d="M48.22,55.98l-.32,.27c-.18-.25-.39-.45-.63-.58-.25-.13-.52-.2-.81-.2-.32,0-.62,.09-.89,.26-.27,.17-.49,.41-.64,.7-.15,.29-.23,.62-.23,.98,0,.55,.17,1.01,.51,1.38,.34,.37,.76,.55,1.28,.55,.57,0,1.04-.25,1.42-.74l.32,.27c-.2,.29-.45,.51-.75,.66-.3,.16-.64,.24-1.01,.24-.71,0-1.26-.26-1.67-.79-.34-.44-.51-.98-.51-1.61,0-.66,.21-1.22,.62-1.67,.41-.45,.93-.68,1.56-.68,.38,0,.72,.08,1.02,.25,.3,.17,.55,.4,.75,.7"/><g><path class="e" d="M77.5,55.58v1.53h.7c.27,0,.47-.02,.6-.08,.13-.06,.23-.15,.3-.27,.07-.12,.11-.26,.11-.42s-.04-.29-.11-.41c-.07-.12-.17-.21-.29-.27-.12-.05-.32-.08-.59-.08h-.71Zm-.4-.44h.8c.45,0,.75,.02,.91,.06,.24,.06,.43,.19,.59,.39,.15,.2,.22,.45,.22,.75,0,.25-.05,.46-.16,.65-.1,.19-.25,.33-.44,.42-.19,.1-.46,.14-.8,.15l1.45,2.1h-.5l-1.45-2.1h-.23v2.1h-.4v-4.51Z"/><path class="e" d="M83.17,58.81l.34-.23c.24,.5,.52,.75,.84,.75,.14,0,.26-.03,.38-.11,.12-.07,.21-.17,.27-.28,.06-.12,.09-.24,.09-.38,0-.15-.05-.3-.14-.44-.13-.2-.36-.44-.69-.72-.34-.28-.55-.49-.63-.62-.14-.21-.21-.44-.21-.69,0-.2,.04-.38,.13-.54,.08-.16,.2-.29,.36-.38,.15-.09,.32-.14,.5-.14,.19,0,.37,.05,.53,.16,.17,.1,.34,.3,.53,.58l-.33,.28c-.15-.22-.28-.37-.39-.44-.11-.07-.23-.11-.35-.11-.16,0-.3,.06-.4,.17-.1,.11-.16,.25-.16,.41,0,.1,.02,.19,.05,.28,.04,.09,.1,.19,.2,.3,.05,.06,.23,.21,.52,.45,.35,.29,.59,.55,.72,.77,.13,.23,.2,.45,.2,.68,0,.33-.11,.61-.33,.85-.22,.24-.49,.36-.81,.36-.25,0-.47-.07-.67-.22-.2-.15-.38-.39-.55-.74"/></g><path class="e" d="M13.73,42.07l.33-.41,7.08,5.98v-5.98h.52v7.09l-7.94-6.68Zm7.66,9.16l-.33,.41-7.07-5.97v5.97h-.52v-7.09l7.93,6.68Z"/><path class="e" d="M21.08,51.93l-6.89-5.82v5.73h-.94v-7.75l8.43,7.11-.6,.73Zm-7.41-.51h.1v-6.22l7.25,6.13,.07-.08-7.42-6.26v6.43Zm8.2-2.22l-8.44-7.11,.6-.73,6.9,5.82v-5.73h.94v7.75Zm-7.85-7.17l7.43,6.26v-6.43h-.1v6.22l-7.26-6.13-.07,.08Z"/><polygon class="c" points="53.38 48.86 49.15 45.38 49.15 51.6 48.63 51.6 48.63 44.26 53.38 48.18 58.14 44.26 58.14 51.6 57.62 51.6 57.62 45.38 53.38 48.86"/><path class="c" d="M58.35,51.81h-.94v-5.99l-4.02,3.31-4.02-3.31v5.99h-.94v-8l4.96,4.09,4.96-4.09v8Zm-.52-.42h.1v-6.68l-4.54,3.74-4.54-3.74v6.68h.1v-6.46l4.44,3.65,4.44-3.65v6.46Z"/><polygon class="e" points="49.11 42.07 49.44 41.68 53.38 44.91 57.32 41.68 57.66 42.07 53.38 45.61 49.11 42.07"/><path class="e" d="M53.38,45.88l-4.57-3.78,.61-.71,3.97,3.25,3.97-3.25,.61,.71-4.57,3.78Zm-3.98-3.83l3.98,3.29,3.98-3.29-.06-.07-3.92,3.21-3.92-3.21-.06,.07Z"/><rect class="e" x="9.58" y="41.44" width="1.04" height="10.41"/><polygon class="e" points="23.34 42.46 23.34 41.44 29.04 41.44 29.04 42.46 26.72 42.46 26.72 51.85 25.66 51.85 25.66 42.46 23.34 42.46"/><polygon class="e" points="31.22 41.44 37.19 41.44 37.19 42.46 32.26 42.46 32.26 45.72 37.15 45.72 37.15 46.74 32.26 46.74 32.26 50.83 37.15 50.83 37.15 51.85 31.22 51.85 31.22 41.44"/><g><path class="e" d="M40.76,42.46v3.54h1.79c.7,.01,1.21-.05,1.54-.18,.33-.13,.59-.34,.78-.63,.19-.29,.28-.61,.28-.97s-.09-.67-.28-.95c-.19-.29-.44-.49-.74-.61-.31-.12-.82-.18-1.53-.18h-1.84Zm-1.04-1.02h2.07c1.16,0,1.94,.05,2.35,.14,.62,.14,1.12,.45,1.51,.91,.39,.47,.58,1.04,.58,1.72,0,.57-.13,1.07-.4,1.49-.27,.43-.65,.76-1.14,.98-.5,.22-1.18,.33-2.05,.34l3.74,4.83h-1.29l-3.74-4.83h-.59v4.83h-1.04v-10.41Z"/><path class="e" d="M65.5,42.19c-.77,0-1.5,.2-2.19,.6-.69,.4-1.23,.94-1.62,1.62-.39,.68-.58,1.44-.58,2.27,0,1.24,.43,2.28,1.29,3.13,.86,.85,1.89,1.28,3.1,1.28,.81,0,1.56-.2,2.24-.59,.69-.39,1.22-.93,1.61-1.61,.38-.68,.58-1.44,.58-2.27s-.19-1.57-.58-2.24c-.39-.67-.93-1.2-1.63-1.6-.7-.4-1.44-.6-2.23-.6m-.05-1.01c1.58,0,2.9,.53,3.96,1.58,1.06,1.05,1.59,2.35,1.59,3.89s-.53,2.82-1.59,3.88c-1.06,1.06-2.35,1.59-3.88,1.59s-2.85-.53-3.91-1.59c-1.06-1.06-1.59-2.34-1.59-3.84,0-1,.24-1.93,.73-2.78,.48-.86,1.14-1.52,1.98-2.01,.84-.48,1.74-.73,2.71-.73"/><path class="e" d="M73.12,41.44h1.04v6.28c0,.75,.01,1.21,.04,1.39,.05,.41,.17,.75,.36,1.03,.19,.28,.48,.51,.87,.69,.39,.19,.78,.28,1.18,.28,.34,0,.67-.07,.99-.22,.32-.15,.58-.35,.79-.61,.21-.26,.37-.57,.47-.94,.07-.26,.11-.81,.11-1.63v-6.28h1.04v6.28c0,.93-.09,1.68-.27,2.25-.18,.57-.54,1.07-1.09,1.5-.54,.43-1.2,.64-1.98,.64-.84,0-1.56-.2-2.16-.6-.6-.4-1-.93-1.2-1.59-.13-.41-.19-1.14-.19-2.19v-6.28Z"/></g><polygon class="e" points="92.27 42.46 92.27 41.44 97.97 41.44 97.97 42.46 95.65 42.46 95.65 51.85 94.59 51.85 94.59 42.46 92.27 42.46"/><path class="e" d="M102.92,43.65l-1.78,3.77h3.56l-1.78-3.77Zm.13-2.21l4.85,10.41h-1.12l-1.64-3.42h-4.48l-1.62,3.42h-1.16l4.92-10.41h.26Z"/><rect class="e" x="109.03" y="41.44" width="1.04" height="10.41"/><path class="e" d="M82.88,42.07l.33-.41,6.87,5.64v-5.64h.52v6.75l-7.72-6.35Zm7.25,9.16l-.33,.41-6.87-5.64v5.64h-.52v-6.75l7.72,6.35Z"/><path class="e" d="M89.82,51.93l-6.69-5.49v5.4h-.94v-7.41l8.23,6.76-.6,.73Zm-7.21-.51h.1v-5.87l7.05,5.79,.07-.08-7.22-5.93v6.1Zm8.2-2.57l-8.23-6.76,.6-.73,6.69,5.49v-5.4h.94v7.41Zm-7.64-6.82l7.22,5.93v-6.1h-.1v5.87l-7.05-5.79-.07,.08Z"/><path class="e" d="M112.99,42.07l.33-.41,6.87,5.64v-5.64h.52v6.75l-7.72-6.35Zm7.25,9.16l-.33,.41-6.87-5.64v5.64h-.52v-6.75l7.72,6.35Z"/><path class="e" d="M119.93,51.93l-6.69-5.49v5.4h-.94v-7.41l8.23,6.76-.6,.73Zm-7.21-.51h.1v-5.87l7.05,5.79,.07-.08-7.22-5.93v6.1Zm8.2-2.57l-8.23-6.76,.6-.73,6.69,5.49v-5.4h.94v7.41Zm-7.64-6.82l7.22,5.93v-6.1h-.1v5.87l-7.05-5.79-.07,.08Z"/><g><path class="c" d="M66.37,11.06c-.37,.03-.75,.05-1.12,.06-2.04,.06-4.06-.16-6.09-.33-.2-.02-.45-.04-.74-.05l4.17,3.42,3.78-3.1Z"/><path class="c" d="M62.51,19.54l-6.03-4.99,.47-.55,5.56,4.56,5.56-4.56,.47,.55-6.03,4.99Zm21.27,4.52c-.4-.52-.76-1.07-1.01-1.68-.02-.05-.04-.12-.03-.17,.13-.63,.01-1.22-.21-1.81-.19-.51-.46-.97-.77-1.42-.12-.18,.09-.81,.16-.96,.06-.12,.14-.23,.22-.34,.05-.07,.24-.14,.17-.24-.42-.6-1,0-1.33,0-.18,0-.33-.04-.47-.16-1.56-1.32-3.13-2.63-4.69-3.94-1.23-1.04-1.38-1.14-2.68-2.1-.64-.48-2.31-.92-3.04-.65-.15,.06-.3,.08-.45,.08l-7.06,5.84-6.91-5.71c-1.07,.11-2.19,.37-3.17,.9-1.25,.68-2.56,1.23-3.68,2.13-1.94,1.54-2.93,3.56-2.98,6.04-.02,1.02,.08,2.03,.26,3.03,.06,.31,.1,.62,.27,.9,1.33,2.21,2.48,4.5,3.36,6.92,.12,.34,.27,.68,.35,1.03,.13,.59,.21,1.19,.31,1.79,.02,.1,.05,.13,.15,.14,.24,.02,.47,.06,.71,.08,.64,.06,1.27,.13,1.91,.18,.15,.01,1.11-.02,1.22,0,.19,.04,1.59,.17,2.01,.06,.34-.09,.65-.23,1.02-.21,.26,.01,.42-.3,.32-.54-.16-.39-.43-.69-.81-.88-.2-.1-.4-.13-.62-.04-.51,.21-.92,.04-1.18-.45-.05-.09-.09-.18-.12-.28-.15-.4-.18-.83-.18-1.25,0-.85,7.68-10.22,13.96,3.91,.04,.05,.11,.09,.18,.1,1.01,.15,2.02,.28,3.04,.29,.64,0,1.28-.03,1.9-.22,.29-.09,.57-.21,.82-.39-.04-.07-.07-.13-.09-.19-.07-.2-.22-.33-.4-.44-.61-.36-1.21-.75-1.82-1.11-.42-.25-.69-.6-.87-1.03-.16-.38-.21-.78-.24-1.18-.04-.5-.11-.99-.29-1.46-.16-.42-.25-.86-.26-1.31-.02-.61,.12-1.16,.54-1.62,.37-.4,.85-.61,1.37-.73,.73-.17,1.47-.16,2.21-.07,.21,.02,.45,.04,.63,.13,.74,.39,1.5,.7,2.31,.88,.83,.18,1.66,.32,2.49,.49,.13,.03,.18,0,.23-.11,.07-.15,.16-.3,.25-.45,.07,.02,.12,.04,.18,.06,.67,.22,1.35,.33,2.05,.25,.23-.03,.42-.08,.58-.27,.17-.21,.37-.4,.56-.6,.11-.12,.22-.24,.33-.36-.23-.29-.46-.56-.67-.84"/></g></g></svg>