<?xml version="1.0" encoding="UTF-8"?>
<svg id="a" xmlns="http://www.w3.org/2000/svg" xmlns:xlink="http://www.w3.org/1999/xlink" viewBox="0 0 868.12 70.88"><defs><style>.e{fill:#005b9a;}.f{fill:url(#d);}.g{fill:#022e4a;}.h{fill:#ffcb05;}</style><linearGradient id="d" x1="1021.92" y1="-565.26" x2="1092.85" y2="-565.26" gradientTransform="translate(-131.2 -1021.92) rotate(90)" gradientUnits="userSpaceOnUse"><stop offset="0" stop-color="#fff" stop-opacity="0"/><stop offset=".14" stop-color="#fff" stop-opacity="0"/><stop offset=".27" stop-color="#fff" stop-opacity=".06"/><stop offset=".39" stop-color="#fff" stop-opacity=".13"/><stop offset=".51" stop-color="#fff" stop-opacity=".23"/><stop offset=".63" stop-color="#fff" stop-opacity=".36"/><stop offset=".74" stop-color="#fff" stop-opacity=".52"/><stop offset=".86" stop-color="#fff" stop-opacity=".71"/><stop offset=".96" stop-color="#fff" stop-opacity=".92"/><stop offset="1" stop-color="#fff"/></linearGradient></defs><g id="b"><g id="c"><polygon class="f" points="0 70.93 0 0 868.12 0 868.12 70.93 0 70.93"/></g></g><rect class="h" x="214.55" y="19.47" width=".37" height="31.93"/><g><path class="g" d="M230.54,35.4c-.12,.24-.27,.44-.47,.6s-.44,.28-.7,.36c-.27,.08-.55,.12-.86,.12h-.91v1.64h-1.2v-5.45h2.22c.33,0,.62,.04,.87,.13,.26,.09,.48,.22,.65,.39s.32,.36,.41,.6,.14,.49,.14,.76v.02c0,.33-.07,.6-.18,.84h.03Zm-1.04-.83c0-.27-.08-.48-.26-.61-.18-.14-.41-.21-.71-.21h-.92v1.66h.95c.3,0,.54-.08,.7-.24s.25-.35,.25-.59v-.02h0Z"/><path class="g" d="M242.22,38.12l-1.17-1.75h-.94v1.75h-1.2v-5.45h2.49c.65,0,1.15,.16,1.51,.48s.54,.76,.54,1.33v.02c0,.44-.11,.8-.32,1.07-.22,.28-.5,.48-.85,.61l1.33,1.95h-1.39Zm.02-3.6c0-.26-.08-.45-.25-.58s-.39-.19-.69-.19h-1.19v1.56h1.22c.29,0,.52-.07,.68-.21s.24-.33,.24-.56v-.02h0Z"/><path class="g" d="M251.9,38.12v-5.45h1.2v5.45h-1.2Z"/><path class="g" d="M265.59,38.12l-2.64-3.46v3.46h-1.18v-5.45h1.11l2.55,3.35v-3.35h1.18v5.45h-1.02Z"/><path class="g" d="M277.69,33.78v4.34h-1.2v-4.34h-1.65v-1.11h4.52v1.11h-1.67Z"/><path class="g" d="M301.36,35.4c-.12,.24-.27,.44-.47,.6s-.44,.28-.7,.36-.55,.12-.86,.12h-.91v1.64h-1.2v-5.45h2.22c.33,0,.62,.04,.87,.13,.26,.09,.48,.22,.65,.39,.18,.17,.32,.36,.41,.6s.14,.49,.14,.76v.02c0,.33-.06,.6-.18,.84h.03Zm-1.04-.83c0-.27-.08-.48-.26-.61-.18-.14-.41-.21-.71-.21h-.92v1.66h.95c.3,0,.54-.08,.7-.24,.17-.16,.25-.35,.25-.59v-.02h-.01Z"/><path class="g" d="M315.06,36.49c-.14,.34-.34,.64-.6,.9s-.56,.46-.92,.6c-.35,.15-.74,.22-1.16,.22s-.81-.08-1.16-.22c-.35-.15-.65-.34-.92-.6s-.45-.55-.6-.89-.21-.71-.21-1.09v-.02c0-.39,.08-.76,.22-1.09,.14-.34,.34-.64,.6-.9s.56-.46,.92-.6c.35-.15,.74-.22,1.17-.22s.81,.08,1.16,.22c.35,.15,.65,.34,.92,.6s.45,.55,.6,.89c.14,.34,.21,.71,.21,1.09v.02c0,.39-.08,.75-.23,1.09Zm-1.03-1.1c0-.24-.04-.45-.12-.66s-.19-.39-.34-.55-.32-.28-.53-.37-.42-.13-.66-.13-.46,.04-.66,.13-.37,.21-.51,.37-.25,.34-.34,.54-.12,.42-.12,.65v.02c0,.24,.04,.45,.12,.66s.19,.39,.34,.55c.15,.15,.32,.28,.52,.37,.2,.09,.42,.13,.66,.13s.46-.04,.66-.13c.2-.08,.38-.21,.52-.37s.25-.34,.34-.54,.12-.43,.12-.65v-.02h0Z"/><path class="g" d="M326.97,38.12l-1.17-1.75h-.94v1.75h-1.2v-5.45h2.49c.65,0,1.15,.16,1.51,.48,.36,.32,.54,.76,.54,1.33v.02c0,.44-.11,.8-.32,1.07-.22,.28-.5,.48-.84,.61l1.33,1.95h-1.4Zm.03-3.6c0-.26-.08-.45-.25-.58s-.39-.19-.7-.19h-1.19v1.56h1.22c.29,0,.52-.07,.68-.21s.24-.33,.24-.56v-.02h0Z"/><path class="g" d="M339.06,33.78v4.34h-1.2v-4.34h-1.65v-1.11h4.52v1.11h-1.67Z"/><path class="g" d="M353.01,38.12l-.5-1.23h-2.3l-.5,1.23h-1.23l2.33-5.48h1.11l2.33,5.48h-1.24Zm-1.65-4.05l-.72,1.76h1.44l-.72-1.76Z"/><path class="g" d="M362.41,38.12v-5.45h1.2v4.37h2.71v1.08h-3.91Z"/></g><g><g><path class="g" d="M133.33,53.53c0-1.39,1.16-2.51,2.79-2.51,.72,0,1.38,.22,1.86,.62l-.7,.71c-.36-.28-.72-.37-1.09-.37-.96,0-1.66,.69-1.66,1.56s.69,1.58,1.63,1.58c.49,0,.94-.17,1.27-.51l.71,.74c-.51,.45-1.19,.72-2,.72-1.63,0-2.79-1.13-2.79-2.54h0Z"/><path class="g" d="M140.22,51.09h2.27c1.56,0,2.38,.84,2.38,1.89,0,.63-.35,1.23-1.01,1.56l1.1,1.45h-1.31l-.81-1.15c-.16,.02-.29,.04-.45,.04h-1.02v1.11h-1.14v-4.9h0Zm2.3,2.88c.67,0,1.13-.45,1.13-.98s-.46-1-1.13-1h-1.17v1.98h1.16Z"/><path class="g" d="M147.15,51.09h4.14v.91h-3v1h2.84v.9h-2.84v1.19h3.11v.91h-4.25v-4.9h0Z"/><path class="g" d="M153.58,51.09h2.13c1.74,0,2.83,1.11,2.83,2.45s-1.1,2.45-2.83,2.45h-2.13v-4.9h0Zm2.07,4c1.01,0,1.69-.65,1.69-1.54s-.67-1.54-1.69-1.54h-.93v3.08h.93Z"/><path class="g" d="M160.86,51.09h1.14v4.9h-1.14v-4.9Z"/><path class="g" d="M165.97,52h-1.8v-.91h4.74v.91h-1.8v3.99h-1.14v-3.99Z"/><path class="g" d="M173.48,54.04v-2.95h1.14v2.89c0,.73,.45,1.12,1.14,1.12s1.14-.39,1.14-1.12v-2.89h1.14v2.95c0,1.29-.93,2.04-2.29,2.04s-2.29-.74-2.29-2.04h.01Z"/><path class="g" d="M180.52,51.09h1.1l1.82,2.33c.29,.37,.63,.9,.63,.9v-3.23h1.14v4.9h-1.1l-1.76-2.24c-.35-.44-.68-.96-.68-.96v3.2h-1.14v-4.9Z"/><path class="g" d="M187.72,51.09h1.14v4.9h-1.14v-4.9Z"/><path class="g" d="M191.18,53.54c0-1.39,1.17-2.52,2.8-2.52s2.8,1.13,2.8,2.52-1.17,2.53-2.8,2.53-2.8-1.13-2.8-2.53Zm4.41,0c0-.87-.68-1.57-1.6-1.57s-1.62,.69-1.62,1.57,.69,1.57,1.62,1.57,1.6-.69,1.6-1.57Z"/><path class="g" d="M199.11,51.09h1.1l1.82,2.33c.29,.37,.63,.9,.63,.9v-3.23h1.14v4.9h-1.1l-1.76-2.24c-.35-.44-.68-.96-.68-.96v3.2h-1.14v-4.9Z"/></g><g><polygon class="g" points="30.05 55.96 40.61 55.96 57.08 22.55 46.52 22.55 30.05 55.96"/><polygon class="h" points="26.01 35.8 20.73 46.51 9.92 24.59 20.48 24.59 26.01 35.8"/><polygon class="e" points="21.67 48.22 32.23 48.22 48.71 14.8 38.15 14.8 21.67 48.22"/></g><g><path class="g" d="M58.37,30.01h2.85l3.74,8.95c.45,1.13,1.23,3.5,1.23,3.5,0,0,.78-2.36,1.23-3.5l3.74-8.95h2.87l-6.47,15.68h-2.73l-6.47-15.68h0Z"/><path class="g" d="M72.77,39.68c0-3.45,2.24-6.23,5.53-6.23,1.62,0,3.04,.65,3.98,1.76v-1.52h2.68v11.94h-2.68v-1.5c-.94,1.11-2.36,1.74-3.98,1.74-3.28,0-5.53-2.77-5.53-6.2h0Zm9.5,0c0-2.1-1.4-3.64-3.3-3.64-2.03,0-3.48,1.54-3.48,3.64s1.45,3.62,3.48,3.62c1.88,0,3.3-1.5,3.3-3.62Z"/><path class="g" d="M86.91,33.7h2.68v1.72c.89-1.33,2.27-1.95,3.86-1.95,3.24,0,4.3,2.15,4.3,5.33v6.85h-2.68v-6.51c0-1.95-.43-3.09-2.44-3.09-1.76,0-3.04,1.37-3.04,3.36v6.25h-2.68v-11.94h0Z"/><path class="g" d="M100.28,41.81v-5.91h-1.76v-2.19h1.76v-2.34l2.68-.55v2.89h3.59v2.19h-3.59v5.98c0,1.28,.6,1.69,1.28,1.69,.94,0,1.74-.58,1.74-.58l.8,2c-.55,.37-1.52,.89-2.87,.89-2.44,0-3.62-1.33-3.62-4.08h0Z"/><path class="g" d="M107.26,39.68c0-3.45,2.24-6.23,5.53-6.23,1.62,0,3.04,.65,3.98,1.76v-1.52h2.68v11.94h-2.68v-1.5c-.94,1.11-2.36,1.74-3.98,1.74-3.28,0-5.53-2.77-5.53-6.2h0Zm9.5,0c0-2.1-1.4-3.64-3.3-3.64-2.03,0-3.48,1.54-3.48,3.64s1.45,3.62,3.48,3.62c1.88,0,3.3-1.5,3.3-3.62Z"/><path class="g" d="M121.98,47.6l1.04-1.69c.94,.82,2.34,1.23,3.57,1.23,2.56,0,3.81-1.64,3.81-4.08v-.1c-.48,.96-1.76,2.05-3.93,2.05-3.3,0-5.47-2.56-5.47-5.76s2.17-5.79,5.47-5.79c1.81,0,3.42,.84,4.05,2.03v-1.78h2.56v9.22c0,4.18-2.8,6.27-6.23,6.27-2.05,0-3.77-.6-4.87-1.6h0Zm8.42-8.45c0-1.91-1.47-3.36-3.36-3.36s-3.33,1.47-3.33,3.45,1.45,3.42,3.33,3.42,3.36-1.45,3.36-3.52Z"/><path class="g" d="M134.63,39.68c0-3.42,2.68-6.23,6.15-6.23,3.18,0,5.74,2.77,5.74,6.13,0,.51-.07,1.04-.07,1.04h-9.05c.39,1.91,1.93,2.89,3.71,2.89,1.21,0,2.46-.37,3.42-1.04l1.06,1.98c-1.35,.92-2.95,1.42-4.53,1.42-3.4,0-6.44-2.27-6.44-6.2h0Zm9.28-1.04c-.27-1.72-1.64-2.85-3.28-2.85-1.54,0-2.89,1.13-3.26,2.85h6.54Z"/><path class="g" d="M150.77,30.01h2.8l2.97,9.43c.39,1.23,.72,2.6,.72,2.6,0,0,.34-1.35,.65-2.6l2.46-9.43h2.99l2.46,9.43c.34,1.25,.63,2.6,.63,2.6,0,0,.37-1.35,.75-2.6l2.97-9.43h2.8l-5,15.68h-2.97l-2.51-9.07c-.37-1.35-.63-3.09-.63-3.09,0,0-.27,1.74-.63,3.09l-2.51,9.07h-2.99l-4.97-15.68Z"/><path class="g" d="M172.29,39.68c0-3.42,2.68-6.23,6.15-6.23,3.18,0,5.74,2.77,5.74,6.13,0,.51-.07,1.04-.07,1.04h-9.05c.39,1.91,1.93,2.89,3.71,2.89,1.21,0,2.46-.37,3.42-1.04l1.06,1.98c-1.35,.92-2.95,1.42-4.53,1.42-3.4,0-6.44-2.27-6.44-6.2h0Zm9.28-1.04c-.27-1.72-1.64-2.85-3.28-2.85-1.54,0-2.89,1.13-3.26,2.85h6.54Z"/><path class="g" d="M185.11,44.14l1.01-2.19c.77,.63,2,1.42,3.79,1.42,1.09,0,2.36-.41,2.36-1.25s-1.21-1.09-2.39-1.42c-2.27-.63-4.2-1.31-4.2-3.64s2.39-3.59,4.49-3.59c1.78,0,2.97,.45,4.27,1.23l-.99,2.17c-1.06-.6-2.07-.89-3.26-.89-.89,0-1.78,.41-1.78,1.04,0,.82,.99,1.01,2.05,1.23,2.22,.48,4.53,1.37,4.53,3.83,0,2.8-2.87,3.81-5.09,3.81-2.46,0-4.15-1.11-4.8-1.74Z"/><path class="g" d="M197.15,41.81v-5.91h-1.76v-2.19h1.76v-2.34l2.68-.55v2.89h3.59v2.19h-3.59v5.98c0,1.28,.6,1.69,1.28,1.69,.94,0,1.74-.58,1.74-.58l.8,2c-.55,.37-1.52,.89-2.87,.89-2.44,0-3.62-1.33-3.62-4.08h0Z"/></g></g></svg>