<?xml version="1.0" encoding="UTF-8"?><svg id="a" xmlns="http://www.w3.org/2000/svg" xmlns:xlink="http://www.w3.org/1999/xlink" viewBox="0 0 868.12 70.88"><defs><style>.e{fill:#f8bd37;}.f{fill:url(#d);}.g{fill:#173654;}</style><linearGradient id="d" x1="556.92" y1="4486.26" x2="627.85" y2="4486.26" gradientTransform="translate(-4052.2 -556.92) rotate(90) scale(1 -1)" gradientUnits="userSpaceOnUse"><stop offset="0" stop-color="#fff" stop-opacity="0"/><stop offset=".14" stop-color="#fff" stop-opacity="0"/><stop offset=".27" stop-color="#fff" stop-opacity=".06"/><stop offset=".39" stop-color="#fff" stop-opacity=".13"/><stop offset=".51" stop-color="#fff" stop-opacity=".23"/><stop offset=".63" stop-color="#fff" stop-opacity=".36"/><stop offset=".74" stop-color="#fff" stop-opacity=".52"/><stop offset=".86" stop-color="#fff" stop-opacity=".71"/><stop offset=".96" stop-color="#fff" stop-opacity=".92"/><stop offset="1" stop-color="#fff"/></linearGradient></defs><g id="b"><g id="c"><polygon class="f" points="0 70.93 0 0 868.12 0 868.12 70.93 0 70.93"/></g></g><g><rect class="e" x="133.8" y="16.85" width=".89" height="41.4"/><g><path class="g" d="M45.82,24.61h-7.61c-.08,0-.15,.04-.2,.11l-10.27,16.51h-.16l-1.42-16.41c-.01-.12-.11-.21-.23-.21h-7.76c-.1,0-.19,.07-.22,.16l-8.03,25.4c-.05,.15,.06,.3,.22,.3h5.44c.1,0,.19-.07,.22-.16l3.39-11.38c.87-2.86,1.36-4.77,1.86-6.92h.16l1.52,18.26c0,.12,.11,.21,.23,.21h4.72c.08,0,.16-.04,.2-.11l11.04-18.36h.16c-.58,2.15-1.14,4.17-1.74,6.92l-2.5,11.27c-.03,.14,.08,.28,.23,.28h5.53c.11,0,.2-.08,.23-.18l5.23-25.4c.03-.14-.08-.28-.23-.28Z"/><path class="g" d="M66.95,30.89c-4.38,0-7.71,2.72-8.4,5.35-.58,2.21,.3,4.03,2.55,5.28,.66,.36,1.13,.59,1.63,.83,.45,.22,.94,.46,1.62,.82,1.26,.66,1.41,1.07,1.25,1.68-.22,.82-1.26,1.65-3.1,1.65-2.15,0-2.42-1.56-2.27-2.86,.05-.28-.01-.49-.18-.61-.17-.13-.44-.15-.8-.05l-3.02,.89c-.45,.13-.75,.48-.81,.95-.34,3.32,2.15,5.73,5.93,5.73,4.29,0,8.19-2.52,9.06-5.86,.6-2.3-.35-4.02-3-5.41-.66-.34-1.32-.65-1.91-.93-.28-.13-.56-.26-.81-.38-1.14-.55-1.58-.91-1.36-1.72,.22-.85,1.49-1.36,2.58-1.36,.57,0,1.14,.1,1.51,.44,.41,.38,.43,.98,.56,1.52,.04,.18,.1,.37,.23,.5,.13,.13,.34,.14,.59,.11l3.18-1s.64-.1,.55-1.01c-.26-2.86-2.16-4.55-5.56-4.55Z"/><path class="g" d="M82.48,45.82c-.2-.1-.47-.09-.78,.03h-.05c-.38,.14-.76,.28-1.39,.28-.82,0-1.23-.19-.84-1.67l2.28-8.59c.03-.1,.12-.17,.22-.17h4.42c.11,0,.2-.07,.22-.18l.21-.85,.63-2.16v-.02l.2-.48h-4.48c-.15,0-.26-.14-.22-.29l.95-3.74c.04-.15-.07-.29-.22-.29h-4.3c-.1,0-.2,.07-.22,.17l-1.07,3.97c-.03,.1-.12,.17-.22,.17h-2.21c-.09,0-.18,.05-.21,.14l-.12,.29s0,.02-.01,.03l-.64,2.37-.16,.57c-.04,.15,.07,.29,.22,.29h1.57c.15,0,.26,.14,.22,.29l-2.21,8.35c-1.44,5.47,2.08,6.23,4.27,6.23s3.6-.69,4.17-1.26c.25-.25,.4-.54,.37-.77l-.29-2.24c-.02-.28-.17-.41-.29-.47Z"/><path class="g" d="M122.03,30.32c-.36-.06-.77-.01-1.12-.01-3.08,0-4.92,1.99-6.43,4.14h-.12l.66-3.42c.03-.14-.08-.27-.23-.27h-4.37c-.11,0-.2,.07-.22,.17l-1.07,4.27-4.18,14.95c-.04,.15,.07,.29,.22,.29h5.1c.1,0,.2-.07,.22-.17l2.8-9.77c.77-2.94,2.66-4.91,5.07-4.91,.52,0,1.23,.02,1.74,.16,.11,.03,.23-.03,.27-.14l1.84-4.98c.05-.13-.03-.28-.17-.31Z"/><path class="g" d="M98.44,31.03c-5.38,0-10.53,4.13-11.99,9.71-1.77,6.75,2.31,9.79,6.85,9.79,4.26,0,7.09-2.34,8.67-4.01,.4-.42-.03-.59-.03-.59l-2.94-1.33c-.5-.23-.77,.11-.77,.11-.89,.95-2.05,1.66-3.83,1.66-2.56,0-3.54-1.64-3.35-3.58,0-.02,0-.03,0-.05,.01-.09,.09-.29,.09-.29h11.14c1.57,0,2.12-1.15,2.56-2.85,1.28-4.89-1.4-8.57-6.4-8.57Zm1.66,7.54c-.02,.11-.12,.19-.23,.19h-7.09c-.18,0-.29-.2-.2-.35,1.11-1.91,2.96-2.82,4.73-2.82,1.99,0,3.09,.96,2.78,2.98Z"/><path class="g" d="M52.32,29.99c-1.03-.44-2.69-.27-3-.11-.14,.08-.31,.11-.35,.27-.58,2.39-4.06,19.74-4.06,19.74-.06,.27,.15,.53,.43,.53h5.34c.38,0,.72-.27,.79-.65l3.14-17.34s-.2-1.54-2.28-2.44Z"/><path class="e" d="M56.95,31.59c-1.23-3.57,.82-7.47,4.4-8.7-3.52,1.21-7.36-.66-8.65-4.13,.11-.05,.22-.09,.33-.13l-.09-.26c-1.77,.61-3.71-.35-4.33-2.13l-.26,.09c.3,.86,.24,1.77-.16,2.58-.4,.81-1.09,1.42-1.95,1.71l.09,.26c.85-.29,1.76-.23,2.56,.17,.79,.4,1.39,1.1,1.7,1.99l.26-.09c-.57-1.64,.25-3.44,1.84-4.18,1.12,3.53-.79,7.28-4.3,8.49,3.57-1.23,7.33,.72,8.56,4.29l.02,.05Zm-6.56-9.56c-.35-.52-.82-.94-1.38-1.23-.5-.26-1.05-.38-1.6-.38-.06,0-.13,0-.19,0,1.05-.72,1.65-1.94,1.58-3.21,.73,1.06,1.96,1.66,3.23,1.6-1.07,.73-1.7,1.95-1.64,3.21Z"/><path class="e" d="M55.68,19.32v.02c-.63-1.85,.46-3.87,2.31-4.51-1.85,.64-3.87-.37-4.5-2.22,.64,1.85-.35,3.84-2.2,4.47,1.85-.64,3.76,.38,4.4,2.23Z"/><path class="g" d="M114.03,48.16c0-1.3,1.08-2.35,2.38-2.35s2.28,1.02,2.28,2.29-1.06,2.34-2.35,2.34-2.31-1.02-2.31-2.28Zm4.21-.06c0-1.02-.82-1.86-1.84-1.86s-1.89,.86-1.89,1.9,.83,1.86,1.84,1.86,1.89-.85,1.89-1.9Zm-2.85-1.28h1.06c.64,0,.99,.29,.99,.73,0,.39-.29,.63-.61,.71l.82,1.09h-.72l-.72-.99h-.22v.99h-.59v-2.53Zm.99,1.1c.33,0,.44-.15,.44-.34,0-.17-.13-.32-.44-.32h-.4v.66h.4Z"/></g><g><path class="g" d="M155.47,36.92v-4.6l-1.98,3.01h-.04l-1.96-2.98v4.57h-1.53v-7.05h1.67l1.85,2.98,1.85-2.98h1.67v7.05h-1.53Z"/><path class="g" d="M168.83,36.92l-.64-1.58h-2.98l-.64,1.58h-1.58l3.02-7.1h1.43l3.02,7.1h-1.62Zm-2.13-5.24l-.94,2.29h1.87l-.94-2.29Z"/><path class="g" d="M180.72,36.92l-1.51-2.26h-1.22v2.26h-1.55v-7.05h3.22c.84,0,1.49,.2,1.96,.61,.47,.41,.7,.98,.7,1.71v.02c0,.57-.14,1.04-.42,1.39-.28,.36-.64,.62-1.09,.79l1.72,2.52h-1.81Zm.03-4.64c0-.34-.11-.59-.32-.76-.21-.17-.51-.25-.9-.25h-1.54v2.02h1.57c.38,0,.68-.09,.88-.27s.31-.42,.31-.73v-.02Z"/><path class="g" d="M193.16,36.92l-2.19-3-.82,.85v2.16h-1.55v-7.05h1.55v3.08l2.86-3.08h1.87l-2.87,2.99,3,4.06h-1.86Z"/><path class="g" d="M200.86,36.92v-7.05h5.31v1.38h-3.78v1.43h3.32v1.38h-3.32v1.48h3.83v1.38h-5.36Z"/><path class="g" d="M215.69,31.3v5.62h-1.55v-5.62h-2.15v-1.43h5.84v1.43h-2.14Z"/><path class="g" d="M223.99,36.92v-7.05h1.55v7.05h-1.55Z"/><path class="g" d="M237.14,36.92l-3.41-4.48v4.48h-1.53v-7.05h1.43l3.3,4.34v-4.34h1.53v7.05h-1.32Z"/><path class="g" d="M250.15,36.71c-.5,.22-1.07,.33-1.72,.33-.55,0-1.05-.09-1.51-.27-.45-.18-.84-.43-1.17-.76-.33-.32-.58-.7-.76-1.15-.18-.44-.27-.93-.27-1.45v-.02c0-.5,.09-.98,.28-1.41,.18-.44,.44-.83,.77-1.16,.33-.33,.72-.59,1.17-.79,.45-.19,.94-.29,1.48-.29,.32,0,.6,.02,.86,.07,.26,.04,.5,.11,.72,.19s.43,.18,.62,.3c.19,.12,.38,.26,.56,.41l-.98,1.18c-.13-.11-.27-.21-.4-.3-.13-.09-.27-.16-.42-.22-.14-.06-.3-.11-.47-.14-.17-.03-.35-.05-.55-.05-.28,0-.55,.06-.79,.18-.25,.12-.46,.28-.64,.47-.18,.2-.33,.43-.43,.7-.1,.27-.16,.55-.16,.85v.02c0,.32,.05,.62,.16,.89,.1,.27,.25,.51,.44,.71s.42,.36,.67,.47c.26,.11,.55,.17,.86,.17,.58,0,1.06-.14,1.46-.43v-1.01h-1.56v-1.34h3.06v3.06c-.36,.31-.79,.57-1.29,.79Z"/><path class="g" d="M164.06,49.28c-.13,.27-.3,.5-.53,.68s-.5,.33-.81,.42c-.31,.1-.66,.15-1.05,.15-.54,0-1.06-.09-1.58-.28-.52-.18-.99-.47-1.41-.85l.92-1.1c.32,.26,.65,.47,.99,.62,.34,.15,.71,.23,1.11,.23,.32,0,.57-.06,.75-.18,.18-.12,.27-.28,.27-.49v-.02c0-.1-.02-.19-.06-.27-.04-.08-.11-.15-.21-.22-.1-.07-.25-.13-.43-.2-.19-.07-.43-.14-.72-.21-.36-.09-.68-.18-.97-.29s-.54-.24-.74-.4c-.2-.16-.36-.35-.47-.59s-.17-.53-.17-.88v-.02c0-.32,.06-.61,.18-.87,.12-.26,.29-.48,.51-.67s.48-.33,.78-.43c.3-.1,.63-.15,1-.15,.52,0,.99,.08,1.42,.23s.83,.38,1.19,.66l-.81,1.17c-.32-.21-.62-.38-.93-.51-.3-.12-.6-.19-.91-.19s-.53,.06-.68,.18c-.15,.12-.23,.26-.23,.44v.02c0,.11,.02,.21,.07,.3s.12,.16,.24,.23c.11,.07,.27,.13,.47,.19,.2,.06,.45,.13,.75,.21,.36,.09,.67,.2,.95,.32,.28,.12,.51,.26,.71,.42,.19,.16,.34,.36,.43,.58,.1,.22,.15,.49,.15,.8v.02c0,.35-.06,.66-.19,.93Z"/><path class="g" d="M176.31,48.77c-.14,.4-.35,.73-.62,.99-.27,.27-.59,.46-.98,.59-.38,.13-.81,.2-1.28,.2-.95,0-1.69-.26-2.24-.79s-.82-1.31-.82-2.35v-4.03h1.55v3.99c0,.58,.13,1.01,.4,1.3s.64,.44,1.12,.44,.85-.14,1.12-.42,.4-.71,.4-1.27v-4.04h1.55v3.98c0,.54-.07,1-.22,1.4Z"/><path class="g" d="M188.36,46.92c-.15,.31-.35,.57-.61,.78-.26,.21-.56,.36-.91,.47-.35,.1-.72,.16-1.11,.16h-1.18v2.11h-1.55v-7.05h2.88c.42,0,.8,.06,1.13,.18s.61,.28,.85,.5c.23,.21,.41,.47,.53,.77s.19,.63,.19,.99v.02c0,.41-.07,.77-.22,1.08Zm-1.35-1.07c0-.35-.11-.61-.34-.8-.23-.18-.53-.27-.92-.27h-1.2v2.16h1.23c.39,0,.69-.1,.91-.31s.32-.46,.32-.76v-.02Z"/><path class="g" d="M199.98,46.92c-.15,.31-.35,.57-.61,.78-.26,.21-.56,.36-.91,.47-.35,.1-.72,.16-1.11,.16h-1.18v2.11h-1.55v-7.05h2.88c.42,0,.8,.06,1.13,.18s.61,.28,.85,.5c.23,.21,.41,.47,.53,.77s.19,.63,.19,.99v.02c0,.41-.07,.77-.22,1.08Zm-1.35-1.07c0-.35-.11-.61-.34-.8-.23-.18-.53-.27-.92-.27h-1.2v2.16h1.23c.39,0,.69-.1,.91-.31s.32-.46,.32-.76v-.02Z"/><path class="g" d="M206.24,50.44v-7.05h1.55v5.65h3.51v1.4h-5.06Z"/><path class="g" d="M217.44,50.44v-7.05h1.55v7.05h-1.55Z"/><path class="g" d="M225.65,50.44v-7.05h5.31v1.38h-3.78v1.43h3.32v1.38h-3.32v1.48h3.83v1.38h-5.36Z"/><path class="g" d="M242.19,49.28c-.13,.27-.3,.5-.53,.68s-.5,.33-.81,.42c-.31,.1-.66,.15-1.05,.15-.54,0-1.06-.09-1.58-.28-.52-.18-.99-.47-1.41-.85l.92-1.1c.32,.26,.65,.47,.99,.62,.34,.15,.71,.23,1.11,.23,.32,0,.57-.06,.75-.18,.18-.12,.27-.28,.27-.49v-.02c0-.1-.02-.19-.06-.27-.04-.08-.11-.15-.21-.22-.1-.07-.25-.13-.43-.2-.19-.07-.43-.14-.72-.21-.36-.09-.68-.18-.97-.29s-.54-.24-.74-.4c-.2-.16-.36-.35-.47-.59s-.17-.53-.17-.88v-.02c0-.32,.06-.61,.18-.87,.12-.26,.29-.48,.51-.67s.48-.33,.78-.43c.3-.1,.63-.15,1-.15,.52,0,.99,.08,1.42,.23s.83,.38,1.19,.66l-.81,1.17c-.32-.21-.62-.38-.93-.51-.3-.12-.6-.19-.91-.19s-.53,.06-.68,.18c-.15,.12-.23,.26-.23,.44v.02c0,.11,.02,.21,.07,.3s.12,.16,.24,.23c.11,.07,.27,.13,.47,.19,.2,.06,.45,.13,.75,.21,.36,.09,.67,.2,.95,.32,.28,.12,.51,.26,.71,.42,.19,.16,.34,.36,.43,.58,.1,.22,.15,.49,.15,.8v.02c0,.35-.06,.66-.19,.93Z"/></g></g></svg>