<?xml version="1.0" encoding="UTF-8"?><svg id="a" xmlns="http://www.w3.org/2000/svg" xmlns:xlink="http://www.w3.org/1999/xlink" viewBox="0 0 868.12 70.88"><defs><style>.e{fill:#f8bd37;}.f{fill:url(#d);}.g{fill:#173654;}</style><linearGradient id="d" x1="556.92" y1="4486.26" x2="627.85" y2="4486.26" gradientTransform="translate(-4052.2 -556.92) rotate(90) scale(1 -1)" gradientUnits="userSpaceOnUse"><stop offset="0" stop-color="#fff" stop-opacity="0"/><stop offset=".14" stop-color="#fff" stop-opacity="0"/><stop offset=".27" stop-color="#fff" stop-opacity=".06"/><stop offset=".39" stop-color="#fff" stop-opacity=".13"/><stop offset=".51" stop-color="#fff" stop-opacity=".23"/><stop offset=".63" stop-color="#fff" stop-opacity=".36"/><stop offset=".74" stop-color="#fff" stop-opacity=".52"/><stop offset=".86" stop-color="#fff" stop-opacity=".71"/><stop offset=".96" stop-color="#fff" stop-opacity=".92"/><stop offset="1" stop-color="#fff"/></linearGradient></defs><g id="b"><g id="c"><polygon class="f" points="0 70.93 0 0 868.12 0 868.12 70.93 0 70.93"/></g></g><g><rect class="e" x="125.13" y="18.16" width=".83" height="38.5"/><g><path class="g" d="M43.31,25.37h-7.08c-.07,0-.14,.04-.18,.1l-9.55,15.36h-.15l-1.32-15.26c0-.11-.1-.2-.21-.2h-7.22c-.09,0-.18,.06-.2,.15l-7.46,23.62c-.04,.14,.06,.28,.2,.28h5.06c.09,0,.18-.06,.21-.15l3.15-10.59c.81-2.66,1.27-4.43,1.73-6.44h.15l1.42,16.98c0,.11,.1,.2,.21,.2h4.39c.08,0,.14-.04,.18-.1l10.27-17.07h.15c-.54,2-1.06,3.88-1.62,6.44l-2.33,10.48c-.03,.13,.07,.26,.21,.26h5.14c.1,0,.19-.07,.21-.17l4.86-23.62c.03-.13-.07-.26-.21-.26Z"/><path class="g" d="M62.96,31.21c-4.07,0-7.17,2.53-7.81,4.98-.54,2.05,.28,3.75,2.37,4.91,.61,.33,1.05,.55,1.51,.77,.42,.21,.87,.43,1.51,.76,1.17,.62,1.31,.99,1.16,1.56-.2,.76-1.17,1.54-2.88,1.54-2,0-2.25-1.45-2.11-2.66,.04-.26-.01-.46-.16-.57-.16-.12-.41-.14-.74-.05l-2.81,.82c-.41,.12-.69,.45-.75,.88-.32,3.09,2,5.33,5.51,5.33,3.99,0,7.61-2.34,8.43-5.45,.56-2.14-.33-3.74-2.79-5.03-.62-.32-1.23-.61-1.77-.86-.26-.12-.52-.24-.75-.36-1.06-.51-1.47-.84-1.27-1.6,.21-.79,1.38-1.26,2.4-1.26,.53,0,1.06,.09,1.4,.41,.38,.36,.4,.92,.52,1.42,.04,.17,.09,.34,.21,.46,.12,.12,.32,.13,.54,.1l2.96-.93s.59-.09,.52-.94c-.24-2.66-2.01-4.24-5.17-4.24Z"/><path class="g" d="M77.4,45.09c-.19-.09-.44-.08-.73,.03h-.04c-.35,.13-.71,.26-1.29,.26-.77,0-1.14-.18-.78-1.56l2.12-7.99c.02-.09,.11-.16,.21-.16h4.11c.1,0,.19-.07,.21-.16l.19-.79,.59-2.01v-.02l.18-.45h-4.17c-.14,0-.24-.13-.21-.27l.88-3.47c.03-.14-.07-.27-.21-.27h-4c-.1,0-.18,.06-.21,.16l-1,3.69c-.03,.09-.11,.16-.21,.16h-2.05c-.09,0-.16,.05-.2,.13l-.11,.27s0,.02-.01,.03l-.59,2.21-.15,.53c-.04,.14,.06,.27,.21,.27h1.46c.14,0,.24,.13,.21,.27l-2.06,7.76c-1.34,5.08,1.94,5.79,3.97,5.79s3.35-.64,3.88-1.17c.24-.24,.37-.5,.35-.72l-.27-2.08c-.02-.26-.16-.38-.27-.43Z"/><path class="g" d="M114.18,30.68c-.33-.05-.72,0-1.04,0-2.87,0-4.57,1.85-5.98,3.85h-.11l.61-3.18c.03-.13-.08-.26-.21-.26h-4.07c-.1,0-.18,.07-.21,.16l-.99,3.97-3.89,13.9c-.04,.14,.07,.27,.21,.27h4.74c.1,0,.18-.06,.21-.16l2.6-9.09c.72-2.73,2.47-4.57,4.71-4.57,.49,0,1.14,.02,1.61,.15,.11,.03,.21-.03,.25-.13l1.71-4.63c.05-.12-.03-.26-.16-.29Z"/><path class="g" d="M92.24,31.34c-5,0-9.79,3.85-11.15,9.03-1.65,6.28,2.15,9.1,6.37,9.1,3.97,0,6.59-2.18,8.06-3.73,.37-.39-.03-.55-.03-.55l-2.74-1.24c-.47-.21-.72,.1-.72,.1-.83,.88-1.9,1.54-3.56,1.54-2.38,0-3.29-1.52-3.11-3.33,0-.02,0-.03,0-.05,.01-.09,.08-.27,.08-.27h10.36c1.46,0,1.97-1.07,2.38-2.65,1.19-4.54-1.3-7.97-5.95-7.97Zm1.54,7.01c-.02,.1-.11,.18-.21,.18h-6.59c-.17,0-.27-.18-.18-.33,1.03-1.78,2.76-2.63,4.4-2.63,1.85,0,2.87,.89,2.59,2.77Z"/><path class="g" d="M49.35,30.37c-.95-.41-2.5-.25-2.79-.1-.13,.07-.29,.1-.33,.25-.54,2.22-3.78,18.36-3.78,18.36-.05,.25,.14,.49,.4,.49h4.96c.36,0,.67-.25,.73-.6l2.92-16.13s-.19-1.43-2.12-2.27Z"/><path class="e" d="M53.66,31.86c-1.14-3.32,.77-6.95,4.09-8.09-3.27,1.13-6.84-.61-8.04-3.84,.1-.05,.2-.09,.31-.12l-.08-.24c-1.65,.57-3.45-.32-4.03-1.98l-.24,.08c.27,.8,.22,1.65-.15,2.4-.37,.75-1.02,1.32-1.82,1.59l.08,.24c.79-.27,1.64-.22,2.38,.16,.74,.37,1.29,1.02,1.58,1.85l.24-.08c-.53-1.53,.24-3.2,1.71-3.89,1.04,3.28-.73,6.77-4,7.89,3.32-1.14,6.81,.67,7.96,3.99v.04Zm-6.09-8.89c-.32-.48-.76-.88-1.29-1.14-.47-.24-.97-.36-1.48-.36-.06,0-.12,0-.18,0,.97-.67,1.53-1.81,1.47-2.98,.68,.98,1.82,1.55,3,1.49-1,.68-1.58,1.82-1.53,2.99Z"/><path class="e" d="M52.48,20.45v.02c-.58-1.72,.43-3.6,2.15-4.19-1.72,.59-3.6-.34-4.19-2.06,.59,1.72-.33,3.57-2.05,4.16,1.72-.59,3.5,.35,4.09,2.07Z"/><path class="g" d="M106.74,47.27c0-1.21,1-2.19,2.21-2.19s2.12,.95,2.12,2.13-.98,2.18-2.19,2.18-2.15-.95-2.15-2.12Zm3.91-.05c0-.95-.76-1.73-1.71-1.73s-1.76,.8-1.76,1.77,.77,1.73,1.71,1.73,1.76-.79,1.76-1.77Zm-2.65-1.19h.98c.6,0,.92,.27,.92,.68,0,.36-.27,.59-.57,.66l.76,1.01h-.67l-.67-.92h-.21v.92h-.55v-2.35Zm.92,1.02c.31,0,.41-.14,.41-.32,0-.16-.12-.3-.41-.3h-.37v.61h.37Z"/></g><g><path class="g" d="M145.28,36.82v-4.28l-1.84,2.8h-.04l-1.83-2.77v4.25h-1.42v-6.56h1.55l1.72,2.77,1.72-2.77h1.55v6.56h-1.42Z"/><path class="g" d="M157.71,36.82l-.6-1.47h-2.77l-.6,1.47h-1.47l2.81-6.6h1.33l2.81,6.6h-1.51Zm-1.99-4.87l-.87,2.13h1.74l-.87-2.13Z"/><path class="g" d="M168.76,36.82l-1.4-2.1h-1.13v2.1h-1.44v-6.56h3c.78,0,1.39,.19,1.82,.57,.43,.38,.65,.91,.65,1.59v.02c0,.53-.13,.96-.39,1.3-.26,.33-.6,.58-1.02,.74l1.6,2.34h-1.69Zm.03-4.32c0-.31-.1-.55-.3-.7-.2-.16-.48-.23-.83-.23h-1.43v1.88h1.46c.36,0,.63-.08,.82-.25s.29-.39,.29-.67v-.02Z"/><path class="g" d="M180.34,36.82l-2.03-2.79-.76,.79v2h-1.44v-6.56h1.44v2.87l2.66-2.87h1.74l-2.67,2.78,2.79,3.77h-1.73Z"/><path class="g" d="M187.49,36.82v-6.56h4.94v1.28h-3.51v1.33h3.09v1.28h-3.09v1.38h3.56v1.28h-4.98Z"/><path class="g" d="M201.29,31.59v5.23h-1.44v-5.23h-2v-1.33h5.43v1.33h-1.99Z"/><path class="g" d="M209,36.82v-6.56h1.44v6.56h-1.44Z"/><path class="g" d="M221.23,36.82l-3.18-4.17v4.17h-1.42v-6.56h1.33l3.07,4.04v-4.04h1.42v6.56h-1.23Z"/><path class="g" d="M233.34,36.62c-.46,.2-1,.3-1.6,.3-.51,0-.98-.08-1.4-.25-.42-.17-.78-.4-1.09-.7-.3-.3-.54-.66-.71-1.07-.17-.41-.25-.86-.25-1.35v-.02c0-.47,.09-.91,.26-1.32,.17-.41,.41-.77,.72-1.08,.31-.31,.67-.55,1.09-.73,.42-.18,.88-.27,1.38-.27,.29,0,.56,.02,.8,.06,.24,.04,.46,.1,.67,.17s.4,.17,.58,.28c.18,.11,.36,.24,.52,.38l-.91,1.1c-.12-.11-.25-.2-.37-.28-.12-.08-.25-.15-.39-.21-.13-.06-.28-.1-.44-.13-.16-.03-.33-.05-.52-.05-.26,0-.51,.05-.74,.16-.23,.11-.43,.26-.6,.44-.17,.18-.31,.4-.4,.65-.1,.25-.15,.51-.15,.79v.02c0,.3,.05,.58,.15,.83,.1,.25,.23,.47,.41,.66s.39,.33,.63,.44c.24,.1,.51,.15,.8,.15,.54,0,.99-.13,1.36-.4v-.94h-1.45v-1.25h2.85v2.85c-.34,.29-.74,.53-1.2,.74Z"/><path class="g" d="M153.27,48.32c-.12,.25-.28,.47-.49,.64s-.46,.3-.75,.39c-.29,.09-.62,.14-.97,.14-.5,0-.99-.09-1.47-.26-.48-.17-.92-.44-1.31-.79l.85-1.02c.3,.24,.61,.44,.92,.58,.32,.14,.66,.22,1.03,.22,.3,0,.53-.05,.7-.16,.17-.11,.25-.26,.25-.45v-.02c0-.09-.02-.18-.05-.25-.03-.07-.1-.14-.2-.2-.1-.06-.23-.12-.4-.19-.17-.06-.4-.13-.67-.2-.33-.08-.63-.17-.9-.27s-.5-.22-.69-.37c-.19-.15-.33-.33-.44-.55s-.15-.49-.15-.81v-.02c0-.3,.06-.57,.17-.81,.11-.24,.27-.45,.47-.62s.44-.31,.72-.4c.28-.09,.59-.14,.93-.14,.48,0,.92,.07,1.33,.22s.77,.35,1.11,.62l-.75,1.09c-.29-.2-.58-.36-.86-.47-.28-.12-.56-.17-.84-.17s-.49,.05-.63,.16c-.14,.11-.21,.24-.21,.41v.02c0,.11,.02,.2,.06,.28s.11,.15,.22,.21c.11,.06,.25,.12,.44,.18,.18,.06,.42,.12,.7,.2,.33,.09,.63,.19,.89,.29,.26,.11,.48,.24,.66,.39,.18,.15,.31,.33,.4,.54,.09,.21,.14,.45,.14,.74v.02c0,.32-.06,.61-.18,.87Z"/><path class="g" d="M164.66,47.83c-.13,.37-.33,.68-.58,.92-.25,.25-.55,.43-.91,.55-.36,.12-.75,.18-1.19,.18-.88,0-1.57-.24-2.08-.73s-.76-1.21-.76-2.18v-3.75h1.44v3.71c0,.54,.12,.94,.37,1.21s.6,.41,1.04,.41,.79-.13,1.04-.39,.37-.66,.37-1.18v-3.76h1.44v3.7c0,.5-.07,.93-.2,1.3Z"/><path class="g" d="M175.87,46.12c-.14,.29-.33,.53-.57,.72-.24,.19-.52,.34-.84,.44-.32,.1-.67,.15-1.03,.15h-1.1v1.97h-1.44v-6.56h2.68c.39,0,.74,.05,1.05,.16s.57,.26,.79,.46c.22,.2,.38,.44,.5,.72s.17,.59,.17,.92v.02c0,.38-.07,.71-.21,1Zm-1.25-.99c0-.32-.1-.57-.31-.74-.21-.17-.49-.25-.86-.25h-1.11v2h1.14c.36,0,.64-.1,.84-.29s.3-.43,.3-.71v-.02Z"/><path class="g" d="M186.68,46.12c-.14,.29-.33,.53-.57,.72-.24,.19-.52,.34-.84,.44-.32,.1-.67,.15-1.03,.15h-1.1v1.97h-1.44v-6.56h2.68c.39,0,.74,.05,1.05,.16s.57,.26,.79,.46c.22,.2,.38,.44,.5,.72s.17,.59,.17,.92v.02c0,.38-.07,.71-.21,1Zm-1.25-.99c0-.32-.1-.57-.31-.74-.21-.17-.49-.25-.86-.25h-1.11v2h1.14c.36,0,.64-.1,.84-.29s.3-.43,.3-.71v-.02Z"/><path class="g" d="M192.5,49.39v-6.56h1.44v5.25h3.27v1.3h-4.71Z"/><path class="g" d="M202.92,49.39v-6.56h1.44v6.56h-1.44Z"/><path class="g" d="M210.55,49.39v-6.56h4.94v1.28h-3.51v1.33h3.09v1.28h-3.09v1.38h3.56v1.28h-4.98Z"/><path class="g" d="M225.94,48.32c-.12,.25-.28,.47-.49,.64s-.46,.3-.75,.39c-.29,.09-.62,.14-.97,.14-.5,0-.99-.09-1.47-.26-.48-.17-.92-.44-1.31-.79l.85-1.02c.3,.24,.61,.44,.92,.58,.32,.14,.66,.22,1.03,.22,.3,0,.53-.05,.7-.16,.17-.11,.25-.26,.25-.45v-.02c0-.09-.02-.18-.05-.25-.03-.07-.1-.14-.2-.2-.1-.06-.23-.12-.4-.19-.17-.06-.4-.13-.67-.2-.33-.08-.63-.17-.9-.27s-.5-.22-.69-.37c-.19-.15-.33-.33-.44-.55s-.15-.49-.15-.81v-.02c0-.3,.06-.57,.17-.81,.11-.24,.27-.45,.47-.62s.44-.31,.72-.4c.28-.09,.59-.14,.93-.14,.48,0,.92,.07,1.33,.22s.77,.35,1.11,.62l-.75,1.09c-.29-.2-.58-.36-.86-.47-.28-.12-.56-.17-.84-.17s-.49,.05-.63,.16c-.14,.11-.21,.24-.21,.41v.02c0,.11,.02,.2,.06,.28s.11,.15,.22,.21c.11,.06,.25,.12,.44,.18,.18,.06,.42,.12,.7,.2,.33,.09,.63,.19,.89,.29,.26,.11,.48,.24,.66,.39,.18,.15,.31,.33,.4,.54,.09,.21,.14,.45,.14,.74v.02c0,.32-.06,.61-.18,.87Z"/></g></g></svg>