<?xml version="1.0" encoding="UTF-8"?><svg xmlns="http://www.w3.org/2000/svg" xmlns:xlink="http://www.w3.org/1999/xlink" viewBox="0 0 868.12 70.88"><defs><style>.e{fill:#9bc1f9;}.f{fill:#f48c7f;}.g{fill:#f7a491;}.h,.i,.j{fill:#fff;}.k{fill:#13375b;}.l{fill:#9e9da2;}.m{fill:#b75742;}.n{isolation:isolate;}.o{fill:#263d60;}.i,.p{opacity:.5;}.q{fill:#4e9b87;}.r{fill:#50bfa5;}.s{fill:#96d9c9;}.t{fill:#86b1f2;}.u{fill:#f8bd37;}.v{fill:#355389;}.w{fill:#cf283c;}.x{opacity:.6;}.x,.y,.a`{fill:#c5ddf9;}.aa{fill:#eab054;}.ab{fill:#eafcfc;}.ac{opacity:.3;}.ac,.ad{fill:#f47458;}.ae{fill:#f7cc7f;}.af{fill:#5184ce;}.ag{fill:#d8d9dd;}.j{opacity:.2;}.ah{fill:url(#d);}.a`{opacity:.7;}.ai{fill:#173654;}.p{fill:#feb546;mix-blend-mode:multiply;}.aj{fill:#183658;}.ak{fill:#1a1a1a;}.al{fill:#3c8f7c;}.am{fill:#184655;}</style><linearGradient id="d" x1="556.92" y1="4486.26" x2="627.85" y2="4486.26" gradientTransform="translate(-4052.2 -556.92) rotate(90) scale(1 -1)" gradientUnits="userSpaceOnUse"><stop offset="0" stop-color="#fff" stop-opacity="0"/><stop offset=".14" stop-color="#fff" stop-opacity="0"/><stop offset=".27" stop-color="#fff" stop-opacity=".06"/><stop offset=".39" stop-color="#fff" stop-opacity=".13"/><stop offset=".51" stop-color="#fff" stop-opacity=".23"/><stop offset=".63" stop-color="#fff" stop-opacity=".36"/><stop offset=".74" stop-color="#fff" stop-opacity=".52"/><stop offset=".86" stop-color="#fff" stop-opacity=".71"/><stop offset=".96" stop-color="#fff" stop-opacity=".92"/><stop offset="1" stop-color="#fff"/></linearGradient></defs><g class="n"><g id="a"><g id="b"><g id="c"><polygon class="ah" points="0 70.93 0 0 868.12 0 868.12 70.93 0 70.93"/></g></g><g><rect class="u" x="125.13" y="18.16" width=".83" height="38.5"/><g><path class="ai" d="M43.31,25.37h-7.08c-.07,0-.14,.04-.18,.1l-9.55,15.36h-.15l-1.32-15.26c0-.11-.1-.2-.21-.2h-7.22c-.09,0-.18,.06-.2,.15l-7.46,23.62c-.04,.14,.06,.28,.2,.28h5.06c.09,0,.18-.06,.21-.15l3.15-10.59c.81-2.66,1.27-4.43,1.73-6.44h.15l1.42,16.98c0,.11,.1,.2,.21,.2h4.39c.08,0,.14-.04,.18-.1l10.27-17.07h.15c-.54,2-1.06,3.88-1.62,6.44l-2.33,10.48c-.03,.13,.07,.26,.21,.26h5.14c.1,0,.19-.07,.21-.17l4.86-23.62c.03-.13-.07-.26-.21-.26Z"/><path class="ai" d="M62.96,31.21c-4.07,0-7.17,2.53-7.81,4.98-.54,2.05,.28,3.75,2.37,4.91,.61,.33,1.05,.55,1.51,.77,.42,.21,.87,.43,1.51,.76,1.17,.62,1.31,.99,1.16,1.56-.2,.76-1.17,1.54-2.88,1.54-2,0-2.25-1.45-2.11-2.66,.04-.26-.01-.46-.16-.57-.16-.12-.41-.14-.74-.05l-2.81,.82c-.41,.12-.69,.45-.75,.88-.32,3.09,2,5.33,5.51,5.33,3.99,0,7.61-2.34,8.43-5.45,.56-2.14-.33-3.74-2.79-5.03-.62-.32-1.23-.61-1.77-.86-.26-.12-.52-.24-.75-.36-1.06-.51-1.47-.84-1.27-1.6,.21-.79,1.38-1.26,2.4-1.26,.53,0,1.06,.09,1.4,.41,.38,.36,.4,.92,.52,1.42,.04,.17,.09,.34,.21,.46,.12,.12,.32,.13,.54,.1l2.96-.93s.59-.09,.52-.94c-.24-2.66-2.01-4.24-5.17-4.24Z"/><path class="ai" d="M77.4,45.09c-.19-.09-.44-.08-.73,.03h-.04c-.35,.13-.71,.26-1.29,.26-.77,0-1.14-.18-.78-1.56l2.12-7.99c.02-.09,.11-.16,.21-.16h4.11c.1,0,.19-.07,.21-.16l.19-.79,.59-2.01v-.02l.18-.45h-4.17c-.14,0-.24-.13-.21-.27l.88-3.47c.03-.14-.07-.27-.21-.27h-4c-.1,0-.18,.06-.21,.16l-1,3.69c-.03,.09-.11,.16-.21,.16h-2.05c-.09,0-.16,.05-.2,.13l-.11,.27s0,.02-.01,.03l-.59,2.21-.15,.53c-.04,.14,.06,.27,.21,.27h1.46c.14,0,.24,.13,.21,.27l-2.06,7.76c-1.34,5.08,1.94,5.79,3.97,5.79s3.35-.64,3.88-1.17c.24-.24,.37-.5,.35-.72l-.27-2.08c-.02-.26-.16-.38-.27-.43Z"/><path class="ai" d="M114.18,30.68c-.33-.05-.72,0-1.04,0-2.87,0-4.57,1.85-5.98,3.85h-.11l.61-3.18c.03-.13-.08-.26-.21-.26h-4.07c-.1,0-.18,.07-.21,.16l-.99,3.97-3.89,13.9c-.04,.14,.07,.27,.21,.27h4.74c.1,0,.18-.06,.21-.16l2.6-9.09c.72-2.73,2.47-4.57,4.71-4.57,.49,0,1.14,.02,1.61,.15,.11,.03,.21-.03,.25-.13l1.71-4.63c.05-.12-.03-.26-.16-.29Z"/><path class="ai" d="M92.24,31.34c-5,0-9.79,3.85-11.15,9.03-1.65,6.28,2.15,9.1,6.37,9.1,3.97,0,6.59-2.18,8.06-3.73,.37-.39-.03-.55-.03-.55l-2.74-1.24c-.47-.21-.72,.1-.72,.1-.83,.88-1.9,1.54-3.56,1.54-2.38,0-3.29-1.52-3.11-3.33,0-.02,0-.03,0-.05,.01-.09,.08-.27,.08-.27h10.36c1.46,0,1.97-1.07,2.38-2.65,1.19-4.54-1.3-7.97-5.95-7.97Zm1.54,7.01c-.02,.1-.11,.18-.21,.18h-6.59c-.17,0-.27-.18-.18-.33,1.03-1.78,2.76-2.63,4.4-2.63,1.85,0,2.87,.89,2.59,2.77Z"/><path class="ai" d="M49.35,30.37c-.95-.41-2.5-.25-2.79-.1-.13,.07-.29,.1-.33,.25-.54,2.22-3.78,18.36-3.78,18.36-.05,.25,.14,.49,.4,.49h4.96c.36,0,.67-.25,.73-.6l2.92-16.13s-.19-1.43-2.12-2.27Z"/><path class="u" d="M53.66,31.86c-1.14-3.32,.77-6.95,4.09-8.09-3.27,1.13-6.84-.61-8.04-3.84,.1-.05,.2-.09,.31-.12l-.08-.24c-1.65,.57-3.45-.32-4.03-1.98l-.24,.08c.27,.8,.22,1.65-.15,2.4-.37,.75-1.02,1.32-1.82,1.59l.08,.24c.79-.27,1.64-.22,2.38,.16,.74,.37,1.29,1.02,1.58,1.85l.24-.08c-.53-1.53,.24-3.2,1.71-3.89,1.04,3.28-.73,6.77-4,7.89,3.32-1.14,6.81,.67,7.96,3.99v.04Zm-6.09-8.89c-.32-.48-.76-.88-1.29-1.14-.47-.24-.97-.36-1.48-.36-.06,0-.12,0-.18,0,.97-.67,1.53-1.81,1.47-2.98,.68,.98,1.82,1.55,3,1.49-1,.68-1.58,1.82-1.53,2.99Z"/><path class="u" d="M52.48,20.45v.02c-.58-1.72,.43-3.6,2.15-4.19-1.72,.59-3.6-.34-4.19-2.06,.59,1.72-.33,3.57-2.05,4.16,1.72-.59,3.5,.35,4.09,2.07Z"/><path class="ai" d="M106.74,47.27c0-1.21,1-2.19,2.21-2.19s2.12,.95,2.12,2.13-.98,2.18-2.19,2.18-2.15-.95-2.15-2.12Zm3.91-.05c0-.95-.76-1.73-1.71-1.73s-1.76,.8-1.76,1.77,.77,1.73,1.71,1.73,1.76-.79,1.76-1.77Zm-2.65-1.19h.98c.6,0,.92,.27,.92,.68,0,.36-.27,.59-.57,.66l.76,1.01h-.67l-.67-.92h-.21v.92h-.55v-2.35Zm.92,1.02c.31,0,.41-.14,.41-.32,0-.16-.12-.3-.41-.3h-.37v.61h.37Z"/></g><g><path class="ai" d="M145.28,36.82v-4.28l-1.84,2.8h-.04l-1.83-2.77v4.25h-1.42v-6.56h1.55l1.72,2.77,1.72-2.77h1.55v6.56h-1.42Z"/><path class="ai" d="M157.71,36.82l-.6-1.47h-2.77l-.6,1.47h-1.47l2.81-6.6h1.33l2.81,6.6h-1.51Zm-1.99-4.87l-.87,2.13h1.74l-.87-2.13Z"/><path class="ai" d="M168.76,36.82l-1.4-2.1h-1.13v2.1h-1.44v-6.56h3c.78,0,1.39,.19,1.82,.57,.43,.38,.65,.91,.65,1.59v.02c0,.53-.13,.96-.39,1.3-.26,.33-.6,.58-1.02,.74l1.6,2.34h-1.69Zm.03-4.32c0-.31-.1-.55-.3-.7-.2-.16-.48-.23-.83-.23h-1.43v1.88h1.46c.36,0,.63-.08,.82-.25s.29-.39,.29-.67v-.02Z"/><path class="ai" d="M180.34,36.82l-2.03-2.79-.76,.79v2h-1.44v-6.56h1.44v2.87l2.66-2.87h1.74l-2.67,2.78,2.79,3.77h-1.73Z"/><path class="ai" d="M187.49,36.82v-6.56h4.94v1.28h-3.51v1.33h3.09v1.28h-3.09v1.38h3.56v1.28h-4.98Z"/><path class="ai" d="M201.29,31.59v5.23h-1.44v-5.23h-2v-1.33h5.43v1.33h-1.99Z"/><path class="ai" d="M209,36.82v-6.56h1.44v6.56h-1.44Z"/><path class="ai" d="M221.23,36.82l-3.18-4.17v4.17h-1.42v-6.56h1.33l3.07,4.04v-4.04h1.42v6.56h-1.23Z"/><path class="ai" d="M233.34,36.62c-.46,.2-1,.3-1.6,.3-.51,0-.98-.08-1.4-.25-.42-.17-.78-.4-1.09-.7-.3-.3-.54-.66-.71-1.07-.17-.41-.25-.86-.25-1.35v-.02c0-.47,.09-.91,.26-1.32,.17-.41,.41-.77,.72-1.08,.31-.31,.67-.55,1.09-.73,.42-.18,.88-.27,1.38-.27,.29,0,.56,.02,.8,.06,.24,.04,.46,.1,.67,.17s.4,.17,.58,.28c.18,.11,.36,.24,.52,.38l-.91,1.1c-.12-.11-.25-.2-.37-.28-.12-.08-.25-.15-.39-.21-.13-.06-.28-.1-.44-.13-.16-.03-.33-.05-.52-.05-.26,0-.51,.05-.74,.16-.23,.11-.43,.26-.6,.44-.17,.18-.31,.4-.4,.65-.1,.25-.15,.51-.15,.79v.02c0,.3,.05,.58,.15,.83,.1,.25,.23,.47,.41,.66s.39,.33,.63,.44c.24,.1,.51,.15,.8,.15,.54,0,.99-.13,1.36-.4v-.94h-1.45v-1.25h2.85v2.85c-.34,.29-.74,.53-1.2,.74Z"/><path class="ai" d="M153.27,48.32c-.12,.25-.28,.47-.49,.64s-.46,.3-.75,.39c-.29,.09-.62,.14-.97,.14-.5,0-.99-.09-1.47-.26-.48-.17-.92-.44-1.31-.79l.85-1.02c.3,.24,.61,.44,.92,.58,.32,.14,.66,.22,1.03,.22,.3,0,.53-.05,.7-.16,.17-.11,.25-.26,.25-.45v-.02c0-.09-.02-.18-.05-.25-.03-.07-.1-.14-.2-.2-.1-.06-.23-.12-.4-.19-.17-.06-.4-.13-.67-.2-.33-.08-.63-.17-.9-.27s-.5-.22-.69-.37c-.19-.15-.33-.33-.44-.55s-.15-.49-.15-.81v-.02c0-.3,.06-.57,.17-.81,.11-.24,.27-.45,.47-.62s.44-.31,.72-.4c.28-.09,.59-.14,.93-.14,.48,0,.92,.07,1.33,.22s.77,.35,1.11,.62l-.75,1.09c-.29-.2-.58-.36-.86-.47-.28-.12-.56-.17-.84-.17s-.49,.05-.63,.16c-.14,.11-.21,.24-.21,.41v.02c0,.11,.02,.2,.06,.28s.11,.15,.22,.21c.11,.06,.25,.12,.44,.18,.18,.06,.42,.12,.7,.2,.33,.09,.63,.19,.89,.29,.26,.11,.48,.24,.66,.39,.18,.15,.31,.33,.4,.54,.09,.21,.14,.45,.14,.74v.02c0,.32-.06,.61-.18,.87Z"/><path class="ai" d="M164.66,47.83c-.13,.37-.33,.68-.58,.92-.25,.25-.55,.43-.91,.55-.36,.12-.75,.18-1.19,.18-.88,0-1.57-.24-2.08-.73s-.76-1.21-.76-2.18v-3.75h1.44v3.71c0,.54,.12,.94,.37,1.21s.6,.41,1.04,.41,.79-.13,1.04-.39,.37-.66,.37-1.18v-3.76h1.44v3.7c0,.5-.07,.93-.2,1.3Z"/><path class="ai" d="M175.87,46.12c-.14,.29-.33,.53-.57,.72-.24,.19-.52,.34-.84,.44-.32,.1-.67,.15-1.03,.15h-1.1v1.97h-1.44v-6.56h2.68c.39,0,.74,.05,1.05,.16s.57,.26,.79,.46c.22,.2,.38,.44,.5,.72s.17,.59,.17,.92v.02c0,.38-.07,.71-.21,1Zm-1.25-.99c0-.32-.1-.57-.31-.74-.21-.17-.49-.25-.86-.25h-1.11v2h1.14c.36,0,.64-.1,.84-.29s.3-.43,.3-.71v-.02Z"/><path class="ai" d="M186.68,46.12c-.14,.29-.33,.53-.57,.72-.24,.19-.52,.34-.84,.44-.32,.1-.67,.15-1.03,.15h-1.1v1.97h-1.44v-6.56h2.68c.39,0,.74,.05,1.05,.16s.57,.26,.79,.46c.22,.2,.38,.44,.5,.72s.17,.59,.17,.92v.02c0,.38-.07,.71-.21,1Zm-1.25-.99c0-.32-.1-.57-.31-.74-.21-.17-.49-.25-.86-.25h-1.11v2h1.14c.36,0,.64-.1,.84-.29s.3-.43,.3-.71v-.02Z"/><path class="ai" d="M192.5,49.39v-6.56h1.44v5.25h3.27v1.3h-4.71Z"/><path class="ai" d="M202.92,49.39v-6.56h1.44v6.56h-1.44Z"/><path class="ai" d="M210.55,49.39v-6.56h4.94v1.28h-3.51v1.33h3.09v1.28h-3.09v1.38h3.56v1.28h-4.98Z"/><path class="ai" d="M225.94,48.32c-.12,.25-.28,.47-.49,.64s-.46,.3-.75,.39c-.29,.09-.62,.14-.97,.14-.5,0-.99-.09-1.47-.26-.48-.17-.92-.44-1.31-.79l.85-1.02c.3,.24,.61,.44,.92,.58,.32,.14,.66,.22,1.03,.22,.3,0,.53-.05,.7-.16,.17-.11,.25-.26,.25-.45v-.02c0-.09-.02-.18-.05-.25-.03-.07-.1-.14-.2-.2-.1-.06-.23-.12-.4-.19-.17-.06-.4-.13-.67-.2-.33-.08-.63-.17-.9-.27s-.5-.22-.69-.37c-.19-.15-.33-.33-.44-.55s-.15-.49-.15-.81v-.02c0-.3,.06-.57,.17-.81,.11-.24,.27-.45,.47-.62s.44-.31,.72-.4c.28-.09,.59-.14,.93-.14,.48,0,.92,.07,1.33,.22s.77,.35,1.11,.62l-.75,1.09c-.29-.2-.58-.36-.86-.47-.28-.12-.56-.17-.84-.17s-.49,.05-.63,.16c-.14,.11-.21,.24-.21,.41v.02c0,.11,.02,.2,.06,.28s.11,.15,.22,.21c.11,.06,.25,.12,.44,.18,.18,.06,.42,.12,.7,.2,.33,.09,.63,.19,.89,.29,.26,.11,.48,.24,.66,.39,.18,.15,.31,.33,.4,.54,.09,.21,.14,.45,.14,.74v.02c0,.32-.06,.61-.18,.87Z"/></g></g><g><rect class="h" x="237.79" y="2.97" width="111.52" height="64.93"/><path class="ab" d="M250.87,59.93h91.95c7.62-4.42,3.7-17.73-2.67-20.43-6.85-2.9,4.03-12.95-6.53-16.21-6.89-2.13-16.23,.25-20.8-4.33-5.36-5.38-14.27-11.94-30.85-6.85-12.79,3.93-5.84,11.5-26.78,13.78-10.76,1.17-8.68,11.2-7.68,13.28,.87,1.81,6.66,4.67-1.38,8.61-11.79,5.78,4.45,12.05,4.73,12.15Z"/><path class="y" d="M276.17,45.07s9.42-11.93,15.02-11.9c5.6,.04,11.71,7.86,19.68,14.54,8.94,7.49-2.73,7.8-3.41,7.86-.67,.06-23.91-.76-24.29-1.16-.39-.4-6.59-5.58-6.59-5.58l-.41-3.76Z"/><g><rect class="v" x="324.51" y="41.01" width=".4" height="4.41" transform="translate(649.42 86.44) rotate(180)"/><polygon class="al" points="324.71 32.45 326.01 42.95 323.41 42.95 324.71 32.45"/><polygon class="r" points="325.54 39.14 323.69 40.73 323.76 40.16 325.48 38.68 325.54 39.14"/><polygon class="r" points="325.25 36.84 324.12 37.23 324.17 36.8 325.2 36.45 325.25 36.84"/></g><polygon class="al" points="270.29 37.66 271.45 47.03 269.13 47.03 270.29 37.66"/><polygon class="al" points="272.34 39.03 273.22 46.17 271.45 46.17 272.34 39.03"/><polygon class="al" points="274.1 41.16 274.99 48.3 273.22 48.3 274.1 41.16"/><polygon class="al" points="268.12 39.75 269.28 49.13 266.96 49.13 268.12 39.75"/><path class="t" d="M272.51,42.67c10.06,1.67,25.16,16.72,36.67,16.72s13.98-3.6,18.29-2.84c4.31,.76,10.1,2.84,10.1,2.84l-85.47,.25s10.34-18.65,20.41-16.98Z"/><polygon class="al" points="308.94 38.28 310.1 47.66 307.78 47.66 308.94 38.28"/><polygon class="al" points="311.7 41.04 312.59 48.18 310.82 48.18 311.7 41.04"/><polygon class="al" points="304.74 44.85 305.62 51.99 303.86 51.99 304.74 44.85"/><polygon class="al" points="306.77 40.37 307.93 49.75 305.61 49.75 306.77 40.37"/><path class="t" d="M318.13,42.67c-10.06,1.67-25.16,16.72-36.67,16.72s-13.98-3.6-18.29-2.84c-4.31,.76-10.1,2.84-10.1,2.84l85.47,.25s-10.34-18.65-20.41-16.98Z"/><g><rect class="v" x="314.68" y="51.68" width=".45" height="5.03" transform="translate(629.82 108.39) rotate(180)"/><polygon class="al" points="314.91 41.91 316.39 53.89 313.43 53.89 314.91 41.91"/><polygon class="r" points="315.85 49.55 313.74 51.36 313.82 50.71 315.79 49.02 315.85 49.55"/><polygon class="r" points="315.53 46.92 314.23 47.37 314.29 46.87 315.47 46.47 315.53 46.92"/></g><g><rect class="v" x="319.81" y="51.27" width=".43" height="7.59" transform="translate(640.06 110.13) rotate(180)"/><polygon class="al" points="319.92 37.73 322.05 53.06 317.78 53.06 319.92 37.73"/><polygon class="r" points="321.92 52.08 318.08 50.88 318.14 50.46 321.85 51.63 321.92 52.08"/><polygon class="r" points="321.24 47.24 318.7 46.44 318.76 46.03 321.18 46.79 321.24 47.24"/></g><path class="s" d="M252.1,59.64s11.03-9.58,25.26-10.17c4.78-.2,24.34,3.77,40.81,6.88,.69,.13,2.19,1.41,2.89,1.54,7.8,1.47,15.07,1.78,17.42,1.87l-86.38-.12Z"/><path class="q" d="M340.8,49.1l.02-.83c0-.61-.47-1.11-1.04-1.11h0c-1.45,0-2.63,1.25-2.63,2.79v1.13c0,.49-.26,.92-.65,1.14-.35,.2-.56,.59-.56,1.01v.59c0,.64,.28,1.24,.76,1.65,.28,.24,.45,.6,.45,1v.84c0,.93,.71,1.69,1.59,1.69h.5c.88,0,1.59-.75,1.59-1.69h0c-.14-1.18,.2-1.85,.61-2.24,.59-.57,.94-1.37,.94-2.22v-.12c0-.9-.39-1.73-1.04-2.3-.29-.25-.52-.66-.52-1.33Z"/><path class="s" d="M342.43,59.98s-4.05-5.38-6.6-6.21c-2.55-.83-.15,2.45-.15,2.45,0,0-4.52-4.94-6.18-4.5-1.52,.41,0,3.47,0,3.47,0,0-1.71-1.7-3.79-1.7s1.61,6.35,1.61,6.35l15.11,.12Z"/><path class="al" d="M329.51,59.86s-2.77-7.4-6.2-6.55c-2.78,.69-.8,4.42-.97,4.25-.17-.17-1.66-2.7-4.07-2.7s.74,3.41,.74,3.41c0,0-5.14-1.6-5.54,.08-.33,1.4,1.53,1.5,1.53,1.5h14.51Z"/><g><path class="al" d="M266.21,58.48c.02-.09,.02-.19,.02-.28,0-1.07-1-1.94-2.24-1.94s-2.24,.87-2.24,1.94c0,.1,0,.19,.02,.28h4.44Z"/><path class="r" d="M268.75,58c.02-.13,.02-.26,.02-.4,0-1.51-1-2.74-2.24-2.74s-2.24,1.23-2.24,2.74c0,.14,0,.27,.02,.4h4.44Z"/><path class="r" d="M267.92,59.68c-.02-.09-.02-.19-.02-.28,0-1.07,1-1.94,2.24-1.94s2.24,.87,2.24,1.94c0,.1,0,.19-.02,.28h-4.44Z"/><path class="al" d="M264.33,59.68c-.02-.13-.03-.26-.03-.4,0-1.51,1.27-2.74,2.84-2.74s2.84,1.23,2.84,2.74c0,.14-.01,.27-.03,.4h-5.63Z"/><path class="r" d="M266.52,56.54c-.78,0-1.49,.39-1.95,1-.24-.06-.49-.09-.75-.09-1.39,0-2.52,.87-2.52,1.94,0,.1,0,.19,.03,.28h7.69c.02-.13,.03-.26,.03-.4,0-1.51-1.13-2.74-2.52-2.74Z"/></g><g><g><path class="al" d="M256.79,53.91c-.66-1.03-.78-2.28-.77-3.14,.01-.94,.19-1.64,.19-1.65l-.05-.02s-.18,.71-.19,1.66c-.01,.87,.11,2.13,.78,3.18l.04-.03Z"/><path class="al" d="M256.37,48.95c-.02,.21-.11,.39-.25,.5-.12-.15-.18-.35-.16-.56s.11-.39,.25-.5c.12,.15,.18,.35,.16,.56Z"/><path class="al" d="M255.93,49.44c.11,.18,.15,.39,.11,.57-.17-.04-.34-.16-.45-.34-.11-.18-.15-.39-.11-.57,.17,.04,.34,.16,.45,.34Z"/><path class="al" d="M255.67,50.02c.17,.11,.29,.29,.34,.47-.17,.05-.36,.02-.53-.09s-.29-.29-.34-.47c.17-.05,.36-.02,.53,.09Z"/><path class="al" d="M255.75,50.82c.14,.09,.22,.24,.25,.41-.14,.06-.3,.05-.44-.04s-.22-.24-.25-.41c.14-.06,.3-.05,.44,.04Z"/><path class="al" d="M256.32,49.87c.15-.08,.33-.09,.48-.03-.04,.16-.14,.3-.3,.39-.15,.08-.33,.09-.48,.03,.04-.16,.14-.3,.3-.39Z"/><path class="al" d="M256.3,50.43c.15-.08,.33-.09,.48-.03-.04,.16-.14,.3-.3,.39-.15,.08-.33,.09-.48,.03,.04-.16,.14-.3,.3-.39Z"/><path class="al" d="M255.85,51.7c.08,.02,.15,.07,.19,.15-.06,.05-.14,.07-.22,.05-.08-.02-.15-.07-.19-.15,.06-.05,.14-.07,.22-.05Z"/></g><g><path class="al" d="M256.52,54.64c-1.51-.36-2.66-1.48-3.36-2.35-.76-.95-1.17-1.82-1.17-1.83l-.06,.03s.41,.89,1.18,1.85c.71,.88,1.87,2.01,3.4,2.38l.02-.07Z"/><path class="al" d="M252,50.12c.16,.23,.21,.5,.17,.75-.24-.03-.47-.17-.63-.39s-.21-.5-.17-.75c.24,.03,.47,.17,.63,.39Z"/><path class="al" d="M251.96,51.06c.26,.07,.47,.24,.58,.46-.2,.13-.47,.18-.73,.11-.26-.07-.47-.24-.58-.46,.2-.13,.47-.18,.73-.11Z"/><path class="al" d="M252.19,51.89c.27-.06,.53,0,.73,.13-.13,.21-.34,.38-.61,.44-.27,.06-.53,0-.73-.13,.13-.21,.34-.38,.61-.44Z"/><path class="al" d="M252.79,52.65c.27-.06,.53,0,.73,.13-.13,.21-.34,.38-.61,.44-.27,.06-.53,0-.73-.13,.13-.21,.34-.38,.61-.44Z"/><path class="al" d="M252.61,51.39c-.01-.26,.07-.5,.22-.67,.16,.14,.27,.36,.28,.61,.01,.26-.07,.5-.22,.67-.16-.14-.27-.36-.28-.61Z"/><path class="al" d="M253.24,52.17c-.02-.26,.06-.5,.21-.68,.16,.13,.27,.35,.29,.61,.02,.26-.06,.5-.21,.68-.16-.13-.27-.35-.29-.61Z"/><path class="al" d="M253.76,53.39c.1-.06,.21-.08,.31-.05-.02,.11-.08,.21-.18,.27-.1,.06-.21,.08-.31,.05,.02-.11,.08-.21,.18-.27Z"/></g><g><path class="al" d="M260.52,56.78h.07c-.09-1.73,.54-3.36,1.09-4.42,.6-1.15,1.22-1.9,1.23-1.91l-.05-.05s-.64,.76-1.24,1.92c-.55,1.07-1.19,2.71-1.1,4.46Z"/><path class="al" d="M263.19,50.35c-.15,.25-.36,.41-.58,.45-.04-.26,.02-.56,.17-.81,.15-.25,.36-.41,.58-.45,.04,.26-.02,.56-.17,.81Z"/><path class="al" d="M262.39,50.65c.01,.3-.08,.59-.23,.79-.16-.17-.27-.43-.29-.73-.01-.3,.08-.59,.23-.79,.16,.17,.27,.43,.29,.73Z"/><path class="al" d="M261.75,51.19c.12,.26,.15,.56,.08,.81-.21-.05-.41-.22-.53-.48-.12-.26-.15-.56-.08-.81,.21,.05,.41,.22,.53,.48Z"/><path class="al" d="M261.32,52.52c.06,.1,.08,.23,.06,.34-.09-.02-.18-.08-.24-.18-.06-.1-.08-.23-.06-.34,.09,.02,.18,.08,.24,.18Z"/><path class="al" d="M261.13,53c.06,.1,.08,.23,.06,.34-.09-.02-.18-.08-.24-.18-.06-.1-.08-.23-.06-.34,.09,.02,.18,.08,.24,.18Z"/><path class="al" d="M262.56,51.45c.22,0,.42,.12,.55,.29-.14,.17-.35,.28-.57,.27-.22,0-.42-.12-.55-.29,.14-.17,.35-.28,.57-.27Z"/><path class="al" d="M262.2,52.12c.22,0,.42,.12,.55,.29-.14,.17-.35,.28-.57,.27-.22,0-.42-.12-.55-.29,.14-.17,.35-.28,.57-.27Z"/><path class="al" d="M261.6,53.04c.15,0,.27,.08,.35,.19-.09,.11-.23,.18-.37,.18-.15,0-.27-.08-.35-.19,.09-.11,.23-.18,.37-.18Z"/></g><path class="al" d="M254.89,59.61c0-.29,1.74,.05,1.88-.34,.14-.39-1.49-.41-1.49-.94s.83-.16,1.32-.16-.96-.23-.96-.41,.51-.09,.51-.29-2.67-.35-2.36-.84c.31-.49,1.75,.14,2.15-.11,.39-.25-2.11-.53-2.17-.9-.06-.38,1.84,.32,2.11,.05,.27-.27-3.01-1.24-2.88-1.95,.14-.71,2.49,.91,3.08,.74,.59-.18-2.96-2.68-2.14-3.65,.83-.98,2.4,3.23,2.94,3.08,.54-.15-.67-2.66-.12-3.09,.55-.44,2.13,3.53,2.23,4.34,.1,.81,.3-1.75,1.16-2.05,.86-.3,.03,1.59,.18,2.16,.15,.58,.85-1.48,1.8-1.33,.94,.15-1.71,2.03-1.44,2.58,.26,.55,2.31-1.84,2.95-1.2,.64,.64-2.47,2.42-2.3,2.91,.17,.49,2.04-.35,2.57,.19,.54,.54-2,.88-2.34,.88s-1.62,.42-.37,.34c1.26-.08-6.3,.29-6.3,0Z"/><g><path class="r" d="M259.84,59.94s2.09,.11,2.7-.27c.61-.38,.13-.68,.13-.68,0,0,1.93-.04,1.93-.5,0-.46-.47-.43-.47-.43,0,0,.98-.66,.79-1.08-.28-.64-1.87,.47-1.87,.47,0,0,.52-.62,.1-.76-1.16-.4-3.31,3.26-3.31,3.26Z"/><path class="s" d="M264.92,56.98c.18,.41-.79,1.08-.79,1.08,0,0,.7,0,.59,.44-.11,.44-1.89,.59-1.89,.59,0,0,.62,.12,0,.5-.61,.38-3,.35-3,.35l5.08-2.96Z"/></g></g><g><path class="am" d="M251.27,41.69c0-.11,.16-.2,.24-.1,.08,.1,.08,.03,.16,.25,.23,.62,.57,1.22,.97,1.75,.76,1.01,1.51,1.51,2.36,2.02-.35-.79-.59-1.63-.62-2.48-.01-.31,0-.63,.13-.92,.04-.08,.18-.06,.19,.03,.07,.44-.03,.77,.11,1.55,.34,1.87,1.68,3.86,2.97,5.25-.25-2.36-.37-5.03,.08-7.41,.07-.39,.19-.76,.3-1.14,.03-.09,.15-.05,.14,.04-.02,.13-.23,1.76-.25,1.87-.21,1.81-.16,3.81,0,5.64,1-1.36,1.68-2.95,1.99-4.61,.09-.49,.12-1,.25-1.48,.02-.07,.13-.07,.14,0,.13,.72-.13,2-.33,2.69-.4,1.41-1.03,2.66-1.89,3.79-.03,.04,1.39,11.04,1.35,11.18-.06,.23-.47,.4-.54-.02-.03-.17-.81-6.86-1.16-9.95-.13-.07-.22-.2-.56-.59-.79-.89-1.58-2-2.1-3.05-.31-.02-2.59-1.12-3.71-3.64-.03-.07-.18-.41-.2-.49-.02-.07,0-.12,0-.19Z"/><path class="r" d="M258.57,38.12c-.03-.34-.04-.68-.04-1.04,0-3.93,1.67-7.11,3.72-7.11s3.72,3.18,3.72,7.11c0,.35-.01,.7-.04,1.04h-7.37Z"/><path class="s" d="M254.36,36.37c-.03-.48-.04-.97-.04-1.46,0-5.54,1.67-10.03,3.72-10.03s3.72,4.49,3.72,10.03c0,.5-.01,.98-.04,1.46h-7.37Z"/><path class="s" d="M255.72,42.52c.03-.34,.04-.68,.04-1.04,0-3.93-1.67-7.11-3.72-7.11s-3.72,3.18-3.72,7.11c0,.35,.01,.7,.04,1.04h7.37Z"/><path class="r" d="M261.68,42.52c.03-.48,.05-.97,.05-1.46,0-5.54-2.11-10.03-4.72-10.03s-4.72,4.49-4.72,10.03c0,.5,.02,.98,.05,1.46h9.34Z"/><path class="s" d="M258.05,31.03c1.3,0,2.47,1.42,3.23,3.66,.39-.21,.81-.32,1.24-.32,2.31,0,4.19,3.18,4.19,7.11,0,.35-.02,.7-.04,1.04h-12.76c-.03-.48-.04-.97-.04-1.46,0-5.54,1.87-10.03,4.19-10.03Z"/></g><g><path class="al" d="M251.71,58.02c.01-.13,.02-.26,.02-.39,0-1.48-.84-2.69-1.89-2.69s-1.89,1.2-1.89,2.69c0,.13,0,.26,.02,.39h3.73Z"/><path class="r" d="M253.85,57.36c.01-.18,.02-.36,.02-.55,0-2.09-.84-3.79-1.89-3.79s-1.89,1.7-1.89,3.79c0,.19,0,.37,.02,.55h3.73Z"/><path class="r" d="M253.16,59.68c-.01-.13-.02-.26-.02-.39,0-1.48,.84-2.69,1.89-2.69s1.89,1.2,1.89,2.69c0,.13,0,.26-.02,.39h-3.73Z"/><path class="al" d="M250.14,59.68c-.02-.18-.03-.36-.03-.55,0-2.09,1.07-3.79,2.39-3.79s2.39,1.7,2.39,3.79c0,.19,0,.37-.03,.55h-4.73Z"/><path class="r" d="M251.98,55.34c-.66,0-1.25,.54-1.64,1.38-.2-.08-.41-.12-.63-.12-1.17,0-2.12,1.2-2.12,2.69,0,.13,0,.26,.02,.39h6.46c.01-.18,.02-.36,.02-.55,0-2.09-.95-3.79-2.12-3.79Z"/></g><path class="i" d="M290.36,22.05c-.17-.73-.82-1.27-1.6-1.27-.14,0-.28,.02-.41,.05-.39-.82-1.22-1.39-2.19-1.39-.25,0-.49,.04-.72,.11-.52-.86-1.47-1.44-2.55-1.44-1.29,0-2.39,.82-2.8,1.96-.29-.16-.63-.26-.99-.26-1.13,0-2.04,.92-2.04,2.04,0,.07,0,.13,0,.2h13.31Z"/><path class="i" d="M308.5,34.8c.08-.35,.39-.61,.77-.61,.07,0,.14,0,.2,.03,.19-.4,.59-.67,1.05-.67,.12,0,.24,.02,.35,.05,.25-.42,.71-.69,1.23-.69,.62,0,1.15,.39,1.35,.94,.14-.08,.3-.12,.48-.12,.54,0,.98,.44,.98,.98,0,.03,0,.06,0,.1h-6.41Z"/><path class="i" d="M297.25,30.23c-.1-.43-.49-.75-.95-.75-.08,0-.17,.01-.25,.03-.23-.49-.72-.82-1.3-.82-.15,0-.29,.02-.43,.06-.31-.51-.87-.85-1.51-.85-.76,0-1.41,.48-1.66,1.16-.17-.1-.37-.15-.59-.15-.67,0-1.21,.54-1.21,1.21,0,.04,0,.08,0,.12h7.87Z"/><path class="i" d="M312.59,25.16c-.13-.58-.66-1.02-1.28-1.02-.11,0-.23,.01-.33,.04-.31-.66-.98-1.11-1.75-1.11-.2,0-.39,.03-.57,.09-.42-.69-1.17-1.15-2.04-1.15-1.03,0-1.91,.65-2.24,1.57-.24-.13-.51-.21-.79-.21-.9,0-1.63,.73-1.63,1.63,0,.05,0,.11,0,.16h10.63Z"/><path class="i" d="M269.69,32.28c.07-.29,.33-.51,.64-.51,.06,0,.11,0,.17,.02,.15-.33,.49-.56,.87-.56,.1,0,.2,.02,.29,.04,.21-.34,.59-.57,1.02-.57,.51,0,.95,.33,1.12,.78,.12-.07,.25-.1,.4-.1,.45,0,.81,.36,.81,.81,0,.03,0,.05,0,.08h-5.3Z"/><path class="aj" d="M276.17,55.97s7.38,1.22,7.47,1.17c.09-.05,1.04-4.18,1.04-4.18,0,0-6.1-1.1-6.2-1.1s-1.43,1.06-1.44,1.13c-.02,.07-.87,2.97-.87,2.97Z"/><path class="aj" d="M298.69,57.02c.18,.02,9.12-.17,9.12-.17l-.67-2.06s-1.24-1.87-1.89-1.84c-.65,.03-4.55-.6-5.22-.13-.67,.47-1.27,.09-1.59,1.21-.32,1.12-.57,1.24-.32,1.91,.25,.67,.58,1.08,.58,1.08Z"/><g><circle class="ak" cx="279.9" cy="56.7" r="3.04"/><circle class="l" cx="279.9" cy="56.7" r="2.12"/><circle class="ag" cx="279.9" cy="56.7" r="1.42"/></g><g><circle class="ak" cx="303.32" cy="56.7" r="3.04"/><circle class="l" cx="303.32" cy="56.7" r="2.12"/><path class="ag" d="M301.91,56.7c0,.78,.63,1.42,1.42,1.42s1.42-.63,1.42-1.42-.63-1.42-1.42-1.42-1.42,.63-1.42,1.42Z"/></g><path class="ae" d="M310.31,53.81c-.26-1.7-1.09-2.05-3.55-2.54-2.71-.54-6.16-2.31-6.16-2.31,0,0-5.88-2.88-7.32-3.21-1.44-.33-4.98-.24-7.95-.21-2.97,.02-4.72,.85-6.23,2.03-1.51,1.18-4.13,2.08-4.13,2.08l-.48,.09c-.49,.09-.85,.51-.85,1.01v4.21c0,.48,.32,.89,.78,1.02l1.72,.45h0c.14,.02,.27-.08,.29-.22,.19-1.72,1.68-3.03,3.45-3.03,1.89,0,3.44,1.55,3.43,3.44,0,.21-.02,.42-.06,.63-.04,.21,.12,.4,.34,.4h15.83c.31,0,.55-.27,.51-.58-.02-.15-.03-.3-.03-.45,0-1.86,1.5-3.41,3.37-3.45,1.93-.04,3.51,1.51,3.51,3.44,0,.13,0,.25-.02,.38-.04,.35,.23,.66,.59,.66h2.28c.41,0,.75-.34,.75-.75v-2.2c0-.29-.02-.58-.06-.87Z"/><path class="w" d="M273.75,51.23h1.87c.16,0,.27,.16,.21,.31l-.21,.5c-.2,.48-.67,.79-1.19,.79h-.68c-.13,0-.24-.11-.24-.24v-1.12c0-.13,.11-.24,.24-.24Z"/><path class="ab" d="M307.33,52.01c1.03,.16,2.22,1.14,2.22,1.14,.28,.31,.05,.8-.37,.77l-2.01-.13c-.42-.03-.77-.31-.89-.71h0c-.2-.68-.03-1.23,1.05-1.07Z"/><path class="aa" d="M273.66,55.1c-.13,0-.22,.13-.17,.25,.13,.34,.42,.61,.79,.7l1.93,.51c.16,.03,.3-.08,.32-.24,.04-.33,.11-.64,.23-.93,.04-.1-.03-.21-.14-.21l-2.95-.07Z"/><path class="aa" d="M306.8,55.89c-.15,0-.26,.12-.24,.27,.02,.16,.03,.33,.03,.49,0,.14,0,.28-.02,.42-.04,.39,.26,.73,.65,.73h2.53c.46,0,.83-.37,.83-.83v-.65c0-.19-.15-.34-.33-.34l-3.44-.08Z"/><path class="p" d="M300.61,49.93s-3.38-1.85-5.6-2.88c-2.2-1.02-4.65-.91-4.75-.9-.28,0-6.15-.13-7.95,.43-1.82,.57-4.18,3.15-4.28,3.26l-.03,.03,.64,2.99h.07c1.85-.11,3.27,.38,4.1,1.42,.63,.78,.7,1.61,.7,1.62v.07l6.68,.17h.16l9.3,.18v-.08c.05-3.02,1-6.18,1.01-6.21l.02-.06-.06-.03Zm-16.96,5.87c-.03-.22-.17-.93-.73-1.63-.6-.75-1.8-1.61-4.17-1.49l-.59-2.77c.27-.29,2.51-2.66,4.19-3.18,1.67-.52,7.11-.44,7.83-.42v9.66l-6.53-.17Zm15.83,.35l-9.14-.18v-9.67c.43-.01,2.63-.03,4.61,.89,2.06,.95,5.08,2.6,5.53,2.85-.13,.46-.94,3.33-1,6.11Z"/><path class="p" d="M273.49,55.34c.13,.34,.42,.61,.79,.7l1.93,.51c.16,.03,.3-.08,.32-.24,.01-.13,.03-.25,.06-.37l-3.1-.6Z"/><path class="p" d="M306.58,56.83c0,.08,0,.16-.02,.24-.04,.39,.26,.73,.65,.73h2.53c.46,0,.83-.37,.83-.83v-.14h-3.99Z"/><path class="aa" d="M300.05,56.83c0-.17,.01-.34,.04-.51,.03-.2-.12-.38-.32-.39l-16.46-.4c-.18,0-.31,.17-.26,.34,.09,.3,.13,.62,.13,.95,0,.22-.02,.43-.06,.64-.04,.22,.12,.41,.34,.41h16.11c.32,0,.55-.28,.51-.59-.02-.15-.03-.3-.03-.45Z"/><path class="p" d="M300.05,56.83h-16.88c0,.21-.02,.42-.06,.63-.04,.22,.12,.41,.34,.41h16.11c.32,0,.55-.28,.51-.59-.02-.15-.03-.3-.03-.45Z"/><path class="ab" d="M279.96,50.21l9.1,.09s.56-.01,.63-.54c.08-.52,.07-2.77,.07-2.77,0,0-.07-.45-.5-.46-.26,0-2.46-.16-4.6,.1-1.74,.21-3.36,1.01-4.58,2.23l-.65,.65s-.44,.69,.52,.7Z"/><path class="ab" d="M290.78,47.27v2.35c0,.31,.23,.56,.53,.57l7.15,.29c.16,0,.32-.07,.42-.21,.13-.19,.14-.5-.5-.92-1.11-.73-3.95-2.29-5-2.45-.67-.1-1.54-.14-2.09-.16-.28,0-.52,.22-.52,.52Z"/><path class="m" d="M281.31,49.11s5.93-.68,6.06-.56c.13,.12,.95,2.04,1.1,2.57l-6.98-.07-.49-.74,.32-1.21Z"/><path class="o" d="M293.88,49.64s.55,.65,.7,1.34l-.17,.28-.34-.36-.18-1.26Z"/><path class="ak" d="M294.46,47.95c-.1-.68-.72-1.17-1.37-.84-.14,.07-.34,.23-.44,.35-.27,.35-.34,.78-.62,1.11,.1,.08,.23,.16,.37,.24l.17-.23-.06,.29c.43,.21,1.04,.38,1.88,.37,.11-.47,.11-.93,.06-1.3Z"/><path class="v" d="M293.02,49.45s-.62-.04-.87,.23c-.25,.27,.54,2.38,.59,2.72,.04,.34-.37,1.02-.37,1.02,0,0,1.71,.8,2.12,.52,0,0-.07-2.72-.11-2.97-.04-.24-.42-1.23-.51-1.33-.09-.1-.86-.19-.86-.19Z"/><path class="g" d="M293.22,48.62v.05c-.04,.15-.14,.64-.21,.78-.09,.16,.3,.69,.67,.62,.11-.02-.09-.48-.08-.53,.02-.09,.04-.22,.07-.35l.04-.22,.07-.36h-.55Z"/><path class="m" d="M281.36,49.22s-.02-.08-.04-.11l-.88,.88s-.66,1.05,.79,1.06h.4l-.27-1.83Z"/><path class="ac" d="M293.22,48.67v-.05h.56l-.07,.35-.04,.22c-.09-.01-.18-.05-.26-.13-.1-.09-.16-.19-.2-.3l.02-.09Z"/><path class="g" d="M293.6,47.36s-.26-.03-.43,.18c-.16,.21-.34,.87,.07,1.22,.41,.36,.81-.05,.87-.47,.06-.43,.08-.94-.51-.93Z"/><path class="g" d="M294.23,48.28c-.05,.09-.13,.15-.18,.12-.05-.03-.05-.13,0-.22,.05-.09,.13-.15,.18-.12,.05,.03,.05,.13,0,.22Z"/><path class="ak" d="M293.63,47.29s-.35,.62-.6,.65c-.25,.03-.28,.36-.28,.36,0,0,.09-.76,.34-.91,.25-.15,.54-.1,.54-.1Z"/><path class="g" d="M293.09,48.1c.02,.11-.02,.21-.09,.23-.07,.01-.14-.06-.16-.17-.02-.11,.02-.21,.09-.23,.07-.01,.14,.06,.16,.17Z"/><path class="f" d="M292.22,52.47s.23-1,.33-1.22c.09-.22,.46-1.25,.46-1.25l-.48-.1s-.31,.8-.45,1.16c-.14,.36-.08,1.03-.09,1.22l-.02,.16h0s0,.04-.01,.04c0,0-.02,.07-.02,.08,0,0-.01,.03-.02,.04,0,0-.02,.14-.02,.16,0,.02,0,.07,0,.07v.09c0,.06,.06,.05,.06,.05,0,.03,0,.05,.03,.05,.02,0,.04,0,.04,0h0s.02,.04,.03,.05c.01,0,.04,0,.05-.01,0,0,.01,0,.01,0,.01,.01,.07,.01,.08,0,.01-.02,.02-.11,.03-.12,0,0,.02-.02,.02-.04,0-.01,.05-.11,.05-.12,0-.02-.02-.08-.03-.12,0-.04-.04-.1-.05-.11,0,0,0-.03,0-.05h0Z"/><path class="h" d="M293.79,48.5l-.4-.02s0,.15,.18,.17c.21,.02,.22-.15,.22-.15Z"/><g><path class="g" d="M291.6,48.8l-.15,.96s.53,1.14,.85,1.04c.27-.08,.1-1.09,.1-1.09,0,0-.14-.54-.1-.82,.04-.27-.7-.09-.7-.09Z"/><path class="ad" d="M292.3,48.9c.04-.27-.7-.09-.7-.09v.08c0,.05,.04,.1,.07,.13,.17,.18,.43,.29,.65,.3-.02-.15-.04-.3-.02-.42Z"/><g><path class="g" d="M291.47,47.44s-.17,1.09,.11,1.4c.28,.3,.83,.4,1.02,.16,.22-.26,.21-1.45-.23-1.76-.44-.31-.9,.2-.9,.2Z"/><path class="k" d="M292.21,46.66c-.34,.07-.56,.28-.64,.36-.15,.02-.36,.1-.58,.46-.26,.44-.07,.93,.24,1.16,.31,.24,.3,.51,.3,.51l.05-.14c.04-.11,.05-.22,.04-.34,0-.07-.02-.14-.05-.2-.07-.16,.16-.27,.22-.4,.05-.1,.05-.34,.13-.5l.09-.13s.22-.17,.43-.12,.18-.76-.25-.67Z"/><path class="g" d="M291.79,48.28c0,.13-.06,.24-.14,.25-.08,0-.14-.11-.14-.24,0-.13,.06-.24,.14-.25,.08,0,.14,.11,.14,.24Z"/></g><path class="h" d="M292.25,48.59l.42-.02s0,.16-.19,.18c-.23,.02-.24-.15-.24-.15Z"/><path class="al" d="M291.33,49.72h0c.04-.07,.11-.12,.19-.13,.36-.03,1.33-.03,1.83,.83,.08,.14,.14,.28,.18,.44l.1,.43-2.57-.08v-.29c-.02-.42,.07-.83,.27-1.2Z"/></g><path class="ak" d="M297.44,51.45l.37-1.52c.02-.1-.04-.2-.14-.23-.1-.02-.2,.04-.23,.14l-.39,1.59,.39,.02Z"/><path class="g" d="M296.47,51.41c.11-.07,.19-.12,.25-.16,0,0,.27-.13,.28-.13h0s.07-.02,.08-.03c.02,0,.14-.04,.15-.04,0,0,.06,0,.08,0,.02,0,.24-.11,.27-.13,.04-.02,.1-.08,.1-.08l.14-.08c.1-.06,0-.15,0-.15,.05-.03,.06-.06,.05-.09s-.04-.06-.04-.06c0,0,.01-.02,.01-.02,.03-.02,.03-.07,.02-.09,0-.02-.05-.05-.07-.06-.02,0-.02-.01-.02-.01,0-.03-.05-.12-.09-.12-.04,0-.19,.07-.21,.07-.02,0-.05,0-.08,0-.02,.01-.21,.04-.25,.05-.03,.02-.1,.12-.16,.17-.05,.05-.11,.17-.12,.2,0,.01-.04,.03-.08,.05h0s-1.18,.43-1.87,.64l1.55,.06Z"/><path class="r" d="M292.82,51.26c-.07-.44-.16-.89-.26-1.11-.21-.46-.92-.74-1.27-.45-.19,.15-.11,.89,.05,1.52l1.48,.04Z"/><path class="al" d="M282.49,48.74s-.87-.02-1.17,.17c-.3,.2-.26,2.14-.26,2.14l.29,.05s.1,1.34,.33,1.41c.22,.07,1.68-.38,1.99-.76,.3-.38-.64-3.16-.64-3.16l-.53,.13Z"/><g><path class="g" d="M284.04,47.19c.08-.24,.13-.95,.14-1.19-.01-.02-.08-.12-.07-.32,0-.14-.1-.38,0-.36,.09,.02,.1,.26,.15,.22,.05-.04,.08-.56,.16-.55,.08,.01,.03,.5,.08,.47,.05-.04,.05-.49,.17-.47,.12,.02-.05,.53,.01,.54,.06,.01,.16-.31,.26-.3,.09,.02-.16,.44-.13,.41,.03-.02,.23-.19,.26-.16,.04,.04-.43,.53-.43,.66h0c.04,.33,.12,.92,.01,1.29-.13,.46-.46,1.47-.46,1.47l-.71-.17s.46-1.28,.55-1.56Z"/><path class="f" d="M284.34,45.64s.06,.04,.09,.07c0,0,.09,.09,.07,.22-.02-.08-.03-.17-.16-.29Z"/></g><path class="g" d="M279.83,49.12s.02-.11-.08-.29c-.06-.11-.08-.34-.14-.29-.06,.05,.03,.25-.03,.24-.06-.01-.28-.42-.34-.37-.06,.04,.18,.41,.13,.4-.05-.01-.23-.37-.32-.31s.25,.4,.21,.44-.25-.19-.31-.14c-.07,.05,.29,.29,.26,.28-.03,0-.25-.06-.26-.02-.01,.05,.45,.2,.5,.3,.05,.1,.85,1.13,1.07,1.13s1.25-.69,1.32-.91c.07-.22-.02-.46-.17-.49-.15-.03-1.1,.65-1.15,.64s-.7-.6-.7-.6Z"/><path class="f" d="M279.59,48.87s-.04,.07-.04,.1c0,0-.04,.12,.05,.23-.03-.08-.06-.17,0-.33Z"/><path class="m" d="M281.98,50.53s.92,.73,1.02,.88c.08,.11-.18,1.36-.18,1.36,0,0-.36,.01-.53-.12,0,0,.1-.87,.06-.9-.04-.03-1.05-.48-1.05-.48l.06-.51,.62-.23Z"/><path class="e" d="M283.73,47.91s.16,.03,.7,.62l-.63,1.28-.58-1.07,.51-.84Z"/><path class="e" d="M282.71,48.82s.41-.09,.56-.16c.15-.07,1.49,3.09,1.15,3.2-.71,.23-2.54,.85-2.54,.85,0,0-.05-.18,.01-.52,.12-.58,.08-1.87,.05-2.09-.01-.13-.8,.25-.8,.25l-.31-1s.89-.3,1.19-.4c.08-.03,.68-.13,.68-.13Z"/><path class="al" d="M284.24,50.77c-.17-.52-1.28-2.02-1.29-2.04l.18-.12c.04,.06,.94,1.33,1.12,1.88l-.02,.28Z"/><path class="al" d="M281.84,51.74l-.11-.15s.78-.62,.8-1.31c.02-.69-.54-1.36-.54-1.36l.14-.12s.61,.73,.59,1.49c-.02,.77-.84,1.42-.87,1.45Z"/><path class="ak" d="M282.51,46.7s.33-.24,.64,.15c.25,.31,.21,.22,.34,.37,.12,.16,.31,.17,.33,.43,.03,.26-.09,.31-.09,.31,0,0,.13,.19,.03,.41-.1,.22-.38,.43-.64,.43,0,0-.36,.25-.75,.19-.39-.06-.26-.07-.42-.06-.16,.02-.6-.15-.57-.47,0,0-.29-.28-.07-.55,.22-.28,.34-.47,.45-.82s.55-.46,.73-.4Z"/><path class="g" d="M282.95,48.5s.04,.46,.08,.5c.05,.04,.12,.1,.06,.22-.05,.12-.34,.08-.47,.03-.13-.05-.22-.15-.22-.15v-.74l.55,.14Z"/><path class="f" d="M282.79,48.71c-.09-.02-.25-.06-.39-.25v-.1l.56,.14s0,.11,.02,.23c-.08,0-.14-.01-.19-.02Z"/><path class="g" d="M282.17,47.96s-.04-.27-.2-.2c-.16,.07,.01,.47,.15,.44,.14-.03,.06-.24,.06-.24Z"/><path class="g" d="M282.67,46.91s.26-.03,.41,.15c.15,.19,.36,.75,.18,1.17-.18,.42-.47,.35-.59,.33-.12-.03-.36-.09-.51-.45-.16-.36-.16-1.21,.5-1.2Z"/><g><polygon class="g" points="287.98 51.22 288.46 53.51 287.63 53.43 287.24 51.34 287.98 51.22"/><path class="af" d="M288.12,51.29l-.89,.05s-.07-.61-.08-.9c-.02-.36-.01-.81,.03-.81,.12,.02,.29,.08,.39,.21,.36,.44,.55,1.46,.55,1.46Z"/><path class="ab" d="M287.54,50.35c.02,.11,.58,3.1,.58,3.1-1.33,.73-2.34,.11-2.34,.11,0,0,.05-2.01-.02-2.29-.05-.18-.21-1.4-.09-1.44,.15-.05,.38-.13,.58-.16,.16-.03,.81-.07,.92-.04,0,0,.28,.27,.37,.72Z"/><path class="k" d="M287.06,47.5s.54,0,.49,.44c0,0,.4,.16,.13,.52,0,0,.28,.39-.21,.76,0,0-.13,.52-.69,.27,0,0-.17,.12-.4-.04-.23-.17-.26-.26-.26-.26,0,0-.51-.1-.44-.56,0,0-.27-.23,.14-.51,0,0,0-.64,.54-.55,0,0,.32-.49,.7-.05Z"/><path class="g" d="M286.22,48.55c-.01,.11-.09,.2-.17,.19-.08,0-.13-.11-.11-.22,.01-.11,.09-.2,.17-.19,.08,0,.13,.11,.11,.22Z"/><path class="g" d="M287.48,48.9c-.05,.1-.14,.16-.21,.13-.07-.03-.09-.14-.04-.25,.05-.1,.14-.16,.21-.13,.07,.03,.09,.14,.04,.25Z"/><path class="g" d="M286.84,49.24s.04,.3,.07,.46c0,.06-.02,.11-.08,.13-.15,.05-.43,.12-.61-.06-.02-.02-.02-.04-.02-.06l.07-.68,.57,.22Z"/><path class="f" d="M286.88,49.54c-.16,.06-.6,0-.64-.27l.03-.25,.57,.22s.03,.21,.04,.29Z"/><path class="g" d="M286.98,47.85s-.24-.05-.46,.09c-.23,.14-.59,.69-.29,1.17,.31,.48,.83,.24,1.01-.14,.18-.38,.26-.95-.26-1.13Z"/><path class="h" d="M286.83,49.03l-.31-.02s0,.12,.14,.13c.17,.01,.18-.11,.18-.11Z"/><path class="k" d="M287.38,48.12s-.23-.12-.4-.11c-.17,.02-.73,.42-.81,.35-.08-.07,.02-.43,.09-.48,.06-.05,.32-.21,.34-.21,.02,0,.26,0,.3,.01,.04,.01,.33,.15,.33,.15l.15,.28Z"/><path class="g" d="M284.05,53.72s.02-.01,.03-.02c.12,0,.23-.02,.35-.04,.02,0,.04,0,.06-.02,.03-.01,.06-.01,.1,0,.02,0,.04,0,.05,0,.06,0,.23-.06,.31-.08,.02,0,.03-.02,.04-.04,.07-.34,.23-1.1,.25-1.35,.02-.32,.19-1.76,.19-1.76l.59,.15s-.21,1.07-.26,1.58c-.04,.4-.41,1.25-.52,1.5-.05,.18-.19,.19-.22,.2-.02,0-.03,.01-.05,.03-.02,.03-.04,.05-.07,.07-.02,.01-.04,.03-.05,.05-.02,.04-.04,.08-.07,.11-.01,.03-.03,.03-.05,.03-.02,0-.04-.02-.04-.05,0-.04,.01-.08,.03-.12,.02-.03,.02-.05,0-.08-.01-.02-.03-.03-.05-.05-.02-.01-.04-.02-.06-.02-.04,.01-.08,.02-.13,.03h-.05s-.07,.02-.09,.02c-.02,0-.04,0-.07,0-.02,0-.07,0-.07,0-.02,0-.04,0-.06-.02,0,0-.01-.01,0-.02,0,0,0-.01,.02-.01l.09-.02s-.09,0-.11,0c-.03,0-.05,0-.08-.03,0,0-.02-.02-.01-.03Z"/><path class="af" d="M285.04,51.28l.86,.41s.13-.63,.24-1.02c.09-.33-.34-.93-.48-.85-.32,.18-.61,1.45-.61,1.45Z"/></g><path class="ae" d="M290.84,50.17l7.63,.32s-.67,2.23-.68,2.34c-.02,.11-2.52,1.48-3.15,1.46s-2.1-.54-2.41-.64c-.32-.09-1.14-.73-1.09-1.13,.05-.39-.3-2.36-.3-2.36Z"/><rect class="aa" x="290.9" y="50.94" width="2.23" height=".36" rx=".09" ry=".09"/><path class="ae" d="M293.92,47.05l1.03,.43-.06-.21-.39-.21s-.32-.06-.35-.08c-.03-.02-.24,.08-.24,.08Z"/><path class="x" d="M298.85,49.77l-8.07-.69v.54c0,.31,.23,.56,.53,.57l7.15,.29c.16,0,.32-.07,.42-.21,.08-.12,.12-.29-.03-.5Z"/><polygon class="a`" points="290.78 49.08 290.78 49.01 298.82 49.74 298.85 49.77 290.78 49.08"/><polygon class="j" points="292.64 50.25 293.37 50.28 293.98 49.36 293.26 49.3 292.64 50.25"/><polygon class="j" points="293.94 50.3 294.53 49.41 294.26 49.38 293.66 50.29 293.94 50.3"/><path class="ae" d="M279.84,50.2l9.22,.09,.08,2.92s-1.08,1.57-1.21,1.55c-.13-.02-2.88-.46-3.13-.44-.25,.02-2.41-1.04-2.51-1.02-.1,.02-.77-.34-.77-.34l-1.1-.77-1.09-1.12,.5-.87Z"/><rect class="aa" x="279.57" y="50.76" width="2.23" height=".36" rx=".09" ry=".09"/><path class="h" d="M283.07,48.08l-.32,.06s.03,.12,.17,.1c.17-.03,.15-.16,.15-.16Z"/><path class="ak" d="M282.09,47.78s.72-.33,.79-.85c.07-.52-.59-.02-.59-.02l-.27,.26,.07,.61Z"/><path class="ae" d="M291.04,50.11s.13,.09,.3,.09c0,0-.23,.07-.23,.06l-.12-.1,.05-.05Z"/><path class="ae" d="M291.73,46.77l.9,.06s-.15-.24-.21-.24h-.47l-.22,.19Z"/><path class="aj" d="M343.48,60.38h-97.17c-.2,0-.37-.17-.37-.37h0c0-.2,.17-.37,.37-.37h97.17c.2,0,.37,.17,.37,.37h0c0,.2-.17,.37-.37,.37Z"/></g></g></g></svg>