<?xml version="1.0" encoding="UTF-8"?><svg xmlns="http://www.w3.org/2000/svg" xmlns:xlink="http://www.w3.org/1999/xlink" viewBox="0 0 868.12 70.88"><defs><style>.f{fill:#f19b35;}.g{fill:#9bc1f9;}.h{fill:#f48c7f;}.i{fill:#f7a491;}.j,.k,.l{fill:#fff;}.m{fill:#13375b;}.n{fill:#9e9da2;}.o{fill:#b75742;}.p{fill:#e5ac38;}.q{fill:#263d60;}.k{opacity:.5;}.r{fill:#4e9b87;}.s{fill:#50bfa5;}.t{fill:#96d9c9;}.u{fill:#86b1f2;}.v{fill:#f8bd37;}.w{fill:#355389;}.x{fill:#cf283c;}.y{opacity:.6;}.y,.a`,.aa{fill:#c5ddf9;}.ab{fill:#eafcfc;}.ac{opacity:.3;}.ac,.ad{fill:#f47458;}.ae{fill:#5184ce;}.af{fill:#d8d9dd;}.l{opacity:.2;}.ag{fill:url(#d);}.aa{opacity:.7;}.ah{fill:#173654;}.ai{fill:#183658;}.aj{fill:#1a1a1a;}.ak{fill:#3c8f7c;}.al{fill:#184655;}</style><linearGradient id="d" x1="556.92" y1="4486.26" x2="627.85" y2="4486.26" gradientTransform="translate(-4052.2 -556.92) rotate(90) scale(1 -1)" gradientUnits="userSpaceOnUse"><stop offset="0" stop-color="#fff" stop-opacity="0"/><stop offset=".14" stop-color="#fff" stop-opacity="0"/><stop offset=".27" stop-color="#fff" stop-opacity=".06"/><stop offset=".39" stop-color="#fff" stop-opacity=".13"/><stop offset=".51" stop-color="#fff" stop-opacity=".23"/><stop offset=".63" stop-color="#fff" stop-opacity=".36"/><stop offset=".74" stop-color="#fff" stop-opacity=".52"/><stop offset=".86" stop-color="#fff" stop-opacity=".71"/><stop offset=".96" stop-color="#fff" stop-opacity=".92"/><stop offset="1" stop-color="#fff"/></linearGradient></defs><g id="a"><g id="b"><g id="c"><polygon class="ag" points="0 70.93 0 0 868.12 0 868.12 70.93 0 70.93"/></g></g><g><rect class="v" x="125.13" y="18.16" width=".83" height="38.5"/><g><path class="ah" d="M43.31,25.37h-7.08c-.07,0-.14,.04-.18,.1l-9.55,15.36h-.15l-1.32-15.26c0-.11-.1-.2-.21-.2h-7.22c-.09,0-.18,.06-.2,.15l-7.46,23.62c-.04,.14,.06,.28,.2,.28h5.06c.09,0,.18-.06,.21-.15l3.15-10.59c.81-2.66,1.27-4.43,1.73-6.44h.15l1.42,16.98c0,.11,.1,.2,.21,.2h4.39c.08,0,.14-.04,.18-.1l10.27-17.07h.15c-.54,2-1.06,3.88-1.62,6.44l-2.33,10.48c-.03,.13,.07,.26,.21,.26h5.14c.1,0,.19-.07,.21-.17l4.86-23.62c.03-.13-.07-.26-.21-.26Z"/><path class="ah" d="M62.96,31.21c-4.07,0-7.17,2.53-7.81,4.98-.54,2.05,.28,3.75,2.37,4.91,.61,.33,1.05,.55,1.51,.77,.42,.21,.87,.43,1.51,.76,1.17,.62,1.31,.99,1.16,1.56-.2,.76-1.17,1.54-2.88,1.54-2,0-2.25-1.45-2.11-2.66,.04-.26-.01-.46-.16-.57-.16-.12-.41-.14-.74-.05l-2.81,.82c-.41,.12-.69,.45-.75,.88-.32,3.09,2,5.33,5.51,5.33,3.99,0,7.61-2.34,8.43-5.45,.56-2.14-.33-3.74-2.79-5.03-.62-.32-1.23-.61-1.77-.86-.26-.12-.52-.24-.75-.36-1.06-.51-1.47-.84-1.27-1.6,.21-.79,1.38-1.26,2.4-1.26,.53,0,1.06,.09,1.4,.41,.38,.36,.4,.92,.52,1.42,.04,.17,.09,.34,.21,.46,.12,.12,.32,.13,.54,.1l2.96-.93s.59-.09,.52-.94c-.24-2.66-2.01-4.24-5.17-4.24Z"/><path class="ah" d="M77.4,45.09c-.19-.09-.44-.08-.73,.03h-.04c-.35,.13-.71,.26-1.29,.26-.77,0-1.14-.18-.78-1.56l2.12-7.99c.02-.09,.11-.16,.21-.16h4.11c.1,0,.19-.07,.21-.16l.19-.79,.59-2.01v-.02l.18-.45h-4.17c-.14,0-.24-.13-.21-.27l.88-3.47c.03-.14-.07-.27-.21-.27h-4c-.1,0-.18,.06-.21,.16l-1,3.69c-.03,.09-.11,.16-.21,.16h-2.05c-.09,0-.16,.05-.2,.13l-.11,.27s0,.02-.01,.03l-.59,2.21-.15,.53c-.04,.14,.06,.27,.21,.27h1.46c.14,0,.24,.13,.21,.27l-2.06,7.76c-1.34,5.08,1.94,5.79,3.97,5.79s3.35-.64,3.88-1.17c.24-.24,.37-.5,.35-.72l-.27-2.08c-.02-.26-.16-.38-.27-.43Z"/><path class="ah" d="M114.18,30.68c-.33-.05-.72,0-1.04,0-2.87,0-4.57,1.85-5.98,3.85h-.11l.61-3.18c.03-.13-.08-.26-.21-.26h-4.07c-.1,0-.18,.07-.21,.16l-.99,3.97-3.89,13.9c-.04,.14,.07,.27,.21,.27h4.74c.1,0,.18-.06,.21-.16l2.6-9.09c.72-2.73,2.47-4.57,4.71-4.57,.49,0,1.14,.02,1.61,.15,.11,.03,.21-.03,.25-.13l1.71-4.63c.05-.12-.03-.26-.16-.29Z"/><path class="ah" d="M92.24,31.34c-5,0-9.79,3.85-11.15,9.03-1.65,6.28,2.15,9.1,6.37,9.1,3.97,0,6.59-2.18,8.06-3.73,.37-.39-.03-.55-.03-.55l-2.74-1.24c-.47-.21-.72,.1-.72,.1-.83,.88-1.9,1.54-3.56,1.54-2.38,0-3.29-1.52-3.11-3.33,0-.02,0-.03,0-.05,.01-.09,.08-.27,.08-.27h10.36c1.46,0,1.97-1.07,2.38-2.65,1.19-4.54-1.3-7.97-5.95-7.97Zm1.54,7.01c-.02,.1-.11,.18-.21,.18h-6.59c-.17,0-.27-.18-.18-.33,1.03-1.78,2.76-2.63,4.4-2.63,1.85,0,2.87,.89,2.59,2.77Z"/><path class="ah" d="M49.35,30.37c-.95-.41-2.5-.25-2.79-.1-.13,.07-.29,.1-.33,.25-.54,2.22-3.78,18.36-3.78,18.36-.05,.25,.14,.49,.4,.49h4.96c.36,0,.67-.25,.73-.6l2.92-16.13s-.19-1.43-2.12-2.27Z"/><path class="v" d="M53.66,31.86c-1.14-3.32,.77-6.95,4.09-8.09-3.27,1.13-6.84-.61-8.04-3.84,.1-.05,.2-.09,.31-.12l-.08-.24c-1.65,.57-3.45-.32-4.03-1.98l-.24,.08c.27,.8,.22,1.65-.15,2.4-.37,.75-1.02,1.32-1.82,1.59l.08,.24c.79-.27,1.64-.22,2.38,.16,.74,.37,1.29,1.02,1.58,1.85l.24-.08c-.53-1.53,.24-3.2,1.71-3.89,1.04,3.28-.73,6.77-4,7.89,3.32-1.14,6.81,.67,7.96,3.99v.04Zm-6.09-8.89c-.32-.48-.76-.88-1.29-1.14-.47-.24-.97-.36-1.48-.36-.06,0-.12,0-.18,0,.97-.67,1.53-1.81,1.47-2.98,.68,.98,1.82,1.55,3,1.49-1,.68-1.58,1.82-1.53,2.99Z"/><path class="v" d="M52.48,20.45v.02c-.58-1.72,.43-3.6,2.15-4.19-1.72,.59-3.6-.34-4.19-2.06,.59,1.72-.33,3.57-2.05,4.16,1.72-.59,3.5,.35,4.09,2.07Z"/><path class="ah" d="M106.74,47.27c0-1.21,1-2.19,2.21-2.19s2.12,.95,2.12,2.13-.98,2.18-2.19,2.18-2.15-.95-2.15-2.12Zm3.91-.05c0-.95-.76-1.73-1.71-1.73s-1.76,.8-1.76,1.77,.77,1.73,1.71,1.73,1.76-.79,1.76-1.77Zm-2.65-1.19h.98c.6,0,.92,.27,.92,.68,0,.36-.27,.59-.57,.66l.76,1.01h-.67l-.67-.92h-.21v.92h-.55v-2.35Zm.92,1.02c.31,0,.41-.14,.41-.32,0-.16-.12-.3-.41-.3h-.37v.61h.37Z"/></g><g><path class="ah" d="M145.28,36.82v-4.28l-1.84,2.8h-.04l-1.83-2.77v4.25h-1.42v-6.56h1.55l1.72,2.77,1.72-2.77h1.55v6.56h-1.42Z"/><path class="ah" d="M157.71,36.82l-.6-1.47h-2.77l-.6,1.47h-1.47l2.81-6.6h1.33l2.81,6.6h-1.51Zm-1.99-4.87l-.87,2.13h1.74l-.87-2.13Z"/><path class="ah" d="M168.76,36.82l-1.4-2.1h-1.13v2.1h-1.44v-6.56h3c.78,0,1.39,.19,1.82,.57,.43,.38,.65,.91,.65,1.59v.02c0,.53-.13,.96-.39,1.3-.26,.33-.6,.58-1.02,.74l1.6,2.34h-1.69Zm.03-4.32c0-.31-.1-.55-.3-.7-.2-.16-.48-.23-.83-.23h-1.43v1.88h1.46c.36,0,.63-.08,.82-.25s.29-.39,.29-.67v-.02Z"/><path class="ah" d="M180.34,36.82l-2.03-2.79-.76,.79v2h-1.44v-6.56h1.44v2.87l2.66-2.87h1.74l-2.67,2.78,2.79,3.77h-1.73Z"/><path class="ah" d="M187.49,36.82v-6.56h4.94v1.28h-3.51v1.33h3.09v1.28h-3.09v1.38h3.56v1.28h-4.98Z"/><path class="ah" d="M201.29,31.59v5.23h-1.44v-5.23h-2v-1.33h5.43v1.33h-1.99Z"/><path class="ah" d="M209,36.82v-6.56h1.44v6.56h-1.44Z"/><path class="ah" d="M221.23,36.82l-3.18-4.17v4.17h-1.42v-6.56h1.33l3.07,4.04v-4.04h1.42v6.56h-1.23Z"/><path class="ah" d="M233.34,36.62c-.46,.2-1,.3-1.6,.3-.51,0-.98-.08-1.4-.25-.42-.17-.78-.4-1.09-.7-.3-.3-.54-.66-.71-1.07-.17-.41-.25-.86-.25-1.35v-.02c0-.47,.09-.91,.26-1.32,.17-.41,.41-.77,.72-1.08,.31-.31,.67-.55,1.09-.73,.42-.18,.88-.27,1.38-.27,.29,0,.56,.02,.8,.06,.24,.04,.46,.1,.67,.17s.4,.17,.58,.28c.18,.11,.36,.24,.52,.38l-.91,1.1c-.12-.11-.25-.2-.37-.28-.12-.08-.25-.15-.39-.21-.13-.06-.28-.1-.44-.13-.16-.03-.33-.05-.52-.05-.26,0-.51,.05-.74,.16-.23,.11-.43,.26-.6,.44-.17,.18-.31,.4-.4,.65-.1,.25-.15,.51-.15,.79v.02c0,.3,.05,.58,.15,.83,.1,.25,.23,.47,.41,.66s.39,.33,.63,.44c.24,.1,.51,.15,.8,.15,.54,0,.99-.13,1.36-.4v-.94h-1.45v-1.25h2.85v2.85c-.34,.29-.74,.53-1.2,.74Z"/><path class="ah" d="M153.27,48.32c-.12,.25-.28,.47-.49,.64s-.46,.3-.75,.39c-.29,.09-.62,.14-.97,.14-.5,0-.99-.09-1.47-.26-.48-.17-.92-.44-1.31-.79l.85-1.02c.3,.24,.61,.44,.92,.58,.32,.14,.66,.22,1.03,.22,.3,0,.53-.05,.7-.16,.17-.11,.25-.26,.25-.45v-.02c0-.09-.02-.18-.05-.25-.03-.07-.1-.14-.2-.2-.1-.06-.23-.12-.4-.19-.17-.06-.4-.13-.67-.2-.33-.08-.63-.17-.9-.27s-.5-.22-.69-.37c-.19-.15-.33-.33-.44-.55s-.15-.49-.15-.81v-.02c0-.3,.06-.57,.17-.81,.11-.24,.27-.45,.47-.62s.44-.31,.72-.4c.28-.09,.59-.14,.93-.14,.48,0,.92,.07,1.33,.22s.77,.35,1.11,.62l-.75,1.09c-.29-.2-.58-.36-.86-.47-.28-.12-.56-.17-.84-.17s-.49,.05-.63,.16c-.14,.11-.21,.24-.21,.41v.02c0,.11,.02,.2,.06,.28s.11,.15,.22,.21c.11,.06,.25,.12,.44,.18,.18,.06,.42,.12,.7,.2,.33,.09,.63,.19,.89,.29,.26,.11,.48,.24,.66,.39,.18,.15,.31,.33,.4,.54,.09,.21,.14,.45,.14,.74v.02c0,.32-.06,.61-.18,.87Z"/><path class="ah" d="M164.66,47.83c-.13,.37-.33,.68-.58,.92-.25,.25-.55,.43-.91,.55-.36,.12-.75,.18-1.19,.18-.88,0-1.57-.24-2.08-.73s-.76-1.21-.76-2.18v-3.75h1.44v3.71c0,.54,.12,.94,.37,1.21s.6,.41,1.04,.41,.79-.13,1.04-.39,.37-.66,.37-1.18v-3.76h1.44v3.7c0,.5-.07,.93-.2,1.3Z"/><path class="ah" d="M175.87,46.12c-.14,.29-.33,.53-.57,.72-.24,.19-.52,.34-.84,.44-.32,.1-.67,.15-1.03,.15h-1.1v1.97h-1.44v-6.56h2.68c.39,0,.74,.05,1.05,.16s.57,.26,.79,.46c.22,.2,.38,.44,.5,.72s.17,.59,.17,.92v.02c0,.38-.07,.71-.21,1Zm-1.25-.99c0-.32-.1-.57-.31-.74-.21-.17-.49-.25-.86-.25h-1.11v2h1.14c.36,0,.64-.1,.84-.29s.3-.43,.3-.71v-.02Z"/><path class="ah" d="M186.68,46.12c-.14,.29-.33,.53-.57,.72-.24,.19-.52,.34-.84,.44-.32,.1-.67,.15-1.03,.15h-1.1v1.97h-1.44v-6.56h2.68c.39,0,.74,.05,1.05,.16s.57,.26,.79,.46c.22,.2,.38,.44,.5,.72s.17,.59,.17,.92v.02c0,.38-.07,.71-.21,1Zm-1.25-.99c0-.32-.1-.57-.31-.74-.21-.17-.49-.25-.86-.25h-1.11v2h1.14c.36,0,.64-.1,.84-.29s.3-.43,.3-.71v-.02Z"/><path class="ah" d="M192.5,49.39v-6.56h1.44v5.25h3.27v1.3h-4.71Z"/><path class="ah" d="M202.92,49.39v-6.56h1.44v6.56h-1.44Z"/><path class="ah" d="M210.55,49.39v-6.56h4.94v1.28h-3.51v1.33h3.09v1.28h-3.09v1.38h3.56v1.28h-4.98Z"/><path class="ah" d="M225.94,48.32c-.12,.25-.28,.47-.49,.64s-.46,.3-.75,.39c-.29,.09-.62,.14-.97,.14-.5,0-.99-.09-1.47-.26-.48-.17-.92-.44-1.31-.79l.85-1.02c.3,.24,.61,.44,.92,.58,.32,.14,.66,.22,1.03,.22,.3,0,.53-.05,.7-.16,.17-.11,.25-.26,.25-.45v-.02c0-.09-.02-.18-.05-.25-.03-.07-.1-.14-.2-.2-.1-.06-.23-.12-.4-.19-.17-.06-.4-.13-.67-.2-.33-.08-.63-.17-.9-.27s-.5-.22-.69-.37c-.19-.15-.33-.33-.44-.55s-.15-.49-.15-.81v-.02c0-.3,.06-.57,.17-.81,.11-.24,.27-.45,.47-.62s.44-.31,.72-.4c.28-.09,.59-.14,.93-.14,.48,0,.92,.07,1.33,.22s.77,.35,1.11,.62l-.75,1.09c-.29-.2-.58-.36-.86-.47-.28-.12-.56-.17-.84-.17s-.49,.05-.63,.16c-.14,.11-.21,.24-.21,.41v.02c0,.11,.02,.2,.06,.28s.11,.15,.22,.21c.11,.06,.25,.12,.44,.18,.18,.06,.42,.12,.7,.2,.33,.09,.63,.19,.89,.29,.26,.11,.48,.24,.66,.39,.18,.15,.31,.33,.4,.54,.09,.21,.14,.45,.14,.74v.02c0,.32-.06,.61-.18,.87Z"/></g></g><g><rect class="j" x="240.58" y="4.6" width="105.95" height="61.69"/><path class="ab" d="M253.01,58.71h87.35c7.24-4.2,3.51-16.85-2.53-19.41-6.51-2.76,3.83-12.3-6.2-15.4-6.55-2.02-15.42,.24-19.76-4.12-5.09-5.12-13.55-11.34-29.31-6.5-12.15,3.73-5.55,10.93-25.44,13.09-10.23,1.11-8.25,10.64-7.3,12.61,.83,1.72,6.32,4.44-1.31,8.18-11.2,5.49,4.23,11.44,4.49,11.54Z"/><path class="a`" d="M277.04,44.59s8.95-11.34,14.27-11.3c5.32,.04,11.12,7.47,18.7,13.81,8.49,7.11-2.6,7.41-3.24,7.47-.64,.06-22.71-.72-23.08-1.1-.37-.38-6.26-5.3-6.26-5.3l-.39-3.58Z"/><g><rect class="w" x="322.96" y="40.73" width=".38" height="4.19" transform="translate(646.3 85.66) rotate(180)"/><polygon class="ak" points="323.15 32.6 324.39 42.58 321.92 42.58 323.15 32.6"/><polygon class="s" points="323.94 38.96 322.18 40.47 322.25 39.92 323.88 38.52 323.94 38.96"/><polygon class="s" points="323.67 36.77 322.59 37.14 322.64 36.73 323.62 36.4 323.67 36.77"/></g><polygon class="ak" points="271.46 37.54 272.56 46.45 270.35 46.45 271.46 37.54"/><polygon class="ak" points="273.4 38.85 274.24 45.64 272.56 45.64 273.4 38.85"/><polygon class="ak" points="275.08 40.87 275.92 47.66 274.24 47.66 275.08 40.87"/><polygon class="ak" points="269.39 39.53 270.5 48.44 268.29 48.44 269.39 39.53"/><path class="u" d="M273.56,42.3c9.56,1.59,23.91,15.89,34.83,15.89s13.28-3.42,17.38-2.7c4.1,.72,9.6,2.7,9.6,2.7l-81.2,.24s9.83-17.72,19.39-16.13Z"/><polygon class="ak" points="308.17 38.14 309.27 47.04 307.07 47.04 308.17 38.14"/><polygon class="ak" points="310.79 40.76 311.63 47.54 309.95 47.54 310.79 40.76"/><polygon class="ak" points="304.18 44.38 305.02 51.16 303.34 51.16 304.18 44.38"/><polygon class="ak" points="306.11 40.13 307.21 49.03 305.01 49.03 306.11 40.13"/><path class="u" d="M316.9,42.3c-9.56,1.59-23.91,15.89-34.83,15.89s-13.28-3.42-17.38-2.7c-4.1,.72-9.6,2.7-9.6,2.7l81.2,.24s-9.83-17.72-19.39-16.13Z"/><g><rect class="w" x="313.62" y="50.87" width=".43" height="4.78" transform="translate(627.68 106.52) rotate(180)"/><polygon class="ak" points="313.84 41.59 315.25 52.97 312.43 52.97 313.84 41.59"/><polygon class="s" points="314.74 48.84 312.73 50.57 312.81 49.94 314.68 48.34 314.74 48.84"/><polygon class="s" points="314.43 46.35 313.2 46.77 313.26 46.3 314.38 45.92 314.43 46.35"/></g><g><rect class="w" x="318.5" y="50.48" width=".41" height="7.21" transform="translate(637.41 108.17) rotate(180)"/><polygon class="ak" points="318.6 37.61 320.63 52.18 316.57 52.18 318.6 37.61"/><polygon class="s" points="320.5 51.25 316.86 50.1 316.91 49.71 320.44 50.82 320.5 51.25"/><polygon class="s" points="319.86 46.65 317.45 45.89 317.5 45.5 319.8 46.22 319.86 46.65"/></g><path class="t" d="M254.17,58.43s10.48-9.11,24-9.66c4.54-.19,23.12,3.58,38.77,6.54,.66,.12,2.08,1.34,2.75,1.47,7.41,1.39,14.31,1.69,16.55,1.78l-82.06-.12Z"/><path class="r" d="M338.44,48.42l.02-.78c0-.58-.44-1.05-.99-1.05h0c-1.38,0-2.5,1.19-2.5,2.65v1.07c0,.47-.25,.88-.61,1.08-.33,.19-.53,.56-.53,.96v.56c0,.61,.27,1.18,.72,1.57,.26,.22,.43,.57,.43,.95v.8c0,.88,.67,1.6,1.51,1.6h.47c.83,0,1.51-.72,1.51-1.6h0c-.14-1.12,.19-1.76,.58-2.13,.56-.54,.89-1.3,.89-2.11v-.11c0-.85-.37-1.65-.99-2.19-.27-.24-.5-.63-.5-1.27Z"/><path class="t" d="M339.99,58.75s-3.85-5.11-6.27-5.9c-2.42-.78-.14,2.33-.14,2.33,0,0-4.3-4.7-5.87-4.27-1.45,.39,0,3.3,0,3.3,0,0-1.63-1.61-3.6-1.61s1.53,6.04,1.53,6.04l14.36,.11Z"/><path class="ak" d="M327.71,58.64s-2.63-7.03-5.89-6.22c-2.64,.66-.76,4.2-.92,4.04-.16-.16-1.58-2.56-3.87-2.56s.7,3.24,.7,3.24c0,0-4.88-1.52-5.26,.08-.32,1.33,1.46,1.43,1.46,1.43h13.78Z"/><g><path class="ak" d="M267.57,57.32c.01-.09,.02-.18,.02-.27,0-1.02-.95-1.84-2.13-1.84s-2.13,.83-2.13,1.84c0,.09,0,.18,.02,.27h4.22Z"/><path class="s" d="M269.99,56.87c.01-.12,.02-.25,.02-.38,0-1.44-.95-2.6-2.13-2.6s-2.13,1.16-2.13,2.6c0,.13,0,.26,.02,.38h4.22Z"/><path class="s" d="M269.21,58.46c-.01-.09-.02-.18-.02-.27,0-1.02,.95-1.84,2.13-1.84s2.13,.83,2.13,1.84c0,.09,0,.18-.02,.27h-4.22Z"/><path class="ak" d="M265.79,58.46c-.02-.12-.03-.25-.03-.38,0-1.44,1.21-2.6,2.7-2.6s2.7,1.16,2.7,2.6c0,.13,0,.26-.03,.38h-5.35Z"/><path class="s" d="M267.87,55.49c-.75,0-1.41,.37-1.85,.95-.22-.05-.46-.08-.71-.08-1.32,0-2.4,.83-2.4,1.84,0,.09,0,.18,.03,.27h7.3c.02-.12,.03-.25,.03-.38,0-1.44-1.07-2.6-2.4-2.6Z"/></g><g><g><path class="ak" d="M258.63,52.99c-.63-.98-.74-2.16-.73-2.98,.01-.89,.18-1.56,.18-1.56l-.05-.02s-.17,.68-.18,1.57c-.01,.83,.11,2.02,.74,3.02l.04-.03Z"/><path class="ak" d="M258.23,48.28c-.02,.2-.1,.37-.23,.47-.11-.14-.17-.33-.16-.53s.1-.37,.23-.47c.11,.14,.17,.33,.16,.53Z"/><path class="ak" d="M257.81,48.74c.11,.17,.14,.37,.11,.55-.16-.04-.32-.15-.43-.33-.11-.17-.14-.37-.11-.55,.16,.04,.32,.15,.43,.33Z"/><path class="ak" d="M257.57,49.29c.17,.11,.28,.27,.32,.45-.16,.04-.34,.02-.51-.09s-.28-.27-.32-.45c.16-.04,.34-.02,.51,.09Z"/><path class="ak" d="M257.64,50.05c.13,.09,.21,.23,.23,.39-.14,.06-.29,.05-.42-.03s-.21-.23-.23-.39c.14-.06,.29-.05,.42,.03Z"/><path class="ak" d="M258.18,49.15c.15-.08,.31-.08,.45-.03-.04,.15-.14,.29-.28,.37-.15,.08-.31,.08-.45,.03,.04-.15,.14-.29,.28-.37Z"/><path class="ak" d="M258.17,49.68c.15-.08,.31-.08,.45-.03-.04,.15-.14,.29-.28,.37-.15,.08-.31,.08-.45,.03,.04-.15,.14-.29,.28-.37Z"/><path class="ak" d="M257.74,50.89c.08,.02,.14,.07,.18,.14-.06,.05-.13,.07-.21,.05-.08-.02-.14-.07-.18-.14,.06-.05,.13-.07,.21-.05Z"/></g><g><path class="ak" d="M258.37,53.68c-1.44-.34-2.53-1.41-3.2-2.24-.72-.9-1.11-1.73-1.11-1.74l-.06,.03s.39,.85,1.12,1.75c.67,.84,1.78,1.91,3.23,2.26l.02-.07Z"/><path class="ak" d="M254.08,49.39c.15,.22,.2,.48,.16,.71-.23-.03-.45-.16-.6-.37s-.2-.48-.16-.71c.23,.03,.45,.16,.6,.37Z"/><path class="ak" d="M254.04,50.28c.25,.07,.45,.23,.56,.44-.19,.13-.45,.17-.7,.11-.25-.07-.45-.23-.56-.44,.19-.13,.45-.17,.7-.11Z"/><path class="ak" d="M254.26,51.07c.25-.06,.5,0,.69,.12-.12,.2-.33,.36-.58,.42-.25,.06-.5,0-.69-.12,.12-.2,.33-.36,.58-.42Z"/><path class="ak" d="M254.83,51.78c.25-.06,.5,0,.69,.12-.12,.2-.33,.36-.58,.42-.25,.06-.5,0-.69-.12,.12-.2,.33-.36,.58-.42Z"/><path class="ak" d="M254.66,50.59c-.01-.24,.07-.47,.2-.64,.15,.13,.26,.34,.27,.58,.01,.24-.07,.47-.2,.64-.15-.13-.26-.34-.27-.58Z"/><path class="ak" d="M255.25,51.33c-.02-.24,.06-.47,.19-.64,.15,.13,.26,.33,.28,.58,.02,.24-.06,.47-.19,.64-.15-.13-.26-.33-.28-.58Z"/><path class="ak" d="M255.75,52.49c.09-.06,.2-.07,.3-.04-.02,.1-.08,.2-.17,.26-.09,.06-.2,.07-.3,.04,.02-.1,.08-.2,.17-.26Z"/></g><g><path class="ak" d="M262.17,55.71h.06c-.09-1.65,.51-3.19,1.03-4.2,.57-1.09,1.16-1.81,1.17-1.81l-.05-.05s-.6,.72-1.17,1.82c-.53,1.02-1.13,2.57-1.04,4.23Z"/><path class="ak" d="M264.71,49.6c-.14,.24-.35,.39-.55,.43-.03-.25,.02-.53,.16-.77,.14-.24,.35-.39,.55-.43,.03,.25-.02,.53-.16,.77Z"/><path class="ak" d="M263.95,49.89c.01,.29-.08,.56-.22,.75-.16-.16-.26-.41-.27-.7-.01-.29,.08-.56,.22-.75,.16,.16,.26,.41,.27,.7Z"/><path class="ak" d="M263.34,50.4c.12,.25,.14,.53,.08,.77-.2-.05-.39-.21-.51-.46-.12-.25-.14-.53-.08-.77,.2,.05,.39,.21,.51,.46Z"/><path class="ak" d="M262.93,51.66c.06,.1,.07,.22,.05,.32-.09-.01-.17-.07-.23-.17-.06-.1-.07-.22-.05-.32,.09,.01,.17,.07,.23,.17Z"/><path class="ak" d="M262.75,52.12c.06,.1,.07,.22,.05,.32-.09-.01-.17-.07-.23-.17-.06-.1-.07-.22-.05-.32,.09,.01,.17,.07,.23,.17Z"/><path class="ak" d="M264.11,50.65c.21,0,.4,.11,.52,.28-.14,.16-.33,.26-.54,.26-.21,0-.4-.11-.52-.28,.14-.16,.33-.26,.54-.26Z"/><path class="ak" d="M263.77,51.29c.21,0,.4,.11,.52,.28-.14,.16-.33,.26-.54,.26-.21,0-.4-.11-.52-.28,.14-.16,.33-.26,.54-.26Z"/><path class="ak" d="M263.2,52.16c.14,0,.26,.07,.34,.18-.09,.11-.21,.17-.35,.17-.14,0-.26-.07-.34-.18,.09-.11,.21-.17,.35-.17Z"/></g><path class="ak" d="M256.82,58.4c0-.27,1.65,.05,1.79-.32,.14-.37-1.41-.39-1.41-.9s.79-.15,1.25-.15-.92-.22-.92-.39,.48-.08,.48-.27-2.54-.33-2.24-.8c.3-.46,1.66,.14,2.04-.1,.37-.24-2-.5-2.06-.86-.06-.36,1.75,.31,2.01,.05,.26-.26-2.86-1.18-2.73-1.86,.13-.68,2.37,.87,2.92,.7,.56-.17-2.82-2.54-2.03-3.47,.78-.93,2.28,3.07,2.79,2.92,.51-.14-.64-2.52-.12-2.94,.52-.41,2.02,3.35,2.12,4.13,.09,.77,.28-1.66,1.1-1.95,.82-.29,.02,1.51,.17,2.06,.14,.55,.81-1.4,1.71-1.26,.9,.14-1.62,1.93-1.37,2.45,.25,.52,2.2-1.75,2.8-1.14,.61,.61-2.34,2.3-2.18,2.76,.16,.46,1.93-.33,2.44,.18,.51,.51-1.9,.83-2.22,.83s-1.54,.4-.35,.32c1.19-.08-5.99,.27-5.99,0Z"/><g><path class="s" d="M261.52,58.72s1.99,.11,2.57-.26c.58-.36,.12-.65,.12-.65,0,0,1.84-.04,1.83-.48,0-.44-.45-.41-.45-.41,0,0,.93-.63,.75-1.02-.27-.6-1.78,.45-1.78,.45,0,0,.5-.59,.1-.73-1.1-.38-3.14,3.09-3.14,3.09Z"/><path class="t" d="M266.35,55.9c.17,.39-.75,1.02-.75,1.02,0,0,.67,0,.56,.41-.11,.42-1.79,.56-1.79,.56,0,0,.59,.11,0,.48-.58,.36-2.85,.33-2.85,.33l4.83-2.82Z"/></g></g><g><path class="al" d="M253.39,41.37c0-.11,.15-.19,.23-.1,.08,.09,.08,.03,.15,.24,.22,.59,.54,1.16,.92,1.66,.72,.96,1.43,1.44,2.24,1.92-.33-.75-.56-1.55-.58-2.36-.01-.29,0-.6,.12-.87,.04-.08,.17-.06,.18,.02,.07,.42-.03,.73,.1,1.48,.32,1.78,1.6,3.67,2.82,4.99-.24-2.24-.35-4.78,.07-7.04,.07-.37,.18-.72,.28-1.08,.02-.09,.14-.05,.13,.04-.02,.12-.22,1.67-.23,1.78-.19,1.72-.16,3.62,0,5.36,.95-1.29,1.59-2.8,1.89-4.38,.09-.47,.11-.95,.24-1.4,.02-.06,.12-.07,.13,0,.13,.69-.13,1.9-.31,2.56-.38,1.33-.98,2.53-1.8,3.6-.03,.04,1.32,10.49,1.28,10.62-.06,.22-.45,.38-.51-.02-.02-.16-.77-6.51-1.1-9.45-.13-.07-.21-.19-.53-.56-.75-.85-1.5-1.9-2-2.9-.3-.02-2.46-1.07-3.53-3.46-.03-.07-.17-.39-.19-.46-.02-.06,0-.12,0-.18Z"/><path class="s" d="M260.32,37.99c-.02-.32-.04-.65-.04-.98,0-3.73,1.58-6.76,3.54-6.76s3.54,3.02,3.54,6.76c0,.33-.01,.66-.04,.98h-7Z"/><path class="t" d="M256.32,36.33c-.02-.45-.04-.92-.04-1.39,0-5.26,1.58-9.53,3.54-9.53s3.54,4.27,3.54,9.53c0,.47-.01,.94-.04,1.39h-7Z"/><path class="t" d="M257.61,42.16c.02-.32,.04-.65,.04-.98,0-3.73-1.58-6.76-3.54-6.76s-3.54,3.02-3.54,6.76c0,.33,.01,.66,.04,.98h7Z"/><path class="s" d="M263.27,42.16c.03-.45,.05-.92,.05-1.39,0-5.26-2.01-9.53-4.48-9.53s-4.48,4.27-4.48,9.53c0,.47,.02,.94,.05,1.39h8.87Z"/><path class="t" d="M259.83,31.25c1.24,0,2.34,1.35,3.07,3.48,.37-.19,.77-.3,1.18-.3,2.2,0,3.98,3.02,3.98,6.76,0,.33-.01,.66-.04,.98h-12.12c-.03-.45-.04-.92-.04-1.39,0-5.26,1.78-9.53,3.98-9.53Z"/></g><g><path class="ak" d="M253.81,56.89c.01-.12,.02-.25,.02-.37,0-1.41-.8-2.55-1.79-2.55s-1.79,1.14-1.79,2.55c0,.13,0,.25,.02,.37h3.54Z"/><path class="s" d="M255.83,56.26c.01-.17,.02-.35,.02-.52,0-1.99-.8-3.6-1.79-3.6s-1.79,1.61-1.79,3.6c0,.18,0,.35,.02,.52h3.54Z"/><path class="s" d="M255.18,58.47c-.01-.12-.02-.25-.02-.37,0-1.41,.8-2.55,1.79-2.55s1.79,1.14,1.79,2.55c0,.13,0,.25-.02,.37h-3.54Z"/><path class="ak" d="M252.31,58.47c-.02-.17-.02-.35-.02-.52,0-1.99,1.02-3.6,2.27-3.6s2.27,1.61,2.27,3.6c0,.18,0,.35-.02,.52h-4.49Z"/><path class="s" d="M254.05,54.34c-.63,0-1.19,.51-1.56,1.31-.19-.07-.39-.11-.6-.11-1.11,0-2.01,1.14-2.01,2.55,0,.13,0,.25,.02,.37h6.14c.01-.17,.02-.35,.02-.52,0-1.99-.9-3.6-2.01-3.6Z"/></g><path class="k" d="M290.52,22.72c-.16-.69-.78-1.21-1.52-1.21-.14,0-.27,.02-.39,.05-.37-.78-1.16-1.32-2.08-1.32-.24,0-.47,.04-.68,.1-.5-.82-1.4-1.37-2.42-1.37-1.22,0-2.27,.78-2.66,1.86-.28-.16-.6-.25-.94-.25-1.07,0-1.94,.87-1.94,1.94,0,.06,0,.13,0,.19h12.64Z"/><path class="k" d="M307.75,34.83c.08-.33,.38-.58,.73-.58,.07,0,.13,0,.19,.02,.18-.38,.56-.64,1-.64,.11,0,.23,.02,.33,.05,.24-.4,.67-.66,1.17-.66,.59,0,1.09,.37,1.28,.9,.13-.08,.29-.12,.45-.12,.52,0,.94,.42,.94,.94,0,.03,0,.06,0,.09h-6.09Z"/><path class="k" d="M297.06,30.49c-.09-.41-.46-.72-.9-.72-.08,0-.16,.01-.23,.03-.22-.46-.69-.78-1.23-.78-.14,0-.28,.02-.4,.06-.29-.49-.83-.81-1.43-.81-.72,0-1.34,.46-1.57,1.1-.17-.09-.36-.14-.56-.14-.63,0-1.15,.51-1.15,1.15,0,.04,0,.07,0,.11h7.48Z"/><path class="k" d="M311.63,25.68c-.13-.55-.62-.97-1.22-.97-.11,0-.21,.01-.31,.04-.29-.63-.93-1.06-1.66-1.06-.19,0-.37,.03-.55,.08-.4-.66-1.12-1.09-1.94-1.09-.98,0-1.81,.62-2.13,1.49-.22-.12-.48-.2-.75-.2-.86,0-1.55,.69-1.55,1.55,0,.05,0,.1,0,.15h10.1Z"/><path class="k" d="M270.88,32.44c.06-.28,.31-.48,.61-.48,.05,0,.11,0,.16,.02,.15-.31,.46-.53,.83-.53,.09,0,.19,.01,.27,.04,.2-.33,.56-.55,.97-.55,.49,0,.9,.31,1.06,.74,.11-.06,.24-.1,.38-.1,.43,0,.77,.35,.77,.77,0,.03,0,.05,0,.08h-5.04Z"/><path class="ai" d="M277.04,54.94s7.01,1.16,7.1,1.11c.08-.05,.99-3.97,.99-3.97,0,0-5.8-1.04-5.89-1.04s-1.36,1.01-1.37,1.08c-.02,.07-.82,2.82-.82,2.82Z"/><path class="ai" d="M298.43,55.94c.17,.02,8.66-.17,8.66-.17l-.64-1.95s-1.18-1.78-1.8-1.75c-.62,.03-4.32-.57-4.96-.12-.64,.44-1.21,.09-1.51,1.15-.3,1.06-.54,1.18-.3,1.82,.24,.64,.56,1.03,.56,1.03Z"/><g><circle class="aj" cx="280.58" cy="55.64" r="2.89"/><circle class="n" cx="280.58" cy="55.64" r="2.01"/><circle class="af" cx="280.58" cy="55.64" r="1.35"/></g><g><circle class="aj" cx="302.84" cy="55.64" r="2.89"/><circle class="n" cx="302.84" cy="55.64" r="2.01"/><path class="af" d="M301.49,55.64c0,.74,.6,1.35,1.34,1.35s1.34-.6,1.34-1.35-.6-1.35-1.34-1.35-1.34,.6-1.34,1.35Z"/></g><path class="v" d="M309.47,52.89c-.24-1.61-1.03-1.95-3.37-2.42-2.58-.52-5.85-2.2-5.85-2.2,0,0-5.58-2.74-6.95-3.05-1.37-.31-4.73-.22-7.56-.2-2.82,.02-4.48,.81-5.92,1.93-1.43,1.12-3.92,1.97-3.92,1.97l-.45,.08c-.46,.08-.8,.49-.8,.96v4c0,.45,.3,.85,.74,.96l1.63,.43h0c.13,.02,.26-.07,.27-.21,.18-1.64,1.59-2.88,3.28-2.88,1.79,0,3.26,1.48,3.26,3.27,0,.2-.02,.4-.05,.6-.04,.2,.12,.38,.32,.38h15.04c.29,0,.52-.26,.48-.55-.02-.14-.03-.28-.03-.43,0-1.77,1.43-3.24,3.2-3.28,1.84-.04,3.34,1.44,3.34,3.27,0,.12,0,.24-.02,.36-.04,.33,.22,.62,.56,.62h2.16c.39,0,.71-.32,.71-.71v-2.09c0-.28-.02-.56-.06-.83Z"/><path class="x" d="M274.74,50.44h1.78c.15,0,.26,.16,.2,.3l-.2,.48c-.19,.46-.64,.75-1.13,.75h-.65c-.13,0-.23-.1-.23-.23v-1.06c0-.13,.1-.23,.23-.23Z"/><path class="ab" d="M306.64,51.18c.98,.15,2.11,1.08,2.11,1.08,.27,.29,.05,.76-.35,.74l-1.91-.12c-.4-.03-.74-.3-.85-.68h0c-.19-.64-.03-1.17,1-1.02Z"/><path class="p" d="M274.65,54.11c-.12,0-.21,.12-.16,.23,.13,.32,.4,.58,.75,.67l1.83,.48c.15,.03,.29-.08,.3-.23,.03-.31,.11-.61,.22-.89,.04-.09-.03-.2-.13-.2l-2.81-.07Z"/><path class="p" d="M306.14,54.87c-.14,0-.25,.12-.23,.26,.02,.15,.03,.31,.03,.47,0,.13,0,.27-.02,.4-.04,.37,.25,.69,.62,.69h2.4c.44,0,.79-.35,.79-.79v-.62c0-.18-.14-.32-.32-.32l-3.27-.08Z"/><path class="f" d="M300.25,49.2s-3.21-1.76-5.32-2.74c-2.09-.97-4.42-.86-4.52-.86-.27,0-5.84-.13-7.55,.41-1.73,.54-3.97,2.99-4.07,3.09l-.03,.03,.6,2.84h.06c1.76-.1,3.1,.37,3.89,1.35,.6,.74,.67,1.53,.67,1.54v.07l6.34,.16h.15l8.83,.18v-.08c.05-2.87,.95-5.87,.96-5.9l.02-.06-.05-.03Zm-16.11,5.58c-.03-.21-.16-.89-.69-1.55-.57-.71-1.71-1.53-3.96-1.42l-.56-2.63c.26-.28,2.39-2.53,3.98-3.02,1.59-.5,6.75-.41,7.43-.4v9.18l-6.2-.16Zm15.04,.33l-8.68-.17v-9.19c.41-.01,2.49-.02,4.38,.85,1.95,.9,4.83,2.47,5.26,2.7-.13,.43-.89,3.16-.95,5.8Z"/><path class="f" d="M274.49,54.35c.13,.32,.4,.58,.75,.67l1.83,.48c.15,.03,.29-.08,.3-.23,.01-.12,.03-.24,.06-.35l-2.94-.57Z"/><path class="f" d="M305.93,55.76c0,.08,0,.15-.02,.23-.04,.37,.25,.69,.62,.69h2.4c.44,0,.79-.35,.79-.79v-.13h-3.79Z"/><path class="p" d="M299.73,55.76c0-.16,.01-.32,.03-.48,.03-.19-.11-.36-.31-.37l-15.64-.38c-.17,0-.29,.16-.25,.32,.08,.29,.12,.59,.12,.9,0,.21-.02,.41-.06,.6-.04,.2,.12,.39,.32,.39h15.3c.3,0,.53-.27,.49-.56-.02-.14-.03-.28-.03-.43Z"/><path class="f" d="M299.73,55.76h-16.03c0,.2-.02,.4-.06,.6-.04,.2,.12,.39,.32,.39h15.3c.3,0,.53-.27,.49-.56-.02-.14-.03-.28-.03-.43Z"/><path class="ab" d="M280.64,49.47l8.64,.08s.53-.01,.6-.51c.07-.5,.07-2.63,.07-2.63,0,0-.06-.43-.47-.43-.25,0-2.34-.15-4.37,.09-1.66,.2-3.19,.96-4.35,2.12l-.61,.61s-.41,.66,.5,.66Z"/><path class="ab" d="M290.92,46.68v2.24c0,.29,.22,.53,.5,.54l6.79,.27c.16,0,.31-.06,.4-.2,.12-.18,.14-.48-.47-.87-1.06-.69-3.75-2.18-4.75-2.32-.63-.09-1.46-.13-1.98-.15-.27,0-.49,.21-.49,.49Z"/><path class="o" d="M281.92,48.43s5.63-.64,5.75-.53c.12,.11,.9,1.94,1.05,2.44l-6.63-.06-.47-.7,.3-1.15Z"/><path class="q" d="M293.87,48.93s.52,.61,.67,1.28l-.16,.27-.33-.35-.18-1.19Z"/><path class="aj" d="M294.42,47.32c-.1-.65-.68-1.11-1.3-.8-.14,.07-.32,.21-.42,.34-.26,.33-.32,.74-.59,1.06,.1,.07,.22,.15,.36,.23l.17-.22-.06,.28c.41,.2,.99,.36,1.79,.35,.1-.45,.11-.89,.05-1.23Z"/><path class="w" d="M293.05,48.75s-.59-.04-.82,.22c-.23,.25,.52,2.26,.56,2.58,.04,.32-.35,.97-.35,.97,0,0,1.62,.76,2.02,.5,0,0-.06-2.59-.11-2.82-.04-.23-.4-1.17-.48-1.26-.08-.09-.82-.18-.82-.18Z"/><path class="i" d="M293.24,47.96v.05c-.03,.14-.14,.61-.2,.74-.08,.16,.28,.65,.63,.59,.1-.02-.09-.46-.08-.5,.02-.09,.04-.21,.07-.33l.04-.21,.07-.35h-.53Z"/><path class="o" d="M281.97,48.53s-.02-.07-.04-.11l-.84,.84s-.63,1,.75,1.01h.38l-.26-1.74Z"/><path class="ac" d="M293.23,48.01v-.05h.54l-.07,.33-.04,.21c-.08-.01-.17-.05-.25-.13-.09-.08-.15-.18-.19-.28l.02-.08Z"/><path class="i" d="M293.6,46.76s-.25-.03-.4,.17c-.16,.2-.32,.82,.06,1.16,.39,.34,.77-.04,.83-.45,.06-.41,.08-.9-.48-.88Z"/><path class="i" d="M294.19,47.64c-.05,.09-.12,.14-.17,.11-.05-.03-.05-.12,0-.21,.05-.09,.12-.14,.17-.11,.05,.03,.05,.12,0,.21Z"/><path class="aj" d="M293.62,46.7s-.33,.59-.57,.62c-.24,.03-.27,.34-.27,.34,0,0,.08-.72,.32-.86,.23-.14,.52-.1,.52-.1Z"/><path class="i" d="M293.12,47.46c.02,.1-.02,.2-.09,.21-.07,.01-.14-.06-.16-.17-.02-.1,.02-.2,.09-.22,.07-.01,.14,.06,.16,.17Z"/><path class="h" d="M292.28,51.62s.22-.95,.31-1.16c.09-.21,.44-1.18,.44-1.18l-.45-.1s-.29,.76-.43,1.11c-.13,.34-.08,.98-.08,1.16l-.02,.15h0s0,.04-.01,.04c0,0-.02,.07-.02,.07,0,0-.01,.03-.02,.03,0,0-.02,.13-.02,.15,0,.02,0,.06,0,.06v.08c0,.06,.05,.04,.05,.04,0,.03,0,.04,.02,.05,.02,0,.03,0,.04,0h0s.02,.04,.03,.04c.01,0,.04,0,.04-.01,0,0,.01,0,.01,0,.01,.01,.06,.01,.08,0,.01-.02,.02-.1,.03-.11,0,0,.02-.02,.02-.03,0-.01,.04-.1,.05-.12,0-.02-.02-.08-.03-.11,0-.04-.04-.09-.05-.11,0,0,0-.03,0-.05h0Z"/><path class="j" d="M293.78,47.84l-.38-.02s0,.15,.17,.16c.2,.02,.21-.14,.21-.14Z"/><g><path class="i" d="M291.69,48.13l-.14,.91s.5,1.09,.8,.99c.25-.08,.1-1.04,.1-1.04,0,0-.14-.52-.1-.77,.04-.26-.67-.09-.67-.09Z"/><path class="ad" d="M292.36,48.22c.04-.26-.67-.09-.67-.09v.08c0,.05,.03,.09,.07,.13,.16,.17,.41,.27,.62,.28-.02-.14-.03-.29-.02-.39Z"/><g><path class="i" d="M291.58,46.84s-.16,1.04,.11,1.33c.27,.29,.79,.38,.97,.16,.21-.25,.2-1.38-.22-1.67-.41-.3-.86,.19-.86,.19Z"/><path class="m" d="M292.28,46.1c-.32,.07-.53,.26-.6,.35-.15,.02-.34,.1-.55,.44-.25,.42-.07,.88,.23,1.11,.29,.23,.29,.49,.29,.49l.05-.14c.03-.1,.05-.21,.04-.32,0-.06-.02-.13-.05-.19-.07-.15,.15-.25,.21-.38,.05-.1,.05-.32,.13-.48l.09-.12s.21-.16,.41-.12,.17-.72-.24-.64Z"/><path class="i" d="M291.88,47.63c0,.13-.06,.23-.13,.23-.07,0-.13-.1-.14-.23,0-.13,.06-.23,.13-.23,.07,0,.13,.1,.14,.23Z"/></g><path class="j" d="M292.31,47.93l.4-.02s0,.15-.18,.17c-.22,.02-.22-.15-.22-.15Z"/><path class="ak" d="M291.44,49.01h0c.04-.07,.11-.12,.18-.12,.34-.03,1.27-.03,1.74,.79,.07,.13,.13,.27,.17,.41l.1,.41-2.44-.08v-.27c-.02-.4,.07-.79,.25-1.14Z"/></g><path class="aj" d="M297.24,50.65l.35-1.44c.02-.1-.04-.19-.13-.22-.1-.02-.19,.04-.22,.13l-.37,1.51,.37,.02Z"/><path class="i" d="M296.33,50.61c.1-.06,.18-.11,.24-.15,0,0,.26-.13,.26-.13h0s.07-.02,.07-.02c.02,0,.13-.04,.14-.04,0,0,.05,0,.07,0,.02,0,.22-.11,.26-.12,.03-.02,.1-.08,.1-.08l.13-.08c.1-.06,0-.14,0-.14,.05-.03,.06-.06,.05-.09s-.03-.06-.04-.06c0,0,.01-.02,.01-.02,.03-.02,.03-.06,.02-.09,0-.02-.05-.05-.07-.05-.02,0-.02-.01-.02-.01,0-.03-.05-.11-.09-.11-.04,0-.18,.07-.2,.07-.02,0-.05,0-.07,0-.02,.01-.2,.04-.23,.05-.03,.01-.1,.12-.15,.16-.05,.05-.1,.16-.12,.19,0,.01-.04,.03-.08,.05h0s-1.12,.41-1.78,.6l1.47,.06Z"/><path class="s" d="M292.86,50.47c-.07-.41-.15-.85-.25-1.05-.2-.44-.88-.7-1.21-.43-.18,.15-.1,.84,.05,1.44l1.4,.04Z"/><path class="ak" d="M283.04,48.07s-.83-.02-1.11,.17c-.28,.19-.25,2.04-.25,2.04l.27,.05s.1,1.27,.31,1.34c.21,.07,1.6-.36,1.89-.72,.29-.36-.61-3-.61-3l-.51,.12Z"/><g><path class="i" d="M284.51,46.61c.07-.22,.12-.9,.14-1.13-.01-.02-.07-.12-.06-.31,0-.14-.09-.36,0-.35,.09,.02,.09,.25,.14,.21,.05-.04,.08-.53,.16-.52,.08,.01,.03,.48,.07,.44,.05-.04,.05-.46,.16-.45,.11,.02-.05,.5,.01,.51,.06,.01,.15-.3,.24-.28,.09,.02-.15,.41-.12,.39,.03-.02,.22-.18,.25-.15,.04,.04-.41,.51-.41,.63h0c.04,.31,.11,.87,0,1.23-.12,.43-.44,1.4-.44,1.4l-.67-.16s.44-1.21,.52-1.48Z"/><path class="h" d="M284.8,45.13s.06,.04,.08,.06c0,0,.09,.08,.06,.21-.01-.08-.03-.17-.15-.28Z"/></g><path class="i" d="M280.51,48.43s.02-.11-.07-.27c-.06-.11-.07-.32-.14-.28-.06,.05,.03,.24-.03,.23-.06-.01-.27-.4-.33-.35-.05,.04,.17,.39,.12,.38-.05-.01-.22-.35-.3-.29s.24,.38,.2,.42-.24-.18-.3-.13c-.06,.05,.28,.27,.25,.27-.03,0-.24-.06-.25-.02-.01,.05,.43,.19,.48,.28,.05,.1,.81,1.07,1.02,1.07s1.18-.66,1.26-.87c.07-.21-.02-.44-.16-.47-.14-.03-1.04,.62-1.09,.61s-.67-.57-.67-.57Z"/><path class="h" d="M280.29,48.2s-.03,.06-.04,.1c0,0-.03,.12,.05,.22-.03-.08-.05-.16,0-.31Z"/><path class="o" d="M282.55,49.78s.87,.69,.97,.83c.07,.11-.17,1.3-.17,1.3,0,0-.34,.01-.5-.11,0,0,.09-.82,.05-.85-.04-.03-1-.46-1-.46l.06-.49,.59-.22Z"/><path class="g" d="M284.22,47.29s.15,.03,.67,.59l-.6,1.22-.55-1.01,.49-.8Z"/><path class="g" d="M283.25,48.15s.39-.09,.53-.16c.14-.07,1.41,2.94,1.09,3.04-.67,.22-2.41,.81-2.41,.81,0,0-.05-.17,.01-.49,.11-.55,.07-1.77,.05-1.99-.01-.13-.76,.24-.76,.24l-.29-.95s.85-.29,1.13-.38c.08-.03,.64-.12,.64-.12Z"/><path class="ak" d="M284.71,50.01c-.16-.5-1.21-1.92-1.22-1.93l.17-.12c.04,.06,.9,1.26,1.07,1.79l-.02,.26Z"/><path class="ak" d="M282.42,50.93l-.11-.14s.74-.59,.76-1.24c.02-.66-.51-1.29-.52-1.3l.13-.11s.58,.69,.56,1.42c-.02,.73-.79,1.35-.83,1.38Z"/><path class="aj" d="M283.07,46.14s.31-.23,.61,.14c.24,.3,.2,.21,.32,.35,.12,.15,.29,.16,.32,.41,.03,.25-.08,.3-.08,.3,0,0,.13,.18,.03,.39-.09,.21-.36,.41-.61,.41,0,0-.34,.24-.71,.18-.37-.05-.25-.07-.4-.05-.15,.02-.57-.14-.54-.45,0,0-.28-.26-.06-.53,.21-.26,.33-.45,.43-.78s.52-.44,.7-.38Z"/><path class="i" d="M283.48,47.85s.03,.44,.08,.48c.05,.04,.11,.1,.06,.21-.05,.11-.32,.07-.45,.03-.12-.04-.21-.14-.21-.14v-.7l.52,.13Z"/><path class="h" d="M283.33,48.05c-.09-.02-.24-.06-.37-.23v-.1l.53,.13s0,.11,.02,.22c-.07,0-.14-.01-.18-.02Z"/><path class="i" d="M282.74,47.33s-.04-.26-.19-.19c-.15,.07,0,.44,.14,.42,.13-.03,.05-.23,.05-.23Z"/><path class="i" d="M283.21,46.34s.25-.03,.39,.15c.15,.18,.34,.71,.18,1.12-.17,.4-.44,.34-.56,.31-.11-.03-.34-.09-.49-.43-.15-.34-.15-1.15,.48-1.14Z"/><g><polygon class="i" points="288.26 50.43 288.71 52.6 287.93 52.53 287.55 50.54 288.26 50.43"/><path class="ae" d="M288.39,50.5l-.84,.05s-.06-.58-.08-.86c-.02-.34-.01-.77,.03-.77,.12,.02,.27,.08,.37,.2,.34,.42,.52,1.38,.52,1.38Z"/><path class="ab" d="M287.84,49.61c.02,.1,.55,2.94,.55,2.94-1.26,.69-2.23,.1-2.23,.1,0,0,.05-1.91-.02-2.17-.04-.18-.2-1.33-.09-1.37,.14-.05,.36-.12,.55-.15,.16-.02,.77-.07,.88-.03,0,0,.27,.25,.35,.68Z"/><path class="m" d="M287.39,46.9s.51,0,.47,.42c0,0,.38,.15,.13,.49,0,0,.27,.37-.2,.72,0,0-.12,.49-.66,.26,0,0-.16,.12-.38-.04-.22-.16-.25-.25-.25-.25,0,0-.48-.09-.42-.53,0,0-.25-.22,.13-.49,0,0,0-.61,.51-.53,0,0,.3-.46,.66-.05Z"/><path class="i" d="M286.59,47.89c-.01,.11-.08,.19-.16,.18-.07,0-.12-.1-.11-.21,.01-.11,.08-.19,.16-.18,.07,0,.12,.1,.11,.21Z"/><path class="i" d="M287.79,48.22c-.04,.1-.14,.15-.2,.12-.07-.03-.08-.14-.04-.23,.04-.1,.14-.15,.2-.12,.07,.03,.08,.14,.04,.23Z"/><path class="i" d="M287.17,48.55s.04,.29,.07,.43c0,.05-.02,.11-.07,.13-.14,.05-.41,.12-.58-.06-.02-.02-.02-.04-.02-.06l.07-.65,.54,.21Z"/><path class="h" d="M287.21,48.83c-.15,.06-.57,0-.61-.26l.03-.23,.54,.21s.03,.2,.04,.28Z"/><path class="i" d="M287.31,47.23s-.22-.05-.44,.08c-.21,.13-.56,.66-.27,1.11,.29,.46,.79,.23,.96-.13,.17-.36,.25-.9-.25-1.07Z"/><path class="j" d="M287.17,48.36l-.3-.02s0,.11,.13,.13c.16,.01,.17-.11,.17-.11Z"/><path class="m" d="M287.69,47.48s-.22-.12-.38-.1c-.16,.02-.69,.4-.77,.34-.08-.06,.02-.4,.08-.45,.06-.05,.31-.2,.33-.2,.02,0,.24,0,.28,.01,.04,0,.31,.14,.31,.14l.14,.27Z"/><path class="i" d="M284.53,52.8s.02-.01,.03-.01c.11,0,.22-.02,.33-.04,.02,0,.04,0,.05-.02,.03-.01,.06-.01,.09,0,.02,0,.03,0,.05,0,.06,0,.21-.06,.3-.08,.02,0,.03-.02,.04-.04,.07-.32,.22-1.05,.24-1.28,.02-.3,.18-1.67,.18-1.67l.56,.14s-.2,1.01-.25,1.5c-.04,.38-.39,1.19-.5,1.42-.05,.17-.18,.18-.21,.19-.02,0-.03,.01-.04,.03-.02,.02-.04,.05-.07,.06-.02,.01-.03,.03-.05,.05-.02,.04-.04,.07-.06,.11-.01,.02-.03,.03-.05,.03-.02,0-.03-.02-.03-.05,0-.04,.01-.08,.03-.11,.02-.03,.02-.05,0-.08-.01-.02-.03-.03-.04-.05-.02-.01-.04-.02-.06-.02-.04,.01-.08,.02-.12,.03h-.05s-.06,.02-.08,.02c-.02,0-.04,0-.07,0-.02,0-.06,0-.07,0-.02,0-.04,0-.05-.02,0,0-.01-.01,0-.02,0,0,0-.01,.02-.01l.08-.02s-.09,0-.11,0c-.03,0-.05,0-.07-.03,0,0-.02-.02-.01-.03Z"/><path class="ae" d="M285.47,50.49l.82,.39s.13-.6,.22-.97c.08-.32-.32-.88-.46-.81-.3,.17-.58,1.38-.58,1.38Z"/></g><path class="v" d="M290.97,49.44l7.25,.31s-.63,2.12-.65,2.22c-.02,.11-2.39,1.4-2.99,1.39s-1.99-.52-2.29-.6c-.3-.09-1.08-.7-1.03-1.07,.05-.37-.28-2.24-.28-2.24Z"/><rect class="p" x="291.03" y="50.17" width="2.12" height=".34" rx=".09" ry=".09"/><path class="v" d="M293.9,46.47l.98,.4-.06-.2-.37-.2s-.3-.06-.33-.07c-.03-.02-.23,.07-.23,.07Z"/><path class="y" d="M298.58,49.06l-7.67-.66v.51c0,.29,.22,.53,.5,.54l6.79,.27c.16,0,.31-.06,.4-.2,.08-.11,.11-.27-.03-.47Z"/><polygon class="aa" points="290.92 48.4 290.92 48.33 298.56 49.02 298.58 49.06 290.92 48.4"/><polygon class="l" points="292.68 49.51 293.38 49.53 293.95 48.66 293.27 48.6 292.68 49.51"/><polygon class="l" points="293.92 49.56 294.48 48.71 294.22 48.68 293.66 49.55 293.92 49.56"/><path class="v" d="M280.53,49.46l8.76,.09,.08,2.78s-1.02,1.49-1.15,1.47c-.12-.02-2.74-.44-2.97-.42-.23,.02-2.29-.99-2.38-.97-.1,.02-.74-.32-.74-.32l-1.04-.74-1.03-1.06,.48-.82Z"/><rect class="p" x="280.27" y="50" width="2.12" height=".34" rx=".09" ry=".09"/><path class="j" d="M283.6,47.45l-.3,.06s.03,.11,.16,.09c.16-.03,.14-.15,.14-.15Z"/><path class="aj" d="M282.66,47.16s.68-.31,.75-.8c.07-.49-.56-.02-.56-.02l-.25,.24,.07,.58Z"/><path class="v" d="M291.16,49.37s.13,.09,.29,.08c0,0-.21,.07-.22,.06l-.11-.09,.04-.05Z"/><path class="v" d="M291.83,46.2l.86,.05s-.14-.23-.2-.23h-.45l-.21,.18Z"/><path class="ai" d="M340.98,59.13h-92.32c-.19,0-.35-.16-.35-.35h0c0-.19,.16-.35,.35-.35h92.32c.19,0,.35,.16,.35,.35h0c0,.19-.16,.35-.35,.35Z"/></g></g><g id="e"/></svg>