<?xml version="1.0" encoding="UTF-8"?>
<svg id="a" xmlns="http://www.w3.org/2000/svg" xmlns:xlink="http://www.w3.org/1999/xlink" viewBox="0 0 780 250"><defs><style>.d{fill:#fff;}.e{fill:#003660;}.f{fill:#f8bd37;}.g{clip-path:url(#b);}.h{clip-path:url(#c);}.i{fill:none;}</style><clipPath id="b"><rect class="i" x="178.79" y="22.89" width="441.74" height="141.86"/></clipPath><clipPath id="c"><rect class="i" x="178.79" y="22.89" width="441.74" height="141.86"/></clipPath></defs><rect class="e" width="780" height="250"/><g><path class="d" d="M178.79,199.77l1.1-20.85h6.29l4.55,13.6h.12l4.55-13.6h6.2l1.1,20.85h-4.64l-.34-9.32c-.06-1.5-.07-3.34-.03-5.54h-.12l-4.89,14.86h-3.91l-4.89-14.86h-.12c.04,1.8,.02,3.65-.06,5.54l-.34,9.32h-4.58Z"/><path class="d" d="M211.08,195.68l-1.34,4.09h-5.01l7.48-20.85h5.5l7.48,20.85h-5.28l-1.34-4.09h-7.48Zm2.44-7.38l-1.28,3.85h5.16l-1.25-3.85c-.43-1.31-.85-2.74-1.25-4.28h-.12c-.33,1.25-.74,2.68-1.25,4.28Z"/><path class="d" d="M232.4,199.77h-4.7v-20.79c2.57-.19,4.6-.28,6.11-.28,3.03,0,5.3,.53,6.8,1.6,1.5,1.07,2.25,2.57,2.25,4.52,0,1.6-.45,2.89-1.36,3.88-.91,.98-1.97,1.63-3.19,1.94l6.29,9.14h-5.47l-5.41-8.12h-1.31v8.12Zm0-17.56v6h1.74c1.2,0,2.12-.27,2.76-.8,.64-.53,.96-1.28,.96-2.25s-.31-1.68-.93-2.21-1.5-.8-2.64-.8c-.75,0-1.39,.02-1.89,.06Z"/><path class="d" d="M264.23,178.92l-7.76,8.49,8.49,12.36h-5.83l-5.86-8.83-1.59,1.69v7.14h-4.7v-20.85h4.7v7.91l6.81-7.91h5.74Z"/><path class="d" d="M271.81,182.61v4.64h7.64v3.66h-7.64v5.17h8.98v3.69h-13.69v-20.85h13.14v3.69h-8.43Z"/><path class="d" d="M282.38,182.76v-3.85h15.82v3.85h-5.56v17.01h-4.74v-17.01h-5.53Z"/><path class="d" d="M300.89,178.92h4.7v20.85h-4.7v-20.85Z"/><path class="d" d="M310.24,199.77v-20.85h4.22l6.45,9.5c.57,.8,1.25,1.86,2.05,3.17h.12c-.08-1.19-.12-2.82-.12-4.89v-7.78h4.74v20.85h-4.22l-6.51-9.57c-.65-.92-1.32-1.96-2.02-3.11h-.12c.08,1.19,.12,2.82,.12,4.89v7.78h-4.7Z"/><path class="d" d="M341.06,191.34v-3.63h8.31v11.38c-.79,.29-1.85,.52-3.18,.71-1.32,.18-2.55,.28-3.67,.28-3.58,0-6.37-.96-8.35-2.88-1.99-1.92-2.98-4.44-2.98-7.58s1.03-5.89,3.1-7.94c2.07-2.05,4.91-3.08,8.54-3.08,2.34,0,4.34,.29,5.99,.86l-.12,4.12c-1.83-.7-3.76-1.05-5.77-1.05-2.2,0-3.91,.63-5.12,1.89s-1.82,2.98-1.82,5.15,.57,3.75,1.71,4.91c1.14,1.16,2.78,1.74,4.92,1.74,.98,0,1.81-.09,2.5-.28v-4.61h-4.06Z"/><path class="d" d="M358.62,198.76l.46-4.09c2,1.07,3.99,1.6,5.99,1.6,1.04-.02,1.86-.23,2.46-.63,.6-.4,.9-.98,.9-1.74,0-1.21-.83-2.02-2.47-2.43l-1.28-.31c-3.95-.96-5.93-3.06-5.93-6.27,0-2.11,.75-3.69,2.25-4.74,1.5-1.05,3.39-1.57,5.67-1.57,2.16,0,4.01,.34,5.56,1.01l-.43,4.03c-1.83-.78-3.55-1.17-5.16-1.17-2,0-2.99,.72-2.99,2.15,0,.55,.19,1.02,.57,1.38,.38,.37,1.04,.68,2,.92l1.22,.31c2.02,.51,3.53,1.25,4.54,2.21,1.01,.96,1.51,2.29,1.51,3.97,0,2.19-.79,3.87-2.38,5.01s-3.58,1.72-5.99,1.72c-2.57,0-4.72-.46-6.48-1.38Z"/><path class="d" d="M385.35,195.86c1.2,0,2.13-.31,2.78-.92,.92-.84,1.37-2.45,1.37-4.83v-11.2h4.61v11.04c0,2.77-.37,4.87-1.1,6.31-1.32,2.54-3.9,3.81-7.73,3.81s-6.33-1.27-7.7-3.81c-.75-1.39-1.13-3.5-1.13-6.31v-11.04h4.7v11.2c0,1.25,.1,2.25,.29,3,.19,.75,.56,1.36,1.11,1.83,.69,.62,1.62,.92,2.78,.92Z"/><path class="d" d="M403.13,199.77h-4.7v-20.79c2.93-.19,5.03-.28,6.29-.28,2.75,0,4.88,.55,6.4,1.65,1.52,1.1,2.28,2.75,2.28,4.97s-.69,3.79-2.06,4.92-3.27,1.69-5.7,1.69c-.88,0-1.71-.04-2.5-.12v7.97Zm0-17.56v6.15c.43,.02,1.01,.03,1.74,.03,1.22,0,2.15-.27,2.78-.81,.63-.54,.95-1.31,.95-2.29s-.32-1.75-.96-2.31c-.64-.55-1.59-.83-2.86-.83-.65,0-1.2,.02-1.65,.06Z"/><path class="d" d="M420.94,199.77h-4.7v-20.79c2.93-.19,5.03-.28,6.29-.28,2.75,0,4.88,.55,6.4,1.65,1.52,1.1,2.28,2.75,2.28,4.97s-.69,3.79-2.06,4.92-3.27,1.69-5.7,1.69c-.88,0-1.71-.04-2.5-.12v7.97Zm0-17.56v6.15c.43,.02,1.01,.03,1.74,.03,1.22,0,2.15-.27,2.78-.81,.63-.54,.95-1.31,.95-2.29s-.32-1.75-.96-2.31c-.64-.55-1.59-.83-2.86-.83-.65,0-1.2,.02-1.65,.06Z"/><path class="d" d="M434.05,178.92h4.7v17.01h7.7v3.84h-12.4v-20.85Z"/><path class="d" d="M449.26,178.92h4.7v20.85h-4.7v-20.85Z"/><path class="d" d="M463.31,182.61v4.64h7.64v3.66h-7.64v5.17h8.98v3.69h-13.69v-20.85h13.14v3.69h-8.43Z"/><path class="d" d="M474.79,198.76l.46-4.09c2,1.07,3.99,1.6,5.99,1.6,1.04-.02,1.86-.23,2.46-.63,.6-.4,.9-.98,.9-1.74,0-1.21-.83-2.02-2.47-2.43l-1.28-.31c-3.95-.96-5.93-3.06-5.93-6.27,0-2.11,.75-3.69,2.25-4.74,1.5-1.05,3.39-1.57,5.67-1.57,2.16,0,4.01,.34,5.56,1.01l-.43,4.03c-1.83-.78-3.55-1.17-5.16-1.17-2,0-2.99,.72-2.99,2.15,0,.55,.19,1.02,.57,1.38,.38,.37,1.04,.68,2,.92l1.22,.31c2.02,.51,3.53,1.25,4.54,2.21,1.01,.96,1.51,2.29,1.51,3.97,0,2.19-.79,3.87-2.38,5.01s-3.58,1.72-5.99,1.72c-2.57,0-4.72-.46-6.48-1.38Z"/><path class="d" d="M510.6,185.53h-.12c-.24,1.52-.53,2.85-.85,4l-2.69,10.24h-5.28l-5.13-20.85h5.19l2.14,10.73c.22,1.13,.46,2.46,.7,4h.12c.16-.92,.47-2.26,.92-4l2.87-10.73h4.37l2.87,10.73c.41,1.54,.71,2.87,.92,4h.12c.45-2.56,.68-3.9,.7-4l2.14-10.73h4.86l-5.13,20.85h-5.19l-2.69-10.24c-.28-1-.56-2.34-.82-4Z"/><path class="d" d="M532.07,182.61v4.64h7.64v3.66h-7.64v5.17h8.98v3.69h-13.69v-20.85h13.14v3.69h-8.43Z"/><path class="d" d="M544.56,199.71v-20.73c3.07-.19,5.14-.28,6.2-.28,2.77,0,4.9,.44,6.38,1.32,1.49,.88,2.23,2.19,2.23,3.94,0,1.33-.39,2.41-1.18,3.24-.78,.83-1.74,1.34-2.86,1.52v.06c1.32,.14,2.49,.64,3.5,1.49,1.01,.85,1.51,2.09,1.51,3.71,0,1.91-.78,3.38-2.35,4.43s-3.92,1.57-7.06,1.57c-1.41,0-3.53-.09-6.38-.28Zm4.7-17.5v5.32h1.86c1.14,0,2.01-.25,2.6-.75,.59-.5,.89-1.17,.89-2.01,0-1.74-1.19-2.61-3.57-2.61-.69,0-1.28,.02-1.77,.06Zm5.96,11.38c0-.94-.36-1.67-1.07-2.17-.71-.5-1.65-.75-2.81-.75-.92,0-1.61,.01-2.08,.03v5.66c.53,.04,1.2,.06,2.02,.06,1.22,0,2.18-.24,2.89-.72s1.05-1.18,1.05-2.11Z"/><path class="d" d="M562.77,198.76l.46-4.09c2,1.07,3.99,1.6,5.99,1.6,1.04-.02,1.86-.23,2.46-.63,.6-.4,.9-.98,.9-1.74,0-1.21-.83-2.02-2.47-2.43l-1.28-.31c-3.95-.96-5.93-3.06-5.93-6.27,0-2.11,.75-3.69,2.25-4.74,1.5-1.05,3.39-1.57,5.67-1.57,2.16,0,4.01,.34,5.56,1.01l-.43,4.03c-1.83-.78-3.55-1.17-5.16-1.17-2,0-2.99,.72-2.99,2.15,0,.55,.19,1.02,.57,1.38,.38,.37,1.04,.68,2,.92l1.22,.31c2.02,.51,3.53,1.25,4.54,2.21,1.01,.96,1.51,2.29,1.51,3.97,0,2.19-.79,3.87-2.38,5.01s-3.58,1.72-5.99,1.72c-2.57,0-4.72-.46-6.48-1.38Z"/><path class="d" d="M580.92,178.92h4.7v20.85h-4.7v-20.85Z"/><path class="d" d="M588.34,182.76v-3.85h15.82v3.85h-5.56v17.01h-4.74v-17.01h-5.53Z"/><path class="d" d="M611.55,182.61v4.64h7.64v3.66h-7.64v5.17h8.98v3.69h-13.69v-20.85h13.14v3.69h-8.43Z"/></g><g class="g"><g class="h"><path class="d" d="M313.1,67.72h-28.47c-.3,0-.58,.15-.73,.41l-38.42,61.78h-.59l-5.32-61.4c-.04-.45-.41-.79-.86-.79h-29.03c-.38,0-.71,.24-.82,.6l-30.02,95.01c-.18,.56,.24,1.12,.82,1.12h20.36c.38,0,.72-.25,.83-.62l12.67-42.59c3.26-10.7,5.1-17.83,6.97-25.89h.59l5.69,68.3c.04,.45,.41,.79,.86,.79h17.64c.3,0,.58-.16,.74-.42l41.3-68.68h.59c-2.16,8.06-4.26,15.61-6.52,25.89l-9.36,42.16c-.12,.54,.29,1.05,.84,1.05h20.69c.41,0,.76-.29,.85-.69l19.57-95.01c.11-.53-.3-1.04-.85-1.04"/><path class="d" d="M392.15,91.21c-16.37,0-28.84,10.18-31.42,20.02-2.17,8.25,1.12,15.08,9.52,19.75,2.45,1.33,4.22,2.2,6.09,3.11,1.7,.83,3.51,1.71,6.06,3.06,4.72,2.48,5.27,4,4.66,6.28-.81,3.08-4.7,6.18-11.59,6.18-8.05,0-9.05-5.84-8.48-10.71,.17-1.06-.05-1.84-.66-2.3-.64-.49-1.64-.56-2.99-.2l-11.31,3.31c-1.67,.49-2.8,1.81-3.02,3.56-1.28,12.42,8.04,21.44,22.17,21.44,16.05,0,30.63-9.42,33.91-21.92,2.26-8.6-1.31-15.03-11.23-20.23-2.48-1.28-4.95-2.44-7.14-3.47-1.06-.5-2.08-.98-3.03-1.44-4.25-2.04-5.89-3.39-5.09-6.43,.83-3.18,5.56-5.07,9.64-5.07,2.14,0,4.27,.36,5.65,1.66,1.53,1.44,1.62,3.68,2.08,5.7,.15,.69,.37,1.38,.86,1.86,.48,.47,1.27,.54,2.19,.4l11.89-3.75s2.38-.38,2.08-3.8c-.97-10.69-8.07-17.04-20.81-17.04"/><path class="d" d="M450.23,147.05c-.75-.36-1.77-.32-2.93,.11l-.17,.05c-1.4,.46-2.85,.98-5.2,.98-3.08,0-4.59-.73-3.13-6.26l8.53-32.14c.1-.38,.44-.64,.83-.64h16.53c.4,0,.74-.27,.84-.66l.77-3.18,2.36-8.1s.02-.05,.02-.07l.71-1.81h-16.76c-.56,0-.98-.53-.84-1.08l3.55-13.97c.14-.55-.27-1.08-.84-1.08h-16.1c-.39,0-.73,.26-.83,.64l-4.02,14.85c-.1,.38-.44,.64-.83,.64h-8.25c-.35,0-.66,.2-.79,.52l-.46,1.07s-.03,.08-.04,.12l-2.39,8.87-.6,2.14c-.15,.55,.26,1.1,.83,1.1h5.87c.57,0,.98,.54,.83,1.08l-8.28,31.22c-5.38,20.44,7.8,23.3,15.96,23.3s13.47-2.58,15.6-4.71c.95-.95,1.49-2,1.39-2.88l-1.08-8.37c-.09-1.04-.63-1.53-1.08-1.74"/><path class="d" d="M598.19,89.08c-1.33-.21-2.89-.04-4.19-.04-11.53,0-18.4,7.44-24.06,15.5h-.44l2.47-12.79c.1-.53-.31-1.03-.85-1.03h-16.36c-.4,0-.74,.27-.84,.65l-4,15.98-15.65,55.93c-.15,.55,.26,1.09,.83,1.09h19.08c.39,0,.73-.26,.83-.63l10.48-36.56c2.89-10.98,9.94-18.37,18.96-18.37,1.95,0,4.6,.08,6.5,.58,.42,.11,.86-.13,1.01-.54l6.87-18.62c.18-.5-.12-1.06-.64-1.15"/><path class="d" d="M509.93,91.74c-20.11,0-39.38,15.47-44.86,36.33-6.64,25.25,8.64,36.62,25.62,36.62,15.95,0,26.52-8.76,32.42-14.98,1.48-1.57-.13-2.2-.13-2.2l-11.01-4.98c-1.88-.85-2.9,.41-2.9,.41-3.32,3.55-7.66,6.21-14.31,6.21-9.59,0-13.23-6.12-12.52-13.4,0-.06,.03-.12,.04-.19,.05-.34,.33-1.07,.33-1.07h41.66c5.86,0,7.91-4.3,9.59-10.66,4.8-18.28-5.22-32.08-23.93-32.08m6.2,28.2c-.06,.42-.44,.73-.86,.73h-26.52c-.67,0-1.08-.73-.74-1.31,4.16-7.16,11.08-10.57,17.71-10.57,7.43,0,11.56,3.59,10.41,11.15"/><path class="d" d="M337.41,87.84c-3.84-1.66-10.05-1-11.21-.39-.54,.29-1.17,.42-1.32,1.03-2.18,8.94-15.2,73.84-15.2,73.84-.2,1.02,.58,1.98,1.62,1.98h19.96c1.44,0,2.68-1.02,2.95-2.43l11.73-64.88s-.75-5.77-8.54-9.13"/><path class="f" d="M354.73,93.83c-4.6-13.37,3.09-27.94,16.45-32.54-13.17,4.53-27.53-2.47-32.36-15.45,.4-.19,.82-.35,1.25-.5l-.33-.97c-6.63,2.28-13.9-1.29-16.2-7.97l-.97,.33c1.1,3.21,.89,6.64-.61,9.67-1.49,3.02-4.09,5.3-7.31,6.41l.34,.97c3.19-1.1,6.59-.87,9.57,.64,2.96,1.5,5.2,4.11,6.35,7.43l.97-.34c-2.12-6.14,.95-12.88,6.89-15.64,4.18,13.19-2.94,27.22-16.1,31.75,13.36-4.6,27.41,2.68,32.01,16.05l.06,.17Zm-24.54-35.75c-1.3-1.95-3.07-3.52-5.17-4.59-1.88-.96-3.92-1.44-5.97-1.44-.23,0-.47,0-.7,.02,3.91-2.7,6.17-7.27,5.92-12,2.72,3.95,7.32,6.22,12.08,5.98-4.01,2.72-6.35,7.3-6.15,12.03"/><path class="f" d="M349.97,47.95l.03,.09c-2.38-6.91,1.69-14.48,8.6-16.86-6.91,2.38-14.47-1.38-16.85-8.29,2.38,6.91-1.32,14.35-8.23,16.73,6.91-2.38,14.07,1.42,16.45,8.33"/><path class="d" d="M602.99,98.09c0-4.87,4.03-8.79,8.9-8.79s8.54,3.81,8.54,8.57-3.96,8.76-8.79,8.76-8.65-3.81-8.65-8.54m15.73-.22c0-3.81-3.05-6.94-6.86-6.94s-7.08,3.23-7.08,7.12,3.09,6.94,6.86,6.94,7.08-3.2,7.08-7.12m-10.68-4.8h3.96c2.4,0,3.71,1.09,3.71,2.73,0,1.45-1.09,2.36-2.29,2.65l3.05,4.07h-2.69l-2.69-3.71h-.83v3.71h-2.22v-9.45Zm3.7,4.1c1.24,0,1.64-.54,1.64-1.27,0-.65-.47-1.2-1.64-1.2h-1.49v2.47h1.49Z"/></g></g><style xmlns="" id="stylebot-css-westpress.com">.images {display: none !important;}

.component:not(.selection_thumbnail_hidden) .composited_product_details_wrapper &gt; .details {
float:left!important;
}

.composite_form table.variations, .single-product div.product .composite_form table.variations {
  width:100%!important;
}

.et-db #et-boc .et-l .et_pb_wc_add_to_cart .quantity input.qty {
  width:100%!important;

  max-width:100%!important;
}

/* RED WARNING  THIS CONTROLES THE COLOR OF THE BOX THAT POPS UP WHEN YOU DON'T SELECT SOMETHING INSET OF THE WARNING TEXT*/

#left-area ul {
  padding:  0 0px 0em!important;
}

.composite_form .component_message, .woocommerce .woocommerce-error {

border: 1px solid #541f46!important;
border-radius: 5px!important;
background: #a20122!important;
}

.component.paged:not(.options-style-thumbnails) .component_message.bottom .woocommerce-info{
  margin-top:0em!important;
}</style></svg>