<?xml version="1.0" encoding="UTF-8"?><svg id="a" xmlns="http://www.w3.org/2000/svg" viewBox="0 0 780 250"><defs><style>.b{fill:#fff;}.c{fill:#003660;}.d{fill:#f8bd37;}</style></defs><rect class="c" width="780" height="250"/><g><g><rect class="b" x="398.98" y="58.56" width="2.57" height="136.2"/><path class="b" d="M401.05,59.06V194.26h-1.57V59.06h1.57m1-1h-3.57V195.26h3.57V58.06h0Z"/></g><g><path class="b" d="M145.19,89.31h-21.96c-.23,0-.44,.12-.56,.31l-29.63,47.64h-.46l-4.1-47.35c-.03-.34-.32-.61-.66-.61h-22.39c-.29,0-.55,.19-.63,.46l-23.15,73.26c-.14,.43,.18,.87,.63,.87h15.7c.29,0,.55-.19,.64-.48l9.77-32.84c2.51-8.25,3.93-13.75,5.37-19.96h.46l4.39,52.67c.03,.34,.32,.61,.66,.61h13.6c.23,0,.45-.12,.57-.32l31.85-52.96h.46c-1.67,6.22-3.29,12.04-5.03,19.96l-7.22,32.51c-.09,.42,.22,.81,.65,.81h15.96c.32,0,.59-.22,.65-.53l15.09-73.26c.08-.41-.23-.8-.65-.8Z"/><path class="b" d="M206.15,107.43c-12.63,0-22.24,7.85-24.23,15.44-1.67,6.36,.86,11.63,7.34,15.23,1.89,1.03,3.25,1.69,4.69,2.39,1.31,.64,2.71,1.32,4.67,2.36,3.64,1.91,4.06,3.09,3.6,4.85-.62,2.37-3.63,4.76-8.94,4.76-6.2,0-6.98-4.51-6.54-8.26,.13-.82-.04-1.42-.51-1.77-.49-.38-1.26-.43-2.31-.15l-8.72,2.56c-1.28,.38-2.16,1.39-2.33,2.74-.99,9.58,6.2,16.53,17.09,16.53,12.37,0,23.62-7.27,26.15-16.9,1.74-6.63-1.01-11.59-8.66-15.6-1.91-.99-3.82-1.89-5.5-2.67-.82-.38-1.6-.75-2.34-1.11-3.28-1.58-4.54-2.61-3.93-4.96,.64-2.45,4.29-3.91,7.44-3.91,1.65,0,3.29,.28,4.36,1.28,1.18,1.11,1.25,2.84,1.6,4.4,.12,.53,.29,1.06,.66,1.44,.37,.37,.98,.42,1.69,.31l9.17-2.89s1.84-.29,1.6-2.93c-.74-8.25-6.22-13.14-16.04-13.14Z"/><path class="b" d="M250.94,150.49c-.58-.28-1.37-.25-2.26,.08l-.13,.04c-1.08,.35-2.2,.75-4.01,.75-2.38,0-3.54-.56-2.41-4.83l6.58-24.78c.08-.29,.34-.49,.64-.49h12.75c.31,0,.57-.21,.65-.51l.59-2.45,1.82-6.25s.01-.04,.02-.06l.54-1.39h-12.93c-.43,0-.75-.41-.64-.83l2.73-10.78c.11-.42-.21-.83-.64-.83h-12.42c-.3,0-.56,.2-.64,.49l-3.1,11.45c-.08,.29-.34,.49-.64,.49h-6.36c-.27,0-.51,.16-.61,.4l-.36,.83s-.02,.06-.03,.09l-1.84,6.84-.46,1.65c-.12,.42,.2,.84,.64,.84h4.52c.44,0,.75,.41,.64,.84l-6.39,24.08c-4.14,15.77,6.01,17.97,12.3,17.97s10.39-1.99,12.03-3.63c.73-.73,1.15-1.54,1.07-2.22l-.83-6.45c-.07-.8-.49-1.18-.83-1.35Z"/><path class="b" d="M365.04,105.79c-1.03-.16-2.23-.03-3.23-.03-8.89,0-14.19,5.74-18.55,11.95h-.34l1.91-9.87c.08-.41-.24-.79-.65-.79h-12.62c-.31,0-.57,.21-.65,.5l-3.09,12.32-12.07,43.13c-.11,.42,.2,.84,.64,.84h14.71c.3,0,.56-.2,.64-.49l8.08-28.19c2.23-8.47,7.67-14.16,14.62-14.16,1.51,0,3.55,.07,5.01,.45,.33,.09,.66-.1,.78-.41l5.3-14.36c.14-.38-.09-.82-.5-.89Z"/><path class="b" d="M296.98,107.84c-15.51,0-30.37,11.93-34.6,28.02-5.12,19.47,6.66,28.24,19.76,28.24,12.3,0,20.45-6.75,25-11.55,1.14-1.21-.1-1.7-.1-1.7l-8.49-3.84c-1.45-.66-2.23,.31-2.23,.31-2.56,2.74-5.91,4.79-11.04,4.79-7.4,0-10.2-4.72-9.65-10.33,0-.05,.02-.1,.03-.14,.04-.27,.25-.83,.25-.83h32.13c4.52,0,6.1-3.31,7.4-8.22,3.71-14.1-4.03-24.74-18.46-24.74Zm4.78,21.74c-.05,.32-.33,.56-.66,.56h-20.45c-.52,0-.83-.56-.57-1.01,3.21-5.52,8.55-8.15,13.66-8.15,5.73,0,8.91,2.77,8.03,8.6Z"/><path class="b" d="M163.94,104.83c-2.96-1.28-7.75-.77-8.64-.3-.42,.22-.9,.32-1.02,.79-1.68,6.89-11.72,56.94-11.72,56.94-.16,.79,.44,1.53,1.25,1.53h15.39c1.11,0,2.06-.79,2.28-1.87l9.05-50.04s-.58-4.45-6.58-7.04Z"/><path class="d" d="M177.3,109.45c-3.55-10.31,2.38-21.55,12.68-25.1-10.15,3.5-21.23-1.9-24.95-11.92,.31-.14,.63-.27,.96-.39l-.26-.75c-5.11,1.76-10.72-1-12.49-6.15l-.75,.26c.85,2.47,.69,5.12-.47,7.46-1.15,2.33-3.15,4.09-5.63,4.94l.26,.75c2.46-.85,5.08-.67,7.38,.49,2.28,1.16,4.01,3.17,4.89,5.73l.75-.26c-1.63-4.74,.73-9.93,5.31-12.06,3.22,10.17-2.27,20.99-12.42,24.48,10.31-3.55,21.13,2.07,24.68,12.37l.05,.13Zm-18.92-27.56c-1.01-1.5-2.37-2.72-3.99-3.54-1.45-.74-3.02-1.11-4.61-1.11-.18,0-.36,0-.54,.01,3.02-2.09,4.76-5.61,4.56-9.25,2.1,3.05,5.64,4.8,9.31,4.61-3.09,2.1-4.9,5.63-4.74,9.27Z"/><path class="d" d="M173.63,74.07l.02,.07c-1.83-5.33,1.3-11.16,6.63-13-5.33,1.83-11.16-1.06-12.99-6.39,1.83,5.33-1.02,11.07-6.35,12.9,5.33-1.83,10.85,1.09,12.69,6.42Z"/><path class="b" d="M341.95,157.26c0-3.75,3.11-6.78,6.86-6.78s6.58,2.94,6.58,6.61-3.05,6.75-6.78,6.75-6.67-2.94-6.67-6.58Zm12.13-.17c0-2.94-2.35-5.35-5.29-5.35s-5.46,2.49-5.46,5.49,2.38,5.35,5.29,5.35,5.46-2.47,5.46-5.49Zm-8.23-3.7h3.05c1.85,0,2.86,.84,2.86,2.1,0,1.12-.84,1.82-1.77,2.05l2.35,3.14h-2.07l-2.07-2.86h-.64v2.86h-1.71v-7.28Zm2.86,3.17c.95,0,1.26-.42,1.26-.98,0-.5-.36-.92-1.26-.92h-1.15v1.9h1.15Z"/></g><g><path class="b" d="M461.51,124.82v-13.28l-5.72,8.69h-.12l-5.67-8.6v13.19h-4.42v-20.33h4.82l5.34,8.6,5.35-8.6h4.82v20.33h-4.42Z"/><path class="b" d="M500.06,124.82l-1.86-4.56h-8.6l-1.86,4.56h-4.56l8.71-20.48h4.12l8.71,20.48h-4.68Zm-6.16-15.11l-2.7,6.59h5.4l-2.7-6.59Z"/><path class="b" d="M534.33,124.82l-4.36-6.51h-3.51v6.51h-4.47v-20.33h9.3c2.42,0,4.3,.59,5.65,1.77,1.35,1.18,2.02,2.83,2.02,4.94v.06c0,1.65-.4,2.99-1.21,4.02-.8,1.04-1.85,1.8-3.15,2.28l4.97,7.26h-5.23Zm.09-13.39c0-.97-.31-1.69-.93-2.18-.62-.48-1.48-.73-2.59-.73h-4.44v5.84h4.53c1.1,0,1.95-.26,2.54-.78s.89-1.22,.89-2.09v-.06Z"/><path class="b" d="M570.24,124.82l-6.3-8.66-2.35,2.44v6.22h-4.47v-20.33h4.47v8.89l8.25-8.89h5.4l-8.28,8.63,8.66,11.71h-5.38Z"/><path class="b" d="M592.43,124.82v-20.33h15.31v3.98h-10.89v4.12h9.59v3.98h-9.59v4.27h11.04v3.98h-15.45Z"/><path class="b" d="M635.22,108.61v16.21h-4.47v-16.21h-6.19v-4.12h16.85v4.12h-6.19Z"/><path class="b" d="M659.16,124.82v-20.33h4.47v20.33h-4.47Z"/><path class="b" d="M697.1,124.82l-9.85-12.93v12.93h-4.42v-20.33h4.12l9.53,12.52v-12.52h4.42v20.33h-3.8Z"/><path class="b" d="M734.65,124.23c-1.44,.63-3.09,.94-4.95,.94-1.59,0-3.04-.26-4.34-.78-1.31-.52-2.43-1.25-3.37-2.18-.94-.93-1.67-2.03-2.19-3.31-.52-1.28-.78-2.67-.78-4.18v-.06c0-1.45,.27-2.81,.8-4.08,.53-1.27,1.27-2.38,2.22-3.34,.95-.96,2.07-1.71,3.37-2.27,1.3-.55,2.72-.83,4.27-.83,.91,0,1.74,.06,2.48,.19,.75,.13,1.44,.31,2.08,.54s1.24,.52,1.8,.87c.56,.35,1.1,.75,1.63,1.19l-2.82,3.4c-.39-.33-.78-.62-1.16-.87-.39-.25-.79-.46-1.21-.64-.42-.17-.87-.31-1.35-.41-.48-.1-1.02-.15-1.6-.15-.81,0-1.57,.17-2.28,.51-.71,.34-1.33,.8-1.86,1.37-.53,.57-.95,1.24-1.25,2.01-.3,.77-.45,1.59-.45,2.46v.06c0,.93,.15,1.79,.45,2.58,.3,.79,.73,1.47,1.28,2.05s1.2,1.03,1.95,1.35c.75,.32,1.57,.48,2.48,.48,1.67,0,3.07-.41,4.21-1.23v-2.93h-4.5v-3.86h8.83v8.83c-1.05,.89-2.29,1.65-3.73,2.28Z"/><path class="b" d="M486.29,160.5c-.37,.78-.88,1.44-1.53,1.98s-1.44,.94-2.34,1.22c-.91,.28-1.91,.42-3.02,.42-1.55,0-3.07-.27-4.56-.8-1.49-.53-2.85-1.35-4.07-2.45l2.64-3.17c.93,.76,1.88,1.36,2.86,1.8,.98,.45,2.05,.67,3.21,.67,.93,0,1.65-.17,2.16-.51,.51-.34,.77-.81,.77-1.41v-.06c0-.29-.05-.55-.16-.77-.11-.22-.31-.43-.61-.62-.3-.19-.72-.39-1.25-.58-.53-.19-1.23-.4-2.08-.61-1.03-.25-1.96-.53-2.8-.84s-1.54-.69-2.13-1.15c-.58-.46-1.03-1.02-1.35-1.7s-.48-1.52-.48-2.53v-.06c0-.93,.17-1.77,.52-2.51,.35-.75,.83-1.39,1.46-1.93s1.37-.96,2.24-1.25c.87-.29,1.83-.44,2.87-.44,1.49,0,2.86,.22,4.11,.67s2.4,1.08,3.44,1.92l-2.32,3.37c-.91-.62-1.8-1.11-2.67-1.47-.87-.36-1.74-.54-2.61-.54s-1.53,.17-1.96,.51c-.44,.34-.65,.76-.65,1.26v.06c0,.33,.06,.62,.19,.86s.35,.46,.68,.65c.33,.19,.78,.38,1.35,.55,.57,.17,1.3,.38,2.17,.61,1.03,.27,1.95,.58,2.75,.92,.81,.34,1.49,.75,2.04,1.22,.55,.48,.97,1.03,1.25,1.67,.28,.64,.42,1.4,.42,2.29v.06c0,1.01-.18,1.9-.55,2.69Z"/><path class="b" d="M521.62,159c-.42,1.14-1.01,2.1-1.79,2.86-.77,.77-1.71,1.34-2.82,1.71-1.1,.38-2.33,.57-3.69,.57-2.73,0-4.88-.75-6.45-2.27s-2.35-3.77-2.35-6.77v-11.62h4.47v11.5c0,1.67,.39,2.92,1.16,3.76s1.85,1.26,3.22,1.26,2.45-.41,3.22-1.22,1.16-2.03,1.16-3.66v-11.65h4.47v11.47c0,1.55-.21,2.9-.62,4.04Z"/><path class="b" d="M556.38,153.68c-.43,.89-1.01,1.64-1.76,2.24-.75,.6-1.62,1.05-2.61,1.35-1,.3-2.07,.45-3.21,.45h-3.4v6.1h-4.47v-20.33h8.31c1.22,0,2.31,.17,3.27,.51s1.77,.82,2.44,1.44c.67,.62,1.18,1.36,1.54,2.22s.54,1.82,.54,2.86v.06c0,1.18-.21,2.22-.64,3.11Zm-3.89-3.08c0-1.01-.32-1.77-.97-2.29-.65-.52-1.54-.78-2.66-.78h-3.46v6.22h3.54c1.12,0,1.99-.29,2.61-.89s.93-1.32,.93-2.19v-.06Z"/><path class="b" d="M589.91,153.68c-.43,.89-1.01,1.64-1.76,2.24-.75,.6-1.62,1.05-2.61,1.35-1,.3-2.07,.45-3.21,.45h-3.4v6.1h-4.47v-20.33h8.31c1.22,0,2.31,.17,3.27,.51s1.77,.82,2.44,1.44c.67,.62,1.18,1.36,1.54,2.22s.54,1.82,.54,2.86v.06c0,1.18-.21,2.22-.64,3.11Zm-3.89-3.08c0-1.01-.32-1.77-.97-2.29-.65-.52-1.54-.78-2.66-.78h-3.46v6.22h3.54c1.12,0,1.99-.29,2.61-.89s.93-1.32,.93-2.19v-.06Z"/><path class="b" d="M607.98,163.82v-20.33h4.47v16.3h10.14v4.04h-14.61Z"/><path class="b" d="M640.28,163.82v-20.33h4.47v20.33h-4.47Z"/><path class="b" d="M663.95,163.82v-20.33h15.31v3.98h-10.89v4.13h9.59v3.98h-9.59v4.27h11.04v3.98h-15.45Z"/><path class="b" d="M711.69,160.5c-.37,.78-.88,1.44-1.53,1.98s-1.44,.94-2.34,1.22c-.91,.28-1.91,.42-3.02,.42-1.55,0-3.07-.27-4.56-.8-1.49-.53-2.85-1.35-4.07-2.45l2.64-3.17c.93,.76,1.88,1.36,2.86,1.8,.98,.45,2.05,.67,3.21,.67,.93,0,1.65-.17,2.16-.51,.51-.34,.77-.81,.77-1.41v-.06c0-.29-.05-.55-.16-.77-.11-.22-.31-.43-.61-.62-.3-.19-.72-.39-1.25-.58-.53-.19-1.23-.4-2.08-.61-1.03-.25-1.96-.53-2.8-.84s-1.54-.69-2.13-1.15c-.58-.46-1.03-1.02-1.35-1.7s-.48-1.52-.48-2.53v-.06c0-.93,.17-1.77,.52-2.51,.35-.75,.83-1.39,1.46-1.93s1.37-.96,2.24-1.25c.87-.29,1.83-.44,2.87-.44,1.49,0,2.86,.22,4.11,.67s2.4,1.08,3.44,1.92l-2.32,3.37c-.91-.62-1.8-1.11-2.67-1.47-.87-.36-1.74-.54-2.61-.54s-1.53,.17-1.96,.51c-.44,.34-.65,.76-.65,1.26v.06c0,.33,.06,.62,.19,.86s.35,.46,.68,.65c.33,.19,.78,.38,1.35,.55,.57,.17,1.3,.38,2.17,.61,1.03,.27,1.95,.58,2.75,.92,.81,.34,1.49,.75,2.04,1.22,.55,.48,.97,1.03,1.25,1.67,.28,.64,.42,1.4,.42,2.29v.06c0,1.01-.18,1.9-.55,2.69Z"/></g></g></svg>