<?xml version="1.0" encoding="UTF-8"?><svg id="a" xmlns="http://www.w3.org/2000/svg" viewBox="0 0 780 155.47"><defs><style>.b{fill:#003660;}.c{fill:#005b9a;}.d{fill:#022e4a;}.e{fill:#ffcb05;}</style></defs><g><rect class="b" x="398.98" y="11.51" width="2.57" height="136.2"/><path class="b" d="M401.05,12.01V147.21h-1.57V12.01h1.57m1-1h-3.57V148.21h3.57V11.01h0Z"/></g><g><path class="b" d="M445.84,77.73v-20.55h4.52v20.55h-4.52Z"/><path class="b" d="M483.81,77.73l-9.95-13.07v13.07h-4.46v-20.55h4.17l9.63,12.66v-12.66h4.46v20.55h-3.85Z"/><path class="b" d="M517.02,77.88h-3.99l-8.31-20.7h4.99l5.37,14.48,5.37-14.48h4.88l-8.31,20.7Z"/><path class="b" d="M542.39,77.73v-20.55h15.47v4.02h-11.01v4.17h9.69v4.02h-9.69v4.32h11.16v4.02h-15.62Z"/><path class="b" d="M590.37,77.73l-9.95-13.07v13.07h-4.46v-20.55h4.17l9.63,12.66v-12.66h4.46v20.55h-3.85Z"/><path class="b" d="M622.35,61.35v16.38h-4.52v-16.38h-6.25v-4.17h17.03v4.17h-6.25Z"/><path class="b" d="M666.07,71.58c-.55,1.28-1.31,2.41-2.28,3.38s-2.12,1.73-3.46,2.29-2.8,.84-4.39,.84-3.04-.28-4.38-.84c-1.33-.56-2.48-1.31-3.45-2.26-.97-.95-1.72-2.07-2.26-3.35-.54-1.28-.81-2.66-.81-4.12v-.06c0-1.47,.27-2.84,.82-4.12,.55-1.28,1.31-2.41,2.28-3.38,.97-.97,2.12-1.73,3.46-2.29,1.34-.56,2.8-.84,4.39-.84s3.04,.28,4.38,.84c1.33,.56,2.48,1.31,3.45,2.26,.97,.95,1.72,2.07,2.26,3.35,.54,1.28,.81,2.66,.81,4.12v.06c0,1.47-.27,2.84-.82,4.13Zm-3.91-4.13c0-.88-.15-1.71-.46-2.5-.3-.78-.73-1.47-1.29-2.06-.56-.59-1.22-1.05-1.98-1.39-.76-.34-1.6-.51-2.5-.51s-1.76,.17-2.51,.5c-.75,.33-1.4,.79-1.94,1.38-.54,.59-.96,1.27-1.26,2.04-.3,.77-.46,1.6-.46,2.48v.06c0,.88,.15,1.71,.46,2.5,.3,.78,.73,1.47,1.29,2.06,.56,.59,1.21,1.05,1.97,1.39,.75,.34,1.59,.51,2.51,.51s1.73-.17,2.5-.5c.76-.33,1.41-.79,1.95-1.38s.96-1.27,1.26-2.04c.3-.77,.46-1.6,.46-2.48v-.06Z"/><path class="b" d="M697.28,77.73l-4.41-6.58h-3.55v6.58h-4.52v-20.55h9.4c2.45,0,4.35,.6,5.71,1.79,1.36,1.19,2.04,2.86,2.04,4.99v.06c0,1.66-.41,3.02-1.22,4.07-.81,1.05-1.88,1.82-3.19,2.3l5.02,7.34h-5.29Zm.09-13.54c0-.98-.31-1.71-.94-2.2-.63-.49-1.5-.73-2.61-.73h-4.49v5.9h4.58c1.12,0,1.97-.26,2.57-.79,.6-.53,.9-1.23,.9-2.11v-.06Z"/><path class="b" d="M730.23,69.54v8.19h-4.52v-8.1l-7.9-12.45h5.29l4.9,8.25,4.99-8.25h5.14l-7.9,12.36Z"/><path class="b" d="M487.2,100.35v16.38h-4.52v-16.38h-6.25v-4.17h17.03v4.17h-6.25Z"/><path class="b" d="M523.29,116.73l-4.4-6.58h-3.55v6.58h-4.52v-20.55h9.4c2.45,0,4.35,.6,5.71,1.79,1.36,1.19,2.04,2.86,2.04,4.99v.06c0,1.66-.41,3.02-1.22,4.07-.81,1.05-1.88,1.82-3.19,2.3l5.02,7.34h-5.29Zm.09-13.54c0-.98-.31-1.71-.94-2.2-.63-.49-1.5-.73-2.61-.73h-4.49v5.9h4.58c1.12,0,1.97-.26,2.57-.79,.6-.53,.9-1.23,.9-2.11v-.06Z"/><path class="b" d="M561.23,116.73l-1.88-4.61h-8.69l-1.88,4.61h-4.61l8.81-20.7h4.17l8.81,20.7h-4.73Zm-6.22-15.27l-2.73,6.67h5.46l-2.73-6.67Z"/><path class="b" d="M599.43,114.94c-.57,.45-1.19,.84-1.87,1.16-.67,.32-1.41,.57-2.22,.73s-1.7,.25-2.7,.25c-1.51,0-2.91-.27-4.2-.82s-2.41-1.3-3.35-2.25c-.94-.95-1.67-2.07-2.2-3.36-.53-1.29-.79-2.67-.79-4.14v-.06c0-1.47,.26-2.84,.79-4.12,.53-1.28,1.26-2.41,2.2-3.38,.94-.97,2.06-1.73,3.38-2.29,1.31-.56,2.76-.84,4.35-.84,.96,0,1.84,.08,2.63,.24,.79,.16,1.51,.37,2.16,.65,.65,.27,1.24,.61,1.79,1,.55,.39,1.06,.82,1.53,1.29l-2.88,3.32c-.8-.72-1.62-1.29-2.45-1.7s-1.77-.62-2.8-.62c-.86,0-1.66,.17-2.39,.5-.73,.33-1.37,.79-1.89,1.38-.53,.59-.94,1.27-1.23,2.04-.29,.77-.44,1.6-.44,2.48v.06c0,.88,.15,1.71,.44,2.5,.29,.78,.7,1.47,1.22,2.06,.52,.59,1.15,1.05,1.88,1.39,.73,.34,1.54,.51,2.42,.51,1.17,0,2.17-.21,2.98-.65s1.62-1.02,2.42-1.76l2.88,2.91c-.53,.57-1.08,1.08-1.64,1.53Z"/><path class="b" d="M631.85,116.73l-6.37-8.75-2.38,2.47v6.28h-4.52v-20.55h4.52v8.99l8.34-8.99h5.46l-8.37,8.72,8.75,11.83h-5.43Z"/><path class="b" d="M653.9,116.73v-20.55h15.47v4.02h-11.01v4.17h9.69v4.02h-9.69v4.32h11.16v4.02h-15.62Z"/><path class="b" d="M699.94,116.73l-4.41-6.58h-3.55v6.58h-4.52v-20.55h9.4c2.45,0,4.35,.6,5.71,1.79,1.36,1.19,2.04,2.86,2.04,4.99v.06c0,1.66-.41,3.02-1.22,4.07-.81,1.05-1.88,1.82-3.19,2.3l5.02,7.34h-5.29Zm.09-13.54c0-.98-.31-1.71-.94-2.2-.63-.49-1.5-.73-2.61-.73h-4.49v5.9h4.58c1.12,0,1.97-.26,2.57-.79,.6-.53,.9-1.23,.9-2.11v-.06Z"/></g><g><g><path class="d" d="M247.82,112.81c0-2.32,1.94-4.19,4.66-4.19,1.2,0,2.31,.37,3.11,1.04l-1.17,1.19c-.6-.47-1.2-.62-1.82-.62-1.6,0-2.77,1.15-2.77,2.61s1.15,2.64,2.72,2.64c.82,0,1.57-.28,2.12-.85l1.19,1.24c-.85,.75-1.99,1.2-3.34,1.2-2.72,0-4.66-1.89-4.66-4.24h-.03Z"/><path class="d" d="M259.34,108.74h3.79c2.61,0,3.98,1.4,3.98,3.16,0,1.05-.58,2.06-1.69,2.61l1.84,2.42h-2.19l-1.35-1.92c-.27,.03-.48,.07-.75,.07h-1.7v1.85h-1.9v-8.19h-.02Zm3.84,4.81c1.12,0,1.89-.75,1.89-1.64s-.77-1.67-1.89-1.67h-1.95v3.31h1.95Z"/><path class="d" d="M270.92,108.74h6.92v1.52h-5.01v1.67h4.75v1.5h-4.75v1.99h5.2v1.52h-7.1v-8.19h0v-.02Z"/><path class="d" d="M281.66,108.74h3.56c2.91,0,4.73,1.85,4.73,4.09s-1.84,4.09-4.73,4.09h-3.56v-8.19h0Zm3.46,6.68c1.69,0,2.82-1.09,2.82-2.57s-1.12-2.57-2.82-2.57h-1.55v5.15h1.55Z"/><path class="d" d="M293.82,108.74h1.9v8.19h-1.9v-8.19Z"/><path class="d" d="M302.36,110.26h-3.01v-1.52h7.92v1.52h-3.01v6.67h-1.9v-6.67Z"/><path class="d" d="M314.91,113.67v-4.93h1.9v4.83c0,1.22,.75,1.87,1.9,1.87s1.9-.65,1.9-1.87v-4.83h1.9v4.93c0,2.16-1.55,3.41-3.83,3.41s-3.83-1.24-3.83-3.41h.03Z"/><path class="d" d="M326.67,108.74h1.84l3.04,3.89c.48,.62,1.05,1.5,1.05,1.5v-5.4h1.9v8.19h-1.84l-2.94-3.74c-.58-.74-1.14-1.6-1.14-1.6v5.35h-1.9v-8.19h-.02Z"/><path class="d" d="M338.7,108.74h1.9v8.19h-1.9v-8.19Z"/><path class="d" d="M344.49,112.83c0-2.32,1.95-4.21,4.68-4.21s4.68,1.89,4.68,4.21-1.95,4.23-4.68,4.23-4.68-1.89-4.68-4.23Zm7.37,0c0-1.45-1.14-2.62-2.67-2.62s-2.71,1.15-2.71,2.62,1.15,2.62,2.71,2.62,2.67-1.15,2.67-2.62Z"/><path class="d" d="M357.74,108.74h1.84l3.04,3.89c.48,.62,1.05,1.5,1.05,1.5v-5.4h1.9v8.19h-1.84l-2.94-3.74c-.58-.74-1.14-1.6-1.14-1.6v5.35h-1.9v-8.19h-.02Z"/></g><g><polygon class="d" points="75.25 116.87 92.9 116.87 120.42 61.05 102.77 61.05 75.25 116.87"/><polygon class="e" points="68.5 83.19 59.68 101.08 41.62 64.46 59.26 64.46 68.5 83.19"/><polygon class="c" points="61.25 103.94 78.89 103.94 106.43 48.1 88.79 48.1 61.25 103.94"/></g><g><path class="d" d="M122.57,73.51h4.76l6.25,14.95c.75,1.89,2.06,5.85,2.06,5.85,0,0,1.3-3.94,2.06-5.85l6.25-14.95h4.8l-10.81,26.2h-4.56l-10.81-26.2h.02Z"/><path class="d" d="M146.63,89.67c0-5.76,3.74-10.41,9.24-10.41,2.71,0,5.08,1.09,6.65,2.94v-2.54h4.48v19.95h-4.48v-2.51c-1.57,1.85-3.94,2.91-6.65,2.91-5.48,0-9.24-4.63-9.24-10.36h0v.02Zm15.87,0c0-3.51-2.34-6.08-5.51-6.08-3.39,0-5.81,2.57-5.81,6.08s2.42,6.05,5.81,6.05c3.14,0,5.51-2.51,5.51-6.05Z"/><path class="d" d="M170.26,79.68h4.48v2.87c1.49-2.22,3.79-3.26,6.45-3.26,5.41,0,7.18,3.59,7.18,8.91v11.45h-4.48v-10.88c0-3.26-.72-5.16-4.08-5.16-2.94,0-5.08,2.29-5.08,5.61v10.44h-4.48v-19.95h0v-.03Z"/><path class="d" d="M192.6,93.23v-9.88h-2.94v-3.66h2.94v-3.91l4.48-.92v4.83h6v3.66h-6v9.99c0,2.14,1,2.82,2.14,2.82,1.57,0,2.91-.97,2.91-.97l1.34,3.34c-.92,.62-2.54,1.49-4.8,1.49-4.08,0-6.05-2.22-6.05-6.82h0l-.02,.02Z"/><path class="d" d="M204.26,89.67c0-5.76,3.74-10.41,9.24-10.41,2.71,0,5.08,1.09,6.65,2.94v-2.54h4.48v19.95h-4.48v-2.51c-1.57,1.85-3.94,2.91-6.65,2.91-5.48,0-9.24-4.63-9.24-10.36h0v.02Zm15.87,0c0-3.51-2.34-6.08-5.51-6.08-3.39,0-5.81,2.57-5.81,6.08s2.42,6.05,5.81,6.05c3.14,0,5.51-2.51,5.51-6.05Z"/><path class="d" d="M228.86,102.91l1.74-2.82c1.57,1.37,3.91,2.06,5.97,2.06,4.28,0,6.37-2.74,6.37-6.82v-.17c-.8,1.6-2.94,3.43-6.57,3.43-5.51,0-9.14-4.28-9.14-9.62s3.63-9.67,9.14-9.67c3.02,0,5.71,1.4,6.77,3.39v-2.97h4.28v15.41c0,6.98-4.68,10.48-10.41,10.48-3.43,0-6.3-1-8.14-2.67h0Zm14.07-14.12c0-3.19-2.46-5.61-5.61-5.61s-5.56,2.46-5.56,5.76,2.42,5.71,5.56,5.71,5.61-2.42,5.61-5.88v.02Z"/><path class="d" d="M250,89.67c0-5.71,4.48-10.41,10.28-10.41,5.31,0,9.59,4.63,9.59,10.24,0,.85-.12,1.74-.12,1.74h-15.12c.65,3.19,3.22,4.83,6.2,4.83,2.02,0,4.11-.62,5.71-1.74l1.77,3.31c-2.26,1.54-4.93,2.37-7.57,2.37-5.68,0-10.76-3.79-10.76-10.36h0l.02,.02Zm15.51-1.74c-.45-2.87-2.74-4.76-5.48-4.76-2.57,0-4.83,1.89-5.45,4.76h10.93Z"/><path class="d" d="M276.96,73.51h4.68l4.96,15.76c.65,2.06,1.2,4.34,1.2,4.34,0,0,.57-2.26,1.09-4.34l4.11-15.76h5l4.11,15.76c.57,2.09,1.05,4.34,1.05,4.34,0,0,.62-2.26,1.25-4.34l4.96-15.76h4.68l-8.35,26.2h-4.96l-4.19-15.16c-.62-2.26-1.05-5.16-1.05-5.16,0,0-.45,2.91-1.05,5.16l-4.19,15.16h-5l-8.3-26.2h.02Z"/><path class="d" d="M312.92,89.67c0-5.71,4.48-10.41,10.28-10.41,5.31,0,9.59,4.63,9.59,10.24,0,.85-.12,1.74-.12,1.74h-15.12c.65,3.19,3.22,4.83,6.2,4.83,2.02,0,4.11-.62,5.71-1.74l1.77,3.31c-2.26,1.54-4.93,2.37-7.57,2.37-5.68,0-10.76-3.79-10.76-10.36h0l.02,.02Zm15.51-1.74c-.45-2.87-2.74-4.76-5.48-4.76-2.57,0-4.83,1.89-5.45,4.76h10.93Z"/><path class="d" d="M334.34,97.12l1.69-3.66c1.29,1.05,3.34,2.37,6.33,2.37,1.82,0,3.94-.69,3.94-2.09s-2.02-1.82-3.99-2.37c-3.79-1.05-7.02-2.19-7.02-6.08s3.99-6,7.5-6c2.97,0,4.96,.75,7.13,2.06l-1.65,3.63c-1.77-1-3.46-1.49-5.45-1.49-1.49,0-2.97,.69-2.97,1.74,0,1.37,1.65,1.69,3.43,2.06,3.71,.8,7.57,2.29,7.57,6.4,0,4.68-4.8,6.37-8.5,6.37-4.11,0-6.93-1.85-8.02-2.91l.02-.02Z"/><path class="d" d="M354.46,93.23v-9.88h-2.94v-3.66h2.94v-3.91l4.48-.92v4.83h6v3.66h-6v9.99c0,2.14,1,2.82,2.14,2.82,1.57,0,2.91-.97,2.91-.97l1.34,3.34c-.92,.62-2.54,1.49-4.8,1.49-4.08,0-6.05-2.22-6.05-6.82h0l-.02,.02Z"/></g></g></svg>