<?xml version="1.0" encoding="UTF-8"?><svg id="a" xmlns="http://www.w3.org/2000/svg" xmlns:xlink="http://www.w3.org/1999/xlink" viewBox="0 0 434.06 70.88"><defs><style>.f{fill:#fff;}.g{fill:url(#c);}.h{fill:#6d6e71;}.i{fill:#1c3664;}.j{clip-path:url(#b);}.k{clip-path:url(#e);}.l{clip-path:url(#d);}.m{fill:none;}.n{fill:#02bfe7;}</style><clipPath id="b"><rect class="m" x="9.82" y="22.26" width="26.73" height="26.72"/></clipPath><linearGradient id="c" x1="-88.56" y1="441.43" x2="-87.76" y2="441.43" gradientTransform="translate(4145.72 20677.9) scale(46.76 -46.76)" gradientUnits="userSpaceOnUse"><stop offset="0" stop-color="#6dcde7"/><stop offset=".07" stop-color="#68c9e5"/><stop offset=".14" stop-color="#5bbde0"/><stop offset=".21" stop-color="#45a9d8"/><stop offset=".28" stop-color="#278ecc"/><stop offset=".29" stop-color="#248bcb"/><stop offset=".31" stop-color="#2382c1"/><stop offset=".37" stop-color="#216ba4"/><stop offset=".44" stop-color="#1f578c"/><stop offset=".52" stop-color="#1d487a"/><stop offset=".61" stop-color="#1c3d6d"/><stop offset=".74" stop-color="#1c3766"/><stop offset="1" stop-color="#1c3664"/></linearGradient><clipPath id="d"><rect class="m" x="7.8" y="17.63" width="110.88" height="35.62"/></clipPath><clipPath id="e"><rect class="m" x="9.82" y="22.26" width="26.73" height="26.72"/></clipPath></defs><rect class="n" x="130.3" y="13.36" width=".51" height="44.06"/><g><path class="i" d="M152.37,35.33c-.16,.32-.37,.6-.65,.82s-.6,.38-.96,.5c-.37,.12-.76,.16-1.18,.16h-1.25v2.26h-1.66v-7.52h3.07c.45,0,.86,.06,1.2,.19,.36,.13,.66,.3,.9,.53s.44,.5,.57,.82,.2,.67,.2,1.05v.02c0,.45-.09,.83-.24,1.16h0Zm-1.44-1.1c0-.37-.12-.66-.36-.85-.24-.2-.57-.29-.98-.29h-1.27v2.29h1.31c.42,0,.74-.1,.96-.32s.35-.49,.35-.81v-.02h-.01Z"/><path class="i" d="M168.48,39.09l-1.61-2.41h-1.3v2.41h-1.66v-7.52h3.44c.89,0,1.59,.22,2.09,.66,.5,.44,.74,1.04,.74,1.83v.02c0,.61-.15,1.1-.44,1.48-.3,.38-.68,.66-1.17,.85l1.83,2.69h-1.92Zm.02-5.01c0-.36-.12-.63-.35-.8s-.54-.27-.95-.27h-1.64v2.15h1.68c.41,0,.72-.09,.94-.29s.32-.45,.32-.78v-.02h0Z"/><path class="i" d="M181.84,39.09v-7.52h1.66v7.52h-1.66Z"/><path class="i" d="M200.73,39.09l-3.64-4.77v4.77h-1.63v-7.52h1.53l3.52,4.62v-4.62h1.63v7.52h-1.41Z"/><path class="i" d="M217.44,33.1v5.99h-1.66v-5.99h-2.28v-1.53h6.23v1.53h-2.29Z"/><path class="i" d="M250.1,35.33c-.16,.32-.37,.6-.65,.82s-.6,.38-.96,.5-.76,.16-1.18,.16h-1.25v2.26h-1.66v-7.52h3.07c.45,0,.86,.06,1.2,.19,.36,.13,.66,.3,.9,.53s.44,.5,.57,.82,.2,.67,.2,1.05v.02c0,.45-.08,.83-.24,1.16h0Zm-1.44-1.1c0-.37-.12-.66-.36-.85-.24-.2-.57-.29-.98-.29h-1.27v2.29h1.31c.42,0,.74-.1,.96-.32,.23-.22,.35-.49,.35-.81v-.02h-.01Z"/><path class="i" d="M269.01,36.84c-.2,.46-.47,.88-.83,1.24s-.78,.64-1.26,.83c-.49,.21-1.02,.3-1.6,.3s-1.11-.1-1.6-.3c-.49-.21-.9-.47-1.26-.82s-.63-.75-.82-1.23-.29-.97-.29-1.51v-.02c0-.53,.1-1.04,.3-1.51,.2-.46,.47-.88,.83-1.24s.78-.64,1.26-.83c.49-.21,1.02-.3,1.61-.3s1.11,.1,1.6,.3c.49,.21,.9,.47,1.26,.82s.63,.75,.82,1.23c.2,.47,.29,.97,.29,1.51v.02c0,.53-.1,1.03-.31,1.51h0Zm-1.42-1.52c0-.32-.06-.63-.16-.92s-.27-.53-.47-.75c-.21-.22-.44-.38-.73-.51s-.58-.19-.92-.19-.64,.06-.92,.19c-.28,.13-.51,.29-.71,.51s-.35,.46-.46,.74-.16,.58-.16,.9v.02c0,.32,.06,.63,.16,.92s.27,.53,.47,.75c.21,.21,.44,.38,.72,.51,.28,.13,.58,.19,.92,.19s.64-.06,.92-.19c.28-.12,.52-.29,.72-.51s.35-.46,.46-.74,.16-.59,.16-.9v-.02h0Z"/><path class="i" d="M285.43,39.09l-1.61-2.41h-1.3v2.41h-1.66v-7.52h3.44c.89,0,1.59,.22,2.09,.66,.5,.44,.74,1.04,.74,1.83v.02c0,.61-.15,1.1-.44,1.48-.3,.38-.68,.66-1.16,.85l1.83,2.69h-1.93Zm.03-5.01c0-.36-.12-.63-.35-.8s-.54-.27-.96-.27h-1.64v2.15h1.68c.41,0,.72-.09,.94-.29s.32-.45,.32-.78v-.02h.01Z"/><path class="i" d="M302.13,33.1v5.99h-1.66v-5.99h-2.28v-1.53h6.23v1.53h-2.29Z"/><path class="i" d="M321.37,39.09l-.68-1.69h-3.17l-.68,1.69h-1.69l3.22-7.56h1.53l3.22,7.56h-1.75Zm-2.28-5.58l-1,2.43h1.99l-1-2.43h.01Z"/><path class="i" d="M334.34,39.09v-7.52h1.66v6.02h3.74v1.49h-5.4Z"/></g><g><g class="j"><rect class="g" x="4.33" y="16.77" width="37.7" height="37.7" transform="translate(-17.68 23.94) rotate(-41)"/></g><g class="l"><path class="i" d="M39.96,31.08c0-1.42,.24-2.7,.71-3.86,.48-1.15,1.14-2.13,1.99-2.94,.85-.81,1.86-1.43,3.03-1.86,1.17-.43,2.45-.65,3.83-.65s2.66,.22,3.83,.65c1.17,.43,2.18,1.06,3.03,1.86,.85,.81,1.51,1.79,1.99,2.94,.48,1.15,.71,2.44,.71,3.86s-.24,2.7-.71,3.86c-.48,1.15-1.14,2.13-1.99,2.94-.85,.81-1.86,1.43-3.03,1.87-1.17,.43-2.45,.65-3.83,.65s-2.66-.22-3.83-.65c-1.17-.43-2.18-1.06-3.03-1.87-.85-.81-1.52-1.79-1.99-2.94-.48-1.15-.71-2.44-.71-3.86m4.06,0c0,.84,.13,1.6,.39,2.29,.26,.69,.63,1.29,1.11,1.8,.48,.51,1.06,.91,1.74,1.19,.68,.28,1.43,.43,2.27,.43s1.59-.14,2.27-.43c.68-.28,1.26-.68,1.74-1.19,.48-.51,.86-1.11,1.11-1.8,.26-.69,.39-1.46,.39-2.29s-.13-1.58-.39-2.28c-.26-.7-.63-1.31-1.11-1.82-.48-.51-1.06-.9-1.74-1.19-.68-.28-1.43-.43-2.27-.43s-1.59,.14-2.27,.43c-.68,.28-1.26,.68-1.74,1.19-.48,.51-.86,1.11-1.11,1.82-.26,.7-.39,1.46-.39,2.28"/><path class="i" d="M60.02,27.78h3.61v1.65h.05c.12-.23,.28-.47,.5-.7,.22-.23,.48-.44,.78-.63,.3-.18,.64-.33,1.03-.45,.38-.12,.8-.18,1.25-.18,.95,0,1.72,.15,2.3,.44,.58,.29,1.04,.7,1.36,1.21,.33,.52,.55,1.13,.66,1.83,.12,.7,.18,1.46,.18,2.28v6.71h-3.76v-5.96c0-.35-.01-.71-.04-1.09-.02-.38-.1-.72-.22-1.04-.12-.32-.32-.58-.58-.78-.26-.2-.63-.3-1.11-.3s-.88,.09-1.18,.26c-.3,.17-.53,.41-.69,.7-.16,.29-.26,.62-.31,.99-.05,.37-.07,.75-.07,1.15v6.06h-3.76v-12.17Z"/><path class="i" d="M84.66,37.84c-.6,.77-1.36,1.36-2.28,1.78-.92,.42-1.87,.63-2.85,.63s-1.82-.15-2.64-.45c-.83-.3-1.54-.73-2.15-1.29-.61-.56-1.09-1.23-1.44-2.02-.35-.78-.53-1.66-.53-2.63s.18-1.84,.53-2.63c.35-.78,.83-1.46,1.44-2.02,.61-.56,1.33-.99,2.15-1.29,.83-.3,1.71-.45,2.64-.45,.87,0,1.66,.15,2.37,.45,.71,.3,1.31,.73,1.8,1.29,.49,.56,.87,1.23,1.14,2.02s.4,1.66,.4,2.63v1.18h-8.71c.15,.72,.48,1.29,.98,1.71,.5,.43,1.12,.64,1.85,.64,.62,0,1.14-.14,1.56-.41,.42-.28,.8-.63,1.11-1.06l2.63,1.93Zm-3.18-5.36c.02-.63-.19-1.18-.63-1.63-.43-.45-.99-.68-1.68-.68-.42,0-.78,.07-1.1,.2-.32,.13-.59,.3-.81,.51-.22,.21-.4,.45-.52,.73-.13,.28-.2,.56-.21,.86h4.96Z"/><path class="i" d="M92.32,22.22h3.23l7.71,17.73h-4.41l-1.53-3.76h-6.89l-1.48,3.76h-4.31l7.66-17.73Zm1.5,5.16l-2.15,5.51h4.33l-2.18-5.51Z"/><polygon class="i" points="101.71 36.34 110.7 25.67 102.04 25.67 102.04 22.22 115.43 22.22 115.43 25.67 106.62 36.34 115.73 36.34 115.73 39.94 101.71 39.94 101.71 36.34"/></g><g class="k"><path class="f" d="M35.77,33.03c-.7,.44-1.92,1.26-3.25,2.17-1.63,1.13-3.34,2.39-4.95,3.64,.38-1.47,.83-2.91,1.49-4.93l.22-.66c.1-.01,.2-.02,.3-.04,.18-.04,.37-.06,.55-.09h.02c.33-.04,.6-.09,.81-.13,2.13-.32,3.95-.5,5.73-.57-.43,.28-.63,.4-.92,.59m-19.98,4.68c.85-.93,1.71-1.86,2.47-2.65l.71-.73c2.24-.28,2.91-.37,5.94-.69l1.19-.12c-.2,.47-.27,.69-.38,1.07-.35,.97-.73,2.21-.98,3.1-.37,1.31-.65,2.45-.81,3.35-2.42-1.12-5.36-2.31-8.15-3.33m-5.92-1.99c.94-.18,1.99-.33,3.14-.5,.18-.01,.42-.04,.68-.1,.1-.01,.25-.04,.41-.06,.88-.13,1.83-.29,2.82-.47h.05c-1.01,1.06-1.79,1.88-2.49,2.65-1.48-.51-2.8-.95-3.57-1.18-.33-.11-.55-.18-1.04-.34m20.25-10.31c-1.33,2.21-2.49,4.46-3.47,6.73l-.63,.06c-1.08,.1-2.42,.21-4.07,.4l-1.39,.19c3.5-3.34,6.97-6.02,9.56-7.38m11.05,5.48c-.4,0-.86,.04-1.29,.04-.91,.06-2.46,.16-3.19,.19-2.14,.17-4.27,.33-6.85,.73,.6-1.53,1.08-2.56,1.79-4.01,.76-1.54,1.89-3.4,2.74-4.57l.57-.79c.2-.29,.27-.41,.27-.57,0-.22-.17-.35-.45-.35-.35,0-.88,.23-1.83,.7-3.43,1.8-7.07,4.25-10.54,7.19-1.33,1.13-1.73,1.51-3.52,3.28l-.38,.34-.76,.1-2.49,.39c-.43,.06-.8,.11-1.08,.15-1.66,.22-3.1,.45-4.63,.74-.71,.16-2.22,.48-3.12,.66-.43,.12-.88,.22-1.26,.33-.7,.18-.98,.42-.9,.76,.05,.18,.25,.29,.62,.41,.25,.07,.81,.21,2.26,.66,1.89,.56,3.8,1.17,5.69,1.85l-3.09,3.56c-.73,.81-.93,1.07-.93,1.38,0,.34,.27,.57,.65,.57,.35,0,.6-.16,1.06-.73l1.73-2.11c.48-.6,1.15-1.36,1.89-2.2,2.08,.76,4.18,1.62,6.31,2.55,.68,.29,1.4,.57,2.09,.86-1.26,1.09-1.53,1.42-2.62,2.65-1.44,1.57-2.03,2.51-2.03,3.18,0,.41,.27,.66,.7,.66,.23,0,.38-.02,.86-.24,.08-.04,.32-.13,.61-.25l.98-.41c1.54-.63,3.67-1.38,5.29-1.88,1.74-.58,4.08-1.2,5.49-1.52l1.16-.25c.58-.13,.83-.32,.83-.65s-.25-.51-.66-.51c-.53,0-1.96,.28-4.03,.79-2.02,.47-4.33,1.17-6.37,1.86,1.01-1.11,1.48-1.58,2.62-2.62,1.51-1.41,.86-.74,2.85-2.34,3.83-3.12,7.67-5.84,11.53-8.23,1.29-.81,1.79-1.1,2.02-1.23,.32-.22,.46-.39,.46-.57,0-.35-.35-.51-1.06-.51"/></g><g><path class="h" d="M45.28,44.87c-.12-.15-.27-.26-.44-.34-.17-.08-.38-.12-.61-.12s-.44,.04-.64,.13c-.2,.09-.37,.21-.51,.37-.14,.16-.26,.35-.34,.57-.08,.22-.12,.46-.12,.71s.04,.5,.12,.72c.08,.22,.19,.4,.33,.56,.14,.16,.31,.28,.5,.37,.19,.09,.4,.13,.62,.13,.25,0,.47-.05,.67-.16,.19-.11,.35-.25,.48-.44l1.02,.76c-.24,.33-.53,.57-.89,.73-.36,.16-.73,.23-1.11,.23-.43,0-.83-.07-1.2-.2-.37-.14-.68-.33-.95-.58-.27-.25-.47-.56-.62-.92-.15-.36-.22-.76-.22-1.21s.07-.85,.22-1.21c.15-.36,.36-.67,.62-.92,.27-.25,.58-.45,.95-.58,.37-.14,.77-.2,1.2-.2,.16,0,.32,.02,.49,.04s.34,.07,.5,.14c.17,.06,.32,.15,.47,.25,.15,.1,.29,.23,.41,.38l-.94,.77Z"/><path class="h" d="M48.59,43.43h2.15c.28,0,.55,.03,.8,.08,.25,.05,.48,.15,.67,.27,.19,.13,.34,.3,.45,.52,.11,.22,.17,.49,.17,.81,0,.39-.1,.72-.31,1-.2,.27-.5,.45-.89,.52l1.41,2.34h-1.47l-1.16-2.22h-.6v2.22h-1.22v-5.55Zm1.22,2.3h.72c.11,0,.23,0,.35-.01,.12,0,.23-.03,.33-.07,.1-.04,.18-.1,.25-.18,.07-.08,.1-.2,.1-.35,0-.14-.03-.25-.09-.34-.06-.08-.13-.15-.22-.19-.09-.04-.19-.07-.31-.09-.11-.02-.23-.02-.34-.02h-.8v1.26Z"/><polygon class="h" points="55.28 43.43 59.05 43.43 59.05 44.55 56.51 44.55 56.51 45.59 58.91 45.59 58.91 46.72 56.51 46.72 56.51 47.84 59.19 47.84 59.19 48.97 55.28 48.97 55.28 43.43"/><path class="h" d="M61.74,43.43h1.83c.44,0,.87,.05,1.27,.15,.4,.1,.75,.26,1.05,.48,.3,.22,.53,.51,.71,.87,.18,.36,.26,.79,.26,1.29,0,.45-.08,.84-.25,1.19-.17,.34-.4,.63-.69,.86-.29,.23-.62,.41-1,.53-.38,.12-.77,.18-1.18,.18h-2v-5.55Zm1.22,4.42h.63c.28,0,.55-.03,.79-.09,.24-.06,.45-.15,.63-.29,.18-.13,.32-.31,.42-.53,.1-.22,.15-.48,.15-.79,0-.27-.05-.51-.15-.71-.1-.2-.24-.37-.41-.5-.17-.13-.37-.23-.61-.29-.23-.07-.48-.1-.73-.1h-.72v3.29Z"/><rect class="h" x="69.24" y="43.42" width="1.22" height="5.55"/><polygon class="h" points="74.21 44.51 72.63 44.51 72.63 43.43 77.02 43.43 77.02 44.51 75.44 44.51 75.44 48.97 74.21 48.97 74.21 44.51"/><path class="h" d="M87.77,46.83c0,.33-.05,.63-.15,.91-.1,.28-.25,.52-.44,.72-.2,.2-.44,.36-.73,.48-.29,.11-.63,.17-1.01,.17s-.73-.06-1.02-.17c-.29-.11-.54-.27-.73-.48-.2-.2-.34-.44-.44-.72-.1-.28-.15-.58-.15-.91v-3.41h1.22v3.36c0,.17,.03,.33,.08,.48,.05,.15,.13,.27,.23,.38,.1,.11,.22,.19,.36,.25,.14,.06,.29,.09,.45,.09s.31-.03,.45-.09c.14-.06,.25-.14,.35-.25,.1-.11,.18-.23,.23-.38,.05-.15,.08-.31,.08-.48v-3.36h1.22v3.41Z"/><polygon class="h" points="90.47 43.43 92.13 43.43 94.49 47.28 94.5 47.28 94.5 43.43 95.73 43.43 95.73 48.97 94.13 48.97 91.71 45.02 91.69 45.02 91.69 48.97 90.47 48.97 90.47 43.43"/><rect class="h" x="98.4" y="43.42" width="1.22" height="5.55"/><path class="h" d="M102.01,46.2c0-.44,.07-.85,.22-1.21,.15-.36,.36-.67,.62-.92,.27-.25,.58-.45,.95-.58,.37-.14,.77-.2,1.2-.2s.83,.07,1.2,.2c.37,.14,.68,.33,.95,.58,.27,.25,.47,.56,.62,.92s.22,.76,.22,1.21-.07,.85-.22,1.21-.36,.67-.62,.92c-.27,.25-.58,.45-.95,.58-.37,.14-.77,.2-1.2,.2s-.83-.07-1.2-.2c-.37-.14-.68-.33-.95-.58-.27-.25-.47-.56-.62-.92-.15-.36-.22-.76-.22-1.21m1.27,0c0,.26,.04,.5,.12,.72,.08,.22,.2,.4,.35,.56,.15,.16,.33,.28,.54,.37,.21,.09,.45,.13,.71,.13s.5-.04,.71-.13c.21-.09,.39-.21,.54-.37,.15-.16,.27-.35,.35-.56,.08-.22,.12-.46,.12-.72s-.04-.49-.12-.71c-.08-.22-.2-.41-.35-.57-.15-.16-.33-.28-.54-.37-.21-.09-.45-.13-.71-.13s-.5,.04-.71,.13c-.21,.09-.39,.21-.54,.37-.15,.16-.27,.35-.35,.57-.08,.22-.12,.46-.12,.71"/><polygon class="h" points="110.39 43.43 112.05 43.43 114.41 47.28 114.43 47.28 114.43 43.43 115.65 43.43 115.65 48.97 114.05 48.97 111.63 45.02 111.62 45.02 111.62 48.97 110.39 48.97 110.39 43.43"/></g></g></svg>