<?xml version="1.0" encoding="UTF-8"?>
<svg id="a" xmlns="http://www.w3.org/2000/svg" xmlns:xlink="http://www.w3.org/1999/xlink" viewBox="0 0 868.12 70.88"><defs><style>.e{fill:#5f6163;}.f{fill:none;stroke:#5e5f61;stroke-miterlimit:10;stroke-width:.21px;}.g{fill:#507033;}.h{fill:#7bc143;}.i{fill:url(#d);}.j{fill:#5d9741;}</style><linearGradient id="d" x1="931.92" y1="-655.26" x2="1002.85" y2="-655.26" gradientTransform="translate(-221.2 -931.92) rotate(90)" gradientUnits="userSpaceOnUse"><stop offset="0" stop-color="#fff" stop-opacity="0"/><stop offset=".14" stop-color="#fff" stop-opacity="0"/><stop offset=".27" stop-color="#fff" stop-opacity=".06"/><stop offset=".39" stop-color="#fff" stop-opacity=".13"/><stop offset=".51" stop-color="#fff" stop-opacity=".23"/><stop offset=".63" stop-color="#fff" stop-opacity=".36"/><stop offset=".74" stop-color="#fff" stop-opacity=".52"/><stop offset=".86" stop-color="#fff" stop-opacity=".71"/><stop offset=".96" stop-color="#fff" stop-opacity=".92"/><stop offset="1" stop-color="#fff"/></linearGradient></defs><g id="b"><g id="c"><polygon class="i" points="0 70.93 0 0 868.12 0 868.12 70.93 0 70.93"/></g></g><rect class="j" x="203.13" y="19.47" width=".37" height="31.93"/><g><path class="e" d="M219.12,35.4c-.12,.24-.27,.44-.47,.6s-.44,.28-.7,.36c-.27,.08-.55,.12-.86,.12h-.91v1.64h-1.2v-5.45h2.22c.33,0,.62,.04,.87,.13,.26,.09,.48,.22,.65,.39s.32,.36,.41,.6,.14,.49,.14,.76v.02c0,.33-.07,.6-.18,.84h.03Zm-1.04-.83c0-.27-.08-.48-.26-.61-.18-.14-.41-.21-.71-.21h-.92v1.66h.95c.3,0,.54-.08,.7-.24s.25-.35,.25-.59v-.02h0Z"/><path class="e" d="M230.8,38.12l-1.17-1.75h-.94v1.75h-1.2v-5.45h2.49c.65,0,1.15,.16,1.51,.48s.54,.76,.54,1.33v.02c0,.44-.11,.8-.32,1.07-.22,.28-.5,.48-.85,.61l1.33,1.95h-1.39Zm.02-3.6c0-.26-.08-.45-.25-.58s-.39-.19-.69-.19h-1.19v1.56h1.22c.29,0,.52-.07,.68-.21s.24-.33,.24-.56v-.02h0Z"/><path class="e" d="M240.48,38.12v-5.45h1.2v5.45h-1.2Z"/><path class="e" d="M254.17,38.12l-2.64-3.46v3.46h-1.18v-5.45h1.11l2.55,3.35v-3.35h1.18v5.45h-1.02Z"/><path class="e" d="M266.27,33.78v4.34h-1.2v-4.34h-1.65v-1.11h4.52v1.11h-1.67Z"/><path class="e" d="M289.94,35.4c-.12,.24-.27,.44-.47,.6s-.44,.28-.7,.36-.55,.12-.86,.12h-.91v1.64h-1.2v-5.45h2.22c.33,0,.62,.04,.87,.13,.26,.09,.48,.22,.65,.39,.18,.17,.32,.36,.41,.6s.14,.49,.14,.76v.02c0,.33-.06,.6-.18,.84h.03Zm-1.04-.83c0-.27-.08-.48-.26-.61-.18-.14-.41-.21-.71-.21h-.92v1.66h.95c.3,0,.54-.08,.7-.24,.17-.16,.25-.35,.25-.59v-.02h-.01Z"/><path class="e" d="M303.64,36.49c-.14,.34-.34,.64-.6,.9s-.56,.46-.92,.6c-.35,.15-.74,.22-1.16,.22s-.81-.08-1.16-.22c-.35-.15-.65-.34-.92-.6s-.45-.55-.6-.89-.21-.71-.21-1.09v-.02c0-.39,.08-.76,.22-1.09,.14-.34,.34-.64,.6-.9s.56-.46,.92-.6c.35-.15,.74-.22,1.17-.22s.81,.08,1.16,.22c.35,.15,.65,.34,.92,.6s.45,.55,.6,.89c.14,.34,.21,.71,.21,1.09v.02c0,.39-.08,.75-.23,1.09Zm-1.03-1.1c0-.24-.04-.45-.12-.66s-.19-.39-.34-.55-.32-.28-.53-.37-.42-.13-.66-.13-.46,.04-.66,.13-.37,.21-.51,.37-.25,.34-.34,.54-.12,.42-.12,.65v.02c0,.24,.04,.45,.12,.66s.19,.39,.34,.55c.15,.15,.32,.28,.52,.37,.2,.09,.42,.13,.66,.13s.46-.04,.66-.13c.2-.08,.38-.21,.52-.37s.25-.34,.34-.54,.12-.43,.12-.65v-.02h0Z"/><path class="e" d="M315.55,38.12l-1.17-1.75h-.94v1.75h-1.2v-5.45h2.49c.65,0,1.15,.16,1.51,.48,.36,.32,.54,.76,.54,1.33v.02c0,.44-.11,.8-.32,1.07-.22,.28-.5,.48-.84,.61l1.33,1.95h-1.4Zm.03-3.6c0-.26-.08-.45-.25-.58s-.39-.19-.7-.19h-1.19v1.56h1.22c.29,0,.52-.07,.68-.21s.24-.33,.24-.56v-.02h0Z"/><path class="e" d="M327.64,33.78v4.34h-1.2v-4.34h-1.65v-1.11h4.52v1.11h-1.67Z"/><path class="e" d="M341.59,38.12l-.5-1.23h-2.3l-.5,1.23h-1.23l2.33-5.48h1.11l2.33,5.48h-1.24Zm-1.65-4.05l-.72,1.76h1.44l-.72-1.76Z"/><path class="e" d="M350.99,38.12v-5.45h1.2v4.37h2.71v1.08h-3.91Z"/></g><g><path class="e" d="M110.97,39.93c0,1.3-.16,2.3-.48,2.99-.23,.52-.56,.94-1.01,1.26-.45,.31-.92,.47-1.42,.47-.57,0-1.05-.22-1.42-.66-.37-.44-.56-1-.56-1.68,0-.79,.24-1.48,.72-2.08,.24-.29,.5-.54,.78-.74,.29-.21,.8-.51,1.55-.91,.67-.35,1.27-.75,1.83-1.22v2.57Zm4.46,4.17c-.18,.11-.43,.17-.75,.17-.67,0-1.09-.37-1.26-1.09-.08-.35-.12-1.01-.12-1.97v-5.7c0-.73-.04-1.25-.12-1.56-.17-.61-.58-1.1-1.25-1.48-.46-.26-1.04-.47-1.73-.63-.69-.16-1.35-.25-1.99-.25-.57,0-1.14,.06-1.74,.18-.59,.12-1.09,.27-1.49,.45-.74,.36-1.11,.8-1.11,1.32,0,.35,.12,.64,.35,.87,.24,.23,.53,.35,.88,.35,.53,0,.9-.24,1.11-.72l.38-.89c.16-.38,.41-.68,.74-.89,.33-.22,.7-.32,1.12-.32,.35,0,.69,.08,1.01,.23,.32,.15,.59,.36,.79,.62,.45,.56,.68,1.43,.68,2.64,0,.56-.06,1.01-.18,1.32-.12,.32-.35,.6-.68,.83-.29,.22-.64,.4-1.07,.56-.43,.15-1.09,.34-1.98,.57-.76,.19-1.34,.39-1.74,.58-.4,.19-.75,.44-1.06,.76-.54,.58-.82,1.29-.82,2.14,0,.92,.33,1.66,.99,2.2,.66,.54,1.56,.82,2.69,.82,.88,0,1.66-.19,2.33-.55,.35-.19,.87-.6,1.56-1.22,.34,.58,.67,1,.99,1.23,.48,.36,1.09,.54,1.82,.54,1.32,0,2.17-.54,2.54-1.62l-.26-.15c-.25,.34-.46,.56-.64,.68m-37.61-11.99v.32c.46,.03,.82,.11,1.06,.24,.25,.13,.46,.33,.63,.62,.17,.27,.29,.61,.34,1.04,.05,.42,.08,1.16,.08,2.22v3.8c0,.9-.02,1.59-.07,2.07-.05,.48-.13,.83-.24,1.07-.17,.36-.38,.61-.65,.76-.27,.15-.71,.26-1.32,.35v.32h6.81v-.32c-.77-.14-1.3-.35-1.59-.63-.24-.22-.4-.48-.48-.81-.08-.32-.12-.83-.12-1.53v-3.95c-.01-.93,.04-1.7,.16-2.28,.12-.59,.32-1.1,.59-1.52,.3-.47,.7-.85,1.21-1.12,.51-.28,1.06-.42,1.64-.42,.51,0,.97,.11,1.38,.32,.41,.21,.73,.5,.95,.87,.21,.35,.36,.8,.44,1.36,.08,.56,.12,1.44,.12,2.64v2.85c0,.89-.02,1.58-.07,2.05-.05,.48-.13,.83-.24,1.07-.18,.36-.39,.61-.66,.76-.26,.15-.7,.26-1.32,.35v.32h6.81v-.32c-.78-.14-1.32-.35-1.6-.63-.23-.22-.38-.48-.46-.81-.08-.32-.12-.83-.12-1.53l-.02-1.17v-2.97c0-1.71,.25-2.98,.75-3.79,.57-.94,1.5-1.42,2.77-1.42,1.18,0,2.01,.44,2.49,1.31,.2,.37,.34,.82,.41,1.34,.07,.52,.11,1.35,.11,2.49v2.94c0,.89-.02,1.58-.07,2.05-.05,.48-.13,.83-.24,1.07-.18,.36-.39,.61-.66,.76-.26,.15-.7,.26-1.32,.35v.32h6.81v-.32c-.77-.14-1.3-.35-1.6-.63-.23-.22-.38-.48-.46-.81-.08-.32-.12-.83-.12-1.53l-.02-1.17v-5.22c0-1.09-.39-1.97-1.16-2.64-.78-.67-1.78-1.01-3.01-1.01-.91,0-1.77,.19-2.56,.55-.79,.37-1.58,.95-2.36,1.74-.5-.74-.95-1.26-1.34-1.56-.65-.49-1.45-.74-2.42-.74-.87,0-1.71,.19-2.52,.55-.81,.37-1.53,.9-2.18,1.59-.05-.71-.17-1.42-.36-2.14l-4.24,.52Zm-3.43-6.44c.26-.26,.39-.58,.39-.97s-.13-.7-.4-.96c-.27-.26-.6-.39-.99-.39s-.72,.13-.99,.39c-.27,.26-.4,.58-.4,.96s.13,.71,.39,.97c.26,.26,.6,.38,1,.38s.74-.13,1-.38m-4.21,6.79c.46,.03,.82,.11,1.06,.24,.25,.13,.46,.33,.63,.62,.17,.27,.29,.61,.34,1.03,.05,.43,.08,1.16,.08,2.22v3.79c0,.9-.02,1.59-.07,2.06-.05,.47-.13,.83-.24,1.06-.16,.36-.38,.61-.65,.76-.27,.15-.71,.26-1.32,.35v.32h6.81v-.32c-.77-.14-1.3-.35-1.59-.63-.24-.21-.39-.48-.48-.8-.08-.32-.12-.83-.12-1.53l-.02-1.17v-8.87l-4.44,.55v.32Zm-11.12-7.45h1.25c.82,0,1.34,0,1.57,.03,.84,.09,1.56,.39,2.16,.9,.53,.43,.93,.98,1.22,1.66,.28,.68,.42,1.43,.42,2.24,0,1.47-.49,2.65-1.46,3.54-.42,.39-.89,.65-1.42,.8-.53,.14-1.29,.22-2.27,.22h-1.46v-9.38Zm2.92,9.86c1.29,0,2.11-.01,2.45-.04,1.06-.09,1.97-.35,2.71-.79,1.43-.84,2.15-2.18,2.15-4s-.71-3.22-2.12-4.3c-.62-.48-1.3-.8-2.04-.95-.75-.16-1.9-.24-3.48-.24h-8.99v.34h.1c.64,.04,1.15,.16,1.55,.35,.4,.19,.73,.49,.98,.89,.18,.29,.31,.66,.38,1.13s.11,1.12,.11,1.98v10.99c0,1.02-.05,1.78-.16,2.27-.11,.49-.32,.89-.64,1.21-.27,.28-.58,.48-.93,.62-.35,.13-.82,.22-1.39,.25v.34h9.53v-.34c-.58-.03-1.04-.11-1.39-.25-.35-.13-.66-.34-.93-.62-.31-.32-.52-.72-.63-1.22-.11-.49-.17-1.25-.17-2.26v-5.36h2.92Z"/><path class="f" d="M110.97,39.93c0,1.3-.16,2.3-.48,2.99-.23,.52-.56,.94-1.01,1.26-.45,.31-.92,.47-1.42,.47-.57,0-1.05-.22-1.42-.66-.37-.44-.56-1-.56-1.68,0-.79,.24-1.48,.72-2.08,.24-.29,.5-.54,.78-.74,.29-.21,.8-.51,1.55-.91,.67-.35,1.27-.75,1.83-1.22v2.57Zm4.46,4.17c-.18,.11-.43,.17-.75,.17-.67,0-1.09-.37-1.26-1.09-.08-.35-.12-1.01-.12-1.97v-5.7c0-.73-.04-1.25-.12-1.56-.17-.61-.58-1.1-1.25-1.48-.46-.26-1.04-.47-1.73-.63-.69-.16-1.35-.25-1.99-.25-.57,0-1.14,.06-1.74,.18-.59,.12-1.09,.27-1.49,.45-.74,.36-1.11,.8-1.11,1.32,0,.35,.12,.64,.35,.87,.24,.23,.53,.35,.88,.35,.53,0,.9-.24,1.11-.72l.38-.89c.16-.38,.41-.68,.74-.89,.33-.22,.7-.32,1.12-.32,.35,0,.69,.08,1.01,.23,.32,.15,.59,.36,.79,.62,.45,.56,.68,1.43,.68,2.64,0,.56-.06,1.01-.18,1.32-.12,.32-.35,.6-.68,.83-.29,.22-.64,.4-1.07,.56-.43,.15-1.09,.34-1.98,.57-.76,.19-1.34,.39-1.74,.58-.4,.19-.75,.44-1.06,.76-.54,.58-.82,1.29-.82,2.14,0,.92,.33,1.66,.99,2.2,.66,.54,1.56,.82,2.69,.82,.88,0,1.66-.19,2.33-.55,.35-.19,.87-.6,1.56-1.22,.34,.58,.67,1,.99,1.23,.48,.36,1.09,.54,1.82,.54,1.32,0,2.17-.54,2.54-1.62l-.26-.15c-.25,.34-.46,.56-.64,.68Zm-37.61-11.99v.32c.46,.03,.82,.11,1.06,.24,.25,.13,.46,.33,.63,.62,.17,.27,.29,.61,.34,1.04,.05,.42,.08,1.16,.08,2.22v3.8c0,.9-.02,1.59-.07,2.07-.05,.48-.13,.83-.24,1.07-.17,.36-.38,.61-.65,.76-.27,.15-.71,.26-1.32,.35v.32h6.81v-.32c-.77-.14-1.3-.35-1.59-.63-.24-.22-.4-.48-.48-.81-.08-.32-.12-.83-.12-1.53v-3.95c-.01-.93,.04-1.7,.16-2.28,.12-.59,.32-1.1,.59-1.52,.3-.47,.7-.85,1.21-1.12,.51-.28,1.06-.42,1.64-.42,.51,0,.97,.11,1.38,.32,.41,.21,.73,.5,.95,.87,.21,.35,.36,.8,.44,1.36,.08,.56,.12,1.44,.12,2.64v2.85c0,.89-.02,1.58-.07,2.05-.05,.48-.13,.83-.24,1.07-.18,.36-.39,.61-.66,.76-.26,.15-.7,.26-1.32,.35v.32h6.81v-.32c-.78-.14-1.32-.35-1.6-.63-.23-.22-.38-.48-.46-.81-.08-.32-.12-.83-.12-1.53l-.02-1.17v-2.97c0-1.71,.25-2.98,.75-3.79,.57-.94,1.5-1.42,2.77-1.42,1.18,0,2.01,.44,2.49,1.31,.2,.37,.34,.82,.41,1.34,.07,.52,.11,1.35,.11,2.49v2.94c0,.89-.02,1.58-.07,2.05-.05,.48-.13,.83-.24,1.07-.18,.36-.39,.61-.66,.76-.26,.15-.7,.26-1.32,.35v.32h6.81v-.32c-.77-.14-1.3-.35-1.6-.63-.23-.22-.38-.48-.46-.81-.08-.32-.12-.83-.12-1.53l-.02-1.17v-5.22c0-1.09-.39-1.97-1.16-2.64-.78-.67-1.78-1.01-3.01-1.01-.91,0-1.77,.19-2.56,.55-.79,.37-1.58,.95-2.36,1.74-.5-.74-.95-1.26-1.34-1.56-.65-.49-1.45-.74-2.42-.74-.87,0-1.71,.19-2.52,.55-.81,.37-1.53,.9-2.18,1.59-.05-.71-.17-1.42-.36-2.14l-4.24,.52Zm-3.43-6.44c.26-.26,.39-.58,.39-.97s-.13-.7-.4-.96c-.27-.26-.6-.39-.99-.39s-.72,.13-.99,.39c-.27,.26-.4,.58-.4,.96s.13,.71,.39,.97c.26,.26,.6,.38,1,.38s.74-.13,1-.38Zm-4.21,6.79c.46,.03,.82,.11,1.06,.24,.25,.13,.46,.33,.63,.62,.17,.27,.29,.61,.34,1.03,.05,.43,.08,1.16,.08,2.22v3.79c0,.9-.02,1.59-.07,2.06-.05,.47-.13,.83-.24,1.06-.16,.36-.38,.61-.65,.76-.27,.15-.71,.26-1.32,.35v.32h6.81v-.32c-.77-.14-1.3-.35-1.59-.63-.24-.21-.39-.48-.48-.8-.08-.32-.12-.83-.12-1.53l-.02-1.17v-8.87l-4.44,.55v.32Zm-11.12-7.45h1.25c.82,0,1.34,0,1.57,.03,.84,.09,1.56,.39,2.16,.9,.53,.43,.93,.98,1.22,1.66,.28,.68,.42,1.43,.42,2.24,0,1.47-.49,2.65-1.46,3.54-.42,.39-.89,.65-1.42,.8-.53,.14-1.29,.22-2.27,.22h-1.46v-9.38Zm2.92,9.86c1.29,0,2.11-.01,2.45-.04,1.06-.09,1.97-.35,2.71-.79,1.43-.84,2.15-2.18,2.15-4s-.71-3.22-2.12-4.3c-.62-.48-1.3-.8-2.04-.95-.75-.16-1.9-.24-3.48-.24h-8.99v.34h.1c.64,.04,1.15,.16,1.55,.35,.4,.19,.73,.49,.98,.89,.18,.29,.31,.66,.38,1.13s.11,1.12,.11,1.98v10.99c0,1.02-.05,1.78-.16,2.27-.11,.49-.32,.89-.64,1.21-.27,.28-.58,.48-.93,.62-.35,.13-.82,.22-1.39,.25v.34h9.53v-.34c-.58-.03-1.04-.11-1.39-.25-.35-.13-.66-.34-.93-.62-.31-.32-.52-.72-.63-1.22-.11-.49-.17-1.25-.17-2.26v-5.36h2.92Z"/><path class="e" d="M188.58,54.33h.19v-4.5c0-.29,.02-.5,.05-.64,.03-.14,.09-.26,.18-.35,.16-.17,.38-.25,.67-.25v-.1h-1.97v.1c.16,0,.29,.03,.39,.07,.1,.04,.19,.1,.27,.18,.09,.09,.15,.21,.18,.35,.03,.14,.05,.36,.05,.65v3.09l-3.48-4.43h-1.65v.1c.17,0,.3,.03,.4,.07,.1,.04,.19,.1,.27,.18,.09,.09,.15,.21,.18,.35,.03,.14,.05,.36,.05,.64v3.16c0,.29-.02,.51-.05,.65-.03,.14-.09,.26-.18,.35-.08,.08-.17,.14-.27,.18-.1,.04-.23,.06-.39,.07v.1h1.97v-.1c-.16,0-.3-.03-.4-.07-.1-.04-.19-.1-.27-.18-.09-.09-.15-.21-.18-.35-.03-.14-.05-.36-.05-.65v-3.72l4.03,5.07Zm-10.79-4.14c.12-.41,.3-.76,.52-1.04,.19-.24,.39-.41,.61-.51,.22-.11,.48-.16,.79-.16s.57,.05,.79,.16c.22,.11,.43,.28,.61,.51,.23,.29,.4,.63,.52,1.04,.12,.41,.19,.84,.19,1.3,0,.84-.23,1.54-.68,2.11-.21,.26-.42,.44-.65,.56-.23,.11-.49,.17-.79,.17s-.56-.06-.79-.17c-.23-.12-.44-.3-.64-.56-.45-.57-.67-1.27-.67-2.09,0-.47,.06-.91,.18-1.32m-1.03,2.31c.13,.34,.31,.64,.55,.91,.3,.34,.66,.6,1.07,.79,.41,.19,.85,.28,1.3,.28s.9-.1,1.32-.29c.42-.19,.78-.46,1.09-.81,.25-.28,.44-.59,.57-.93,.13-.34,.2-.69,.2-1.06,0-.73-.25-1.38-.75-1.95-.31-.35-.67-.62-1.08-.82-.41-.19-.84-.29-1.28-.29-.35,0-.69,.06-1.03,.18-.34,.12-.66,.29-.95,.52-.39,.3-.69,.66-.9,1.07-.2,.41-.31,.85-.31,1.33,0,.37,.06,.72,.19,1.06m-3.55-4.02v.1c.16,0,.3,.03,.4,.07,.1,.04,.19,.1,.27,.18,.09,.09,.15,.21,.18,.35,.03,.14,.05,.36,.05,.65v3.15c0,.29-.02,.51-.05,.65-.03,.14-.09,.26-.18,.35-.08,.08-.17,.14-.27,.18-.1,.04-.24,.06-.4,.07v.1h2.74v-.1c-.19-.01-.35-.05-.47-.1-.12-.06-.21-.14-.29-.26-.05-.08-.09-.19-.11-.33-.02-.14-.03-.32-.03-.56v-3.15c0-.2,0-.37,.03-.52,.03-.2,.09-.36,.2-.47,.08-.08,.17-.14,.27-.18,.1-.04,.23-.06,.4-.07v-.1h-2.74Zm-1.51,5.84h.19v-4.5c0-.29,.02-.5,.05-.64,.03-.14,.09-.26,.18-.35,.16-.17,.38-.25,.67-.25v-.1h-1.97v.1c.16,0,.29,.03,.4,.07,.1,.04,.19,.1,.27,.18,.09,.09,.15,.21,.18,.35,.03,.14,.05,.36,.05,.65v3.09l-3.47-4.43h-1.65v.1c.17,0,.3,.03,.4,.07,.1,.04,.19,.1,.27,.18,.09,.09,.15,.21,.18,.35,.03,.14,.05,.36,.05,.64v3.16c0,.29-.02,.51-.05,.65-.03,.14-.09,.26-.18,.35-.08,.08-.17,.14-.27,.18-.1,.04-.23,.06-.4,.07v.1h1.97v-.1c-.16,0-.29-.03-.39-.07-.1-.04-.19-.1-.27-.18-.09-.09-.15-.21-.18-.35-.03-.14-.05-.36-.05-.65v-3.72l4.03,5.07Zm-11.76-5.84v.1c.17,0,.3,.03,.4,.07,.1,.04,.19,.1,.27,.18,.09,.09,.15,.21,.18,.35,.03,.14,.05,.36,.05,.65v2.6c0,.33,0,.56,.03,.68,.05,.35,.2,.64,.44,.86,.38,.34,.98,.51,1.79,.51s1.37-.18,1.78-.54c.18-.16,.3-.33,.37-.52,.06-.19,.09-.48,.09-.88v-2.7c0-.29,.02-.51,.05-.65,.03-.14,.09-.26,.18-.35,.08-.08,.17-.14,.27-.18,.1-.04,.23-.06,.39-.07v-.1h-1.97v.1c.16,0,.29,.03,.4,.07,.1,.04,.19,.1,.27,.18,.09,.09,.15,.21,.18,.35,.03,.14,.05,.36,.05,.65v2.39c0,.44,0,.71-.02,.83-.02,.18-.05,.33-.11,.45-.05,.12-.13,.23-.25,.33-.18,.16-.4,.28-.67,.37-.27,.09-.55,.13-.85,.13s-.56-.05-.76-.15c-.2-.1-.37-.26-.51-.49-.09-.15-.15-.31-.18-.49-.03-.18-.04-.46-.04-.86v-2.42c0-.35,.01-.59,.04-.74,.03-.14,.09-.26,.19-.36,.08-.08,.17-.14,.27-.18,.1-.04,.24-.06,.4-.07v-.1h-2.73Zm-11.3,0v.1c.16,0,.29,.03,.4,.07,.1,.04,.19,.1,.27,.18,.09,.09,.15,.21,.18,.35,.03,.14,.05,.36,.05,.65v3.15c0,.29-.02,.51-.05,.65-.03,.14-.09,.26-.18,.35-.08,.08-.17,.14-.27,.18-.1,.04-.24,.06-.4,.07v.1h2.73v-.1c-.2-.01-.35-.05-.47-.1-.12-.06-.21-.14-.29-.26-.05-.08-.09-.19-.11-.33-.02-.14-.03-.32-.03-.56v-3.15c0-.2,0-.37,.03-.52,.03-.2,.09-.36,.21-.47,.08-.08,.17-.14,.27-.18,.1-.04,.23-.06,.4-.07v-.1h-2.73Zm-4.41,.13c.37,0,.68,.03,.92,.1,.44,.12,.82,.38,1.13,.75,.23,.27,.4,.59,.53,.96,.12,.37,.18,.75,.18,1.16,0,.37-.05,.71-.15,1.03-.1,.32-.25,.61-.44,.86-.2,.26-.42,.45-.67,.56-.25,.12-.55,.17-.9,.17-.41,0-.71-.11-.89-.33-.09-.1-.14-.23-.18-.37-.03-.15-.05-.36-.05-.64v-4.25h.52Zm-2.35,5.71h3.16c.37,0,.73-.03,1.08-.1,.47-.09,.87-.3,1.18-.62,.23-.23,.4-.52,.53-.87,.13-.35,.19-.72,.19-1.12,0-.54-.11-1.04-.33-1.49-.22-.46-.53-.83-.93-1.11-.42-.3-.93-.47-1.53-.51-.14-.01-.48-.02-1-.02h-2.35v.1c.27,.02,.48,.08,.62,.2,.11,.09,.19,.21,.22,.36,.04,.15,.06,.37,.06,.69v3.15c0,.29-.02,.51-.05,.65-.03,.14-.09,.26-.18,.35-.08,.08-.17,.14-.27,.18-.1,.04-.23,.06-.4,.07v.1Zm-5.46-5.84v.1c.17,0,.3,.03,.4,.07,.1,.04,.19,.1,.27,.18,.09,.09,.15,.21,.18,.35,.03,.14,.05,.36,.05,.65v3.15c0,.29-.02,.51-.05,.65-.03,.14-.09,.26-.18,.35-.08,.08-.17,.14-.27,.18-.1,.04-.23,.06-.4,.07v.1h5.11l.06-1.7h-.1c-.05,.25-.11,.46-.18,.62-.06,.16-.15,.3-.25,.42-.14,.18-.33,.32-.56,.4-.23,.09-.52,.13-.86,.13s-.59-.05-.79-.14c-.2-.1-.35-.25-.44-.45-.06-.12-.1-.27-.12-.45-.02-.18-.03-.46-.03-.85v-.98h.24c.21,0,.38,.02,.52,.06,.14,.04,.25,.11,.33,.2,.09,.09,.16,.21,.21,.34,.05,.13,.09,.31,.11,.53h.1l.02-2.29h-.1c-.02,.21-.06,.38-.1,.49-.04,.11-.1,.21-.18,.29-.08,.09-.19,.15-.32,.18-.13,.03-.33,.05-.59,.05h-.26v-2.57h.98c.3,0,.54,.02,.73,.06,.18,.04,.34,.11,.48,.21,.16,.12,.29,.26,.37,.41,.08,.16,.15,.36,.18,.6h.1l-.07-1.42h-4.6Zm-3.84,.13h.18c.31,0,.54,.02,.71,.06,.17,.04,.31,.11,.43,.2,.15,.13,.27,.29,.36,.49,.09,.2,.13,.41,.13,.64,0,.42-.15,.78-.45,1.06-.13,.13-.28,.21-.43,.25-.15,.04-.41,.06-.76,.06h-.16v-2.76Zm.21,2.85c.13,0,.24,.01,.33,.04,.09,.02,.17,.06,.25,.12,.15,.12,.32,.33,.5,.64,.18,.31,.36,.67,.54,1.08l.3,.68s.07,.14,.14,.3h1.42v-.1c-.12-.01-.21-.03-.28-.07-.07-.03-.14-.09-.21-.18-.09-.11-.2-.28-.33-.52-.13-.24-.32-.62-.57-1.14-.11-.23-.19-.39-.24-.48-.05-.09-.11-.16-.18-.22-.08-.08-.21-.15-.38-.22,.21-.04,.38-.09,.5-.15,.12-.05,.24-.12,.34-.2,.34-.27,.5-.62,.5-1.07,0-.3-.08-.56-.23-.79-.16-.23-.38-.4-.66-.51-.25-.1-.6-.16-1.04-.18-.11,0-.34,0-.68,0h-2.06v.1c.16,0,.29,.03,.4,.07,.1,.04,.19,.1,.27,.18,.09,.09,.15,.21,.18,.35,.03,.14,.05,.36,.05,.65v3.15c0,.29-.02,.51-.05,.65-.03,.14-.09,.26-.18,.35-.08,.08-.17,.14-.27,.18-.1,.04-.23,.06-.4,.07v.1h2.73v-.1c-.17,0-.3-.03-.4-.07-.1-.04-.19-.1-.27-.18-.09-.09-.15-.21-.18-.35-.03-.14-.05-.36-.05-.65v-1.51h.21Zm-2.75-3.01c-.03,.07-.05,.11-.07,.14-.05,.06-.1,.09-.18,.09-.05,0-.11-.01-.18-.04l-.35-.11c-.39-.13-.75-.2-1.1-.2-.36,0-.73,.06-1.08,.18-.36,.12-.67,.28-.93,.49-.34,.27-.6,.62-.79,1.06-.19,.44-.28,.92-.28,1.45,0,.68,.16,1.27,.48,1.76,.32,.49,.77,.83,1.35,1.02,.36,.12,.73,.18,1.13,.18,.42,0,.79-.07,1.12-.2,.32-.13,.57-.33,.76-.58,.19-.27,.31-.62,.37-1.07l-.1-.02c-.07,.4-.19,.72-.36,.96-.14,.21-.34,.37-.6,.48-.26,.11-.55,.17-.88,.17-.65,0-1.17-.23-1.57-.68-.21-.24-.38-.54-.49-.9-.11-.36-.17-.76-.17-1.21,0-.53,.08-1,.24-1.41,.11-.29,.26-.56,.44-.78,.18-.23,.37-.41,.58-.53,.24-.14,.52-.21,.84-.21,.21,0,.41,.03,.58,.1,.17,.07,.34,.18,.5,.33,.21,.2,.37,.42,.48,.66,.06,.13,.14,.34,.24,.61,.02,.04,.04,.1,.07,.19h.1l-.05-1.91h-.1Z"/><path class="f" d="M188.58,54.33h.19v-4.5c0-.29,.02-.5,.05-.64,.03-.14,.09-.26,.18-.35,.16-.17,.38-.25,.67-.25v-.1h-1.97v.1c.16,0,.29,.03,.39,.07,.1,.04,.19,.1,.27,.18,.09,.09,.15,.21,.18,.35,.03,.14,.05,.36,.05,.65v3.09l-3.48-4.43h-1.65v.1c.17,0,.3,.03,.4,.07,.1,.04,.19,.1,.27,.18,.09,.09,.15,.21,.18,.35,.03,.14,.05,.36,.05,.64v3.16c0,.29-.02,.51-.05,.65-.03,.14-.09,.26-.18,.35-.08,.08-.17,.14-.27,.18-.1,.04-.23,.06-.39,.07v.1h1.97v-.1c-.16,0-.3-.03-.4-.07-.1-.04-.19-.1-.27-.18-.09-.09-.15-.21-.18-.35-.03-.14-.05-.36-.05-.65v-3.72l4.03,5.07Zm-10.79-4.14c.12-.41,.3-.76,.52-1.04,.19-.24,.39-.41,.61-.51,.22-.11,.48-.16,.79-.16s.57,.05,.79,.16c.22,.11,.43,.28,.61,.51,.23,.29,.4,.63,.52,1.04,.12,.41,.19,.84,.19,1.3,0,.84-.23,1.54-.68,2.11-.21,.26-.42,.44-.65,.56-.23,.11-.49,.17-.79,.17s-.56-.06-.79-.17c-.23-.12-.44-.3-.64-.56-.45-.57-.67-1.27-.67-2.09,0-.47,.06-.91,.18-1.32Zm-1.03,2.31c.13,.34,.31,.64,.55,.91,.3,.34,.66,.6,1.07,.79,.41,.19,.85,.28,1.3,.28s.9-.1,1.32-.29c.42-.19,.78-.46,1.09-.81,.25-.28,.44-.59,.57-.93,.13-.34,.2-.69,.2-1.06,0-.73-.25-1.38-.75-1.95-.31-.35-.67-.62-1.08-.82-.41-.19-.84-.29-1.28-.29-.35,0-.69,.06-1.03,.18-.34,.12-.66,.29-.95,.52-.39,.3-.69,.66-.9,1.07-.2,.41-.31,.85-.31,1.33,0,.37,.06,.72,.19,1.06Zm-3.55-4.02v.1c.16,0,.3,.03,.4,.07,.1,.04,.19,.1,.27,.18,.09,.09,.15,.21,.18,.35,.03,.14,.05,.36,.05,.65v3.15c0,.29-.02,.51-.05,.65-.03,.14-.09,.26-.18,.35-.08,.08-.17,.14-.27,.18-.1,.04-.24,.06-.4,.07v.1h2.74v-.1c-.19-.01-.35-.05-.47-.1-.12-.06-.21-.14-.29-.26-.05-.08-.09-.19-.11-.33-.02-.14-.03-.32-.03-.56v-3.15c0-.2,0-.37,.03-.52,.03-.2,.09-.36,.2-.47,.08-.08,.17-.14,.27-.18,.1-.04,.23-.06,.4-.07v-.1h-2.74Zm-1.51,5.84h.19v-4.5c0-.29,.02-.5,.05-.64,.03-.14,.09-.26,.18-.35,.16-.17,.38-.25,.67-.25v-.1h-1.97v.1c.16,0,.29,.03,.4,.07,.1,.04,.19,.1,.27,.18,.09,.09,.15,.21,.18,.35,.03,.14,.05,.36,.05,.65v3.09l-3.47-4.43h-1.65v.1c.17,0,.3,.03,.4,.07,.1,.04,.19,.1,.27,.18,.09,.09,.15,.21,.18,.35,.03,.14,.05,.36,.05,.64v3.16c0,.29-.02,.51-.05,.65-.03,.14-.09,.26-.18,.35-.08,.08-.17,.14-.27,.18-.1,.04-.23,.06-.4,.07v.1h1.97v-.1c-.16,0-.29-.03-.39-.07-.1-.04-.19-.1-.27-.18-.09-.09-.15-.21-.18-.35-.03-.14-.05-.36-.05-.65v-3.72l4.03,5.07Zm-11.76-5.84v.1c.17,0,.3,.03,.4,.07,.1,.04,.19,.1,.27,.18,.09,.09,.15,.21,.18,.35,.03,.14,.05,.36,.05,.65v2.6c0,.33,0,.56,.03,.68,.05,.35,.2,.64,.44,.86,.38,.34,.98,.51,1.79,.51s1.37-.18,1.78-.54c.18-.16,.3-.33,.37-.52,.06-.19,.09-.48,.09-.88v-2.7c0-.29,.02-.51,.05-.65,.03-.14,.09-.26,.18-.35,.08-.08,.17-.14,.27-.18,.1-.04,.23-.06,.39-.07v-.1h-1.97v.1c.16,0,.29,.03,.4,.07,.1,.04,.19,.1,.27,.18,.09,.09,.15,.21,.18,.35,.03,.14,.05,.36,.05,.65v2.39c0,.44,0,.71-.02,.83-.02,.18-.05,.33-.11,.45-.05,.12-.13,.23-.25,.33-.18,.16-.4,.28-.67,.37-.27,.09-.55,.13-.85,.13s-.56-.05-.76-.15c-.2-.1-.37-.26-.51-.49-.09-.15-.15-.31-.18-.49-.03-.18-.04-.46-.04-.86v-2.42c0-.35,.01-.59,.04-.74,.03-.14,.09-.26,.19-.36,.08-.08,.17-.14,.27-.18,.1-.04,.24-.06,.4-.07v-.1h-2.73Zm-11.3,0v.1c.16,0,.29,.03,.4,.07,.1,.04,.19,.1,.27,.18,.09,.09,.15,.21,.18,.35,.03,.14,.05,.36,.05,.65v3.15c0,.29-.02,.51-.05,.65-.03,.14-.09,.26-.18,.35-.08,.08-.17,.14-.27,.18-.1,.04-.24,.06-.4,.07v.1h2.73v-.1c-.2-.01-.35-.05-.47-.1-.12-.06-.21-.14-.29-.26-.05-.08-.09-.19-.11-.33-.02-.14-.03-.32-.03-.56v-3.15c0-.2,0-.37,.03-.52,.03-.2,.09-.36,.21-.47,.08-.08,.17-.14,.27-.18,.1-.04,.23-.06,.4-.07v-.1h-2.73Zm-4.41,.13c.37,0,.68,.03,.92,.1,.44,.12,.82,.38,1.13,.75,.23,.27,.4,.59,.53,.96,.12,.37,.18,.75,.18,1.16,0,.37-.05,.71-.15,1.03-.1,.32-.25,.61-.44,.86-.2,.26-.42,.45-.67,.56-.25,.12-.55,.17-.9,.17-.41,0-.71-.11-.89-.33-.09-.1-.14-.23-.18-.37-.03-.15-.05-.36-.05-.64v-4.25h.52Zm-2.35,5.71h3.16c.37,0,.73-.03,1.08-.1,.47-.09,.87-.3,1.18-.62,.23-.23,.4-.52,.53-.87,.13-.35,.19-.72,.19-1.12,0-.54-.11-1.04-.33-1.49-.22-.46-.53-.83-.93-1.11-.42-.3-.93-.47-1.53-.51-.14-.01-.48-.02-1-.02h-2.35v.1c.27,.02,.48,.08,.62,.2,.11,.09,.19,.21,.22,.36,.04,.15,.06,.37,.06,.69v3.15c0,.29-.02,.51-.05,.65-.03,.14-.09,.26-.18,.35-.08,.08-.17,.14-.27,.18-.1,.04-.23,.06-.4,.07v.1Zm-5.46-5.84v.1c.17,0,.3,.03,.4,.07,.1,.04,.19,.1,.27,.18,.09,.09,.15,.21,.18,.35,.03,.14,.05,.36,.05,.65v3.15c0,.29-.02,.51-.05,.65-.03,.14-.09,.26-.18,.35-.08,.08-.17,.14-.27,.18-.1,.04-.23,.06-.4,.07v.1h5.11l.06-1.7h-.1c-.05,.25-.11,.46-.18,.62-.06,.16-.15,.3-.25,.42-.14,.18-.33,.32-.56,.4-.23,.09-.52,.13-.86,.13s-.59-.05-.79-.14c-.2-.1-.35-.25-.44-.45-.06-.12-.1-.27-.12-.45-.02-.18-.03-.46-.03-.85v-.98h.24c.21,0,.38,.02,.52,.06,.14,.04,.25,.11,.33,.2,.09,.09,.16,.21,.21,.34,.05,.13,.09,.31,.11,.53h.1l.02-2.29h-.1c-.02,.21-.06,.38-.1,.49-.04,.11-.1,.21-.18,.29-.08,.09-.19,.15-.32,.18-.13,.03-.33,.05-.59,.05h-.26v-2.57h.98c.3,0,.54,.02,.73,.06,.18,.04,.34,.11,.48,.21,.16,.12,.29,.26,.37,.41,.08,.16,.15,.36,.18,.6h.1l-.07-1.42h-4.6Zm-3.84,.13h.18c.31,0,.54,.02,.71,.06,.17,.04,.31,.11,.43,.2,.15,.13,.27,.29,.36,.49,.09,.2,.13,.41,.13,.64,0,.42-.15,.78-.45,1.06-.13,.13-.28,.21-.43,.25-.15,.04-.41,.06-.76,.06h-.16v-2.76Zm.21,2.85c.13,0,.24,.01,.33,.04,.09,.02,.17,.06,.25,.12,.15,.12,.32,.33,.5,.64,.18,.31,.36,.67,.54,1.08l.3,.68s.07,.14,.14,.3h1.42v-.1c-.12-.01-.21-.03-.28-.07-.07-.03-.14-.09-.21-.18-.09-.11-.2-.28-.33-.52-.13-.24-.32-.62-.57-1.14-.11-.23-.19-.39-.24-.48-.05-.09-.11-.16-.18-.22-.08-.08-.21-.15-.38-.22,.21-.04,.38-.09,.5-.15,.12-.05,.24-.12,.34-.2,.34-.27,.5-.62,.5-1.07,0-.3-.08-.56-.23-.79-.16-.23-.38-.4-.66-.51-.25-.1-.6-.16-1.04-.18-.11,0-.34,0-.68,0h-2.06v.1c.16,0,.29,.03,.4,.07,.1,.04,.19,.1,.27,.18,.09,.09,.15,.21,.18,.35,.03,.14,.05,.36,.05,.65v3.15c0,.29-.02,.51-.05,.65-.03,.14-.09,.26-.18,.35-.08,.08-.17,.14-.27,.18-.1,.04-.23,.06-.4,.07v.1h2.73v-.1c-.17,0-.3-.03-.4-.07-.1-.04-.19-.1-.27-.18-.09-.09-.15-.21-.18-.35-.03-.14-.05-.36-.05-.65v-1.51h.21Zm-2.75-3.01c-.03,.07-.05,.11-.07,.14-.05,.06-.1,.09-.18,.09-.05,0-.11-.01-.18-.04l-.35-.11c-.39-.13-.75-.2-1.1-.2-.36,0-.73,.06-1.08,.18-.36,.12-.67,.28-.93,.49-.34,.27-.6,.62-.79,1.06-.19,.44-.28,.92-.28,1.45,0,.68,.16,1.27,.48,1.76,.32,.49,.77,.83,1.35,1.02,.36,.12,.73,.18,1.13,.18,.42,0,.79-.07,1.12-.2,.32-.13,.57-.33,.76-.58,.19-.27,.31-.62,.37-1.07l-.1-.02c-.07,.4-.19,.72-.36,.96-.14,.21-.34,.37-.6,.48-.26,.11-.55,.17-.88,.17-.65,0-1.17-.23-1.57-.68-.21-.24-.38-.54-.49-.9-.11-.36-.17-.76-.17-1.21,0-.53,.08-1,.24-1.41,.11-.29,.26-.56,.44-.78,.18-.23,.37-.41,.58-.53,.24-.14,.52-.21,.84-.21,.21,0,.41,.03,.58,.1,.17,.07,.34,.18,.5,.33,.21,.2,.37,.42,.48,.66,.06,.13,.14,.34,.24,.61,.02,.04,.04,.1,.07,.19h.1l-.05-1.91h-.1Z"/><path class="j" d="M187.44,41.22c-.81,2.08-2.05,3.35-2.86,3.35-.36,0-.75-.26-.75-1.01,0-.65,.42-1.99,.59-2.51l5.44-17.9h-.36c-.94,.36-2.02,.59-3.91,.59l-.2,.65h.59c.78,0,1.3,0,1.3,.72,0,.46-.45,1.89-.55,2.18l-4.2,13.64c-.1,.33-.46,1.69-.46,2.51,0,1.07,.65,2.05,1.92,2.05,2.12,0,3.52-2.6,4.17-4.26h-.72Zm-17.68,1.24c0-2.77,3.25-10.06,6.12-10.06,.81,0,1.33,.62,1.33,1.6s-.85,4.26-2.18,6.9c-1.14,2.25-2.96,3.68-3.97,3.68-1.27,0-1.3-1.33-1.3-2.12m8.33-10.64l-.39,1.43c-.23-1.17-1.01-1.69-1.95-1.69-2.86,0-7.88,5.34-7.88,10.42,0,2.41,1.43,3.52,2.7,3.52,1.95,0,4.04-2.6,4.69-3.84-.26,.81-.39,1.6-.39,1.92,0,.75,.33,1.92,1.56,1.92s2.9-1.63,3.91-3.78h-.68c-.62,1.14-1.66,2.51-2.51,2.51-.46,0-.59-.36-.59-.65,0-.42,.42-1.82,.62-2.44l2.83-9.31h-1.92Zm-18.82,4.04c.49-1.17,1.56-3.19,2.44-3.19,.55,0,.49,.85,.49,.94,0,.91-.59,2.73-1.11,4.49l-2.15,7.16h1.89l.52-1.63c.91-2.86,3.74-10.51,4.95-10.51,.23,0,.32,.16,.52,.36,.19,.19,.36,.36,.72,.36,.49,0,.94-.42,.94-1.07s-.49-1.2-1.24-1.2c-1.89,0-3.42,4.17-4.39,6.38,.23-.98,.75-2.8,.75-4.17,0-1.6-.62-2.21-1.33-2.21-1.69,0-3.06,2.7-3.68,4.3h.68Zm-7.97,3.22c1.3-4.75,3.35-6.67,4.33-6.67,.39,0,1.01,.2,1.01,1.2,0,1.95-3.19,4.53-5.34,5.47m4.72,1.89c-.94,2.08-2.28,3.61-3.81,3.61-.16,0-1.63,0-1.63-2.05,0-.78,.26-1.99,.49-2.64,3.48-1.46,6.87-3.61,6.87-6.32,0-.55-.2-2.02-1.82-2.02-2.86,0-7.42,5.44-7.42,10.51,0,2.54,1.63,3.42,2.93,3.42,2.15,0,4.04-1.92,5.18-4.52h-.78Zm-18.98,1.86c0-2.83,3.09-10.42,5.99-10.42,.85,0,1.43,.72,1.43,1.5,0,.55-.78,3.48-1.56,5.4-1.3,3.19-3.22,5.34-4.62,5.34-1.24,0-1.24-1.53-1.24-1.82m9.6-.68c-.65,1.11-1.73,2.21-2.31,2.21-.52,0-.59-.52-.59-.78,0-.46,.16-1.14,.42-2.05l5.6-18.36-.29-.03c-.88,.33-2.31,.62-3.81,.62l-.2,.65c1.3,0,1.73,0,1.73,.72,0,.13-.2,.78-.36,1.37l-1.92,6.41c-.39-.78-1.14-1.33-2.02-1.33-3.29,0-7.68,5.53-7.68,10.51,0,1.5,.65,3.42,2.61,3.42,1.82,0,3.45-2.08,4.13-2.83-.23,2.05,.49,2.83,1.66,2.83,1.3,0,2.86-1.69,3.81-3.35h-.78Zm-18.75-3.06c1.3-4.75,3.35-6.67,4.33-6.67,.39,0,1.01,.2,1.01,1.2,0,1.95-3.19,4.53-5.34,5.47m4.72,1.89c-.94,2.08-2.28,3.61-3.81,3.61-.16,0-1.63,0-1.63-2.05,0-.78,.26-1.99,.49-2.64,3.48-1.46,6.87-3.61,6.87-6.32,0-.55-.19-2.02-1.82-2.02-2.87,0-7.42,5.44-7.42,10.51,0,2.54,1.63,3.42,2.93,3.42,2.15,0,4.04-1.92,5.18-4.52h-.78Zm-6.31-9.55h-2.89l.82-3.03c.44-1.7,1.57-5.42,4.09-5.42,.58,0,.89,.31,1.29,.82,.41,.51,.68,1.16,1.43,1.16,.68,0,.82-.65,.82-.89,0-.92-1.16-1.91-2.96-1.91-4.97,0-6.64,5.58-7.53,9.26h-3.27l-.24,.75h3.27l-2.52,9.43c-2.01,7.49-3.58,10.66-6.47,10.66-1.12,0-1.36-.58-1.36-.82,0-.27,.1-.51,.1-.72,0-.61-.44-1.23-1.23-1.23-.58,0-1.16,.44-1.16,1.23,0,1.53,2.18,2.28,3.68,2.28,5.45,0,7.46-7.49,8.41-11.13l2.59-9.71h2.89l.24-.75Z"/><path class="e" d="M191.17,43.58c0-.15-.05-.25-.14-.3-.09-.05-.2-.07-.31-.07h-.47v.78h.36c.17,0,.31-.03,.41-.09,.1-.06,.15-.17,.15-.32m.04,1.36l-.55-.82h-.41v.82h-.16v-1.87h.63c.19,0,.34,.04,.45,.13,.11,.09,.16,.22,.16,.39,0,.16-.05,.29-.16,.37-.1,.08-.22,.13-.34,.14l.57,.84h-.19Zm-2.09-.92c0,.21,.04,.41,.12,.59,.08,.19,.19,.35,.33,.49,.14,.14,.3,.25,.49,.33,.18,.08,.38,.12,.6,.12s.41-.04,.59-.12c.19-.08,.35-.19,.49-.33,.14-.14,.25-.3,.33-.49,.08-.19,.12-.38,.12-.59s-.04-.41-.12-.59c-.08-.19-.19-.35-.33-.49-.14-.14-.3-.25-.49-.33-.19-.08-.38-.12-.59-.12s-.41,.04-.6,.12c-.19,.08-.35,.19-.49,.33-.14,.14-.25,.3-.33,.49-.08,.19-.12,.38-.12,.59m-.16,0c0-.23,.05-.45,.13-.66,.09-.21,.21-.38,.37-.54,.15-.15,.34-.27,.55-.36,.21-.09,.43-.13,.66-.13s.45,.04,.66,.13c.21,.09,.39,.21,.54,.36,.15,.15,.27,.33,.36,.54s.13,.43,.13,.66-.04,.45-.13,.65c-.09,.2-.21,.38-.36,.53-.15,.15-.33,.27-.54,.36-.21,.09-.43,.13-.66,.13s-.45-.04-.66-.13c-.21-.09-.39-.21-.55-.36-.16-.15-.28-.33-.37-.53-.09-.2-.13-.42-.13-.65"/><path class="f" d="M191.17,43.58c0-.15-.05-.25-.14-.3-.09-.05-.2-.07-.31-.07h-.47v.78h.36c.17,0,.31-.03,.41-.09,.1-.06,.15-.17,.15-.32Zm.04,1.36l-.55-.82h-.41v.82h-.16v-1.87h.63c.19,0,.34,.04,.45,.13,.11,.09,.16,.22,.16,.39,0,.16-.05,.29-.16,.37-.1,.08-.22,.13-.34,.14l.57,.84h-.19Zm-2.09-.92c0,.21,.04,.41,.12,.59,.08,.19,.19,.35,.33,.49,.14,.14,.3,.25,.49,.33,.18,.08,.38,.12,.6,.12s.41-.04,.59-.12c.19-.08,.35-.19,.49-.33,.14-.14,.25-.3,.33-.49,.08-.19,.12-.38,.12-.59s-.04-.41-.12-.59c-.08-.19-.19-.35-.33-.49-.14-.14-.3-.25-.49-.33-.19-.08-.38-.12-.59-.12s-.41,.04-.6,.12c-.19,.08-.35,.19-.49,.33-.14,.14-.25,.3-.33,.49-.08,.19-.12,.38-.12,.59Zm-.16,0c0-.23,.05-.45,.13-.66,.09-.21,.21-.38,.37-.54,.15-.15,.34-.27,.55-.36,.21-.09,.43-.13,.66-.13s.45,.04,.66,.13c.21,.09,.39,.21,.54,.36,.15,.15,.27,.33,.36,.54s.13,.43,.13,.66-.04,.45-.13,.65c-.09,.2-.21,.38-.36,.53-.15,.15-.33,.27-.54,.36-.21,.09-.43,.13-.66,.13s-.45-.04-.66-.13c-.21-.09-.39-.21-.55-.36-.16-.15-.28-.33-.37-.53-.09-.2-.13-.42-.13-.65Z"/><path class="e" d="M154.32,52.98c0,.29-.02,.51-.05,.65-.03,.14-.09,.26-.18,.35-.08,.08-.17,.14-.27,.18-.1,.04-.24,.06-.4,.07v.1h2.73v-.1c-.16,0-.29-.03-.4-.07-.1-.04-.19-.1-.27-.18-.09-.09-.15-.21-.18-.35-.03-.14-.05-.36-.05-.65v-4.37c.63,0,1.08,.04,1.35,.12,.31,.09,.55,.23,.72,.44,.17,.2,.29,.51,.36,.9h.1l-.08-1.59h-5.79l-.08,1.58h.1c.07-.33,.17-.6,.3-.8,.14-.22,.32-.37,.53-.46,.21-.09,.54-.14,.98-.17,.21-.01,.4-.02,.58-.02v4.37Z"/><path class="f" d="M154.32,52.98c0,.29-.02,.51-.05,.65-.03,.14-.09,.26-.18,.35-.08,.08-.17,.14-.27,.18-.1,.04-.24,.06-.4,.07v.1h2.73v-.1c-.16,0-.29-.03-.4-.07-.1-.04-.19-.1-.27-.18-.09-.09-.15-.21-.18-.35-.03-.14-.05-.36-.05-.65v-4.37c.63,0,1.08,.04,1.35,.12,.31,.09,.55,.23,.72,.44,.17,.2,.29,.51,.36,.9h.1l-.08-1.59h-5.79l-.08,1.58h.1c.07-.33,.17-.6,.3-.8,.14-.22,.32-.37,.53-.46,.21-.09,.54-.14,.98-.17,.21-.01,.4-.02,.58-.02v4.37Z"/></g><g><path class="g" d="M27.63,52.28c-9.17,0-16.62-4.97-16.62-11.08s7.45-11.08,16.62-11.08,16.62,4.97,16.62,11.08-7.45,11.08-16.62,11.08Zm0-20.15c-8.02,0-14.61,4.1-14.61,9.07s6.59,9.07,14.61,9.07,14.61-4.1,14.61-9.07-6.49-9.07-14.61-9.07Z"/><path class="j" d="M20.95,50.76c-2.77,0-5.25-.95-7.07-2.67-2.3-2.3-3.25-5.54-2.67-9.35,.57-3.63,2.48-7.35,5.44-10.31,3.63-3.73,8.31-5.92,12.6-5.92,2.77,0,5.25,.95,7.07,2.67,2.3,2.3,3.25,5.54,2.67,9.35-.57,3.63-2.48,7.35-5.44,10.31-3.63,3.73-8.31,5.92-12.6,5.92Zm8.31-26.27c-3.73,0-7.92,2-11.17,5.25-2.67,2.77-4.39,6.01-4.87,9.26-.48,3.15,.28,5.83,2.1,7.64,1.43,1.34,3.34,2.1,5.64,2.1,3.73,0,7.92-2,11.17-5.25,2.67-2.77,4.39-6.01,4.87-9.26,.48-3.15-.28-5.83-2.1-7.64-1.43-1.34-3.34-2.1-5.64-2.1Z"/><path class="h" d="M20.09,51.14c-.39,0-.76,0-1.24-.09-6.21-.95-10.13-9.55-8.59-19.2,1.43-8.88,6.97-15.57,12.89-15.57,.39,0,.76,0,1.24,.09,3.15,.48,5.73,2.77,7.26,6.49,1.52,3.53,2,8.02,1.24,12.6-1.34,8.98-6.88,15.66-12.8,15.66h0Zm3.06-32.84c-4.87,0-9.65,6.11-10.89,13.95-1.34,8.5,1.72,16.05,6.88,16.9s10.5-5.64,11.84-13.95c.67-4.2,.28-8.31-1.15-11.56-1.34-3.06-3.34-4.97-5.83-5.35h-.86Z"/></g></svg>