<?xml version="1.0" encoding="UTF-8"?><svg id="a" xmlns="http://www.w3.org/2000/svg" viewBox="0 0 780 250"><defs><style>.b{fill:#00275b;}.c{fill:#fff;}.d{fill:#bd2036;}.e{fill:#0c234b;}.f{fill:#ab0520;}</style></defs><rect class="e" width="780" height="250"/><g><rect class="f" x="392.8" y="56.71" width="2.57" height="136.2"/><path class="f" d="M394.87,57.21V192.41h-1.57V57.21h1.57m1-1h-3.57V193.41h3.57V56.21h0Z"/></g><g><g><path class="c" d="M499.01,97.31c-.65,1.36-1.55,2.5-2.69,3.42s-2.47,1.61-4,2.06c-1.52,.46-3.16,.69-4.9,.69h-5.19v9.32h-6.84v-31.07h12.7c1.86,0,3.53,.26,4.99,.78s2.71,1.25,3.73,2.2c1.02,.95,1.8,2.08,2.35,3.4,.55,1.32,.82,2.77,.82,4.37v.09c0,1.8-.32,3.38-.97,4.74h0Zm-5.95-4.7c0-1.54-.5-2.71-1.49-3.51s-2.35-1.2-4.06-1.2h-5.28v9.5h5.42c1.72,0,3.05-.45,4-1.35s1.42-2.02,1.42-3.35v-.09h-.01Z"/><path class="c" d="M546.11,112.81l-6.66-9.94h-5.37v9.94h-6.84v-31.08h14.21c3.7,0,6.58,.9,8.64,2.71s3.08,4.32,3.08,7.55v.09c0,2.52-.61,4.57-1.84,6.15-1.23,1.58-2.83,2.75-4.82,3.48l7.59,11.1h-7.99Zm.13-20.47c0-1.48-.47-2.59-1.42-3.33s-2.26-1.11-3.95-1.11h-6.79v8.92h6.92c1.69,0,2.98-.4,3.88-1.2,.9-.8,1.35-1.86,1.35-3.2v-.08h.01Z"/><path class="c" d="M581.84,112.81v-31.08h6.84v31.07h-6.84Z"/><path class="c" d="M640.44,112.81l-15.05-19.75v19.75h-6.75v-31.08h6.3l14.56,19.13v-19.13h6.75v31.07h-5.81Z"/><path class="c" d="M689.98,88.04v24.77h-6.84v-24.77h-9.46v-6.3h25.75v6.3h-9.45Z"/></g><g><path class="c" d="M462.76,152.24c-.65,1.36-1.55,2.5-2.69,3.42s-2.47,1.61-3.99,2.06c-1.52,.46-3.16,.69-4.91,.69h-5.19v9.32h-6.84v-31.07h12.7c1.86,0,3.53,.26,4.99,.78s2.71,1.25,3.73,2.2c1.02,.95,1.81,2.08,2.35,3.4,.55,1.32,.82,2.78,.82,4.37v.09c0,1.8-.32,3.38-.97,4.74h0Zm-5.95-4.7c0-1.54-.5-2.71-1.49-3.51-.99-.8-2.35-1.2-4.06-1.2h-5.28v9.5h5.42c1.72,0,3.05-.45,4-1.35,.95-.9,1.42-2.02,1.42-3.35v-.09h-.01Z"/><path class="c" d="M521.4,158.44c-.83,1.94-1.97,3.64-3.44,5.11-1.47,1.46-3.21,2.62-5.24,3.46-2.03,.84-4.24,1.26-6.64,1.26s-4.6-.42-6.61-1.26c-2.01-.84-3.75-1.98-5.22-3.42-1.46-1.44-2.61-3.12-3.42-5.06-.81-1.94-1.22-4.02-1.22-6.24v-.09c0-2.22,.42-4.3,1.24-6.24,.83-1.94,1.97-3.64,3.44-5.1,1.46-1.46,3.21-2.62,5.24-3.46,2.03-.84,4.24-1.27,6.64-1.27s4.6,.42,6.61,1.27c2.01,.84,3.75,1.98,5.22,3.42s2.6,3.12,3.42,5.06c.81,1.94,1.22,4.02,1.22,6.24v.09c.01,2.21-.41,4.29-1.24,6.23h0Zm-5.9-6.24c0-1.33-.23-2.59-.69-3.77-.46-1.18-1.11-2.22-1.95-3.11s-1.84-1.59-3-2.11c-1.15-.52-2.41-.78-3.77-.78s-2.66,.25-3.79,.75c-1.14,.5-2.12,1.2-2.93,2.09s-1.45,1.92-1.91,3.09-.69,2.42-.69,3.75v.09c0,1.33,.23,2.59,.69,3.77,.46,1.18,1.11,2.22,1.95,3.11s1.83,1.59,2.97,2.11,2.4,.78,3.8,.78,2.62-.25,3.77-.75,2.14-1.2,2.95-2.09,1.45-1.92,1.91-3.09c.46-1.17,.69-2.42,.69-3.75v-.09h0Z"/><path class="c" d="M569.79,167.74l-6.66-9.94h-5.37v9.94h-6.84v-31.07h14.21c3.7,0,6.58,.9,8.63,2.71,2.06,1.81,3.09,4.32,3.09,7.55v.07c0,2.52-.61,4.57-1.84,6.15-1.23,1.58-2.83,2.75-4.82,3.48l7.59,11.1h-7.99Zm.14-20.45c0-1.48-.47-2.59-1.42-3.33s-2.26-1.11-3.95-1.11h-6.79v8.92h6.92c1.69,0,2.98-.4,3.89-1.2,.9-.8,1.35-1.86,1.35-3.2v-.08Z"/><path class="c" d="M619.29,142.96v24.77h-6.84v-24.77h-9.45v-6.3h25.75v6.3h-9.46Z"/><path class="c" d="M679.31,167.74l-2.84-6.97h-13.14l-2.84,6.97h-6.97l13.32-31.3h6.3l13.32,31.3h-7.15Zm-9.41-23.09l-4.13,10.08h8.26l-4.13-10.08Z"/><path class="c" d="M713.45,167.74v-31.07h6.84v24.9h15.49v6.17h-22.33Z"/></g></g><g><polygon class="c" points="50.87 88.51 50.86 112.32 53.33 112.31 43.62 138.09 35.43 138.08 35.43 161.89 114.93 161.89 114.93 138.04 106.68 138.03 97.06 112.33 99.47 112.35 99.47 88.51 50.87 88.51"/><path class="d" d="M75.16,97.41l17.03,44.15s2.18,5.37,5.73,5.37h-12.4s.62,.09,1.24-.94c.36-.59,.06-1.48,.06-1.48l-3.83-9.86h-15.61l-3.84,9.86s-.29,.89,.06,1.48c.62,1.03,1.24,.94,1.24,.94h-12.4c3.54,0,5.72-5.37,5.72-5.37l17-44.15Z"/><polygon class="b" points="75.18 97.35 90.53 97.35 90.53 103.49 84.15 103.49 100.92 146.71 105.88 146.71 105.88 153.07 85.1 153.07 85.1 146.88 79.27 146.88 79.27 159.02 112.07 159.02 112.07 140.93 104.7 140.94 92.89 109.46 96.6 109.46 96.6 91.38 75.18 91.38 53.76 91.38 53.76 109.46 57.47 109.46 45.66 140.9 38.29 140.93 38.29 159.02 71.1 159.02 71.1 146.88 65.26 146.88 65.26 153.07 44.47 153.07 44.47 146.71 49.43 146.71 66.2 103.49 59.83 103.49 59.83 97.35 75.18 97.35"/><path class="c" d="M121.55,153.76c.6,.59,.9,1.3,.9,2.16s-.3,1.56-.9,2.15c-.6,.59-1.33,.88-2.2,.88s-1.6-.29-2.2-.88c-.6-.59-.9-1.3-.9-2.15s.3-1.57,.9-2.16c.6-.59,1.33-.88,2.2-.88s1.6,.29,2.2,.88m-.44,.36c-.48-.49-1.07-.73-1.76-.73s-1.28,.24-1.76,.73c-.48,.49-.72,1.08-.72,1.79s.24,1.3,.72,1.79c.48,.49,1.06,.73,1.76,.73s1.28-.24,1.76-.73c.48-.49,.72-1.08,.72-1.79s-.24-1.3-.72-1.79m-3.1,.04h1.4c.38,0,.68,.08,.89,.25,.21,.17,.32,.4,.32,.7,0,.32-.11,.58-.32,.76-.16,.14-.37,.22-.62,.26l1.01,1.54h-.64l-.91-1.51h-.59v1.51h-.55v-3.51Zm.55,1.53h.75c.26,0,.45-.05,.57-.14s.18-.24,.18-.44c0-.17-.06-.3-.18-.38-.12-.08-.31-.12-.57-.12h-.75v1.08Z"/><polygon class="c" points="75.15 129.97 81.15 129.97 75.27 114.49 69.18 129.97 75.15 129.97"/><rect class="c" x="132.68" y="88.51" width="1.42" height="73.39"/><g><path class="c" d="M153.26,103.61h-2.9v-1.25h7.44v1.25h-3.04v9.27h-1.5v-9.27Z"/><path class="c" d="M159.64,102.36h1.5v4.44h5.15v-4.44h1.5v10.52h-1.5v-4.88h-5.15v4.88h-1.5v-10.52Z"/><path class="c" d="M170.92,102.36h5.76v1.25h-4.25v3.06h3.63v1.2h-3.63v3.76h4.25v1.25h-5.76v-10.52Z"/><path class="c" d="M183.31,109.23v-6.87h1.5v6.68c0,1.71,.78,2.72,2.46,2.72s2.5-1.01,2.5-2.72v-6.68h1.42v6.87c0,2.55-1.67,3.78-3.92,3.78s-3.97-1.23-3.97-3.78Z"/><path class="c" d="M194.28,102.36h1.57l4.24,6.79c.3,.47,.66,1.13,.89,1.65h.05c-.02-.47-.03-.93-.03-1.49v-6.96h1.37v10.52h-1.6l-4.24-6.77c-.32-.52-.62-1.1-.88-1.6h-.03c0,.45,.03,.86,.03,1.42v6.96h-1.37v-10.52Z"/><path class="c" d="M205.6,102.36h1.5v10.52h-1.5v-10.52Z"/><path class="c" d="M209.04,102.36h1.65l2.18,6.62c.25,.79,.57,1.91,.69,2.43h.03c.14-.52,.46-1.65,.73-2.43l2.25-6.62h1.52l-3.75,10.52h-1.62l-3.68-10.52Z"/><path class="c" d="M219.95,102.36h5.76v1.25h-4.25v3.06h3.63v1.2h-3.63v3.76h4.25v1.25h-5.76v-10.52Z"/><path class="c" d="M233.5,111.85l-2.36-3.61h-1.32v4.64h-1.5v-10.52h3.49c1.94,0,3.17,1.1,3.17,2.97,0,1.17-.73,2.35-2.33,2.75l2.11,3.12c.29,.44,.57,.56,.91,.56,.12,0,.24-.02,.37-.03v1.18c-.2,.05-.39,.07-.61,.07-.79,0-1.4-.29-1.94-1.13Zm-2.03-4.71c1.32,0,1.98-.71,1.98-1.79,0-1.2-.62-1.81-1.98-1.81h-1.65v3.6h1.65Z"/><path class="c" d="M237.49,112.47v-1.33c.64,.29,1.69,.64,2.63,.64,1.3,0,2.11-.54,2.11-1.69,0-1.22-.93-1.49-2.46-2.19-1.11-.51-2.21-1.15-2.21-2.9s1.37-2.77,3.33-2.77c1.05,0,2.06,.32,2.45,.46v1.32c-.51-.25-1.44-.54-2.38-.54-1.23,0-1.89,.56-1.89,1.52s.67,1.25,1.98,1.82c1.32,.57,2.79,1.22,2.79,3.22,0,1.82-1.4,2.99-3.44,2.99-1.17,0-2.19-.24-2.89-.54Z"/><path class="c" d="M246.35,102.36h1.5v10.52h-1.5v-10.52Z"/><path class="c" d="M252.66,103.61h-2.9v-1.25h7.44v1.25h-3.04v9.27h-1.5v-9.27Z"/><path class="c" d="M261.09,108.76l-3.41-6.38h1.64l2.62,5.03,2.55-5.03h1.57l-3.46,6.38v4.12h-1.5v-4.12Z"/><path class="c" d="M271.3,107.62c0-2.85,1.47-5.4,4.71-5.4s4.71,2.38,4.71,5.39-1.47,5.4-4.71,5.4-4.71-2.38-4.71-5.39Zm7.82-.02c0-2.45-.96-4.14-3.11-4.14s-3.09,1.7-3.09,4.15,.95,4.14,3.09,4.14,3.11-1.7,3.11-4.15Z"/><path class="c" d="M283.27,102.36h5.89v1.25h-4.39v3.09h3.95v1.18h-3.95v5h-1.5v-10.52Z"/><path class="c" d="M298.3,102.36h1.77l3.73,10.52h-1.64l-.88-2.62h-4.46l-.91,2.62h-1.52l3.9-10.52Zm2.58,6.67l-1.13-3.38c-.24-.73-.52-1.57-.62-2.04h-.03c-.14,.52-.46,1.47-.73,2.23l-1.11,3.19h3.63Z"/><path class="c" d="M310.94,111.85l-2.36-3.61h-1.32v4.64h-1.5v-10.52h3.49c1.94,0,3.17,1.1,3.17,2.97,0,1.17-.73,2.35-2.33,2.75l2.11,3.12c.29,.44,.57,.56,.91,.56,.12,0,.24-.02,.37-.03v1.18c-.2,.05-.39,.07-.61,.07-.79,0-1.4-.29-1.94-1.13Zm-2.03-4.71c1.32,0,1.98-.71,1.98-1.79,0-1.2-.62-1.81-1.98-1.81h-1.65v3.6h1.65Z"/><path class="c" d="M315.57,102.36h1.5v10.52h-1.5v-10.52Z"/><path class="c" d="M319.5,111.66l5.17-8.05h-4.96v-1.25h6.65v1.28l-5.1,7.99h5.23v1.25h-6.99v-1.22Z"/><path class="c" d="M327.94,107.62c0-2.85,1.47-5.4,4.71-5.4s4.71,2.38,4.71,5.39-1.47,5.4-4.71,5.4-4.71-2.38-4.71-5.39Zm7.82-.02c0-2.45-.96-4.14-3.11-4.14s-3.09,1.7-3.09,4.15,.95,4.14,3.09,4.14,3.11-1.7,3.11-4.15Z"/><path class="c" d="M339.94,102.36h1.57l4.24,6.79c.3,.47,.66,1.13,.89,1.65h.05c-.02-.47-.03-.93-.03-1.49v-6.96h1.37v10.52h-1.6l-4.24-6.77c-.32-.52-.62-1.1-.88-1.6h-.03c0,.45,.03,.86,.03,1.42v6.96h-1.37v-10.52Z"/><path class="c" d="M353.91,102.36h1.77l3.73,10.52h-1.64l-.88-2.62h-4.46l-.91,2.62h-1.52l3.9-10.52Zm2.58,6.67l-1.13-3.38c-.24-.73-.52-1.57-.62-2.04h-.03c-.14,.52-.46,1.47-.73,2.23l-1.11,3.19h3.63Z"/></g><g><path class="c" d="M157.01,136.29v6.92c0,1.02,.04,1.82,.12,2.39,.08,.57,.23,1.02,.45,1.34,.22,.32,.55,.59,1.01,.82h-6.76c.44-.23,.77-.51,1.01-.83,.23-.32,.39-.77,.47-1.33,.08-.57,.12-1.36,.12-2.38v-14.36c0-1.02-.04-1.82-.12-2.38-.08-.57-.24-1.01-.47-1.34-.23-.32-.57-.6-1.01-.83h11.85c.54,0,.99-.07,1.35-.21v4.12c-.56-.55-1.14-.92-1.74-1.1-.6-.19-1.46-.28-2.58-.28-.82,0-1.54,.02-2.16,.07-.62,.04-1.13,.1-1.55,.18v6.64h4.76c.47,0,.87-.08,1.2-.23v3.78c-.25-.36-.58-.62-.98-.76-.4-.14-1.01-.21-1.82-.21h-3.17Z"/><path class="c" d="M175.49,130.85c2.45,0,4.51,.76,6.17,2.29,.9,.81,1.59,1.77,2.06,2.86,.47,1.09,.71,2.23,.71,3.42,0,1.63-.41,3.11-1.24,4.46s-1.97,2.41-3.43,3.19c-1.46,.78-3.06,1.17-4.81,1.17s-3.26-.38-4.66-1.13c-1.4-.75-2.5-1.79-3.28-3.11-.79-1.32-1.18-2.78-1.18-4.39,0-1.32,.3-2.58,.89-3.78,.59-1.2,1.41-2.21,2.46-3.03,.58-.44,1.2-.8,1.85-1.1,.65-.29,1.34-.51,2.06-.65,.73-.14,1.53-.21,2.41-.21Zm-.58,2.39c-1.07,0-2.01,.25-2.84,.75-.82,.5-1.46,1.21-1.92,2.12-.46,.91-.68,1.94-.68,3.08,0,.9,.14,1.76,.43,2.59s.7,1.54,1.24,2.16c.54,.62,1.16,1.09,1.85,1.41,.7,.33,1.45,.49,2.25,.49,1.07,0,2.02-.25,2.87-.74,.85-.49,1.5-1.19,1.97-2.08,.47-.89,.7-1.92,.7-3.08,0-1.32-.24-2.48-.73-3.5-.49-1.01-1.18-1.8-2.06-2.36-.88-.56-1.91-.84-3.07-.84Z"/><path class="c" d="M199.08,147.77v-2.32c-.64,.79-1.18,1.37-1.64,1.74-.46,.37-.96,.64-1.5,.81-.54,.17-1.22,.26-2.02,.26-1.18,0-2.23-.22-3.16-.66-.93-.44-1.66-1.06-2.18-1.85-.67-1-1.01-2.51-1.01-4.52v-6.38c0-.87-.02-1.47-.07-1.8-.05-.33-.16-.61-.33-.84-.17-.23-.49-.52-.95-.87h2.42c1,0,1.71-.23,2.13-.68v9.93c0,.87,.07,1.57,.21,2.11,.14,.54,.37,1.02,.68,1.43,.76,.9,1.81,1.35,3.17,1.35,1.25,0,2.25-.39,3-1.16,.75-.78,1.12-1.81,1.12-3.09v-6.38c0-.76-.03-1.33-.08-1.72-.05-.39-.17-.7-.34-.93-.17-.23-.48-.52-.93-.86h2.51c.95,0,1.63-.23,2.04-.68v13.6c0,.8,.03,1.38,.08,1.75,.05,.36,.17,.66,.34,.88s.48,.52,.93,.88h-4.42Z"/><path class="c" d="M210.12,130.65v2.97c.88-1.02,1.71-1.74,2.51-2.15,.79-.41,1.71-.62,2.77-.62,.73,0,1.45,.1,2.18,.31,.73,.21,1.38,.51,1.94,.9,.56,.39,1.01,.83,1.35,1.33,.32,.51,.54,1.1,.66,1.77,.12,.68,.18,1.69,.18,3.04v6.05c0,1.13,.07,1.88,.21,2.23,.14,.36,.52,.78,1.15,1.28h-5.95c.46-.35,.78-.65,.96-.88,.18-.24,.29-.54,.35-.92,.06-.37,.08-.95,.08-1.71v-5.67c0-.95-.06-1.69-.18-2.25-.12-.56-.32-1-.59-1.33-.34-.45-.84-.82-1.49-1.1-.65-.28-1.35-.42-2.09-.42s-1.37,.14-1.96,.41c-.59,.27-1.07,.65-1.42,1.14-.32,.45-.48,1.13-.48,2.03v7.19c0,.8,.03,1.38,.08,1.75,.05,.36,.17,.66,.34,.88s.48,.52,.93,.88h-5.9c.46-.35,.78-.64,.95-.87,.17-.23,.28-.51,.33-.85,.05-.33,.07-.93,.07-1.79v-9.41c0-.87-.02-1.47-.07-1.8-.05-.33-.16-.61-.33-.84-.17-.23-.49-.52-.95-.87h2.29c.98,0,1.68-.23,2.09-.68Z"/><path class="c" d="M238.78,132.94v-5.13c0-.76-.03-1.33-.08-1.72-.05-.39-.17-.7-.34-.93-.17-.23-.48-.52-.93-.86h2.46c.98,0,1.68-.23,2.09-.68v20.63c0,1.13,.07,1.88,.21,2.23,.14,.36,.52,.78,1.15,1.28h-4.55v-8.11c0-1.38-.06-2.34-.18-2.88-.12-.53-.4-1.08-.84-1.64-.46-.63-1.05-1.11-1.76-1.45-.71-.34-1.47-.51-2.28-.51-1.01,0-1.92,.25-2.71,.75-.8,.5-1.42,1.19-1.86,2.09s-.67,1.88-.67,2.98c0,1.26,.27,2.42,.81,3.46s1.27,1.86,2.21,2.44,1.99,.87,3.17,.87c.59,0,1.12-.07,1.57-.21,.45-.14,.97-.39,1.57-.77l-2.06,3.2c-.57,.16-1.17,.25-1.78,.25-1.1,0-2.09-.12-2.96-.35-.87-.23-1.68-.59-2.42-1.07-1.21-.84-2.14-1.87-2.78-3.11-.64-1.24-.96-2.61-.96-4.13,0-1.22,.21-2.36,.63-3.42,.42-1.06,1.01-1.99,1.78-2.8s1.66-1.42,2.67-1.86c1.01-.44,2.1-.66,3.26-.66,1.1,0,2.08,.16,2.95,.49,.87,.33,1.75,.86,2.65,1.61Z"/><path class="c" d="M255.59,143.45v-4.6c-.41,.2-.76,.35-1.06,.45-.3,.1-.64,.21-1.01,.3-.37,.1-1.2,.3-2.48,.59-1.71,.42-2.57,1.33-2.57,2.74,0,.9,.33,1.61,1,2.13,.66,.52,1.59,.77,2.78,.77,.77,0,1.66-.15,2.67-.46l-2.09,2.65c-.62,.14-1.27,.21-1.96,.21-1.78,0-3.19-.46-4.22-1.38-1.21-1.09-1.81-2.41-1.81-3.96,0-.74,.18-1.44,.54-2.1,.36-.66,.85-1.16,1.45-1.48,.89-.49,2.45-.96,4.68-1.38,1.62-.32,2.69-.64,3.22-.97,.53-.33,.8-.81,.8-1.45,0-.45-.14-.85-.43-1.19-.29-.35-.69-.61-1.21-.8-.52-.19-1.11-.28-1.77-.28-.74,0-1.44,.1-2.11,.29s-1.59,.57-2.75,1.13l2.36-3.58c.79-.15,1.62-.23,2.47-.23,3.01,0,5.02,.8,6.02,2.39,.31,.51,.5,1.01,.59,1.52,.08,.51,.12,1.42,.12,2.73v4.6c0,1.01,.05,1.69,.15,2.04,.1,.35,.35,.67,.76,.97,.44,.35,1.15,.54,2.13,.58l-1.55,2.32c-.86-.07-1.52-.15-1.99-.26-.47-.1-.92-.29-1.35-.55-.54-.34-.9-.76-1.08-1.25-.18-.49-.27-1.32-.27-2.49Z"/><path class="c" d="M267.51,133.69v7.57c0,1,.04,1.73,.13,2.18s.26,.84,.51,1.15c.66,.81,1.57,1.22,2.74,1.22,.46,0,.96-.1,1.48-.3l-1.85,2.52c-.41,.14-.84,.21-1.29,.21-1.43,0-2.64-.52-3.64-1.57-.37-.4-.65-.78-.82-1.15-.18-.37-.3-.84-.36-1.41-.07-.57-.1-1.43-.1-2.57v-7.86h-2.44v-1.29c1.22-.21,2.2-.73,2.93-1.55,.88-.92,1.32-2.39,1.32-4.39v-.45h1.38v5.31h2.77c1.06,0,1.75-.07,2.09-.21v3.21c-.26-.24-.55-.41-.86-.5-.31-.09-.76-.14-1.37-.14h-2.64Z"/><path class="c" d="M278.65,130.65v13.6c0,.8,.03,1.38,.08,1.75,.05,.36,.17,.66,.34,.88,.17,.23,.48,.52,.93,.88h-5.9c.46-.35,.78-.64,.95-.87,.17-.23,.28-.51,.33-.85,.05-.33,.07-.93,.07-1.79v-9.41c0-.87-.02-1.47-.07-1.8-.05-.33-.16-.61-.33-.84-.17-.23-.49-.52-.95-.87h2.47c.97,0,1.66-.23,2.08-.68Zm-1.62-5.92c.6,0,1.12,.22,1.53,.65,.42,.43,.63,.95,.63,1.54,0,.63-.21,1.16-.63,1.59-.42,.43-.95,.65-1.59,.65s-1.13-.22-1.56-.65c-.42-.43-.63-.97-.63-1.59s.22-1.12,.66-1.55c.44-.43,.97-.64,1.6-.64Z"/><path class="c" d="M291.56,130.85c2.45,0,4.51,.76,6.17,2.29,.9,.81,1.59,1.77,2.06,2.86,.47,1.09,.71,2.23,.71,3.42,0,1.63-.41,3.11-1.24,4.46s-1.97,2.41-3.43,3.19c-1.46,.78-3.06,1.17-4.81,1.17s-3.26-.38-4.66-1.13c-1.4-.75-2.5-1.79-3.28-3.11-.79-1.32-1.18-2.78-1.18-4.39,0-1.32,.3-2.58,.89-3.78,.59-1.2,1.41-2.21,2.46-3.03,.58-.44,1.2-.8,1.85-1.1,.65-.29,1.34-.51,2.06-.65,.73-.14,1.53-.21,2.41-.21Zm-.58,2.39c-1.07,0-2.01,.25-2.84,.75-.82,.5-1.46,1.21-1.92,2.12-.46,.91-.68,1.94-.68,3.08,0,.9,.14,1.76,.43,2.59s.7,1.54,1.24,2.16c.54,.62,1.16,1.09,1.85,1.41,.7,.33,1.45,.49,2.25,.49,1.07,0,2.02-.25,2.87-.74,.85-.49,1.5-1.19,1.97-2.08,.47-.89,.7-1.92,.7-3.08,0-1.32-.24-2.48-.73-3.5-.49-1.01-1.18-1.8-2.06-2.36-.88-.56-1.91-.84-3.07-.84Z"/><path class="c" d="M306.84,130.65v2.97c.88-1.02,1.71-1.74,2.51-2.15,.79-.41,1.71-.62,2.77-.62,.73,0,1.45,.1,2.18,.31,.73,.21,1.38,.51,1.94,.9,.56,.39,1.01,.83,1.35,1.33,.32,.51,.54,1.1,.66,1.77,.12,.68,.18,1.69,.18,3.04v6.05c0,1.13,.07,1.88,.21,2.23,.14,.36,.52,.78,1.15,1.28h-5.95c.46-.35,.78-.65,.96-.88,.18-.24,.29-.54,.35-.92,.05-.37,.08-.95,.08-1.71v-5.67c0-.95-.06-1.69-.18-2.25-.12-.56-.32-1-.59-1.33-.34-.45-.84-.82-1.49-1.1-.65-.28-1.35-.42-2.09-.42s-1.37,.14-1.96,.41c-.59,.27-1.07,.65-1.42,1.14-.32,.45-.48,1.13-.48,2.03v7.19c0,.8,.03,1.38,.08,1.75,.05,.36,.17,.66,.34,.88,.17,.23,.48,.52,.93,.88h-5.9c.46-.35,.78-.64,.95-.87,.17-.23,.28-.51,.33-.85,.05-.33,.07-.93,.07-1.79v-9.41c0-.87-.02-1.47-.07-1.8-.05-.33-.16-.61-.33-.84-.17-.23-.49-.52-.95-.87h2.29c.98,0,1.68-.23,2.09-.68Z"/></g></g></svg>