<?xml version="1.0" encoding="UTF-8"?><svg id="a" xmlns="http://www.w3.org/2000/svg" viewBox="0 0 434.06 70.88"><defs><style>.c{fill:#00275b;}.d{fill:#fff;}.e{fill:#bd2036;}.f{fill:none;}.g{fill:#0c234b;}.h{fill:#ab0520;}</style></defs><g id="b"><polygon class="f" points="15.12 70.93 15.12 0 868.12 0 868.12 70.93 15.12 70.93"/></g><rect class="h" x="165.71" y="13.36" width=".51" height="44.06"/><g><path class="g" d="M187.78,35.33c-.16,.32-.37,.6-.65,.82s-.6,.38-.96,.5c-.37,.12-.76,.16-1.18,.16h-1.25v2.26h-1.66v-7.52h3.07c.45,0,.86,.06,1.2,.19,.36,.13,.66,.3,.9,.53s.44,.5,.57,.82,.2,.67,.2,1.05v.02c0,.45-.09,.83-.24,1.16h0Zm-1.44-1.13c0-.37-.12-.66-.36-.85-.24-.2-.57-.29-.98-.29h-1.27v2.29h1.31c.42,0,.74-.1,.96-.32s.35-.49,.35-.81v-.02h-.01Z"/><path class="g" d="M203.89,39.09l-1.61-2.41h-1.3v2.41h-1.66v-7.52h3.44c.89,0,1.59,.22,2.09,.66,.5,.44,.74,1.04,.74,1.83v.02c0,.61-.15,1.1-.44,1.48-.3,.38-.68,.66-1.17,.85l1.83,2.69h-1.92Zm.02-4.98c0-.36-.12-.63-.35-.8s-.54-.27-.95-.27h-1.64v2.15h1.68c.41,0,.72-.09,.94-.29s.32-.45,.32-.78v-.02h0Z"/><path class="g" d="M217.25,39.09v-7.52h1.66v7.52h-1.66Z"/><path class="g" d="M236.14,39.09l-3.64-4.77v4.77h-1.63v-7.52h1.53l3.52,4.62v-4.62h1.63v7.52h-1.41Z"/><path class="g" d="M252.85,33.1v5.99h-1.66v-5.99h-2.28v-1.53h6.23v1.53h-2.29Z"/><path class="g" d="M285.51,35.33c-.16,.32-.37,.6-.65,.82s-.6,.38-.96,.5-.76,.16-1.18,.16h-1.25v2.26h-1.66v-7.52h3.07c.45,0,.86,.06,1.2,.19,.36,.13,.66,.3,.9,.53s.44,.5,.57,.82,.2,.67,.2,1.05v.02c0,.45-.08,.83-.24,1.16h0Zm-1.44-1.13c0-.37-.12-.66-.36-.85-.24-.2-.57-.29-.98-.29h-1.27v2.29h1.31c.42,0,.74-.1,.96-.32,.23-.22,.35-.49,.35-.81v-.02h-.01Z"/><path class="g" d="M304.42,36.84c-.2,.46-.47,.88-.83,1.24s-.78,.64-1.26,.83c-.49,.21-1.02,.3-1.6,.3s-1.11-.1-1.6-.3c-.49-.21-.9-.47-1.26-.82s-.63-.75-.82-1.23-.29-.97-.29-1.51v-.02c0-.53,.1-1.04,.3-1.51,.2-.46,.47-.88,.83-1.24s.78-.64,1.26-.83c.49-.21,1.02-.3,1.61-.3s1.11,.1,1.6,.3c.49,.21,.9,.47,1.26,.82s.63,.75,.82,1.23c.2,.47,.29,.97,.29,1.51v.02c0,.53-.1,1.03-.31,1.51h0Zm-1.42-1.52c0-.32-.06-.63-.16-.92s-.27-.53-.47-.75c-.21-.22-.44-.38-.73-.51s-.58-.19-.92-.19-.64,.06-.92,.19c-.28,.13-.51,.29-.71,.51s-.35,.46-.46,.74-.16,.58-.16,.9v.02c0,.32,.06,.63,.16,.92s.27,.53,.47,.75c.21,.21,.44,.38,.72,.51,.28,.13,.58,.19,.92,.19s.64-.06,.92-.19c.28-.12,.52-.29,.72-.51s.35-.46,.46-.74,.16-.59,.16-.9v-.02h0Z"/><path class="g" d="M320.84,39.09l-1.61-2.41h-1.3v2.41h-1.66v-7.52h3.44c.89,0,1.59,.22,2.09,.66,.5,.44,.74,1.04,.74,1.83v.02c0,.61-.15,1.1-.44,1.48-.3,.38-.68,.66-1.16,.85l1.83,2.69h-1.93Zm.03-4.98c0-.36-.12-.63-.35-.8s-.54-.27-.96-.27h-1.64v2.15h1.68c.41,0,.72-.09,.94-.29s.32-.45,.32-.78v-.02h.01Z"/><path class="g" d="M337.54,33.1v5.99h-1.66v-5.99h-2.28v-1.53h6.23v1.53h-2.29Z"/><path class="g" d="M356.78,39.09l-.68-1.69h-3.17l-.68,1.69h-1.69l3.22-7.56h1.53l3.22,7.56h-1.75Zm-2.28-5.58l-1,2.43h1.99l-1-2.43h.01Z"/><path class="g" d="M369.75,39.09v-7.52h1.66v6.02h3.74v1.49h-5.4Z"/></g><g><polygon class="d" points="16.3 19.45 16.3 29.83 17.37 29.83 13.14 41.07 9.57 41.06 9.57 51.45 44.23 51.45 44.23 41.05 40.64 41.05 36.44 29.84 37.49 29.84 37.49 19.45 16.3 19.45"/><path class="e" d="M26.89,23.33l7.42,19.25s.95,2.34,2.5,2.34h-5.41s.27,.04,.54-.41c.16-.26,.02-.64,.02-.64l-1.67-4.3h-6.81l-1.67,4.3s-.13,.39,.03,.64c.27,.45,.54,.41,.54,.41h-5.41c1.54,0,2.5-2.34,2.5-2.34l7.41-19.25Z"/><polygon class="c" points="26.9 23.31 33.6 23.31 33.6 25.98 30.81 25.98 38.13 44.83 40.29 44.83 40.29 47.6 31.23 47.6 31.23 44.91 28.68 44.91 28.68 50.2 42.99 50.2 42.99 42.31 39.77 42.31 34.63 28.59 36.24 28.59 36.24 20.7 26.9 20.7 17.56 20.7 17.56 28.59 19.18 28.59 14.03 42.3 10.81 42.31 10.81 50.2 25.12 50.2 25.12 44.91 22.58 44.91 22.58 47.6 13.51 47.6 13.51 44.83 15.67 44.83 22.99 25.98 20.21 25.98 20.21 23.31 26.9 23.31"/><path class="c" d="M47.12,47.91c.26,.26,.39,.57,.39,.94s-.13,.68-.39,.94c-.26,.26-.58,.38-.96,.38s-.7-.13-.96-.38c-.26-.26-.39-.57-.39-.94s.13-.68,.39-.94c.26-.26,.58-.38,.96-.38s.7,.13,.96,.38m-.19,.16c-.21-.21-.46-.32-.77-.32s-.56,.11-.77,.32c-.21,.21-.31,.47-.31,.78s.1,.57,.31,.78c.21,.21,.46,.32,.77,.32s.56-.11,.77-.32c.21-.21,.31-.47,.31-.78s-.1-.57-.31-.78m-1.35,.02h.61c.17,0,.29,.04,.39,.11,.09,.07,.14,.18,.14,.3,0,.14-.05,.25-.14,.33-.07,.06-.16,.1-.27,.11l.44,.67h-.28l-.4-.66h-.26v.66h-.24v-1.53Zm.24,.67h.33c.11,0,.2-.02,.25-.06s.08-.1,.08-.19c0-.08-.03-.13-.08-.17-.05-.04-.13-.05-.25-.05h-.33v.47Z"/><polygon class="d" points="26.89 37.53 29.5 37.53 26.94 30.78 24.28 37.53 26.89 37.53"/><rect class="c" x="51.97" y="19.45" width=".62" height="32"/><g><path class="c" d="M60.95,26.03h-1.27v-.54h3.25v.54h-1.33v4.04h-.65v-4.04Z"/><path class="c" d="M63.73,25.49h.66v1.94h2.25v-1.94h.66v4.59h-.66v-2.13h-2.25v2.13h-.66v-4.59Z"/><path class="c" d="M68.65,25.49h2.51v.54h-1.85v1.33h1.58v.52h-1.58v1.64h1.85v.54h-2.51v-4.59Z"/><path class="c" d="M74.05,28.49v-3h.66v2.91c0,.74,.34,1.19,1.07,1.19s1.09-.44,1.09-1.19v-2.91h.62v3c0,1.11-.73,1.65-1.71,1.65s-1.73-.54-1.73-1.65Z"/><path class="c" d="M78.84,25.49h.68l1.85,2.96c.13,.21,.29,.49,.39,.72h.02c0-.21-.01-.4-.01-.65v-3.03h.6v4.59h-.7l-1.85-2.95c-.14-.23-.27-.48-.38-.7h-.01c0,.2,.01,.38,.01,.62v3.03h-.6v-4.59Z"/><path class="c" d="M83.77,25.49h.66v4.59h-.66v-4.59Z"/><path class="c" d="M85.27,25.49h.72l.95,2.89c.11,.35,.25,.83,.3,1.06h.01c.06-.23,.2-.72,.32-1.06l.98-2.89h.66l-1.63,4.59h-.71l-1.6-4.59Z"/><path class="c" d="M90.03,25.49h2.51v.54h-1.86v1.33h1.58v.52h-1.58v1.64h1.86v.54h-2.51v-4.59Z"/><path class="c" d="M95.94,29.63l-1.03-1.58h-.57v2.02h-.66v-4.59h1.52c.85,0,1.38,.48,1.38,1.3,0,.51-.32,1.02-1.02,1.2l.92,1.36c.13,.19,.25,.24,.4,.24,.05,0,.1,0,.16-.01v.52c-.09,.02-.17,.03-.26,.03-.35,0-.61-.13-.85-.49Zm-.88-2.05c.57,0,.86-.31,.86-.78,0-.52-.27-.79-.86-.79h-.72v1.57h.72Z"/><path class="c" d="M97.68,29.9v-.58c.28,.13,.74,.28,1.15,.28,.57,0,.92-.24,.92-.74,0-.53-.4-.65-1.07-.96-.49-.22-.96-.5-.96-1.27s.6-1.21,1.45-1.21c.46,0,.9,.14,1.07,.2v.57c-.22-.11-.63-.24-1.04-.24-.54,0-.82,.24-.82,.66s.29,.54,.86,.8c.57,.25,1.21,.53,1.21,1.41,0,.8-.61,1.3-1.5,1.3-.51,0-.96-.1-1.26-.24Z"/><path class="c" d="M101.54,25.49h.66v4.59h-.66v-4.59Z"/><path class="c" d="M104.29,26.03h-1.27v-.54h3.25v.54h-1.32v4.04h-.66v-4.04Z"/><path class="c" d="M107.97,28.28l-1.49-2.78h.71l1.14,2.19,1.11-2.19h.68l-1.51,2.78v1.8h-.66v-1.8Z"/><path class="c" d="M112.42,27.79c0-1.24,.64-2.36,2.05-2.36s2.05,1.04,2.05,2.35-.64,2.36-2.05,2.36-2.05-1.04-2.05-2.35Zm3.41,0c0-1.07-.42-1.8-1.35-1.8s-1.35,.74-1.35,1.81,.41,1.8,1.35,1.8,1.35-.74,1.35-1.81Z"/><path class="c" d="M117.64,25.49h2.57v.54h-1.91v1.35h1.72v.52h-1.72v2.18h-.66v-4.59Z"/><path class="c" d="M124.19,25.49h.77l1.63,4.59h-.71l-.38-1.14h-1.94l-.4,1.14h-.66l1.7-4.59Zm1.13,2.91l-.49-1.47c-.1-.32-.23-.68-.27-.89h-.01c-.06,.23-.2,.64-.32,.97l-.49,1.39h1.58Z"/><path class="c" d="M129.7,29.63l-1.03-1.58h-.57v2.02h-.66v-4.59h1.52c.85,0,1.38,.48,1.38,1.3,0,.51-.32,1.02-1.02,1.2l.92,1.36c.13,.19,.25,.24,.4,.24,.05,0,.1,0,.16-.01v.52c-.09,.02-.17,.03-.26,.03-.35,0-.61-.13-.85-.49Zm-.88-2.05c.57,0,.86-.31,.86-.78,0-.52-.27-.79-.86-.79h-.72v1.57h.72Z"/><path class="c" d="M131.72,25.49h.66v4.59h-.66v-4.59Z"/><path class="c" d="M133.44,29.55l2.25-3.51h-2.16v-.54h2.9v.56l-2.22,3.48h2.28v.54h-3.05v-.53Z"/><path class="c" d="M137.12,27.79c0-1.24,.64-2.36,2.05-2.36s2.05,1.04,2.05,2.35-.64,2.36-2.05,2.36-2.05-1.04-2.05-2.35Zm3.41,0c0-1.07-.42-1.8-1.35-1.8s-1.35,.74-1.35,1.81,.41,1.8,1.35,1.8,1.35-.74,1.35-1.81Z"/><path class="c" d="M142.35,25.49h.68l1.85,2.96c.13,.21,.29,.49,.39,.72h.02c0-.21-.01-.4-.01-.65v-3.03h.6v4.59h-.7l-1.85-2.95c-.14-.23-.27-.48-.38-.7h-.01c0,.2,.01,.38,.01,.62v3.03h-.6v-4.59Z"/><path class="c" d="M148.44,25.49h.77l1.63,4.59h-.71l-.38-1.14h-1.94l-.4,1.14h-.66l1.7-4.59Zm1.13,2.91l-.49-1.47c-.1-.32-.23-.68-.27-.89h-.01c-.06,.23-.2,.64-.32,.97l-.49,1.39h1.58Z"/></g><g><path class="c" d="M62.58,40.29v3.02c0,.45,.02,.79,.05,1.04,.04,.25,.1,.44,.2,.58,.1,.14,.24,.26,.44,.36h-2.95c.19-.1,.34-.22,.44-.36,.1-.14,.17-.34,.2-.58,.04-.25,.05-.59,.05-1.04v-6.26c0-.45-.02-.79-.05-1.04-.04-.25-.1-.44-.2-.58-.1-.14-.25-.26-.44-.36h5.17c.23,0,.43-.03,.59-.09v1.8c-.24-.24-.5-.4-.76-.48-.26-.08-.64-.12-1.13-.12-.36,0-.67,0-.94,.03-.27,.02-.49,.05-.68,.08v2.9h2.08c.21,0,.38-.03,.52-.1v1.65c-.11-.16-.25-.27-.43-.33-.17-.06-.44-.09-.79-.09h-1.38Z"/><path class="c" d="M70.64,37.91c1.07,0,1.97,.33,2.69,1,.39,.35,.69,.77,.9,1.25,.21,.48,.31,.97,.31,1.49,0,.71-.18,1.36-.54,1.94s-.86,1.05-1.5,1.39c-.64,.34-1.33,.51-2.1,.51s-1.42-.16-2.03-.49c-.61-.33-1.09-.78-1.43-1.36-.34-.58-.51-1.21-.51-1.91,0-.58,.13-1.13,.39-1.65,.26-.53,.62-.96,1.07-1.32,.25-.19,.52-.35,.81-.48,.28-.13,.58-.22,.9-.28,.32-.06,.67-.09,1.05-.09Zm-.25,1.04c-.46,0-.88,.11-1.24,.33-.36,.22-.64,.53-.84,.92-.2,.4-.3,.85-.3,1.34,0,.39,.06,.77,.19,1.13s.3,.67,.54,.94c.23,.27,.5,.47,.81,.61,.3,.14,.63,.21,.98,.21,.46,0,.88-.11,1.25-.32,.37-.22,.66-.52,.86-.91,.2-.39,.31-.84,.31-1.34,0-.58-.11-1.08-.32-1.52-.21-.44-.51-.78-.9-1.03-.39-.24-.83-.37-1.34-.37Z"/><path class="c" d="M80.93,45.29v-1.01c-.28,.35-.52,.6-.72,.76-.2,.16-.42,.28-.65,.35-.24,.07-.53,.11-.88,.11-.51,0-.97-.1-1.38-.29-.4-.19-.72-.46-.95-.81-.29-.44-.44-1.09-.44-1.97v-2.78c0-.38-.01-.64-.03-.78-.02-.14-.07-.27-.14-.37-.07-.1-.21-.23-.41-.38h1.06c.44,0,.75-.1,.93-.29v4.33c0,.38,.03,.69,.09,.92,.06,.23,.16,.44,.3,.63,.33,.39,.79,.59,1.38,.59,.55,0,.98-.17,1.31-.51,.33-.34,.49-.79,.49-1.35v-2.78c0-.33-.01-.58-.04-.75-.02-.17-.07-.31-.15-.41-.07-.1-.21-.23-.41-.37h1.09c.41,0,.71-.1,.89-.29v5.93c0,.35,.01,.6,.04,.76,.02,.16,.07,.29,.15,.38s.21,.23,.41,.38h-1.93Z"/><path class="c" d="M85.74,37.83v1.29c.38-.45,.75-.76,1.09-.94,.35-.18,.75-.27,1.21-.27,.32,0,.63,.05,.95,.14,.32,.09,.6,.22,.84,.39,.24,.17,.44,.36,.59,.58,.14,.22,.23,.48,.29,.77,.05,.3,.08,.74,.08,1.33v2.64c0,.49,.03,.82,.09,.97,.06,.16,.23,.34,.5,.56h-2.6c.2-.15,.34-.28,.42-.38,.08-.1,.13-.24,.15-.4,.02-.16,.04-.41,.04-.75v-2.47c0-.41-.03-.74-.08-.98-.05-.24-.14-.44-.26-.58-.15-.2-.37-.36-.65-.48-.29-.12-.59-.18-.91-.18s-.6,.06-.86,.18c-.26,.12-.46,.29-.62,.5-.14,.2-.21,.49-.21,.88v3.13c0,.35,.01,.6,.04,.76,.02,.16,.07,.29,.15,.38s.21,.23,.41,.38h-2.57c.2-.15,.34-.28,.41-.38,.07-.1,.12-.22,.14-.37,.02-.15,.03-.41,.03-.78v-4.11c0-.38-.01-.64-.03-.78-.02-.14-.07-.27-.14-.37-.07-.1-.21-.23-.41-.38h1c.43,0,.73-.1,.91-.29Z"/><path class="c" d="M98.24,38.83v-2.24c0-.33-.01-.58-.04-.75-.02-.17-.07-.31-.15-.41-.07-.1-.21-.23-.41-.37h1.07c.43,0,.73-.1,.91-.29v8.99c0,.49,.03,.82,.09,.97,.06,.16,.23,.34,.5,.56h-1.98v-3.54c0-.6-.03-1.02-.08-1.25-.05-.23-.17-.47-.37-.72-.2-.27-.46-.48-.77-.63-.31-.15-.64-.22-.99-.22-.44,0-.84,.11-1.18,.33-.35,.22-.62,.52-.81,.91s-.29,.82-.29,1.3c0,.55,.12,1.05,.35,1.51s.56,.81,.96,1.06,.87,.38,1.38,.38c.26,0,.49-.03,.68-.09,.2-.06,.42-.17,.68-.33l-.9,1.39c-.25,.07-.51,.11-.78,.11-.48,0-.91-.05-1.29-.15-.38-.1-.73-.26-1.05-.47-.53-.36-.93-.82-1.21-1.35-.28-.54-.42-1.14-.42-1.8,0-.53,.09-1.03,.27-1.49,.18-.46,.44-.87,.78-1.22s.72-.62,1.16-.81c.44-.19,.92-.29,1.42-.29,.48,0,.91,.07,1.29,.21,.38,.14,.76,.38,1.16,.7Z"/><path class="c" d="M105.57,43.41v-2.01c-.18,.09-.33,.15-.46,.2-.13,.05-.28,.09-.44,.13-.16,.04-.52,.13-1.08,.26-.75,.18-1.12,.58-1.12,1.19,0,.39,.14,.7,.43,.93,.29,.23,.69,.34,1.21,.34,.34,0,.72-.07,1.16-.2l-.91,1.16c-.27,.06-.55,.09-.86,.09-.78,0-1.39-.2-1.84-.6-.53-.47-.79-1.05-.79-1.73,0-.32,.08-.63,.24-.92,.16-.29,.37-.5,.63-.64,.39-.22,1.07-.42,2.04-.6,.7-.14,1.17-.28,1.41-.42,.23-.14,.35-.35,.35-.63,0-.2-.06-.37-.19-.52-.12-.15-.3-.27-.53-.35-.23-.08-.49-.12-.77-.12-.32,0-.63,.04-.92,.13s-.69,.25-1.2,.49l1.03-1.56c.35-.07,.7-.1,1.08-.1,1.31,0,2.19,.35,2.62,1.04,.13,.22,.22,.44,.26,.66,.04,.22,.05,.62,.05,1.19v2.01c0,.44,.02,.74,.06,.89,.04,.15,.15,.29,.33,.42,.19,.15,.5,.24,.93,.25l-.68,1.01c-.37-.03-.66-.07-.87-.11-.21-.05-.4-.13-.59-.24-.23-.15-.39-.33-.47-.55-.08-.22-.12-.58-.12-1.09Z"/><path class="c" d="M110.77,39.15v3.3c0,.44,.02,.75,.06,.95s.11,.36,.22,.5c.29,.35,.69,.53,1.19,.53,.2,0,.42-.04,.65-.13l-.81,1.1c-.18,.06-.36,.09-.56,.09-.62,0-1.15-.23-1.59-.68-.16-.17-.28-.34-.36-.5-.08-.16-.13-.37-.16-.61-.03-.25-.04-.62-.04-1.12v-3.43h-1.06v-.56c.53-.09,.96-.32,1.28-.68,.38-.4,.58-1.04,.58-1.91v-.19h.6v2.31h1.21c.46,0,.76-.03,.91-.09v1.4c-.12-.11-.24-.18-.37-.22-.13-.04-.33-.06-.6-.06h-1.15Z"/><path class="c" d="M115.63,37.83v5.93c0,.35,.01,.6,.04,.76,.02,.16,.07,.29,.15,.38,.07,.1,.21,.23,.41,.38h-2.57c.2-.15,.34-.28,.41-.38,.07-.1,.12-.22,.14-.37,.02-.15,.03-.41,.03-.78v-4.11c0-.38-.01-.64-.03-.78-.02-.14-.07-.27-.14-.37-.07-.1-.21-.23-.41-.38h1.08c.42,0,.72-.1,.91-.29Zm-.7-2.58c.26,0,.49,.09,.67,.28,.18,.19,.27,.41,.27,.67,0,.27-.09,.5-.28,.69-.18,.19-.42,.28-.69,.28s-.49-.09-.68-.28c-.18-.19-.28-.42-.28-.69s.1-.49,.29-.68c.19-.19,.42-.28,.7-.28Z"/><path class="c" d="M121.25,37.91c1.07,0,1.97,.33,2.69,1,.39,.35,.69,.77,.9,1.25,.21,.48,.31,.97,.31,1.49,0,.71-.18,1.36-.54,1.94s-.86,1.05-1.5,1.39c-.64,.34-1.33,.51-2.1,.51s-1.42-.16-2.03-.49c-.61-.33-1.09-.78-1.43-1.36-.34-.58-.51-1.21-.51-1.91,0-.58,.13-1.13,.39-1.65,.26-.53,.62-.96,1.07-1.32,.25-.19,.52-.35,.81-.48,.28-.13,.58-.22,.9-.28,.32-.06,.67-.09,1.05-.09Zm-.25,1.04c-.46,0-.88,.11-1.24,.33-.36,.22-.64,.53-.84,.92-.2,.4-.3,.85-.3,1.34,0,.39,.06,.77,.19,1.13s.3,.67,.54,.94c.23,.27,.5,.47,.81,.61,.3,.14,.63,.21,.98,.21,.46,0,.88-.11,1.25-.32,.37-.22,.66-.52,.86-.91,.2-.39,.31-.84,.31-1.34,0-.58-.11-1.08-.32-1.52-.21-.44-.51-.78-.9-1.03-.39-.24-.83-.37-1.34-.37Z"/><path class="c" d="M127.92,37.83v1.29c.38-.45,.75-.76,1.09-.94,.35-.18,.75-.27,1.21-.27,.32,0,.63,.05,.95,.14,.32,.09,.6,.22,.84,.39,.24,.17,.44,.36,.59,.58,.14,.22,.23,.48,.29,.77,.05,.3,.08,.74,.08,1.33v2.64c0,.49,.03,.82,.09,.97,.06,.16,.23,.34,.5,.56h-2.6c.2-.15,.34-.28,.42-.38,.08-.1,.13-.24,.15-.4,.02-.16,.04-.41,.04-.75v-2.47c0-.41-.03-.74-.08-.98-.05-.24-.14-.44-.26-.58-.15-.2-.37-.36-.65-.48-.29-.12-.59-.18-.91-.18s-.6,.06-.86,.18c-.26,.12-.46,.29-.62,.5-.14,.2-.21,.49-.21,.88v3.13c0,.35,.01,.6,.04,.76,.02,.16,.07,.29,.15,.38,.07,.1,.21,.23,.41,.38h-2.57c.2-.15,.34-.28,.41-.38,.07-.1,.12-.22,.14-.37,.02-.15,.03-.41,.03-.78v-4.11c0-.38-.01-.64-.03-.78-.02-.14-.07-.27-.14-.37-.07-.1-.21-.23-.41-.38h1c.43,0,.73-.1,.91-.29Z"/></g></g></svg>