<?xml version="1.0" encoding="UTF-8"?><svg id="a" xmlns="http://www.w3.org/2000/svg" xmlns:xlink="http://www.w3.org/1999/xlink" viewBox="0 0 868.12 70.88"><defs><style>.e{fill:url(#d);}.f{fill-rule:evenodd;}.f,.g{fill:#e51837;}</style><linearGradient id="d" x1="-1569.08" y1="-3156.26" x2="-1498.15" y2="-3156.26" gradientTransform="translate(-2722.2 1569.08) rotate(90)" gradientUnits="userSpaceOnUse"><stop offset="0" stop-color="#fff" stop-opacity="0"/><stop offset=".14" stop-color="#fff" stop-opacity="0"/><stop offset=".27" stop-color="#fff" stop-opacity=".06"/><stop offset=".39" stop-color="#fff" stop-opacity=".13"/><stop offset=".51" stop-color="#fff" stop-opacity=".23"/><stop offset=".63" stop-color="#fff" stop-opacity=".36"/><stop offset=".74" stop-color="#fff" stop-opacity=".52"/><stop offset=".86" stop-color="#fff" stop-opacity=".71"/><stop offset=".96" stop-color="#fff" stop-opacity=".92"/><stop offset="1" stop-color="#fff"/></linearGradient></defs><g id="b"><g id="c"><polygon class="e" points="0 70.93 0 0 868.12 0 868.12 70.93 0 70.93"/></g></g><rect class="g" x="214.55" y="19.47" width=".37" height="31.93"/><g><path d="M230.54,35.4c-.12,.24-.27,.44-.47,.6s-.44,.28-.7,.36c-.27,.08-.55,.12-.86,.12h-.91v1.64h-1.2v-5.45h2.22c.33,0,.62,.04,.87,.13,.26,.09,.48,.22,.65,.39s.32,.36,.41,.6,.14,.49,.14,.76v.02c0,.33-.07,.6-.18,.84h.03Zm-1.04-.83c0-.27-.08-.48-.26-.61-.18-.14-.41-.21-.71-.21h-.92v1.66h.95c.3,0,.54-.08,.7-.24s.25-.35,.25-.59v-.02h0Z"/><path d="M242.22,38.12l-1.17-1.75h-.94v1.75h-1.2v-5.45h2.49c.65,0,1.15,.16,1.51,.48s.54,.76,.54,1.33v.02c0,.44-.11,.8-.32,1.07-.22,.28-.5,.48-.85,.61l1.33,1.95h-1.39Zm.02-3.6c0-.26-.08-.45-.25-.58s-.39-.19-.69-.19h-1.19v1.56h1.22c.29,0,.52-.07,.68-.21s.24-.33,.24-.56v-.02h0Z"/><path d="M251.9,38.12v-5.45h1.2v5.45h-1.2Z"/><path d="M265.59,38.12l-2.64-3.46v3.46h-1.18v-5.45h1.11l2.55,3.35v-3.35h1.18v5.45h-1.02Z"/><path d="M277.69,33.78v4.34h-1.2v-4.34h-1.65v-1.11h4.52v1.11h-1.67Z"/><path d="M301.36,35.4c-.12,.24-.27,.44-.47,.6s-.44,.28-.7,.36-.55,.12-.86,.12h-.91v1.64h-1.2v-5.45h2.22c.33,0,.62,.04,.87,.13,.26,.09,.48,.22,.65,.39,.18,.17,.32,.36,.41,.6s.14,.49,.14,.76v.02c0,.33-.06,.6-.18,.84h.03Zm-1.04-.83c0-.27-.08-.48-.26-.61-.18-.14-.41-.21-.71-.21h-.92v1.66h.95c.3,0,.54-.08,.7-.24,.17-.16,.25-.35,.25-.59v-.02h-.01Z"/><path d="M315.06,36.49c-.14,.34-.34,.64-.6,.9s-.56,.46-.92,.6c-.35,.15-.74,.22-1.16,.22s-.81-.08-1.16-.22c-.35-.15-.65-.34-.92-.6s-.45-.55-.6-.89-.21-.71-.21-1.09v-.02c0-.39,.08-.76,.22-1.09,.14-.34,.34-.64,.6-.9s.56-.46,.92-.6c.35-.15,.74-.22,1.17-.22s.81,.08,1.16,.22c.35,.15,.65,.34,.92,.6s.45,.55,.6,.89c.14,.34,.21,.71,.21,1.09v.02c0,.39-.08,.75-.23,1.09Zm-1.03-1.1c0-.24-.04-.45-.12-.66s-.19-.39-.34-.55-.32-.28-.53-.37-.42-.13-.66-.13-.46,.04-.66,.13-.37,.21-.51,.37-.25,.34-.34,.54-.12,.42-.12,.65v.02c0,.24,.04,.45,.12,.66s.19,.39,.34,.55c.15,.15,.32,.28,.52,.37,.2,.09,.42,.13,.66,.13s.46-.04,.66-.13c.2-.08,.38-.21,.52-.37s.25-.34,.34-.54,.12-.43,.12-.65v-.02h0Z"/><path d="M326.97,38.12l-1.17-1.75h-.94v1.75h-1.2v-5.45h2.49c.65,0,1.15,.16,1.51,.48,.36,.32,.54,.76,.54,1.33v.02c0,.44-.11,.8-.32,1.07-.22,.28-.5,.48-.84,.61l1.33,1.95h-1.4Zm.03-3.6c0-.26-.08-.45-.25-.58s-.39-.19-.7-.19h-1.19v1.56h1.22c.29,0,.52-.07,.68-.21s.24-.33,.24-.56v-.02h0Z"/><path d="M339.06,33.78v4.34h-1.2v-4.34h-1.65v-1.11h4.52v1.11h-1.67Z"/><path d="M353.01,38.12l-.5-1.23h-2.3l-.5,1.23h-1.23l2.33-5.48h1.11l2.33,5.48h-1.24Zm-1.65-4.05l-.72,1.76h1.44l-.72-1.76Z"/><path d="M362.41,38.12v-5.45h1.2v4.37h2.71v1.08h-3.91Z"/></g><g><g><path d="M84.69,22.05c-1.26-.98-2.84-1.82-4.62-1.82-2.35,0-4.28,1.55-4.28,3.52s2.04,3.52,4.39,3.52c1.81,0,3.24-.65,4.5-1.67l-.23,6.75c-1.26,.5-4.19,.72-5.59,.72-6.17,0-10.99-4-10.99-9.14s4.96-9.47,11.3-9.47c1.78,0,3.61,.26,5.28,.74l.23,6.86Z"/><path d="M111.09,23.8c0,5.79-5.36,9.26-11.96,9.26s-11.96-3.47-11.96-9.26,5.39-9.35,11.96-9.35,11.96,3.68,11.96,9.35Zm-16.01,.1c0,2.06,1.66,3.47,4.05,3.47s4.04-1.41,4.04-3.47c0-1.91-1.55-3.52-4.04-3.52s-4.05,1.6-4.05,3.52Z"/><path d="M130.38,22.05c-1.26-.98-2.84-1.82-4.62-1.82-2.35,0-4.28,1.55-4.28,3.52s2.04,3.52,4.39,3.52c1.81,0,3.24-.65,4.5-1.67l-.23,6.75c-1.26,.5-4.19,.72-5.59,.72-6.17,0-10.99-4-10.99-9.14s4.96-9.47,11.3-9.47c1.78,0,3.61,.26,5.28,.74l.23,6.86Z"/><path d="M133.64,14.73h7.57v6.08h4.82v-6.08h7.57v18.04h-7.57v-6.27h-4.82v6.27h-7.57V14.73Z"/><path d="M157.66,14.73h7.86v18.04h-7.86V14.73Z"/><path d="M170.93,26.31l.4,.26c1.41,.91,3.1,1.65,4.91,1.65,.77,0,2.01-.26,2.01-1.08s-1.03-.88-1.75-1l-1.58-.24c-3.07-.45-5.65-1.96-5.65-4.78,0-4.28,4.68-6.67,9.38-6.67,2.47,0,4.73,.5,6.86,1.58l-2.12,4.62c-1.35-.77-2.87-1.36-4.56-1.36-.69,0-1.69,.22-1.69,.96,0,.67,.98,.77,1.58,.88l1.78,.34c3.33,.62,5.74,2.1,5.74,5.17,0,4.31-4.71,6.44-9.38,6.44-2.72,0-5.88-.62-8.32-1.65l2.41-5.1Z"/><path d="M189.02,14.73h14.55v4.93h-6.63v1.72h6.05v4.69h-6.05v1.77h6.86v4.93h-14.77V14.73Z"/><path d="M84.23,45.73c-1.23-.95-2.76-1.77-4.49-1.77-2.29,0-4.16,1.51-4.16,3.42s1.98,3.42,4.27,3.42c1.76,0,3.15-.63,4.38-1.63l-.22,6.56c-1.23,.49-4.07,.7-5.44,.7-6,0-10.69-3.89-10.69-8.89s4.83-9.22,11-9.22c1.73,0,3.52,.26,5.14,.72l.22,6.68Z"/><path d="M109.92,47.43c0,5.63-5.22,9.01-11.64,9.01s-11.64-3.37-11.64-9.01,5.25-9.1,11.64-9.1,11.64,3.58,11.64,9.1Zm-15.58,.09c0,2,1.62,3.37,3.94,3.37s3.94-1.37,3.94-3.37c0-1.86-1.51-3.42-3.94-3.42s-3.94,1.56-3.94,3.42Z"/><path d="M113.09,38.61h7.65v11.92h6.42v5.63h-14.07v-17.55Z"/><path d="M129.71,38.61h7.65v11.92h6.42v5.63h-14.07v-17.55Z"/><path d="M146.22,38.61h14.15v4.79h-6.45v1.68h5.89v4.56h-5.89v1.72h6.67v4.8h-14.37v-17.55Z"/><path d="M186.45,45.82c-.06,2.86-.06,5.26-2.54,7.49-2.23,2.02-5.67,3.12-8.93,3.12-6.42,0-11.61-3.3-11.61-8.94s5.05-9.17,11.67-9.17c3.66,0,8.68,1.51,10.33,4.52l-7.15,2.19c-.59-.88-1.67-1.35-2.9-1.35-2.74,0-4.24,1.96-4.24,4.07,0,1.93,1.45,3.75,3.93,3.75,1.2,0,2.74-.47,3.1-1.54h-3.46v-4.14h11.81Z"/><path d="M189.42,38.61h14.15v4.79h-6.45v1.68h5.89v4.56h-5.89v1.72h6.67v4.8h-14.37v-17.55Z"/></g><path class="f" d="M25.49,35.45c0,4.11,2.33,7.66,5.76,9.41-1.31,.38-2.4,.47-3.31,.47-4.9,0-5.59-3.64-5.59-5.37,0-2.64,1.68-5.53,3.7-7.9-.36,1.06-.55,2.19-.55,3.38m34.57,10.35c-4,9.29-13.24,15.79-24.01,15.79-2.75,0-5.42-.43-7.91-1.22,1.1,.15,2.27,.23,3.5,.23,5.49,0,11.19-1.61,15.88-4.19,3.07-1.68,9.22-6.1,12.53-10.61Zm2.08-8.68c-.12,2.02-.47,3.97-1.03,5.82-2.04,4.49-9.92,10.43-14.71,12.6-6.71,3.04-12.67,3.67-15.48,3.67-2.14,0-3.61-.27-4.49-.4-6.1-1.2-8.38-4.32-9.38-6.92-.81-2.19-.81-4.66-.81-5.32,0-10.99,7.64-25.63,16.28-32.23,4.3-3.27,7.77-3.8,10.13-3.8,1.47,0,2.33,.34,2.87,.53,2.08,.73,5.37,3.06,5.37,8.53,0,2.86-1.08,7.58-4.66,12.91-1.22-4.23-5.02-7.37-9.58-7.62,3.75-1.48,7.19-2.29,7.7-2.47,.03,0-6.29,.07-13.42,3.64-8.11,4.06-9.53,10.79-9.53,13.5,0,4.46,2.99,5.98,4.6,6.51,1.33,.46,2.74,.53,3.21,.53,1.71,0,3.36-.35,4.79-.78,.67,.13,1.36,.2,2.06,.2,5.27,0,9.64-3.85,10.44-8.9h15.65Zm-11.98-23.69c6.78,4.35,11.41,11.74,11.98,20.25h-13.64c1.2-1.93,2.15-3.92,2.78-5.82,.67-2.13,1.07-4.46,1.07-6.73,0-3.48-.93-5.96-2.19-7.7ZM9.92,35.45c0-14.44,11.7-26.15,26.14-26.15,1.25,0,2.47,.09,3.67,.25-4,.56-9.75,2.73-15.52,8.18-6.03,5.73-8.77,11.59-9.98,14.58-2.02,4.99-2.34,8.32-2.34,10.65,0,.7,.01,1.71,.19,2.92-1.38-3.2-2.16-6.73-2.16-10.43Z"/></g></svg>