<?xml version="1.0" encoding="UTF-8"?><svg id="a" xmlns="http://www.w3.org/2000/svg" xmlns:xlink="http://www.w3.org/1999/xlink" viewBox="0 0 868.12 70.88"><defs><style>.e{fill:url(#d);}.f{fill-rule:evenodd;}.f,.g{fill:#e51837;}</style><linearGradient id="d" x1="-1569.08" y1="-3156.26" x2="-1498.15" y2="-3156.26" gradientTransform="translate(-2722.2 1569.08) rotate(90)" gradientUnits="userSpaceOnUse"><stop offset="0" stop-color="#fff" stop-opacity="0"/><stop offset=".14" stop-color="#fff" stop-opacity="0"/><stop offset=".27" stop-color="#fff" stop-opacity=".06"/><stop offset=".39" stop-color="#fff" stop-opacity=".13"/><stop offset=".51" stop-color="#fff" stop-opacity=".23"/><stop offset=".63" stop-color="#fff" stop-opacity=".36"/><stop offset=".74" stop-color="#fff" stop-opacity=".52"/><stop offset=".86" stop-color="#fff" stop-opacity=".71"/><stop offset=".96" stop-color="#fff" stop-opacity=".92"/><stop offset="1" stop-color="#fff"/></linearGradient></defs><g id="b"><g id="c"><polygon class="e" points="0 70.93 0 0 868.12 0 868.12 70.93 0 70.93"/></g></g><rect class="g" x="162.3" y="19.47" width=".37" height="31.93"/><g><path d="M178.29,35.4c-.12,.24-.27,.44-.47,.6s-.44,.28-.7,.36c-.27,.08-.55,.12-.86,.12h-.91v1.64h-1.2v-5.45h2.22c.33,0,.62,.04,.87,.13,.26,.09,.48,.22,.65,.39s.32,.36,.41,.6,.14,.49,.14,.76v.02c0,.33-.07,.6-.18,.84h.03Zm-1.04-.83c0-.27-.08-.48-.26-.61-.18-.14-.41-.21-.71-.21h-.92v1.66h.95c.3,0,.54-.08,.7-.24s.25-.35,.25-.59v-.02h0Z"/><path d="M189.97,38.12l-1.17-1.75h-.94v1.75h-1.2v-5.45h2.49c.65,0,1.15,.16,1.51,.48s.54,.76,.54,1.33v.02c0,.44-.11,.8-.32,1.07-.22,.28-.5,.48-.85,.61l1.33,1.95h-1.39Zm.02-3.6c0-.26-.08-.45-.25-.58s-.39-.19-.69-.19h-1.19v1.56h1.22c.29,0,.52-.07,.68-.21s.24-.33,.24-.56v-.02h0Z"/><path d="M199.65,38.12v-5.45h1.2v5.45h-1.2Z"/><path d="M213.34,38.12l-2.64-3.46v3.46h-1.18v-5.45h1.11l2.55,3.35v-3.35h1.18v5.45h-1.02Z"/><path d="M225.44,33.78v4.34h-1.2v-4.34h-1.65v-1.11h4.52v1.11h-1.67Z"/><path d="M249.11,35.4c-.12,.24-.27,.44-.47,.6s-.44,.28-.7,.36-.55,.12-.86,.12h-.91v1.64h-1.2v-5.45h2.22c.33,0,.62,.04,.87,.13,.26,.09,.48,.22,.65,.39,.18,.17,.32,.36,.41,.6s.14,.49,.14,.76v.02c0,.33-.06,.6-.18,.84h.03Zm-1.04-.83c0-.27-.08-.48-.26-.61-.18-.14-.41-.21-.71-.21h-.92v1.66h.95c.3,0,.54-.08,.7-.24,.17-.16,.25-.35,.25-.59v-.02h-.01Z"/><path d="M262.81,36.49c-.14,.34-.34,.64-.6,.9s-.56,.46-.92,.6c-.35,.15-.74,.22-1.16,.22s-.81-.08-1.16-.22c-.35-.15-.65-.34-.92-.6s-.45-.55-.6-.89-.21-.71-.21-1.09v-.02c0-.39,.08-.76,.22-1.09,.14-.34,.34-.64,.6-.9s.56-.46,.92-.6c.35-.15,.74-.22,1.17-.22s.81,.08,1.16,.22c.35,.15,.65,.34,.92,.6s.45,.55,.6,.89c.14,.34,.21,.71,.21,1.09v.02c0,.39-.08,.75-.23,1.09Zm-1.03-1.1c0-.24-.04-.45-.12-.66s-.19-.39-.34-.55-.32-.28-.53-.37-.42-.13-.66-.13-.46,.04-.66,.13-.37,.21-.51,.37-.25,.34-.34,.54-.12,.42-.12,.65v.02c0,.24,.04,.45,.12,.66s.19,.39,.34,.55c.15,.15,.32,.28,.52,.37,.2,.09,.42,.13,.66,.13s.46-.04,.66-.13c.2-.08,.38-.21,.52-.37s.25-.34,.34-.54,.12-.43,.12-.65v-.02h0Z"/><path d="M274.72,38.12l-1.17-1.75h-.94v1.75h-1.2v-5.45h2.49c.65,0,1.15,.16,1.51,.48,.36,.32,.54,.76,.54,1.33v.02c0,.44-.11,.8-.32,1.07-.22,.28-.5,.48-.84,.61l1.33,1.95h-1.4Zm.03-3.6c0-.26-.08-.45-.25-.58s-.39-.19-.7-.19h-1.19v1.56h1.22c.29,0,.52-.07,.68-.21s.24-.33,.24-.56v-.02h0Z"/><path d="M286.81,33.78v4.34h-1.2v-4.34h-1.65v-1.11h4.52v1.11h-1.67Z"/><path d="M300.76,38.12l-.5-1.23h-2.3l-.5,1.23h-1.23l2.33-5.48h1.11l2.33,5.48h-1.24Zm-1.65-4.05l-.72,1.76h1.44l-.72-1.76Z"/><path d="M310.16,38.12v-5.45h1.2v4.37h2.71v1.08h-3.91Z"/></g><g><g><path d="M64.54,25.66c-.92-.72-2.07-1.33-3.37-1.33-1.72,0-3.12,1.14-3.12,2.57s1.49,2.57,3.21,2.57c1.32,0,2.37-.47,3.29-1.22l-.17,4.93c-.92,.37-3.06,.52-4.09,.52-4.51,0-8.03-2.92-8.03-6.68s3.63-6.92,8.26-6.92c1.3,0,2.64,.19,3.86,.54l.17,5.01Z"/><path d="M83.82,26.93c0,4.23-3.92,6.76-8.74,6.76s-8.74-2.53-8.74-6.76,3.94-6.83,8.74-6.83,8.74,2.69,8.74,6.83Zm-11.69,.07c0,1.5,1.22,2.53,2.96,2.53s2.95-1.03,2.95-2.53c0-1.4-1.13-2.57-2.95-2.57s-2.96,1.17-2.96,2.57Z"/><path d="M97.92,25.66c-.92-.72-2.07-1.33-3.37-1.33-1.72,0-3.12,1.14-3.12,2.57s1.49,2.57,3.21,2.57c1.32,0,2.37-.47,3.29-1.22l-.17,4.93c-.92,.37-3.06,.52-4.09,.52-4.51,0-8.03-2.92-8.03-6.68s3.63-6.92,8.26-6.92c1.3,0,2.64,.19,3.86,.54l.17,5.01Z"/><path d="M100.29,20.31h5.53v4.44h3.52v-4.44h5.53v13.18h-5.53v-4.58h-3.52v4.58h-5.53v-13.18Z"/><path d="M117.84,20.31h5.74v13.18h-5.74v-13.18Z"/><path d="M127.54,28.77l.29,.19c1.03,.66,2.26,1.21,3.58,1.21,.57,0,1.47-.19,1.47-.79s-.75-.65-1.28-.73l-1.15-.17c-2.24-.33-4.13-1.43-4.13-3.5,0-3.13,3.42-4.88,6.85-4.88,1.8,0,3.46,.37,5.01,1.15l-1.55,3.37c-.98-.56-2.1-1-3.33-1-.5,0-1.24,.16-1.24,.7,0,.49,.71,.56,1.15,.65l1.3,.24c2.43,.45,4.19,1.54,4.19,3.77,0,3.15-3.44,4.7-6.85,4.7-1.99,0-4.3-.46-6.08-1.21l1.76-3.72Z"/><path d="M140.75,20.31h10.63v3.6h-4.84v1.26h4.42v3.42h-4.42v1.29h5.01v3.6h-10.79v-13.18Z"/><path d="M64.2,42.96c-.9-.7-2.02-1.29-3.28-1.29-1.67,0-3.04,1.1-3.04,2.5s1.45,2.5,3.12,2.5c1.28,0,2.3-.46,3.2-1.19l-.16,4.79c-.9,.36-2.98,.51-3.98,.51-4.38,0-7.81-2.84-7.81-6.49s3.53-6.73,8.03-6.73c1.26,0,2.57,.19,3.75,.53l.16,4.88Z"/><path d="M82.97,44.2c0,4.11-3.81,6.58-8.5,6.58s-8.5-2.47-8.5-6.58,3.83-6.65,8.5-6.65,8.5,2.62,8.5,6.65Zm-11.38,.07c0,1.46,1.18,2.47,2.88,2.47s2.88-1,2.88-2.47c0-1.36-1.1-2.5-2.88-2.5s-2.88,1.14-2.88,2.5Z"/><path d="M85.28,37.76h5.59v8.7h4.69v4.11h-10.28v-12.82Z"/><path d="M97.42,37.76h5.59v8.7h4.69v4.11h-10.28v-12.82Z"/><path d="M109.48,37.76h10.34v3.5h-4.71v1.22h4.3v3.33h-4.3v1.26h4.87v3.5h-10.5v-12.82Z"/><path d="M138.87,43.03c-.04,2.09-.04,3.84-1.86,5.47-1.63,1.48-4.14,2.28-6.52,2.28-4.69,0-8.48-2.41-8.48-6.53s3.69-6.7,8.52-6.7c2.67,0,6.34,1.11,7.54,3.3l-5.22,1.6c-.43-.65-1.22-.99-2.12-.99-2,0-3.1,1.43-3.1,2.98,0,1.41,1.06,2.74,2.87,2.74,.88,0,2-.34,2.26-1.12h-2.53v-3.03h8.62Z"/><path d="M141.04,37.76h10.34v3.5h-4.71v1.22h4.3v3.33h-4.3v1.26h4.87v3.5h-10.5v-12.82Z"/></g><path class="f" d="M21.3,35.44c0,3,1.7,5.59,4.2,6.88-.96,.27-1.76,.34-2.42,.34-3.58,0-4.09-2.66-4.09-3.92,0-1.93,1.23-4.04,2.7-5.77-.26,.78-.4,1.6-.4,2.47m25.25,7.56c-2.92,6.78-9.67,11.53-17.54,11.53-2.01,0-3.96-.31-5.78-.89,.8,.11,1.66,.17,2.56,.17,4.01,0,8.17-1.18,11.6-3.06,2.24-1.23,6.73-4.46,9.15-7.75Zm1.52-6.34c-.09,1.48-.35,2.9-.76,4.25-1.49,3.28-7.24,7.62-10.75,9.2-4.9,2.22-9.26,2.68-11.31,2.68-1.57,0-2.64-.2-3.28-.3-4.46-.87-6.12-3.16-6.85-5.06-.59-1.6-.59-3.41-.59-3.88,0-8.03,5.58-18.72,11.89-23.54,3.14-2.39,5.68-2.77,7.4-2.77,1.07,0,1.7,.25,2.09,.39,1.52,.54,3.92,2.24,3.92,6.23,0,2.09-.79,5.54-3.4,9.43-.89-3.09-3.67-5.38-7-5.56,2.74-1.08,5.25-1.67,5.62-1.81,.02,0-4.6,.05-9.8,2.66-5.92,2.96-6.96,7.88-6.96,9.86,0,3.26,2.18,4.37,3.36,4.75,.97,.34,2,.39,2.35,.39,1.25,0,2.46-.25,3.5-.57,.49,.1,.99,.15,1.5,.15,3.85,0,7.04-2.82,7.63-6.5h11.43Zm-8.75-17.31c4.95,3.17,8.34,8.58,8.75,14.79h-9.96c.87-1.41,1.57-2.86,2.03-4.25,.49-1.56,.78-3.26,.78-4.92,0-2.54-.68-4.35-1.6-5.62ZM9.92,35.44c0-10.55,8.55-19.1,19.09-19.1,.91,0,1.8,.06,2.68,.18-2.92,.41-7.13,2-11.34,5.97-4.4,4.18-6.41,8.46-7.29,10.65-1.47,3.65-1.71,6.08-1.71,7.78,0,.51,0,1.25,.14,2.13-1.01-2.33-1.58-4.92-1.58-7.62Z"/></g></svg>