<?xml version="1.0" encoding="UTF-8"?><svg id="a" xmlns="http://www.w3.org/2000/svg" xmlns:xlink="http://www.w3.org/1999/xlink" viewBox="0 0 868.12 70.88"><defs><style>.e,.f{fill:#002856;}.e,.g{fill-rule:evenodd;}.h,.g{fill:#ffc629;}.i{fill:url(#d);}</style><linearGradient id="d" x1="1456.92" y1="2290.26" x2="1527.85" y2="2290.26" gradientTransform="translate(-1856.2 -1456.92) rotate(90) scale(1 -1)" gradientUnits="userSpaceOnUse"><stop offset="0" stop-color="#fff" stop-opacity="0"/><stop offset=".14" stop-color="#fff" stop-opacity="0"/><stop offset=".27" stop-color="#fff" stop-opacity=".06"/><stop offset=".39" stop-color="#fff" stop-opacity=".13"/><stop offset=".51" stop-color="#fff" stop-opacity=".23"/><stop offset=".63" stop-color="#fff" stop-opacity=".36"/><stop offset=".74" stop-color="#fff" stop-opacity=".52"/><stop offset=".86" stop-color="#fff" stop-opacity=".71"/><stop offset=".96" stop-color="#fff" stop-opacity=".92"/><stop offset="1" stop-color="#fff"/></linearGradient></defs><g id="b"><g id="c"><polygon class="i" points="0 70.93 0 0 868.12 0 868.12 70.93 0 70.93"/></g></g><rect class="h" x="295.19" y="19.47" width=".37" height="31.93"/><g><path class="f" d="M311.18,35.4c-.12,.24-.27,.44-.47,.6s-.44,.28-.7,.36c-.27,.08-.55,.12-.86,.12h-.91v1.64h-1.2v-5.45h2.22c.33,0,.62,.04,.87,.13,.26,.09,.48,.22,.65,.39s.32,.36,.41,.6,.14,.49,.14,.76v.02c0,.33-.07,.6-.18,.84h.03Zm-1.04-.84c0-.27-.08-.48-.26-.61-.18-.14-.41-.21-.71-.21h-.92v1.66h.95c.3,0,.54-.08,.7-.24s.25-.35,.25-.59v-.02h0Z"/><path class="f" d="M322.86,38.12l-1.17-1.75h-.94v1.75h-1.2v-5.45h2.49c.65,0,1.15,.16,1.51,.48s.54,.76,.54,1.33v.02c0,.44-.11,.8-.32,1.07-.22,.28-.5,.48-.85,.61l1.33,1.95h-1.39Zm.02-3.61c0-.26-.08-.45-.25-.58s-.39-.19-.69-.19h-1.19v1.56h1.22c.29,0,.52-.07,.68-.21s.24-.33,.24-.56v-.02h0Z"/><path class="f" d="M332.54,38.12v-5.45h1.2v5.45h-1.2Z"/><path class="f" d="M346.23,38.12l-2.64-3.46v3.46h-1.18v-5.45h1.11l2.55,3.35v-3.35h1.18v5.45h-1.02Z"/><path class="f" d="M358.33,33.78v4.34h-1.2v-4.34h-1.65v-1.11h4.52v1.11h-1.67Z"/><path class="f" d="M382,35.4c-.12,.24-.27,.44-.47,.6s-.44,.28-.7,.36-.55,.12-.86,.12h-.91v1.64h-1.2v-5.45h2.22c.33,0,.62,.04,.87,.13,.26,.09,.48,.22,.65,.39,.18,.17,.32,.36,.41,.6s.14,.49,.14,.76v.02c0,.33-.06,.6-.18,.84h.03Zm-1.04-.84c0-.27-.08-.48-.26-.61-.18-.14-.41-.21-.71-.21h-.92v1.66h.95c.3,0,.54-.08,.7-.24,.17-.16,.25-.35,.25-.59v-.02h-.01Z"/><path class="f" d="M395.7,36.49c-.14,.34-.34,.64-.6,.9s-.56,.46-.92,.6c-.35,.15-.74,.22-1.16,.22s-.81-.08-1.16-.22c-.35-.15-.65-.34-.92-.6s-.45-.55-.6-.89-.21-.71-.21-1.09v-.02c0-.39,.08-.76,.22-1.09,.14-.34,.34-.64,.6-.9s.56-.46,.92-.6c.35-.15,.74-.22,1.17-.22s.81,.08,1.16,.22c.35,.15,.65,.34,.92,.6s.45,.55,.6,.89c.14,.34,.21,.71,.21,1.09v.02c0,.39-.08,.75-.23,1.09Zm-1.03-1.1c0-.24-.04-.45-.12-.66s-.19-.39-.34-.55-.32-.28-.53-.37-.42-.13-.66-.13-.46,.04-.66,.13-.37,.21-.51,.37-.25,.34-.34,.54-.12,.42-.12,.65v.02c0,.24,.04,.45,.12,.66s.19,.39,.34,.55c.15,.15,.32,.28,.52,.37,.2,.09,.42,.13,.66,.13s.46-.04,.66-.13c.2-.08,.38-.21,.52-.37s.25-.34,.34-.54,.12-.43,.12-.65v-.02h0Z"/><path class="f" d="M407.61,38.12l-1.17-1.75h-.94v1.75h-1.2v-5.45h2.49c.65,0,1.15,.16,1.51,.48,.36,.32,.54,.76,.54,1.33v.02c0,.44-.11,.8-.32,1.07-.22,.28-.5,.48-.84,.61l1.33,1.95h-1.4Zm.03-3.61c0-.26-.08-.45-.25-.58s-.39-.19-.7-.19h-1.19v1.56h1.22c.29,0,.52-.07,.68-.21s.24-.33,.24-.56v-.02h0Z"/><path class="f" d="M419.7,33.78v4.34h-1.2v-4.34h-1.65v-1.11h4.52v1.11h-1.67Z"/><path class="f" d="M433.65,38.12l-.5-1.23h-2.3l-.5,1.23h-1.23l2.33-5.48h1.11l2.33,5.48h-1.24Zm-1.65-4.05l-.72,1.76h1.44l-.72-1.76Z"/><path class="f" d="M443.05,38.12v-5.45h1.2v4.37h2.71v1.08h-3.91Z"/></g><g><polygon class="g" points="43.33 20.7 31.52 14.8 9.92 25.27 17.45 29.19 31.4 22.29 43.33 28.12 43.33 20.7"/><polygon class="g" points="44.6 21.22 44.6 34.18 43.03 35.87 44.9 40.59 45.63 40.59 47.45 36.02 45.87 34.18 45.87 28.97 52.84 25.27 44.6 21.22"/><g><path class="e" d="M47.48,32.7v1.41l.94,.06c1.29,.06,1,1.12,1,1.12l-4.06,10.76-4.94-11.93h2.62v-1.41H10.14l-.06,1.81,1.88-.02c1.47,0,1.18,1.27,1.18,1.27,0,0,.06,13.99,0,15.29-.06,1.29-.94,1-.94,1h-2.12v1.71h11.47v-1.65h-2.53c-.71-.06-.76-1.29-.76-1.29v-7.23l.94,.06c3.23,.06,3.35,4.29,3.35,4.29h1.59v-9.94h-1.47c-.35,4.47-4.29,4.06-4.29,4.06l-.06-6.35c-.06-1.47,1.82-1.24,1.82-1.24l3.47,.06c2.7,.24,3.35,2.47,3.35,2.47l6.94,16.93h1.24l3.76-10.06,4.12,10.11h1.18l7-19.28c.12-.53,1-.65,1-.65h.65v-1.35h-5.35Zm-10.99,13.29l-4.94-11.82h3.35l3.12,7.58-1.53,4.23Z"/><polygon class="f" points="61.25 36.74 65.54 36.74 65.54 38.38 61.25 38.38 61.25 42.73 59.35 42.73 59.35 32.47 66.14 32.47 66.14 34.18 61.25 34.18 61.25 36.74"/><rect class="f" x="66.94" y="32.47" width="1.76" height="10.26"/><path class="f" d="M73.56,42.95c-2.27,0-3.78-1.66-3.78-3.88s1.54-3.82,3.71-3.82c2.02,0,3.75,1.41,3.76,3.82,0,2.27-1.5,3.88-3.69,3.88m-.09-6.13c-1.09,0-1.87,.87-1.87,2.21,0,1.5,.92,2.33,1.96,2.33,1.26,0,1.9-1.11,1.86-2.31-.03-1.21-.73-2.22-1.95-2.22"/><polygon class="f" points="85.78 35.46 87.6 35.46 85.42 42.73 83.69 42.73 82.38 38.09 80.98 42.73 79.27 42.73 77.16 35.46 78.98 35.46 80.24 40.43 81.59 35.46 83.15 35.46 84.49 40.43 85.78 35.46"/><path class="f" d="M90.14,34.33h-1.73v-1.76h1.73v1.76Zm0,8.4h-1.73v-7.27h1.73v7.27Z"/><path class="f" d="M91.67,35.46h1.76v.86c.09-.13,.26-.36,.57-.57,.44-.32,1.1-.51,1.67-.51,.83,0,1.54,.38,1.9,.87,.45,.61,.45,1.4,.45,2.34v4.27h-1.73v-3.71c0-.54,0-.9-.06-1.1-.16-.64-.62-.97-1.19-.97s-1.09,.33-1.34,.81c-.28,.54-.28,1.28-.28,1.82v3.15h-1.76v-7.27Z"/><path class="f" d="M106.13,35.46v5.96c-.01,1.44-.01,2.02-.47,2.63-.41,.54-1.31,1.11-3.02,1.11-2.59,0-3.1-1.12-3.34-2.28h1.92c.13,.42,.44,.9,1.48,.9,.89,0,1.28-.35,1.44-.58,.26-.36,.26-.79,.26-1.67-.38,.35-1.13,.78-2.18,.78-1.72,0-3.15-1.16-3.15-3.47,0-2.7,1.93-3.59,3.27-3.59s1.86,.71,2.06,.97v-.76h1.73Zm-3.49,1.34c-.89,0-1.79,.6-1.79,1.99,0,1.26,.77,1.92,1.8,1.92,.93,0,1.77-.51,1.79-1.85,.01-1.18-.63-2.06-1.8-2.06"/><polygon class="f" points="121.28 32.47 119.02 42.73 116.79 42.73 115.35 35.59 113.87 42.73 111.63 42.73 109.49 32.47 111.45 32.47 112.85 40.29 114.45 32.47 116.23 32.47 117.86 40.29 119.3 32.47 121.28 32.47"/><path class="f" d="M128.25,41.1c-.9,1.21-2.06,1.85-3.55,1.85-1.9,0-3.73-1.21-3.73-3.88,0-2.44,1.57-3.82,3.62-3.82,1.92,0,2.72,1.15,2.86,1.37,.6,.84,.73,2.11,.74,2.83h-5.38c.2,1.15,.92,1.8,2.06,1.8s1.67-.7,1.89-1l1.48,.86Zm-1.98-2.94c-.16-1.13-.86-1.53-1.63-1.53-.93,0-1.57,.54-1.77,1.53h3.4Z"/><rect class="f" x="129.24" y="32.47" width="1.76" height="10.26"/><rect class="f" x="132.53" y="32.47" width="1.76" height="10.26"/><path class="f" d="M136.48,40.58c.44,.54,1.09,.93,2.09,.93s1.44-.5,1.44-.86c0-.46-.52-.58-.75-.62-.25-.06-1.44-.28-1.7-.35-1.73-.41-2.05-1.41-2.05-2.06,0-1.24,1.12-2.37,3.11-2.37,1.1,0,1.9,.35,2.4,.7,.36,.23,.6,.48,.74,.65l-1.23,1.15c-.2-.39-.7-1.11-1.98-1.11-.83,0-1.21,.36-1.21,.74,0,.52,.54,.67,1.47,.83,1.51,.28,1.93,.35,2.4,.71,.45,.35,.74,.93,.74,1.54,0,1.13-1.02,2.49-3.27,2.49-1.29,0-2.57-.41-3.49-1.29l1.29-1.08Z"/><path class="f" d="M154.14,32.47v6.47c-.01,1.16-.01,2.12-1.1,3.05-1.05,.92-2.4,1-3.1,1-.62,0-1.24-.07-1.82-.28-1.22-.42-1.87-1.31-2.11-2.08-.13-.45-.13-.77-.14-2.05v-6.12h1.92v6.31c0,.44-.02,.86,.13,1.25,.39,.99,1.47,1.1,2.08,1.1,.3,0,1.08-.01,1.64-.51,.57-.51,.57-1.09,.57-1.95v-6.21h1.93Z"/><path class="f" d="M155.87,35.46h1.76v.86c.09-.13,.26-.36,.57-.57,.44-.32,1.1-.51,1.67-.51,.83,0,1.54,.38,1.9,.87,.45,.61,.45,1.4,.45,2.34v4.27h-1.73v-3.71c0-.54,0-.9-.06-1.1-.16-.64-.62-.97-1.19-.97s-1.09,.33-1.34,.81c-.28,.54-.28,1.28-.28,1.82v3.15h-1.76v-7.27Z"/><path class="f" d="M165.45,34.33h-1.73v-1.76h1.73v1.76Zm0,8.4h-1.73v-7.27h1.73v7.27Z"/><path class="f" d="M168.96,36.7v6.03h-1.74v-6.03h-1.09v-1.25h1.09v-.83c-.01-1.03-.01-2.17,2.34-2.17,.35,0,.67,.03,.99,.06v1.48c-.15-.03-.31-.04-.55-.04-.47,0-.74,.1-.92,.36-.06,.1-.12,.32-.12,.54v.6h1.58v1.25h-1.58Z"/><path class="f" d="M172.94,34.33h-1.73v-1.76h1.73v1.76Zm0,8.4h-1.73v-7.27h1.73v7.27Z"/><path class="f" d="M181.32,41.1c-.9,1.21-2.06,1.85-3.55,1.85-1.9,0-3.73-1.21-3.73-3.88,0-2.44,1.57-3.82,3.62-3.82,1.92,0,2.72,1.15,2.86,1.37,.6,.84,.73,2.11,.74,2.83h-5.38c.2,1.15,.92,1.8,2.06,1.8s1.67-.7,1.89-1l1.48,.86Zm-1.98-2.94c-.16-1.13-.86-1.53-1.63-1.53-.93,0-1.57,.54-1.77,1.53h3.4Z"/><path class="f" d="M188.87,32.47v10.26h-1.73v-.7c-.54,.66-1.26,.92-2.02,.92-1.73,0-3.23-1.29-3.23-3.69,0-2.17,1.22-4.01,3.3-4.01,.71,0,1.39,.2,1.95,.81v-3.59h1.73Zm-2.14,5.06c-.26-.39-.7-.67-1.28-.67-1.18,0-1.74,1.06-1.74,2.21,0,.13,.01,2.31,1.71,2.31,.9,0,1.72-.67,1.7-2.24-.01-.47-.07-1.13-.39-1.61"/><path class="f" d="M195.03,39.68c.25,.38,1.02,1.56,3.18,1.56,.36,0,.74-.03,1.11-.17,.74-.31,.87-.83,.87-1.18,0-.65-.45-.89-.77-1.02-.23-.09-.26-.1-1.19-.32l-1.24-.26c-.65-.16-.97-.23-1.29-.36-.47-.19-1.73-.81-1.73-2.51,0-1.95,1.64-3.2,4.06-3.2,2.21,0,3.4,1.09,4.13,2.08l-1.57,1.18c-.35-.51-1.02-1.53-2.66-1.53-1.03,0-1.93,.47-1.93,1.25,0,.87,.96,1.05,1.89,1.22l1.06,.23c1.38,.29,3.33,.86,3.33,3.05,0,2.35-2.18,3.3-4.36,3.3-.57,0-1.21-.06-1.83-.23-.68-.2-1.89-.7-2.66-1.95l1.61-1.13Z"/><path class="f" d="M208.02,38.03c-.13-.48-.64-1.23-1.64-1.23s-1.8,.8-1.8,2.25c0,1.31,.68,2.27,1.83,2.27s1.53-.84,1.74-1.42l1.5,.78c-.57,1.57-2.01,2.27-3.27,2.27-2.02,0-3.6-1.56-3.6-3.85s1.6-3.85,3.66-3.85c1.83,0,2.76,1.22,3.14,2.06l-1.56,.73Z"/><path class="f" d="M212.02,32.47v3.74c.55-.55,1.31-.96,2.31-.96,.9,0,1.6,.35,1.99,.78,.6,.64,.61,1.38,.61,2.21v4.49h-1.71v-4c-.03-.65-.03-.81-.12-1.03-.06-.15-.3-.8-1.26-.8-1.12,0-1.64,.9-1.76,1.32-.06,.23-.06,.35-.06,1.16v3.34h-1.74v-10.26h1.74Z"/><path class="f" d="M221.47,42.95c-2.27,0-3.78-1.66-3.78-3.88s1.54-3.82,3.71-3.82c2.02,0,3.75,1.41,3.76,3.82,0,2.27-1.5,3.88-3.69,3.88m-.09-6.13c-1.09,0-1.87,.87-1.87,2.21,0,1.5,.92,2.33,1.96,2.33,1.26,0,1.9-1.11,1.86-2.31-.03-1.21-.73-2.22-1.95-2.22"/><path class="f" d="M229.59,42.95c-2.27,0-3.78-1.66-3.78-3.88s1.54-3.82,3.71-3.82c2.02,0,3.75,1.41,3.76,3.82,0,2.27-1.5,3.88-3.69,3.88m-.09-6.13c-1.09,0-1.87,.87-1.87,2.21,0,1.5,.92,2.33,1.96,2.33,1.26,0,1.9-1.11,1.86-2.31-.03-1.21-.73-2.22-1.95-2.22"/><rect class="f" x="234.37" y="32.47" width="1.76" height="10.26"/><path class="f" d="M241.34,32.47h3.68c.89,.01,1.96,.03,3.04,.8,1.72,1.21,1.98,3.27,1.98,4.42,0,1.76-.59,3.55-2.11,4.42-1.02,.6-2.09,.61-3.3,.62h-3.28v-10.26Zm1.92,1.74v6.79h.81c1.45,0,1.96-.07,2.4-.23,.74-.29,1.53-.93,1.53-3.07,0-.96-.15-2.53-1.57-3.21-.55-.25-.86-.26-2.15-.28h-1.02Z"/><path class="f" d="M252.7,34.33h-1.73v-1.76h1.73v1.76Zm0,8.4h-1.73v-7.27h1.73v7.27Z"/><path class="f" d="M254.77,40.58c.44,.54,1.09,.93,2.09,.93s1.44-.5,1.44-.86c0-.46-.52-.58-.75-.62-.25-.06-1.44-.28-1.7-.35-1.73-.41-2.05-1.41-2.05-2.06,0-1.24,1.12-2.37,3.11-2.37,1.1,0,1.9,.35,2.4,.7,.36,.23,.6,.48,.74,.65l-1.23,1.15c-.2-.39-.7-1.11-1.98-1.11-.83,0-1.21,.36-1.21,.74,0,.52,.54,.67,1.47,.83,1.51,.28,1.93,.35,2.4,.71,.45,.35,.74,.93,.74,1.54,0,1.13-1.02,2.49-3.27,2.49-1.29,0-2.57-.41-3.49-1.29l1.29-1.08Z"/><path class="f" d="M263.45,36.71v3.28c0,.9,0,1.29,.83,1.29,.26,0,.48-.01,.73-.09v1.47c-.52,.09-.87,.12-1.26,.12-.36,0-1.58,0-1.92-.89-.12-.29-.12-.75-.12-1.48v-3.71h-1.06v-1.25h1.06v-2.57h1.74v2.57h1.56v1.25h-1.56Z"/><path class="f" d="M267.41,35.46v1.03c.22-.38,.7-1.24,2.33-1.19v1.79c-.38,.01-1.03,.03-1.57,.44-.74,.57-.76,1.31-.76,2.51v2.69h-1.69v-7.27h1.69Z"/><path class="f" d="M272.26,34.33h-1.73v-1.76h1.73v1.76Zm0,8.4h-1.73v-7.27h1.73v7.27Z"/><path class="f" d="M278.47,38.03c-.13-.48-.64-1.23-1.64-1.23s-1.8,.8-1.8,2.25c0,1.31,.68,2.27,1.83,2.27s1.53-.84,1.74-1.42l1.5,.78c-.57,1.57-2.01,2.27-3.27,2.27-2.02,0-3.6-1.56-3.6-3.85s1.6-3.85,3.66-3.85c1.83,0,2.76,1.22,3.14,2.06l-1.56,.73Z"/><path class="f" d="M282.87,36.71v3.28c0,.9,0,1.29,.83,1.29,.26,0,.48-.01,.73-.09v1.47c-.52,.09-.87,.12-1.26,.12-.36,0-1.58,0-1.92-.89-.12-.29-.12-.75-.12-1.48v-3.71h-1.06v-1.25h1.06v-2.57h1.74v2.57h1.56v1.25h-1.56Z"/><path class="f" d="M59.84,54.12h-.76l1.38-5.99h2.42c.16,0,.33,.02,.5,.05,.17,.03,.34,.1,.53,.2,.07,.05,.15,.1,.23,.17,.08,.07,.15,.15,.22,.25s.12,.22,.17,.36c.04,.14,.06,.31,.06,.5,0,.27-.04,.49-.11,.67-.07,.18-.16,.34-.26,.46-.1,.12-.21,.22-.32,.3-.11,.08-.21,.14-.3,.17-.12,.06-.24,.11-.35,.15-.11,.04-.22,.07-.33,.09-.11,.02-.24,.04-.37,.04-.14,0-.29,0-.47,0h-1.64l-.58,2.55Zm.73-3.19h1.33c.19,0,.35,0,.5,0,.15,0,.3-.03,.44-.06,.18-.04,.33-.1,.45-.19,.13-.08,.23-.18,.31-.29,.08-.11,.14-.22,.18-.35,.04-.12,.06-.25,.06-.37,0-.21-.04-.38-.12-.5-.08-.12-.18-.21-.29-.27-.11-.06-.22-.1-.34-.11-.11-.01-.2-.02-.26-.02h-1.76l-.5,2.16Z"/><path class="f" d="M68.29,52.64c-.1,.3-.24,.56-.43,.79-.19,.23-.42,.42-.7,.56-.28,.14-.59,.21-.93,.21-.24,0-.47-.04-.67-.12-.21-.08-.38-.19-.53-.34-.15-.15-.27-.33-.35-.55-.08-.22-.13-.46-.13-.73,0-.35,.06-.68,.17-.97,.11-.3,.27-.56,.47-.78,.2-.22,.44-.39,.71-.51,.27-.12,.56-.18,.87-.18,.2,0,.4,.03,.6,.1,.19,.06,.37,.17,.53,.31,.16,.14,.28,.32,.38,.53,.1,.21,.15,.47,.16,.77,0,.32-.04,.62-.14,.92m-.83-1.82c-.19-.18-.41-.28-.68-.28-.23,0-.44,.05-.63,.16-.19,.11-.36,.25-.49,.43-.14,.18-.24,.39-.32,.63-.08,.24-.11,.49-.11,.74,0,.16,.02,.31,.05,.45,.03,.14,.09,.26,.16,.36,.08,.12,.2,.21,.34,.28s.29,.11,.44,.11c.03,0,.1,0,.19-.02,.1-.01,.21-.05,.33-.1,.12-.05,.25-.14,.39-.25,.13-.11,.25-.27,.36-.47,.11-.2,.18-.4,.22-.61,.04-.21,.06-.41,.05-.6-.01-.37-.11-.65-.3-.83"/><path class="f" d="M70.54,50.12h.7l-.12,.53h-.7l-.51,2.18c-.02,.07-.04,.16-.06,.26-.02,.11-.03,.19-.03,.25,0,.11,.03,.17,.1,.2,.06,.03,.13,.04,.2,.04,.02,0,.03,0,.06,0,.02,0,.04,0,.07,0,.03,0,.07,0,.12-.02,.05,0,.12-.02,.21-.04l-.12,.5c-.1,.05-.2,.08-.31,.09-.11,.02-.22,.03-.33,.03-.25,0-.42-.05-.52-.16-.1-.11-.14-.24-.14-.4,0-.1,0-.19,.03-.3,.02-.1,.04-.21,.07-.32l.53-2.32h-.64l.12-.53h.64l.29-1.25h.64l-.29,1.25Z"/><path class="f" d="M74.81,52.98c-.1,.25-.23,.46-.39,.62-.16,.16-.33,.29-.5,.38-.18,.09-.36,.15-.54,.18s-.34,.05-.48,.05c-.5,0-.89-.15-1.19-.45-.3-.3-.45-.71-.45-1.25,0-.3,.05-.6,.14-.89,.1-.3,.24-.56,.42-.8,.19-.24,.42-.43,.69-.58s.59-.22,.95-.22c.26,0,.48,.04,.67,.12,.19,.08,.34,.19,.47,.34,.12,.14,.21,.32,.27,.52,.06,.2,.09,.42,.09,.66,0,.12,0,.22-.02,.29-.01,.08-.02,.15-.03,.23h-2.99c0,.06,0,.11-.01,.15,0,.05,0,.09,0,.14,0,.25,.04,.46,.13,.61,.08,.16,.19,.28,.31,.37,.12,.09,.24,.15,.37,.18,.13,.03,.24,.05,.33,.05,.16,0,.3-.03,.43-.08,.22-.09,.39-.2,.49-.34,.1-.14,.17-.27,.22-.39l.63,.11Zm-.5-1.28s0-.07,0-.09v-.08c0-.16-.03-.31-.08-.43-.05-.12-.12-.23-.2-.31-.08-.08-.18-.14-.29-.19-.11-.04-.21-.06-.32-.06-.07,0-.17,.01-.3,.04-.12,.03-.25,.08-.39,.17-.13,.08-.26,.2-.39,.36-.12,.15-.23,.35-.31,.6h2.25Z"/><path class="f" d="M77.01,50.12l-.14,.58s.1-.11,.18-.18c.08-.08,.18-.15,.29-.22,.12-.07,.25-.14,.4-.19,.15-.06,.31-.08,.5-.08,.14,0,.27,.02,.41,.06,.14,.04,.26,.11,.37,.19,.11,.09,.2,.19,.26,.32,.07,.13,.1,.28,.1,.45,0,.08,0,.17-.02,.26-.01,.09-.04,.23-.07,.41l-.55,2.41h-.66l.57-2.47c.03-.11,.04-.2,.05-.27,0-.07,0-.14,0-.2,0-.07-.01-.15-.03-.22-.02-.08-.06-.14-.11-.2-.06-.06-.13-.11-.21-.15-.09-.04-.2-.06-.33-.06-.11,0-.24,.02-.39,.05-.14,.03-.29,.11-.44,.22-.08,.07-.16,.14-.22,.22s-.12,.18-.17,.28c-.05,.11-.09,.23-.14,.36-.04,.13-.08,.28-.12,.46l-.46,1.97h-.67l.92-3.99h.67Z"/><path class="f" d="M81.59,50.12h.7l-.12,.53h-.7l-.51,2.18c-.02,.07-.04,.16-.06,.26-.02,.11-.03,.19-.03,.25,0,.11,.03,.17,.1,.2,.06,.03,.13,.04,.2,.04,.02,0,.03,0,.06,0,.02,0,.04,0,.07,0,.03,0,.07,0,.12-.02,.05,0,.12-.02,.21-.04l-.12,.5c-.1,.05-.2,.08-.31,.09-.11,.02-.22,.03-.33,.03-.25,0-.42-.05-.52-.16-.1-.11-.14-.24-.14-.4,0-.1,0-.19,.03-.3,.02-.1,.04-.21,.07-.32l.53-2.32h-.64l.12-.53h.64l.29-1.25h.64l-.29,1.25Z"/><path class="f" d="M83.73,50.12l-.92,3.99h-.68l.92-3.99h.67Zm.3-1.23h-.7l.18-.76h.7l-.18,.76Z"/><path class="f" d="M87.19,53.13c-.02,.08-.03,.14-.03,.17,0,.03,0,.06,0,.07,0,.05,.01,.1,.04,.14,.03,.05,.08,.07,.16,.07,.06,0,.12,0,.16-.02,.05-.01,.08-.03,.11-.04l-.13,.55s-.09,.02-.16,.04c-.07,.01-.15,.02-.24,.02-.11,0-.21-.02-.28-.05-.07-.03-.13-.08-.18-.12-.05-.05-.08-.1-.1-.16-.02-.06-.03-.11-.03-.16,0-.02,0-.04,0-.06s0-.04,0-.06c-.05,.07-.11,.16-.19,.25-.08,.09-.21,.18-.39,.26-.24,.11-.51,.16-.81,.16-.22,0-.41-.03-.56-.09-.15-.06-.27-.14-.36-.23-.09-.1-.16-.2-.2-.32-.04-.12-.06-.23-.06-.35,0-.15,.03-.29,.08-.43,.05-.14,.12-.26,.22-.37,.15-.18,.33-.31,.54-.38,.21-.07,.46-.13,.75-.18,.05,0,.13-.02,.25-.04,.12-.02,.26-.04,.4-.06,.14-.02,.28-.04,.41-.06,.13-.02,.22-.03,.27-.05,.02-.08,.04-.17,.06-.26,.02-.1,.03-.18,.03-.26,0-.14-.04-.25-.11-.33-.07-.08-.15-.14-.24-.17-.09-.04-.18-.06-.26-.06-.08,0-.14,0-.18,0-.2,0-.36,.03-.48,.08-.12,.06-.22,.13-.28,.21-.07,.09-.12,.17-.14,.27-.03,.09-.05,.18-.06,.25l-.75-.07c.04-.12,.1-.26,.17-.4,.07-.14,.17-.28,.3-.4,.13-.12,.3-.23,.51-.31,.21-.08,.48-.13,.8-.13,.2,0,.38,.02,.53,.06,.16,.04,.31,.1,.46,.2,.1,.06,.19,.15,.28,.26,.09,.11,.13,.26,.13,.46,0,.05,0,.12-.02,.21-.01,.09-.03,.2-.06,.33l-.36,1.57Zm-.44-.97c-.21,.03-.4,.05-.55,.07-.15,.02-.29,.04-.41,.06-.12,.02-.22,.05-.32,.08-.09,.03-.19,.07-.28,.11-.03,.01-.07,.03-.13,.06-.06,.03-.11,.07-.17,.12-.06,.05-.11,.11-.15,.19-.04,.08-.06,.18-.06,.29,0,.19,.07,.33,.2,.42,.14,.09,.29,.14,.47,.14,.11,0,.25-.03,.43-.08,.17-.05,.32-.13,.44-.23,.14-.12,.24-.25,.28-.38s.09-.26,.11-.37l.11-.48Z"/><polygon class="f" points="90.19 48.13 88.81 54.12 88.15 54.12 89.53 48.13 90.19 48.13"/><polygon class="f" points="96.96 50.71 96.82 51.32 93.93 51.32 93.28 54.12 92.53 54.12 93.91 48.12 97.78 48.12 97.63 48.76 94.51 48.76 94.06 50.71 96.96 50.71"/><path class="f" d="M98.67,50.12l-.92,3.99h-.68l.92-3.99h.67Zm.3-1.23h-.7l.18-.76h.7l-.18,.76Z"/><path class="f" d="M100.53,50.12l-.14,.58s.1-.11,.18-.18c.08-.08,.18-.15,.29-.22,.12-.07,.25-.14,.4-.19,.15-.06,.31-.08,.5-.08,.14,0,.27,.02,.41,.06,.14,.04,.26,.11,.37,.19,.11,.09,.2,.19,.26,.32,.07,.13,.1,.28,.1,.45,0,.08,0,.17-.02,.26-.01,.09-.04,.23-.07,.41l-.55,2.41h-.66l.57-2.47c.03-.11,.04-.2,.05-.27,0-.07,0-.14,0-.2,0-.07-.01-.15-.03-.22-.02-.08-.06-.14-.11-.2-.06-.06-.13-.11-.21-.15-.09-.04-.2-.06-.33-.06-.11,0-.24,.02-.39,.05-.14,.03-.29,.11-.44,.22-.08,.07-.16,.14-.22,.22s-.12,.18-.17,.28c-.05,.11-.09,.23-.14,.36-.04,.13-.08,.28-.12,.46l-.46,1.97h-.67l.92-3.99h.67Z"/><path class="f" d="M108.32,48.12l-1.39,5.99h-.65l.13-.54c-.16,.21-.34,.36-.55,.47s-.44,.15-.71,.15c-.33,0-.6-.06-.8-.18-.2-.12-.35-.27-.46-.45-.11-.18-.18-.36-.22-.56-.03-.19-.05-.37-.05-.51,0-.28,.05-.57,.14-.86,.09-.29,.23-.55,.41-.79s.41-.43,.68-.58c.27-.15,.59-.22,.96-.22,.22,0,.42,.03,.58,.09,.16,.06,.27,.12,.34,.19,.12,.11,.19,.2,.23,.29,.03,.09,.06,.18,.08,.28l.64-2.77h.66Zm-1.56,3.22c-.01-.12-.05-.24-.11-.35-.06-.12-.16-.21-.28-.3-.13-.08-.3-.12-.52-.12-.27,0-.49,.06-.69,.19-.19,.12-.35,.28-.47,.47-.12,.19-.22,.4-.28,.62-.06,.22-.09,.43-.09,.62,0,.41,.09,.7,.28,.9,.19,.19,.43,.29,.72,.29s.51-.08,.7-.22c.19-.15,.34-.33,.45-.55,.11-.21,.19-.44,.25-.67,.05-.23,.08-.43,.08-.6,0-.07,0-.17-.02-.29"/><path class="f" d="M108.87,52.63c-.01,.06-.02,.11-.03,.17-.01,.06-.02,.12-.02,.18,0,.17,.03,.3,.1,.39,.07,.1,.15,.17,.25,.22,.1,.05,.2,.08,.31,.1,.11,.01,.21,.02,.29,.02,.18,0,.33-.02,.46-.06,.13-.04,.23-.1,.31-.17,.08-.07,.14-.14,.18-.22,.04-.08,.06-.16,.06-.24,0-.15-.05-.26-.15-.34-.1-.08-.25-.16-.46-.24l-.7-.27c-.11-.05-.22-.1-.32-.15-.1-.06-.19-.12-.26-.2-.07-.08-.13-.16-.18-.26-.05-.1-.07-.21-.07-.34s.03-.27,.09-.42c.06-.14,.15-.27,.28-.38,.13-.11,.29-.21,.5-.28,.2-.07,.45-.11,.73-.11,.2,0,.38,.02,.56,.06,.17,.04,.32,.1,.45,.19,.13,.09,.23,.19,.3,.33,.07,.13,.11,.29,.11,.48,0,.03,0,.05,0,.07,0,.02,0,.05,0,.08l-.64,.11c.01-.06,.02-.11,.02-.14,0-.03,0-.06,0-.09,0-.14-.06-.28-.19-.4-.13-.13-.32-.19-.59-.19-.31,0-.53,.06-.68,.19s-.22,.27-.22,.41c0,.15,.06,.26,.17,.33s.26,.14,.43,.21l.65,.25c.12,.05,.23,.1,.34,.16,.11,.05,.2,.12,.28,.19,.08,.07,.14,.16,.19,.26,.05,.1,.07,.23,.07,.37s-.03,.29-.08,.43c-.05,.14-.14,.27-.24,.39-.11,.12-.22,.21-.35,.28-.12,.07-.25,.12-.38,.15-.13,.03-.26,.05-.38,.06-.12,0-.23,.01-.33,.01-.21,0-.42-.02-.61-.06-.19-.04-.36-.11-.5-.21-.14-.1-.25-.22-.34-.37-.08-.15-.13-.34-.13-.56,0-.06,0-.11,0-.15,0-.04,.01-.08,.02-.12l.68-.11Z"/><path class="f" d="M120.63,52.06c-.15,.41-.36,.78-.64,1.1-.28,.32-.62,.58-1.03,.77-.4,.19-.86,.29-1.38,.29-.44,0-.83-.08-1.16-.22-.33-.15-.61-.35-.82-.6-.22-.25-.38-.54-.49-.87-.11-.33-.17-.67-.17-1.03,0-.41,.06-.83,.19-1.25,.13-.42,.32-.79,.59-1.12,.27-.33,.6-.6,1.01-.81,.41-.21,.89-.31,1.45-.31,.46,0,.88,.08,1.24,.25,.36,.16,.65,.38,.86,.66,.2,.25,.35,.55,.44,.88,.1,.33,.14,.66,.14,.99,0,.44-.08,.87-.23,1.28m-.69-2.23c-.09-.26-.22-.48-.38-.67-.16-.18-.36-.32-.6-.42-.23-.1-.5-.14-.78-.14-.41,0-.77,.09-1.07,.26-.3,.17-.55,.4-.75,.67-.2,.27-.35,.58-.44,.93-.1,.34-.14,.69-.14,1.03s.05,.63,.14,.9c.1,.26,.23,.48,.39,.67s.36,.32,.59,.42c.23,.1,.48,.15,.75,.15,.34,0,.67-.07,.96-.22,.3-.14,.55-.35,.77-.61,.22-.26,.39-.57,.51-.92,.12-.35,.19-.74,.19-1.16,0-.33-.04-.63-.14-.89"/><path class="f" d="M122.6,50.62c.04-.06,.1-.12,.17-.18,.06-.06,.14-.13,.24-.19,.09-.06,.2-.11,.33-.15,.13-.04,.28-.06,.45-.06s.34,.03,.51,.08c.17,.06,.33,.15,.47,.27,.14,.13,.25,.29,.34,.49,.08,.2,.13,.45,.13,.74,0,.32-.05,.64-.14,.95-.1,.31-.23,.58-.42,.82-.18,.24-.4,.43-.66,.58-.26,.14-.55,.22-.88,.22-.05,0-.12,0-.22-.01-.09,0-.19-.03-.3-.07-.1-.04-.21-.09-.31-.17-.1-.08-.19-.18-.27-.32-.02-.03-.03-.06-.05-.09-.01-.03-.03-.06-.04-.09l-.58,2.5h-.66l1.35-5.82h.65l-.12,.5Zm1.84,.42c-.08-.14-.18-.25-.28-.31-.1-.07-.21-.11-.31-.13-.1-.02-.17-.03-.21-.03-.07,0-.15,0-.24,.03-.09,.02-.19,.05-.29,.1-.1,.05-.2,.13-.31,.22s-.19,.23-.28,.39c-.04,.08-.08,.17-.12,.28-.04,.11-.08,.23-.11,.35-.03,.13-.06,.25-.08,.38-.02,.13-.03,.25-.03,.37,0,.24,.04,.42,.13,.55,.08,.13,.18,.22,.29,.28,.11,.06,.21,.09,.31,.11,.1,.01,.16,.02,.19,.02,.23,0,.44-.06,.62-.18,.18-.12,.34-.28,.47-.47,.13-.19,.22-.41,.29-.65,.06-.24,.09-.48,.09-.73,0-.25-.05-.44-.13-.59"/><path class="f" d="M127.11,50.62c.04-.06,.1-.12,.17-.18,.06-.06,.14-.13,.24-.19,.09-.06,.2-.11,.33-.15,.13-.04,.28-.06,.45-.06s.34,.03,.51,.08c.17,.06,.33,.15,.47,.27,.14,.13,.25,.29,.34,.49,.08,.2,.13,.45,.13,.74,0,.32-.05,.64-.14,.95-.1,.31-.23,.58-.42,.82-.18,.24-.4,.43-.66,.58-.26,.14-.55,.22-.88,.22-.05,0-.12,0-.22-.01-.09,0-.19-.03-.3-.07-.1-.04-.21-.09-.31-.17-.1-.08-.19-.18-.27-.32-.02-.03-.03-.06-.05-.09-.01-.03-.03-.06-.04-.09l-.58,2.5h-.66l1.35-5.82h.65l-.12,.5Zm1.84,.42c-.08-.14-.18-.25-.28-.31-.1-.07-.21-.11-.31-.13-.1-.02-.17-.03-.21-.03-.07,0-.15,0-.24,.03-.09,.02-.19,.05-.29,.1-.1,.05-.2,.13-.31,.22s-.19,.23-.28,.39c-.04,.08-.08,.17-.12,.28-.04,.11-.08,.23-.11,.35-.03,.13-.06,.25-.08,.38-.02,.13-.03,.25-.03,.37,0,.24,.04,.42,.13,.55,.08,.13,.18,.22,.29,.28,.11,.06,.21,.09,.31,.11,.1,.01,.16,.02,.19,.02,.23,0,.44-.06,.62-.18,.18-.12,.34-.28,.47-.47,.13-.19,.22-.41,.29-.65,.06-.24,.09-.48,.09-.73,0-.25-.05-.44-.13-.59"/><path class="f" d="M134.07,52.64c-.1,.3-.24,.56-.43,.79-.19,.23-.42,.42-.7,.56-.28,.14-.59,.21-.93,.21-.24,0-.47-.04-.67-.12-.21-.08-.38-.19-.53-.34-.15-.15-.27-.33-.35-.55-.08-.22-.13-.46-.13-.73,0-.35,.06-.68,.17-.97,.11-.3,.27-.56,.47-.78,.2-.22,.44-.39,.71-.51,.27-.12,.56-.18,.87-.18,.2,0,.4,.03,.6,.1s.37,.17,.53,.31c.16,.14,.28,.32,.38,.53,.1,.21,.15,.47,.16,.77,0,.32-.04,.62-.14,.92m-.83-1.82c-.19-.18-.41-.28-.68-.28-.23,0-.44,.05-.63,.16-.19,.11-.36,.25-.49,.43-.14,.18-.24,.39-.32,.63-.08,.24-.11,.49-.11,.74,0,.16,.02,.31,.05,.45,.03,.14,.09,.26,.16,.36,.08,.12,.2,.21,.34,.28,.14,.07,.29,.11,.44,.11,.03,0,.1,0,.19-.02,.1-.01,.21-.05,.33-.1,.12-.05,.25-.14,.39-.25,.13-.11,.25-.27,.36-.47,.11-.2,.18-.4,.22-.61,.04-.21,.06-.41,.05-.6-.01-.37-.11-.65-.3-.83"/><path class="f" d="M137.26,50.68c-.11,0-.23,0-.35,0-.12,.01-.25,.06-.39,.14-.13,.08-.24,.18-.33,.3-.09,.12-.17,.25-.23,.39-.06,.14-.11,.27-.14,.39-.03,.13-.06,.24-.08,.33l-.43,1.88h-.64l.92-3.99h.65l-.16,.7c.05-.09,.1-.17,.14-.23,.05-.06,.13-.14,.25-.25,.07-.06,.16-.13,.28-.2,.12-.07,.28-.11,.5-.11h.08s.06,0,.08,0l-.14,.63Z"/><path class="f" d="M139.07,50.12h.7l-.12,.53h-.7l-.51,2.18c-.02,.07-.04,.16-.06,.26-.02,.11-.03,.19-.03,.25,0,.11,.03,.17,.1,.2,.06,.03,.13,.04,.2,.04,.02,0,.03,0,.06,0,.02,0,.04,0,.07,0,.03,0,.07,0,.12-.02,.05,0,.12-.02,.21-.04l-.12,.5c-.1,.05-.2,.08-.31,.09-.11,.02-.22,.03-.33,.03-.25,0-.42-.05-.52-.16-.1-.11-.14-.24-.14-.4,0-.1,0-.19,.03-.3,.02-.1,.04-.21,.07-.32l.53-2.32h-.64l.12-.53h.64l.29-1.25h.64l-.29,1.25Z"/><path class="f" d="M143.87,50.12l-.92,3.99h-.64l.14-.63c-.06,.07-.13,.15-.2,.22-.07,.07-.17,.15-.3,.23-.15,.08-.3,.15-.47,.19-.17,.04-.33,.06-.49,.06-.32,0-.59-.08-.79-.25-.21-.17-.31-.39-.31-.68,0-.04,0-.08,0-.11,0-.04,0-.08,.02-.13,0-.05,.02-.12,.04-.19,.02-.08,.04-.18,.07-.31l.54-2.38h.67l-.54,2.37c-.02,.11-.04,.19-.05,.26-.01,.06-.02,.12-.03,.16,0,.04,0,.07-.01,.1,0,.03,0,.05,0,.08,0,.1,.02,.19,.06,.27,.05,.07,.12,.14,.23,.2,.11,.06,.25,.09,.42,.09,.13,0,.25-.02,.39-.06,.14-.04,.26-.09,.37-.17,.12-.08,.23-.17,.31-.28,.08-.11,.15-.23,.2-.36,.05-.13,.1-.27,.14-.42,.04-.15,.08-.31,.11-.48l.41-1.76h.64Z"/><path class="f" d="M145.71,50.12l-.14,.58s.1-.11,.18-.18c.08-.08,.18-.15,.29-.22,.12-.07,.25-.14,.4-.19,.15-.06,.31-.08,.5-.08,.14,0,.27,.02,.41,.06,.14,.04,.26,.11,.37,.19,.11,.09,.2,.19,.26,.32,.07,.13,.1,.28,.1,.45,0,.08,0,.17-.02,.26-.01,.09-.04,.23-.07,.41l-.55,2.41h-.66l.57-2.47c.03-.11,.04-.2,.05-.27,0-.07,0-.14,0-.2,0-.07-.01-.15-.03-.22-.02-.08-.06-.14-.11-.2-.06-.06-.13-.11-.21-.15-.09-.04-.2-.06-.33-.06-.11,0-.24,.02-.39,.05-.14,.03-.29,.11-.44,.22-.08,.07-.16,.14-.22,.22s-.12,.18-.17,.28c-.05,.11-.09,.23-.14,.36-.04,.13-.08,.28-.12,.46l-.46,1.97h-.67l.92-3.99h.67Z"/><path class="f" d="M150.22,50.12l-.92,3.99h-.68l.92-3.99h.67Zm.3-1.23h-.7l.18-.76h.7l-.18,.76Z"/><path class="f" d="M152.16,50.12h.7l-.12,.53h-.7l-.51,2.18c-.02,.07-.04,.16-.06,.26-.02,.11-.03,.19-.03,.25,0,.11,.03,.17,.1,.2,.06,.03,.13,.04,.2,.04,.02,0,.03,0,.06,0,.02,0,.04,0,.07,0,.03,0,.07,0,.12-.02,.05,0,.12-.02,.21-.04l-.12,.5c-.1,.05-.2,.08-.31,.09-.11,.02-.22,.03-.33,.03-.25,0-.42-.05-.52-.16-.1-.11-.14-.24-.14-.4,0-.1,0-.19,.03-.3,.02-.1,.04-.21,.07-.32l.53-2.32h-.64l.12-.53h.64l.29-1.25h.64l-.29,1.25Z"/><path class="f" d="M156.67,50.12l-3.02,5.1c-.1,.15-.18,.27-.25,.38-.07,.11-.16,.2-.25,.27s-.2,.12-.33,.16c-.12,.03-.28,.05-.47,.05-.13,0-.22,0-.28,0-.06,0-.11-.02-.18-.03l.14-.58c.09,.02,.19,.03,.31,.03,.04,0,.1,0,.17-.01,.07,0,.15-.04,.25-.1,.03-.02,.07-.04,.11-.08,.04-.04,.07-.08,.1-.12,.03-.04,.06-.08,.08-.13,.03-.04,.05-.08,.06-.1l.53-.9-.44-3.93h.65l.31,3.19,1.76-3.19h.74Z"/></g></g></svg>