<?xml version="1.0" encoding="UTF-8"?><svg id="a" xmlns="http://www.w3.org/2000/svg" xmlns:xlink="http://www.w3.org/1999/xlink" viewBox="0 0 868.12 70.88"><defs><style>.e{fill:#5f6163;}.f{fill:#507033;}.g{fill:#7bc143;}.h{fill:url(#d);}.i{fill:#5d9741;}</style><linearGradient id="d" x1="-1569.08" y1="-3156.26" x2="-1498.15" y2="-3156.26" gradientTransform="translate(-2722.2 1569.08) rotate(90)" gradientUnits="userSpaceOnUse"><stop offset="0" stop-color="#fff" stop-opacity="0"/><stop offset=".14" stop-color="#fff" stop-opacity="0"/><stop offset=".27" stop-color="#fff" stop-opacity=".06"/><stop offset=".39" stop-color="#fff" stop-opacity=".13"/><stop offset=".51" stop-color="#fff" stop-opacity=".23"/><stop offset=".63" stop-color="#fff" stop-opacity=".36"/><stop offset=".74" stop-color="#fff" stop-opacity=".52"/><stop offset=".86" stop-color="#fff" stop-opacity=".71"/><stop offset=".96" stop-color="#fff" stop-opacity=".92"/><stop offset="1" stop-color="#fff"/></linearGradient></defs><g id="b"><g id="c"><polygon class="h" points="0 70.93 0 0 868.12 0 868.12 70.93 0 70.93"/></g></g><rect class="i" x="214.55" y="19.47" width=".37" height="31.93"/><g><path class="e" d="M230.54,35.4c-.12,.24-.27,.44-.47,.6s-.44,.28-.7,.36c-.27,.08-.55,.12-.86,.12h-.91v1.64h-1.2v-5.45h2.22c.33,0,.62,.04,.87,.13,.26,.09,.48,.22,.65,.39s.32,.36,.41,.6,.14,.49,.14,.76v.02c0,.33-.07,.6-.18,.84h.03Zm-1.04-.83c0-.27-.08-.48-.26-.61-.18-.14-.41-.21-.71-.21h-.92v1.66h.95c.3,0,.54-.08,.7-.24s.25-.35,.25-.59v-.02h0Z"/><path class="e" d="M242.22,38.12l-1.17-1.75h-.94v1.75h-1.2v-5.45h2.49c.65,0,1.15,.16,1.51,.48s.54,.76,.54,1.33v.02c0,.44-.11,.8-.32,1.07-.22,.28-.5,.48-.85,.61l1.33,1.95h-1.39Zm.02-3.6c0-.26-.08-.45-.25-.58s-.39-.19-.69-.19h-1.19v1.56h1.22c.29,0,.52-.07,.68-.21s.24-.33,.24-.56v-.02h0Z"/><path class="e" d="M251.9,38.12v-5.45h1.2v5.45h-1.2Z"/><path class="e" d="M265.59,38.12l-2.64-3.46v3.46h-1.18v-5.45h1.11l2.55,3.35v-3.35h1.18v5.45h-1.02Z"/><path class="e" d="M277.69,33.78v4.34h-1.2v-4.34h-1.65v-1.11h4.52v1.11h-1.67Z"/><path class="e" d="M301.36,35.4c-.12,.24-.27,.44-.47,.6s-.44,.28-.7,.36-.55,.12-.86,.12h-.91v1.64h-1.2v-5.45h2.22c.33,0,.62,.04,.87,.13,.26,.09,.48,.22,.65,.39,.18,.17,.32,.36,.41,.6s.14,.49,.14,.76v.02c0,.33-.06,.6-.18,.84h.03Zm-1.04-.83c0-.27-.08-.48-.26-.61-.18-.14-.41-.21-.71-.21h-.92v1.66h.95c.3,0,.54-.08,.7-.24,.17-.16,.25-.35,.25-.59v-.02h-.01Z"/><path class="e" d="M315.06,36.49c-.14,.34-.34,.64-.6,.9s-.56,.46-.92,.6c-.35,.15-.74,.22-1.16,.22s-.81-.08-1.16-.22c-.35-.15-.65-.34-.92-.6s-.45-.55-.6-.89-.21-.71-.21-1.09v-.02c0-.39,.08-.76,.22-1.09,.14-.34,.34-.64,.6-.9s.56-.46,.92-.6c.35-.15,.74-.22,1.17-.22s.81,.08,1.16,.22c.35,.15,.65,.34,.92,.6s.45,.55,.6,.89c.14,.34,.21,.71,.21,1.09v.02c0,.39-.08,.75-.23,1.09Zm-1.03-1.1c0-.24-.04-.45-.12-.66s-.19-.39-.34-.55-.32-.28-.53-.37-.42-.13-.66-.13-.46,.04-.66,.13-.37,.21-.51,.37-.25,.34-.34,.54-.12,.42-.12,.65v.02c0,.24,.04,.45,.12,.66s.19,.39,.34,.55c.15,.15,.32,.28,.52,.37,.2,.09,.42,.13,.66,.13s.46-.04,.66-.13c.2-.08,.38-.21,.52-.37s.25-.34,.34-.54,.12-.43,.12-.65v-.02h0Z"/><path class="e" d="M326.97,38.12l-1.17-1.75h-.94v1.75h-1.2v-5.45h2.49c.65,0,1.15,.16,1.51,.48,.36,.32,.54,.76,.54,1.33v.02c0,.44-.11,.8-.32,1.07-.22,.28-.5,.48-.84,.61l1.33,1.95h-1.4Zm.03-3.6c0-.26-.08-.45-.25-.58s-.39-.19-.7-.19h-1.19v1.56h1.22c.29,0,.52-.07,.68-.21s.24-.33,.24-.56v-.02h0Z"/><path class="e" d="M339.06,33.78v4.34h-1.2v-4.34h-1.65v-1.11h4.52v1.11h-1.67Z"/><path class="e" d="M353.01,38.12l-.5-1.23h-2.3l-.5,1.23h-1.23l2.33-5.48h1.11l2.33,5.48h-1.24Zm-1.65-4.05l-.72,1.76h1.44l-.72-1.76Z"/><path class="e" d="M362.41,38.12v-5.45h1.2v4.37h2.71v1.08h-3.91Z"/></g><g><path class="f" d="M28.74,53.35c-9.74,0-17.66-5.28-17.66-11.77s7.92-11.77,17.66-11.77,17.66,5.28,17.66,11.77-7.92,11.77-17.66,11.77Zm0-21.41c-8.52,0-15.53,4.36-15.53,9.64s7,9.64,15.53,9.64,15.53-4.36,15.53-9.64-6.9-9.64-15.53-9.64Z"/><path class="i" d="M21.64,51.73c-2.94,0-5.58-1.01-7.51-2.84-2.44-2.44-3.45-5.89-2.84-9.94,.61-3.86,2.64-7.81,5.78-10.96,3.86-3.96,8.83-6.29,13.39-6.29,2.94,0,5.58,1.01,7.51,2.84,2.44,2.44,3.45,5.89,2.84,9.94-.61,3.86-2.64,7.81-5.78,10.96-3.86,3.96-8.83,6.29-13.39,6.29Zm8.83-27.91c-3.96,0-8.42,2.13-11.87,5.58-2.84,2.94-4.67,6.39-5.18,9.84-.51,3.35,.3,6.19,2.23,8.12,1.52,1.42,3.55,2.23,5.99,2.23,3.96,0,8.42-2.13,11.87-5.58,2.84-2.94,4.67-6.39,5.18-9.84,.51-3.35-.3-6.19-2.23-8.12-1.52-1.42-3.55-2.23-5.99-2.23Z"/><path class="e" d="M65.47,34.78h2.64c1.12-.1,2.13-.41,2.94-.81,1.52-.91,2.33-2.33,2.33-4.26s-.71-3.45-2.23-4.57c-.61-.51-1.42-.81-2.23-1.01s-2.03-.3-3.75-.3h-9.64v.41h.1c.71,0,1.22,.2,1.62,.41,.41,.2,.81,.51,1.01,.91,.2,.3,.3,.71,.41,1.22,.1,.51,.1,1.22,.1,2.13v11.57c0,1.12-.1,1.93-.2,2.44s-.3,.91-.71,1.32c-.3,.3-.61,.51-1.01,.71-.41,.1-.91,.2-1.52,.3v.41h10.15v-.41c-.61,0-1.12-.1-1.52-.3-.41-.1-.71-.41-1.01-.71-.3-.3-.51-.81-.71-1.32-.1-.51-.2-1.32-.2-2.44v-5.68h3.45Zm-3.15-10.55h2.94c.91,.1,1.62,.41,2.33,.91,.61,.51,1.01,1.01,1.32,1.83,.3,.71,.41,1.52,.41,2.44,0,1.52-.51,2.84-1.52,3.75-.41,.41-.91,.71-1.52,.81-.61,.2-1.42,.2-2.44,.2h-1.52v-9.94Zm11.87,7.92c.51,0,.91,.1,1.12,.3,.3,.1,.51,.41,.71,.71,.2,.3,.3,.61,.41,1.12,.1,.41,.1,1.22,.1,2.33v4.06c0,.91,0,1.73-.1,2.23,0,.51-.1,.91-.3,1.12-.2,.41-.41,.61-.71,.81-.3,.2-.71,.3-1.42,.41v.3h7.31v-.3c-.81-.2-1.42-.41-1.73-.71-.2-.2-.41-.51-.51-.81-.1-.41-.1-1.01-.1-1.73v-10.66l-4.77,.61v.2Zm4.46-7.2c.3-.3,.41-.61,.41-1.01s-.1-.71-.41-1.01-.61-.41-1.01-.41-.81,.1-1.01,.41c-.3,.3-.41,.61-.41,1.01s.1,.81,.41,1.01c.3,.3,.61,.41,1.12,.41,.3,0,.61-.1,.91-.41Zm3.65,6.9v.3c.51,0,.91,.1,1.12,.3,.3,.1,.51,.41,.71,.71,.2,.3,.3,.61,.41,1.12,.1,.41,.1,1.22,.1,2.33v4.06c0,.91,0,1.73-.1,2.23,0,.51-.1,.91-.3,1.12-.2,.41-.41,.61-.71,.81-.3,.2-.71,.3-1.42,.41v.3h7.31v-.3c-.81-.2-1.42-.41-1.73-.71-.2-.2-.41-.51-.51-.81s-.1-.91-.1-1.62v-4.26c0-1.01,.1-1.83,.2-2.44s.3-1.22,.61-1.62c.3-.51,.71-.91,1.32-1.22,.51-.3,1.12-.41,1.73-.41,.51,0,1.01,.1,1.52,.3,.41,.2,.81,.51,1.01,.91s.41,.81,.51,1.42,.1,1.52,.1,2.84v3.04c0,.91,0,1.73-.1,2.23,0,.51-.1,.91-.3,1.12-.2,.41-.41,.61-.71,.81-.3,.2-.71,.3-1.42,.41v.3h7.31v-.3c-.81-.2-1.42-.41-1.73-.71-.2-.2-.41-.51-.51-.81s-.1-.91-.1-1.62v-4.36c0-1.83,.3-3.15,.81-4.06,.61-1.01,1.62-1.52,2.94-1.52,1.22,0,2.13,.51,2.64,1.42,.2,.41,.41,.91,.41,1.42,.1,.61,.1,1.42,.1,2.64v3.15c0,.91,0,1.73-.1,2.23,0,.51-.1,.91-.3,1.12-.2,.41-.41,.61-.71,.81-.3,.2-.71,.3-1.42,.41v.3h7.31v-.3c-.81-.2-1.42-.41-1.73-.71-.2-.2-.41-.51-.51-.81s-.1-.91-.1-1.62v-6.8c0-1.12-.41-2.13-1.22-2.84-.81-.71-1.93-1.12-3.25-1.12-1.01,0-1.93,.2-2.74,.61-.81,.41-1.73,1.01-2.54,1.83-.51-.81-1.01-1.32-1.42-1.62-.71-.51-1.52-.81-2.54-.81-.91,0-1.83,.2-2.74,.61-.81,.41-1.62,.91-2.33,1.73-.1-.71-.2-1.52-.41-2.33l-4.36,.41Zm40.18,12.79c-.2,.1-.51,.2-.81,.2-.71,0-1.12-.41-1.32-1.22-.1-.41-.1-1.12-.1-2.13v-6.09c0-.81,0-1.32-.1-1.62-.2-.61-.61-1.22-1.32-1.62-.51-.3-1.12-.51-1.83-.71-.71-.2-1.42-.3-2.13-.3-.61,0-1.22,.1-1.83,.2-.61,.1-1.12,.3-1.62,.51-.81,.41-1.22,.81-1.22,1.42,0,.41,.1,.71,.41,.91,.2,.2,.61,.41,.91,.41,.61,0,1.01-.3,1.22-.81l.41-.91c.2-.41,.41-.71,.81-.91,.3-.2,.71-.3,1.22-.3,.41,0,.71,.1,1.12,.2,.3,.2,.61,.41,.81,.61,.51,.61,.71,1.52,.71,2.84,0,.61-.1,1.12-.2,1.42s-.41,.61-.71,.91c-.3,.2-.71,.41-1.12,.61s-1.12,.41-2.13,.61c-.81,.2-1.42,.41-1.83,.61s-.81,.51-1.12,.81c-.61,.61-.91,1.42-.91,2.33,0,1.01,.3,1.73,1.01,2.33,.71,.61,1.62,.91,2.84,.91,.91,0,1.73-.2,2.54-.61,.41-.2,.91-.61,1.62-1.32,.41,.61,.71,1.01,1.01,1.32,.51,.41,1.12,.61,1.93,.61,1.42,0,2.33-.61,2.74-1.73l-.3-.2c-.3,.3-.51,.61-.71,.71Zm-4.77-4.46c0,1.42-.2,2.44-.51,3.15-.2,.61-.61,1.01-1.12,1.32s-1.01,.51-1.52,.51c-.61,0-1.12-.2-1.52-.71s-.61-1.12-.61-1.83c0-.81,.3-1.62,.81-2.23,.2-.3,.51-.61,.81-.81,.3-.2,.81-.51,1.62-1.01,.71-.41,1.32-.81,1.93-1.32v2.94h.1Zm20.4,9.13c0,.1-.1,.1-.1,.1,0,.1-.1,.1-.2,.1h-.2l-.41-.1c-.41-.1-.81-.2-1.22-.2s-.81,.1-1.12,.2c-.41,.1-.71,.3-1.01,.51-.41,.3-.61,.71-.81,1.12-.2,.51-.3,1.01-.3,1.52,0,.71,.2,1.32,.51,1.93,.3,.51,.81,.91,1.42,1.12,.41,.1,.81,.2,1.22,.2s.81-.1,1.22-.2c.3-.1,.61-.3,.81-.61,.2-.3,.3-.71,.41-1.12h-.1c-.1,.41-.2,.81-.41,1.01-.2,.2-.41,.41-.61,.51-.3,.1-.61,.2-.91,.2-.71,0-1.22-.2-1.62-.71-.2-.3-.41-.61-.51-1.01s-.2-.81-.2-1.32c0-.61,.1-1.12,.3-1.52,.1-.3,.3-.61,.51-.81l.61-.61c.2-.1,.51-.2,.91-.2,.2,0,.41,0,.61,.1s.41,.2,.51,.3c.2,.2,.41,.41,.51,.71,.1,.1,.2,.41,.3,.61,0,0,0,.1,.1,.2h.1l-.1-2.03h-.2Zm2.94,3.15h.3c.1,0,.2,.1,.3,.1,.2,.1,.3,.3,.51,.71,.2,.3,.41,.71,.61,1.12l.3,.71s.1,.1,.1,.3h1.52v-.1c-.1,0-.2,0-.3-.1-.1,0-.1-.1-.2-.2s-.2-.3-.3-.61-.3-.71-.61-1.22c-.1-.2-.2-.41-.3-.51s-.1-.2-.2-.2c-.1-.1-.2-.2-.41-.2,.2,0,.41-.1,.51-.2,.1-.1,.3-.1,.41-.2,.41-.3,.51-.71,.51-1.12,0-.3-.1-.61-.2-.81-.2-.2-.41-.41-.71-.51s-.61-.2-1.12-.2h-2.94v.1c.2,0,.3,0,.41,.1,.1,0,.2,.1,.3,.2,.1,.1,.2,.2,.2,.41,0,.1,.1,.41,.1,.71v3.35c0,.3,0,.51-.1,.71,0,.1-.1,.3-.2,.41-.1,.1-.2,.1-.3,.2-.1,0-.2,.1-.41,.1v.1h2.94v-.1c-.2,0-.3,0-.41-.1-.1,0-.2-.1-.3-.2-.1-.1-.2-.2-.2-.41,0-.1-.1-.41-.1-.71v-1.62h.3Zm-.2-3.04h.2c.3,0,.61,0,.71,.1,.2,0,.3,.1,.41,.2,.2,.1,.3,.3,.41,.51,.1,.2,.1,.41,.1,.71,0,.41-.2,.81-.51,1.12-.1,.1-.3,.2-.51,.3-.2,0-.41,.1-.81,.1v-3.04h0Zm4.06-.1v.1c.2,0,.3,0,.41,.1,.1,0,.2,.1,.3,.2,.1,.1,.2,.2,.2,.41,0,.1,.1,.41,.1,.71v3.35c0,.3,0,.51-.1,.71,0,.1-.1,.3-.2,.41-.1,.1-.2,.1-.3,.2-.1,0-.2,.1-.41,.1v.1h5.48l.1-1.83h-.1c-.1,.3-.1,.51-.2,.71-.1,.2-.2,.3-.3,.41-.2,.2-.41,.3-.61,.41-.2,.1-.51,.1-.91,.1-.3,0-.61-.1-.81-.2-.2-.1-.41-.3-.51-.51-.1-.1-.1-.3-.1-.51v-1.93h.3c.2,0,.41,0,.51,.1,.1,0,.3,.1,.41,.2,.1,.1,.2,.2,.2,.41,.1,.1,.1,.3,.1,.61h.1v-2.44h-.1c0,.2-.1,.41-.1,.51s-.1,.2-.2,.3c-.1,.1-.2,.2-.3,.2s-.3,.1-.61,.1h-.3v-2.74h1.01c.3,0,.61,0,.81,.1,.2,0,.41,.1,.51,.2,.2,.1,.3,.3,.41,.41,.1,.2,.2,.41,.2,.61h.1l-.1-1.52h-4.97v-.1Zm5.78,6.19h3.35c.41,0,.81,0,1.12-.1,.51-.1,.91-.3,1.22-.71,.2-.2,.41-.51,.61-.91,.1-.41,.2-.81,.2-1.22,0-.61-.1-1.12-.41-1.62-.2-.51-.61-.91-1.01-1.22s-1.01-.51-1.62-.51h-3.55v.1c.3,0,.51,.1,.61,.2,.1,.1,.2,.2,.2,.41s.1,.41,.1,.71v3.35c0,.3,0,.51-.1,.71,0,.1-.1,.3-.2,.41-.1,.1-.2,.1-.3,.2-.1,0-.2,.1-.41,.1v.1h.2Zm2.54-6.09c.41,0,.71,0,1.01,.1,.51,.1,.91,.41,1.22,.81,.2,.3,.41,.61,.61,1.01,.1,.41,.2,.81,.2,1.22s-.1,.71-.2,1.12c-.1,.3-.3,.61-.51,.91-.2,.3-.41,.51-.71,.61s-.61,.2-.91,.2c-.41,0-.71-.1-.91-.41-.1-.1-.2-.2-.2-.41s-.1-.41-.1-.71v-4.57h.51v.1h0Zm4.77-.1v.1c.2,0,.3,0,.41,.1,.1,0,.2,.1,.3,.2,.1,.1,.2,.2,.2,.41v4.77c0,.1-.1,.3-.2,.41-.1,.1-.2,.1-.3,.2-.1,0-.2,.1-.41,.1v.1h2.94v-.1c-.2,0-.41,0-.51-.1s-.2-.1-.3-.3c-.1-.1-.1-.2-.1-.3v-4.46c0-.2,.1-.41,.2-.51,.1-.1,.2-.2,.3-.2s.2-.1,.41-.1v-.1h-2.94v-.2h0Zm5.78,4.77c0,.3,0,.51-.1,.71,0,.1-.1,.3-.2,.41-.1,.1-.2,.1-.3,.2-.1,0-.2,.1-.41,.1v.1h2.94v-.1c-.2,0-.3,0-.41-.1-.1,0-.2-.1-.3-.2-.1-.1-.2-.2-.2-.41,0-.1-.1-.41-.1-.71v-4.67c.71,0,1.12,0,1.42,.1,.3,.1,.61,.2,.81,.51,.2,.2,.3,.51,.41,.91h.1l-.1-1.73h-6.19l-.1,1.73h.1c.1-.41,.2-.61,.3-.91,.1-.2,.3-.41,.61-.51,.2-.1,.61-.2,1.01-.2h.61v4.77h.1Zm6.29-4.77v.1c.2,0,.3,0,.41,.1,.1,0,.2,.1,.3,.2,.1,.1,.2,.2,.2,.41v4.16c.1,.41,.2,.71,.51,.91,.41,.41,1.01,.51,1.93,.51,.81,0,1.42-.2,1.93-.61,.2-.2,.3-.3,.41-.51,.1-.2,.1-.51,.1-.91v-2.84c0-.3,0-.51,.1-.71,0-.1,.1-.3,.2-.41,.1-.1,.2-.2,.3-.2s.2-.1,.41-.1v-.1h-2.13v.1c.2,0,.3,0,.41,.1,.1,0,.2,.1,.3,.2,.1,.1,.2,.2,.2,.41,0,.1,.1,.41,.1,.71v3.45c0,.2-.1,.3-.1,.51-.1,.1-.1,.2-.3,.3-.2,.2-.41,.3-.71,.41-.3,.1-.61,.1-.91,.1s-.61-.1-.81-.2c-.2-.1-.41-.3-.51-.51s-.2-.3-.2-.51v-4.26c0-.2,.1-.3,.2-.41,.1-.1,.2-.2,.3-.2s.2-.1,.41-.1v-.1h-3.04Zm12.48,6.19h.2v-4.77c0-.3,0-.51,.1-.71,0-.1,.1-.3,.2-.41,.2-.2,.41-.3,.71-.3v-.1h-2.13v.1c.2,0,.3,0,.41,.1,.1,0,.2,.1,.3,.2,.1,.1,.2,.2,.2,.41,0,.1,.1,.41,.1,.71v3.35l-3.75-4.77h-1.73v.1c.2,0,.3,0,.41,.1,.1,0,.2,.1,.3,.2,.1,.1,.2,.2,.2,.41,0,.1,.1,.41,.1,.71v3.35c0,.3,0,.51-.1,.71,0,.1-.1,.3-.2,.41-.1,.1-.2,.1-.3,.2-.1,0-.2,.1-.41,.1v.1h2.13v-.1c-.2,0-.3,0-.41-.1-.1,0-.2-.1-.3-.2-.1-.1-.2-.2-.2-.41,0-.1-.1-.41-.1-.71v-3.96l4.26,5.28Zm1.62-6.19v.1c.2,0,.3,0,.41,.1,.1,0,.2,.1,.3,.2,.1,.1,.2,.2,.2,.41v4.77c0,.1-.1,.3-.2,.41-.1,.1-.2,.1-.3,.2-.1,0-.2,.1-.41,.1v.1h2.94v-.1c-.2,0-.41,0-.51-.1s-.2-.1-.3-.3c-.1-.1-.1-.2-.1-.3v-4.46c0-.2,.1-.41,.2-.51,.1-.1,.2-.2,.3-.2s.2-.1,.41-.1v-.1h-2.94v-.2h0Zm3.86,4.26c.1,.41,.3,.71,.61,1.01,.3,.41,.71,.61,1.12,.81,.41,.2,.91,.3,1.42,.3s.91-.1,1.42-.3c.41-.2,.81-.51,1.22-.91,.3-.3,.51-.61,.61-1.01s.2-.71,.2-1.12c0-.81-.3-1.52-.81-2.13-.3-.41-.71-.71-1.12-.91-.41-.2-.91-.3-1.32-.3s-.71,.1-1.12,.2-.71,.3-1.01,.51c-.41,.3-.71,.71-.91,1.12-.2,.41-.3,.91-.3,1.42-.2,.61-.2,1.01,0,1.32h0Zm1.12-2.44c.1-.41,.3-.81,.51-1.12,.2-.2,.41-.41,.61-.51,.2-.1,.51-.2,.81-.2s.61,.1,.81,.2c.2,.1,.41,.3,.61,.51,.2,.3,.41,.71,.61,1.12,.1,.41,.2,.91,.2,1.42,0,.91-.2,1.62-.71,2.23-.2,.3-.41,.51-.71,.61-.2,.1-.51,.2-.81,.2s-.61-.1-.81-.2c-.2-.1-.51-.3-.71-.61-.51-.61-.71-1.32-.71-2.23,.1-.51,.1-1.01,.3-1.42h0Zm11.47,4.36h.2v-4.77c0-.3,0-.51,.1-.71,0-.1,.1-.3,.2-.41,.2-.2,.41-.3,.71-.3v-.1h-2.13v.1c.2,0,.3,0,.41,.1,.1,0,.2,.1,.3,.2,.1,.1,.2,.2,.2,.41,0,.1,.1,.41,.1,.71v3.35l-3.75-4.77h-1.73v.1c.2,0,.3,0,.41,.1,.1,0,.2,.1,.3,.2,.1,.1,.2,.2,.2,.41,0,.1,.1,.41,.1,.71v3.35c0,.3,0,.51-.1,.71,0,.1-.1,.3-.2,.41-.1,.1-.2,.1-.3,.2-.1,0-.2,.1-.41,.1v.1h2.13v-.1c-.2,0-.3,0-.41-.1-.1,0-.2-.1-.3-.2-.1-.1-.2-.2-.2-.41,0-.1-.1-.41-.1-.71v-3.96l4.26,5.28Z"/><path class="i" d="M134.17,31.03h-3.04l.91-3.25c.51-1.83,1.62-5.78,4.36-5.78,.61,0,.91,.3,1.42,.91,.41,.51,.71,1.22,1.52,1.22,.71,0,.91-.71,.91-.91,0-1.01-1.22-2.03-3.15-2.03-5.28,0-7.1,5.99-8.02,9.94h-3.45l-.3,.81h3.45l-2.74,10.05c-2.13,8.02-3.86,11.37-6.9,11.37-1.22,0-1.42-.61-1.42-.91s.1-.51,.1-.81c0-.61-.51-1.32-1.32-1.32-.61,0-1.22,.51-1.22,1.32,0,1.62,2.33,2.44,3.96,2.44,5.78,0,8.02-8.02,9.03-11.87l2.74-10.35h3.04l.1-.81Zm6.7,10.25c-1.01,2.23-2.44,3.86-4.06,3.86-.2,0-1.73,0-1.73-2.23,0-.81,.3-2.13,.51-2.84,3.75-1.52,7.31-3.86,7.31-6.7,0-.61-.2-2.13-1.93-2.13-3.04,0-7.92,5.78-7.92,11.26,0,2.74,1.73,3.65,3.15,3.65,2.33,0,4.26-2.03,5.48-4.87h-.81Zm-5.07-2.03c1.42-5.07,3.55-7.1,4.67-7.1,.41,0,1.12,.2,1.12,1.32,0,2.03-3.45,4.77-5.78,5.78h0Zm20.09,3.25c-.71,1.22-1.83,2.33-2.44,2.33-.51,0-.61-.51-.61-.81,0-.51,.2-1.22,.41-2.23l5.99-19.58h-.3c-.91,.3-2.44,.71-4.06,.71l-.2,.71c1.42,0,1.83,0,1.83,.81,0,.1-.2,.81-.41,1.42l-2.03,6.8c-.41-.81-1.22-1.42-2.13-1.42-3.55,0-8.22,5.89-8.22,11.26,0,1.62,.71,3.65,2.74,3.65s3.65-2.23,4.46-3.04c-.2,2.23,.51,3.04,1.73,3.04,1.42,0,3.04-1.83,4.06-3.55h-.81v-.1h0Zm-10.25,.71c0-3.04,3.35-11.16,6.39-11.16,.91,0,1.52,.81,1.52,1.62,0,.61-.81,3.75-1.62,5.78-1.42,3.45-3.45,5.68-4.97,5.68-1.32,.1-1.32-1.62-1.32-1.93Zm20.19-1.93c-1.01,2.23-2.44,3.86-4.06,3.86-.2,0-1.73,0-1.73-2.23,0-.81,.3-2.13,.51-2.84,3.75-1.52,7.31-3.86,7.31-6.7,0-.61-.2-2.13-1.93-2.13-3.04,0-7.92,5.78-7.92,11.26,0,2.74,1.73,3.65,3.15,3.65,2.33,0,4.26-2.03,5.48-4.87h-.81Zm-4.97-2.03c1.42-5.07,3.55-7.1,4.67-7.1,.41,0,1.12,.2,1.12,1.32-.1,2.03-3.55,4.77-5.78,5.78h0Zm8.52-3.45c.51-1.22,1.62-3.45,2.64-3.45,.61,0,.51,.91,.51,1.01,0,1.01-.61,2.94-1.22,4.77l-2.33,7.61h2.03l.51-1.73c1.01-3.04,3.96-11.26,5.28-11.26,.2,0,.3,.2,.51,.41s.41,.41,.81,.41c.51,0,1.01-.41,1.01-1.12s-.51-1.32-1.32-1.32c-2.03,0-3.65,4.46-4.67,6.8,.2-1.01,.81-2.94,.81-4.46,0-1.73-.71-2.33-1.42-2.33-1.83,0-3.25,2.84-3.96,4.57h.81v.1h0Zm20.09-4.26l-.41,1.52c-.2-1.22-1.12-1.83-2.13-1.83-3.04,0-8.42,5.68-8.42,11.16,0,2.54,1.52,3.75,2.84,3.75,2.13,0,4.26-2.74,4.97-4.06-.3,.91-.41,1.73-.41,2.03,0,.81,.3,2.03,1.62,2.03s3.04-1.73,4.16-4.06h-.71c-.71,1.22-1.73,2.64-2.64,2.64-.51,0-.61-.41-.61-.71,0-.41,.41-1.93,.71-2.64l3.04-9.94h-2.03v.1Zm-8.93,11.37c0-2.94,3.45-10.76,6.49-10.76,.91,0,1.42,.71,1.42,1.73s-.91,4.57-2.33,7.41c-1.22,2.44-3.15,3.96-4.26,3.96-1.32-.1-1.32-1.52-1.32-2.33h0Zm18.87-1.32c-.91,2.23-2.23,3.55-3.04,3.55-.41,0-.81-.3-.81-1.12,0-.71,.41-2.13,.61-2.64l5.78-19.18h-.41c-1.01,.41-2.13,.61-4.16,.61l-.2,.71h.61c.81,0,1.42,0,1.42,.81,0,.51-.51,2.03-.61,2.33l-4.46,14.61c-.1,.3-.51,1.83-.51,2.64,0,1.12,.71,2.23,2.03,2.23,2.23,0,3.75-2.74,4.46-4.57h-.71Z"/><path class="e" d="M200.13,45.44c0-.2,0-.51,.1-.71s.2-.41,.41-.61,.41-.3,.61-.41c.2-.1,.51-.1,.71-.1s.51,0,.71,.1,.41,.2,.61,.41c.2,.2,.3,.3,.41,.61,.1,.2,.1,.41,.1,.71,0,.2,0,.51-.1,.71s-.2,.41-.41,.61-.3,.3-.61,.41c-.2,.1-.41,.1-.71,.1-.2,0-.51,0-.71-.1s-.41-.2-.61-.41c-.2-.2-.3-.3-.41-.61,0-.2-.1-.41-.1-.71Zm.2,0c0,.2,0,.41,.1,.61s.2,.41,.41,.51c.1,.1,.3,.3,.51,.3,.2,.1,.41,.1,.61,.1s.41,0,.61-.1c.2-.1,.41-.2,.51-.3,.1-.1,.3-.3,.3-.51,.1-.2,.1-.41,.1-.61s0-.41-.1-.61-.2-.41-.3-.51-.3-.3-.51-.41-.41-.1-.61-.1-.41,0-.61,.1c-.2,.1-.41,.2-.51,.41-.1,.1-.3,.3-.41,.51,0,.2-.1,.41-.1,.61Zm2.23,1.01l-.61-.91h-.41v.91h-.2v-2.03h.71c.2,0,.41,0,.51,.1s.2,.2,.2,.41-.1,.3-.2,.41c-.1,.1-.2,.1-.41,.1l.61,.91h-.2v.1Zm0-1.42c0-.2,0-.3-.1-.3-.1-.1-.2-.1-.3-.1h-.51v.81h.41c.2,0,.3,0,.41-.1,0-.1,.1-.2,.1-.3h0Z"/><path class="g" d="M20.72,52.13c-.41,0-.81,0-1.32-.1-6.6-1.01-10.76-10.15-9.13-20.4,1.52-9.44,7.41-16.54,13.7-16.54,.41,0,.81,0,1.32,.1,3.35,.51,6.09,2.94,7.71,6.9,1.62,3.75,2.13,8.52,1.32,13.39-1.42,9.54-7.31,16.64-13.6,16.64Zm3.25-34.91c-5.18,0-10.25,6.49-11.57,14.82-1.42,9.03,1.83,17.05,7.31,17.96,5.48,.91,11.16-5.99,12.58-14.82,.71-4.46,.3-8.83-1.22-12.28-1.42-3.25-3.55-5.28-6.19-5.68h-.91Z"/></g></svg>