<?xml version="1.0" encoding="UTF-8"?><svg id="a" xmlns="http://www.w3.org/2000/svg" xmlns:xlink="http://www.w3.org/1999/xlink" viewBox="0 0 868.12 70.88"><defs><style>.e{fill:#60504d;}.f{fill:url(#d);}.g{fill:#463738;}.h{fill:#b25c1a;}</style><linearGradient id="d" x1="-1569.08" y1="-3156.26" x2="-1498.15" y2="-3156.26" gradientTransform="translate(-2722.2 1569.08) rotate(90)" gradientUnits="userSpaceOnUse"><stop offset="0" stop-color="#fff" stop-opacity="0"/><stop offset=".14" stop-color="#fff" stop-opacity="0"/><stop offset=".27" stop-color="#fff" stop-opacity=".06"/><stop offset=".39" stop-color="#fff" stop-opacity=".13"/><stop offset=".51" stop-color="#fff" stop-opacity=".23"/><stop offset=".63" stop-color="#fff" stop-opacity=".36"/><stop offset=".74" stop-color="#fff" stop-opacity=".52"/><stop offset=".86" stop-color="#fff" stop-opacity=".71"/><stop offset=".96" stop-color="#fff" stop-opacity=".92"/><stop offset="1" stop-color="#fff"/></linearGradient></defs><g id="b"><g id="c"><polygon class="f" points="0 70.93 0 0 868.12 0 868.12 70.93 0 70.93"/></g></g><rect class="e" x="214.55" y="19.47" width=".37" height="31.93"/><g><path class="e" d="M230.54,35.4c-.12,.24-.27,.44-.47,.6s-.44,.28-.7,.36c-.27,.08-.55,.12-.86,.12h-.91v1.64h-1.2v-5.45h2.22c.33,0,.62,.04,.87,.13,.26,.09,.48,.22,.65,.39s.32,.36,.41,.6,.14,.49,.14,.76v.02c0,.33-.07,.6-.18,.84h.03Zm-1.04-.83c0-.27-.08-.48-.26-.61-.18-.14-.41-.21-.71-.21h-.92v1.66h.95c.3,0,.54-.08,.7-.24s.25-.35,.25-.59v-.02h0Z"/><path class="e" d="M242.22,38.12l-1.17-1.75h-.94v1.75h-1.2v-5.45h2.49c.65,0,1.15,.16,1.51,.48s.54,.76,.54,1.33v.02c0,.44-.11,.8-.32,1.07-.22,.28-.5,.48-.85,.61l1.33,1.95h-1.39Zm.02-3.6c0-.26-.08-.45-.25-.58s-.39-.19-.69-.19h-1.19v1.56h1.22c.29,0,.52-.07,.68-.21s.24-.33,.24-.56v-.02h0Z"/><path class="e" d="M251.9,38.12v-5.45h1.2v5.45h-1.2Z"/><path class="e" d="M265.59,38.12l-2.64-3.46v3.46h-1.18v-5.45h1.11l2.55,3.35v-3.35h1.18v5.45h-1.02Z"/><path class="e" d="M277.69,33.78v4.34h-1.2v-4.34h-1.65v-1.11h4.52v1.11h-1.67Z"/><path class="e" d="M301.36,35.4c-.12,.24-.27,.44-.47,.6s-.44,.28-.7,.36-.55,.12-.86,.12h-.91v1.64h-1.2v-5.45h2.22c.33,0,.62,.04,.87,.13,.26,.09,.48,.22,.65,.39,.18,.17,.32,.36,.41,.6s.14,.49,.14,.76v.02c0,.33-.06,.6-.18,.84h.03Zm-1.04-.83c0-.27-.08-.48-.26-.61-.18-.14-.41-.21-.71-.21h-.92v1.66h.95c.3,0,.54-.08,.7-.24,.17-.16,.25-.35,.25-.59v-.02h-.01Z"/><path class="e" d="M315.06,36.49c-.14,.34-.34,.64-.6,.9s-.56,.46-.92,.6c-.35,.15-.74,.22-1.16,.22s-.81-.08-1.16-.22c-.35-.15-.65-.34-.92-.6s-.45-.55-.6-.89-.21-.71-.21-1.09v-.02c0-.39,.08-.76,.22-1.09,.14-.34,.34-.64,.6-.9s.56-.46,.92-.6c.35-.15,.74-.22,1.17-.22s.81,.08,1.16,.22c.35,.15,.65,.34,.92,.6s.45,.55,.6,.89c.14,.34,.21,.71,.21,1.09v.02c0,.39-.08,.75-.23,1.09Zm-1.03-1.1c0-.24-.04-.45-.12-.66s-.19-.39-.34-.55-.32-.28-.53-.37-.42-.13-.66-.13-.46,.04-.66,.13-.37,.21-.51,.37-.25,.34-.34,.54-.12,.42-.12,.65v.02c0,.24,.04,.45,.12,.66s.19,.39,.34,.55c.15,.15,.32,.28,.52,.37,.2,.09,.42,.13,.66,.13s.46-.04,.66-.13c.2-.08,.38-.21,.52-.37s.25-.34,.34-.54,.12-.43,.12-.65v-.02h0Z"/><path class="e" d="M326.97,38.12l-1.17-1.75h-.94v1.75h-1.2v-5.45h2.49c.65,0,1.15,.16,1.51,.48,.36,.32,.54,.76,.54,1.33v.02c0,.44-.11,.8-.32,1.07-.22,.28-.5,.48-.84,.61l1.33,1.95h-1.4Zm.03-3.6c0-.26-.08-.45-.25-.58s-.39-.19-.7-.19h-1.19v1.56h1.22c.29,0,.52-.07,.68-.21s.24-.33,.24-.56v-.02h0Z"/><path class="e" d="M339.06,33.78v4.34h-1.2v-4.34h-1.65v-1.11h4.52v1.11h-1.67Z"/><path class="e" d="M353.01,38.12l-.5-1.23h-2.3l-.5,1.23h-1.23l2.33-5.48h1.11l2.33,5.48h-1.24Zm-1.65-4.05l-.72,1.76h1.44l-.72-1.76Z"/><path class="e" d="M362.41,38.12v-5.45h1.2v4.37h2.71v1.08h-3.91Z"/></g><g><g><path class="e" d="M198.37,34.07c0-1.46,0-3.06,.26-3.64,.13-.3,.44-.35,.79-.42l.42-.09c.15-.13,.11-.44-.04-.53-.66,.04-1.14,.06-1.94,.06-.72,0-1.4-.02-2.12-.06-.19,.06-.2,.41-.04,.53l.42,.06c.46,.06,.76,.19,.92,.46,.33,.55,.35,2.25,.35,3.64v3.6c0,.3,0,.39-.06,.44-.18-.11-1.9-2.07-2.68-2.92l-1.85-1.99c-.65-.7-2.66-3.03-2.97-3.82-.44,.04-.89,.06-1.27,.06-.46,0-1.48,.02-2.18-.06-.18,.06-.2,.42-.07,.53l.28,.06c.26,.06,.78,.2,.98,.37,.63,.54,.61,.83,.61,2.27v4.37c0,1.46,0,3.06-.24,3.64-.13,.3-.46,.35-.81,.42l-.41,.09c-.15,.13-.11,.44,.04,.53,.65-.04,1.14-.06,1.92-.06,.7,0,1.42,.02,2.1,.06,.18-.06,.2-.41,.04-.53l-.41-.06c-.46-.06-.78-.19-.94-.46-.31-.55-.33-2.25-.33-3.64v-3.6c0-.98,0-1.18,.06-1.18,.31,.28,.92,.96,2.1,2.33l4.32,4.93c1.33,1.51,1.86,2.14,2.16,2.53,.22,.02,.48-.06,.63-.26-.06-.43-.06-2.7-.06-3.25v-4.41Zm-18.87-4.19c2.93,0,4.19,3.23,4.19,6.02,0,3.71-1.7,5.28-3.8,5.28-3.16,0-4.25-3.47-4.25-6.02,0-3.93,2.01-5.28,3.86-5.28m.24-.74c-3.88,0-6.61,2.79-6.61,6.55,0,3.29,2.4,6.22,6.57,6.22,3.73,0,6.5-2.71,6.5-6.35,0-3.36-2.2-6.42-6.46-6.42m-12.08,12.77c2.68,0,4.28-1.5,4.28-3.6,0-1.86-1.33-3.01-2.53-3.64l-1.14-.61c-1.22-.65-1.75-1.48-1.75-2.25,0-.98,.61-1.94,2.09-1.94,1.57,0,2.22,1.24,2.49,2.2,.17,.13,.5,.11,.59-.06,0-.87-.18-2.09-.39-2.49-.87-.17-1.57-.39-2.53-.39-2.7,0-4.06,1.55-4.06,3.38,0,1.66,1.22,2.79,2.6,3.56l.79,.44c1.38,.78,1.88,1.62,1.88,2.68,0,1.13-.79,1.98-2.2,1.98-1.81,0-2.81-1.98-3.14-2.92-.15-.13-.46-.11-.57,.07-.02,1.15,.22,2.42,.55,2.81,.37,.22,1.33,.78,3.03,.78m-5.24-12.26c-.17-.04-.3-.06-.52-.11-.87-.22-2.14-.41-3.19-.41-1.86,0-3.73,.53-5.09,1.57-1.37,1.05-2.33,2.73-2.33,4.89,0,2.42,1.13,4.1,2.62,5.08,1.33,.87,2.9,1.24,4.73,1.24,1.2,0,2.47-.31,2.88-.44,.2-.06,.42-.13,.65-.17,.26-.35,.76-1.57,.89-2.81-.09-.17-.39-.24-.55-.07-.52,1.2-1.53,2.75-3.86,2.75s-4.84-1.92-4.84-5.85,2.36-5.45,4.71-5.45,3.27,1.53,3.58,2.7c.13,.13,.46,.11,.59-.04-.18-1.37-.22-2.46-.26-2.88m-22.67,7.13c0,1.86,.39,3.16,1.22,3.95,.85,.81,2.07,1.18,3.8,1.18,1.27,0,2.66-.35,3.62-1.38,.96-1.03,1.22-2.58,1.22-4.26v-2.2c0-1.46,0-3.08,.26-3.64,.13-.3,.46-.37,.81-.44l.41-.09c.15-.13,.11-.43-.04-.52-.68,.04-1.18,.06-1.96,.06-.72,0-1.42-.02-2.05-.06-.18,.06-.2,.39-.04,.52l.37,.06c.46,.07,.76,.2,.92,.48,.33,.54,.35,2.25,.35,3.64v2.31c0,2.81-1,4.63-3.42,4.63-2.57,0-3.34-2.14-3.34-4.69v-4.23c0-1.96,.17-2.03,1.03-2.14l.41-.06c.13-.13,.11-.44-.04-.52-.81,.04-1.64,.06-2.47,.06s-1.64-.02-2.38-.06c-.15,.07-.17,.39-.04,.52l.31,.06c.87,.15,1.03,.18,1.03,2.14v4.69Zm-9.14,2.18c0,1.96-.17,1.97-1.03,2.09l-.78,.09c-.13,.09-.11,.46,.04,.53,1.18-.04,2.05-.06,2.87-.06s1.64,.02,2.71,.06c.15-.07,.17-.41,.04-.53l-.66-.07c-.87-.09-1.03-.15-1.03-2.1v-7.98c0-.78,.02-.81,.5-.81h1.05c1.98,0,2.33,.35,2.57,1.79,.17,.13,.48,.09,.57-.06-.06-.59,.09-2.18,.28-2.93-.04-.06-.13-.09-.24-.09-.07,0-.15,.04-.22,.07-.22,.43-.5,.48-1.4,.48h-7.54c-1.26,0-1.51-.02-1.61-.48-.04-.06-.11-.07-.18-.07-.09,0-.17,.02-.2,.07-.13,.65-.41,1.79-.72,2.79,.07,.18,.46,.24,.59,.13,.68-1.5,1.18-1.7,2.88-1.7h1.03c.48,0,.5,.04,.5,.81v7.98Zm-18.24-2.7c-.44,0-.48,0-.3-.53l.78-2.16c.31-.87,.48-1.33,.55-1.46h.04c.09,.13,.18,.48,.52,1.46l.78,2.22c.15,.44,.07,.48-.44,.48h-1.92Zm2.16,.83c.52,0,.59,0,.76,.5l.87,2.51c.28,.78,.18,.89-.48,.98l-.41,.06c-.11,.11-.09,.44,.06,.53,.65-.02,1.46-.06,2.25-.06,.96,0,1.64,.02,2.4,.06,.13-.09,.13-.41-.02-.53l-.28-.06c-.94-.19-1.03-.3-1.46-1.53l-2.66-7.74c-.3-.83-.54-1.7-.83-2.53-.07-.09-.17-.15-.31-.15-.04,0-.65,.76-1.29,.89,.06,.31-.13,.76-.35,1.35l-2.53,6.57c-.39,1-.68,1.77-.9,2.25-.28,.61-.48,.76-1.02,.85l-.55,.09c-.13,.17-.11,.44,.02,.53,.65-.04,1.22-.06,1.83-.06,.76,.02,1.37,.02,1.96,.06,.15-.07,.17-.41,.04-.53l-.54-.09c-.68-.11-.76-.15-.39-1.24l.76-2.22c.17-.5,.15-.5,.63-.5h2.46Zm-14.93-6.07c0-.85,.02-.9,.98-.9,1.61,0,2.55,1.27,2.55,2.73,0,1.75-.83,2.64-2.64,2.64-.89,0-.89-.04-.89-.63v-3.84Zm-2.14,7.94c0,1.96-.17,2.01-1.03,2.12l-.41,.06c-.17,.13-.11,.46,.04,.53,.85-.04,1.68-.06,2.49-.06s1.64,.02,2.46,.06c.15-.07,.17-.41,.04-.53l-.41-.06c-.87-.11-1.03-.17-1.03-2.12v-2.36c0-.39,.02-.41,.57-.41,.61,0,.81,.07,1.14,.63,.44,.72,.96,1.74,1.46,2.51,1.13,1.72,2.09,2.44,3.86,2.44,.65,0,1-.06,1.22-.11,.06-.09,.06-.3-.04-.37-.22-.02-.76-.13-1.27-.57-.87-.72-1.79-2.29-3.27-4.78-.07-.11-.11-.26,0-.31,.9-.37,2.22-1.22,2.22-2.92,0-1.33-.68-2.2-1.62-2.69-.81-.44-2.07-.63-3.51-.63-1.51,0-3.08,.06-4.25,.17-.15,.09-.15,.39-.02,.52l.48,.06c.87,.09,.89,.31,.89,2.09v6.76Zm-10.22-7.94c0-.85,.02-.9,.98-.9,1.61,0,2.55,1.27,2.55,2.73,0,1.75-.83,2.64-2.64,2.64-.89,0-.89-.04-.89-.63v-3.84Zm-2.14,7.94c0,1.96-.17,2.01-1.03,2.12l-.41,.06c-.17,.13-.11,.46,.04,.53,.85-.04,1.68-.06,2.49-.06s1.64,.02,2.46,.06c.15-.07,.17-.41,.04-.53l-.41-.06c-.87-.11-1.03-.17-1.03-2.12v-2.36c0-.39,.02-.41,.57-.41,.61,0,.81,.07,1.14,.63,.44,.72,.96,1.74,1.46,2.51,1.13,1.72,2.09,2.44,3.86,2.44,.65,0,1-.06,1.22-.11,.06-.09,.06-.3-.04-.37-.22-.02-.76-.13-1.27-.57-.87-.72-1.79-2.29-3.27-4.78-.07-.11-.11-.26,0-.31,.9-.37,2.21-1.22,2.21-2.92,0-1.33-.68-2.2-1.62-2.69-.81-.44-2.07-.63-3.51-.63-1.51,0-3.08,.06-4.25,.17-.15,.09-.15,.39-.02,.52l.48,.06c.87,.09,.89,.31,.89,2.09v6.76Zm-11.08,0c0,1.96-.17,2.01-1.03,2.1l-.68,.07c-.13,.13-.11,.46,.04,.53,.83-.04,1.96-.06,2.77-.06h2.1c2.16,0,3.75,.02,4.56,.06,.26-.5,.66-1.9,.78-2.68-.11-.18-.42-.24-.59-.11-.65,1.5-1.05,2.01-3.4,1.99-1.55-.02-1.86-.15-2.09-.41-.28-.31-.31-.98-.31-1.92v-2.34c0-.46,.02-.5,.44-.5h.89c1.61,0,1.92,.04,2.05,.81l.13,.74c.15,.11,.5,.11,.59-.02-.02-.59-.06-1.24-.06-1.94s.04-1.35,.06-1.85c-.09-.15-.44-.15-.59-.02l-.13,.63c-.17,.79-.44,.81-2.05,.81h-.89c-.42,0-.44-.02-.44-.5v-3.12c0-1.05,0-1.09,.79-1.09h1.24c.5,0,1.05,.06,1.48,.17,.59,.17,.87,.61,1.16,1.68,.15,.11,.52,.07,.59-.07-.11-.79-.22-2.25-.3-2.57-.24,.04-1.31,.06-2.49,.06h-3.53c-.81,0-1.68-.02-2.38-.06-.15,.07-.17,.41-.04,.53l.3,.04c.87,.11,1.03,.18,1.03,2.14v6.87Zm-5.14-6.87c0-1.96,.17-2.01,1.03-2.12l.41-.06c.13-.13,.11-.46-.04-.53-.81,.04-1.64,.06-2.46,.06s-1.68-.02-2.49-.06c-.15,.07-.17,.41-.04,.53l.41,.06c.87,.11,1.03,.17,1.03,2.12v6.87c0,1.96-.17,2.01-1.03,2.12l-.41,.06c-.13,.13-.11,.46,.04,.53,.81-.04,1.68-.06,2.49-.06s1.64,.02,2.46,.06c.15-.07,.17-.41,.04-.53l-.41-.06c-.87-.11-1.03-.17-1.03-2.12v-6.87Zm-9.71,9.82c2.68,0,4.28-1.5,4.28-3.6,0-1.86-1.33-3.01-2.53-3.64l-1.14-.61c-1.22-.65-1.75-1.48-1.75-2.25,0-.98,.61-1.94,2.09-1.94,1.57,0,2.22,1.24,2.49,2.2,.17,.13,.5,.11,.59-.06,0-.87-.18-2.09-.39-2.49-.87-.17-1.57-.39-2.53-.39-2.7,0-4.06,1.55-4.06,3.38,0,1.66,1.22,2.79,2.6,3.56l.79,.44c1.38,.78,1.88,1.62,1.88,2.68,0,1.13-.79,1.98-2.2,1.98-1.81,0-2.81-1.98-3.14-2.92-.15-.13-.46-.11-.57,.07-.02,1.15,.22,2.42,.55,2.81,.37,.22,1.33,.78,3.03,.78"/><path class="g" d="M202.12,31.14c.7,0,1.28,.59,1.28,1.35s-.58,1.34-1.28,1.34-1.28-.59-1.28-1.34,.59-1.35,1.28-1.35m0-.28c-.92,0-1.67,.73-1.67,1.63s.75,1.63,1.67,1.63,1.67-.74,1.67-1.63-.75-1.63-1.67-1.63m-.16,1.12c0-.07,.01-.1,.15-.1s.22,.11,.22,.32c0,.1-.05,.26-.23,.26-.12,0-.14,0-.14-.09v-.39Zm-.42,.87c0,.21,0,.23-.16,.27h-.06s-.01,.13,.02,.15c.12,0,.25-.01,.41-.01s.27,.01,.42,.01c.02-.01,.02-.12,0-.13h-.05c-.16-.04-.16-.09-.16-.28v-.18s.01-.06,.05-.06c.05,0,.1,.03,.12,.07,.07,.12,.12,.22,.2,.33,.13,.18,.3,.27,.51,.27,.07,0,.12,0,.2-.01,.02-.01,.02-.1,0-.1-.05-.01-.07-.04-.12-.07-.1-.06-.21-.25-.36-.5-.02-.06-.02-.09,0-.1,.12-.05,.26-.17,.26-.36,0-.38-.39-.44-.7-.44-.23,0-.48,.01-.77,.03-.04,.01-.04,.1-.02,.15h.06c.12,.01,.16,.09,.16,.26v.72Z"/></g><path class="h" d="M16.08,53.9h2.68c1.37-.09,2.12-.95,2.45-2.33v-3.08c-.03-.18-.15-.29-.34-.34h-2.49c-1.35,.14-2.21,.87-2.6,2.18v3.35c0,.16,.1,.24,.31,.23m5.93,0h2.68c1.37-.09,2.12-.95,2.45-2.33v-3.08c-.03-.18-.15-.29-.34-.34h-2.49c-1.35,.14-2.21,.87-2.6,2.18v3.35c0,.16,.1,.24,.31,.23m11.03,0h-2.68c-1.37-.09-2.12-.95-2.45-2.33v-3.08c.03-.18,.15-.29,.34-.34h2.5c1.34,.14,2.21,.87,2.6,2.18v3.35c0,.16-.1,.24-.31,.23m5.93,0h-2.68c-1.37-.09-2.12-.95-2.45-2.33v-3.08c.03-.18,.15-.29,.34-.34h2.49c1.34,.14,2.21,.87,2.6,2.18v3.35c0,.16-.1,.24-.31,.23m5.85-6.23h-2.68c-1.37-.09-2.12-.95-2.45-2.33v-3.08c.03-.18,.15-.29,.34-.34h2.49c1.34,.14,2.21,.87,2.6,2.18v3.35c0,.16-.1,.24-.31,.23m-5.85,0h-2.68c-1.37-.09-2.12-.95-2.45-2.33v-3.08c.03-.18,.15-.29,.34-.34h2.49c1.34,.14,2.21,.87,2.6,2.18v3.35c0,.16-.1,.24-.31,.23m-5.93,0h-2.68c-1.37-.09-2.12-.95-2.45-2.33v-3.08c.03-.18,.15-.29,.34-.34h2.5c1.34,.14,2.21,.87,2.6,2.18v3.35c0,.16-.1,.24-.31,.23m-11.03,0h2.68c1.37-.09,2.12-.95,2.45-2.33v-3.08c-.03-.18-.15-.29-.34-.34h-2.49c-1.35,.14-2.21,.87-2.6,2.18v3.35c0,.16,.1,.24,.31,.23m-5.93,0h2.68c1.37-.09,2.12-.95,2.45-2.33v-3.08c-.03-.18-.15-.29-.34-.34h-2.49c-1.35,.14-2.21,.87-2.6,2.18v3.35c0,.16,.1,.24,.31,.23m-5.85,0h2.68c1.37-.09,2.12-.95,2.45-2.33v-3.08c-.03-.18-.15-.29-.34-.34h-2.49c-1.34,.14-2.21,.87-2.6,2.18v3.35c0,.16,.1,.24,.31,.23m0-6.39h2.68c1.37-.09,2.12-.95,2.45-2.33v-3.08c-.03-.18-.15-.29-.34-.34h-2.49c-1.34,.14-2.21,.87-2.6,2.18v3.35c0,.16,.1,.24,.31,.23m5.85,0h2.68c1.37-.09,2.12-.95,2.45-2.33v-3.08c-.03-.18-.15-.29-.34-.34h-2.49c-1.35,.14-2.21,.87-2.6,2.18v3.35c0,.16,.1,.24,.31,.23m5.93,0h2.68c1.37-.09,2.12-.95,2.45-2.33v-3.08c-.03-.18-.15-.29-.34-.34h-2.49c-1.35,.14-2.21,.87-2.6,2.18v3.35c0,.16,.1,.24,.31,.23m11.03,0h-2.68c-1.37-.09-2.12-.95-2.45-2.33v-3.08c.03-.18,.15-.29,.34-.34h2.5c1.34,.14,2.21,.87,2.6,2.18v3.35c0,.16-.1,.24-.31,.23m5.93,0h-2.68c-1.37-.09-2.12-.95-2.45-2.33v-3.08c.03-.18,.15-.29,.34-.34h2.49c1.34,.14,2.21,.87,2.6,2.18v3.35c0,.16-.1,.24-.31,.23m5.85,0h-2.68c-1.37-.09-2.12-.95-2.45-2.33v-3.08c.03-.18,.15-.29,.34-.34h2.49c1.34,.14,2.21,.87,2.6,2.18v3.35c0,.16-.1,.24-.31,.23m0-11.99h-2.68c-1.37,.09-2.12,.95-2.45,2.33v3.08c.03,.18,.15,.29,.34,.34h2.49c1.34-.14,2.21-.87,2.6-2.18v-3.35c0-.16-.1-.24-.31-.23m-5.85,0h-2.68c-1.37,.09-2.12,.95-2.45,2.33v3.08c.03,.18,.15,.29,.34,.34h2.49c1.34-.14,2.21-.87,2.6-2.18v-3.35c0-.16-.1-.24-.31-.23m-5.93,0h-2.68c-1.37,.09-2.12,.95-2.45,2.33v3.08c.03,.18,.15,.29,.34,.34h2.5c1.34-.14,2.21-.87,2.6-2.18v-3.35c0-.16-.1-.24-.31-.23m-11.03,0h2.68c1.37,.09,2.12,.95,2.45,2.33v3.08c-.03,.18-.15,.29-.34,.34h-2.49c-1.35-.14-2.21-.87-2.6-2.18v-3.35c0-.16,.1-.24,.31-.23m-5.93,0h2.68c1.37,.09,2.12,.95,2.45,2.33v3.08c-.03,.18-.15,.29-.34,.34h-2.49c-1.35-.14-2.21-.87-2.6-2.18v-3.35c0-.16,.1-.24,.31-.23m-5.85,0h2.68c1.37,.09,2.12,.95,2.45,2.33v3.08c-.03,.18-.15,.29-.34,.34h-2.49c-1.34-.14-2.21-.87-2.6-2.18v-3.35c0-.16,.1-.24,.31-.23m0-6.12h2.68c1.37,.09,2.12,.95,2.45,2.33v3.08c-.03,.18-.14,.29-.34,.34h-2.49c-1.34-.14-2.21-.87-2.6-2.18v-3.35c0-.16,.1-.24,.31-.23m5.85,0h2.68c1.37,.09,2.12,.95,2.45,2.33v3.08c-.03,.18-.15,.29-.34,.34h-2.49c-1.35-.14-2.21-.87-2.6-2.18v-3.35c0-.16,.1-.24,.31-.23m5.93,0h2.68c1.37,.09,2.12,.95,2.45,2.33v3.08c-.03,.18-.15,.29-.34,.34h-2.49c-1.35-.14-2.21-.87-2.6-2.18v-3.35c0-.16,.1-.24,.31-.23m11.03,0h-2.68c-1.37,.09-2.12,.95-2.45,2.33v3.08c.03,.18,.15,.29,.34,.34h2.5c1.34-.14,2.21-.87,2.6-2.18v-3.35c0-.16-.1-.24-.31-.23m5.93,0h-2.68c-1.37,.09-2.12,.95-2.45,2.33v3.08c.03,.18,.15,.29,.34,.34h2.49c1.34-.14,2.21-.87,2.6-2.18v-3.35c0-.16-.1-.24-.31-.23m5.85,0h-2.68c-1.37,.09-2.12,.95-2.45,2.33v3.08c.03,.18,.15,.29,.34,.34h2.49c1.34-.14,2.21-.87,2.6-2.18v-3.35c0-.16-.1-.24-.31-.23m-5.85-6.19h-2.68c-1.37,.09-2.12,.95-2.45,2.33v3.08c.03,.18,.15,.29,.34,.34h2.49c1.34-.14,2.21-.87,2.6-2.18v-3.35c0-.16-.1-.24-.31-.23m-5.93,0h-2.68c-1.37,.09-2.12,.95-2.45,2.33v3.08c.03,.18,.15,.29,.34,.34h2.5c1.34-.14,2.21-.87,2.6-2.18v-3.35c0-.16-.1-.24-.31-.23m-11.03,0h2.68c1.37,.09,2.12,.95,2.45,2.33v3.08c-.03,.18-.15,.29-.34,.34h-2.49c-1.35-.14-2.21-.87-2.6-2.18v-3.35c0-.16,.1-.24,.31-.23m-5.93,0h2.68c1.37,.09,2.12,.95,2.45,2.33v3.08c-.03,.18-.15,.29-.34,.34h-2.49c-1.35-.14-2.21-.87-2.6-2.18v-3.35c0-.16,.1-.24,.31-.23"/></g></svg>