<?xml version="1.0" encoding="UTF-8"?><svg xmlns="http://www.w3.org/2000/svg" xmlns:xlink="http://www.w3.org/1999/xlink" viewBox="0 0 868.12 70.88"><defs><style>.j{fill:#fff;}.k{mask:url(#b);}.l{fill:#be1e2d;}.m{fill:url(#g);}.n{fill:#ffd100;}.o{fill:url(#d);}</style><linearGradient id="d" x1="368.19" y1="36.56" x2="868.12" y2="36.56" gradientTransform="translate(0 72) scale(1 -1)" gradientUnits="userSpaceOnUse"><stop offset=".41" stop-color="#000"/><stop offset=".47" stop-color="#050505"/><stop offset=".54" stop-color="#131313"/><stop offset=".62" stop-color="#2a2a2a"/><stop offset=".7" stop-color="#4b4b4b"/><stop offset=".79" stop-color="#757575"/><stop offset=".88" stop-color="#a9a9a9"/><stop offset=".96" stop-color="#e5e5e5"/><stop offset="1" stop-color="#fff"/></linearGradient><mask id="b" x="368.19" y="-1.3" width="499.93" height="72.18" maskUnits="userSpaceOnUse"><g id="c"><path class="o" d="M868.12,70.88H368.19V0h491.86c4.46,0,8.07,4.12,8.07,9.2v61.68Z"/></g></mask><linearGradient id="g" x1="533.92" y1="1125.26" x2="604.85" y2="1125.26" gradientTransform="translate(-691.2 -533.92) rotate(90) scale(1 -1)" gradientUnits="userSpaceOnUse"><stop offset="0" stop-color="#fff" stop-opacity="0"/><stop offset=".14" stop-color="#fff" stop-opacity=".01"/><stop offset=".27" stop-color="#fff" stop-opacity=".06"/><stop offset=".39" stop-color="#fff" stop-opacity=".13"/><stop offset=".51" stop-color="#fff" stop-opacity=".23"/><stop offset=".63" stop-color="#fff" stop-opacity=".36"/><stop offset=".74" stop-color="#fff" stop-opacity=".52"/><stop offset=".86" stop-color="#fff" stop-opacity=".71"/><stop offset=".96" stop-color="#fff" stop-opacity=".92"/><stop offset="1" stop-color="#fff"/></linearGradient></defs><g id="a"><g class="k"><g/></g></g><g id="e"><g id="f"><polygon class="m" points="0 70.93 0 0 868.12 0 868.12 70.93 0 70.93"/></g></g><g id="h"><g><rect class="n" x="214.55" y="19.47" width=".37" height="31.93"/><g><path d="M230.54,35.4c-.12,.24-.27,.44-.47,.6s-.44,.28-.7,.36c-.27,.08-.55,.12-.86,.12h-.91v1.64h-1.2v-5.45h2.22c.33,0,.62,.04,.87,.13,.26,.09,.48,.22,.65,.39s.32,.36,.41,.6,.14,.49,.14,.76v.02c0,.33-.07,.6-.18,.84Zm-1.04-.82c0-.27-.08-.48-.26-.61-.18-.14-.41-.21-.71-.21h-.92v1.66h.95c.3,0,.54-.08,.7-.24s.25-.35,.25-.59v-.02Z"/><path d="M242.22,38.12l-1.17-1.75h-.94v1.75h-1.2v-5.45h2.49c.65,0,1.15,.16,1.51,.48,.36,.32,.54,.76,.54,1.33v.02c0,.44-.11,.8-.32,1.07-.22,.28-.5,.48-.85,.61l1.33,1.95h-1.39Zm.02-3.59c0-.26-.08-.45-.25-.58s-.39-.19-.69-.19h-1.19v1.56h1.22c.29,0,.52-.07,.68-.21s.24-.33,.24-.56v-.02h0Z"/><path d="M251.9,38.12v-5.45h1.2v5.45h-1.2Z"/><path d="M265.59,38.12l-2.64-3.46v3.46h-1.18v-5.45h1.11l2.55,3.35v-3.35h1.18v5.45h-1.02Z"/><path d="M277.69,33.78v4.34h-1.2v-4.34h-1.65v-1.11h4.52v1.11h-1.66Z"/><path d="M301.36,35.4c-.12,.24-.27,.44-.47,.6-.2,.16-.44,.28-.7,.36s-.55,.12-.86,.12h-.91v1.64h-1.2v-5.45h2.22c.33,0,.62,.04,.87,.13,.26,.09,.48,.22,.65,.39,.18,.17,.32,.36,.41,.6s.14,.49,.14,.76v.02c0,.33-.06,.6-.18,.84Zm-1.04-.82c0-.27-.08-.48-.26-.61-.18-.14-.41-.21-.71-.21h-.92v1.66h.95c.3,0,.54-.08,.7-.24,.17-.16,.25-.35,.25-.59v-.02Z"/><path d="M315.06,36.49c-.14,.34-.34,.64-.6,.9s-.56,.46-.92,.6c-.35,.15-.74,.22-1.16,.22s-.81-.08-1.16-.22c-.35-.15-.65-.34-.92-.6s-.45-.55-.6-.89-.21-.71-.21-1.09v-.02c0-.39,.08-.76,.22-1.09,.14-.34,.34-.64,.6-.9s.56-.46,.92-.6c.35-.15,.74-.22,1.17-.22s.81,.08,1.16,.22c.35,.15,.65,.34,.92,.6s.45,.55,.6,.89c.14,.34,.21,.71,.21,1.09v.02c0,.39-.08,.75-.23,1.09Zm-1.03-1.1c0-.24-.04-.45-.12-.66s-.19-.39-.34-.55c-.15-.16-.32-.28-.53-.37s-.42-.13-.66-.13-.46,.04-.66,.13c-.2,.09-.37,.21-.51,.37s-.25,.34-.34,.54-.12,.42-.12,.65v.02c0,.24,.04,.45,.12,.66s.19,.39,.34,.55c.15,.15,.32,.28,.52,.37,.2,.09,.42,.13,.66,.13s.46-.04,.66-.13c.2-.08,.38-.21,.52-.37s.25-.34,.34-.54,.12-.43,.12-.65v-.02h0Z"/><path d="M326.97,38.12l-1.17-1.75h-.94v1.75h-1.2v-5.45h2.49c.65,0,1.15,.16,1.51,.48,.36,.32,.54,.76,.54,1.33v.02c0,.44-.11,.8-.32,1.07-.22,.28-.5,.48-.84,.61l1.33,1.95h-1.4Zm.03-3.59c0-.26-.08-.45-.25-.58-.17-.13-.39-.19-.7-.19h-1.19v1.56h1.22c.29,0,.52-.07,.68-.21s.24-.33,.24-.56v-.02h0Z"/><path d="M339.06,33.78v4.34h-1.2v-4.34h-1.65v-1.11h4.52v1.11h-1.66Z"/><path d="M353.01,38.12l-.5-1.23h-2.3l-.5,1.23h-1.23l2.33-5.48h1.11l2.33,5.48h-1.26Zm-1.65-4.05l-.72,1.76h1.44l-.72-1.76Z"/><path d="M362.41,38.12v-5.45h1.2v4.37h2.71v1.08h-3.91Z"/></g><g id="i"><polygon class="j" points="39.68 55.38 10.69 55.38 10.69 15.5 39.68 15.5 39.68 55.38"/><path d="M11.93,54.43h26.45V16.44H11.93V54.43h0Zm28.52,2.01H9.92V14.43h30.53V56.45h0Z"/><polygon class="n" points="13.88 52.72 13.88 18.16 36.61 18.16 36.61 52.72 13.88 52.72"/><polygon points="13.88 26.56 36.61 26.56 25.42 46.86 13.88 26.56"/><polygon class="l" points="19.21 23.9 31.28 23.9 25.36 34.73 19.21 23.9"/><path d="M63.59,24.85h-1.36c-.18,0-.24,0-.36,.36l-7.1,18.05c-.3,.71-.36,1.07-.71,1.07-.24,0-.3-.24-.53-.83l-6.63-15.98c-1.07-2.54-1.24-2.66-2.31-2.66h-.77v-.95h6.75v.95h-1.72c-.18,0-.3,0-.3,.18,0,.3,2.19,5.15,6.21,14.85,4.02-9.7,5.44-13.31,5.44-14.5,0-.41-.24-.53-.77-.53h-1.78v-.95h5.92v.95h0Zm4.97,11.48v4.02c-.83,1.07-2.07,2.07-3.55,2.07-1.07,0-1.6-.65-1.6-1.72,0-2.07,1.95-3.14,5.15-4.38h0Zm0-.95l-1.12,.47c-3.91,1.6-6.57,2.84-6.57,5.5,0,1.72,1.01,2.96,2.84,2.96s3.85-1.6,5.09-2.84c.36,1.72,1.95,2.84,3.37,2.84l.95-1.6c-1.89-.47-2.07-1.3-2.07-3.91v-4.85c0-2.54-.18-4.02-3.25-4.02-3.31,0-6.63,1.89-6.63,4.08,0,.47,.36,.83,.83,.83,1.07,0,1.78-1.24,1.78-2.9,.65-.47,1.78-.77,2.54-.77,2.25,0,2.31,1.18,2.31,2.54v1.66h-.06Zm19.11,2.66v-3.61c0-2.31-.53-4.44-3.79-4.44-2.13,0-3.55,1.18-5.15,2.37v-2.37c-.36,0-1.36,.12-2.37,.24-1.01,.12-2.07,.24-2.54,.24v.83h1.18c1.01,0,1.3,0,1.3,3.73v7.4c0,.36-.36,.47-.65,.47h-1.07v.83h6.51v-.83h-1.36c-.95,0-.95-1.48-.95-4.91v-4.67c1.18-1.01,2.37-1.78,4.02-1.78,1.42,0,2.49,.65,2.49,3.49v7.4c0,.36-.36,.47-.65,.47h-1.07v.83h6.51v-.83h-1.48c-.95,0-.95-1.48-.95-4.85h0Zm10.24-7.57h-3.31v-3.14h-.47c-3.2,3.31-3.49,3.55-3.49,3.79,0,.18,.12,.24,1.54,.24v9.88c0,3.02,2.19,3.08,3.25,3.08,.71,0,2.49-.47,3.61-1.12l-.3-.71c-.65,.3-1.36,.47-2.07,.47-1.95,0-2.07-1.42-2.07-3.43v-8.23h2.66c.47,0,.53-.18,.65-.83h0Zm9.88,5.86v4.02c-.83,1.07-2.07,2.07-3.55,2.07-1.07,0-1.6-.65-1.6-1.72,0-2.07,1.95-3.14,5.15-4.38h0Zm0-.95l-1.12,.47c-3.91,1.6-6.57,2.84-6.57,5.5,0,1.72,1.01,2.96,2.84,2.96s3.85-1.6,5.09-2.84c.36,1.72,1.95,2.84,3.37,2.84l.95-1.6c-1.89-.47-2.07-1.3-2.07-3.91v-4.85c0-2.54-.18-4.02-3.25-4.02-3.31,0-6.63,1.89-6.63,4.08,0,.47,.36,.83,.83,.83,1.07,0,1.78-1.24,1.78-2.9,.65-.47,1.78-.77,2.54-.77,2.25,0,2.31,1.18,2.31,2.54v1.66h-.06Zm10.77-4.5c2.43,0,3.25,2.66,3.25,4.67,0,1.72-.77,3.31-2.66,3.31-1.36,0-3.2-1.36-3.2-4.56,.06-1.66,.65-3.43,2.6-3.43h0Zm5.86,16.51c0,2.49-3.2,3.25-5.21,3.25-1.89,0-4.73-.71-4.73-3.08,0-1.72,1.6-2.78,3.14-3.02l3.08,.36c1.95,.18,3.73,.53,3.73,2.49h0Zm-5.38-17.46c-3.02,0-5.38,2.31-5.38,5.33,0,1.83,.95,3.14,2.54,3.96-1.12,1.24-1.95,2.13-1.95,3.08,0,1.01,.95,1.54,1.78,1.83-1.6,.59-3.43,1.72-3.43,3.67,0,1.01,.65,3.73,6.04,3.73,2.96,0,7.81-1.12,7.81-4.91,0-3.14-2.72-3.91-5.33-4.08l-1.78-.12c-2.6-.18-3.31-.36-3.31-1.18,0-.53,.65-1.36,1.01-1.72,.65,.18,1.24,.24,1.89,.24,2.9,0,5.27-2.25,5.27-5.15,0-1.18-.36-2.13-1.07-3.02,.83,.12,1.18,.18,1.78,.18,.41,0,.65-.12,.77-.71,.06-.3,.24-.77,.24-.95s-.12-.3-.3-.3c-.41,0-.12,.71-1.72,.71-.95,0-1.83-.12-2.72-.3-.77-.18-1.36-.3-2.13-.3h0Zm15.98,4.32l-6.39,1.72c0-1.95,1.01-5.03,3.14-5.03,1.72-.06,2.78,1.89,3.25,3.31h0Zm3.08,7.51l-.41-.59c-1.18,1.01-2.43,1.54-3.96,1.54-3.61,0-4.85-2.9-5.03-5.92l9.17-2.49c-1.18-2.49-2.6-4.44-5.56-4.44-4.08,0-6.04,3.96-6.04,7.57s2.01,6.75,5.98,6.75c2.19,.06,4.26-.77,5.86-2.43h0Zm31.6-16.69v-1.18h-6.04v1.18h1.54c.41,0,.71,0,.71,.41,0,.89-.77,2.72-1.07,3.49l-3.2,7.81c-2.13-4.97-4.85-11.24-4.85-11.54,0-.18,.24-.18,.36-.18h1.95v-1.18h-9.29v1.18h.83c.83,0,1.48,1.72,2.49,4.08l-2.84,7.46c-3.14-7.51-4.79-10.83-4.79-11.3,0-.18,.24-.18,.36-.18h1.42v-1.18h-8.88v1.18h.77c.83,0,1.01,.12,2.13,2.84l6.27,14.79c.18,.41,.36,1.42,.95,1.42,.36,0,.47-.36,.59-.65l4.79-12.54,5.09,11.78c.18,.41,.36,1.42,.95,1.42,.36,0,.41-.36,.59-.65l7.4-17.99c.18-.47,.3-.47,.59-.47h1.18Zm4.85,9.41l-4.08,1.18c0-1.01,.06-4.44,1.66-4.44,1.3,0,2.07,2.31,2.43,3.25h0Zm4.44,7.51l-.53-.89c-1.07,.77-2.37,1.18-3.73,1.18-3.14,0-4.08-2.84-4.2-5.44l8.46-2.19c-1.24-2.9-2.96-4.67-6.33-4.67-4.26,0-6.86,3.43-6.86,7.46,0,1.54,.59,6.86,6.8,6.86,2.19-.06,4.73-.89,6.39-2.31h0Zm13.79-2.72c0-1.07-.59-2.25-1.36-2.96-2.07-1.83-6.75-1.3-6.75-3.37,0-1.36,1.6-1.72,2.66-1.72,1.18,0,2.78,.41,3.2,1.66,.12,.3,.24,.59,.59,.59s.47-.18,.47-.47c0-.36-.18-1.48-.24-2.25-1.3-.65-2.78-.77-4.2-.77-3.85,0-6.51,1.95-6.51,4.62,0,5.33,8.11,3.55,8.11,6.33,0,1.89-2.66,2.07-3.14,2.07-2.07,0-3.14-.47-3.61-1.6-.36-.83-.41-1.01-.89-1.01-.3,0-.59,.18-.59,.47s.3,1.83,.41,2.72c1.42,.47,3.02,.65,4.56,.65,3.14,0,7.28-1.3,7.28-4.97h0Zm1.3-7.75h1.36v9.11c0,1.36,0,3.61,3.79,3.61,1.6,0,3.25-.36,4.56-1.3l-.41-.89c-.47,.24-1.12,.36-1.66,.36-1.78,0-1.78-1.07-1.78-3.61v-7.28h2.31c.47,0,.53-.24,.65-1.07h-2.96v-3.73h-.77l-5.21,3.96c-.18,.12-.41,.3-.41,.53,.06,.24,.36,.3,.53,.3h0Zm-59.35,16.45c.12,0,.18,0,.24-.89-.53-.24-1.12-.36-1.72-.36-2.13,0-4.02,1.42-4.02,3.61s1.42,3.14,3.43,3.14c.77,0,1.66-.18,2.37-.53,.06-.65,.06-.89,.06-.95s-.06-.12-.12-.12c-.12,0-.12,.12-.18,.18-.12,.71-1.3,1.01-1.89,1.01-1.6,0-2.49-1.42-2.49-2.9,0-1.66,1.01-3.02,2.72-3.02,.59,0,1.36,.3,1.42,.59,.06,.18,.06,.24,.18,.24h0Zm3.43,2.07v-2.6c0-.12,.06-.12,.12-.12h.41c.3,0,1.3,.3,1.3,1.48,0,.89-.71,1.24-1.54,1.24h-.3Zm-1.78,3.25h2.6v-.36h-.47c-.3,0-.36-.06-.36-1.36v-1.18h.65c.71,1.42,1.48,2.6,1.78,2.84,.12,.06,.3,.06,.53,.06h1.12v-.36c-.41,0-.47-.06-.71-.36-.41-.47-.77-1.01-1.66-2.43,.83-.12,1.42-.65,1.42-1.54,0-.83-.71-1.72-2.13-1.72h-2.96v.36h.47c.3,0,.36,.06,.36,1.36v4.2c0,.12,0,.18-.18,.18h-.47v.3h0Zm6.8-.36v.36h4.73c.24-.71,.24-.89,.24-.95s-.06-.12-.12-.12c-.12,0-.12,.06-.18,.12-.3,.53-1.66,.53-2.25,.53h-.36c-.36,0-.36-.06-.36-2.19v-.71h.95c1.07,0,1.12,.12,1.12,.3v.36h.3v-1.78h-.3v.36c0,.3-.06,.41-1.12,.41h-.95v-2.19c0-.12,.06-.12,.12-.12h.71c1.12,0,1.66,.24,1.72,.41,0,.12,.06,.24,.18,.24s.12-.06,.24-1.01h-4.91v.36h.47c.3,0,.36,.06,.36,1.36v4.2c0,.12,0,.18-.18,.18h-.41v-.12Zm8.46-5.68c1.42,0,2.66,1.07,2.66,3.08,0,1.66-1.18,2.54-2.84,2.54-.36,0-.36-.06-.36-2.19v-3.31q.06-.12,.53-.12h0Zm-2.25,5.68v.36h2.78c2.72,0,3.49-2.01,3.49-3.31,0-1.6-1.07-3.02-3.37-3.02h-3.08v.36h.47c.3,0,.36,.06,.36,1.36v4.2c0,.12,0,.18-.18,.18h-.47v-.12Zm9.23-1.36v-4.2c0-.12,0-.18,.18-.18h.47v-.36h-2.6v.36h.47c.3,0,.36,.06,.36,1.36v4.2c0,.12,0,.18-.18,.18h-.47v.36h2.6v-.36h-.41c-.36,0-.41-.06-.41-1.36h0Zm6.27,1.72v-.36h-.65c-.3,0-.36-.06-.36-1.36v-4.32h.18c.47,0,1.54,0,1.83,.53,.06,.12,.12,.18,.18,.18s.12-.06,.12-.12-.06-.24-.3-1.01h-5.21c-.24,.77-.3,.95-.3,1.01s.06,.12,.12,.12c.12,0,.12-.06,.18-.18,.24-.47,1.36-.53,1.83-.53h.18v5.5c0,.12,0,.18-.18,.18h-.77v.36h3.14Zm7.63-6.09v-.36h-2.6v.36h.47c.3,0,.36,.06,.36,1.36v2.66c0,1.12,.53,2.19,2.6,2.19,1.3,0,2.6-.71,2.6-2.54v-3.55c0-.12,.06-.12,.3-.12h.3v-.36h-1.89v.36h.41c.3,0,.36,0,.41,.36,.06,.47,.06,1.18,.06,1.78v1.6c0,2.01-1.48,2.13-1.95,2.13-1.66,0-1.72-1.42-1.72-2.25v-3.37c0-.12,0-.18,.18-.18h.47v-.06Zm10.59,4.26l-4.02-4.56h-1.72v.36h.3c.41,0,.59,.47,.59,1.01v4.56c0,.12-.06,.12-.3,.12h-.3v.36h1.89v-.36h-.41c-.3,0-.36,0-.41-.36-.06-.47-.06-1.18-.06-1.78v-2.78l4.44,5.03c.18,.18,.24,.24,.3,.24s.12-.06,.12-.12v-5.92c0-.12,.06-.12,.3-.12h.3v-.36h-1.89v.36h.41c.3,0,.36,0,.41,.36,.06,.47,.06,1.18,.06,1.78v2.19h0Zm4.02,.12v-4.2c0-.12,0-.18,.18-.18h.47v-.36h-2.6v.36h.47c.3,0,.36,.06,.36,1.36v4.2c0,.12,0,.18-.18,.18h-.47v.36h2.6v-.36h-.47c-.24,0-.36-.06-.36-1.36h0Zm7.4-1.12c0,2.54-1.66,2.66-1.95,2.66-.95,0-2.37-.83-2.37-3.37s1.66-2.66,1.95-2.66c.89,0,2.37,.77,2.37,3.37h0Zm-5.56-.18c0,1.95,1.3,3.2,3.25,3.2,2.07,0,3.43-1.54,3.43-3.55s-1.3-3.2-3.25-3.2-3.43,1.54-3.43,3.55h0Zm13.31,1.18l-4.02-4.56h-1.72v.36h.3c.41,0,.59,.47,.59,1.01v4.56c0,.12-.06,.12-.3,.12h-.3v.36h1.89v-.36h-.41c-.3,0-.36,0-.41-.36-.06-.47-.06-1.18-.06-1.78v-2.78l4.44,5.03c.18,.18,.24,.24,.3,.24s.12-.06,.12-.12v-5.92c0-.12,.06-.12,.3-.12h.3v-.36h-1.89v.36h.41c.3,0,.36,0,.41,.36,.06,.47,.06,1.18,.06,1.78v2.19h0Z"/></g></g></g></svg>