<?xml version="1.0" encoding="UTF-8"?>
<svg id="Layer_1" data-name="Layer 1" xmlns="http://www.w3.org/2000/svg" viewBox="0 0 120 120">
  <defs>
    <style>
      .cls-1, .cls-2 {
        fill: #fff;
      }

      .cls-2 {
        fill-rule: evenodd;
      }
    </style>
  </defs>
  <path class="cls-2" d="M78.73,42.49s-5.79,3.06-4.86,17.42c2.89-1.76,4.82-2.62,8.65-3.56l-3.79-13.85h0ZM68.37,72.68s15.14-6.1,17.15-14.96c-22.95,3.92-23.85,23.36-24.63,27.34l18.82-10.22c.65-.35,1.28-.78,1.88-1.29,2.87-2.48,4.01-6.26,3.13-9.24l-.17-.61c-5.42,6.72-16.13,8.94-16.17,8.96"/>
  <path class="cls-2" d="M37.48,56.34c3.83.95,5.77,1.82,8.65,3.56.92-14.36-4.86-17.42-4.86-17.42l-3.79,13.85h0ZM51.63,72.68s-10.75-2.24-16.17-8.96l-.17.61c-.88,2.98.26,6.76,3.13,9.24.6.51,1.22.95,1.88,1.29l18.82,10.22c-.78-3.98-1.68-23.43-24.63-27.34,2.02,8.85,17.11,14.93,17.15,14.96"/>
  <path class="cls-1" d="M60,34.92s-23.79,18.59-4.2,32.16c-6.66-7.39,4.2-16.49,4.2-16.49,0,0,10.86,9.09,4.21,16.49,19.55-13.58-4.21-32.15-4.21-32.15"/>
</svg>