<?xml version="1.0" encoding="UTF-8"?>
<svg id="Layer_1" data-name="Layer 1" xmlns="http://www.w3.org/2000/svg" xmlns:xlink="http://www.w3.org/1999/xlink" viewBox="0 0 120 120">
  <defs>
    <style>
      .cls-1 {
        clip-path: url(#clippath-4);
      }

      .cls-2 {
        fill: #fff;
      }

      .cls-3 {
        fill: none;
      }

      .cls-4 {
        clip-path: url(#clippath-1);
      }

      .cls-5 {
        clip-path: url(#clippath-3);
      }

      .cls-6 {
        clip-path: url(#clippath-2);
      }

      .cls-7 {
        clip-path: url(#clippath);
      }
    </style>
    <clipPath id="clippath">
      <path class="cls-3" d="M31.71,72.18h0ZM62.52,83.53c-.07-.11-.14-.23-.19-.35.06.12.13.24.2.35h0ZM46.38,79.81h0,0M46.4,79.67h0ZM55.39,75.65h0ZM33.66,72.12c.12.09.08.1.21.15.02.02,0,.06.02.07.03.03.04.05.02.05-.05,0-.29-.17-.26-.26M33.07,71.84s-.02-.06,0-.1c.17.06.17.11.32.21l.08.06c-.09.03-.15-.02-.21-.07-.04-.05-.09-.09-.17-.08l-.03-.02h0ZM33.07,71.68s-.07.02-.1.04c-.04.03-.07.06-.12.02.02-.03.03-.02.06-.02.02-.06-.02-.12-.02-.17-.02-.02-.03,0-.06.02.03-.15.13.06.24.11M32.03,71.4c.06-.06.03-.09.08-.16.11.03.08.09.08.16l-.03.03h-.06s-.06,0-.07-.03M32.5,71.2s-.08.24.08.16c-.06-.05-.05-.05-.02-.05s.08,0,.1-.06l.03.02-.03.03c.1.08-.02.02-.06.07.02.06.18.06.13.14-.03-.02-.07-.06-.11-.02l-.02-.02c-.12-.13-.31-.08-.29-.25.08-.03.09,0,.09,0,0,.02,0,.02.02.02.02,0,.03-.02.08-.06M33.61,70.31l-.02-.02c0-.1-.11-.1-.19-.13-.05-.06-.1-.11,0-.21.02.13.04.12.18.24l.05.03c.09-.06.12,0,.1.04,0,.03-.03.06-.07.06-.02,0-.03,0-.06-.02M92.62,69.92c-.21.04-.37.11-.6.15.22-.04.39-.11.6-.15M83.9,58.69s-.06-.04-.09,0c-.21.02-.4.1-.59.23-.03-.03-.06-.04-.08,0-.19.06-.36.17-.53.25-.16.09-.32.13-.45.26-.26-.02-.43.29-.67.34l-.02.02c-.08.17-.24.06-.32.21-.03.05-.07.07-.13.06l-.04.05c-.17.13-.36.19-.53.36-.19.09-.38.23-.55.39-.12.06-.21.21-.34.23-.06.07-.11.16-.19.13l-.16.2c-.19.09-.35.27-.53.36-.21.17-.4.32-.59.53-.06-.06-.09.02-.12.06-.09.13-.22.11-.31.28-.09.02-.16.07-.22.17-.11.09-.24.14-.33.3-.03-.03-.06-.03-.08,0l-.13.15s-.04.03-.06.03c-.03,0-.06,0-.08.05-.16.21-.36.24-.51.43-.05-.05-.07,0-.09.03l-.11.12c-.06-.06-.08.02-.12.06-.22.21-.44.37-.67.53l-.04.05c-.08.13-.19.08-.27.23-.15.12-.31.22-.45.36l-.02.02c-.13.09-.13.22-.11.36-.12-.2-.2-.12-.26-.02-.17.08-.32.21-.47.38-.06-.06-.08.02-.12.06-.06.13-.16.06-.23.17l-.06.07c-.12.16-.25.25-.38.35-.11-.06-.17.17-.27.22l-.13.14c-.1-.06-.16.15-.25.2-.09.07-.17.07-.24.2-.1.05-.03.15-.12.21-.04-.05-.09-.09-.1-.03l-.13.14c-.17.12-.43.39-.66.56-.02.02-.03,0-.05,0h-.03l-.17.19-.2.21c-.14.02-.24.12-.29.24-.06-.02-.11.04-.16.1l-.06.07c-.08-.08-.12.1-.18.13l-.09.09c-.13,0-.13.12-.27.21l-.05.05-.04.05c-.13.09-.22.09-.38.25l-.21.24c-.13.09-.25.16-.36.31-.21-.06-.36.36-.55.38l-.11.11s0,.09-.06.13c-.1-.06-.18.03-.26.13-.06.09-.13.17-.21.15-.06.09-.14.12-.21.15-.3.25-.67.49-.9.79.02-.02.06-.06.03-.08-.27-.06-.31-.32-.52-.47-.08-.06-.06-.19-.19-.17-.02-.02,0-.05.03-.08l-.09-.09s-.03-.02-.05-.02-.03,0-.06-.02c.05-.13-.14-.09-.19-.17l.03-.03c-.07-.07-.1-.23-.24-.21-.03-.03,0-.07-.04-.09-.09-.11-.18-.12-.27-.18.02-.02.06-.06.03-.08-.08.06-.12-.08-.11-.1-.06-.06-.17-.13-.16-.21-.02,0-.05-.04-.08-.02-.03.02-.06.02-.08-.02l-.07-.06c.05-.06.03-.1-.03-.14l-.02-.02c-.32-.11-.4-.45-.64-.58.14-.08-.12-.24-.09-.09-.05-.07.03-.15-.1-.21l-.05-.04c-.1.02-.28-.1-.21-.24-.27,0-.23-.25-.43-.39l-.02-.02c-.07-.06-.14-.16-.22-.14-.13-.06-.06-.14-.1-.21-.05-.02-.08,0-.07-.06l-.07-.06-.17-.15-.03.03-.09-.09c.05-.12-.11-.05-.17-.22-.03-.02-.04-.06-.05-.09-.17-.09-.21-.32-.35-.32l-.09-.09c.02-.11-.18-.19-.25-.28l-.09-.09c.03-.17-.28-.14-.25-.28-.05-.06-.11-.11-.17-.1-.09-.02-.02-.19-.14-.13l-.14-.12-.02-.05c.02-.08-.03-.12-.09-.16l-.13-.15v-.04l-.02.02-.25-.28c-.05-.06-.07-.13-.16-.19-.03-.02-.05-.05-.08-.08l-.02-.02c-.06-.09-.12-.17-.22-.25l-.06-.08c-.03-.06-.08-.13-.14-.16l-.12-.14s-.04-.04-.06-.06l-.17-.21s-.04-.06-.05-.09l-.21-.2s-.02-.06-.04-.09c-.28-.32-.58-.58-.91-.81l-.02-.02-.03-.02c-.83-.58-1.79-.88-2.78-.92-1.26-.05-2.54.35-3.58,1.22l-.1.09s-.04.04-.07.07l.03.03-.02.02c-.17.12-.41.26-.64.47-.05-.04-.08.03-.12.06l-.07.07-.16.16c-.12-.02-.21.19-.32.27l-.05.05-.05.05c-.16.05-.3.26-.46.34l-.02.02c-.08-.02-.11.04-.14.1-.03.06-.06.13-.13.11-.14.08-.13.27-.27.27-.08-.06-.13.1-.19.13-.09.05-.05.11-.1.17-.1.02-.21.13-.3.19l-.16.16-.16.16c-.1-.03-.17.14-.21.21-.25.08-.38.37-.59.48-.09.09-.21.19-.24.3-.02.02-.03,0-.06,0-.02,0-.05-.02-.07.02l.03.03-.06.06-.09.09c-.3.24-.43.35-.7.64-.07.04-.14.06-.21.15-.09.05-.02.12-.11.17l-.03-.03c-.09.06-.21.12-.24.24-.07-.03-.13.06-.19.07l-.34.33-.09.09c-.08-.02-.11.03-.14.09-.03.06-.06.11-.11.09l-.34.33c-.07-.02-.09.03-.12.07-.02.04-.05.09-.09.07-.02.04-.05.07-.09.09-.02-.02-.06-.02-.09-.05-.08-.11-.17-.05-.25-.14-.09-.08-.18-.14-.28-.16-.11-.05-.23-.11-.35-.22-.04.06-.08.06-.13,0,.06-.07-.09-.09-.12-.15l-.02.03-.17-.14c-.06-.09-.11-.04-.17-.09l-.09-.08-.05-.03c-.09-.04-.18-.21-.28-.17l-.02-.02c-.13-.08-.26-.26-.39-.26-.02,0-.05-.04-.08,0l-.07-.06s-.02-.06-.02-.07c-.13-.13-.27-.12-.4-.26-.06-.02-.02-.18-.13-.1l-.22-.17-.17-.14-.15-.12-.07-.06-.15-.12-.2-.16-.15-.12-.3-.24-.24-.21-.05-.04-.44-.36c0-.09-.19-.24-.27-.22-.1-.02-.21-.1-.3-.18l-.07-.06c-.04.09-.07.06-.1.03-.02-.02-.06-.06-.08,0,.02.11.25.16.17.3-.09-.09-.19-.05-.28-.17-.02.17-.09.09-.13.23l.07.06s-.05.02-.08.05l-.12-.1-.14.17c.11.11.13.25.24.36l.92.73c.36.25.58.55.94.8.13.06.09.17.22.23l.08.06.22.17c.29.16.43.48.7.55l.03.02c.14.1.16.21.32.24-.02.03,0,.06-.02.09-.16-.12-.3-.25-.46-.3l-.07-.06c.03-.06-.04-.08-.08-.11l-.02.03-1.47-1.15-.15-.12-.21-.16c0-.09-.21-.26-.29-.24l-.06-.04c-.09-.06-.06-.14-.17-.19l-.03.03-.03-.02c-.15-.06-.13-.26-.29-.24l-.03-.02c0-.13-.23-.2-.32-.31-.1-.11-.19-.07-.23-.17-.13.1.05.13-.06.23-.08-.06-.15-.09-.23-.07.08.11.07.24.21.34l.03.02.02.02.1.08-.06.07.23.17c-.02.1.17.15.22.23.02.02.06.04.02.08l-.21-.16-.28-.21-.05-.04-.21-.16-.2-.16c-.07.07-.09.13-.06.18-.02.05-.02.09.02.13-.02.02-.03.02-.06.02h-.05c-.09.06-.17.03-.27.13-.06.07.03.09-.06.17-.03-.02-.07-.06-.1-.02.06.05.03.12.13.15l.05.04s-.03.02-.06.02c-.02,0-.03,0-.05.02-.06,0-.1-.14-.16-.06.02.03,0,.07,0,.11-.02.02-.05,0-.08,0-.03-.02-.07-.04-.11.04.09.02.03.1.1.13-.02.03-.06.02-.08.05.16.12.24.27.43.38-.04.09.13.12.17.19l.16.11c.28.32.78.57.98.91-.13-.07-.25-.11-.38-.24l-.23-.17-.23-.17-.08-.06-.28-.21-.25-.19-.06-.04-.23-.17-.1-.08-.1-.07c-.11-.07-.22-.22-.33-.14.02.03,0,.09.07.11-.07.05.13.13,0,.1-.08.03-.13.12-.16.21-.04.07-.08.07-.11.06-.03,0-.05,0-.08.02.11.12.36.2.38.34l-.05-.04-.28-.21c-.09-.11-.1.02-.16.1-.03-.03-.17-.14-.13-.04.06.04.09.09.07.16h-.06s-.08-.02-.13.03l.1.07s-.03.02-.06.02c-.02,0-.03,0-.05,0,.07.06-.14.05,0,.1,0,.14-.09.05-.16,0-.19.16-.04.22-.06.33h-.06c-.06,0-.12-.02-.18.1l.06.04-.03.03c-.09-.02-.17-.23-.26-.08.21.02.19.18.33.29l.08.06c.07.07.26.12.17.24l-.13-.09-.06-.04s-.06-.03-.08,0c-.02-.08-.19-.24-.28-.21,0,.06.03.09.1.13-.05.06-.09.06-.13.02-.13.11.06.13-.06.23-.07-.05-.14-.13-.21-.04,0,.18.35.26.33.45l-.26-.18s-.05-.06-.06-.09l-.08-.06c-.06,0-.12-.15-.18-.07.1.06-.02.03-.06.12.06.02.03.08.08.1l.03.02c-.06.08-.11-.05-.16-.06-.07.16.17.22.21.36.15.09.17.21.34.29-.03.02-.06.06-.08.05-.11-.13-.32-.25-.42-.39-.06.02-.13-.02-.19-.08-.03-.05.05-.03.08-.05-.09-.02-.06-.21-.18-.13.02.05.02.09,0,.16-.09.21.14.3.17.39-.02-.02-.08,0-.08,0,.1.15.19.17.34.34-.03.06.04.07.08.1l-.06.07c-.18-.09-.2-.22-.36-.31-.06-.13-.27-.21-.35-.34-.03.05-.07.07-.11.09.04.04.16.06.06.14.12.04.09.13.18.17.02-.03.02-.06-.02-.07.1-.08.1.09.16.11-.04.06-.09.03-.13.02-.02,0-.06-.02-.09,0-.07-.02,0-.27-.16-.1.12.04.06.13.19.17-.03.03-.06.03-.08.05-.15-.04-.09-.28-.26-.23.03.08.08.17-.06.17-.08.22,0,.4.18.54.06.09.17.15.21.24.03.02.08.05.05.09-.32-.14-.48-.47-.69-.57.03.08.19.19.05.24-.1-.02.09.27.21.35-.06.08.1.09.13.14l.13.09c-.14.19-.36-.13-.47-.17.03.02-.08.09.21.2.02.11.2.17.29.24.02.12.27.16.27.28-.13.04-.13-.09-.21-.14l-.24-.16c-.1-.1-.3-.32-.43-.33.13.09.1.24.27.33.09.06.09.14.21.19l.13.09c.22.23.33.48.7.66.04.09.1.13.21.14-.03.03.02.05.02.07-.02.05,0,.09-.08.05.03-.09-.15-.12-.21-.19-.47-.29-.02.05.13.19.21.14.3.32.53.46l.02.02c.03.11.19.18.27.28,0,.07.11.12.18.17.05.07.11.14.21.2,0,.05.1.21.16.16.12.06.16.04.16.16.05.11.16.24.29.24.13.09.1.12.24.17l.08.06c-.11.17.09.13.19.17.11.06.05.06-.03.13.02.04.06.02.09,0,.04-.02.07-.05.04.03.03.1.28.28.39.27l.05.03c-.03.06.05.07.08.1-.05.06.12.17.16.11.13.11.35.19.39.32.03-.04.07-.07.1-.03-.05.06-.03.09.03.12l.18.13.1.07c.07-.02.12.05.17.1.06.06.11.12.2.1l.15.11.03.02c.19.14.24.12.42.24l.08.06.16.11c.09.03.19.2.28.15l.03.02.02.02s.04.09.08.06l.15.11.24.17c.35.17.51.43.8.58l.03.02c-.06.07.09.09.13.14.09.14.24.3.36.31.07.03.09.08.1.13l.1.07c-.06.07.08.08.1.13.05.07.08.09.12.1l.67.14.55.34c.09.06.18.1.27.16l.05.02c.08.04.16.08.24.11.05.02.11.04.16.06s.09.03.13.05c.06.02.11.03.17.05.04,0,.09.02.13.03.06.02.11.02.16.03.05,0,.09.02.14.02.06,0,.11,0,.17.02.04,0,.09,0,.13.02h.3c.06,0,.13,0,.21-.02.03,0,.06,0,.1,0,.06,0,.13-.02.21-.03.03,0,.06,0,.09-.02.07-.02.13-.03.2-.06h.03l.23.04c.7.15,1.41-.26,1.63-.96,0-.03.02-.06.03-.11.09-.05.21-.05.3-.19-.02-.03-.06-.06-.03-.08.02-.04.06-.03.09-.03.04,0,.07.02.1-.05l.02-.02c.21-.03.21-.19.28-.35.03-.05.08-.02.13.05.04-.14.18-.13.17-.28l.09.09c.06-.04.08-.09.04-.15,0-.02.02-.03,0-.06.04-.02.09.04.13.04.16-.39.62-.35.81-.76.1.03.18-.16.27-.22.19-.28.49-.28.44-.55.06-.08.13-.14.21-.1.07.06.12-.1.18-.13.07.03.24-.13.16-.21.02-.04.06-.03.08-.02.03,0,.06.02.09-.03.05-.06.1,0,.14-.08l.09-.09.06-.07c.06-.06.12-.14.19-.13.08-.09.17-.17.25-.19l-.03-.03c.13-.02.24-.21.36-.31.02-.03.07-.06.03-.09l.05-.05.03.03c.08-.03.16-.08.23-.17.13.02.03-.1.11-.17.06.02.13-.02.19-.07l-.06-.06.07-.07s0,.07.06.11c.09-.07.02-.17.08-.24.1.08.09-.02.14-.08.03-.02.07-.04.11-.06.41-.24.74-.7,1.19-1l.13-.13.19.13c.08.09.12.17.26.24l-.03.03c.34.39.79.85,1.11,1.18-.04.09.13.15.17.23.02.03.03.04.05.05.24.28.57.65.81.94l.03-.03s.08.08,0,.13l.13.13c-.05.06.1.21.16.16.02,0,.04.04.07.02.03.05.14.09.03.15.05.07.1,0,.14.08-.04.04.02.07-.02.1.04.06.09.06.14.06.03,0,.07,0,.1.02.05.07-.05.29.14.26l.05.05c0,.13.06.1.16.16.13.06,0,.13.07.2.14.18.24.21.34.47.05-.07.08-.05.11-.02.02.02.05.03.07.02.06.18.17.46.36.54.1.16.16.17.31.32.06.04.08.09.08.14-.02.14.21.09.11.24.03-.02.06-.02.08.02.04.03.04.24.16.1l.07.07.07.07.13.13c.13.25.28.58.58.72-.08.06-.02.13.09.22.27.16.37.35.59.62.17.12.19.36.36.31.02.22.11.28.32.45.04.04.04.21.15.16.09.11.17.32.28.35l.06.07c.1.09.05.13.16.16l.02.02c.04.06.09.13.14.19.59.7,1.34,1.18,2.16,1.45l.02.02.08.02c.34.11.7.18,1.06.21h.11c.29.02.59.03.88,0,.11.02.22.03.33.04h.02c.52.03,1.03-.12,1.46-.42.21-.15.39-.32.55-.54l.24-.17c.14-.1.29-.22.47-.3.09-.16.21-.21.37-.24l-.02-.03.05-.04.02-.02c.13.02.24-.18.37-.24l.09-.08c.06.08.1-.06.16-.06.08.06.11-.13.14-.17.16-.04.15-.12.29-.19.24,0,.3-.2.52-.32l.09-.08c.11-.13.24-.07.27-.22.11.09.02-.09.13-.1.11-.09.27-.04.3-.18.06-.02.24-.02.2-.1.22-.09.39-.21.55-.32l.05-.04c.09-.03.06-.11.11-.15.06.13.11.02.16,0l.05-.04.03-.02c.06-.08.14,0,.2-.1l.13-.1.03-.02c.1-.09.21-.19.32-.21l.08-.06c.08.04.11-.02.13-.07.03-.06.06-.1.12-.07.13-.06.21-.09.27-.21.06,0,.1,0,.15-.06.06-.1.19,0,.17-.14.1-.02.16-.06.2-.16l.02-.02.06.07c.06-.06.16-.1.14-.17.05-.02.09-.13.16,0l.17-.14s-.06-.07-.04-.09c.02,0,.03,0,.05,0h.04c.09.02.28-.03.28-.16.02-.05.05-.04.08-.04s.05,0,.08-.02c.12,0,.22-.11.32-.2.17-.09.48-.21.55-.38.16-.03.24-.19.36-.21.09,0,.32-.09.31-.17l.06-.04c.29-.09.56-.34.84-.47l.33-.25h.05s.04,0,.06-.02c.2-.12.39-.21.58-.39.06.06.09-.02.13-.04l.36-.27c.17-.02.33-.12.49-.24l.21-.16c.06.09.1-.06.16-.06.15-.12.32-.13.47-.28.08.09.12-.06.18-.07l.16-.12c.06.06.09,0,.13-.03l.25-.19s.06.03.09,0c.11-.13.24-.1.36-.21l.16-.11c.06.06.09,0,.13-.03.05-.03.07-.07.07-.12.09,0,.17.02.24-.05l.23-.17c.3-.09.58-.28.87-.43.53-.24,1.06-.53,1.58-.81.17-.11.35-.13.51-.29.03.03.06.03.09,0,.14-.16.32-.13.47-.27.14-.02.28-.13.42-.23.17,0,.31-.13.47-.18l.13-.09.11-.05c.13-.03.24-.14.36-.21.08.1.1-.04.17-.05.09-.12.23-.07.32-.15.16-.06.32-.11.46-.24.19-.02.35-.24.55-.23.12-.06.21-.21.36-.17l.02-.02c.09-.08.19-.13.3-.13l.06-.03.1-.07c.09-.12.21-.04.3-.13l.29-.2c.07-.1.17-.02.25-.09l.4-.26.16-.1c.09.06.3-.07.27-.17l.21-.13c-.02-.08.05-.12.12-.16-.04-.09.09-.07.02-.17.06-.21-.24-.58-.36-.88,0-.14-.17-.37-.39-.63.08-.09.09-.22.06-.37-.17-.31-.58-.42-.54-.62l.02-.02c-.06-.07,0-.08-.03-.14-.12.12-.13-.11-.29-.21,0-.02,0-.06-.06-.12l-.02.02-.09-.1.13-.09c-.09-.12-.16-.15-.21-.1-.04-.06-.06-.05-.11-.09-.05-.06,0-.09.03-.11-.06-.07-.1-.1-.15-.14l.09-.08c-.06-.07-.11-.11-.16-.14l-.21-.26-.03.02s-.03-.08,0-.09c-.09-.13-.14-.08-.24-.24.04-.03.07-.07.06-.13-.24-.25-.28-.33-.61-.65-.09-.29-.31-.58-.62-.91.13-.02-.09-.2-.17-.31-.09-.34-.3-.41-.49-.75-.13-.16-.06-.13.02-.12.06.02.14.03.07-.07-.05-.02-.09-.02-.13,0-.05,0-.09.02-.14-.02-.06-.3-.56-.81-.69-1.14l-.02.02c-.06-.16-.31-.42-.43-.53.1-.02-.06-.16-.13-.26-.16-.23-.2-.41-.47-.69l.02-.02-.22-.26c-.25-.45-.43-.55-.82-1.01-.25-.07-.49-.1-.72-.1-.3,0-.58.06-.85.16l-.05.02Z"/>
    </clipPath>
    <clipPath id="clippath-1">
      <path class="cls-3" d="M32.45,73.35c.16.08-.05-.11-.18-.17-.03-.02-.05-.02-.06-.02-.03,0,.17.17.24.2h0Z"/>
    </clipPath>
    <clipPath id="clippath-2">
      <path class="cls-3" d="M28.28,66.53v-.02.02s0,0,0,.02v-.02M28.33,66.49h-.02.02M31.22,61.93c0-.09.14-.27.24-.18-.14.05-.12.17-.21.23l-.04-.06h0ZM36.97,61.48s.03-.03,0-.07l.1-.08.14-.1.03-.02s.09-.05.04-.11l.43-.32c0-.09.15-.19.27-.03-.13.04-.21.06-.24.18-.11.13-.39.18-.39.37-.06.14-.16.11-.26.28-.04-.06-.07-.05-.11-.09M32.26,60.5l.14-.1c0,.07-.05.39-.22.16h.08s.03-.02,0-.06M38.22,60.22c.17-.26.48-.45.7-.69l.08-.06c.16.16-.02.15-.06.21-.23.13-.33.58-.58.58-.04,0-.09-.02-.14-.05M39.12,59.29l.08-.06c.03-.07.23-.06.15-.19l.27-.21c.06-.07.1-.06.13.07l-.02.02c-.03.07-.23.07-.16.2l-.08.06c-.09-.07-.09,0-.11.06,0,.05-.02.09-.08.09l-.08.06c-.03-.06-.06-.05-.1-.09M34.34,58.2c-.09-.12.09-.1.12-.17.04-.02.04-.05.02-.09l.06-.04.08.11c-.06,0-.09.06-.11.12l-.1.11s-.03-.02-.06-.03M41.68,57.15l.08-.06c.06.07.09.05.14.14-.16.03-.08.05-.12.17-.13-.13-.02-.15-.1-.25M42.45,56.51c.06-.05.12-.09.21.09-.02.03-.05.02-.09.02-.06,0-.1-.02-.05.09l-.11.08s-.07.06-.13,0c.16-.02-.05-.21.02-.26.02.02.05.02.06.02.03,0,.06-.02.08-.03M39.68,58.7c.17-.06.13-.23.28-.29l.11-.08.13-.1c-.07-.13.12-.12.15-.19.26-.17.37-.42.66-.58-.07-.14.14-.13.18-.21l.06-.04c.11-.1.14-.24.32-.32.21-.16.32-.38.58-.51-.06-.14.16-.14.21-.24.08.12-.11.1-.06.21-.08.13-.21.12-.28.29-.1.02-.32.26-.36.43-.03-.04-.06-.03-.1-.09-.11.02.1.21-.06.21-.14.07-.13.06-.24.18l-.19.14c-.13.03-.08.16-.17.21-.11.03-.09.13-.15.2-.06-.09-.21.02-.13.1l-.16.12s-.05.07-.05.12c-.07.04-.13.09-.12.17-.27.02-.32.33-.55.33l-.04-.06h-.02ZM42.75,56.27c.06-.02.02-.1.07-.13.07.12,0,.17.13.24-.05.06-.11.02-.17,0-.04-.02-.08-.03-.11-.03l.08-.06h0ZM42.49,55.97l.21-.16c0,.13-.06.22-.16.28l-.03.02s-.05.02-.06.02c-.05,0,.09-.09.04-.17M37.02,55.22c0-.07.02-.13.09-.15.05.08.04.13.13.23.02.05.02.08-.02.09-.08-.07-.14-.1-.21-.17M44.41,54.52h-.05.05M43.8,48.46s-.04.02-.06.04c.02-.02.04-.02.06-.04M52.01,48.46l.06-.04c.06-.05.09.02.1.09,0,.06,0,.1-.03.1s-.07-.04-.13-.15M43.93,48.37s-.02.02-.03.02c.02,0,.02-.02.03-.02M53.89,47s-.03.08-.06.1c.03-.02.05-.06.06-.1M53.97,46.8s-.05.11-.06.17c.02-.06.03-.12.06-.17M54.01,46.73s-.03.03-.04.05c.02-.02.03-.03.04-.05M65.92,38.08l-.22.24.22-.24ZM70.56,35.08l-.42.26-.43.28-.4.25-.36-.37-.14-.15-.34-.13-.15.17-.21.24-.31.43-.64.63-.58.65-.51.58-.45.28-.32.2c-.08.1-.32.1-.31.27l-.09.06c-.11,0-.38.02-.38.16-.06.09-.29.08-.25.24-.03.08-.07.04-.12,0-.02-.02-.05-.05-.06-.05l-.23.14c-.2-.06-.36.2-.55.27-.09.04-.06.17-.19.2-.08.02,0,.14-.11.14-.08-.05-.41.06-.28.25-.16-.02-.05.23-.25.24-.12-.31-.34-.05-.32.05l-.03.02-.32.2c-.17.09-.31.19-.39.32-.09-.13-.11.07-.08.13-.03.03.02.07.06.11-.05-.02-.06.02-.06.07,0,.06,0,.11-.08.02-.05-.07.02-.08-.02-.15-.02,0-.06-.02-.1-.09l-.17.11c.02.09-.03.07-.09.04-.06-.03-.13-.06-.09.06.21.32-.21.06-.22.29-.05.03-.09,0-.09-.09-.02.14-.19,0-.1.22.04.07.08.14.02.15-.03,0-.06.03-.09-.02.03-.02-.02-.09-.06-.04-.03.02-.07,0-.11-.02-.05-.03-.09-.07-.13.02-.22.08-.28.25-.45.36-.11.03-.06.15-.1.22,0,.06-.06.02-.1,0-.05-.04-.09-.07-.05.02-.02.08-.05.16-.1.22l-.11-.17c-.19-.02.1.24-.03.26-.06,0-.05-.08-.11-.17-.06.06.03.27-.13.17-.09-.12-.16.06-.24.07.06.09.13.19.05.21-.05.02-.09.07-.16-.06-.06.07.08.36-.13.24,0,.19-.13.02-.09-.09-.17.06.03.35-.21.36-.05-.07-.02-.1-.08-.19-.09.41-.52.19-.48.7-.06.02-.02.1-.08.13-.09-.09-.11.02-.13-.15-.08.04-.14.08-.08.21l-.03.02c-.11.09-.09.02-.09-.09-.07.06-.14.1-.03.26l-.09.06c-.07-.28-.09.04-.21.06l.1.17-.13.13c0-.09.07-.17-.08-.08-.08-.19-.13-.06-.18-.04.02.07.06.16.12.26l-.15.15-.03.02c-.04-.06,0-.11-.07-.11-.06-.09.05-.09-.05-.21-.17.08-.16.19-.32.2.06.08.06.13.08.19-.02.03,0,.07.05.13-.06.06-.13.09-.21.06l-.07-.11c-.1-.03-.13.06-.17.16-.04.12-.08.23-.26.11.05.08.06.13.07.19l-.11.07c-.14.09-.29.06-.43.2l-.03.02c-.04.06.05.19-.07.2.03.07.1.16.08.19l-.06.03c-.02-.15-.09-.1-.17-.06-.08.06-.15.1-.12-.08-.07.06-.22.07-.13.24l-.03.02s.04.07,0,.07c.03.1-.02.07-.08.04-.05-.03-.1-.06-.06.05l-.03.02c.02.1-.09.13-.17.18-.03,0-.05,0-.07.02.02-.02.05-.02.07-.02-.13-.23.17,0,.03-.26-.15.16-.38.26-.4.49.02.08.07.17.05.19h.03s-.06,0-.09-.02l-.06.03-.03.02s-.1-.02-.16-.13c-.17,0,.02.21,0,.32-.06.06-.08,0-.1-.06-.02-.06-.04-.13-.09-.06-.03.09.06.28-.09.29-.05-.09-.02-.13-.05-.21l-.09.06s-.03.03,0,.08c.02-.02.06.03.08.09.02.06.02.11-.03.1l-.1-.17-.14.09c.03.07.1.16.08.19l-.03.02-.14.09c-.04-.06-.02-.08-.05-.13-.12.03.06.24-.06.28-.07-.06-.3-.21-.24,0,.11-.09.06.09.11.17-.08.05-.21.09-.05.18-.05.02-.09.09-.15.02.06-.06-.1-.07-.14-.23-.04.07-.24.05-.17.18-.02.1-.12.16-.09.29l-.14.09c.06.07.09.07.1.17l-.06.03-.11-.17s-.09,0-.09-.09c-.09.06-.16.14-.16.26-.02.02-.03.03,0,.07l-.08.06c.03.13.19.23.03.29l-.03-.06-.09.06c-.05-.08-.09-.11-.13-.15-.03-.04-.06-.05-.09-.02-.14.06.06.17.02.22-.03-.02-.23-.17-.14.02-.24.02-.44.22-.47.45.04-.02.08-.06.13,0-.03.06-.02.06.02.05.03,0,.09,0,.12.1-.08.1-.06.07-.16.18-.07-.17-.12-.26-.23-.17-.02,0-.03,0-.06,0-.02,0-.02-.02-.04-.02-.02,0-.03,0-.05,0-.02,0-.03-.02-.05-.02,0,.18-.33.17-.2.44-.08,0-.05.06,0,.12.04.06.08.13,0,.12-.2-.17-.08-.19-.09-.33-.17.06-.23.19-.14.4l-.09.06c-.11.08-.09.02-.09-.09-.14-.09-.1.09-.21.13l-.02.02c-.06.07-.05.18,0,.32-.04-.06-.07-.06-.1-.09-.04-.06-.02-.11-.06-.11-.07.09-.17.17-.25.25-.02-.02-.05-.03-.06-.06.16-.09-.02-.14.09-.22,0,.03.04.02.08,0l-.04-.06s0-.09.09-.09c0-.06-.06-.03-.13,0-.07.03-.14.07-.13-.03-.03-.03-.05-.12-.13-.08,0,.04-.03.09-.08.13l-.06-.09-.06-.09c.06-.02.12-.03.11-.07,0-.04-.06-.03-.11-.02-.07,0-.13.02.03-.09-.08-.09-.23-.05-.28-.18l.17-.11-.12-.2c-.32.21-.09,0-.13-.08-.17.14-.21.07-.28.06,0-.06.02-.05.06-.03.05,0,.11.02.19-.08-.18-.06-.13-.06-.14-.23-.12.09-.21.13-.26.09.03-.02.06-.05.03-.06.08-.04.14-.03.09-.1,0-.06-.06,0-.13.04-.06.05-.13.09-.13.04.14-.13-.12-.02-.09-.14l-.05-.09.17-.1s.05-.21-.09-.14c-.06-.02-.03-.19-.14-.1-.09,0-.11-.03-.07-.11l-.06-.09s-.07-.02-.13,0c-.08.02-.14.06.02-.06-.02-.06-.08-.05-.14-.02-.03.02-.07.02-.09.02l-.19-.03-.11-.75-.23-.22-.28.07-.2-.33-.19-.3-.28.02-.28.17-.18.33-.52.2-.24.33-.28-.06v.02s-.02.04-.06.05l-.12-.16-.06.04s.02.09-.04.11c-.15.02-.07.24-.22.16-.13.1-.32.17-.27.36-.03.02,0,.07-.02.09-.03.03.02.09-.05.11-.1-.22-.34.06-.13.1-.11.02-.02.15-.13.17-.06-.07-.07-.13-.09-.18-.06.02-.02.1-.07.13-.04.03-.24.14-.09.15.11-.12.08.02.21.17-.02,0-.06.04-.09-.02-.12-.21-.16-.02-.15.03-.02.06-.06.02-.09-.02-.03-.04-.07-.08-.09-.02.06.07.07.13.09.18l-.08.06-.12-.16-.06.04c.04.09.05.15.04.21,0-.04,0-.09-.02-.14,0,.1-.16.02-.13.17.03,0,.07.02.1.09l-.02.02.04.06c.07.09.06.14,0,.17-.06-.08-.11-.16-.14-.14l-.11.08c-.04-.06-.03-.08-.06-.13-.09.05,0,.18-.09.23-.19-.07-.21.17-.32.24-.09.12-.25.21-.07.47l-.02.02c-.11-.18-.17-.13-.21-.27-.28.02-.09.51-.28.37l-.02.02c.06.12.08.28-.06.21.02.11-.11.15.02.32l-.08.06c-.21-.35-.35-.28-.48-.14-.05.09-.26.09-.21.24l-.16.12s.02.09-.04.12c-.08.06-.17.09-.16.19-.04.08-.24.08-.17.21-.13.17-.14.42-.39.54-.05.04-.09,0-.1-.09,0,.2-.44.16-.25.35-.09-.09.06-.17.13,0l-.19.14c-.13-.22-.17.02-.27.03.06.1.14.1.12.16-.21-.24-.43.06-.17.21,0,.17-.36.51-.22.16-.08-.19.24,0,.06-.21-.12-.09-.16.13-.16.19-.1.16-.28.28-.38.45l-.13.1.12.16-.11.08c.08.13-.12.12-.15.2l-.08.06c-.11-.12-.03-.16-.17-.28-.02.12-.11.19-.24.18.05.08.03.13.13.24l-.06.04-.12-.16c-.17,0,.05.18,0,.24-.05-.07-.13-.02-.08.06.03-.02.07.06.02.07l-.12-.16c-.07,0-.04.05-.02.09s.06.09-.02.09c-.1.02,0,.15-.12.17-.06-.02-.13-.02-.17.05,0,.13.02.28.14.14.02,0,.03-.02.06.03l-.03.02-.06.04c-.09,0-.06.09-.05.15l-.09.06c-.03-.06-.03-.17-.08-.13-.08.03-.09.09-.03.19l-.03.02-.13.1-.04-.06c-.02-.09-.05-.09-.12-.16-.02.06-.19.04-.09.16-.11.04-.14.13-.17.21-.03.09-.02.19-.11.24-.04-.04-.08-.1-.11-.09,0,.08.06.18.02.24l-.08-.11c-.11.02.06.19-.06.21-.02.02-.06-.02-.09-.06-.04-.04-.08-.08-.1-.05l-.03.02c.05.09.06.17.04.22-.04.02-.07.03-.13-.06-.07.06-.21.1-.03.19.09.11-.08.09-.09.15-.02.1-.08.04-.13-.02-.03-.04-.06-.07-.09-.07.06.12-.12.11.06.2.02.1-.08.14-.15.19l.04.06c.04.06,0,.07-.02.09-.11.02,0,.15-.12.17-.12-.19-.12-.05-.12,0-.05-.06-.08-.09-.11-.09-.02-.05,0-.07-.06-.13,0,.17-.28.2-.14.43.05-.02.09-.09.15-.02l-.02.02c0,.07-.02.13-.09.15-.05-.08-.04-.13-.13-.23.03.17-.13.24-.18.38-.07-.08-.15.12-.15.19.15.02,0,.21.2.27l-.08.06-.2-.27c-.03.17-.06.35-.19.47l-.12-.16c-.06.06-.1.13-.09.23-.02.06-.18.04-.09.15.03,0,.21.12.14.14-.07.07-.17-.03-.25-.06,0,.06.04.15.1.25l-.03.02c-.13.24-.26.52-.55.5l.08.1-.08.06-.03-.06c.02-.06-.04-.04-.08-.1-.1.09-.13.23-.22.32l-.03.02c-.02.06.17.23.14.29-.06-.07-.13-.17-.17-.11-.02.03-.04.02-.07.02-.02,0-.03-.02-.06,0-.03.02-.04.07-.04.11-.13.05.07.26-.07.3-.02-.09-.06-.13-.11-.09-.07.06-.13.13-.23.09-.08.02,0,.11.06.2l-.08.06.04.06-.02.02c-.03.06-.09-.02-.16-.09-.06-.07-.11-.15-.15-.09.22.46-.06.35-.14.6.02.18-.23.22,0,.51l-.02.02c-.04.09-.09.16-.16.24l-.07.09-.02.02c-.18-.03-.18.11-.27.2-.02.02,0,.07-.02.09.05.06,0,.09-.04.11-.06.02-.06.07-.06.12l-.03.03-.11.09-.03.02c-.04.08-.24.08-.17.21-.09.15-.17.15-.24.35-.11.03-.1.13-.16.2-.09.14-.28.24-.32.4-.02.03-.06.02-.08.02-.03-.02-.07-.02-.09.03.04.06.02.08.05.13l-.32.24c.03.09-.04.14,0,.24l-.02.02c-.05.06-.11.07-.17.05l-.03.02s.05.11.02.15c-.03,0-.06-.02-.11-.09-.02.09-.12.12-.08.23.03-.02.06-.07.12,0-.07.03-.09.09-.09.16-.14-.02-.24-.06-.13.1-.03,0-.06-.02-.11-.09-.1.03.03.19.05.29.1.17-.24.1-.13.27-.13.12-.21.26-.17.45.09.21-.33.61-.09.56.02,0,.03-.02.06.03-.06.13-.17.23-.17.38l-.11.08c.03.11.02.19.05.29-.07.04-.09.11-.06.21-.03.04,0,.11-.07.13-.02.03,0,.09.03.14l-.06.04c-.13.19-.06.48-.15.7-.13.09-.09.24-.02.43-.07.05-.02.15-.12.17.04.06.11.15.09.18-.13-.06-.15.09-.09.23-.1.04-.05.16-.08.23.2.12.1.36.29.28l.08-.06c-.16-.16.02-.15.06-.21.11,0,.14-.03.14-.07.02-.06-.02-.11.17,0,.19.03.17-.19.35-.26.08-.11.32-.13.28-.29.03-.02,0-.07.02-.09.57-.26.8-1.35,1.29-1.37-.05-.07-.09-.13-.03-.15l.13.16c.13,0-.02-.16-.05-.24l.05-.06s.05.03.08.08c.1-.02-.02-.15.03-.19l.12-.17c.09.05.15-.03.23-.09-.05-.06-.09-.13-.03-.14.08,0,.13-.23.24-.02.05-.05.07-.1.03-.19.04-.08.06-.17.17-.21l.14-.1s.08.1.11.09c-.06-.1,0-.09.06-.09.03,0,.07.02.09-.02-.03-.05-.08-.11-.06-.13.17.14.51-.12.43-.32.21-.02.3-.08.35-.26.08.06.16.06.21,0-.04-.11-.18-.28-.18-.36.03,0,.07.04.12.09.06.08.13.15.15.04l.02-.02c-.02-.12.13-.16.21-.24.06.13-.11.15-.05.28.21-.09.19-.31.28-.47-.06-.02-.12-.02-.17.05-.08-.06.09-.23.21-.23.05.07,0,.09-.04.11.36.36,0-.22.2-.24l.03-.02.11-.08c.03.06.02.08.05.13.03-.02.09.02.13.06.02-.17,0-.15.17-.12-.2-.28.23-.06.13-.27l-.08-.11s-.02-.08.02-.09c.13.18.22.24.31.19-.03-.06-.02-.08-.05-.13.13-.17.44-.27.61-.36-.06-.14-.13-.29-.06-.36.12.03.06.16.14.14,0-.1-.19-.3-.02-.32.03-.03-.02-.09.04-.11.06.06.09.05.14.14-.04,0-.04.03-.04.06,0,.06.02.1-.07.02l-.03.02c.11.28.37-.06.27-.21.11-.02.06-.13.13-.17,0-.07-.09-.12-.11-.25-.27.28-.48.48-.81.77l-.16.12c-.07.14-.28.16-.36.36l-.13.1.03.06c-.14.06-.09.13-.06.21-.05.04-.1.02-.16-.05-.28.32-.77.35-.96.7-.11-.1-.17.09-.25.11l.05.06c-.13,0-.21.09-.28.17-.07.09-.15.19-.31.17.04-.02.05-.07.05-.11.19.1.13-.21.3-.22l.17-.12s.05-.04.02-.09c-.02-.11.37.02.32-.24l.03-.02.13-.1.06-.04c.06-.06-.03-.19-.06-.28l.15-.11s.06,0,.09.02c-.09.05-.16.1-.02.26l.11-.08c.06-.09.02-.08.13-.1.13-.03-.1-.23-.05-.29.08.02.17.09.19.19l.06-.04s.12-.06.07-.13c.04-.02.05-.07.05-.11,0,0,.02,0,.03,0,.06.02.13.02.11-.05v-.02s0-.02-.02-.03c0,.02.02.02.02.03v.02c.59-.26,1.08-1.12,1.64-1.26-.16-.32.41-.26.36-.52l.27-.21c.12-.09.21-.18.21-.32l.02-.02c.17,0,.28-.17.33-.24l.24-.18.24-.18.03-.02.02-.02s.04-.07.04-.11l.11-.08.06-.04.06-.04c.12.14-.18.06-.06.21l-.06.04-.03.02c0,.07-.02.13-.09.15l-.06.04-.17.12c-.32.37-.62.43-.8.84-.16.12-.34.23-.42.39-.03,0-.02.04.02.07l.02-.02c.14.02.11-.06.26-.1.02.06.04.1.09.18l.24-.18-.04-.06.3-.22.17-.12.02-.02c.24-.22.51-.41.79-.75l-.05-.06.27-.2c.16-.07,0-.33.24-.18.51-.32.42-.69,1.05-1.02-.05-.06-.07-.04-.1-.02-.02.02-.06.02-.09,0-.05-.08.03-.09.07-.13-.09-.14,0-.13.07-.12.04,0,.08.02.09,0-.02.05,0,.11-.07.13l.04.06.11-.08c.02-.16.27-.09.28-.29l.06-.04c.03-.07.23-.06.15-.19l.03-.02c.13.05.16-.2.32-.24,0-.02.06-.04.02-.09-.05.02-.12-.11-.18-.19.03-.03-.02-.09.04-.11l.08.11c.02.06.04.11.09.18.24,0,.28-.31.54-.4-.02-.06-.32-.42-.12-.32.11-.02.06-.13.12-.17l.16.21.17-.12.17-.12c-.12-.21-.17,0-.24.02l.04.06c-.12.12-.1.05-.24-.15l.06-.04c.12.21.32-.04.28-.13l.03-.02c-.05-.08.02-.1,0-.17.02-.1.09-.07.16-.05.07.03.13.06.09-.06.11-.09.06.08.12.16l.14-.1c-.06-.13-.02-.11.02-.09.04.02.1.04.13-.03.04-.06-.08-.08-.06-.13.2.05,0-.13.08-.23.06-.02.08.02.11.06.03.06.06.1.12.02.09-.12.34-.14.32-.32.02-.16.17-.06.27-.2-.16-.17-.02-.13.04-.12.19-.13.36-.26.47-.43l.08-.06.16-.12c.02-.06.19-.04.09-.16,0-.09-.11-.23-.11-.32l.06-.04c.06.07.07.13.09.18.09.13.14.04.19-.06.03-.06.08-.12.14-.12.03-.04.12-.06.07-.13l.08-.06c-.02-.11,0-.18-.1-.09-.02-.03-.05-.07-.02-.07.02-.02.03-.03-.02-.07.09-.02.15-.21.26-.1.04.09-.1.09-.03.18l.02-.02c.21-.1.28-.26.43-.39.02-.06.18-.04.09-.15l.11-.08c.17,0,0-.18.09-.23.32.23.26-.28.26-.43h-.02c-.11-.02-.09.13-.16.19.07-.06.05-.21.16-.19h.03c.26.25.36-.1.15-.29.06.06.09,0,.13-.02,0,.02,0,.02.02.03.03,0,.05,0,.06,0-.14.06.05.2.13.17l.11.17c.15.13.28.31.43.44l.16.26c.06.06.16.06.19.17.02,0,.08-.02.13-.05.06-.03.12-.06.13-.04.03.05-.14.12-.13.17-.11.13.1.21.2.19,0-.04.04-.09.08-.13l.02.03.06.09c-.07.05-.1.02-.19.08.12.11.21.28.4.26-.02-.12-.24-.22-.14-.35l.08.12c.06.03.03.21.16.13l.16.25s.03.06-.02.09c-.06-.03-.03-.21-.17-.13.05.11.02.22.12.32.04.14.16.13.22.22l.03.06s.06.09.09.14l.24.55.17.37.08.17.09.19.08.17.14.03.29-.22.11-.05-.03-.04.03.04.29.33.17-.06.12-.21.23-.11.13-.21.33-.29.17-.08c.07-.03.13-.06.11-.16l.11-.07c.17-.14.37-.27.47-.45l.2-.13c.13,0,.02-.12.03-.17l.03-.02h0c.03.06.02.08.04.13l.11-.07-.03-.06c.14-.13.21-.35.42-.34.16-.05.11-.12.07-.2.11.06.19-.06.29-.1-.03-.07-.07-.14-.02-.15h.06s.07.02.09-.02c.03-.03.12-.05.08-.13.18-.06.17-.24.36-.31.12-.07.21-.16.15-.33l.03-.02c.09.06.18,0,.27-.02.09-.2.36-.28.47-.45l.21-.13-.04-.06c.09-.09.28-.11.28-.25.11,0,.21-.03.23-.14.08-.02.1-.08.11-.15l.11-.07.03-.02c.17-.06.15-.24.33-.28.14-.05.16-.16.24-.24l.26-.16c.05-.08.24-.06.19-.21l.09-.06c.02-.06.19-.03.11-.15.45-.36.92-.7,1.14-1.11l.03.06c.06-.02.28.02.23-.14.21-.11.39-.24.51-.39.13-.06.21-.13.19-.28.98-.63,1.82-1.47,2.92-2.24l.06-.03c.1-.12.37-.13.36-.31l.17-.1.38-.24c.05-.08.24-.06.19-.2l.11-.07.2-.13.09-.06.06-.03.14-.09.03-.02c.11-.03.03-.17.17-.18l.35-.21c.42-.32.83-.43,1.16-.81.26-.04.68-.29.82-.52l.03-.02.03-.02c.13-.08.26-.2.4-.17.36-.22.54-.37.88-.56.11-.02.11-.12.16-.18l.03-.02c.08-.13.27.02.26-.16l.03-.02c.32-.08.61-.32.92-.5.09,0,.16-.24.27-.02.06-.07-.03-.23.13-.24l.03-.02.07.11c.14-.04.17-.16.24-.24.09.21.28.02.24-.07-.06.06-.13.09-.21-.02l.23-.14c.06.16.25.19.19.04-.02,0-.04.02-.06-.04,0-.02.04-.03.02-.07l.42.11.08.11-.14.07s.04.13.12.09c0-.02.05-.06.09-.07l.1.15s.02.06-.02.09c-.21-.07-.09,0-.14.16.14-.02.1-.09.25-.09l.05.09-.17.09.06.12.17-.09.05.09s-.02.06-.1.09l.06.12c.03.06.03.1,0,.15l.03.06.02.03c.16-.09.19-.02.24.02,0,.16.04.32.03.48l.05.09c.09-.02.09.02.08.06-.02.04-.03.09.06.06.03-.02.07-.03.07,0l.05.09.08.15s-.07.08-.16.13c.02.19.21.13.32.17l.02.04c-.03.17-.09.42.15.41l-.17.09c0,.08.06.07.1.07s.09,0,.11.05c-.14.16.14.13.14.27l.03.06s-.03.06-.03.09c0,.08-.04.27.17.17.11.09,0,.2.09.3l.03.06c-.13.09.06.16.06.24.07.21.09.27.24.45-.16.13.12.07.09.18.08.22.15.35.19.51l.06.12c.03.14.14.17.22.26-.13.1-.03.36.11.36.16.32.23.66.45.98l.03.06c.09.07.06.29.22.27,0,.17.1.34.2.51l.47.89c.12.14.13.43.32.47l.24.45c.13.16.16.47.36.54l.19.36c.07.04.03.24.17.17l.17.32.08.15c.17.02.14.32.32.32.1.13.13.38.3.42l.08.15c.03.07.14.03.15.15l.02.03c.14.24.33.4.52.56.86.88,1.64,1.87,3.07,1.95.15,0,.28.06.51-.04,0,.07.06.05.13.02.04-.02.07-.02.09-.02.14.09.42-.03.64-.07.09,0,.24-.09.33-.09.13.05.43-.17.68-.28.17-.11.53-.23.58-.34l.12-.06c.32-.42.55-.84.39-1.24.08-.09-.05-.32-.16-.3-.06-.09-.13-.17-.19-.25h0v-.02l-.66-.78c-.1-.16-.14-.42-.32-.46-.09-.09-.08-.34-.25-.32-.52-.83-.99-1.55-1.52-2.43l-.02-.03c.12-.13-.09-.22-.14-.27.08-.09-.06-.33-.17-.32-.32-.53-.73-1.46-1.06-1.99l-.17-.33c-.26-.44-.53-1.05-.75-1.4l-.08-.15-.03-.06c.05-.15-.12-.46-.27-.51l-.03-.06-.02-.06-.14-.27c.07-.18-.17-.36-.21-.54-.13-.16-.15-.47-.36-.53l-.05-.09c.11-.13-.09-.24-.11-.36l-.21-.39c.06-.12-.09-.39-.22-.42l-.02-.03-.05-.09c.11-.11-.09-.22-.1-.33l-.13-.24-.08-.15-.28-.54-.05-.09c-.11-.12-.11-.4-.3-.42l-.16-.3c-.09-.07-.06-.29-.21-.26l-.11-.21-.05-.09-.09-.18-.02-.03.06-.03-.06-.12-.31-.58-.31-.58-.45-.86-.7-1.3-.45-.85-.43-.81-.21-.39-.11-.08-.12-.06-.27.17.02-.02Z"/>
    </clipPath>
    <clipPath id="clippath-3">
      <path class="cls-3" d="M32.18,59.99c.05.06.08,0,.12,0,.02.09.06.09.12.16,0-.06-.03-.13-.06-.21l-.05-.06s-.04-.02-.06-.02c-.06,0-.09.05-.08.12h0Z"/>
    </clipPath>
    <clipPath id="clippath-4">
      <path class="cls-3" d="M35.13,63.43s-.07.03-.09.07l-.11.08c.03.06,0,.07-.02.09-.13.02.09.21.08.28.09.11.15-.08.23-.09.1-.06.16-.14.14-.27-.03,0-.06.04-.09-.02-.02-.09-.06-.14-.1-.15h-.03Z"/>
    </clipPath>
  </defs>
  <g class="cls-7">
    <rect class="cls-2" x="31.6" y="58.54" width="61.28" height="26.66"/>
  </g>
  <g class="cls-4">
    <rect x="32.17" y="73.16" width=".43" height=".28"/>
  </g>
  <g class="cls-6">
    <rect class="cls-2" x="27.19" y="34.92" width="55.68" height="36.04"/>
  </g>
  <g class="cls-5">
    <rect class="cls-2" x="32.16" y="59.87" width=".25" height=".27"/>
  </g>
  <g class="cls-1">
    <rect class="cls-2" x="34.78" y="63.43" width=".59" height=".62"/>
  </g>
</svg>