<?xml version="1.0" encoding="UTF-8"?>
<svg id="Layer_1" xmlns="http://www.w3.org/2000/svg" version="1.1" viewBox="0 0 120 120">
  <!-- Generator: Adobe Illustrator 29.0.1, SVG Export Plug-In . SVG Version: 2.1.0 Build 192)  -->
  <defs>
    <style>
      .st0 {
        fill: #fff;
        fill-rule: evenodd;
      }
    </style>
  </defs>
  <g id="Layer_11" data-name="Layer_1">
    <path id="Vector_16" class="st0" d="M46.1,60c0,2.6.7,5.1,2,7.3,1.3,2.2,3.3,4,5.5,5.1-1.4.4-2.9.6-4.4.6-6.5,0-7.4-4.8-7.4-7.1,0-3.5,2.2-7.3,4.9-10.4-.5,1.4-.7,2.9-.7,4.5ZM91.8,73.7c-3.4,7.8-9.6,14.1-17.4,17.7-7.8,3.5-16.6,4.1-24.8,1.5,1.5.2,3.1.3,4.6.3,7.3,0,14.6-2,21-5.5,4.1-2.2,12.2-8.1,16.6-14h0ZM94.5,62.2c-.2,2.6-.6,5.2-1.4,7.6-2.7,5.9-13.1,13.7-19.5,16.6-6.4,3-13.4,4.6-20.5,4.8-2,0-4-.2-5.9-.5-8.1-1.6-11.1-5.7-12.4-9.1-.7-2.3-1.1-4.6-1.1-7,0-14.5,10.1-33.8,21.5-42.5,5.7-4.3,10.3-5,13.4-5,1.3,0,2.6.2,3.8.7,2.8.9,7.1,4,7.1,11.2s-1.4,10-6.2,17c-.8-2.8-2.5-5.2-4.7-7-2.3-1.8-5-2.8-7.9-3,5-1.9,9.5-3,10.2-3.3-6.2.4-12.2,2-17.7,4.8-10.7,5.3-12.6,14.2-12.6,17.8,0,5.9,3.9,7.9,6.1,8.6,1.4.4,2.8.7,4.3.7,2.2,0,4.3-.4,6.3-1,.9.2,1.8.3,2.7.3,3.3,0,6.5-1.2,9.1-3.3,2.5-2.2,4.2-5.1,4.7-8.4h20.7ZM78.7,31c4.6,2.9,8.4,6.8,11.1,11.5,2.8,4.6,4.4,9.9,4.7,15.2h-18c1.5-2.4,2.7-5,3.7-7.7.9-2.9,1.4-5.9,1.4-8.9,0-4.6-1.2-7.9-2.9-10.2h0ZM25.5,60c0-4.5.9-9,2.6-13.2,1.7-4.2,4.3-8,7.5-11.2,3.2-3.2,7-5.7,11.2-7.5,4.2-1.7,8.7-2.6,13.2-2.6,1.6,0,3.2.1,4.8.3-5.3.7-12.9,3.6-20.5,10.8-5.7,5.4-10.2,11.9-13.2,19.2-2.7,6.6-3.1,11-3.1,14,0,1.3,0,2.6.3,3.8-1.9-4.3-2.9-9-2.9-13.7Z"/>
  </g>
</svg>