<?xml version="1.0" encoding="UTF-8"?>
<svg id="Layer_1" data-name="Layer 1" xmlns="http://www.w3.org/2000/svg" viewBox="0 0 120 120">
  <defs>
    <style>
      .cls-1 {
        fill: #fff;
      }
    </style>
  </defs>
  <path class="cls-1" d="M62.07,40.41c-.63.05-1.27.08-1.91.1-3.47.09-6.91-.27-10.36-.56-.33-.03-.76-.06-1.26-.09l7.09,5.82,6.43-5.27h0Z"/>
  <path class="cls-1" d="M55.5,54.84l-10.27-8.5.8-.94,9.47,7.76,9.47-7.76.8.94-10.27,8.5h0ZM91.7,62.54c-.68-.89-1.29-1.82-1.71-2.86-.03-.09-.08-.2-.06-.3.23-1.06.02-2.08-.35-3.07-.33-.87-.79-1.66-1.31-2.42-.21-.3.15-1.37.28-1.64.1-.2.24-.39.37-.59.08-.12.41-.24.29-.41-.72-1.02-1.7-.01-2.26,0-.3,0-.56-.08-.8-.28-2.66-2.24-5.32-4.47-7.98-6.71-2.1-1.76-2.36-1.94-4.56-3.58-1.09-.81-3.93-1.57-5.18-1.1-.26.1-.52.13-.76.14l-12.02,9.94-11.76-9.72c-1.82.19-3.73.63-5.4,1.54-2.14,1.15-4.35,2.1-6.27,3.62-3.31,2.63-4.98,6.06-5.07,10.27-.04,1.73.13,3.45.44,5.15.09.52.17,1.05.46,1.54,2.26,3.75,4.23,7.66,5.73,11.78.21.58.46,1.15.59,1.75.22,1.01.36,2.03.52,3.04.03.17.09.23.26.24.4.03.8.09,1.2.14,1.08.11,2.16.23,3.25.31.26.02,1.89-.04,2.08,0,.33.06,2.71.3,3.42.1.58-.16,1.11-.39,1.74-.36.44.02.71-.52.54-.93-.27-.67-.73-1.18-1.39-1.5-.34-.17-.68-.22-1.06-.06-.86.35-1.57.06-2.01-.76-.08-.15-.15-.31-.2-.47-.25-.69-.31-1.41-.31-2.14-.01-1.45,13.07-17.39,23.77,6.66.07.08.19.15.3.16,1.72.26,3.43.48,5.17.49,1.09,0,2.18-.05,3.24-.37.5-.15.98-.35,1.4-.67-.06-.12-.12-.22-.16-.32-.12-.35-.37-.56-.69-.76-1.04-.62-2.05-1.28-3.1-1.89-.71-.42-1.17-1.02-1.48-1.76-.27-.64-.35-1.33-.41-2.01-.07-.85-.19-1.68-.49-2.48-.27-.72-.42-1.47-.45-2.24-.03-1.03.2-1.98.93-2.75.63-.68,1.44-1.04,2.33-1.24,1.25-.29,2.51-.27,3.77-.13.36.04.76.06,1.07.23,1.25.66,2.55,1.19,3.93,1.49,1.41.3,2.83.55,4.24.84.22.04.31,0,.4-.19.13-.26.28-.51.42-.76.12.03.21.06.3.1,1.13.37,2.29.57,3.5.43.38-.05.72-.14.98-.47.29-.36.63-.68.94-1.02.19-.2.38-.41.56-.61-.4-.49-.79-.94-1.15-1.43"/>
</svg>