<?xml version="1.0" encoding="UTF-8"?>
<svg id="Layer_1" xmlns="http://www.w3.org/2000/svg" version="1.1" viewBox="0 0 120 120">
  <!-- Generator: Adobe Illustrator 29.0.1, SVG Export Plug-In . SVG Version: 2.1.0 Build 192)  -->
  <defs>
    <style>
      .st0 {
        fill: #fff;
      }
    </style>
  </defs>
  <path class="st0" d="M61,94.5c-17.5,0-31.8-9.5-31.8-21.2s14.3-21.2,31.8-21.2,31.8,9.5,31.8,21.2-14.3,21.2-31.8,21.2ZM61,55.9c-15.4,0-28,7.9-28,17.4s12.6,17.4,28,17.4,28-7.9,28-17.4-12.4-17.4-28-17.4Z"/>
  <path class="st0" d="M48.3,91.5c-5.3,0-10.1-1.8-13.5-5.1-4.4-4.4-6.2-10.6-5.1-17.9,1.1-6.9,4.8-14.1,10.4-19.7,6.9-7.1,15.9-11.3,24.1-11.3s10.1,1.8,13.5,5.1c4.4,4.4,6.2,10.6,5.1,17.9-1.1,6.9-4.8,14.1-10.4,19.7-6.9,7.1-15.9,11.3-24.1,11.3ZM64.2,41.3c-7.1,0-15.2,3.8-21.4,10.1-5.1,5.3-8.4,11.5-9.3,17.7-.9,6,.5,11.2,4,14.6,2.7,2.6,6.4,4,10.8,4,7.1,0,15.2-3.8,21.4-10.1,5.1-5.3,8.4-11.5,9.3-17.7.9-6-.5-11.2-4-14.6-2.7-2.6-6.4-4-10.8-4Z"/>
  <path class="st0" d="M46.6,92.3c-.7,0-1.5,0-2.4-.2-11.9-1.8-19.4-18.3-16.5-36.7,2.7-17,13.3-29.8,24.7-29.8s1.5,0,2.4.2c6,.9,11,5.3,13.9,12.4,2.9,6.8,3.8,15.4,2.4,24.1-2.6,17.2-13.2,30-24.5,30ZM52.5,29.4c-9.3,0-18.5,11.7-20.8,26.7-2.6,16.3,3.3,30.7,13.2,32.4,9.9,1.6,20.1-10.8,22.7-26.7,1.3-8,.5-15.9-2.2-22.1-2.6-5.8-6.4-9.5-11.2-10.2,0,0-1.6,0-1.6,0Z"/>
</svg>