<?xml version="1.0" encoding="UTF-8"?>
<svg id="Layer_1" xmlns="http://www.w3.org/2000/svg" version="1.1" viewBox="0 0 120 120">
  <!-- Generator: Adobe Illustrator 29.0.1, SVG Export Plug-In . SVG Version: 2.1.0 Build 192)  -->
  <defs>
    <style>
      .st0 {
        fill: #fff;
      }
    </style>
  </defs>
  <path class="st0" d="M38.6,94.5h5c2.6-.2,4-1.8,4.6-4.4v-5.8c0-.3-.3-.5-.6-.6h-4.7c-2.5.3-4.1,1.6-4.9,4.1v6.3c0,.3.2.4.6.4M49.7,94.5h5c2.6-.2,4-1.8,4.6-4.4v-5.8c0-.3-.3-.5-.6-.6h-4.7c-2.5.3-4.1,1.6-4.9,4.1v6.3c0,.3.2.4.6.4M70.3,94.5h-5c-2.6-.2-4-1.8-4.6-4.4v-5.8c0-.3.3-.5.6-.6h4.7c2.5.3,4.1,1.6,4.9,4.1v6.3c0,.3-.2.4-.6.4M81.4,94.5h-5c-2.6-.2-4-1.8-4.6-4.4v-5.8c0-.3.3-.5.6-.6h4.7c2.5.3,4.1,1.6,4.9,4.1v6.3c0,.3-.2.4-.6.4M92.3,82.8h-5c-2.6-.2-4-1.8-4.6-4.4v-5.8c0-.3.3-.5.6-.6h4.7c2.5.3,4.1,1.6,4.9,4.1v6.3c0,.3-.2.4-.6.4M81.4,82.8h-5c-2.6-.2-4-1.8-4.6-4.4v-5.8c0-.3.3-.5.6-.6h4.7c2.5.3,4.1,1.6,4.9,4.1v6.3c0,.3-.2.4-.6.4M70.3,82.8h-5c-2.6-.2-4-1.8-4.6-4.4v-5.8c0-.3.3-.5.6-.6h4.7c2.5.3,4.1,1.6,4.9,4.1v6.3c0,.3-.2.4-.6.4M49.7,82.8h5c2.6-.2,4-1.8,4.6-4.4v-5.8c0-.3-.3-.5-.6-.6h-4.7c-2.5.3-4.1,1.6-4.9,4.1v6.3c0,.3.2.4.6.4M38.6,82.8h5c2.6-.2,4-1.8,4.6-4.4v-5.8c0-.3-.3-.5-.6-.6h-4.7c-2.5.3-4.1,1.6-4.9,4.1v6.3c0,.3.2.4.6.4M27.7,82.8h5c2.6-.2,4-1.8,4.6-4.4v-5.8c0-.3-.3-.5-.6-.6h-4.7c-2.5.3-4.1,1.6-4.9,4.1v6.3c0,.3.2.4.6.4M27.7,70.9h5c2.6-.2,4-1.8,4.6-4.4v-5.8c0-.3-.3-.5-.6-.6h-4.7c-2.5.3-4.1,1.6-4.9,4.1v6.3c0,.3.2.4.6.4M38.6,70.9h5c2.6-.2,4-1.8,4.6-4.4v-5.8c0-.3-.3-.5-.6-.6h-4.7c-2.5.3-4.1,1.6-4.9,4.1v6.3c0,.3.2.4.6.4M49.7,70.9h5c2.6-.2,4-1.8,4.6-4.4v-5.8c0-.3-.3-.5-.6-.6h-4.7c-2.5.3-4.1,1.6-4.9,4.1v6.3c0,.3.2.4.6.4M70.3,70.9h-5c-2.6-.2-4-1.8-4.6-4.4v-5.8c0-.3.3-.5.6-.6h4.7c2.5.3,4.1,1.6,4.9,4.1v6.3c0,.3-.2.4-.6.4M81.4,70.9h-5c-2.6-.2-4-1.8-4.6-4.4v-5.8c0-.3.3-.5.6-.6h4.7c2.5.3,4.1,1.6,4.9,4.1v6.3c0,.3-.2.4-.6.4M92.3,70.9h-5c-2.6-.2-4-1.8-4.6-4.4v-5.8c0-.3.3-.5.6-.6h4.7c2.5.3,4.1,1.6,4.9,4.1v6.3c0,.3-.2.4-.6.4M92.3,48.5h-5c-2.6.2-4,1.8-4.6,4.4v5.8c0,.3.3.5.6.6h4.7c2.5-.3,4.1-1.6,4.9-4.1v-6.3c0-.3-.2-.4-.6-.4M81.4,48.5h-5c-2.6.2-4,1.8-4.6,4.4v5.8c0,.3.3.5.6.6h4.7c2.5-.3,4.1-1.6,4.9-4.1v-6.3c0-.3-.2-.4-.6-.4M70.3,48.5h-5c-2.6.2-4,1.8-4.6,4.4v5.8c0,.3.3.5.6.6h4.7c2.5-.3,4.1-1.6,4.9-4.1v-6.3c0-.3-.2-.4-.6-.4M49.7,48.5h5c2.6.2,4,1.8,4.6,4.4v5.8c0,.3-.3.5-.6.6h-4.7c-2.5-.3-4.1-1.6-4.9-4.1v-6.3c0-.3.2-.4.6-.4M38.6,48.5h5c2.6.2,4,1.8,4.6,4.4v5.8c0,.3-.3.5-.6.6h-4.7c-2.5-.3-4.1-1.6-4.9-4.1v-6.3c0-.3.2-.4.6-.4M27.7,48.5h5c2.6.2,4,1.8,4.6,4.4v5.8c0,.3-.3.5-.6.6h-4.7c-2.5-.3-4.1-1.6-4.9-4.1v-6.3c0-.3.2-.4.6-.4M27.7,37.1h5c2.6.2,4,1.8,4.6,4.4v5.8c0,.3-.3.5-.6.6h-4.7c-2.5-.3-4.1-1.6-4.9-4.1v-6.3c0-.3.2-.4.6-.4M38.6,37.1h5c2.6.2,4,1.8,4.6,4.4v5.8c0,.3-.3.5-.6.6h-4.7c-2.5-.3-4.1-1.6-4.9-4.1v-6.3c0-.3.2-.4.6-.4M49.7,37.1h5c2.6.2,4,1.8,4.6,4.4v5.8c0,.3-.3.5-.6.6h-4.7c-2.5-.3-4.1-1.6-4.9-4.1v-6.3c0-.3.2-.4.6-.4M70.3,37.1h-5c-2.6.2-4,1.8-4.6,4.4v5.8c0,.3.3.5.6.6h4.7c2.5-.3,4.1-1.6,4.9-4.1v-6.3c0-.3-.2-.4-.6-.4M81.4,37.1h-5c-2.6.2-4,1.8-4.6,4.4v5.8c0,.3.3.5.6.6h4.7c2.5-.3,4.1-1.6,4.9-4.1v-6.3c0-.3-.2-.4-.6-.4M92.3,37.1h-5c-2.6.2-4,1.8-4.6,4.4v5.8c0,.3.3.5.6.6h4.7c2.5-.3,4.1-1.6,4.9-4.1v-6.3c0-.3-.2-.4-.6-.4M81.4,25.5h-5c-2.6.2-4,1.8-4.6,4.4v5.8c0,.3.3.5.6.6h4.7c2.5-.3,4.1-1.6,4.9-4.1v-6.3c0-.3-.2-.4-.6-.4M70.3,25.5h-5c-2.6.2-4,1.8-4.6,4.4v5.8c0,.3.3.5.6.6h4.7c2.5-.3,4.1-1.6,4.9-4.1v-6.3c0-.3-.2-.4-.6-.4M49.7,25.5h5c2.6.2,4,1.8,4.6,4.4v5.8c0,.3-.3.5-.6.6h-4.7c-2.5-.3-4.1-1.6-4.9-4.1v-6.3c0-.3.2-.4.6-.4M38.6,25.5h5c2.6.2,4,1.8,4.6,4.4v5.8c0,.3-.3.5-.6.6h-4.7c-2.5-.3-4.1-1.6-4.9-4.1v-6.3c0-.3.2-.4.6-.4"/>
</svg>