<?xml version="1.0" encoding="UTF-8"?>
<svg id="Layer_1" xmlns="http://www.w3.org/2000/svg" version="1.1" viewBox="0 0 120 120">
  <!-- Generator: Adobe Illustrator 29.0.1, SVG Export Plug-In . SVG Version: 2.1.0 Build 192)  -->
  <defs>
    <style>
      .st0 {
        fill: #fff;
      }
    </style>
  </defs>
  <path class="st0" d="M103.9,46.7l-11.8,43.8c-.8,2.2-3,3.7-5.1,3.9H21.2c-1.4.2-3-1-3.1-3,0-.3,0-.8.2-1.2l11.8-44c.8-2.2,3-3.7,5.1-3.9h65.8c1.4-.2,3,1.2,3.1,3-.2.5-.2.9-.2,1.4Z"/>
  <path class="st0" d="M16.6,71.1l-.6-40.9v-.2c0-2.5,1.9-4.5,4.5-4.5h26.4c2.6,0,4.7.5,4.7,2.6.6,1.7,1.9,2.7,3.6,2.6h31.5c2.6,0,4.7,1,4.7,3.1v2.2H30.8c-2.7.2-5,1.7-5.7,4.4l-8.6,30.7Z"/>
</svg>