<?xml version="1.0" encoding="UTF-8"?>
<svg id="Layer_1" data-name="Layer 1" xmlns="http://www.w3.org/2000/svg" viewBox="0 0 120 120">
  <defs>
    <style>
      .cls-1 {
        fill: #fff;
      }
    </style>
  </defs>
  <path class="cls-1" d="M49.16,57.09l10.65-13.16,15.26,18.77-3.06,3.77h-15.26s-7.59-9.38-7.59-9.38ZM72.69,62.69l-12.87-15.83-8.26,10.23,6.08,7.53h13.5l1.56-1.92h0Z"/>
  <path class="cls-1" d="M47.55,52.16l4,4.93-7.65,9.38h-8s11.65-14.3,11.65-14.3ZM49.16,57.08l-1.61-1.99-7.76,9.51h3.23l6.15-7.53h0Z"/>
  <path class="cls-1" d="M72.69,62.69l4.19-5.16,7.23,8.93h-8.36l-3.06-3.77ZM76.88,60.47l-1.81,2.22,1.56,1.92h3.59l-3.35-4.14Z"/>
  <path class="cls-1" d="M31.68,71.63l-1.27,1.55h37.58c.11-.59.38-1.12.76-1.55H31.68Z"/>
  <path class="cls-1" d="M29.38,74.47l-1.27,1.55h40.71c-.38-.43-.65-.96-.77-1.55H29.38Z"/>
  <path class="cls-1" d="M71.84,74.43c-.33,0-.59-.27-.59-.59s.27-.59.59-.59h13.09c1.24,0,2.25-1,2.25-2.24s-1.01-2.25-2.25-2.25h-50.89l-1.35,1.65h52.24c.33,0,.59.27.59.59s-.27.59-.59.59h-13.09c-1.24,0-2.25,1-2.25,2.24s1.01,2.25,2.25,2.25h20.07l-1.34-1.65h-18.73,0Z"/>
</svg>