<?xml version="1.0" encoding="UTF-8"?>
<svg id="Layer_1" data-name="Layer 1" xmlns="http://www.w3.org/2000/svg" viewBox="0 0 120 120">
  <defs>
    <style>
      .cls-1 {
        fill: #fff;
      }
    </style>
  </defs>
  <path class="cls-1" d="M51.33,57.67l8.52-10.53,12.21,15.02-2.45,3.02h-12.21s-6.07-7.5-6.07-7.5ZM70.15,62.16l-10.3-12.66-6.61,8.18,4.87,6.02h10.8l1.25-1.54h0Z"/>
  <path class="cls-1" d="M50.04,53.73l3.2,3.94-6.12,7.5h-6.4s9.32-11.44,9.32-11.44ZM51.33,57.67l-1.29-1.59-6.21,7.61h2.58l4.92-6.02h0Z"/>
  <path class="cls-1" d="M70.15,62.16l3.35-4.13,5.79,7.15h-6.69l-2.45-3.02ZM73.51,60.38l-1.44,1.78,1.25,1.54h2.87l-2.68-3.31Z"/>
  <path class="cls-1" d="M37.35,69.31l-1.01,1.24h30.07c.09-.47.3-.9.61-1.24h-29.66Z"/>
  <path class="cls-1" d="M35.5,71.58l-1.01,1.24h32.57c-.31-.34-.52-.77-.61-1.24h-30.94Z"/>
  <path class="cls-1" d="M69.47,71.54c-.26,0-.47-.21-.47-.47s.21-.47.47-.47h10.47c.99,0,1.8-.8,1.8-1.79s-.81-1.8-1.8-1.8h-40.71l-1.08,1.32h41.79c.26,0,.47.21.47.47s-.21.47-.47.47h-10.47c-.99,0-1.8.8-1.8,1.79s.81,1.8,1.8,1.8h16.05l-1.07-1.32h-14.98,0Z"/>
</svg>