<?xml version="1.0" encoding="UTF-8"?>
<svg id="Layer_1" xmlns="http://www.w3.org/2000/svg" version="1.1" viewBox="0 0 356.6 71.2">
  <!-- Generator: Adobe Illustrator 29.0.1, SVG Export Plug-In . SVG Version: 2.1.0 Build 192)  -->
  <defs>
    <style>
      .st0 {
        fill: none;
      }

      .st1 {
        fill: #b32025;
      }

      .st2 {
        fill: #541f46;
      }
    </style>
  </defs>
  <g>
    <path class="st2" d="M13,70.8l-3-9.4-3,9.4h-1l-3.8-12c-.4-1-.4-1.2-1.2-1.2H.4v-1h5.8v.8h-.2c-.8,0-1,0-1,.6s0,.4.2,1l2.2,7.2,2-6.6v-.8c-.6-1.2-1-1.4-2.2-1.6v-.8h6.2v.8h-.2c-.8,0-1,.4-1,.8s0,.6.2,1l2.2,7.2,1.8-6c.2-.8.2-1,.2-1.4,0-.6,0-1-.6-1.2-.2,0-.4,0-1-.2h-.2v-.8h5v.8c-1.2.2-1.6.6-2,2l-3.6,11.4h-1.2Z"/>
    <path class="st2" d="M35.6,61.2h-.8c-.8-2.8-1.8-3.8-3.6-3.8h-1.8q-1,0-1,1v4.4h.6c1.4,0,2.2-1,2.4-2.8h.8v6.8h-.8c0-1-.4-1.8-.8-2.2-.4-.6-.8-.8-1.8-.8h-.6v4.8c0,1,0,1.2,1,1.2h2c1.2,0,2.2-.6,2.8-1.8.4-.6.6-1.2,1-2.6h.8l-.2,5.2h-12.6v-.8h.8c1,0,1.2-.4,1.2-2v-8.2c0-1.4,0-1.6-.4-1.8h-1.6v-.8h12.4v4.6l.2-.4Z"/>
    <path class="st2" d="M50.6,61.4c-1.2-3.2-2.6-4.6-4.6-4.6s-2.8,1-2.8,2.2.4,1,.8,1.4c.4.2,1,.4,2,.6,2,.4,3.6,1,4.4,1.4,1,.6,1.6,1.8,1.6,3.4,0,2.8-2,4.6-4.8,4.6s-2.8-.4-4.2-1.4l-1.2,1.2h-.8v-5.6h.8c.6,1.4,1,2.2,1.6,3,1,1.2,2.4,1.8,3.8,1.8s2.8-1,2.8-2.2-.4-1.4-1-1.8c-.4-.3-1.5-.6-3.4-1-2.8-.6-4.2-2.2-4.2-4.4s.4-2.2,1.2-3c.8-1,2.2-1.4,3.6-1.4s2.6.4,3.8,1.2l1-1h.8v5.2h-.8l-.4.4Z"/>
    <path class="st2" d="M68,61.6c-.4-1.6-.8-2.6-1.2-3.2-.6-.8-1.4-1.2-2.2-1.2s-.8.2-.8,1v9.4c0,1.4,0,1.8.6,2h1.6v.8h-7.6v-.8h1.6c.6,0,.6-.6.6-2v-9.4c0-.8,0-1-.8-1s-2,.6-2.6,1.6c-.4.6-.6,1.6-1,2.8h-.8l.2-5.4h12.8v5.2c.2,0-.6,0-.6,0l.2.2Z"/>
    <path class="st2" d="M83,63.4c1.2,0,1.8,0,2.4-.6.8-.6,1.2-1.6,1.2-2.8,0-1.8-1.2-3-3-3h-1c-.8,0-1,.2-1,1.2v5h1.2l.2.2ZM81.8,67.6v1.6c.2.4.4.4,2,.4v.8h-7.4v-.8h.8c1,0,1.2-.4,1.2-2v-8.2c0-1.4,0-1.6-.4-1.8h-1.6v-.8h7.8c1.8,0,2.8,0,3.8.6,1.2.6,1.8,1.8,1.8,3s-.8,3-2.2,3.6c-1,.4-2,.6-3.6.6h-2.4v3.2h0l.2-.2Z"/>
    <path class="st2" d="M99.6,62.4c2.4,0,3.4-.8,3.4-2.8s-.8-2.4-2.4-2.4h-1.2c-.8,0-1,0-1,1.2v4.2h1.2v-.2ZM108,67.2c0,1-.2,1.6-.6,2.2-.6.8-1.4,1.2-2.4,1.2s-2-.6-2.4-1.6c-.2-.6-.4-1.2-.6-3.2,0-2-.8-2.4-2.6-2.4h-1v4c0,1.4,0,1.6.4,1.8h1.6v.8h-7.2v-.8h.8c1,0,1.2-.4,1.2-2v-8.2c0-1.4,0-1.6-.4-1.8h-1.6v-.8h7.8c1.6,0,2.8.2,3.8.6,1,.6,1.6,1.6,1.6,2.6s-.6,2.2-1.8,2.8c-.6.4-1.2.6-2.2.6,1,0,1.4.4,2,1,.2.4.6.8.8,1.6l.4,1.8c0,.8.6,1.2.8,1.2s.8-.6.8-1.6h.8v.2Z"/>
    <path class="st2" d="M124.2,60.8h-.8c-.8-2.8-1.8-3.8-3.6-3.8h-1.8q-1,0-1,1v4.4h.6c1.4,0,2.2-1,2.4-2.8h.8v6.8h-.8c0-1-.4-1.8-.8-2.2-.4-.6-.8-.8-1.8-.8h-.6v4.8c0,1,0,1.2,1,1.2h2c1.2,0,2.2-.6,2.8-1.8.4-.6.6-1.2,1-2.6h.8l-.2,5.2h-12.6v-.8h.8c1,0,1.2-.4,1.2-2v-8.2c0-1.4,0-1.6-.4-1.8h-1.6v-.8h12.4v4.6l.2-.4Z"/>
    <path class="st2" d="M139.4,61c-1.2-3.2-2.6-4.6-4.6-4.6s-2.8,1-2.8,2.2.4,1,.8,1.4c.4.2,1,.4,2,.6,2,.4,3.6,1,4.4,1.4,1,.6,1.6,1.8,1.6,3.4,0,2.8-2,4.6-4.8,4.6s-2.8-.4-4.2-1.4l-1.2,1.2h-.8v-5.6h.8c.6,1.4,1,2.2,1.6,3,1,1.2,2.4,1.8,3.8,1.8s2.8-1,2.8-2.2-.4-1.4-1-1.8c-.4-.3-1.5-.6-3.4-1-2.8-.6-4.2-2.2-4.2-4.4s.4-2.2,1.2-3c.8-1,2.2-1.4,3.6-1.4s2.6.4,3.8,1.2l1-1h.8v5.2h-.8l-.4.4Z"/>
    <path class="st2" d="M155.2,61c-1.2-3.2-2.6-4.6-4.6-4.6s-2.8,1-2.8,2.2.4,1,.8,1.4c.4.2,1,.4,2,.6,2,.4,3.6,1,4.4,1.4,1,.6,1.6,1.8,1.6,3.4,0,2.8-2,4.6-4.8,4.6s-2.8-.4-4.2-1.4l-1.2,1.2h-.8v-5.6h.8c.6,1.4,1,2.2,1.6,3,1,1.2,2.4,1.8,3.8,1.8s2.8-1,2.8-2.2-.4-1.4-1-1.8c-.4-.3-1.5-.6-3.4-1-2.8-.6-4.2-2.2-4.2-4.4s.4-2.2,1.2-3c.8-1,2.2-1.4,3.6-1.4s2.6.4,3.8,1.2l1-1h.8v5.2h-.8l-.4.4Z"/>
    <path class="st1" d="M72.8,66c1,0,2-.8,2-2s-.8-2-2-2-2,.8-2,2,.8,2,2,2"/>
    <g>
      <rect class="st1" x="180" y=".2" width="1.4" height="70.6"/>
      <path class="st1" d="M181,.4v70.2h-.8V.4h.8M181.6,0h-1.8v71.2h1.8V0h0Z"/>
    </g>
    <g>
      <path class="st1" d="M65.4,38s-4-10.8-12.8-17.2c-8.8-6.6-17-7.6-21.2-8.6,0,0,3.2-6.4,13-5.8,9.8.6,21.4,6.8,29.4,23l-8.6,8.4.2.2ZM140.8,5.8c-1.2-1.2-4.8-5.2-12-5.2-8.4.4-13.8,6.4-13.8,6.4l-28.4,28.6-3.6-8.4s20.4-20.6,22.2-22.4c1.8-1.8,3.8-2.2,3.8-2.2h.8c.2,0,.4,0,.4-.6s-.4-.6-.4-.6h-14.4s-.2,0-.4.2c0,.6.4.6.4.6h1.2c0,.2,1,.4,1.4,1.4.4,1.4-.4,2.2-.4,2.2l-17.2,17C66.6,4.6,51.2-.2,41,1.8s-13.2,10.6-13.2,10.6c0,0-9.6,1.4-13.2,10-5,14,6,17,6,17-4.4-2.6-7.4-8.2-4-15,3.4-7.2,10.2-7,10.2-7,.2,8.2,4.8,11,7.6,12,1.6.6,2.2.4,2.2.4-10-4.4-7-12.4-7-12.4,24,2.6,30.2,32.8,30.2,32.8l16.2-15.6c2.8,4.8,4.6,14,4.6,14L120.2,9.2s3-3.2,7.6-3.2c6.4.2,9.2,5,10,6.8,1.4,2.6.8,8.8-2.4,11.6s-7.6,3.4-7.6,3.4c4.6.4,7.8-1,7.8-1,4.8-1.8,6.6-5,6.6-5,4.8-8.6,0-14.4-1.4-15.6"/>
      <rect class="st0" x=".4" y=".4" width="198.4" height="70.4"/>
    </g>
  </g>
  <g>
    <g>
      <path class="st2" d="M233.4,21.2c-.4.8-.8,1.2-1.4,1.8s-1.2.8-2,1-1.6.4-2.6.4h-2.6v4.8h-3.6V13h6.6c1,0,1.8,0,2.6.4s1.4.6,2,1.2c.6.4,1,1,1.2,1.8.2.6.4,1.4.4,2.2h0c0,1,0,1.8-.6,2.6ZM230.4,18.8c0-.8-.2-1.4-.8-1.8s-1.2-.6-2.2-.6h-2.8v5h2.8c.8,0,1.6-.2,2-.8s.8-1,.8-1.8h.2Z"/>
      <path class="st2" d="M258,29.2l-3.4-5.2h-2.8v5.2h-3.6V13h7.4c2,0,3.4.4,4.4,1.4s1.6,2.2,1.6,4h0c0,1.4-.4,2.4-1,3.2s-1.4,1.4-2.6,1.8l4,5.8h-4.2.2ZM258,18.6c0-.8-.2-1.4-.8-1.8s-1.2-.6-2-.6h-3.6v4.6h3.6c.8,0,1.6-.2,2-.6s.8-1,.8-1.6h0Z"/>
      <path class="st2" d="M276.4,29.2V13h3.6v16.2h-3.6Z"/>
      <path class="st2" d="M306.8,29.2l-7.8-10.2v10.2h-3.6V13h3.2l7.6,10v-10h3.6v16.2h-3Z"/>
      <path class="st2" d="M332.6,16.4v12.8h-3.6v-12.8h-5v-3.2h13.4v3.2h-5,.2Z"/>
    </g>
    <g>
      <path class="st2" d="M214.6,49.8c-.4.8-.8,1.2-1.4,1.8s-1.2.8-2,1-1.6.4-2.6.4h-2.6v4.8h-3.6v-16.2h6.6c1,0,1.8,0,2.6.4s1.4.6,2,1.2c.6.4,1,1,1.2,1.8.2.6.4,1.4.4,2.2h0c0,1,0,1.8-.6,2.6ZM211.6,47.4c0-.8-.2-1.4-.8-1.8-.6-.4-1.2-.6-2.2-.6h-2.8v5h2.8c.8,0,1.6-.2,2-.8.4-.4.8-1,.8-1.8h.2Z"/>
      <path class="st2" d="M245.2,53c-.4,1-1,1.8-1.8,2.6-.8.8-1.6,1.4-2.8,1.8-1,.4-2.2.6-3.4.6s-2.4-.2-3.4-.6-2-1-2.8-1.8-1.4-1.6-1.8-2.6c-.4-1-.6-2-.6-3.2h0c0-1.2.2-2.2.6-3.2.4-1,1-1.8,1.8-2.6s1.6-1.4,2.8-1.8c1-.4,2.2-.6,3.4-.6s2.4.2,3.4.6c1,.4,2,1,2.8,1.8s1.4,1.6,1.8,2.6c.4,1,.6,2,.6,3.2h0c0,1.2-.2,2.2-.6,3.2ZM242,49.8c0-.6,0-1.4-.4-2-.2-.6-.6-1.2-1-1.6-.4-.4-1-.8-1.6-1s-1.2-.4-2-.4-1.4,0-2,.4c-.6.2-1.2.6-1.6,1s-.8,1-1,1.6-.4,1.2-.4,2h0c0,.8,0,1.4.4,2,.2.6.6,1.2,1,1.6s1,.8,1.6,1,1.2.4,2,.4,1.4,0,2-.4,1.2-.6,1.6-1,.8-1,1-1.6.4-1.2.4-2h0Z"/>
      <path class="st2" d="M270.2,57.8l-3.4-5.2h-2.8v5.2h-3.6v-16.2h7.4c2,0,3.4.4,4.4,1.4s1.6,2.2,1.6,4h0c0,1.4-.4,2.4-1,3.2s-1.4,1.4-2.6,1.8l4,5.8h-4.2.2ZM270.2,47.2c0-.8-.2-1.4-.8-1.8s-1.2-.6-2-.6h-3.6v4.6h3.6c.8,0,1.6-.2,2-.6.4-.4.8-1,.8-1.6h0Z"/>
      <path class="st2" d="M296,45v12.8h-3.6v-12.8h-5v-3.2h13.4v3.2h-5,.2Z"/>
      <path class="st2" d="M327,57.8l-1.4-3.6h-6.8l-1.4,3.6h-3.6l7-16.2h3.2l7,16.2h-4ZM322.2,45.8l-2.2,5.2h4.2l-2.2-5.2h.2Z"/>
      <path class="st2" d="M344.8,57.8v-16.2h3.6v13h8v3.2h-11.6Z"/>
    </g>
  </g>
</svg>