<?xml version="1.0" encoding="UTF-8"?>
<svg id="Layer_1" xmlns="http://www.w3.org/2000/svg" version="1.1" viewBox="0 0 178.1 46.7">
  <!-- Generator: Adobe Illustrator 29.0.1, SVG Export Plug-In . SVG Version: 2.1.0 Build 192)  -->
  <defs>
    <style>
      .st0 {
        fill: none;
      }

      .st1 {
        fill: #b32025;
      }

      .st2 {
        fill: #541f46;
      }
    </style>
  </defs>
  <g>
    <path class="st2" d="M6.3,41l-1.5-4.7-1.5,4.7h-.5l-1.9-6c-.2-.5-.2-.6-.6-.6H0v-.5h2.9v.4h-.1c-.4,0-.5,0-.5.3s0,.2.1.5l1.1,3.6,1-3.3v-.4c-.3-.6-.5-.7-1.1-.8v-.4h3.1v.4h-.1c-.4,0-.5.2-.5.4s0,.3.1.5l1.1,3.6.9-3c.1-.4.1-.5.1-.7,0-.3,0-.5-.3-.6-.1,0-.2,0-.5-.1h-.1v-.4h2.5v.4c-.6.1-.8.3-1,1l-1.8,5.7h-.5Z"/>
    <path class="st2" d="M17.6,36.2h-.4c-.4-1.4-.9-1.9-1.8-1.9h-.9c-.5,0-.5,0-.5.5v2.2h.3c.7,0,1.1-.5,1.2-1.4h.4v3.4h-.4c0-.5-.2-.9-.4-1.1-.2-.3-.4-.4-.9-.4h-.3v2.4c0,.5,0,.6.5.6h1c.6,0,1.1-.3,1.4-.9.2-.3.3-.6.5-1.3h.4s-.1,2.6-.1,2.6h-6.3v-.4h.4c.5,0,.6-.2.6-1v-4.1c0-.7,0-.8-.2-.9-.1,0-.2,0-.7,0h-.1v-.4h6.2v2.3Z"/>
    <path class="st2" d="M25.1,36.3c-.6-1.6-1.3-2.3-2.3-2.3s-1.4.5-1.4,1.1.2.5.4.7c.2.1.5.2,1,.3,1,.2,1.8.5,2.2.7.5.3.8.9.8,1.7,0,1.4-1,2.3-2.4,2.3s-1.4-.2-2.1-.7l-.6.6h-.4v-2.8h.4c.3.7.5,1.1.8,1.5.5.6,1.2.9,1.9.9s1.4-.5,1.4-1.1-.2-.7-.5-.9q-.3-.2-1.7-.5c-1.4-.3-2.1-1.1-2.1-2.2s.2-1.1.6-1.5c.4-.5,1.1-.7,1.8-.7s1.3.2,1.9.6l.5-.5h.4v2.6s-.4,0-.4,0Z"/>
    <path class="st2" d="M33.8,36.4c-.2-.8-.4-1.3-.6-1.6-.3-.4-.7-.6-1.1-.6s-.4.1-.4.5v4.7c0,.7,0,.9.3,1,.2,0,.2,0,.8,0v.4h-3.8v-.4c.6,0,.6,0,.8,0,.3,0,.3-.3.3-1v-4.7c0-.4,0-.5-.4-.5-.5,0-1,.3-1.3.8-.2.3-.3.8-.5,1.4h-.4s.1-2.7.1-2.7h6.4v2.6c.1,0-.3,0-.3,0Z"/>
    <path class="st2" d="M41.3,37.3c.6,0,.9,0,1.2-.3.4-.3.6-.8.6-1.4,0-.9-.6-1.5-1.5-1.5h-.5c-.4,0-.5.1-.5.6v2.5h.6ZM40.7,39.4c0,.6,0,.7,0,.8.1.2.2.2,1,.2v.4h-3.7v-.4h.4c.5,0,.6-.2.6-1v-4.1c0-.7,0-.8-.2-.9-.1,0-.2,0-.7,0h-.1v-.4h3.9c.9,0,1.4,0,1.9.3.6.3.9.9.9,1.5s-.4,1.5-1.1,1.8c-.5.2-1,.3-1.8.3h-1.2v1.6h0Z"/>
    <path class="st2" d="M49.6,36.8c1.2,0,1.7-.4,1.7-1.4s-.4-1.2-1.2-1.2h-.6c-.4,0-.5,0-.5.6v2.1h.6ZM53.8,39.2c0,.5-.1.8-.3,1.1-.3.4-.7.6-1.2.6s-1-.3-1.2-.8c-.1-.3-.2-.6-.3-1.6,0-1-.4-1.2-1.3-1.2h-.5v2c0,.7,0,.8.2.9.1,0,.2,0,.7,0h.1v.4h-3.6v-.4h.4c.5,0,.6-.2.6-1v-4.1c0-.7,0-.8-.2-.9-.1,0-.2,0-.7,0h-.1v-.4h3.9c.8,0,1.4.1,1.9.3.5.3.8.8.8,1.3s-.3,1.1-.9,1.4c-.3.2-.6.3-1.1.3.5,0,.7.2,1,.5.1.2.3.4.4.8l.2.9c0,.4.3.6.4.6s.4-.3.4-.8h.4Z"/>
    <path class="st2" d="M61.9,36h-.4c-.4-1.4-.9-1.9-1.8-1.9h-.9c-.5,0-.5,0-.5.5v2.2h.3c.7,0,1.1-.5,1.2-1.4h.4v3.4h-.4c0-.5-.2-.9-.4-1.1-.2-.3-.4-.4-.9-.4h-.3v2.4c0,.5,0,.6.5.6h1c.6,0,1.1-.3,1.4-.9.2-.3.3-.6.5-1.3h.4s-.1,2.6-.1,2.6h-6.3v-.4h.4c.5,0,.6-.2.6-1v-4.1c0-.7,0-.8-.2-.9-.1,0-.2,0-.7,0h-.1v-.4h6.2v2.3Z"/>
    <path class="st2" d="M69.5,36.1c-.6-1.6-1.3-2.3-2.3-2.3s-1.4.5-1.4,1.1.2.5.4.7c.2.1.5.2,1,.3,1,.2,1.8.5,2.2.7.5.3.8.9.8,1.7,0,1.4-1,2.3-2.4,2.3s-1.4-.2-2.1-.7l-.6.6h-.4v-2.8h.4c.3.7.5,1.1.8,1.5.5.6,1.2.9,1.9.9s1.4-.5,1.4-1.1-.2-.7-.5-.9q-.3-.2-1.7-.5c-1.4-.3-2.1-1.1-2.1-2.2s.2-1.1.6-1.5c.4-.5,1.1-.7,1.8-.7s1.3.2,1.9.6l.5-.5h.4v2.6s-.4,0-.4,0Z"/>
    <path class="st2" d="M77.4,36.1c-.6-1.6-1.3-2.3-2.3-2.3s-1.4.5-1.4,1.1.2.5.4.7c.2.1.5.2,1,.3,1,.2,1.8.5,2.2.7.5.3.8.9.8,1.7,0,1.4-1,2.3-2.4,2.3s-1.4-.2-2.1-.7l-.6.6h-.4v-2.8h.4c.3.7.5,1.1.8,1.5.5.6,1.2.9,1.9.9s1.4-.5,1.4-1.1-.2-.7-.5-.9q-.3-.2-1.7-.5c-1.4-.3-2.1-1.1-2.1-2.2s.2-1.1.6-1.5c.4-.5,1.1-.7,1.8-.7s1.3.2,1.9.6l.5-.5h.4v2.6s-.4,0-.4,0Z"/>
    <path class="st1" d="M36.2,38.6c.5,0,1-.4,1-1s-.4-1-1-1-1,.4-1,1,.4,1,1,1"/>
    <g>
      <rect class="st1" x="89.8" y="5.7" width=".7" height="35.3"/>
      <path class="st1" d="M90.3,5.8v35.1h-.4V5.8h.4M90.6,5.6h-.9v35.6h.9V5.6h0Z"/>
    </g>
    <g>
      <path class="st1" d="M32.5,24.6s-2-5.4-6.4-8.6c-4.4-3.3-8.5-3.8-10.6-4.3,0,0,1.6-3.2,6.5-2.9,4.9.3,10.7,3.4,14.7,11.5l-4.3,4.2ZM70.2,8.5c-.6-.6-2.4-2.6-6-2.6-4.2.2-6.9,3.2-6.9,3.2l-14.2,14.3-1.8-4.2s10.2-10.3,11.1-11.2c.9-.9,1.9-1.1,1.9-1.1,0,0,.2,0,.4,0,.1,0,.2,0,.2-.3,0-.3-.2-.3-.2-.3h-7.2s-.1,0-.2.1c0,.3.2.3.2.3h.6c0,.1.5.2.7.7.2.7-.2,1.1-.2,1.1l-8.6,8.5c-6.9-9.1-14.6-11.5-19.7-10.5s-6.6,5.3-6.6,5.3c0,0-4.8.7-6.6,5-2.5,7,3,8.5,3,8.5-2.2-1.3-3.7-4.1-2-7.5,1.7-3.6,5.1-3.5,5.1-3.5.1,4.1,2.4,5.5,3.8,6,.8.3,1.1.2,1.1.2-5-2.2-3.5-6.2-3.5-6.2,12,1.3,15.1,16.4,15.1,16.4l8.1-7.8c1.4,2.4,2.3,7,2.3,7l19.8-19.7s1.5-1.6,3.8-1.6c3.2.1,4.6,2.5,5,3.4.7,1.3.4,4.4-1.2,5.8s-3.8,1.7-3.8,1.7c2.3.2,3.9-.5,3.9-.5,2.4-.9,3.3-2.5,3.3-2.5,2.4-4.3,0-7.2-.7-7.8"/>
      <rect class="st0" x="0" y="5.8" width="99.2" height="35.2"/>
    </g>
  </g>
  <g>
    <g>
      <path class="st2" d="M116.5,16.2c-.2.4-.4.6-.7.9s-.6.4-1,.5c-.4.1-.8.2-1.3.2h-1.3v2.4h-1.8v-8.1h3.3c.5,0,.9,0,1.3.2s.7.3,1,.6c.3.2.5.5.6.9.1.3.2.7.2,1.1h0c0,.5,0,.9-.3,1.3ZM115,15c0-.4-.1-.7-.4-.9s-.6-.3-1.1-.3h-1.4v2.5h1.4c.4,0,.8-.1,1-.4s.4-.5.4-.9h0s0,0,0,0Z"/>
      <path class="st2" d="M128.8,20.2l-1.7-2.6h-1.4v2.6h-1.8v-8.1h3.7c1,0,1.7.2,2.2.7s.8,1.1.8,2h0c0,.7-.2,1.2-.5,1.6-.3.4-.7.7-1.3.9l2,2.9s-2.1,0-2.1,0ZM128.8,14.9c0-.4-.1-.7-.4-.9s-.6-.3-1-.3h-1.8v2.3h1.8c.4,0,.8-.1,1-.3.2-.2.4-.5.4-.8h0s0,0,0,0Z"/>
      <path class="st2" d="M138,20.2v-8.1h1.8v8.1h-1.8Z"/>
      <path class="st2" d="M153.2,20.2l-3.9-5.1v5.1h-1.8v-8.1h1.6l3.8,5v-5h1.8v8.1h-1.5Z"/>
      <path class="st2" d="M166.1,13.8v6.4h-1.8v-6.4h-2.5v-1.6h6.7v1.6h-2.5Z"/>
    </g>
    <g>
      <path class="st2" d="M107.1,30.5c-.2.4-.4.6-.7.9s-.6.4-1,.5c-.4.1-.8.2-1.3.2h-1.3v2.4h-1.8v-8.1h3.3c.5,0,.9,0,1.3.2s.7.3,1,.6c.3.2.5.5.6.9.1.3.2.7.2,1.1h0c0,.5,0,.9-.3,1.3ZM105.6,29.3c0-.4-.1-.7-.4-.9-.3-.2-.6-.3-1.1-.3h-1.4v2.5h1.4c.4,0,.8-.1,1-.4.2-.2.4-.5.4-.9h0s0,0,0,0Z"/>
      <path class="st2" d="M122.4,32.1c-.2.5-.5.9-.9,1.3-.4.4-.8.7-1.4.9-.5.2-1.1.3-1.7.3s-1.2-.1-1.7-.3c-.5-.2-1-.5-1.4-.9-.4-.4-.7-.8-.9-1.3-.2-.5-.3-1-.3-1.6h0c0-.6.1-1.1.3-1.6.2-.5.5-.9.9-1.3.4-.4.8-.7,1.4-.9.5-.2,1.1-.3,1.7-.3s1.2.1,1.7.3c.5.2,1,.5,1.4.9s.7.8.9,1.3c.2.5.3,1,.3,1.6h0c0,.6-.1,1.1-.3,1.6ZM120.8,30.5c0-.3,0-.7-.2-1-.1-.3-.3-.6-.5-.8-.2-.2-.5-.4-.8-.5-.3-.1-.6-.2-1-.2s-.7,0-1,.2c-.3.1-.6.3-.8.5s-.4.5-.5.8-.2.6-.2,1h0c0,.4,0,.7.2,1,.1.3.3.6.5.8s.5.4.8.5.6.2,1,.2.7,0,1-.2.6-.3.8-.5.4-.5.5-.8c.1-.3.2-.6.2-1h0Z"/>
      <path class="st2" d="M134.9,34.5l-1.7-2.6h-1.4v2.6h-1.8v-8.1h3.7c1,0,1.7.2,2.2.7.5.5.8,1.1.8,2h0c0,.7-.2,1.2-.5,1.6-.3.4-.7.7-1.3.9l2,2.9h-2.1ZM134.9,29.2c0-.4-.1-.7-.4-.9s-.6-.3-1-.3h-1.8v2.3h1.8c.4,0,.8-.1,1-.3.2-.2.4-.5.4-.8h0Z"/>
      <path class="st2" d="M147.8,28.1v6.4h-1.8v-6.4h-2.5v-1.6h6.7v1.6h-2.5Z"/>
      <path class="st2" d="M163.3,34.5l-.7-1.8h-3.4l-.7,1.8h-1.8l3.5-8.1h1.6l3.5,8.1h-1.9ZM160.9,28.5l-1.1,2.6h2.1l-1.1-2.6Z"/>
      <path class="st2" d="M172.2,34.5v-8.1h1.8v6.5h4v1.6h-5.8Z"/>
    </g>
  </g>
</svg>