<?xml version="1.0" encoding="UTF-8"?>
<svg id="Layer_1" xmlns="http://www.w3.org/2000/svg" version="1.1" viewBox="0 0 429.2 50">
  <!-- Generator: Adobe Illustrator 29.0.1, SVG Export Plug-In . SVG Version: 2.1.0 Build 192)  -->
  <defs>
    <style>
      .st0 {
        fill: #b42025;
      }

      .st1 {
        fill: #fff;
      }

      .st2 {
        isolation: isolate;
      }
    </style>
  </defs>
  <g>
    <g class="st2">
      <g class="st2">
        <g class="st2">
          <g class="st2">
            <g class="st2">
              <path class="st1" d="M183.6,19.2h6.8c1,0,1.9.1,2.7.4.8.3,1.5.7,2,1.2.5.5,1,1.1,1.3,1.8.3.7.4,1.5.4,2.3h0c0,1-.2,1.9-.5,2.6-.3.7-.8,1.3-1.4,1.8-.6.5-1.3.9-2.1,1.1-.8.2-1.7.4-2.6.4h-2.8v5h-3.7v-16.7ZM190.2,27.6c.9,0,1.6-.2,2.1-.7s.8-1.1.8-1.8h0c0-.9-.3-1.5-.8-1.9-.5-.4-1.3-.6-2.2-.6h-2.8v5.1h2.9Z"/>
              <path class="st1" d="M199.5,19.2h7.6c2.1,0,3.7.6,4.9,1.7,1,1,1.4,2.2,1.4,3.8h0c0,1.4-.3,2.5-1,3.3-.7.8-1.5,1.5-2.6,1.9l4.1,6h-4.3l-3.6-5.3h-2.9v5.3h-3.7v-16.7ZM206.9,27.3c.9,0,1.6-.2,2.1-.6.5-.4.7-1,.7-1.7h0c0-.8-.3-1.4-.8-1.8s-1.2-.6-2.1-.6h-3.6v4.8h3.7Z"/>
              <path class="st1" d="M216.9,19.2h3.7v16.7h-3.7v-16.7Z"/>
              <path class="st1" d="M224.7,19.2h3.4l7.8,10.3v-10.3h3.6v16.7h-3.1l-8.1-10.6v10.6h-3.6v-16.7Z"/>
              <path class="st1" d="M247.4,22.6h-5.1v-3.4h13.8v3.4h-5.1v13.3h-3.7v-13.3Z"/>
            </g>
          </g>
        </g>
      </g>
    </g>
    <g class="st2">
      <g class="st2">
        <g class="st2">
          <g class="st2">
            <g class="st2">
              <path class="st1" d="M266.8,19h6.8c1,0,1.9.1,2.7.4.8.3,1.5.7,2,1.2.5.5,1,1.1,1.3,1.8.3.7.4,1.5.4,2.3h0c0,1-.2,1.9-.5,2.6-.3.7-.8,1.3-1.4,1.8-.6.5-1.3.9-2.1,1.1-.8.2-1.7.4-2.6.4h-2.8v5h-3.7v-16.7ZM273.4,27.4c.9,0,1.6-.2,2.1-.7s.8-1.1.8-1.8h0c0-.9-.3-1.5-.8-1.9-.5-.4-1.3-.6-2.2-.6h-2.8v5.1h2.9Z"/>
              <path class="st1" d="M290.8,36c-1.3,0-2.5-.2-3.5-.7s-2-1.1-2.8-1.8c-.8-.8-1.4-1.7-1.8-2.7s-.7-2.2-.7-3.3h0c0-1.2.2-2.4.7-3.4s1.1-2,1.8-2.7,1.7-1.4,2.8-1.9,2.3-.7,3.6-.7,2.5.2,3.5.7c1.1.5,2,1.1,2.8,1.8.8.8,1.4,1.7,1.8,2.7.4,1,.7,2.2.7,3.3h0c0,1.2-.2,2.4-.7,3.4-.4,1-1.1,2-1.8,2.7s-1.7,1.4-2.8,1.9-2.3.7-3.6.7ZM290.8,32.6c.7,0,1.4-.1,2-.4.6-.3,1.1-.6,1.6-1.1.4-.5.8-1,1-1.7.2-.6.4-1.3.4-2h0c0-.8-.1-1.4-.4-2.1-.2-.6-.6-1.2-1-1.7-.5-.5-1-.9-1.6-1.1-.6-.3-1.3-.4-2-.4s-1.4.1-2,.4c-.6.3-1.1.6-1.6,1.1-.4.5-.8,1-1,1.7s-.4,1.3-.4,2h0c0,.8.1,1.4.4,2.1s.6,1.2,1,1.7c.5.5,1,.9,1.6,1.1.6.3,1.3.4,2,.4Z"/>
              <path class="st1" d="M302.9,19h7.6c2.1,0,3.7.6,4.9,1.7,1,1,1.4,2.2,1.4,3.8h0c0,1.4-.3,2.5-1,3.3-.7.8-1.5,1.5-2.6,1.9l4.1,6h-4.3l-3.6-5.3h-2.9v5.3h-3.7v-16.7ZM310.3,27.1c.9,0,1.6-.2,2.1-.6.5-.4.7-1,.7-1.7h0c0-.8-.3-1.4-.8-1.8s-1.2-.6-2.1-.6h-3.6v4.8h3.7Z"/>
              <path class="st1" d="M324,22.4h-5.1v-3.4h13.8v3.4h-5.1v13.3h-3.7v-13.3Z"/>
              <path class="st1" d="M341.3,18.9h3.4l7.1,16.8h-3.8l-1.5-3.7h-7l-1.5,3.7h-3.7l7.1-16.8ZM345.1,28.7l-2.2-5.4-2.2,5.4h4.4Z"/>
              <path class="st1" d="M354.4,19h3.7v13.4h8.3v3.3h-12v-16.7Z"/>
            </g>
          </g>
        </g>
      </g>
    </g>
  </g>
  <rect class="st0" x="171.1" y="8" width="1" height="34"/>
  <g>
    <path class="st1" d="M69.9,47l-1.9-5.9-1.9,5.9h-.6l-2.4-7.5c-.2-.7-.3-.8-.8-.8h-.2v-.6h3.6v.5h-.2c-.5,0-.6,0-.6.4v.7l1.3,4.5,1.2-4.1-.2-.5c-.3-.7-.5-.9-1.2-1v-.5h3.9v.5h-.2c-.5,0-.6.2-.6.5v.6l1.4,4.5,1.1-3.8c.2-.5.2-.7.2-.9,0-.3,0-.6-.4-.7-.1,0-.4,0-.7-.2h-.2v-.6h3.1v.5c-.7.2-1,.4-1.2,1.2l-2.3,7.1h-.6l.2.2h.2Z"/>
    <path class="st1" d="M83.9,40.9h-.5c-.5-1.7-1.1-2.4-2.3-2.4h-1.1c-.6,0-.7,0-.7.7v2.8h.4c.8,0,1.3-.6,1.5-1.8h.5v4.2h-.5c0-.7-.2-1.1-.5-1.4-.3-.4-.5-.5-1.1-.5h-.4v3c0,.7,0,.8.6.8h1.2c.7,0,1.3-.4,1.8-1.1.2-.4.4-.8.6-1.7h.5l-.2,3.3h-7.8v-.5h.5c.7,0,.8-.2.8-1.3v-5.1c0-.9,0-1-.3-1.2h-1v-.5h7.7v2.9h.3v-.2Z"/>
    <path class="st1" d="M93.4,41.1c-.8-2-1.6-2.8-2.9-2.8s-1.8.6-1.8,1.4.2.7.5.9c.2.2.6.3,1.2.4,1.2.3,2.2.6,2.7.9.7.4,1,1.1,1,2.1,0,1.7-1.2,2.9-3,2.9s-1.8-.3-2.6-.9l-.8.8h-.5v-3.5h.5c.4.9.6,1.4,1,1.8.6.7,1.5,1.2,2.4,1.2s1.8-.6,1.8-1.4-.3-.9-.7-1.1-1-.3-2.2-.6c-1.7-.4-2.6-1.4-2.6-2.7s.3-1.4.8-1.9,1.3-.9,2.2-.9,1.7.2,2.4.7l.6-.6h.5v3.2h-.6,0Z"/>
    <path class="st1" d="M104.2,41.2c-.3-1-.5-1.6-.8-2.1-.4-.5-.9-.8-1.4-.8s-.5,0-.5.6v5.8c0,.9,0,1.1.4,1.2h1v.5h-4.7v-.5h1c.3,0,.4-.3.4-1.2v-5.8c0-.5,0-.6-.5-.6s-1.2.4-1.6,1c-.2.4-.4.9-.6,1.8h-.5l.2-3.3h8l.2,3.3h-.6Z"/>
    <path class="st1" d="M113.6,42.3c.8,0,1.2,0,1.5-.3.5-.3.8-1,.8-1.7,0-1.1-.7-1.9-1.8-1.9h-.7c-.5,0-.6,0-.6.8v3.2h.8,0ZM112.8,44.9c0,.5,0,.9,0,1,0,.2.2.2,1.2.3v.5h-4.6v-.5h.5c.7,0,.8-.2.8-1.3v-5.1c0-.9,0-1-.3-1.2h-1v-.6h4.9c1.2,0,1.8,0,2.4.4.7.4,1.2,1.1,1.2,1.9s-.6,1.8-1.4,2.2-1.3.4-2.3.4h-1.5v2h.1Z"/>
    <path class="st1" d="M124.1,41.7c1.5,0,2.1-.5,2.1-1.8s-.5-1.5-1.5-1.5h-.7c-.5,0-.6,0-.6.7v2.6h.7ZM129.3,44.7c0,.7-.1,1.1-.4,1.4-.3.5-.8.7-1.5.7s-1.3-.4-1.5-1c-.2-.4-.2-.8-.4-2,0-1.2-.5-1.5-1.6-1.5h-.6v2.5c0,.9,0,1,.3,1.2h1v.5h-4.5v-.5h.5c.7,0,.8-.2.8-1.3v-5.1c0-.9,0-1-.3-1.2h-1v-.5h4.8c1,0,1.8,0,2.3.4.6.3,1,1,1,1.7s-.4,1.4-1.2,1.8-.7.3-1.4.4c.6,0,.9.3,1.3.7.2.2.3.5.5,1l.3,1.1c0,.5.3.7.6.7s.5-.3.5-1h.5,0Z"/>
    <path class="st1" d="M139.4,40.6h-.5c-.5-1.7-1.1-2.4-2.3-2.4h-1.1c-.6,0-.7,0-.7.7v2.8h.4c.8,0,1.3-.6,1.5-1.8h.5v4.2h-.5c0-.7-.2-1.1-.5-1.4-.3-.4-.5-.5-1.1-.5h-.4v3c0,.7,0,.8.6.8h1.2c.7,0,1.3-.4,1.8-1.1.2-.4.4-.8.6-1.7h.5l-.2,3.3h-7.8v-.5h.5c.7,0,.8-.2.8-1.3v-5.1c0-.9,0-1-.3-1.2h-1v-.5h7.7v2.9h.3v-.2Z"/>
    <path class="st1" d="M149,40.8c-.8-2-1.6-2.8-2.9-2.8s-1.8.6-1.8,1.4.2.7.5.9c.2.2.6.3,1.2.4,1.2.3,2.2.6,2.7.9.7.4,1,1.1,1,2.1,0,1.7-1.2,2.9-3,2.9s-1.8-.3-2.6-.9l-.8.8h-.5v-3.5h.5c.4.9.6,1.4,1,1.8.6.7,1.5,1.2,2.4,1.2s1.8-.6,1.8-1.4-.3-.9-.7-1.1-1-.3-2.2-.6c-1.7-.4-2.6-1.4-2.6-2.7s.3-1.4.8-1.9c.6-.6,1.3-.9,2.2-.9s1.7.2,2.4.7l.6-.6h.5v3.2h-.6.1Z"/>
    <path class="st1" d="M158.8,40.9c-.8-2-1.6-2.8-2.9-2.8s-1.8.6-1.8,1.4.2.7.5.9c.2.2.6.3,1.2.4,1.2.3,2.2.6,2.7.9.7.4,1,1.1,1,2.1,0,1.7-1.2,2.9-3,2.9s-1.8-.3-2.6-.9l-.8.8h-.5v-3.5h.5c.4.9.6,1.4,1,1.8.6.7,1.5,1.2,2.4,1.2s1.8-.6,1.8-1.4-.3-.9-.7-1.1-1-.3-2.2-.6c-1.7-.4-2.6-1.4-2.6-2.7s.3-1.4.8-1.9c.6-.6,1.3-.9,2.2-.9s1.7.2,2.4.7l.6-.6h.5v3.2h-.6.1Z"/>
    <path class="st0" d="M107.2,43.9c.7,0,1.2-.6,1.2-1.2s-.5-1.2-1.2-1.2-1.2.6-1.2,1.3.5,1.2,1.2,1.2"/>
    <path class="st0" d="M102.6,26.4s-2.6-6.7-8-10.8c-5.5-4.1-10.6-4.8-13.2-5.3,0,0,2-4,8.1-3.6s13.4,4.2,18.5,14.4l-5.3,5.3h0ZM149.8,6.3c-.7-.8-3-3.2-7.5-3.3-5.2.2-8.6,4.1-8.6,4.1l-17.8,17.8-2.3-5.2s12.7-12.9,13.8-14.1c1.1-1.1,2.4-1.4,2.4-1.4h.5c.2,0,.3,0,.2-.4,0-.4-.2-.3-.2-.3h-9l-.2.2c0,.4.2.4.2.4l.7.2s.6,0,.9.8c.2.9-.3,1.3-.3,1.3l-10.7,10.7c-8.6-11.3-18.2-14.4-24.6-13.2-6.4,1.2-8.2,6.6-8.2,6.6,0,0-6.1.8-8.3,6.2-3.2,8.7,3.8,10.6,3.8,10.6-2.7-1.6-4.6-5.2-2.6-9.4,2.2-4.5,6.4-4.3,6.4-4.3.2,5.1,3,6.8,4.8,7.5,1,.4,1.4.2,1.4.2-6.2-2.8-4.4-7.8-4.4-7.8,15,1.7,18.9,20.5,18.9,20.5l10.1-9.8c1.7,3,2.8,8.8,2.8,8.8l24.7-24.7s1.9-2,4.8-2c4,.2,5.7,3.2,6.3,4.3.9,1.7.5,5.4-1.5,7.3-2,1.8-4.7,2.1-4.7,2.1,2.9.2,4.9-.7,4.9-.7,3.1-1.2,4.2-3.1,4.2-3.1,3-5.4-.1-9-.8-9.8"/>
  </g>
</svg>