<?xml version="1.0" encoding="UTF-8"?>
<svg id="Layer_1" xmlns="http://www.w3.org/2000/svg" version="1.1" xmlns:xlink="http://www.w3.org/1999/xlink" viewBox="0 0 325.5 50">
  <!-- Generator: Adobe Illustrator 29.0.1, SVG Export Plug-In . SVG Version: 2.1.0 Build 192)  -->
  <defs>
    <style>
      .st0 {
        fill: #b42025;
      }

      .st1 {
        fill: #fff;
      }

      .st2, .st3 {
        fill: none;
      }

      .st4 {
        clip-path: url(#clippath-1);
      }

      .st5 {
        isolation: isolate;
      }

      .st3 {
        clip-path: url(#clippath);
      }
    </style>
    <clipPath id="clippath">
      <polygon class="st2" points="408.8 -194 409 -194 408.8 -193.8 408.8 -194"/>
    </clipPath>
    <clipPath id="clippath-1">
      <polygon class="st3" points="408.3 -194.5 408.1 -194.5 408.3 -194.7 408.3 -194.5"/>
    </clipPath>
  </defs>
  <g id="b">
    <g class="st4">
      <image class="st5" width="1923" height="820" transform="translate(187.4 -288.5) scale(.2)" xlink:href="wp-header-white-1.png"/>
    </g>
  </g>
  <g>
    <rect class="st0" x="175.1" y="8" width="1" height="34"/>
    <g>
      <path class="st1" d="M187.1,12.2h4.2c.6,0,1.2,0,1.6.3.5.2.9.4,1.2.7.3.3.6.7.8,1.1.2.4.3.9.3,1.4h0c0,.6-.1,1.1-.3,1.6-.2.4-.5.8-.9,1.1s-.8.5-1.3.7-1,.2-1.6.2h-1.7v3.1h-2.2v-10.2ZM191.1,17.4c.6,0,1-.1,1.3-.4s.5-.7.5-1.1h0c0-.5-.2-.9-.5-1.2s-.8-.4-1.3-.4h-1.7v3.1h1.8Z"/>
      <path class="st1" d="M199.1,12.2h4.7c1.3,0,2.3.3,3,1,.6.6.9,1.4.9,2.3h0c0,.9-.2,1.5-.6,2.1-.4.5-.9.9-1.6,1.1l2.5,3.6h-2.6l-2.2-3.3h-1.8v3.3h-2.2v-10.2ZM203.6,17.2c.6,0,1-.1,1.3-.4s.4-.6.4-1.1h0c0-.5-.2-.9-.5-1.1-.3-.2-.7-.4-1.3-.4h-2.2v2.9h2.3Z"/>
      <path class="st1" d="M212,12.2h2.2v10.2h-2.2v-10.2Z"/>
      <path class="st1" d="M219.1,12.2h2.1l4.8,6.3v-6.3h2.2v10.2h-1.9l-4.9-6.5v6.5h-2.2v-10.2Z"/>
      <path class="st1" d="M235.3,14.3h-3.1v-2.1h8.5v2.1h-3.1v8.1h-2.2v-8.1Z"/>
      <path class="st1" d="M187.1,27.2h4.2c.6,0,1.2,0,1.6.3.5.2.9.4,1.2.7.3.3.6.7.8,1.1.2.4.3.9.3,1.4h0c0,.6-.1,1.1-.3,1.6-.2.4-.5.8-.9,1.1-.4.3-.8.5-1.3.7-.5.2-1,.2-1.6.2h-1.7v3.1h-2.2v-10.2ZM191.1,32.4c.6,0,1-.1,1.3-.4.3-.3.5-.7.5-1.1h0c0-.5-.2-.9-.5-1.2s-.8-.4-1.3-.4h-1.7v3.1h1.8Z"/>
      <path class="st1" d="M204.1,37.6c-.8,0-1.5-.1-2.2-.4-.7-.3-1.2-.7-1.7-1.1-.5-.5-.9-1-1.1-1.7-.3-.6-.4-1.3-.4-2.1h0c0-.8.1-1.4.4-2.1.3-.6.6-1.2,1.1-1.7.5-.5,1.1-.9,1.7-1.1.7-.3,1.4-.4,2.2-.4s1.5.1,2.2.4c.7.3,1.2.7,1.7,1.1.5.5.9,1,1.1,1.7.3.6.4,1.3.4,2.1h0c0,.8-.1,1.4-.4,2.1-.3.6-.6,1.2-1.1,1.7-.5.5-1.1.9-1.7,1.1-.7.3-1.4.4-2.2.4ZM204.1,35.5c.4,0,.9,0,1.2-.2.4-.2.7-.4,1-.7s.5-.6.6-1c.2-.4.2-.8.2-1.2h0c0-.5,0-.9-.2-1.3-.2-.4-.4-.7-.6-1s-.6-.5-1-.7c-.4-.2-.8-.3-1.2-.3s-.9,0-1.2.2c-.4.2-.7.4-1,.7s-.5.6-.6,1c-.2.4-.2.8-.2,1.2h0c0,.5,0,.9.2,1.3.2.4.4.7.6,1s.6.5,1,.7c.4.2.8.3,1.2.3Z"/>
      <path class="st1" d="M213.8,27.2h4.7c1.3,0,2.3.3,3,1,.6.6.9,1.4.9,2.3h0c0,.9-.2,1.5-.6,2.1-.4.5-.9.9-1.6,1.1l2.5,3.6h-2.6l-2.2-3.3h-1.8v3.3h-2.2v-10.2ZM218.3,32.2c.6,0,1-.1,1.3-.4s.4-.6.4-1.1h0c0-.5-.2-.9-.5-1.1-.3-.2-.7-.4-1.3-.4h-2.2v2.9h2.3Z"/>
      <path class="st1" d="M229,29.3h-3.1v-2.1h8.5v2.1h-3.1v8.1h-2.2v-8.1Z"/>
      <path class="st1" d="M241.8,27.2h2.1l4.4,10.3h-2.4l-.9-2.3h-4.3l-.9,2.3h-2.3l4.4-10.3ZM244.2,33.2l-1.4-3.3-1.4,3.3h2.7Z"/>
      <path class="st1" d="M252.1,27.2h2.2v8.2h5.1v2h-7.3v-10.2Z"/>
    </g>
    <g>
      <path class="st1" d="M73.9,47l-1.9-5.9-1.9,5.9h-.6l-2.4-7.5c-.2-.7-.3-.8-.8-.8h-.2v-.6h3.6v.5h-.2c-.5,0-.6.1-.6.4s0,.3.1.7l1.3,4.5,1.2-4.1-.2-.5c-.3-.7-.5-.9-1.2-1v-.5h3.9v.5h-.2c-.5,0-.6.2-.6.5s0,.3.1.6l1.4,4.5,1.1-3.8c.2-.5.2-.7.2-.9,0-.3-.1-.6-.4-.7-.2-.1-.2-.1-.7-.2h-.2v-.6h3.1v.5c-.7.2-1,.4-1.2,1.2l-2.3,7.1h-.6,0Z"/>
      <path class="st1" d="M87.9,40.9h-.5c-.5-1.7-1.1-2.4-2.3-2.4h-1.1c-.6,0-.7,0-.7.7v2.8h.4c.8,0,1.3-.6,1.5-1.8h.5v4.2h-.5c0-.7-.2-1.1-.5-1.4-.3-.4-.5-.5-1.1-.5h-.4v3c0,.7,0,.8.6.8h1.2c.7,0,1.3-.4,1.8-1.1.2-.4.4-.8.6-1.7h.5s-.2,3.3-.2,3.3h-7.8v-.5h.5c.7,0,.8-.2.8-1.3v-5.1c0-.9,0-1-.3-1.2-.2,0-.2,0-.8-.1h-.2v-.5h7.7s0,2.9,0,2.9Z"/>
      <path class="st1" d="M97.4,41.1c-.8-2-1.6-2.8-2.9-2.8s-1.8.6-1.8,1.4.2.7.5.9c.2.2.6.3,1.2.4,1.2.3,2.2.6,2.7.9.7.4,1,1.1,1,2.1,0,1.7-1.2,2.9-3,2.9s-1.8-.3-2.6-.9l-.8.8h-.5v-3.5h.5c.4.9.6,1.4,1,1.8.6.7,1.5,1.2,2.4,1.2s1.8-.6,1.8-1.4-.3-.9-.7-1.1c-.2-.1-1-.3-2.2-.6-1.7-.4-2.6-1.4-2.6-2.7s.3-1.4.8-1.9c.6-.6,1.3-.9,2.2-.9s1.7.2,2.4.7l.6-.6h.5v3.2h-.6,0Z"/>
      <path class="st1" d="M108.2,41.2c-.3-1-.5-1.6-.8-2.1-.4-.5-.9-.8-1.4-.8s-.5.1-.5.6v5.8c0,.9,0,1.1.4,1.2.2,0,.2,0,1,0v.5h-4.7v-.5c.8,0,.8,0,1,0,.3,0,.4-.3.4-1.2v-5.8c0-.5,0-.6-.5-.6-.7,0-1.2.4-1.6,1-.2.4-.4.9-.6,1.8h-.5s.2-3.3.2-3.3h8l.2,3.3s-.5,0-.5,0Z"/>
      <path class="st1" d="M117.6,42.3c.8,0,1.2,0,1.5-.3.5-.3.8-1,.8-1.7,0-1.1-.7-1.9-1.8-1.9h-.7c-.5,0-.6.1-.6.8v3.2h.8ZM116.8,44.9c0,.8,0,.8.1,1,.1.2.2.2,1.2.3v.5h-4.6v-.5h.5c.7,0,.8-.2.8-1.3v-5.1c0-.9,0-1-.3-1.2-.2,0-.2,0-.8-.1h-.2v-.6h4.9c1.2,0,1.8.1,2.4.4.7.4,1.2,1.1,1.2,1.9s-.6,1.8-1.4,2.2c-.6.3-1.3.4-2.3.4h-1.5v2h0Z"/>
      <path class="st1" d="M128.1,41.7c1.5,0,2.1-.5,2.1-1.8s-.5-1.5-1.5-1.5h-.7c-.5,0-.6,0-.6.7v2.6h.7ZM133.3,44.7c0,.7-.1,1.1-.4,1.4-.3.5-.8.7-1.5.7s-1.3-.4-1.5-1c-.2-.4-.2-.8-.4-2-.1-1.2-.5-1.5-1.6-1.5h-.6v2.5c0,.9,0,1,.3,1.2.2,0,.2,0,.8.1h.2v.5h-4.5v-.5h.5c.7,0,.8-.2.8-1.3v-5.1c0-.9,0-1-.3-1.2-.2,0-.2,0-.8-.1h-.2v-.5h4.8c1,0,1.8.1,2.3.4.6.3,1,1,1,1.7s-.4,1.4-1.2,1.8c-.4.2-.7.3-1.4.4.6,0,.9.3,1.3.7.2.2.3.5.5,1l.3,1.1c.1.5.3.7.6.7s.5-.3.5-1h.5Z"/>
      <path class="st1" d="M143.4,40.6h-.5c-.5-1.7-1.1-2.4-2.3-2.4h-1.1c-.6,0-.7,0-.7.7v2.8h.4c.8,0,1.3-.6,1.5-1.8h.5v4.2h-.5c0-.7-.2-1.1-.5-1.4-.3-.4-.5-.5-1.1-.5h-.4v3c0,.7,0,.8.6.8h1.2c.7,0,1.3-.4,1.8-1.1.2-.4.4-.8.6-1.7h.5s-.2,3.3-.2,3.3h-7.8v-.5h.5c.7,0,.8-.2.8-1.3v-5.1c0-.9,0-1-.3-1.2-.2,0-.2,0-.8-.1h-.2v-.5h7.7v2.9q0,0,0,0Z"/>
      <path class="st1" d="M153,40.8c-.8-2-1.6-2.8-2.9-2.8s-1.8.6-1.8,1.4.2.7.5.9c.2.2.6.3,1.2.4,1.2.3,2.2.6,2.7.9.7.4,1,1.1,1,2.1,0,1.7-1.2,2.9-3,2.9s-1.8-.3-2.6-.9l-.8.8h-.5v-3.5h.5c.4.9.6,1.4,1,1.8.6.7,1.5,1.2,2.4,1.2s1.8-.6,1.8-1.4-.3-.9-.7-1.1c-.2-.1-1-.3-2.2-.6-1.7-.4-2.6-1.4-2.6-2.7s.3-1.4.8-1.9c.6-.6,1.3-.9,2.2-.9s1.7.2,2.4.7l.6-.6h.5v3.2h-.6,0Z"/>
      <path class="st1" d="M162.8,40.9c-.8-2-1.6-2.8-2.9-2.8s-1.8.6-1.8,1.4.2.7.5.9c.2.2.6.3,1.2.4,1.2.3,2.2.6,2.7.9.7.4,1,1.1,1,2.1,0,1.7-1.2,2.9-3,2.9s-1.8-.3-2.6-.9l-.8.8h-.5v-3.5h.5c.4.9.6,1.4,1,1.8.6.7,1.5,1.2,2.4,1.2s1.8-.6,1.8-1.4-.3-.9-.7-1.1c-.2-.1-1-.3-2.2-.6-1.7-.4-2.6-1.4-2.6-2.7s.3-1.4.8-1.9c.6-.6,1.3-.9,2.2-.9s1.7.2,2.4.7l.6-.6h.5v3.2h-.6,0Z"/>
      <path class="st0" d="M111.2,43.9c.7,0,1.2-.6,1.2-1.2s-.5-1.2-1.2-1.2-1.2.6-1.2,1.3.5,1.2,1.2,1.2"/>
      <path class="st0" d="M106.6,26.4s-2.6-6.7-8-10.8c-5.5-4.1-10.6-4.8-13.2-5.3,0,0,2-4,8.1-3.6,6.1.4,13.4,4.2,18.5,14.4,0,0-5.3,5.3-5.3,5.3ZM153.8,6.3c-.7-.8-3-3.2-7.5-3.3-5.2.2-8.6,4.1-8.6,4.1l-17.8,17.8-2.3-5.2s12.7-12.9,13.8-14.1c1.1-1.1,2.4-1.4,2.4-1.4,0,0,.3,0,.5,0,.2,0,.3-.1.2-.4,0-.4-.2-.3-.2-.3h-9s-.1,0-.2.2c-.1.4.2.4.2.4l.7.2s.6,0,.9.8c.2.9-.3,1.3-.3,1.3l-10.7,10.7c-8.6-11.3-18.2-14.4-24.6-13.2-6.4,1.2-8.2,6.6-8.2,6.6,0,0-6.1.8-8.3,6.2-3.2,8.7,3.8,10.6,3.8,10.6-2.7-1.6-4.6-5.2-2.6-9.4,2.2-4.5,6.4-4.3,6.4-4.3.2,5.1,3,6.8,4.8,7.5,1,.4,1.4.2,1.4.2-6.2-2.8-4.4-7.8-4.4-7.8,15,1.7,18.9,20.5,18.9,20.5l10.1-9.8c1.7,3,2.8,8.8,2.8,8.8l24.7-24.7s1.9-2,4.8-2c4,.2,5.7,3.2,6.3,4.3.9,1.7.5,5.4-1.5,7.3-2,1.8-4.7,2.1-4.7,2.1,2.9.2,4.9-.7,4.9-.7,3.1-1.2,4.2-3.1,4.2-3.1,3-5.4-.1-9-.8-9.8"/>
    </g>
  </g>
</svg>