<?xml version="1.0" encoding="UTF-8"?><svg id="a" xmlns="http://www.w3.org/2000/svg" viewBox="0 0 780 250"><defs><style>.b{fill:#fff;}.c{fill:#008996;}.d{fill:#ff6d2d;}.e{fill:#231f20;}</style></defs><rect class="b" width="780" height="250"/><g><g><rect class="e" x="358.39" y="68.9" width="2.57" height="136.2"/><path class="e" d="M360.46,69.4V204.6h-1.57V69.4h1.57m1-1h-3.57V205.6h3.57V68.4h0Z"/></g><g><g><path class="c" d="M482.03,109.5c-.65,1.36-1.55,2.5-2.69,3.42s-2.47,1.61-4,2.06c-1.52,.46-3.16,.69-4.9,.69h-5.19v9.32h-6.84v-31.07h12.7c1.86,0,3.53,.26,4.99,.78s2.71,1.25,3.73,2.2c1.02,.95,1.8,2.08,2.35,3.4,.55,1.32,.82,2.77,.82,4.37v.09c0,1.8-.32,3.38-.97,4.74h0Zm-5.95-4.7c0-1.54-.5-2.71-1.49-3.51s-2.35-1.2-4.06-1.2h-5.28v9.5h5.42c1.72,0,3.05-.45,4-1.35s1.42-2.02,1.42-3.35v-.09h-.01Z"/><path class="c" d="M529.13,125l-6.66-9.94h-5.37v9.94h-6.84v-31.08h14.21c3.7,0,6.58,.9,8.64,2.71s3.08,4.32,3.08,7.55v.09c0,2.52-.61,4.57-1.84,6.15-1.23,1.58-2.83,2.75-4.82,3.48l7.59,11.1h-7.99Zm.13-20.47c0-1.48-.47-2.59-1.42-3.33s-2.26-1.11-3.95-1.11h-6.79v8.92h6.92c1.69,0,2.98-.4,3.88-1.2,.9-.8,1.35-1.86,1.35-3.2v-.08h.01Z"/><path class="c" d="M564.86,125v-31.08h6.84v31.07h-6.84Z"/><path class="c" d="M623.46,125l-15.05-19.75v19.75h-6.75v-31.08h6.3l14.56,19.13v-19.13h6.75v31.07h-5.81Z"/><path class="c" d="M673,100.23v24.77h-6.84v-24.77h-9.46v-6.3h25.75v6.3h-9.45Z"/></g><g><path class="c" d="M445.78,164.43c-.65,1.36-1.55,2.5-2.69,3.42s-2.47,1.61-3.99,2.06c-1.52,.46-3.16,.69-4.91,.69h-5.19v9.32h-6.84v-31.07h12.7c1.86,0,3.53,.26,4.99,.78s2.71,1.25,3.73,2.2c1.02,.95,1.81,2.08,2.35,3.4,.55,1.32,.82,2.78,.82,4.37v.09c0,1.8-.32,3.38-.97,4.74h0Zm-5.95-4.7c0-1.54-.5-2.71-1.49-3.51-.99-.8-2.35-1.2-4.06-1.2h-5.28v9.5h5.42c1.72,0,3.05-.45,4-1.35,.95-.9,1.42-2.02,1.42-3.35v-.09h-.01Z"/><path class="c" d="M504.42,170.63c-.83,1.94-1.97,3.64-3.44,5.11-1.47,1.46-3.21,2.62-5.24,3.46-2.03,.84-4.24,1.26-6.64,1.26s-4.6-.42-6.61-1.26c-2.01-.84-3.75-1.98-5.22-3.42-1.46-1.44-2.61-3.12-3.42-5.06-.81-1.94-1.22-4.02-1.22-6.24v-.09c0-2.22,.42-4.3,1.24-6.24,.83-1.94,1.97-3.64,3.44-5.1,1.46-1.46,3.21-2.62,5.24-3.46,2.03-.84,4.24-1.27,6.64-1.27s4.6,.42,6.61,1.27c2.01,.84,3.75,1.98,5.22,3.42s2.6,3.12,3.42,5.06c.81,1.94,1.22,4.02,1.22,6.24v.09c.01,2.21-.41,4.29-1.24,6.23h0Zm-5.9-6.24c0-1.33-.23-2.59-.69-3.77-.46-1.18-1.11-2.22-1.95-3.11s-1.84-1.59-3-2.11c-1.15-.52-2.41-.78-3.77-.78s-2.66,.25-3.79,.75c-1.14,.5-2.12,1.2-2.93,2.09s-1.45,1.92-1.91,3.09-.69,2.42-.69,3.75v.09c0,1.33,.23,2.59,.69,3.77,.46,1.18,1.11,2.22,1.95,3.11s1.83,1.59,2.97,2.11,2.4,.78,3.8,.78,2.62-.25,3.77-.75,2.14-1.2,2.95-2.09,1.45-1.92,1.91-3.09,.69-2.42,.69-3.75v-.09h0Z"/><path class="c" d="M552.81,179.93l-6.66-9.94h-5.37v9.94h-6.84v-31.07h14.21c3.7,0,6.58,.9,8.63,2.71,2.06,1.81,3.09,4.32,3.09,7.55v.07c0,2.52-.61,4.57-1.84,6.15-1.23,1.58-2.83,2.75-4.82,3.48l7.59,11.1h-7.99Zm.14-20.42c0-1.48-.47-2.59-1.42-3.33s-2.26-1.11-3.95-1.11h-6.79v8.92h6.92c1.69,0,2.98-.4,3.89-1.2,.9-.8,1.35-1.86,1.35-3.2v-.08Z"/><path class="c" d="M602.31,155.15v24.77h-6.84v-24.77h-9.45v-6.3h25.75v6.3h-9.46Z"/><path class="c" d="M662.33,179.93l-2.84-6.97h-13.14l-2.84,6.97h-6.97l13.32-31.3h6.3l13.32,31.3h-7.15Zm-9.41-23.09l-4.13,10.08h8.26l-4.13-10.08Z"/><path class="c" d="M696.47,179.93v-31.07h6.84v24.9h15.49v6.17h-22.33Z"/></g></g><g><g><path class="c" d="M183.13,208.58c-45.9,13.5-94.05-12.76-107.56-58.66-13.5-45.9,12.76-94.05,58.66-107.56,28.19-8.29,57.22-1.57,78.57,15.48-22.63-20.49-55.07-29.06-86.5-19.82-48.03,14.13-75.52,64.52-61.39,112.56,14.13,48.03,64.52,75.52,112.56,61.38,9.22-2.71,17.68-6.77,25.24-11.88-6.02,3.55-12.57,6.43-19.58,8.49"/><path class="d" d="M135.37,46.23c-21.17,6.23-38.64,20.32-49.21,39.69-10.56,19.37-12.95,41.69-6.73,62.86,1.18,4,2.63,7.87,4.36,11.58-1.82-5.37-3.15-11-3.9-16.84-6.13-47.45,27.37-90.88,74.82-97.01,12.72-1.64,25.15-.43,36.65,3.13-5.18-2.24-10.58-3.95-16.09-5.09-13.14-2.71-26.94-2.13-39.9,1.68Z"/></g><g><g><path class="c" d="M107.3,78.1h52.08l.49,15.65h-2.2c-1.08-4.92-2.45-8.12-4.12-9.6-1.66-1.48-5.16-2.23-10.5-2.23h-5.13v47.13c0,3.55,.55,5.75,1.66,6.6,1.11,.85,3.54,1.41,7.29,1.68v1.71h-26.85v-1.71c3.9-.3,6.33-.94,7.29-1.92,.96-.98,1.44-3.46,1.44-7.43v-46.05h-5.17c-5.1,0-8.57,.73-10.41,2.2-1.84,1.47-3.23,4.68-4.16,9.62h-2.25l.54-15.65Z"/><path class="c" d="M162.79,137.33c3.81-.39,6.25-1.25,7.33-2.58,1.08-1.33,1.62-4.43,1.62-9.28v-37.39c0-3.33-.52-5.49-1.57-6.49-1.05-1-3.43-1.6-7.15-1.78v-1.71h18.16l21.15,45.88,20.64-45.88h18.31v1.71c-3.42,.24-5.62,.86-6.61,1.87-.99,1-1.48,3.14-1.48,6.4v40.94c0,3.36,.49,5.51,1.48,6.45,.99,.94,3.19,1.57,6.61,1.86v1.71h-25.77v-1.71c3.72-.3,6.03-.97,6.95-2,.91-1.03,1.37-3.5,1.37-7.39v-41.34l-23.59,52.45h-1.26l-23.18-50.29v36.72c0,5.03,.73,8.31,2.2,9.84,.96,.99,3.1,1.66,6.43,2.02v1.71h-21.63v-1.71Z"/><path class="c" d="M282.75,78.5c3.51,.99,5.47,1.48,5.89,1.48,.87,0,1.69-.24,2.47-.72,.78-.48,1.32-1.23,1.62-2.25h1.93l.85,20.69h-2.11c-1.23-4.11-2.83-7.42-4.81-9.94-3.78-4.74-8.86-7.11-15.25-7.11s-11.72,2.55-15.81,7.65c-4.09,5.1-6.14,12.11-6.14,21.05,0,8.22,2.15,14.77,6.45,19.68,4.3,4.9,9.75,7.35,16.35,7.35,4.77,0,9.16-1.14,13.18-3.42,2.31-1.29,4.84-3.24,7.6-5.85l1.71,1.71c-2.04,2.58-4.57,4.84-7.6,6.79-5.16,3.3-10.75,4.95-16.78,4.95-9.89,0-17.75-3.16-23.57-9.49-5.37-5.85-8.05-13.15-8.05-21.9s2.83-16.49,8.5-22.58c5.97-6.39,13.73-9.58,23.3-9.58,3.33,0,6.75,.49,10.25,1.48Z"/></g><g><path class="e" d="M146.87,148.76h3.32v13.86h14.96v-13.86h3.32v30.99h-3.32v-14.03h-14.96v14.03h-3.32v-30.99Z"/><path class="e" d="M175.92,148.76h18.9v3.05h-15.58v10.8h13.99v3.01h-13.99v11.07h15.81v3.05h-19.13v-30.99Z"/><path class="e" d="M210.54,148.58h3.28l11.82,31.17h-3.54l-3.01-8.15h-13.95l-3.01,8.15h-3.41l11.82-31.17Zm7.44,20.01l-5.84-15.72-5.89,15.72h11.73Z"/><path class="e" d="M230.82,148.76h3.32v27.94h14.39v3.05h-17.71v-30.99Z"/><path class="e" d="M257.64,151.86h-8.68v-3.1h20.72v3.1h-8.72v27.89h-3.32v-27.89Z"/><path class="e" d="M275.09,148.76h3.32v13.86h14.96v-13.86h3.32v30.99h-3.32v-14.03h-14.96v14.03h-3.32v-30.99Z"/></g></g></g></g></svg>