<?xml version="1.0" encoding="UTF-8"?><svg id="a" xmlns="http://www.w3.org/2000/svg" viewBox="0 0 434.06 70.88"><defs><style>.b{fill:#008996;}.c{fill:#ff6d2d;}.d{fill:#231f20;}</style></defs><rect class="d" x="100.72" y="13.36" width=".51" height="44.06"/><g><path class="b" d="M122.79,35.33c-.16,.32-.37,.6-.65,.82s-.6,.38-.96,.5c-.37,.12-.76,.16-1.18,.16h-1.25v2.26h-1.66v-7.52h3.07c.45,0,.86,.06,1.2,.19,.36,.13,.66,.3,.9,.53s.44,.5,.57,.82,.2,.67,.2,1.05v.02c0,.45-.09,.83-.24,1.16h0Zm-1.44-1.1c0-.37-.12-.66-.36-.85-.24-.2-.57-.29-.98-.29h-1.27v2.29h1.31c.42,0,.74-.1,.96-.32s.35-.49,.35-.81v-.02h-.01Z"/><path class="b" d="M138.9,39.09l-1.61-2.41h-1.3v2.41h-1.66v-7.52h3.44c.89,0,1.59,.22,2.09,.66,.5,.44,.74,1.04,.74,1.83v.02c0,.61-.15,1.1-.44,1.48-.3,.38-.68,.66-1.17,.85l1.83,2.69h-1.92Zm.02-5.01c0-.36-.12-.63-.35-.8s-.54-.27-.95-.27h-1.64v2.15h1.68c.41,0,.72-.09,.94-.29s.32-.45,.32-.78v-.02h0Z"/><path class="b" d="M152.26,39.09v-7.52h1.66v7.52h-1.66Z"/><path class="b" d="M171.15,39.09l-3.64-4.77v4.77h-1.63v-7.52h1.53l3.52,4.62v-4.62h1.63v7.52h-1.41Z"/><path class="b" d="M187.86,33.1v5.99h-1.66v-5.99h-2.28v-1.53h6.23v1.53h-2.29Z"/><path class="b" d="M220.52,35.33c-.16,.32-.37,.6-.65,.82s-.6,.38-.96,.5-.76,.16-1.18,.16h-1.25v2.26h-1.66v-7.52h3.07c.45,0,.86,.06,1.2,.19,.36,.13,.66,.3,.9,.53s.44,.5,.57,.82,.2,.67,.2,1.05v.02c0,.45-.08,.83-.24,1.16h0Zm-1.44-1.1c0-.37-.12-.66-.36-.85-.24-.2-.57-.29-.98-.29h-1.27v2.29h1.31c.42,0,.74-.1,.96-.32,.23-.22,.35-.49,.35-.81v-.02h-.01Z"/><path class="b" d="M239.43,36.84c-.2,.46-.47,.88-.83,1.24s-.78,.64-1.26,.83c-.49,.21-1.02,.3-1.6,.3s-1.11-.1-1.6-.3c-.49-.21-.9-.47-1.26-.82s-.63-.75-.82-1.23-.29-.97-.29-1.51v-.02c0-.53,.1-1.04,.3-1.51,.2-.46,.47-.88,.83-1.24s.78-.64,1.26-.83c.49-.21,1.02-.3,1.61-.3s1.11,.1,1.6,.3c.49,.21,.9,.47,1.26,.82s.63,.75,.82,1.23c.2,.47,.29,.97,.29,1.51v.02c0,.53-.1,1.03-.31,1.51h0Zm-1.42-1.52c0-.32-.06-.63-.16-.92s-.27-.53-.47-.75c-.21-.22-.44-.38-.73-.51s-.58-.19-.92-.19-.64,.06-.92,.19c-.28,.13-.51,.29-.71,.51s-.35,.46-.46,.74-.16,.58-.16,.9v.02c0,.32,.06,.63,.16,.92s.27,.53,.47,.75c.21,.21,.44,.38,.72,.51,.28,.13,.58,.19,.92,.19s.64-.06,.92-.19c.28-.12,.52-.29,.72-.51s.35-.46,.46-.74,.16-.59,.16-.9v-.02h0Z"/><path class="b" d="M255.85,39.09l-1.61-2.41h-1.3v2.41h-1.66v-7.52h3.44c.89,0,1.59,.22,2.09,.66,.5,.44,.74,1.04,.74,1.83v.02c0,.61-.15,1.1-.44,1.48-.3,.38-.68,.66-1.16,.85l1.83,2.69h-1.93Zm.03-5.01c0-.36-.12-.63-.35-.8s-.54-.27-.96-.27h-1.64v2.15h1.68c.41,0,.72-.09,.94-.29s.32-.45,.32-.78v-.02h.01Z"/><path class="b" d="M272.55,33.1v5.99h-1.66v-5.99h-2.28v-1.53h6.23v1.53h-2.29Z"/><path class="b" d="M291.79,39.09l-.68-1.69h-3.17l-.68,1.69h-1.69l3.22-7.56h1.53l3.22,7.56h-1.75Zm-2.28-5.58l-1,2.43h1.99l-1-2.43h.01Z"/><path class="b" d="M304.76,39.09v-7.52h1.66v6.02h3.74v1.49h-5.4Z"/></g><g><g><path class="b" d="M49.38,62.51c-14.87,4.37-30.46-4.13-34.84-19-4.37-14.87,4.13-30.46,19-34.84,9.13-2.69,18.54-.51,25.45,5.02-7.33-6.64-17.84-9.41-28.02-6.42C15.42,11.85,6.51,28.17,11.09,43.73c4.58,15.56,20.9,24.46,36.46,19.88,2.99-.88,5.73-2.19,8.18-3.85-1.95,1.15-4.07,2.08-6.34,2.75"/><path class="c" d="M33.91,9.93c-6.86,2.02-12.52,6.58-15.94,12.86-3.42,6.27-4.2,13.51-2.18,20.36,.38,1.3,.85,2.55,1.41,3.75-.59-1.74-1.02-3.56-1.26-5.46-1.99-15.37,8.87-29.44,24.24-31.42,4.12-.53,8.15-.14,11.87,1.01-1.68-.72-3.43-1.28-5.21-1.65-4.26-.88-8.73-.69-12.92,.54Z"/></g><g><g><path class="b" d="M24.82,20.25h16.87l.16,5.07h-.71c-.35-1.59-.79-2.63-1.33-3.11-.54-.48-1.67-.72-3.4-.72h-1.66v15.27c0,1.15,.18,1.86,.54,2.14,.36,.28,1.15,.46,2.36,.54v.55h-8.7v-.55c1.26-.1,2.05-.3,2.36-.62,.31-.32,.47-1.12,.47-2.41v-14.92h-1.68c-1.65,0-2.78,.24-3.37,.71-.6,.48-1.05,1.52-1.35,3.12h-.73l.17-5.07Z"/><path class="b" d="M42.8,39.43c1.23-.13,2.02-.4,2.37-.84,.35-.43,.52-1.43,.52-3.01v-12.11c0-1.08-.17-1.78-.51-2.1-.34-.32-1.11-.52-2.32-.57v-.55h5.88l6.85,14.86,6.68-14.86h5.93v.55c-1.11,.08-1.82,.28-2.14,.6-.32,.33-.48,1.02-.48,2.07v13.26c0,1.09,.16,1.78,.48,2.09,.32,.31,1.03,.51,2.14,.6v.55h-8.35v-.55c1.2-.1,1.95-.31,2.25-.65,.3-.33,.44-1.13,.44-2.39v-13.39l-7.64,16.99h-.41l-7.51-16.29v11.89c0,1.63,.24,2.69,.71,3.19,.31,.32,1.01,.54,2.08,.66v.55h-7.01v-.55Z"/><path class="b" d="M81.65,20.38c1.14,.32,1.77,.48,1.91,.48,.28,0,.55-.08,.8-.23,.25-.16,.43-.4,.52-.73h.63l.28,6.7h-.68c-.4-1.33-.92-2.4-1.56-3.22-1.22-1.53-2.87-2.3-4.94-2.3s-3.79,.83-5.12,2.48c-1.33,1.65-1.99,3.92-1.99,6.82,0,2.66,.7,4.79,2.09,6.37,1.39,1.59,3.16,2.38,5.3,2.38,1.54,0,2.97-.37,4.27-1.11,.75-.42,1.57-1.05,2.46-1.89l.55,.55c-.66,.84-1.48,1.57-2.46,2.2-1.67,1.07-3.48,1.6-5.43,1.6-3.2,0-5.75-1.02-7.63-3.07-1.74-1.89-2.61-4.26-2.61-7.09s.92-5.34,2.75-7.31c1.93-2.07,4.45-3.1,7.55-3.1,1.08,0,2.19,.16,3.32,.48Z"/></g><g><path class="d" d="M37.64,43.13h1.08v4.49h4.85v-4.49h1.08v10.04h-1.08v-4.55h-4.85v4.55h-1.08v-10.04Z"/><path class="d" d="M47.05,43.13h6.12v.99h-5.05v3.5h4.53v.98h-4.53v3.59h5.12v.99h-6.2v-10.04Z"/><path class="d" d="M58.26,43.08h1.06l3.83,10.1h-1.15l-.98-2.64h-4.52l-.98,2.64h-1.1l3.83-10.1Zm2.41,6.48l-1.89-5.09-1.91,5.09h3.8Z"/><path class="d" d="M64.83,43.13h1.08v9.05h4.66v.99h-5.74v-10.04Z"/><path class="d" d="M73.52,44.14h-2.81v-1h6.71v1h-2.83v9.03h-1.08v-9.03Z"/><path class="d" d="M79.17,43.13h1.08v4.49h4.85v-4.49h1.08v10.04h-1.08v-4.55h-4.85v4.55h-1.08v-10.04Z"/></g></g></g></svg>