<?xml version="1.0" encoding="UTF-8"?><svg id="a" xmlns="http://www.w3.org/2000/svg" viewBox="0 0 434.06 70.88"><defs><style>.b{fill:#008996;}.c{fill:#ff6d2d;}.d{fill:#231f20;}</style></defs><rect class="d" x="97.66" y="13.36" width=".51" height="44.06"/><g><path class="b" d="M119.73,35.33c-.16,.32-.37,.6-.65,.82s-.6,.38-.96,.5c-.37,.12-.76,.16-1.18,.16h-1.25v2.26h-1.66v-7.52h3.07c.45,0,.86,.06,1.2,.19,.36,.13,.66,.3,.9,.53s.44,.5,.57,.82,.2,.67,.2,1.05v.02c0,.45-.09,.83-.24,1.16h0Zm-1.44-1.09c0-.37-.12-.66-.36-.85-.24-.2-.57-.29-.98-.29h-1.27v2.29h1.31c.42,0,.74-.1,.96-.32s.35-.49,.35-.81v-.02h0Z"/><path class="b" d="M135.84,39.09l-1.61-2.41h-1.3v2.41h-1.66v-7.52h3.44c.89,0,1.59,.22,2.09,.66,.5,.44,.74,1.04,.74,1.83v.02c0,.61-.15,1.1-.44,1.48-.3,.38-.68,.66-1.17,.85l1.83,2.69h-1.92Zm.02-5.02c0-.36-.12-.63-.35-.8s-.54-.27-.95-.27h-1.64v2.15h1.68c.41,0,.72-.09,.94-.29s.32-.45,.32-.78v-.02h0Z"/><path class="b" d="M149.2,39.09v-7.52h1.66v7.52h-1.66Z"/><path class="b" d="M168.09,39.09l-3.64-4.77v4.77h-1.63v-7.52h1.53l3.52,4.62v-4.62h1.63v7.52h-1.41Z"/><path class="b" d="M184.8,33.1v5.99h-1.66v-5.99h-2.28v-1.53h6.23v1.53h-2.29Z"/><path class="b" d="M217.46,35.33c-.16,.32-.37,.6-.65,.82s-.6,.38-.96,.5-.76,.16-1.18,.16h-1.25v2.26h-1.66v-7.52h3.07c.45,0,.86,.06,1.2,.19,.36,.13,.66,.3,.9,.53s.44,.5,.57,.82,.2,.67,.2,1.05v.02c0,.45-.08,.83-.24,1.16h0Zm-1.44-1.09c0-.37-.12-.66-.36-.85-.24-.2-.57-.29-.98-.29h-1.27v2.29h1.31c.42,0,.74-.1,.96-.32,.23-.22,.35-.49,.35-.81v-.02h-.01Z"/><path class="b" d="M236.37,36.84c-.2,.46-.47,.88-.83,1.24s-.78,.64-1.26,.83c-.49,.21-1.02,.3-1.6,.3s-1.11-.1-1.6-.3c-.49-.21-.9-.47-1.26-.82s-.63-.75-.82-1.23-.29-.97-.29-1.51v-.02c0-.53,.1-1.04,.3-1.51,.2-.46,.47-.88,.83-1.24s.78-.64,1.26-.83c.49-.21,1.02-.3,1.61-.3s1.11,.1,1.6,.3c.49,.21,.9,.47,1.26,.82s.63,.75,.82,1.23c.2,.47,.29,.97,.29,1.51v.02c0,.53-.1,1.03-.31,1.51h0Zm-1.42-1.52c0-.32-.06-.63-.16-.92s-.27-.53-.47-.75c-.21-.22-.44-.38-.73-.51s-.58-.19-.92-.19-.64,.06-.92,.19c-.28,.13-.51,.29-.71,.51s-.35,.46-.46,.74-.16,.58-.16,.9v.02c0,.32,.06,.63,.16,.92s.27,.53,.47,.75c.21,.21,.44,.38,.72,.51,.28,.13,.58,.19,.92,.19s.64-.06,.92-.19c.28-.12,.52-.29,.72-.51s.35-.46,.46-.74,.16-.59,.16-.9v-.02h0Z"/><path class="b" d="M252.79,39.09l-1.61-2.41h-1.3v2.41h-1.66v-7.52h3.44c.89,0,1.59,.22,2.09,.66,.5,.44,.74,1.04,.74,1.83v.02c0,.61-.15,1.1-.44,1.48-.3,.38-.68,.66-1.16,.85l1.83,2.69h-1.93Zm.03-5.02c0-.36-.12-.63-.35-.8s-.54-.27-.96-.27h-1.64v2.15h1.68c.41,0,.72-.09,.94-.29s.32-.45,.32-.78v-.02h.01Z"/><path class="b" d="M269.49,33.1v5.99h-1.66v-5.99h-2.28v-1.53h6.23v1.53h-2.29Z"/><path class="b" d="M288.73,39.09l-.68-1.69h-3.17l-.68,1.69h-1.69l3.22-7.56h1.53l3.22,7.56h-1.75Zm-2.28-5.58l-1,2.43h1.99l-1-2.43h.01Z"/><path class="b" d="M301.7,39.09v-7.52h1.66v6.02h3.74v1.49h-5.4Z"/></g><g><g><path class="b" d="M46.21,60.34c-13.68,4.02-28.02-3.8-32.04-17.48-4.02-13.68,3.8-28.02,17.48-32.04,8.4-2.47,17.05-.47,23.41,4.62-6.74-6.11-16.41-8.66-25.77-5.9C14.98,13.74,6.78,28.75,10.99,43.07c4.21,14.31,19.22,22.5,33.53,18.28,2.75-.81,5.27-2.01,7.52-3.54-1.79,1.06-3.74,1.91-5.83,2.53"/><path class="c" d="M31.98,11.98c-6.31,1.86-11.52,6.05-14.66,11.83-3.15,5.77-3.86,12.43-2.01,18.73,.35,1.2,.78,2.35,1.3,3.45-.54-1.6-.94-3.27-1.16-5.02-1.83-14.14,8.16-27.08,22.3-28.9,3.79-.49,7.5-.13,10.92,.93-1.55-.66-3.15-1.18-4.79-1.52-3.92-.81-8.03-.63-11.88,.5h0Z"/></g><g><g><path class="b" d="M23.62,21.47h15.52l.15,4.66h-.65c-.32-1.46-.73-2.42-1.22-2.86s-1.54-.66-3.13-.66h-1.53v14.04c0,1.06,.17,1.71,.5,1.97s1.06,.42,2.17,.5v.51h-8v-.51c1.16-.09,1.89-.28,2.17-.57,.29-.29,.43-1.03,.43-2.22v-13.72h-1.55c-1.52,0-2.56,.22-3.1,.65-.55,.44-.97,1.4-1.24,2.87h-.67l.16-4.66Z"/><path class="b" d="M40.16,39.11c1.13-.12,1.86-.37,2.18-.77,.32-.4,.48-1.32,.48-2.77v-11.14c0-.99-.16-1.64-.47-1.93s-1.02-.48-2.13-.52v-.51h5.41l6.3,13.67,6.14-13.67h5.45v.51c-1.02,.07-1.67,.26-1.97,.55-.29,.3-.44,.94-.44,1.9v12.2c0,1,.15,1.64,.44,1.92s.95,.47,1.97,.55v.51h-7.68v-.51c1.1-.09,1.79-.29,2.07-.6,.28-.3,.4-1.04,.4-2.2v-12.32l-7.03,15.63h-.38l-6.91-14.98v10.94c0,1.5,.22,2.47,.65,2.93,.29,.29,.93,.5,1.91,.61v.51h-6.45v-.51h.04Z"/><path class="b" d="M75.89,21.59c1.05,.29,1.63,.44,1.76,.44,.26,0,.51-.07,.74-.21,.23-.15,.4-.37,.48-.67h.58l.26,6.16h-.63c-.37-1.22-.85-2.21-1.43-2.96-1.12-1.41-2.64-2.12-4.54-2.12s-3.49,.76-4.71,2.28-1.83,3.61-1.83,6.27c0,2.45,.64,4.41,1.92,5.86,1.28,1.46,2.91,2.19,4.87,2.19,1.42,0,2.73-.34,3.93-1.02,.69-.39,1.44-.97,2.26-1.74l.51,.51c-.61,.77-1.36,1.44-2.26,2.02-1.54,.98-3.2,1.47-4.99,1.47-2.94,0-5.29-.94-7.02-2.82-1.6-1.74-2.4-3.92-2.4-6.52s.85-4.91,2.53-6.72c1.78-1.9,4.09-2.85,6.94-2.85,.99,0,2.01,.15,3.05,.44h0Z"/></g><g><path class="d" d="M35.41,42.51h.99v4.13h4.46v-4.13h.99v9.23h-.99v-4.18h-4.46v4.18h-.99v-9.23Z"/><path class="d" d="M44.07,42.51h5.63v.91h-4.64v3.22h4.17v.9h-4.17v3.3h4.71v.91h-5.7v-9.23h0Z"/><path class="d" d="M54.38,42.47h.97l3.52,9.29h-1.06l-.9-2.43h-4.16l-.9,2.43h-1.01l3.52-9.29h0Zm2.22,5.96l-1.74-4.68-1.76,4.68h3.5Z"/><path class="d" d="M60.42,42.51h.99v8.32h4.29v.91h-5.28v-9.23Z"/><path class="d" d="M68.41,43.44h-2.58v-.92h6.17v.92h-2.6v8.31h-.99v-8.31h0Z"/><path class="d" d="M73.61,42.51h.99v4.13h4.46v-4.13h.99v9.23h-.99v-4.18h-4.46v4.18h-.99v-9.23Z"/></g></g></g></svg>