<?xml version="1.0" encoding="UTF-8"?><svg id="a" xmlns="http://www.w3.org/2000/svg" xmlns:xlink="http://www.w3.org/1999/xlink" viewBox="0 0 434.06 70.88"><defs><style>.c{fill:#008996;}.d{clip-path:url(#b);}.e{fill:none;}.f{fill:#231f20;}</style><clipPath id="b"><rect class="e" x="9.89" y="18.78" width="88.81" height="33.32"/></clipPath></defs><rect class="f" x="113.25" y="13.36" width=".51" height="44.06"/><g><path class="c" d="M135.32,35.33c-.16,.32-.37,.6-.65,.82s-.6,.38-.96,.5c-.37,.12-.76,.16-1.18,.16h-1.25v2.26h-1.66v-7.52h3.07c.45,0,.86,.06,1.2,.19,.36,.13,.66,.3,.9,.53s.44,.5,.57,.82,.2,.67,.2,1.05v.02c0,.45-.09,.83-.24,1.16h0Zm-1.44-1.11c0-.37-.12-.66-.36-.85-.24-.2-.57-.29-.98-.29h-1.27v2.29h1.31c.42,0,.74-.1,.96-.32s.35-.49,.35-.81v-.02h0Z"/><path class="c" d="M151.43,39.09l-1.61-2.41h-1.3v2.41h-1.66v-7.52h3.44c.89,0,1.59,.22,2.09,.66,.5,.44,.74,1.04,.74,1.83v.02c0,.61-.15,1.1-.44,1.48-.3,.38-.68,.66-1.17,.85l1.83,2.69h-1.92Zm.02-5c0-.36-.12-.63-.35-.8s-.54-.27-.95-.27h-1.64v2.15h1.68c.41,0,.72-.09,.94-.29s.32-.45,.32-.78v-.02h0Z"/><path class="c" d="M164.79,39.09v-7.52h1.66v7.52h-1.66Z"/><path class="c" d="M183.68,39.09l-3.64-4.77v4.77h-1.63v-7.52h1.53l3.52,4.62v-4.62h1.63v7.52h-1.41Z"/><path class="c" d="M200.39,33.1v5.99h-1.66v-5.99h-2.28v-1.53h6.23v1.53h-2.29Z"/><path class="c" d="M233.05,35.33c-.16,.32-.37,.6-.65,.82s-.6,.38-.96,.5-.76,.16-1.18,.16h-1.25v2.26h-1.66v-7.52h3.07c.45,0,.86,.06,1.2,.19,.36,.13,.66,.3,.9,.53s.44,.5,.57,.82,.2,.67,.2,1.05v.02c0,.45-.08,.83-.24,1.16h0Zm-1.44-1.11c0-.37-.12-.66-.36-.85-.24-.2-.57-.29-.98-.29h-1.27v2.29h1.31c.42,0,.74-.1,.96-.32,.23-.22,.35-.49,.35-.81v-.02h-.01Z"/><path class="c" d="M251.96,36.84c-.2,.46-.47,.88-.83,1.24s-.78,.64-1.26,.83c-.49,.21-1.02,.3-1.6,.3s-1.11-.1-1.6-.3c-.49-.21-.9-.47-1.26-.82s-.63-.75-.82-1.23-.29-.97-.29-1.51v-.02c0-.53,.1-1.04,.3-1.51,.2-.46,.47-.88,.83-1.24s.78-.64,1.26-.83c.49-.21,1.02-.3,1.61-.3s1.11,.1,1.6,.3c.49,.21,.9,.47,1.26,.82s.63,.75,.82,1.23c.2,.47,.29,.97,.29,1.51v.02c0,.53-.1,1.03-.31,1.51h0Zm-1.42-1.52c0-.32-.06-.63-.16-.92s-.27-.53-.47-.75c-.21-.22-.44-.38-.73-.51s-.58-.19-.92-.19-.64,.06-.92,.19c-.28,.13-.51,.29-.71,.51s-.35,.46-.46,.74-.16,.58-.16,.9v.02c0,.32,.06,.63,.16,.92s.27,.53,.47,.75c.21,.21,.44,.38,.72,.51,.28,.13,.58,.19,.92,.19s.64-.06,.92-.19c.28-.12,.52-.29,.72-.51s.35-.46,.46-.74,.16-.59,.16-.9v-.02h0Z"/><path class="c" d="M268.38,39.09l-1.61-2.41h-1.3v2.41h-1.66v-7.52h3.44c.89,0,1.59,.22,2.09,.66,.5,.44,.74,1.04,.74,1.83v.02c0,.61-.15,1.1-.44,1.48-.3,.38-.68,.66-1.16,.85l1.83,2.69h-1.93Zm.03-5c0-.36-.12-.63-.35-.8s-.54-.27-.96-.27h-1.64v2.15h1.68c.41,0,.72-.09,.94-.29s.32-.45,.32-.78v-.02h.01Z"/><path class="c" d="M285.08,33.1v5.99h-1.66v-5.99h-2.28v-1.53h6.23v1.53h-2.29Z"/><path class="c" d="M304.32,39.09l-.68-1.69h-3.17l-.68,1.69h-1.69l3.22-7.56h1.53l3.22,7.56h-1.75Zm-2.28-5.58l-1,2.43h1.99l-1-2.43h.01Z"/><path class="c" d="M317.29,39.09v-7.52h1.66v6.02h3.74v1.49h-5.4Z"/></g><g><g class="d"><g><rect class="f" x="23.56" y="45.86" width="74.63" height=".34"/><path class="c" d="M15.66,36.24c.52-.24,.81-.48,.88-1.06v-2.76c.03-.75,.61-1.14,1.29-1.14-.04-3.18-.32-7.59-.56-10.77-.02-.75-.39-1.19-.73-1.19-.3,0-.61,.38-.63,1.22-.28,5.31-.45,10.93-.48,15.43v.08l-.05,.05c-.52,.5-1.21,.37-1.48,.26-1.91-.97-2.77-4.61-3.04-6.03-.09-.52-.51-.56-.74-.46-.23,.11-.29,.51-.19,1.13,.33,1.99,.96,3.41,1.37,4.38,1.11,2.33,2.66,3.19,3.93,2.74-.07-.26-.14-.52-.14-.74,0-.51,.19-.91,.55-1.15"/><path class="c" d="M13.52,35.3c.4,.35,.65,.57,1.31,.51v-.98c-.64-.23-1.23-.74-1.81-2.53-.48-1.49-.52-2.63-.52-2.65-.03-.22-.11-.48-.36-.55-.14-.04-.32,.04-.42,.13-.12,.11-.11,.3-.11,.58,.16,3.42,1.67,5.28,1.91,5.48"/><path class="c" d="M17.42,37.83c.42-.55,.65-1.2,.73-2,.05-.65,.09-1.27,.09-1.96,0-.46-.02-.94-.06-1.49-.04-.3-.19-.47-.41-.49-.21-.01-.53,.13-.55,.49-.02,.36,0,2.03-.02,2.54-.03,.74-.2,1.21-.74,1.59-.43,.24-.67,.49-.71,.77-.04,.22,.05,.46,.24,.69,.39,.35,1.01,.33,1.45-.15"/><path class="c" d="M20.2,34.26c.32-.85,.34-1.61,.29-2.98-.03-.6,.02-1.24-.16-2.08-.09-.2-.25-.33-.44-.33-.17,0-.32,.11-.42,.32-.14,.35,0,1.2,.03,1.93,.04,.86,.03,1.61-.02,2.1-.06,.41-.18,.75-.58,1.25-.02,.48-.03,.96-.09,1.37,.64-.11,1.12-.8,1.41-1.58"/><path class="c" d="M21.91,29.62c-.16,0-.47-.08-.52,1.19-.09,2.35-.18,3.31-.78,4.41-.62,1.15-1.22,1.32-1.91,1.37-.17,.84-.33,1.07-.56,1.44,.84,.55,2.3,.14,3.16-1.24,.91-1.42,1.25-3.12,.98-6.79-.09-.29-.22-.37-.37-.38"/><path class="c" d="M17.43,38.64c-.56,.41-.98,.3-1.23,.2-.27-.11-.45-.15-.57-.07-.07,.05-.1,.14-.08,.28,.12,3.19,.26,5.55,.45,7.42,.04,.32,.39,.52,.7,.55,.15,.02,.64-.09,.79-.57,.07-1.8,.18-4.25,.45-7.51,0-.12-.02-.27-.1-.33-.08-.06-.23-.07-.41,.03"/><path class="f" d="M78.11,37.86c.55-.07,.93-.2,1.15-.41,.22-.2,.33-.66,.33-1.36v-5.84c0-.49-.05-.83-.14-1.03-.14-.29-.44-.43-.9-.43-.07,0-.14,0-.21,.01s-.16,.02-.27,.03v-.4c.31-.09,1.06-.33,2.23-.71l1.08-.36c.05,0,.09,.02,.1,.06,.01,.04,.02,.09,.02,.16v1.69c.7-.66,1.26-1.11,1.65-1.36,.6-.37,1.22-.56,1.86-.56,.52,0,.99,.15,1.42,.45,.83,.58,1.24,1.62,1.24,3.12v5.37c0,.55,.11,.95,.33,1.2,.22,.25,.59,.37,1.11,.38v.32h-4.91v-.32c.56-.08,.95-.23,1.17-.47,.22-.23,.33-.74,.33-1.52v-4.91c0-.66-.12-1.21-.37-1.64s-.69-.65-1.35-.65c-.45,0-.91,.15-1.37,.46-.26,.17-.59,.47-1.01,.87v6.44c0,.55,.12,.92,.37,1.11s.63,.29,1.16,.3v.32h-5.02v-.32h0Z"/><path class="f" d="M97.02,28.52c.81,.75,1.22,1.81,1.22,3.18h-7.3c.08,1.78,.48,3.07,1.21,3.88,.73,.81,1.59,1.22,2.59,1.22,.8,0,1.48-.21,2.04-.63,.55-.42,1.06-1.02,1.53-1.79l.4,.14c-.31,.98-.9,1.88-1.77,2.71-.86,.83-1.92,1.24-3.17,1.24-1.44,0-2.56-.55-3.34-1.63-.79-1.09-1.18-2.34-1.18-3.76,0-1.54,.46-2.87,1.37-3.99,.91-1.12,2.1-1.68,3.57-1.68,1.08,0,2.03,.37,2.84,1.12m-5.51,.88c-.25,.41-.42,.94-.53,1.56h4.85c-.08-.77-.23-1.34-.44-1.72-.38-.68-1-1.01-1.89-1.01s-1.54,.39-2,1.16"/><path class="f" d="M77.23,28.39c-.17-.81-.42-1.6-.75-2.36-.66-1.51-1.62-2.88-2.82-4-1.19-1.12-2.6-1.98-4.12-2.53s-3.13-.78-4.7-.7c-1.58,.08-3.12,.47-4.52,1.13-1.13,.53-2.17,1.24-3.07,2.08,.16,.03,.32,.07,.47,.11,.88-.66,1.85-1.18,2.87-1.55,1.37-.49,2.83-.69,4.26-.61,2.86,.14,5.55,1.47,7.4,3.49,.93,1.01,1.67,2.18,2.16,3.44,.49,1.26,.75,2.61,.74,3.96,.01,2.7-1.03,5.39-2.91,7.4-1.86,2.02-4.54,3.34-7.4,3.49-1.43,.08-2.88-.12-4.26-.61-.7-.25-1.37-.57-2.01-.96-.19,.07-.38,.13-.57,.19,.71,.55,1.48,1.04,2.31,1.43,1.4,.66,2.95,1.06,4.53,1.13,1.58,.08,3.19-.15,4.71-.7,1.51-.55,2.93-1.41,4.12-2.53,1.19-1.12,2.16-2.49,2.82-4,.66-1.51,.99-3.17,.99-4.82,0-.83-.09-1.65-.25-2.46"/><path class="c" d="M23.19,23.03h13.01l.12,3.91h-.55c-.27-1.23-.61-2.03-1.03-2.4-.42-.37-1.29-.55-2.62-.55h-1.28v11.77c0,.89,.14,1.43,.42,1.65s.88,.35,1.82,.42v.43h-6.71v-.43c.97-.08,1.58-.24,1.82-.48,.24-.25,.36-.87,.36-1.85v-11.5h-1.29c-1.27,0-2.14,.18-2.6,.55-.46,.37-.81,1.17-1.04,2.41h-.56l.14-3.91h0Z"/><path class="c" d="M37.05,37.82c.95-.1,1.56-.31,1.83-.65s.4-1.11,.4-2.32v-9.34c0-.83-.13-1.37-.39-1.62-.26-.25-.86-.4-1.78-.44v-.43h4.54l5.28,11.46,5.15-11.46h4.57v.43c-.86,.06-1.4,.21-1.65,.47-.25,.25-.37,.78-.37,1.6v10.22c0,.84,.12,1.37,.37,1.61,.25,.24,.8,.39,1.65,.47v.43h-6.44v-.43c.93-.08,1.51-.24,1.73-.5,.23-.26,.34-.87,.34-1.85v-10.32l-5.89,13.1h-.31l-5.79-12.56v9.17c0,1.26,.18,2.08,.55,2.46,.24,.25,.77,.42,1.61,.5v.43h-5.4v-.43h0Z"/><path class="c" d="M67.2,23.13c.88,.25,1.37,.37,1.47,.37,.22,0,.42-.06,.62-.18,.2-.12,.33-.31,.4-.56h.48l.21,5.17h-.53c-.31-1.02-.71-1.85-1.2-2.48-.94-1.18-2.21-1.78-3.81-1.78s-2.92,.64-3.95,1.91c-1.02,1.27-1.53,3.02-1.53,5.25,0,2.05,.54,3.69,1.61,4.91,1.07,1.22,2.44,1.84,4.08,1.84,1.19,0,2.29-.28,3.29-.85,.58-.32,1.21-.81,1.9-1.46l.43,.43c-.51,.64-1.14,1.21-1.9,1.69-1.29,.82-2.69,1.24-4.19,1.24-2.47,0-4.43-.79-5.88-2.37-1.34-1.46-2.01-3.28-2.01-5.47s.71-4.12,2.12-5.64c1.49-1.59,3.43-2.39,5.82-2.39,.83,0,1.69,.12,2.56,.37"/><path class="c" d="M47.06,48.76h2.79l.03,.83h-.12c-.06-.26-.13-.43-.22-.51-.09-.08-.28-.12-.56-.12h-.27v2.52c0,.19,.03,.31,.09,.35,.06,.05,.19,.08,.39,.09v.09h-1.43v-.09c.21-.02,.34-.05,.39-.1s.08-.18,.08-.4v-2.46h-.27c-.27,0-.46,.04-.56,.12s-.17,.25-.22,.51h-.12l.03-.83h0Z"/><path class="c" d="M50.03,51.93c.2-.02,.33-.07,.39-.14s.09-.24,.09-.5v-2c0-.18-.03-.3-.08-.35s-.18-.08-.38-.09v-.09h.97l1.13,2.45,1.1-2.45h.98v.09c-.18,.01-.3,.05-.35,.1-.05,.05-.08,.17-.08,.34v2.19c0,.18,.03,.3,.08,.35,.05,.05,.17,.08,.35,.1v.09h-1.38v-.09c.2-.02,.32-.05,.37-.11,.05-.05,.08-.19,.08-.39v-2.21l-1.26,2.8h-.07l-1.24-2.69v1.96c0,.27,.04,.44,.12,.53,.05,.05,.17,.09,.34,.11v.09h-1.16v-.09h0Z"/><path class="c" d="M56.44,48.78c.19,.05,.29,.08,.31,.08,.05,0,.09-.02,.13-.04,.04-.03,.07-.07,.09-.12h.1l.05,1.11h-.11c-.07-.22-.15-.4-.26-.53-.2-.25-.47-.38-.81-.38s-.63,.14-.84,.41c-.22,.27-.33,.65-.33,1.12,0,.44,.11,.79,.34,1.05,.23,.26,.52,.39,.87,.39,.26,0,.49-.06,.71-.18,.12-.07,.26-.17,.41-.31l.09,.09c-.11,.14-.24,.26-.41,.36-.27,.18-.58,.27-.9,.27-.53,0-.95-.17-1.26-.51-.29-.31-.43-.7-.43-1.17s.15-.88,.45-1.21c.32-.34,.73-.51,1.24-.51,.18,0,.36,.03,.55,.08"/></g></g><polygon class="c" points="60.91 48.76 60.91 50.22 59.34 50.22 59.34 48.76 58.99 48.76 58.99 52.02 59.34 52.02 59.34 50.54 60.91 50.54 60.91 52.02 61.26 52.02 61.26 48.76 60.91 48.76"/><polygon class="c" points="62.04 48.76 62.04 52.02 64.05 52.02 64.05 51.7 62.39 51.7 62.39 50.53 63.86 50.53 63.86 50.22 62.39 50.22 62.39 49.08 64.02 49.08 64.02 48.76 62.04 48.76"/><path class="c" d="M65.84,49.19l.61,1.65h-1.23l.62-1.65Zm-.17-.45l-1.24,3.27h.36l.32-.86h1.46l.32,.86h.37l-1.24-3.27h-.34Z"/><polygon class="c" points="67.81 48.76 67.81 52.02 69.67 52.02 69.67 51.7 68.16 51.7 68.16 48.76 67.81 48.76"/><polygon class="c" points="69.71 48.76 69.71 49.09 70.62 49.09 70.62 52.02 70.97 52.02 70.97 49.09 71.89 49.09 71.89 48.76 69.71 48.76"/><polygon class="c" points="74.38 48.76 74.38 50.22 72.81 50.22 72.81 48.76 72.46 48.76 72.46 52.02 72.81 52.02 72.81 50.54 74.38 50.54 74.38 52.02 74.73 52.02 74.73 48.76 74.38 48.76"/></g></svg>