<?xml version="1.0" encoding="UTF-8"?><svg id="a" xmlns="http://www.w3.org/2000/svg" xmlns:xlink="http://www.w3.org/1999/xlink" viewBox="0 0 780 250"><defs><style>.c{fill:#fff;}.d{fill:#008996;}.e{clip-path:url(#b);}.f{fill:none;}.g{fill:#231f20;}</style><clipPath id="b"><rect class="f" x="35.82" y="69.73" width="294.63" height="110.54"/></clipPath></defs><rect class="c" width="780" height="250"/><g><rect class="g" x="371.08" y="68.9" width="2.57" height="136.2"/><path class="g" d="M373.15,69.4V204.6h-1.57V69.4h1.57m1-1h-3.57V205.6h3.57V68.4h0Z"/></g><g><g><path class="d" d="M486.29,109.5c-.65,1.36-1.55,2.5-2.69,3.42s-2.47,1.61-4,2.06c-1.52,.46-3.16,.69-4.9,.69h-5.19v9.32h-6.84v-31.07h12.7c1.86,0,3.53,.26,4.99,.78s2.71,1.25,3.73,2.2c1.02,.95,1.8,2.08,2.35,3.4,.55,1.32,.82,2.77,.82,4.37v.09c0,1.8-.32,3.38-.97,4.74h0Zm-5.95-4.7c0-1.54-.5-2.71-1.49-3.51s-2.35-1.2-4.06-1.2h-5.28v9.5h5.42c1.72,0,3.05-.45,4-1.35s1.42-2.02,1.42-3.35v-.09h-.01Z"/><path class="d" d="M533.39,125l-6.66-9.94h-5.37v9.94h-6.84v-31.08h14.21c3.7,0,6.58,.9,8.64,2.71s3.08,4.32,3.08,7.55v.09c0,2.52-.61,4.57-1.84,6.15-1.23,1.58-2.83,2.75-4.82,3.48l7.59,11.1h-7.99Zm.13-20.47c0-1.48-.47-2.59-1.42-3.33s-2.26-1.11-3.95-1.11h-6.79v8.92h6.92c1.69,0,2.98-.4,3.88-1.2,.9-.8,1.35-1.86,1.35-3.2v-.08h.01Z"/><path class="d" d="M569.12,125v-31.08h6.84v31.07h-6.84Z"/><path class="d" d="M627.72,125l-15.05-19.75v19.75h-6.75v-31.08h6.3l14.56,19.13v-19.13h6.75v31.07h-5.81Z"/><path class="d" d="M677.26,100.23v24.77h-6.84v-24.77h-9.46v-6.3h25.75v6.3h-9.45Z"/></g><g><path class="d" d="M450.04,164.43c-.65,1.36-1.55,2.5-2.69,3.42s-2.47,1.61-3.99,2.06c-1.52,.46-3.16,.69-4.91,.69h-5.19v9.32h-6.84v-31.07h12.7c1.86,0,3.53,.26,4.99,.78s2.71,1.25,3.73,2.2c1.02,.95,1.81,2.08,2.35,3.4,.55,1.32,.82,2.78,.82,4.37v.09c0,1.8-.32,3.38-.97,4.74h0Zm-5.95-4.7c0-1.54-.5-2.71-1.49-3.51-.99-.8-2.35-1.2-4.06-1.2h-5.28v9.5h5.42c1.72,0,3.05-.45,4-1.35,.95-.9,1.42-2.02,1.42-3.35v-.09h-.01Z"/><path class="d" d="M508.68,170.63c-.83,1.94-1.97,3.64-3.44,5.11-1.47,1.46-3.21,2.62-5.24,3.46-2.03,.84-4.24,1.26-6.64,1.26s-4.6-.42-6.61-1.26c-2.01-.84-3.75-1.98-5.22-3.42-1.46-1.44-2.61-3.12-3.42-5.06-.81-1.94-1.22-4.02-1.22-6.24v-.09c0-2.22,.42-4.3,1.24-6.24,.83-1.94,1.97-3.64,3.44-5.1,1.46-1.46,3.21-2.62,5.24-3.46,2.03-.84,4.24-1.27,6.64-1.27s4.6,.42,6.61,1.27c2.01,.84,3.75,1.98,5.22,3.42s2.6,3.12,3.42,5.06c.81,1.94,1.22,4.02,1.22,6.24v.09c.01,2.21-.41,4.29-1.24,6.23h0Zm-5.9-6.24c0-1.33-.23-2.59-.69-3.77-.46-1.18-1.11-2.22-1.95-3.11s-1.84-1.59-3-2.11c-1.15-.52-2.41-.78-3.77-.78s-2.66,.25-3.79,.75c-1.14,.5-2.12,1.2-2.93,2.09s-1.45,1.92-1.91,3.09-.69,2.42-.69,3.75v.09c0,1.33,.23,2.59,.69,3.77,.46,1.18,1.11,2.22,1.95,3.11s1.83,1.59,2.97,2.11,2.4,.78,3.8,.78,2.62-.25,3.77-.75,2.14-1.2,2.95-2.09,1.45-1.92,1.91-3.09,.69-2.42,.69-3.75v-.09h0Z"/><path class="d" d="M557.07,179.93l-6.66-9.94h-5.37v9.94h-6.84v-31.07h14.21c3.7,0,6.58,.9,8.63,2.71,2.06,1.81,3.09,4.32,3.09,7.55v.07c0,2.52-.61,4.57-1.84,6.15-1.23,1.58-2.83,2.75-4.82,3.48l7.59,11.1h-7.99Zm.14-20.43c0-1.48-.47-2.59-1.42-3.33s-2.26-1.11-3.95-1.11h-6.79v8.92h6.92c1.69,0,2.98-.4,3.89-1.2,.9-.8,1.35-1.86,1.35-3.2v-.08Z"/><path class="d" d="M606.57,155.15v24.77h-6.84v-24.77h-9.45v-6.3h25.75v6.3h-9.46Z"/><path class="d" d="M666.59,179.93l-2.84-6.97h-13.14l-2.84,6.97h-6.97l13.32-31.3h6.3l13.32,31.3h-7.15Zm-9.41-23.09l-4.13,10.08h8.26l-4.13-10.08Z"/><path class="d" d="M700.73,179.93v-31.07h6.84v24.9h15.49v6.17h-22.33Z"/></g></g><g><g class="e"><g><rect class="g" x="81.18" y="159.57" width="247.59" height="1.14"/><path class="d" d="M54.96,127.64c1.74-.79,2.7-1.6,2.91-3.53l.02-9.16c.09-2.49,2-3.78,4.26-3.78-.12-10.56-1.07-25.18-1.86-35.72-.08-2.49-1.29-3.96-2.42-3.95-1,0-2.04,1.26-2.08,4.06-.92,17.61-1.49,36.27-1.58,51.2v.25l-.18,.17c-1.72,1.66-4,1.24-4.91,.86-6.34-3.22-9.2-15.28-10.08-20.01-.31-1.71-1.7-1.86-2.44-1.51-.76,.36-.96,1.7-.62,3.76,1.09,6.6,3.18,11.31,4.54,14.53,3.69,7.73,8.83,10.57,13.05,9.09-.24-.87-.45-1.72-.45-2.46,0-1.69,.62-3.02,1.84-3.8"/><path class="d" d="M47.86,124.52c1.33,1.15,2.16,1.9,4.34,1.7v-3.24c-2.12-.77-4.09-2.45-5.99-8.39-1.58-4.94-1.73-8.74-1.74-8.79-.09-.73-.38-1.59-1.21-1.83-.48-.14-1.07,.14-1.39,.42-.4,.36-.35,1.01-.35,1.94,.53,11.34,5.55,17.51,6.35,18.19"/><path class="d" d="M60.79,132.94c1.38-1.82,2.17-3.99,2.41-6.62,.16-2.14,.3-4.2,.3-6.51,0-1.51-.06-3.13-.21-4.95-.12-.98-.62-1.57-1.36-1.61-.71-.04-1.77,.42-1.84,1.63-.08,1.21,.02,6.75-.06,8.44-.11,2.47-.65,4-2.46,5.26-1.41,.79-2.21,1.64-2.37,2.54-.13,.72,.15,1.51,.79,2.3,1.29,1.16,3.36,1.11,4.81-.49"/><path class="d" d="M70.03,121.08c1.05-2.82,1.14-5.35,.95-9.87-.09-1.98,.05-4.12-.54-6.89-.29-.67-.84-1.1-1.46-1.11-.57-.01-1.07,.38-1.4,1.05-.48,1.16-.02,3.99,.09,6.39,.14,2.86,.09,5.35-.08,6.96-.2,1.37-.59,2.5-1.94,4.16-.06,1.58-.09,3.18-.31,4.55,2.11-.36,3.73-2.67,4.69-5.23"/><path class="d" d="M75.68,105.7c-.53-.03-1.57-.28-1.73,3.94-.31,7.81-.61,10.98-2.58,14.62-2.05,3.81-4.06,4.38-6.32,4.55-.58,2.78-1.11,3.54-1.87,4.79,2.78,1.84,7.64,.48,10.49-4.1,3.02-4.7,4.15-10.34,3.25-22.52-.29-.96-.74-1.24-1.24-1.27"/><path class="d" d="M60.83,135.63c-1.86,1.35-3.25,.99-4.08,.65-.9-.37-1.49-.51-1.89-.22-.23,.17-.33,.46-.28,.93,.4,10.58,.87,18.41,1.49,24.62,.12,1.05,1.29,1.73,2.33,1.84,.49,.05,2.12-.3,2.63-1.89,.23-5.97,.59-14.1,1.49-24.93,0-.39-.05-.9-.33-1.1-.25-.19-.76-.22-1.37,.1"/><path class="g" d="M262.13,133.04c1.81-.23,3.07-.68,3.8-1.35,.72-.67,1.08-2.18,1.08-4.52v-19.39c0-1.61-.15-2.75-.46-3.41-.48-.96-1.47-1.44-2.98-1.44-.23,0-.46,.02-.7,.04s-.54,.06-.9,.11v-1.33c1.04-.31,3.51-1.1,7.4-2.37l3.59-1.19c.18,0,.29,.07,.32,.2,.04,.12,.06,.3,.06,.53v5.61c2.33-2.18,4.17-3.69,5.48-4.5,1.98-1.24,4.04-1.87,6.17-1.87,1.73,0,3.3,.5,4.72,1.49,2.74,1.93,4.11,5.38,4.11,10.34v17.82c0,1.83,.37,3.16,1.1,3.97,.73,.82,1.96,1.23,3.67,1.26v1.07h-16.29v-1.07c1.86-.25,3.15-.77,3.89-1.55,.74-.77,1.11-2.46,1.11-5.05v-16.29c0-2.19-.41-4-1.22-5.44s-2.3-2.15-4.48-2.15c-1.49,0-3.01,.51-4.56,1.53-.86,.58-1.97,1.55-3.34,2.9v21.37c0,1.83,.41,3.06,1.22,3.68s2.1,.96,3.85,1.01v1.07h-16.67v-1.07h.03Z"/><path class="g" d="M324.88,102.04c2.7,2.48,4.04,6,4.04,10.55h-24.23c.25,5.89,1.59,10.18,4,12.87,2.42,2.69,5.28,4.04,8.59,4.04,2.67,0,4.92-.7,6.76-2.1,1.83-1.39,3.52-3.37,5.08-5.94l1.33,.46c-1.04,3.24-3,6.23-5.86,8.98-2.86,2.75-6.37,4.12-10.51,4.12-4.78,0-8.48-1.81-11.08-5.42-2.61-3.61-3.91-7.77-3.91-12.48,0-5.11,1.52-9.53,4.54-13.24,3.03-3.71,6.97-5.57,11.83-5.57,3.59,0,6.73,1.24,9.43,3.72m-18.28,2.92c-.82,1.37-1.4,3.11-1.76,5.19h16.1c-.28-2.54-.76-4.44-1.45-5.69-1.25-2.24-3.33-3.36-6.26-3.36s-5.11,1.29-6.64,3.85"/><path class="g" d="M259.22,101.6c-.55-2.69-1.4-5.31-2.48-7.83-2.18-5.02-5.39-9.57-9.34-13.27-3.95-3.71-8.64-6.58-13.67-8.4s-10.38-2.58-15.6-2.32c-5.23,.26-10.36,1.55-15.01,3.75-3.76,1.77-7.19,4.12-10.2,6.9,.53,.11,1.05,.23,1.57,.36,2.91-2.19,6.13-3.93,9.52-5.14,4.56-1.63,9.39-2.29,14.13-2.03,9.5,.48,18.4,4.88,24.56,11.58,3.1,3.34,5.54,7.24,7.17,11.42,1.64,4.18,2.49,8.65,2.47,13.14,.04,8.97-3.43,17.88-9.65,24.55-6.17,6.69-15.05,11.08-24.55,11.58-4.73,.26-9.57-.4-14.13-2.03-2.31-.82-4.55-1.9-6.66-3.19-.62,.23-1.25,.43-1.88,.62,2.36,1.84,4.92,3.44,7.65,4.73,4.65,2.2,9.78,3.5,15.02,3.76,5.23,.26,10.58-.5,15.61-2.32,5.02-1.82,9.72-4.69,13.67-8.4,3.96-3.7,7.17-8.26,9.34-13.28,2.18-5.02,3.29-10.52,3.3-16-.01-2.74-.29-5.48-.84-8.17"/><path class="d" d="M79.95,83.83h43.15l.41,12.97h-1.83c-.9-4.07-2.03-6.73-3.41-7.95-1.38-1.23-4.28-1.84-8.7-1.84h-4.25v39.05c0,2.94,.46,4.76,1.38,5.46s2.93,1.17,6.04,1.39v1.42h-22.25v-1.42c3.23-.25,5.24-.78,6.04-1.6,.79-.82,1.19-2.87,1.19-6.15v-38.15h-4.28c-4.22,0-7.1,.61-8.62,1.82-1.53,1.22-2.68,3.88-3.45,7.98h-1.86l.45-12.97h-.01Z"/><path class="d" d="M125.93,132.9c3.16-.32,5.18-1.04,6.07-2.14s1.34-3.67,1.34-7.69v-30.98c0-2.75-.43-4.55-1.3-5.38-.87-.83-2.84-1.32-5.92-1.47v-1.42h15.05l17.53,38.01,17.09-38.01h15.17v1.42c-2.84,.2-4.66,.71-5.48,1.55-.82,.83-1.23,2.6-1.23,5.3v33.92c0,2.78,.41,4.56,1.23,5.34,.82,.78,2.64,1.3,5.48,1.55v1.42h-21.35v-1.42c3.08-.25,5-.8,5.75-1.66,.76-.86,1.14-2.9,1.14-6.13v-34.25l-19.54,43.45h-1.04l-19.2-41.66v30.42c0,4.17,.6,6.89,1.82,8.15,.8,.82,2.57,1.38,5.33,1.67v1.42h-17.92v-1.42h-.02Z"/><path class="d" d="M225.93,84.16c2.91,.82,4.53,1.23,4.88,1.23,.72,0,1.4-.2,2.05-.6,.65-.4,1.09-1.02,1.34-1.86h1.6l.71,17.14h-1.75c-1.02-3.4-2.35-6.15-3.99-8.23-3.13-3.93-7.34-5.89-12.63-5.89s-9.7,2.11-13.09,6.34c-3.39,4.22-5.09,10.03-5.09,17.43,0,6.81,1.78,12.24,5.35,16.3,3.56,4.06,8.08,6.09,13.54,6.09,3.95,0,7.59-.94,10.92-2.83,1.91-1.07,4.01-2.68,6.3-4.84l1.41,1.42c-1.69,2.13-3.79,4.01-6.29,5.62-4.28,2.73-8.91,4.1-13.9,4.1-8.2,0-14.71-2.62-19.52-7.86-4.45-4.84-6.67-10.89-6.67-18.15s2.35-13.66,7.04-18.7c4.94-5.29,11.37-7.93,19.3-7.93,2.76,0,5.59,.41,8.49,1.23"/><path class="d" d="M159.14,169.19h9.24l.09,2.77h-.39c-.19-.87-.43-1.44-.73-1.7-.29-.26-.92-.4-1.86-.4h-.91v8.36c0,.63,.1,1.02,.29,1.17,.2,.15,.63,.25,1.29,.29v.31h-4.76v-.31c.69-.05,1.12-.17,1.29-.34s.25-.61,.25-1.32v-8.17h-.91c-.9,0-1.52,.13-1.85,.39s-.57,.83-.74,1.7h-.4l.09-2.77v.02Z"/><path class="d" d="M168.98,179.69c.68-.07,1.11-.22,1.3-.46s.29-.79,.29-1.65v-6.63c0-.59-.09-.98-.28-1.15s-.61-.28-1.27-.31v-.3h3.22l3.75,8.14,3.66-8.14h3.24v.3c-.6,.04-.99,.15-1.17,.33-.17,.18-.26,.56-.26,1.14v7.26c0,.59,.09,.98,.26,1.15,.18,.17,.57,.28,1.17,.33v.3h-4.57v-.3c.66-.05,1.07-.17,1.23-.36,.16-.18,.25-.62,.25-1.31v-7.33l-4.18,9.3h-.22l-4.11-8.92v6.51c0,.9,.13,1.47,.39,1.75,.17,.18,.55,.29,1.14,.36v.3h-3.84v-.3h0Z"/><path class="d" d="M190.25,169.26c.62,.17,.97,.26,1.04,.26,.15,0,.3-.05,.44-.13,.14-.09,.23-.22,.29-.4h.34l.15,3.67h-.37c-.22-.73-.5-1.32-.85-1.76-.67-.84-1.57-1.26-2.7-1.26s-2.08,.45-2.8,1.36c-.73,.9-1.09,2.15-1.09,3.73,0,1.46,.38,2.62,1.14,3.49,.76,.87,1.73,1.3,2.9,1.3,.85,0,1.63-.2,2.34-.6,.41-.23,.86-.57,1.35-1.04l.3,.31c-.36,.46-.81,.86-1.35,1.2-.91,.59-1.91,.88-2.97,.88-1.76,0-3.15-.56-4.18-1.68-.95-1.04-1.43-2.33-1.43-3.88s.5-2.93,1.5-4c1.06-1.13,2.43-1.7,4.13-1.7,.59,0,1.19,.09,1.82,.26"/></g></g><polygon class="d" points="205.06 169.19 205.06 174.03 199.85 174.03 199.85 169.19 198.69 169.19 198.69 179.99 199.85 179.99 199.85 175.1 205.06 175.1 205.06 179.99 206.22 179.99 206.22 169.19 205.06 169.19"/><polygon class="d" points="208.81 169.19 208.81 179.99 215.48 179.99 215.48 178.93 209.97 178.93 209.97 175.07 214.85 175.07 214.85 174.03 209.97 174.03 209.97 170.26 215.4 170.26 215.4 169.19 208.81 169.19"/><path class="d" d="M221.44,170.63l2.04,5.48h-4.09l2.05-5.48Zm-.56-1.5l-4.12,10.86h1.19l1.05-2.84h4.86l1.05,2.84h1.23l-4.12-10.86h-1.14Z"/><polygon class="d" points="227.95 169.19 227.95 179.99 234.12 179.99 234.12 178.93 229.11 178.93 229.11 169.19 227.95 169.19"/><polygon class="d" points="234.28 169.19 234.28 170.27 237.3 170.27 237.3 179.99 238.46 179.99 238.46 170.27 241.5 170.27 241.5 169.19 234.28 169.19"/><polygon class="d" points="249.76 169.19 249.76 174.03 244.54 174.03 244.54 169.19 243.38 169.19 243.38 179.99 244.54 179.99 244.54 175.1 249.76 175.1 249.76 179.99 250.91 179.99 250.91 169.19 249.76 169.19"/></g></svg>