<?xml version="1.0" encoding="UTF-8"?><svg id="a" xmlns="http://www.w3.org/2000/svg" viewBox="0 0 434.06 70.88"><defs><style>.c,.d{fill:#256092;}.e{fill:#f68c2c;}.f{fill:none;}.d{fill-rule:evenodd;}</style></defs><g id="b"><polygon class="f" points="15.12 70.93 15.12 0 868.12 0 868.12 70.93 15.12 70.93"/></g><rect class="e" x="165.71" y="13.36" width=".51" height="44.06"/><g><path class="c" d="M187.78,35.33c-.16,.32-.37,.6-.65,.82s-.6,.38-.96,.5c-.37,.12-.76,.16-1.18,.16h-1.25v2.26h-1.66v-7.52h3.07c.45,0,.86,.06,1.2,.19,.36,.13,.66,.3,.9,.53s.44,.5,.57,.82,.2,.67,.2,1.05v.02c0,.45-.09,.83-.24,1.16h0Zm-1.44-1.13c0-.37-.12-.66-.36-.85-.24-.2-.57-.29-.98-.29h-1.27v2.29h1.31c.42,0,.74-.1,.96-.32s.35-.49,.35-.81v-.02h-.01Z"/><path class="c" d="M203.89,39.09l-1.61-2.41h-1.3v2.41h-1.66v-7.52h3.44c.89,0,1.59,.22,2.09,.66,.5,.44,.74,1.04,.74,1.83v.02c0,.61-.15,1.1-.44,1.48-.3,.38-.68,.66-1.17,.85l1.83,2.69h-1.92Zm.02-4.98c0-.36-.12-.63-.35-.8s-.54-.27-.95-.27h-1.64v2.15h1.68c.41,0,.72-.09,.94-.29s.32-.45,.32-.78v-.02h0Z"/><path class="c" d="M217.25,39.09v-7.52h1.66v7.52h-1.66Z"/><path class="c" d="M236.14,39.09l-3.64-4.77v4.77h-1.63v-7.52h1.53l3.52,4.62v-4.62h1.63v7.52h-1.41Z"/><path class="c" d="M252.85,33.1v5.99h-1.66v-5.99h-2.28v-1.53h6.23v1.53h-2.29Z"/><path class="c" d="M285.51,35.33c-.16,.32-.37,.6-.65,.82s-.6,.38-.96,.5-.76,.16-1.18,.16h-1.25v2.26h-1.66v-7.52h3.07c.45,0,.86,.06,1.2,.19,.36,.13,.66,.3,.9,.53s.44,.5,.57,.82,.2,.67,.2,1.05v.02c0,.45-.08,.83-.24,1.16h0Zm-1.44-1.13c0-.37-.12-.66-.36-.85-.24-.2-.57-.29-.98-.29h-1.27v2.29h1.31c.42,0,.74-.1,.96-.32,.23-.22,.35-.49,.35-.81v-.02h-.01Z"/><path class="c" d="M304.42,36.84c-.2,.46-.47,.88-.83,1.24s-.78,.64-1.26,.83c-.49,.21-1.02,.3-1.6,.3s-1.11-.1-1.6-.3c-.49-.21-.9-.47-1.26-.82s-.63-.75-.82-1.23-.29-.97-.29-1.51v-.02c0-.53,.1-1.04,.3-1.51,.2-.46,.47-.88,.83-1.24s.78-.64,1.26-.83c.49-.21,1.02-.3,1.61-.3s1.11,.1,1.6,.3c.49,.21,.9,.47,1.26,.82s.63,.75,.82,1.23c.2,.47,.29,.97,.29,1.51v.02c0,.53-.1,1.03-.31,1.51h0Zm-1.42-1.52c0-.32-.06-.63-.16-.92s-.27-.53-.47-.75c-.21-.22-.44-.38-.73-.51s-.58-.19-.92-.19-.64,.06-.92,.19c-.28,.13-.51,.29-.71,.51s-.35,.46-.46,.74-.16,.58-.16,.9v.02c0,.32,.06,.63,.16,.92s.27,.53,.47,.75c.21,.21,.44,.38,.72,.51,.28,.13,.58,.19,.92,.19s.64-.06,.92-.19c.28-.12,.52-.29,.72-.51s.35-.46,.46-.74,.16-.59,.16-.9v-.02h0Z"/><path class="c" d="M320.84,39.09l-1.61-2.41h-1.3v2.41h-1.66v-7.52h3.44c.89,0,1.59,.22,2.09,.66,.5,.44,.74,1.04,.74,1.83v.02c0,.61-.15,1.1-.44,1.48-.3,.38-.68,.66-1.16,.85l1.83,2.69h-1.93Zm.03-4.98c0-.36-.12-.63-.35-.8s-.54-.27-.96-.27h-1.64v2.15h1.68c.41,0,.72-.09,.94-.29s.32-.45,.32-.78v-.02h.01Z"/><path class="c" d="M337.54,33.1v5.99h-1.66v-5.99h-2.28v-1.53h6.23v1.53h-2.29Z"/><path class="c" d="M356.78,39.09l-.68-1.69h-3.17l-.68,1.69h-1.69l3.22-7.56h1.53l3.22,7.56h-1.75Zm-2.28-5.58l-1,2.43h1.99l-1-2.43h.01Z"/><path class="c" d="M369.75,39.09v-7.52h1.66v6.02h3.74v1.49h-5.4Z"/></g><g><path class="c" d="M54.87,25.66h-2.88v-1.51c0-.67-.1-1.08-1.01-1.08-.82,0-.91,.51-.91,1.1v6.01c0,.77,.1,1.2,.98,1.2,.94,0,.94-.6,.94-1.2v-1.51h2.95v1.08c0,2.3-.53,3.68-3.96,3.68-3.22,0-3.82-1.22-3.82-3.12v-5.96c0-.86,.08-1.58,.6-2.21,.91-1.11,2.43-1.18,3.29-1.18,1.04,0,2.11,.15,2.9,.81,.87,.7,.92,1.69,.92,2.45v1.44Z"/><path class="c" d="M62.89,31.86c0,.84,.09,1.04,.39,1.42h-3.12v-.77c-.58,.51-1.18,1.03-2.28,1.03-2.18,0-2.18-1.76-2.18-2.36,0-2.16,.86-2.52,2.16-3.03,1.39-.51,1.54-.58,2.3-.94,0-.81,0-.82-.05-.98-.17-.45-.58-.45-.75-.45-.77,0-.77,.51-.77,1.42h-2.62c-.03-1.27-.07-3.27,3.32-3.27,.75,0,1.73,.1,2.43,.46,1.16,.62,1.16,1.73,1.16,2.33v5.14Zm-2.72-3.15c-.41,.22-1.05,.55-1.2,.65-.39,.29-.45,.62-.45,1.39,0,.55,0,1.05,.69,1.05,.89,0,.96-.58,.96-1.18v-1.9Z"/><path class="c" d="M66.9,25.52c.51-1.03,.96-1.42,2.5-1.54v2.36c-1.18,0-1.23,0-1.47,.05-.99,.21-1.03,1.06-1.03,1.66v5.22h-2.74v-9.1h2.74v1.34Z"/><path class="c" d="M69.64,27.16c0-1.15,0-3.22,3.46-3.22s3.49,2.09,3.49,3.02v3.46c0,.99,0,3.14-3.46,3.14-.98,0-1.87-.19-2.54-.69-.91-.65-.96-1.53-.96-2.57v-3.14Zm4.27-.33c0-.38,0-1.03-.79-1.03s-.79,.75-.79,1.08v3.84c0,.33,0,.89,.79,.89s.79-.72,.79-1.03v-3.75Z"/><path class="c" d="M84.63,33.28h-2.69v-6.48c0-.26,0-.99-.79-.99s-.82,.7-.82,.94v6.53h-2.74v-9.1h2.74v.86c.31-.38,.91-1.1,2.04-1.1,.96,0,1.52,.46,1.82,.89,.43,.6,.45,1.23,.45,1.87v6.58Z"/><path class="c" d="M90.05,21.19h2.72v12.09h-2.72v-.98c-.29,.45-.81,1.23-2.19,1.23-2.19,0-2.23-1.99-2.23-3.07v-3.65c0-.77,0-2.9,2.14-2.9,1.41,0,1.95,.79,2.28,1.23v-3.98Zm0,5.59c0-.58-.24-.96-.89-.96-.82,0-.82,.67-.82,.98v3.72c0,.41,0,1.03,.89,1.03,.82,0,.82-.67,.82-1.1v-3.67Z"/><path class="c" d="M100.66,29.34h-4.15v1.49c0,.27,0,.87,.75,.87,.27,0,.53-.05,.72-.27,.15-.21,.15-.31,.15-1.16h2.62c0,.86,0,1.54-.43,2.12-.81,1.15-2.55,1.15-3.1,1.15-.77,0-2.06-.15-2.79-.92-.53-.56-.69-1.27-.69-2.67v-2.47c0-2.64,.94-3.55,3.48-3.55,3.43,0,3.43,1.88,3.43,3.12v2.3Zm-4.15-1.73h1.58v-.94c0-.34,0-.99-.75-.99-.82,0-.82,.69-.82,.99v.94Z"/><rect class="c" x="101.67" y="21.19" width="2.74" height="12.09"/><path class="c" d="M111.95,29.34h-4.15v1.49c0,.27,0,.87,.75,.87,.27,0,.53-.05,.72-.27,.15-.21,.15-.31,.15-1.16h2.62c0,.86,0,1.54-.43,2.12-.81,1.15-2.55,1.15-3.1,1.15-.77,0-2.06-.15-2.79-.92-.53-.56-.69-1.27-.69-2.67v-2.47c0-2.64,.94-3.55,3.48-3.55,3.43,0,3.43,1.88,3.43,3.12v2.3Zm-4.15-1.73h1.58v-.94c0-.34,0-.99-.75-.99-.82,0-.82,.69-.82,.99v.94Z"/><path class="c" d="M116.44,21.19v3h1.22v1.7h-1.22v4.73c0,.82,.33,.86,1.22,.86v1.82h-1.54c-2,0-2.38-.86-2.38-2.24v-5.16h-1.22v-1.7h1.22v-3h2.71Z"/><polygon class="e" points="47.32 37.59 50.25 37.59 50.25 42.47 52.29 42.47 52.29 37.59 55.22 37.59 55.22 49.68 52.29 49.68 52.29 44.61 50.25 44.61 50.25 49.68 47.32 49.68 47.32 37.59"/><path class="e" d="M63.18,45.74h-4.15v1.49c0,.27,0,.87,.75,.87,.27,0,.53-.05,.72-.27,.15-.21,.15-.31,.15-1.16h2.62c0,.86,0,1.54-.43,2.12-.8,1.15-2.55,1.15-3.1,1.15-.77,0-2.06-.15-2.79-.92-.53-.56-.69-1.27-.69-2.67v-2.47c0-2.64,.94-3.55,3.48-3.55,3.43,0,3.43,1.88,3.43,3.12v2.3Zm-4.15-1.73h1.58v-.94c0-.34,0-.99-.75-.99-.82,0-.82,.69-.82,.99v.94Z"/><path class="e" d="M71.26,48.26c0,.84,.09,1.04,.4,1.42h-3.12v-.77c-.58,.51-1.18,1.03-2.28,1.03-2.18,0-2.18-1.76-2.18-2.36,0-2.16,.86-2.52,2.16-3.03,1.39-.51,1.54-.58,2.3-.94,0-.81,0-.82-.05-.98-.17-.45-.58-.45-.75-.45-.77,0-.77,.51-.77,1.42h-2.62c-.03-1.27-.07-3.27,3.32-3.27,.75,0,1.73,.1,2.43,.46,1.16,.62,1.16,1.73,1.16,2.33v5.14Zm-2.72-3.15c-.41,.22-1.05,.55-1.2,.65-.39,.29-.45,.62-.45,1.39,0,.55,0,1.05,.69,1.05,.89,0,.96-.58,.96-1.18v-1.9Z"/><rect class="e" x="72.52" y="37.59" width="2.74" height="12.09"/><path class="e" d="M79.81,37.59v3h1.22v1.7h-1.22v4.73c0,.82,.33,.86,1.22,.86v1.82h-1.54c-2,0-2.38-.86-2.38-2.24v-5.16h-1.22v-1.7h1.22v-3h2.71Z"/><path class="e" d="M84.46,37.59v3.82c.34-.46,.8-1.1,1.97-1.1,2.35,0,2.35,1.99,2.35,2.79v6.58h-2.72v-6.29c0-.33,0-1.1-.77-1.1-.82,0-.82,.79-.82,1.03v6.36h-2.69v-12.09h2.69Z"/><polygon class="e" points="100.07 37.59 102.57 37.59 102.57 49.68 99.62 49.68 97.1 41.8 97.1 49.68 94.63 49.68 94.63 37.59 97.53 37.59 100.07 45.44 100.07 37.59"/><path class="e" d="M110.53,45.74h-4.15v1.49c0,.27,0,.87,.75,.87,.27,0,.53-.05,.72-.27,.15-.21,.15-.31,.15-1.16h2.62c0,.86,0,1.54-.43,2.12-.81,1.15-2.55,1.15-3.1,1.15-.77,0-2.06-.15-2.79-.92-.53-.56-.69-1.27-.69-2.67v-2.47c0-2.64,.94-3.55,3.48-3.55,3.43,0,3.43,1.88,3.43,3.12v2.3Zm-4.15-1.73h1.58v-.94c0-.34,0-.99-.75-.99-.82,0-.82,.69-.82,.99v.94Z"/><path class="e" d="M115.02,37.59v3h1.22v1.7h-1.22v4.73c0,.82,.33,.86,1.22,.86v1.82h-1.54c-2,0-2.38-.86-2.38-2.24v-5.16h-1.22v-1.7h1.22v-3h2.71Z"/><polygon class="e" points="128.81 40.59 126.89 49.68 124.08 49.68 122.71 43.38 121.34 49.68 118.52 49.68 116.61 40.59 119.39 40.59 120.07 47.2 121.21 40.59 124.26 40.59 125.35 47.2 126.07 40.59 128.81 40.59"/><path class="e" d="M129.16,43.57c0-1.15,0-3.22,3.46-3.22s3.49,2.09,3.49,3.02v3.46c0,.99,0,3.14-3.46,3.14-.98,0-1.87-.19-2.54-.69-.91-.65-.96-1.53-.96-2.57v-3.13Zm4.27-.33c0-.38,0-1.03-.79-1.03s-.79,.75-.79,1.08v3.84c0,.33,0,.89,.79,.89s.79-.72,.79-1.03v-3.75Z"/><path class="e" d="M139.86,41.92c.51-1.03,.96-1.42,2.5-1.54v2.36c-1.18,0-1.23,0-1.47,.05-.99,.21-1.03,1.06-1.03,1.66v5.22h-2.74v-9.1h2.74v1.34Z"/><polygon class="e" points="145.72 37.59 145.72 44.03 147.62 40.59 150.67 40.59 148.22 44.49 150.84 49.68 147.81 49.68 145.72 45.04 145.72 49.68 143.01 49.68 143.01 37.59 145.72 37.59"/><path class="d" d="M34.92,25.28s-3.31,1.75-2.79,9.98c1.65-1,2.76-1.5,4.96-2.04l-2.17-7.94Zm-5.93,17.3s8.67-3.49,9.83-8.57c-13.15,2.24-13.67,13.38-14.11,15.67l10.78-5.85c.37-.2,.73-.45,1.07-.74,1.64-1.42,2.3-3.59,1.79-5.29l-.1-.35c-3.11,3.85-9.24,5.12-9.27,5.13"/><path class="d" d="M11.29,33.21c2.2,.54,3.3,1.04,4.96,2.04,.52-8.23-2.79-9.98-2.79-9.98l-2.17,7.94Zm8.1,9.37s-6.16-1.28-9.27-5.13l-.1,.35c-.5,1.71,.15,3.87,1.79,5.29,.34,.29,.7,.54,1.07,.74l10.78,5.85c-.45-2.28-.96-13.42-14.11-15.67,1.16,5.07,9.8,8.55,9.83,8.57"/><path class="e" d="M24.19,20.94s-13.63,10.65-2.41,18.43c-3.81-4.23,2.41-9.45,2.41-9.45,0,0,6.22,5.21,2.41,9.45,11.21-7.78-2.41-18.42-2.41-18.42"/></g></svg>