<?xml version="1.0" encoding="UTF-8"?><svg id="a" xmlns="http://www.w3.org/2000/svg" viewBox="0 0 780 250"><defs><style>.b,.c{fill:#fff;}.d{fill:#256092;}.c{fill-rule:evenodd;}.e{fill:#f68c2c;}</style></defs><rect class="d" width="780" height="250"/><g><rect class="e" x="399.5" y="56.71" width="2.57" height="136.2"/><path class="e" d="M401.57,57.21V192.41h-1.57V57.21h1.57m1-1h-3.57V193.41h3.57V56.21h0Z"/></g><g><g><path class="b" d="M505.71,97.31c-.65,1.36-1.55,2.5-2.69,3.42s-2.47,1.61-4,2.06c-1.52,.46-3.16,.69-4.9,.69h-5.19v9.32h-6.84v-31.07h12.7c1.86,0,3.53,.26,4.99,.78s2.71,1.25,3.73,2.2c1.02,.95,1.8,2.08,2.35,3.4,.55,1.32,.82,2.77,.82,4.37v.09c0,1.8-.32,3.38-.97,4.74h0Zm-5.95-4.7c0-1.54-.5-2.71-1.49-3.51s-2.35-1.2-4.06-1.2h-5.28v9.5h5.42c1.72,0,3.05-.45,4-1.35s1.42-2.02,1.42-3.35v-.09h-.01Z"/><path class="b" d="M552.81,112.81l-6.66-9.94h-5.37v9.94h-6.84v-31.08h14.21c3.7,0,6.58,.9,8.64,2.71s3.08,4.32,3.08,7.55v.09c0,2.52-.61,4.57-1.84,6.15-1.23,1.58-2.83,2.75-4.82,3.48l7.59,11.1h-7.99Zm.13-20.47c0-1.48-.47-2.59-1.42-3.33s-2.26-1.11-3.95-1.11h-6.79v8.92h6.92c1.69,0,2.98-.4,3.88-1.2,.9-.8,1.35-1.86,1.35-3.2v-.08h.01Z"/><path class="b" d="M588.54,112.81v-31.08h6.84v31.07h-6.84Z"/><path class="b" d="M647.14,112.81l-15.05-19.75v19.75h-6.75v-31.08h6.3l14.56,19.13v-19.13h6.75v31.07h-5.81Z"/><path class="b" d="M696.68,88.04v24.77h-6.84v-24.77h-9.46v-6.3h25.75v6.3h-9.45Z"/></g><g><path class="b" d="M469.46,152.24c-.65,1.36-1.55,2.5-2.69,3.42s-2.47,1.61-3.99,2.06c-1.52,.46-3.16,.69-4.91,.69h-5.19v9.32h-6.84v-31.07h12.7c1.86,0,3.53,.26,4.99,.78s2.71,1.25,3.73,2.2c1.02,.95,1.81,2.08,2.35,3.4,.55,1.32,.82,2.78,.82,4.37v.09c0,1.8-.32,3.38-.97,4.74h0Zm-5.95-4.7c0-1.54-.5-2.71-1.49-3.51-.99-.8-2.35-1.2-4.06-1.2h-5.28v9.5h5.42c1.72,0,3.05-.45,4-1.35,.95-.9,1.42-2.02,1.42-3.35v-.09h-.01Z"/><path class="b" d="M528.1,158.44c-.83,1.94-1.97,3.64-3.44,5.11-1.47,1.46-3.21,2.62-5.24,3.46-2.03,.84-4.24,1.26-6.64,1.26s-4.6-.42-6.61-1.26c-2.01-.84-3.75-1.98-5.22-3.42-1.46-1.44-2.61-3.12-3.42-5.06-.81-1.94-1.22-4.02-1.22-6.24v-.09c0-2.22,.42-4.3,1.24-6.24,.83-1.94,1.97-3.64,3.44-5.1,1.46-1.46,3.21-2.62,5.24-3.46,2.03-.84,4.24-1.27,6.64-1.27s4.6,.42,6.61,1.27c2.01,.84,3.75,1.98,5.22,3.42s2.6,3.12,3.42,5.06c.81,1.94,1.22,4.02,1.22,6.24v.09c.01,2.21-.41,4.29-1.24,6.23h0Zm-5.9-6.24c0-1.33-.23-2.59-.69-3.77-.46-1.18-1.11-2.22-1.95-3.11s-1.84-1.59-3-2.11c-1.15-.52-2.41-.78-3.77-.78s-2.66,.25-3.79,.75c-1.14,.5-2.12,1.2-2.93,2.09s-1.45,1.92-1.91,3.09-.69,2.42-.69,3.75v.09c0,1.33,.23,2.59,.69,3.77,.46,1.18,1.11,2.22,1.95,3.11s1.83,1.59,2.97,2.11,2.4,.78,3.8,.78,2.62-.25,3.77-.75,2.14-1.2,2.95-2.09,1.45-1.92,1.91-3.09c.46-1.17,.69-2.42,.69-3.75v-.09h0Z"/><path class="b" d="M576.49,167.74l-6.66-9.94h-5.37v9.94h-6.84v-31.07h14.21c3.7,0,6.58,.9,8.63,2.71,2.06,1.81,3.09,4.32,3.09,7.55v.07c0,2.52-.61,4.57-1.84,6.15-1.23,1.58-2.83,2.75-4.82,3.48l7.59,11.1h-7.99Zm.14-20.45c0-1.48-.47-2.59-1.42-3.33s-2.26-1.11-3.95-1.11h-6.79v8.92h6.92c1.69,0,2.98-.4,3.89-1.2,.9-.8,1.35-1.86,1.35-3.2v-.08Z"/><path class="b" d="M625.99,142.96v24.77h-6.84v-24.77h-9.45v-6.3h25.75v6.3h-9.46Z"/><path class="b" d="M686.01,167.74l-2.84-6.97h-13.14l-2.84,6.97h-6.97l13.32-31.3h6.3l13.32,31.3h-7.15Zm-9.41-23.09l-4.13,10.08h8.26l-4.13-10.08Z"/><path class="b" d="M720.15,167.74v-31.07h6.84v24.9h15.49v6.17h-22.33Z"/></g></g><g><path class="b" d="M142.9,107.11h-6.7v-3.51c0-1.55-.24-2.51-2.35-2.51-1.91,0-2.11,1.2-2.11,2.55v13.99c0,1.79,.24,2.79,2.27,2.79,2.19,0,2.19-1.39,2.19-2.79v-3.51h6.86v2.51c0,5.34-1.24,8.57-9.2,8.57-7.49,0-8.89-2.83-8.89-7.25v-13.87c0-1.99,.2-3.67,1.39-5.14,2.11-2.59,5.66-2.75,7.65-2.75,2.43,0,4.9,.36,6.73,1.87,2.03,1.63,2.15,3.94,2.15,5.7v3.35Z"/><path class="b" d="M161.55,121.53c0,1.95,.2,2.43,.92,3.31h-7.25v-1.79c-1.35,1.2-2.75,2.39-5.3,2.39-5.06,0-5.06-4.1-5.06-5.5,0-5.02,1.99-5.86,5.02-7.05,3.23-1.2,3.59-1.35,5.34-2.19,0-1.87,0-1.91-.12-2.27-.4-1.04-1.35-1.04-1.75-1.04-1.79,0-1.79,1.2-1.79,3.31h-6.1c-.08-2.95-.16-7.61,7.73-7.61,1.75,0,4.02,.24,5.66,1.07,2.71,1.44,2.71,4.02,2.71,5.42v11.95Zm-6.33-7.33c-.96,.52-2.43,1.27-2.79,1.51-.92,.68-1.04,1.44-1.04,3.23,0,1.28,0,2.43,1.59,2.43,2.07,0,2.23-1.36,2.23-2.75v-4.42Z"/><path class="b" d="M170.87,106.79c1.2-2.39,2.23-3.31,5.82-3.59v5.5c-2.75,0-2.87,0-3.43,.12-2.31,.48-2.39,2.47-2.39,3.87v12.15h-6.37v-21.16h6.37v3.11Z"/><path class="b" d="M177.25,110.62c0-2.67,0-7.49,8.05-7.49s8.13,4.86,8.13,7.01v8.05c0,2.31,0,7.29-8.05,7.29-2.27,0-4.34-.44-5.9-1.59-2.11-1.51-2.23-3.55-2.23-5.98v-7.29Zm9.92-.76c0-.88,0-2.39-1.83-2.39s-1.83,1.75-1.83,2.51v8.92c0,.76,0,2.07,1.83,2.07s1.83-1.67,1.83-2.39v-8.73Z"/><path class="b" d="M212.11,124.84h-6.26v-15.06c0-.6,0-2.31-1.83-2.31s-1.91,1.63-1.91,2.19v15.18h-6.38v-21.16h6.38v1.99c.72-.88,2.11-2.55,4.74-2.55,2.23,0,3.55,1.07,4.22,2.07,.99,1.4,1.04,2.87,1.04,4.34v15.3Z"/><path class="b" d="M224.71,96.71h6.33v28.13h-6.33v-2.27c-.68,1.04-1.87,2.87-5.1,2.87-5.1,0-5.18-4.62-5.18-7.13v-8.49c0-1.79,0-6.73,4.98-6.73,3.27,0,4.54,1.83,5.3,2.87v-9.25Zm0,12.99c0-1.35-.56-2.23-2.07-2.23-1.91,0-1.91,1.55-1.91,2.27v8.65c0,.96,0,2.39,2.07,2.39,1.91,0,1.91-1.55,1.91-2.55v-8.53Z"/><path class="b" d="M249.39,115.67h-9.64v3.47c0,.64,0,2.03,1.75,2.03,.64,0,1.23-.12,1.67-.64,.36-.48,.36-.72,.36-2.71h6.1c0,1.99,0,3.58-1,4.94-1.87,2.67-5.94,2.67-7.21,2.67-1.79,0-4.78-.36-6.5-2.15-1.24-1.31-1.59-2.95-1.59-6.22v-5.74c0-6.14,2.19-8.25,8.09-8.25,7.97,0,7.97,4.38,7.97,7.25v5.34Zm-9.64-4.02h3.67v-2.19c0-.8,0-2.31-1.75-2.31-1.91,0-1.91,1.59-1.91,2.31v2.19Z"/><rect class="b" x="251.75" y="96.71" width="6.37" height="28.13"/><path class="b" d="M275.65,115.67h-9.64v3.47c0,.64,0,2.03,1.75,2.03,.64,0,1.23-.12,1.67-.64,.36-.48,.36-.72,.36-2.71h6.1c0,1.99,0,3.58-1,4.94-1.87,2.67-5.94,2.67-7.21,2.67-1.79,0-4.78-.36-6.5-2.15-1.24-1.31-1.59-2.95-1.59-6.22v-5.74c0-6.14,2.19-8.25,8.09-8.25,7.97,0,7.97,4.38,7.97,7.25v5.34Zm-9.64-4.02h3.67v-2.19c0-.8,0-2.31-1.75-2.31-1.91,0-1.91,1.59-1.91,2.31v2.19Z"/><path class="b" d="M286.1,96.71v6.97h2.83v3.94h-2.83v11c0,1.91,.76,1.99,2.83,1.99v4.22h-3.58c-4.66,0-5.54-1.99-5.54-5.22v-11.99h-2.83v-3.94h2.83v-6.97h6.3Z"/><polygon class="b" points="125.32 134.86 132.14 134.86 132.14 146.22 136.88 146.22 136.88 134.86 143.69 134.86 143.69 162.99 136.88 162.99 136.88 151.2 132.14 151.2 132.14 162.99 125.32 162.99 125.32 134.86"/><path class="b" d="M162.23,153.83h-9.64v3.47c0,.64,0,2.03,1.75,2.03,.64,0,1.24-.12,1.67-.64,.36-.48,.36-.72,.36-2.71h6.1c0,1.99,0,3.58-1,4.94-1.87,2.67-5.94,2.67-7.21,2.67-1.79,0-4.78-.36-6.5-2.15-1.24-1.31-1.59-2.95-1.59-6.22v-5.74c0-6.14,2.19-8.25,8.09-8.25,7.97,0,7.97,4.38,7.97,7.25v5.34Zm-9.64-4.02h3.67v-2.19c0-.8,0-2.31-1.75-2.31-1.91,0-1.91,1.59-1.91,2.31v2.19Z"/><path class="b" d="M181.02,159.69c0,1.95,.2,2.43,.92,3.31h-7.25v-1.79c-1.35,1.2-2.75,2.39-5.3,2.39-5.06,0-5.06-4.1-5.06-5.5,0-5.02,1.99-5.86,5.02-7.05,3.23-1.2,3.59-1.35,5.34-2.19,0-1.87,0-1.91-.12-2.27-.4-1.04-1.35-1.04-1.75-1.04-1.79,0-1.79,1.2-1.79,3.31h-6.1c-.08-2.95-.16-7.61,7.73-7.61,1.75,0,4.03,.24,5.66,1.07,2.71,1.44,2.71,4.02,2.71,5.42v11.95Zm-6.33-7.33c-.96,.52-2.43,1.27-2.79,1.51-.92,.68-1.04,1.44-1.04,3.23,0,1.28,0,2.43,1.59,2.43,2.07,0,2.23-1.36,2.23-2.75v-4.42Z"/><rect class="b" x="183.94" y="134.86" width="6.38" height="28.13"/><path class="b" d="M200.9,134.86v6.97h2.83v3.94h-2.83v11c0,1.91,.76,1.99,2.83,1.99v4.22h-3.59c-4.66,0-5.54-1.99-5.54-5.22v-11.99h-2.83v-3.94h2.83v-6.97h6.3Z"/><path class="b" d="M211.71,134.86v8.89c.8-1.08,1.87-2.55,4.58-2.55,5.46,0,5.46,4.62,5.46,6.5v15.3h-6.34v-14.62c0-.76,0-2.55-1.79-2.55-1.91,0-1.91,1.83-1.91,2.39v14.78h-6.26v-28.13h6.26Z"/><polygon class="b" points="248.01 134.86 253.82 134.86 253.82 162.99 246.97 162.99 241.12 144.66 241.12 162.99 235.38 162.99 235.38 134.86 242.11 134.86 248.01 153.11 248.01 134.86"/><path class="b" d="M272.34,153.83h-9.64v3.47c0,.64,0,2.03,1.75,2.03,.64,0,1.23-.12,1.67-.64,.36-.48,.36-.72,.36-2.71h6.1c0,1.99,0,3.58-1,4.94-1.87,2.67-5.94,2.67-7.21,2.67-1.79,0-4.78-.36-6.5-2.15-1.24-1.31-1.59-2.95-1.59-6.22v-5.74c0-6.14,2.19-8.25,8.09-8.25,7.97,0,7.97,4.38,7.97,7.25v5.34Zm-9.64-4.02h3.67v-2.19c0-.8,0-2.31-1.75-2.31-1.91,0-1.91,1.59-1.91,2.31v2.19Z"/><path class="b" d="M282.79,134.86v6.97h2.83v3.94h-2.83v11c0,1.91,.76,1.99,2.83,1.99v4.22h-3.59c-4.66,0-5.54-1.99-5.54-5.22v-11.99h-2.83v-3.94h2.83v-6.97h6.3Z"/><polygon class="b" points="314.87 141.84 310.41 162.99 303.87 162.99 300.68 148.33 297.5 162.99 290.92 162.99 286.5 141.84 292.95 141.84 294.55 157.21 297.18 141.84 304.27 141.84 306.82 157.21 308.5 141.84 314.87 141.84"/><path class="b" d="M315.69,148.77c0-2.67,0-7.49,8.05-7.49s8.13,4.86,8.13,7.01v8.05c0,2.31,0,7.29-8.05,7.29-2.27,0-4.34-.44-5.9-1.59-2.11-1.51-2.23-3.55-2.23-5.98v-7.29Zm9.92-.76c0-.88,0-2.39-1.83-2.39s-1.83,1.76-1.83,2.51v8.92c0,.76,0,2.07,1.83,2.07s1.83-1.67,1.83-2.39v-8.73Z"/><path class="b" d="M340.56,144.94c1.19-2.39,2.23-3.31,5.82-3.59v5.5c-2.75,0-2.87,0-3.43,.12-2.31,.48-2.39,2.47-2.39,3.87v12.15h-6.38v-21.16h6.38v3.11Z"/><polygon class="b" points="354.19 134.86 354.19 149.84 358.61 141.84 365.71 141.84 360.01 150.92 366.11 162.99 359.05 162.99 354.19 152.2 354.19 162.99 347.9 162.99 347.9 134.86 354.19 134.86"/><path class="c" d="M96.5,106.22s-7.71,4.08-6.48,23.22c3.85-2.34,6.42-3.49,11.53-4.75l-5.05-18.46Zm-13.8,40.24c.05-.03,20.17-8.13,22.85-19.93-30.58,5.22-31.78,31.13-32.82,36.44l25.08-13.62c.87-.46,1.7-1.04,2.5-1.72,3.82-3.3,5.34-8.34,4.17-12.31l-.23-.81c-7.22,8.96-21.5,11.91-21.55,11.94"/><path class="c" d="M41.53,124.68c5.11,1.26,7.69,2.42,11.53,4.75,1.22-19.14-6.48-23.22-6.48-23.22l-5.05,18.46Zm18.85,21.78c-.05-.03-14.32-2.98-21.55-11.94l-.23,.81c-1.17,3.97,.35,9.01,4.17,12.31,.8,.68,1.63,1.26,2.5,1.72l25.08,13.62c-1.04-5.31-2.24-31.22-32.82-36.44,2.69,11.8,22.8,19.9,22.85,19.93"/><path class="b" d="M71.54,96.14s-31.71,24.77-5.6,42.86c-8.87-9.85,5.6-21.98,5.6-21.98,0,0,14.47,12.12,5.61,21.97,26.06-18.1-5.61-42.85-5.61-42.85"/></g></svg>