<?xml version="1.0" encoding="UTF-8"?>
<svg id="Layer_1" data-name="Layer 1" xmlns="http://www.w3.org/2000/svg" viewBox="0 0 429.2 50">
  <defs>
    <style>
      .cls-1 {
        fill: #f68c2c;
      }

      .cls-2, .cls-3 {
        fill: #fff;
      }

      .cls-3 {
        fill-rule: evenodd;
      }

      .cls-4 {
        isolation: isolate;
      }
    </style>
  </defs>
  <rect class="cls-1" x="230.15" y="8" width=".8" height="34"/>
  <g>
    <g class="cls-4">
      <g class="cls-4">
        <g class="cls-4">
          <g class="cls-4">
            <g class="cls-4">
              <g class="cls-4">
                <path class="cls-2" d="M242.45,19.2h6.8c1,0,1.9.1,2.7.4s1.5.7,2,1.2,1,1.1,1.3,1.8c.3.7.4,1.5.4,2.3h0c0,1-.2,1.9-.5,2.6s-.8,1.3-1.4,1.8c-.6.5-1.3.9-2.1,1.1s-1.7.4-2.6.4h-2.8v5h-3.7v-16.7l-.1.1h0ZM249.05,27.6c.9,0,1.6-.2,2.1-.7s.8-1.1.8-1.8h0c0-.9-.3-1.5-.8-1.9s-1.3-.6-2.2-.6h-2.8v5.1h2.9v-.1Z"/>
                <path class="cls-2" d="M258.35,19.2h7.6c2.1,0,3.7.6,4.9,1.7,1,1,1.4,2.2,1.4,3.8h0c0,1.4-.3,2.5-1,3.3s-1.5,1.5-2.6,1.9l4.1,6h-4.3l-3.6-5.3h-2.9v5.3h-3.7v-16.7h.1ZM265.75,27.3c.9,0,1.6-.2,2.1-.6s.7-1,.7-1.7h0c0-.8-.3-1.4-.8-1.8s-1.2-.6-2.1-.6h-3.6v4.8h3.7v-.1h0Z"/>
                <path class="cls-2" d="M275.75,19.2h3.7v16.7h-3.7v-16.7Z"/>
                <path class="cls-2" d="M283.55,19.2h3.4l7.8,10.3v-10.3h3.6v16.7h-3.1l-8.1-10.6v10.6h-3.6v-16.7h0Z"/>
                <path class="cls-2" d="M306.25,22.6h-5.1v-3.4h13.8v3.4h-5.1v13.3h-3.7v-13.3h.1Z"/>
              </g>
            </g>
          </g>
        </g>
      </g>
    </g>
    <g class="cls-4">
      <g class="cls-4">
        <g class="cls-4">
          <g class="cls-4">
            <g class="cls-4">
              <g class="cls-4">
                <path class="cls-2" d="M325.65,19h6.8c1,0,1.9.1,2.7.4s1.5.7,2,1.2,1,1.1,1.3,1.8c.3.7.4,1.5.4,2.3h0c0,1-.2,1.9-.5,2.6s-.8,1.3-1.4,1.8-1.3.9-2.1,1.1c-.8.2-1.7.4-2.6.4h-2.8v5h-3.7v-16.7l-.1.1h0ZM332.25,27.4c.9,0,1.6-.2,2.1-.7s.8-1.1.8-1.8h0c0-.9-.3-1.5-.8-1.9s-1.3-.6-2.2-.6h-2.8v5.1h2.9v-.1Z"/>
                <path class="cls-2" d="M349.65,36c-1.3,0-2.5-.2-3.5-.7s-2-1.1-2.8-1.8c-.8-.8-1.4-1.7-1.8-2.7s-.7-2.2-.7-3.3h0c0-1.2.2-2.4.7-3.4.4-1,1.1-2,1.8-2.7.8-.8,1.7-1.4,2.8-1.9s2.3-.7,3.6-.7,2.5.2,3.5.7,2,1.1,2.8,1.8,1.4,1.7,1.8,2.7.7,2.2.7,3.3h0c0,1.2-.2,2.4-.7,3.4-.4,1-1.1,2-1.8,2.7-.8.8-1.7,1.4-2.8,1.9-1.1.5-2.3.7-3.6.7ZM349.65,32.6c.7,0,1.4-.1,2-.4.6-.3,1.1-.6,1.6-1.1s.8-1,1-1.7c.2-.6.4-1.3.4-2h0c0-.8-.1-1.4-.4-2.1s-.6-1.2-1-1.7c-.5-.5-1-.9-1.6-1.1-.6-.3-1.3-.4-2-.4s-1.4.1-2,.4-1.1.6-1.6,1.1c-.4.5-.8,1-1,1.7s-.4,1.3-.4,2h0c0,.8.1,1.4.4,2.1s.6,1.2,1,1.7c.5.5,1,.9,1.6,1.1.6.3,1.3.4,2,.4Z"/>
                <path class="cls-2" d="M361.75,19h7.6c2.1,0,3.7.6,4.9,1.7,1,1,1.4,2.2,1.4,3.8h0c0,1.4-.3,2.5-1,3.3s-1.5,1.5-2.6,1.9l4.1,6h-4.3l-3.6-5.3h-2.9v5.3h-3.7v-16.7s.1,0,.1,0ZM369.15,27.1c.9,0,1.6-.2,2.1-.6s.7-1,.7-1.7h0c0-.8-.3-1.4-.8-1.8s-1.2-.6-2.1-.6h-3.6v4.8h3.7v-.1h0Z"/>
                <path class="cls-2" d="M382.85,22.4h-5.1v-3.4h13.8v3.4h-5.1v13.3h-3.7v-13.3h.1Z"/>
                <path class="cls-2" d="M400.15,18.9h3.4l7.1,16.8h-3.8l-1.5-3.7h-7l-1.5,3.7h-3.7l7.1-16.8s-.1,0-.1,0ZM403.95,28.7l-2.2-5.4-2.2,5.4h4.4Z"/>
                <path class="cls-2" d="M413.25,19h3.7v13.4h8.3v3.3h-12v-16.7Z"/>
              </g>
            </g>
          </g>
        </g>
      </g>
    </g>
  </g>
  <g>
    <path class="cls-2" d="M72.8,10.12h-4.38v-2.29c0-1.01-.16-1.64-1.54-1.64-1.25,0-1.38.78-1.38,1.67v9.14c0,1.17.16,1.82,1.48,1.82,1.43,0,1.43-.91,1.43-1.82v-2.29h4.48v1.64c0,3.49-.81,5.6-6.01,5.6-4.89,0-5.81-1.85-5.81-4.74v-9.06c0-1.3.13-2.4.91-3.36,1.38-1.69,3.7-1.8,5-1.8,1.59,0,3.2.24,4.4,1.22,1.33,1.07,1.4,2.57,1.4,3.72v2.19h0Z"/>
    <path class="cls-2" d="M84.99,19.54c0,1.27.13,1.59.6,2.16h-4.74v-1.17c-.88.78-1.8,1.56-3.46,1.56-3.31,0-3.31-2.68-3.31-3.59,0-3.28,1.3-3.83,3.28-4.61,2.11-.78,2.35-.88,3.49-1.43,0-1.22,0-1.25-.08-1.48-.26-.68-.88-.68-1.14-.68-1.17,0-1.17.78-1.17,2.16h-3.99c-.05-1.93-.1-4.97,5.05-4.97,1.14,0,2.63.16,3.7.7,1.77.94,1.77,2.63,1.77,3.54v7.81h0ZM80.86,14.75c-.63.34-1.59.83-1.82.99-.6.44-.68.94-.68,2.11,0,.84,0,1.59,1.04,1.59,1.35,0,1.46-.89,1.46-1.8v-2.89h0Z"/>
    <path class="cls-2" d="M91.08,9.91c.78-1.56,1.46-2.16,3.8-2.35v3.59c-1.8,0-1.88,0-2.24.08-1.51.31-1.56,1.61-1.56,2.53v7.94h-4.16V7.88h4.16v2.03h0Z"/>
    <path class="cls-2" d="M95.25,12.41c0-1.74,0-4.89,5.26-4.89s5.31,3.18,5.31,4.58v5.26c0,1.51,0,4.76-5.26,4.76-1.48,0-2.84-.29-3.86-1.04-1.38-.99-1.46-2.32-1.46-3.91v-4.76h0ZM101.73,11.92c0-.58,0-1.56-1.2-1.56s-1.2,1.14-1.2,1.64v5.83c0,.5,0,1.35,1.2,1.35s1.2-1.09,1.2-1.56v-5.7h0Z"/>
    <path class="cls-2" d="M118.03,21.7h-4.09v-9.84c0-.39,0-1.51-1.2-1.51s-1.25,1.07-1.25,1.43v9.92h-4.17V7.88h4.17v1.3c.47-.58,1.38-1.67,3.1-1.67,1.46,0,2.32.7,2.76,1.35.65.91.68,1.88.68,2.84v10h0Z"/>
    <path class="cls-2" d="M126.26,3.32h4.14v18.38h-4.14v-1.48c-.44.68-1.22,1.88-3.33,1.88-3.33,0-3.38-3.02-3.38-4.66v-5.55c0-1.17,0-4.4,3.25-4.4,2.14,0,2.97,1.2,3.46,1.88V3.32ZM126.26,11.81c0-.88-.37-1.46-1.35-1.46-1.25,0-1.25,1.01-1.25,1.48v5.65c0,.63,0,1.56,1.35,1.56,1.25,0,1.25-1.01,1.25-1.67,0,0,0-5.57,0-5.57Z"/>
    <path class="cls-2" d="M142.39,15.71h-6.3v2.27c0,.42,0,1.33,1.14,1.33.42,0,.8-.08,1.09-.42.24-.31.24-.47.24-1.77h3.99c0,1.3,0,2.34-.65,3.23-1.22,1.74-3.88,1.74-4.71,1.74-1.17,0-3.12-.24-4.25-1.4-.81-.86-1.04-1.93-1.04-4.06v-3.75c0-4.01,1.43-5.39,5.29-5.39,5.21,0,5.21,2.86,5.21,4.74v3.49h0ZM136.09,13.08h2.4v-1.43c0-.52,0-1.51-1.14-1.51-1.25,0-1.25,1.04-1.25,1.51v1.43h0Z"/>
    <rect class="cls-2" x="143.93" y="3.32" width="4.16" height="18.38"/>
    <path class="cls-2" d="M159.55,15.71h-6.3v2.27c0,.42,0,1.33,1.14,1.33.42,0,.8-.08,1.09-.42.24-.31.24-.47.24-1.77h3.99c0,1.3,0,2.34-.65,3.23-1.22,1.74-3.88,1.74-4.71,1.74-1.17,0-3.12-.24-4.25-1.4-.81-.86-1.04-1.93-1.04-4.06v-3.75c0-4.01,1.43-5.39,5.29-5.39,5.21,0,5.21,2.86,5.21,4.74v3.49h0ZM153.25,13.08h2.4v-1.43c0-.52,0-1.51-1.14-1.51-1.25,0-1.25,1.04-1.25,1.51v1.43h0Z"/>
    <path class="cls-2" d="M166.38,3.32v4.55h1.85v2.57h-1.85v7.19c0,1.25.5,1.3,1.85,1.3v2.76h-2.34c-3.04,0-3.62-1.3-3.62-3.41v-7.83h-1.85v-2.57h1.85V3.32h4.12,0Z"/>
    <polygon class="cls-2" points="61.32 28.25 65.77 28.25 65.77 35.67 68.87 35.67 68.87 28.25 73.32 28.25 73.32 46.63 68.87 46.63 68.87 38.93 65.77 38.93 65.77 46.63 61.32 46.63 61.32 28.25"/>
    <path class="cls-2" d="M85.44,40.65h-6.3v2.27c0,.42,0,1.33,1.14,1.33.42,0,.81-.08,1.09-.42.24-.31.24-.47.24-1.77h3.99c0,1.3,0,2.34-.65,3.23-1.22,1.74-3.88,1.74-4.71,1.74-1.17,0-3.12-.24-4.25-1.4-.81-.86-1.04-1.93-1.04-4.06v-3.75c0-4.01,1.43-5.39,5.29-5.39,5.21,0,5.21,2.86,5.21,4.74v3.49h0ZM79.14,38.02h2.4v-1.43c0-.52,0-1.51-1.14-1.51-1.25,0-1.25,1.04-1.25,1.51v1.43h0Z"/>
    <path class="cls-2" d="M97.71,44.48c0,1.27.13,1.59.6,2.16h-4.74v-1.17c-.88.78-1.8,1.56-3.46,1.56-3.31,0-3.31-2.68-3.31-3.59,0-3.28,1.3-3.83,3.28-4.61,2.11-.78,2.35-.88,3.49-1.43,0-1.22,0-1.25-.08-1.48-.26-.68-.88-.68-1.14-.68-1.17,0-1.17.78-1.17,2.16h-3.99c-.05-1.93-.1-4.97,5.05-4.97,1.14,0,2.63.16,3.7.7,1.77.94,1.77,2.63,1.77,3.54v7.81h0ZM93.58,39.69c-.63.34-1.59.83-1.82.99-.6.44-.68.94-.68,2.11,0,.84,0,1.59,1.04,1.59,1.35,0,1.46-.89,1.46-1.8v-2.89h0Z"/>
    <rect class="cls-2" x="99.62" y="28.25" width="4.17" height="18.38"/>
    <path class="cls-2" d="M110.7,28.25v4.55h1.85v2.57h-1.85v7.19c0,1.25.5,1.3,1.85,1.3v2.76h-2.35c-3.04,0-3.62-1.3-3.62-3.41v-7.83h-1.85v-2.57h1.85v-4.55h4.12,0Z"/>
    <path class="cls-2" d="M117.77,28.25v5.81c.52-.71,1.22-1.67,2.99-1.67,3.57,0,3.57,3.02,3.57,4.25v10h-4.14v-9.55c0-.5,0-1.67-1.17-1.67-1.25,0-1.25,1.2-1.25,1.56v9.66h-4.09v-18.38h4.09,0Z"/>
    <polygon class="cls-2" points="141.49 28.25 145.28 28.25 145.28 46.63 140.81 46.63 136.98 34.65 136.98 46.63 133.23 46.63 133.23 28.25 137.63 28.25 141.49 40.18 141.49 28.25"/>
    <path class="cls-2" d="M157.38,40.65h-6.3v2.27c0,.42,0,1.33,1.14,1.33.42,0,.8-.08,1.09-.42.24-.31.24-.47.24-1.77h3.99c0,1.3,0,2.34-.65,3.23-1.22,1.74-3.88,1.74-4.71,1.74-1.17,0-3.12-.24-4.25-1.4-.81-.86-1.04-1.93-1.04-4.06v-3.75c0-4.01,1.43-5.39,5.29-5.39,5.21,0,5.21,2.86,5.21,4.74v3.49h0ZM151.09,38.02h2.4v-1.43c0-.52,0-1.51-1.14-1.51-1.25,0-1.25,1.04-1.25,1.51v1.43h0Z"/>
    <path class="cls-2" d="M164.21,28.25v4.55h1.85v2.57h-1.85v7.19c0,1.25.5,1.3,1.85,1.3v2.76h-2.35c-3.04,0-3.62-1.3-3.62-3.41v-7.83h-1.85v-2.57h1.85v-4.55h4.12Z"/>
    <polygon class="cls-2" points="185.18 32.81 182.26 46.63 177.99 46.63 175.9 37.05 173.83 46.63 169.53 46.63 166.64 32.81 170.85 32.81 171.9 42.85 173.62 32.81 178.25 32.81 179.92 42.85 181.01 32.81 185.18 32.81"/>
    <path class="cls-2" d="M185.71,37.34c0-1.74,0-4.89,5.26-4.89s5.31,3.18,5.31,4.58v5.26c0,1.51,0,4.76-5.26,4.76-1.48,0-2.84-.29-3.86-1.04-1.38-.99-1.46-2.32-1.46-3.91v-4.76ZM192.19,36.84c0-.58,0-1.56-1.2-1.56s-1.2,1.15-1.2,1.64v5.83c0,.5,0,1.35,1.2,1.35s1.2-1.09,1.2-1.56v-5.7h0Z"/>
    <path class="cls-2" d="M201.96,34.84c.78-1.56,1.46-2.16,3.8-2.35v3.59c-1.8,0-1.88,0-2.24.08-1.51.31-1.56,1.61-1.56,2.53v7.94h-4.17v-13.83h4.17v2.03h0Z"/>
    <polygon class="cls-2" points="210.87 28.25 210.87 38.04 213.76 32.81 218.4 32.81 214.67 38.74 218.66 46.63 214.04 46.63 210.87 39.58 210.87 46.63 206.76 46.63 206.76 28.25 210.87 28.25"/>
    <path class="cls-3" d="M42.49,9.54s-5.04,2.67-4.23,15.17c2.52-1.53,4.2-2.28,7.53-3.1l-3.3-12.06h0ZM33.47,35.83s13.18-5.31,14.93-13.02c-19.98,3.41-20.77,20.34-21.45,23.81l16.39-8.9c.57-.3,1.11-.68,1.63-1.12,2.5-2.16,3.49-5.45,2.72-8.04l-.15-.53c-4.72,5.85-14.05,7.78-14.08,7.8"/>
    <path class="cls-3" d="M6.57,21.6c3.34.82,5.02,1.58,7.53,3.1.8-12.51-4.23-15.17-4.23-15.17l-3.3,12.06h0ZM18.88,35.83s-9.36-1.95-14.08-7.8l-.15.53c-.76,2.59.23,5.89,2.72,8.04.52.44,1.07.82,1.63,1.12l16.39,8.9c-.68-3.47-1.46-20.4-21.45-23.81,1.76,7.71,14.9,13,14.93,13.02"/>
    <path class="cls-2" d="M26.18,2.95s-20.72,16.19-3.66,28.01c-5.8-6.44,3.66-14.36,3.66-14.36,0,0,9.46,7.92,3.67,14.36,17.03-11.83-3.67-28-3.67-28"/>
  </g>
</svg>