<?xml version="1.0" encoding="UTF-8"?>
<svg id="Layer_1" data-name="Layer 1" xmlns="http://www.w3.org/2000/svg" xmlns:xlink="http://www.w3.org/1999/xlink" viewBox="0 0 429.2 50">
  <defs>
    <style>
      .cls-1 {
        clip-path: url(#clippath-6);
      }

      .cls-2 {
        clip-path: url(#clippath-7);
      }

      .cls-3 {
        clip-path: url(#clippath-17);
      }

      .cls-4 {
        clip-path: url(#clippath-15);
      }

      .cls-5 {
        clip-path: url(#clippath-4);
      }

      .cls-6 {
        fill: url(#linear-gradient-2);
      }

      .cls-7 {
        fill: #50b748;
      }

      .cls-8 {
        clip-path: url(#clippath-9);
      }

      .cls-9 {
        clip-path: url(#clippath-10);
      }

      .cls-10 {
        fill: #fff;
      }

      .cls-11 {
        clip-path: url(#clippath-11);
      }

      .cls-12 {
        fill: none;
      }

      .cls-13 {
        clip-path: url(#clippath-1);
      }

      .cls-14 {
        isolation: isolate;
      }

      .cls-15 {
        clip-path: url(#clippath-5);
      }

      .cls-16 {
        clip-path: url(#clippath-8);
      }

      .cls-17 {
        clip-path: url(#clippath-3);
      }

      .cls-18 {
        clip-path: url(#clippath-12);
      }

      .cls-19 {
        clip-path: url(#clippath-14);
      }

      .cls-20 {
        clip-path: url(#clippath-16);
      }

      .cls-21 {
        clip-path: url(#clippath-2);
      }

      .cls-22 {
        clip-path: url(#clippath-13);
      }

      .cls-23 {
        fill: url(#linear-gradient);
      }

      .cls-24 {
        clip-path: url(#clippath);
      }
    </style>
    <clipPath id="clippath">
      <path class="cls-12" d="M75.19,36.67c.19-.5.36-1.03.49-1.61h.03c.07.58.24,1.12.41,1.61l.79,2.31h-2.58l.86-2.31ZM74.62,33.36l-3.88,9.44h-.89v1.61h4.11v-1.61h-1.06l.78-2.12h3.8l.72,2.12h-.9v1.61h4.39v-1.61h-.89l-3.65-9.44h-2.54,0Z"/>
    </clipPath>
    <clipPath id="clippath-1">
      <path class="cls-12" d="M96.91,34.97h1.04c1.41,0,1.94.53,1.94,1.61s-.56,1.61-1.8,1.61h-1.19v-3.22h0ZM93.52,33.35v1.61h1.09v7.83h-.99v1.61h4.3v-1.61h-1v-2.91h.54c.41,0,.69.19.91.55l1.34,2.31c.86,1.45,1.26,1.66,1.85,1.66h1.77v-1.61h-.41c-.3,0-.56-.13-.9-.7l-1-1.66c-.55-.92-.87-1.12-1.41-1.17v-.03c1.23-.05,2.6-1.22,2.6-2.86,0-1.12-.49-2.13-1.48-2.62-.63-.32-1.03-.41-2.32-.41h-4.89Z"/>
    </clipPath>
    <clipPath id="clippath-2">
      <polygon class="cls-12" points="115.08 33.36 115.08 34.97 116.08 34.97 116.08 42.8 115.08 42.8 115.08 44.41 119.38 44.41 119.38 42.8 118.38 42.8 118.38 34.97 119.38 34.97 119.38 33.36 115.08 33.36"/>
    </clipPath>
    <clipPath id="clippath-3">
      <path class="cls-12" d="M131.98,33.36l-.1,3.08h1.99l.09-1.47h3.79v.03c-.24.16-.5.41-.76.76l-5.54,7.12v1.53h8.94l.13-3.08h-2.01l-.09,1.47h-4.19v-.04c.25-.16.49-.41.76-.75l5.43-7.04v-1.61h-8.44Z"/>
    </clipPath>
    <clipPath id="clippath-4">
      <path class="cls-12" d="M154.88,38.88c0-2.13.89-3.91,2.97-3.91s2.97,1.78,2.97,3.91-.79,3.92-2.97,3.92-2.97-1.78-2.97-3.92M152.39,38.88c0,3.11,1.59,5.72,5.46,5.72s5.47-2.6,5.47-5.72-1.71-5.72-5.47-5.72c-3.48,0-5.46,2.7-5.46,5.72Z"/>
    </clipPath>
    <clipPath id="clippath-5">
      <path class="cls-12" d="M182.67,33.36v1.61h1.01v5.73h-.03c-.15-.42-.44-.87-.93-1.48l-4.65-5.86h-3.2v1.61h1.4v7.83h-1.03v1.61h3.9v-1.61h-1.07v-5.84h.03c.03.16.25.52.52.86l5.26,6.6h1.71v-9.44h1.09v-1.61h-4Z"/>
    </clipPath>
    <clipPath id="clippath-6">
      <path class="cls-12" d="M203.31,36.67c.19-.5.36-1.03.49-1.61h.03c.08.58.24,1.12.41,1.61l.79,2.31h-2.57l.86-2.31h0ZM202.74,33.35l-3.88,9.44h-.88v1.61h4.1v-1.61h-1.06l.79-2.12h3.8l.71,2.12h-.9v1.61h4.38v-1.61h-.88l-3.65-9.44h-2.54,0Z"/>
    </clipPath>
    <clipPath id="clippath-7">
      <path class="cls-12" d="M68.52,12.94c0,2.9,1.31,4.4,5.18,5.39l2.06.54c2.52.64,3.06,1.34,3.06,2.31,0,1.42-1.02,2.52-3.33,2.52-1.1,0-2.17-.08-3.16-.49v-2.46h-3.91v4.96c2.52.83,4.67,1.04,6.72,1.04,5.33,0,7.75-2.6,7.75-6.17,0-3.88-3.06-4.8-5.81-5.5l-2.26-.56c-1.23-.3-2.22-.7-2.22-2.06,0-1.04.83-2.38,3.43-2.38.91,0,1.82.21,2.52.46v2.28h3.54v-4.48c-1.61-.61-3.89-1-6.17-1-5.31,0-7.4,2.63-7.4,5.61h0Z"/>
    </clipPath>
    <clipPath id="clippath-8">
      <path class="cls-12" d="M83.77,12.4v2.74h1.83v8.56h-1.53v2.74h6.89v-2.74h-1.6v-11.29h-5.59ZM84.82,7.73c0,1.4.96,2.33,2.52,2.33s2.52-.94,2.52-2.33-.96-2.33-2.52-2.33-2.52.94-2.52,2.33Z"/>
    </clipPath>
    <clipPath id="clippath-9">
      <path class="cls-12" d="M98.05,14.65c1.75,0,2.85,1.1,2.85,3.03h-5.71c.16-1.91,1.15-3.03,2.86-3.03M91.14,19.47c0,3.89,2.28,7.26,7.69,7.26,1.91,0,3.43-.24,5.18-.89l.19-2.97c-1.58.67-2.74.96-4.53.96-2.63,0-4.35-1.37-4.45-3.59h9.76c0-4.53-1.96-8.18-6.79-8.18-4.39,0-7.05,3.03-7.05,7.4Z"/>
    </clipPath>
    <clipPath id="clippath-10">
      <path class="cls-12" d="M110.88,15.62h-.05c.19-1.31.24-2.25.24-3.22h-5.45v2.74h1.82v8.56h-1.53v2.74h7.05v-2.74h-1.77v-4.53c0-2.31,1.44-3.7,3.48-3.7.37,0,.8.05,1.21.13l.24-3.35c-.4-.08-.78-.16-1.23-.16-2.14,0-3.46,1.18-4.02,3.54h.01Z"/>
    </clipPath>
    <clipPath id="clippath-11">
      <path class="cls-12" d="M131.86,22.32c0-1.21.96-1.85,4.02-1.85h1.04c0,2.57-1.5,3.54-3,3.54s-2.07-.86-2.07-1.69M128.78,13.53v3.56h3.22v-1.88c.64-.24,1.8-.4,2.33-.4,1.77,0,2.66.56,2.66,2.68v.67c-2.74,0-4.64.13-6.06.64-1.48.53-2.82,1.85-2.82,3.86,0,2.2,1.53,4.08,4.69,4.08,2.37,0,3.65-.99,4.59-3.11h.05c-.13.54-.19,1.02-.19,1.93v.86h4.72v-2.74h-1.58c.05-1.98.13-3.91.13-6.22,0-4.07-2.38-5.39-6.14-5.39-2.5,0-4.69.94-5.6,1.45h0Z"/>
    </clipPath>
    <clipPath id="clippath-12">
      <path class="cls-12" d="M165.75,7.65h-7.29v2.73h1.93l-3.67,10.73c-.24.7-.46,1.47-.56,2.25h-.05c-.11-.78-.32-1.55-.56-2.25l-3.67-10.73h1.58v-2.73h-7.62v2.73h1.5l6.31,16.04h4.37l6.31-16.04h1.44v-2.73h0Z"/>
    </clipPath>
    <clipPath id="clippath-13">
      <path class="cls-12" d="M15.08,34.31h0ZM38.75,43.03c-.05-.09-.11-.18-.15-.27.04.09.1.18.15.27h0ZM26.35,40.17h0,0M26.36,40.06h0ZM33.27,36.98h0ZM16.58,34.26c.09.07.06.08.16.12.01.02,0,.04.02.05.02.02.03.04.02.04-.04,0-.22-.13-.2-.2M16.13,34.05s-.01-.05,0-.08c.13.04.13.08.24.16l.06.04c-.07.02-.12-.02-.16-.05-.03-.04-.07-.07-.13-.06h-.02s0-.01,0-.01ZM16.13,33.92s-.05.01-.08.03c-.03.02-.05.05-.09.02.01-.02.02-.02.04-.01.01-.05-.01-.09-.02-.13-.01-.02-.02,0-.04.01.02-.12.1.05.18.09M15.33,33.71s.02-.07.06-.12c.08.02.06.07.06.12l-.02.02h-.05s-.04,0-.05-.02M15.69,33.55s-.06.19.06.12c-.05-.04-.04-.04-.01-.04s.06,0,.08-.04h.02s-.02.04-.02.04c.08.06-.01.02-.04.05.02.04.14.05.1.11-.02-.01-.05-.04-.08-.01h-.02c-.09-.11-.24-.07-.22-.21.06-.02.07,0,.07,0,0,.01,0,.02.01.02.01,0,.02-.01.06-.05M16.54,32.87h-.02c0-.09-.08-.09-.15-.11-.04-.04-.08-.08,0-.16.01.1.03.09.14.18l.04.02c.07-.04.09,0,.08.03,0,.02-.02.05-.05.05-.01,0-.02,0-.05-.01M61.87,32.57c-.16.03-.29.08-.46.12.17-.03.3-.09.46-.12M55.17,23.95s-.05-.03-.07,0c-.16.02-.31.08-.46.18-.02-.02-.05-.03-.06,0-.15.04-.27.13-.41.19-.12.07-.24.1-.35.2-.2-.01-.33.22-.52.26l-.02.02c-.06.13-.18.04-.25.16-.02.04-.05.05-.1.04l-.03.04c-.13.1-.28.15-.41.28-.15.07-.29.18-.42.3-.09.05-.16.16-.26.18-.05.05-.08.12-.15.1l-.12.15c-.15.07-.27.21-.41.28-.16.13-.31.25-.46.41-.04-.05-.07.01-.09.04-.07.1-.17.08-.24.21-.07.02-.12.05-.17.13-.08.07-.18.11-.25.23-.02-.02-.05-.02-.06,0l-.1.12s-.03.02-.05.02c-.02,0-.05,0-.06.04-.12.16-.27.18-.39.33-.04-.04-.05,0-.07.02l-.08.09s-.06.02-.09.04c-.17.16-.34.29-.52.41l-.03.04c-.06.1-.15.06-.21.18-.12.09-.24.17-.35.27l-.02.02c-.1.07-.1.17-.08.28-.09-.15-.15-.09-.2-.01-.13.06-.25.16-.36.29-.04-.04-.06.02-.09.04-.05.1-.12.05-.18.13l-.05.05c-.09.12-.19.19-.29.27-.08-.04-.13.13-.21.17l-.1.11c-.08-.04-.12.12-.19.15-.07.05-.13.05-.19.15-.08.04-.02.12-.09.16-.03-.04-.07-.07-.08-.02l-.1.11c-.13.09-.33.3-.5.43-.01.01-.02,0-.04,0h-.02l-.13.15-.15.16c-.11.01-.18.09-.22.19-.04-.01-.08.03-.12.08l-.05.05c-.06-.06-.09.08-.14.1l-.07.07c-.1,0-.1.09-.21.16l-.04.04-.03.04c-.1.07-.17.07-.29.19l-.16.18c-.1.07-.19.12-.28.24-.16-.05-.27.27-.42.29l-.08.08s0,.07-.04.1c-.08-.05-.14.02-.2.1-.05.07-.1.13-.16.12-.05.07-.11.09-.16.12-.23.19-.52.38-.69.61.01-.02.05-.04.02-.06-.21-.04-.24-.25-.4-.36-.06-.05-.05-.15-.15-.13-.01-.02,0-.04.02-.06l-.07-.07s-.02-.01-.04-.01-.02,0-.04-.02c.04-.1-.11-.07-.15-.13l.02-.02c-.05-.05-.08-.18-.18-.16-.02-.02,0-.05-.03-.07-.07-.09-.14-.09-.21-.14.01-.02.04-.04.02-.06-.06.05-.09-.06-.08-.08-.05-.05-.13-.1-.12-.16-.02,0-.04-.03-.06-.01-.02.01-.04.01-.06-.01l-.05-.05s.02-.08-.02-.11l-.02-.02c-.25-.09-.31-.35-.49-.44.11-.06-.09-.18-.07-.07-.04-.05.02-.12-.08-.16l-.04-.03c-.08.01-.21-.08-.16-.19-.21,0-.18-.19-.33-.3l-.02-.02c-.05-.04-.11-.12-.17-.11-.1-.04-.04-.11-.08-.16-.04-.01-.06,0-.05-.05l-.05-.05-.13-.12-.02.02-.07-.07c.04-.09-.08-.04-.13-.17-.02-.02-.03-.05-.04-.07-.13-.07-.16-.24-.27-.25l-.07-.07c.01-.09-.14-.15-.19-.22l-.07-.07c.02-.13-.21-.11-.19-.22-.04-.04-.08-.08-.13-.08-.07-.02-.02-.15-.11-.1l-.11-.09-.02-.04c.01-.06-.02-.09-.07-.12l-.1-.12v-.03h-.01s-.19-.21-.19-.21c-.04-.05-.05-.1-.12-.15-.02-.02-.04-.04-.06-.06v-.02c-.06-.07-.1-.13-.18-.19l-.05-.06s-.06-.1-.11-.12l-.09-.11s-.03-.03-.05-.05l-.13-.16s-.03-.04-.04-.07l-.16-.15s-.01-.05-.03-.07c-.21-.24-.45-.44-.7-.63h-.01s-.02-.02-.02-.02c-.64-.44-1.38-.68-2.14-.71-.97-.04-1.95.27-2.75.94l-.08.07s-.03.03-.05.05l.02.02v.02c-.15.09-.33.2-.5.36-.04-.03-.06.02-.09.05l-.05.05-.12.12c-.09-.01-.16.15-.24.21l-.04.04-.04.04c-.12.04-.23.2-.35.26v.02c-.07-.02-.1.03-.12.08-.02.05-.05.1-.1.08-.11.06-.1.21-.21.21-.06-.04-.1.08-.15.1-.07.04-.04.09-.08.13-.08.01-.16.1-.23.15l-.12.12-.12.12c-.08-.02-.13.11-.16.16-.19.06-.29.29-.46.37-.07.07-.16.15-.18.23-.01.01-.02,0-.04,0-.02,0-.04-.02-.05.01l.02.02-.05.05-.07.07c-.23.18-.33.27-.54.49-.05.03-.11.04-.16.12-.07.04-.01.09-.08.13l-.02-.02c-.07.05-.16.09-.19.19-.05-.02-.1.05-.15.05l-.26.25-.07.07c-.06-.02-.08.02-.11.07-.02.04-.05.08-.08.07l-.26.25c-.05-.01-.07.02-.09.05-.02.03-.04.07-.07.05-.02.03-.04.05-.07.07-.02-.01-.04-.02-.07-.04-.06-.09-.13-.04-.19-.11-.07-.06-.14-.11-.21-.12-.08-.04-.18-.08-.27-.17-.03.05-.06.04-.1,0,.04-.05-.07-.07-.09-.12l-.02.02-.13-.11c-.04-.07-.08-.03-.13-.07l-.07-.06-.04-.02c-.07-.03-.14-.16-.21-.13l-.02-.02c-.1-.06-.2-.2-.3-.2-.02,0-.04-.03-.06,0l-.05-.04s-.01-.04-.02-.05c-.1-.1-.21-.09-.31-.2-.05-.01-.02-.14-.1-.08l-.17-.13-.13-.11-.12-.09-.05-.05-.12-.09-.15-.12-.12-.09-.23-.18-.19-.16-.04-.03-.34-.27c0-.07-.15-.19-.21-.17-.08-.01-.16-.08-.23-.14l-.05-.05c-.03.07-.05.05-.08.02-.02-.02-.04-.04-.06,0,.02.08.19.12.13.23-.07-.07-.15-.04-.21-.13-.02.13-.07.07-.1.18l.05.05s-.04.02-.06.04l-.09-.08-.11.13c.08.08.1.19.18.28l.71.56c.28.19.44.42.72.61.1.05.07.13.17.18l.06.04.17.13c.22.12.33.37.53.42l.02.02c.11.08.12.16.25.19-.02.02,0,.04-.02.07-.12-.09-.23-.19-.35-.23l-.05-.04s-.03-.06-.06-.08l-.02.02-1.13-.89-.12-.09-.16-.12c0-.07-.16-.2-.22-.18l-.04-.03c-.07-.04-.04-.11-.13-.15l-.02.02h-.02c-.12-.06-.1-.21-.22-.19l-.02-.02c0-.1-.18-.15-.24-.24-.08-.09-.15-.05-.18-.13-.1.08.04.1-.05.18-.06-.05-.12-.07-.18-.05.06.08.05.19.16.26h.02s.02.02.02.02l.08.06-.04.05.18.13c-.02.08.13.12.17.18.01.02.04.03.02.06l-.16-.12-.21-.16-.04-.03-.16-.12-.15-.12c-.05.05-.07.1-.05.14-.02.04-.01.07.01.1-.01.02-.02.01-.04.01h-.04c-.07.04-.13.02-.21.1-.04.05.02.07-.04.13-.02-.01-.05-.05-.08-.02.05.04.02.09.1.12l.04.03s-.02.02-.04.01c-.01,0-.02,0-.04.01-.04,0-.08-.11-.12-.05.01.02,0,.05,0,.08-.02.01-.04,0-.06,0-.02-.01-.05-.03-.08.03.07.02.02.08.08.1-.02.02-.04.02-.06.04.12.09.18.21.33.29-.03.07.1.09.13.15l.12.09c.22.24.6.44.75.7-.1-.05-.19-.08-.29-.18l-.18-.13-.18-.13-.06-.04-.21-.16-.19-.15-.04-.03-.18-.13-.08-.06-.08-.05c-.08-.05-.17-.17-.25-.11.02.02,0,.07.05.08-.05.04.1.1,0,.08-.06.02-.1.09-.12.16-.03.05-.06.05-.08.05-.02,0-.04,0-.06.01.08.09.28.15.29.26l-.04-.03-.22-.16c-.07-.09-.08.01-.12.08-.02-.02-.13-.11-.1-.03.05.03.07.07.05.12h-.05s-.06-.01-.1.02l.08.05s-.02.02-.04.02c-.01,0-.02,0-.04,0,.05.04-.11.04,0,.08,0,.11-.07.04-.12,0-.15.12-.03.17-.05.25h-.04s-.09-.01-.14.08l.04.03-.02.02c-.07-.01-.13-.18-.2-.06.16.02.15.14.25.22l.06.04c.05.05.2.09.13.18l-.1-.07-.04-.03s-.04-.02-.06,0c-.01-.06-.15-.18-.22-.16,0,.04.02.07.08.1-.04.05-.07.05-.1.01-.1.09.04.1-.05.18-.05-.04-.11-.1-.16-.03,0,.14.27.2.25.35l-.2-.14s-.04-.04-.04-.07l-.06-.04s-.09-.12-.14-.05c.08.05-.01.02-.04.09.04.02.02.06.06.08h.02c-.04.07-.08-.02-.12-.03-.05.12.13.17.16.27.12.07.13.16.26.22-.02.02-.04.05-.06.04-.08-.1-.24-.19-.32-.3-.05.01-.1-.02-.15-.06-.02-.04.04-.02.06-.04-.07-.01-.04-.16-.14-.1.01.04.01.07,0,.12-.07.16.11.23.13.3-.01-.02-.06,0-.06,0,.08.12.15.13.26.26-.02.04.03.05.06.08l-.04.05c-.14-.07-.15-.17-.28-.24-.05-.1-.21-.16-.27-.26-.02.04-.05.05-.08.07.03.03.12.04.04.11.09.03.07.1.14.13.01-.02.01-.04-.02-.05.08-.06.08.07.12.08-.03.04-.07.02-.1.02-.02,0-.04-.01-.07,0-.05-.02,0-.21-.12-.08.09.03.05.1.15.13-.02.02-.04.02-.06.04-.12-.03-.07-.21-.2-.18.02.06.06.13-.04.13-.06.17,0,.31.14.41.05.07.13.12.16.19.02.02.06.04.04.07-.25-.11-.37-.36-.53-.44.02.06.15.15.04.19-.08-.02.07.21.16.27-.04.06.08.07.1.11l.1.07c-.11.15-.28-.1-.36-.13.02.01-.06.07.16.15.01.08.15.13.22.19.01.09.21.12.21.22-.1.03-.1-.07-.16-.11l-.18-.12c-.08-.08-.23-.25-.33-.25.1.07.08.19.21.25.07.04.07.11.16.15l.1.07c.17.18.25.37.53.51.03.07.08.1.16.11-.02.02.01.04.02.05-.02.04,0,.07-.06.04.02-.07-.12-.09-.16-.15-.36-.22-.01.04.1.15.16.11.23.25.41.35h.02c.02.1.15.15.21.23,0,.05.08.09.14.13.04.05.08.11.16.15,0,.04.08.16.12.12.09.04.12.03.12.12.04.09.12.18.22.19.1.07.08.09.18.13l.06.04c-.08.13.07.1.15.13.08.05.04.04-.02.1.01.03.04.02.07,0,.03-.02.05-.04.03.02.02.08.22.21.3.21l.04.02s.04.05.06.08c-.04.04.09.13.12.09.1.08.27.15.3.25.02-.03.05-.05.08-.02-.04.04-.02.07.02.09l.14.1.08.05c.05-.01.09.04.13.08.04.04.08.09.15.08l.12.08h.02c.15.12.19.1.32.2l.06.04.12.08c.07.02.15.15.21.12h.02s.02.02.02.02c-.02.03.03.07.06.04l.12.08.18.13c.27.13.39.33.61.44h.02c-.04.07.07.08.1.12.07.11.19.23.27.24.05.02.07.06.08.1l.08.05c-.04.05.06.06.08.1.04.05.06.07.09.08l.52.11.42.26c.07.04.14.08.21.12l.04.02c.06.03.12.06.18.08.04.02.08.03.12.04s.07.02.1.04c.05.01.08.02.13.04.03,0,.07.02.1.02.04.01.08.01.12.02.04,0,.07.01.11.02.04,0,.08,0,.13.01.03,0,.07,0,.1.01h.23s.1,0,.16-.01c.02,0,.05,0,.08,0,.05,0,.1-.02.16-.02.02,0,.05,0,.07-.01.05-.01.1-.02.15-.04h.02l.18.03c.54.12,1.08-.2,1.25-.73,0-.02.01-.05.02-.08.07-.04.16-.04.23-.15-.01-.02-.04-.04-.02-.06.02-.03.04-.02.07-.02.03,0,.05.01.08-.04l.02-.02c.16-.02.16-.15.22-.27.02-.04.06-.02.1.04.03-.11.14-.1.13-.22l.07.07s.06-.07.03-.12c0-.01.02-.02,0-.04.03-.02.07.03.1.03.12-.3.48-.27.63-.58.08.02.14-.12.21-.17.15-.21.38-.21.34-.42.05-.06.1-.11.16-.08.05.04.09-.08.14-.1.05.02.18-.1.12-.16.02-.03.04-.02.06-.02.02,0,.05.01.07-.02.04-.05.08,0,.11-.06l.07-.07.05-.05s.09-.11.15-.1c.06-.07.13-.13.19-.15l-.02-.02c.1-.01.19-.16.28-.24.01-.02.05-.04.02-.07l.04-.04.02.02c.06-.02.12-.06.18-.13.1.02.02-.08.08-.13.05.01.1-.01.15-.05l-.04-.04.05-.05s0,.05.04.08c.07-.05.01-.13.06-.19.08.06.07-.01.11-.06.02-.01.05-.03.08-.04.32-.18.57-.53.92-.77l.1-.1.15.1c.06.07.09.13.2.19l-.02.02c.26.3.61.66.85.9-.03.07.1.12.13.18.01.02.02.03.04.04.19.21.44.5.62.72l.02-.02s.06.06,0,.1l.1.1s.08.16.12.12c.02,0,.03.03.05.01.02.04.11.07.02.12.04.05.08,0,.11.06-.03.03.01.05-.01.08.03.04.07.04.11.04.02,0,.05,0,.08.01.04.05-.04.22.11.2l.04.04c0,.1.05.08.12.12.1.04,0,.1.05.15.11.14.19.16.26.36.04-.05.06-.04.08-.02.02.01.04.02.05.02.04.14.13.35.27.41.08.12.12.13.24.24.05.03.06.07.06.11-.02.11.16.07.08.19.02-.01.04-.01.06.01.03.02.03.19.12.08l.05.05.05.05.1.1c.1.19.22.45.44.55-.06.04-.01.1.07.17.21.12.29.27.46.47.13.09.15.27.28.24.02.17.08.21.24.35.03.03.03.16.12.12.07.09.13.25.22.27l.05.05c.08.07.04.1.12.12v.02s.08.1.12.15c.46.53,1.03.9,1.66,1.12h.01s.06.02.06.02c.26.08.54.14.81.16h.08c.22.02.46.02.68,0,.08.02.17.02.25.03h.01c.4.02.79-.09,1.12-.32.16-.12.3-.25.42-.41l.19-.13c.11-.08.22-.17.36-.23.07-.12.16-.16.29-.19l-.02-.02.04-.03h.02c.1,0,.19-.15.29-.2l.07-.06c.05.06.08-.04.12-.05.06.04.08-.1.11-.13.12-.03.12-.09.22-.15.18,0,.23-.15.4-.24l.07-.06c.08-.1.18-.05.21-.17.08.07.02-.07.1-.08.08-.07.21-.03.23-.14.04-.02.19-.01.15-.08.17-.07.3-.16.42-.25l.04-.03c.07-.02.05-.09.08-.12.05.1.08.01.12,0l.04-.03h.02c.05-.07.11-.01.15-.09l.1-.08h.02c.08-.08.16-.16.25-.17l.06-.04c.06.03.08-.01.1-.05.02-.04.04-.08.09-.05.1-.04.16-.07.21-.16.04,0,.08,0,.12-.05.05-.08.15,0,.13-.11.08-.01.12-.04.15-.12h.02s.05.04.05.04c.05-.04.12-.08.11-.13.04-.02.07-.1.12,0l.13-.11s-.05-.05-.03-.07c.01,0,.02,0,.04,0h.03c.07.01.21-.02.21-.12.02-.04.04-.03.06-.03s.04,0,.06-.02c.09,0,.17-.09.25-.15.13-.07.37-.16.42-.29.12-.02.19-.15.27-.16.07,0,.24-.07.24-.13l.04-.03c.22-.07.43-.26.64-.36l.25-.19h.04s.03,0,.04-.01c.15-.09.3-.16.45-.3.04.04.07-.01.1-.03l.27-.21c.13-.02.25-.09.38-.19l.16-.12c.05.07.08-.04.12-.04.12-.09.24-.1.36-.22.06.07.09-.05.14-.05l.12-.09s.07,0,.1-.02l.19-.15s.05.02.07,0c.08-.1.19-.08.28-.16l.12-.08s.07,0,.1-.02c.04-.02.05-.05.05-.09.07,0,.13.01.19-.04l.18-.13c.23-.07.45-.21.67-.33.41-.18.81-.41,1.21-.62.13-.09.27-.1.39-.22.02.02.05.02.07,0,.11-.12.25-.1.36-.21.11-.02.22-.1.32-.18.13,0,.24-.1.36-.14l.1-.07.08-.04c.1-.02.18-.11.28-.16.06.08.08-.03.13-.04.07-.09.18-.05.25-.12.12-.04.24-.09.35-.18.15-.01.27-.18.42-.18.09-.04.16-.16.27-.13h.02c.07-.07.15-.12.23-.11l.04-.02.08-.05c.07-.09.16-.03.23-.1l.22-.15c.05-.08.13-.01.19-.07l.31-.2.12-.08c.07.05.23-.05.21-.13l.16-.1c-.01-.06.04-.09.09-.12-.03-.07.07-.05.02-.13.04-.16-.18-.45-.28-.68,0-.11-.13-.29-.3-.49.06-.07.07-.17.05-.29-.13-.24-.45-.32-.41-.47h.02c-.04-.07,0-.07-.02-.12-.09.09-.1-.09-.22-.16,0-.02,0-.05-.05-.09h-.02s-.07-.07-.07-.07l.1-.07c-.07-.09-.12-.12-.16-.08-.03-.04-.05-.04-.08-.07-.04-.05,0-.07.02-.08-.04-.05-.08-.08-.12-.11l.07-.06c-.05-.05-.08-.08-.12-.11l-.16-.2h-.02s-.02-.05,0-.06c-.07-.1-.11-.06-.18-.19.03-.02.05-.05.04-.1-.18-.19-.22-.25-.47-.5-.07-.22-.24-.45-.47-.7.1-.01-.07-.15-.13-.24-.07-.26-.23-.32-.38-.58-.1-.12-.05-.1.01-.09.05.01.11.02.05-.05-.04-.01-.07-.01-.1,0-.04,0-.07.01-.11-.01-.05-.23-.43-.62-.53-.87l-.02.02c-.04-.12-.24-.32-.33-.41.08-.01-.04-.12-.1-.2-.12-.18-.15-.32-.36-.53v-.02s-.16-.2-.16-.2c-.19-.35-.33-.42-.63-.78-.19-.05-.38-.08-.55-.08-.23,0-.44.04-.65.12l-.04.02Z"/>
    </clipPath>
    <clipPath id="clippath-14">
      <path class="cls-12" d="M15.65,35.2c.12.06-.04-.08-.14-.13-.02-.01-.04-.01-.04-.01-.02,0,.13.13.18.15h0Z"/>
    </clipPath>
    <clipPath id="clippath-15">
      <path class="cls-12" d="M12.44,29.97h0s0-.01,0,0,0,0,0,.01h0M12.49,29.94h-.01.01M14.71,26.43c0-.07.11-.21.19-.14-.11.04-.09.13-.16.18l-.03-.04h0ZM19.12,26.08s.02-.02,0-.05l.08-.06.11-.08h.02s.07-.05.03-.1l.33-.25c0-.07.12-.15.21-.02-.1.03-.16.04-.19.14-.08.1-.3.14-.3.29-.05.11-.12.09-.2.21-.03-.04-.05-.04-.08-.07M15.5,25.34l.11-.08c0,.05-.04.3-.17.12h.06s.02-.01,0-.05M20.08,25.12c.13-.2.37-.35.54-.53l.06-.05c.12.12-.02.12-.05.16-.18.1-.25.45-.45.45-.03,0-.07-.01-.11-.04M20.78,24.4l.06-.05c.02-.05.18-.05.12-.15l.21-.16c.05-.05.08-.04.1.05h-.02c-.02.07-.18.07-.12.16l-.06.04c-.07-.05-.07,0-.08.04,0,.04-.02.07-.06.07l-.06.05s-.05-.04-.08-.07M17.1,23.56c-.07-.09.07-.08.09-.13.03-.01.03-.04.01-.07l.04-.03.06.08s-.07.05-.08.09l-.08.09s-.02-.01-.04-.02M22.74,22.76l.06-.05c.04.05.07.04.11.11-.12.02-.06.04-.09.13-.1-.1-.02-.12-.08-.19M23.33,22.27s.09-.07.16.07c-.01.02-.04.02-.07.01-.04,0-.08-.01-.04.07l-.08.06s-.05.05-.1,0c.12-.01-.04-.16.01-.2.02.01.04.02.05.02.02,0,.04-.01.06-.02M21.21,23.95c.13-.05.1-.18.22-.22l.08-.06.1-.08c-.05-.1.09-.09.12-.15.2-.13.29-.32.51-.44-.05-.11.11-.1.14-.16l.04-.03c.08-.08.11-.18.24-.24.16-.12.25-.29.44-.39-.05-.11.12-.11.16-.18.06.09-.08.08-.04.16-.06.1-.16.09-.22.22-.08.01-.25.2-.27.33-.02-.03-.05-.02-.08-.07-.08.02.08.16-.04.16-.11.05-.1.05-.19.14l-.15.11c-.1.02-.06.12-.13.16-.08.02-.07.1-.12.15-.04-.07-.16.01-.1.08l-.12.09s-.04.05-.04.09c-.05.03-.1.07-.09.13-.21.01-.24.25-.42.25l-.03-.04h-.01ZM23.56,22.08s.01-.08.05-.1c.05.09,0,.13.1.18-.04.04-.08.02-.13,0-.03-.01-.06-.02-.08-.02l.06-.05h0ZM23.36,21.85l.16-.12c0,.1-.05.17-.12.22l-.02.02s-.04.01-.05.01c-.04,0,.07-.07.03-.13M19.16,21.28c0-.05.02-.1.07-.12.04.06.03.1.1.18.02.04.01.06-.01.07-.06-.05-.11-.08-.16-.13M24.84,20.74h-.04.04M24.37,16.08s-.03.02-.04.03c.01-.01.03-.02.04-.03M30.68,16.09l.05-.03s.07.02.08.07c0,.04,0,.08-.02.08s-.05-.03-.1-.12M24.47,16.02s-.01.01-.02.02c.01,0,.02-.01.02-.02M32.12,14.97s-.02.06-.05.08c.02-.01.04-.04.05-.08M32.18,14.81s-.04.08-.05.13c.01-.04.02-.09.05-.13M32.21,14.76s-.02.02-.03.04c.01-.01.02-.02.03-.04M41.36,8.11l-.17.19.17-.19ZM44.93,5.81l-.32.2-.33.21-.31.19-.28-.29-.11-.12-.26-.1-.12.13-.16.18-.24.33-.49.49-.44.5-.39.44-.35.22-.24.15c-.06.08-.25.08-.24.21l-.07.04c-.08,0-.29.02-.29.12-.05.07-.22.06-.19.18-.02.06-.05.03-.09,0-.01-.02-.04-.04-.05-.04l-.18.11c-.15-.05-.28.15-.42.21-.07.03-.04.13-.15.15-.06.01,0,.11-.08.11-.06-.04-.32.04-.21.19-.12-.01-.04.18-.19.18-.09-.24-.26-.04-.25.04h-.02s-.24.16-.24.16c-.13.07-.24.15-.3.25-.07-.1-.08.05-.06.1-.02.02.01.05.05.08-.04-.01-.04.02-.05.05,0,.04,0,.09-.06.02-.04-.05.01-.06-.01-.12-.02,0-.04-.02-.08-.07l-.13.09c.02.07-.02.05-.07.03-.05-.02-.1-.05-.07.05.16.24-.16.04-.17.22-.04.02-.07,0-.07-.07-.01.11-.15,0-.08.17.03.05.06.11.01.12-.02,0-.05.02-.07-.01.02-.02-.02-.07-.05-.03-.02.02-.05,0-.08-.02-.04-.02-.07-.05-.1.01-.17.06-.21.19-.35.28-.08.02-.05.12-.08.17,0,.04-.05.02-.08,0-.04-.03-.07-.05-.04.02-.02.06-.04.12-.08.17l-.08-.13c-.15-.02.08.19-.02.2-.05,0-.04-.06-.08-.13-.05.05.02.21-.1.13-.07-.09-.12.05-.18.05.04.07.1.15.04.16-.04.02-.07.05-.12-.05-.05.05.06.28-.1.18,0,.15-.1.02-.07-.07-.13.05.02.27-.16.28-.04-.05-.01-.08-.06-.15-.07.32-.4.15-.37.53-.05.01-.02.08-.06.1-.07-.07-.08.01-.1-.12-.06.03-.11.06-.06.16h-.02c-.08.08-.07.02-.07-.06-.05.04-.11.08-.02.2l-.07.04c-.05-.21-.07.03-.16.04l.08.13-.1.1c0-.07.05-.13-.06-.06-.06-.15-.1-.05-.14-.03.01.05.04.12.09.2l-.12.12h-.02s0-.07-.05-.07c-.04-.07.04-.07-.04-.16-.13.06-.12.15-.24.15.04.06.05.1.06.15-.01.02,0,.05.04.1-.05.04-.1.07-.16.04l-.05-.09c-.08-.02-.1.05-.13.12-.03.09-.06.18-.2.08.04.06.05.1.05.15l-.08.05c-.11.07-.22.04-.33.15h-.02c-.03.05.04.16-.05.16.02.05.08.12.06.15l-.05.02c-.01-.12-.07-.08-.13-.04-.06.04-.12.08-.09-.06-.05.05-.17.05-.1.18h-.02s.03.07,0,.07c.02.08-.02.05-.06.03-.04-.02-.08-.05-.05.04h-.02c.01.09-.07.12-.13.15-.02,0-.04,0-.05.02.02-.01.04-.02.05-.02-.1-.18.13,0,.02-.2-.12.12-.29.2-.31.38.01.06.05.13.04.15h.02s-.04,0-.07-.01l-.05.02h-.02s-.08,0-.12-.09c-.13,0,.01.16,0,.24-.05.05-.06,0-.08-.04-.02-.05-.03-.1-.07-.04-.02.07.05.21-.07.22-.04-.07-.01-.1-.04-.16l-.07.04s-.02.02,0,.06c.02-.02.05.02.06.07.01.04.01.08-.02.08l-.08-.13-.11.07c.02.05.08.12.06.15h-.02s-.11.08-.11.08c-.03-.04-.01-.06-.04-.1-.09.02.04.19-.05.21-.05-.05-.23-.16-.19,0,.08-.07.04.07.08.13-.06.04-.16.07-.04.14-.04.01-.07.07-.12.01.05-.05-.08-.05-.11-.18-.03.05-.18.04-.13.14-.01.08-.09.12-.07.22l-.11.07c.04.05.07.05.08.13l-.04.02-.08-.13s-.07,0-.07-.07c-.07.05-.12.11-.12.2-.01.01-.02.02,0,.05l-.06.04c.02.1.15.18.02.22l-.02-.04-.07.04c-.04-.06-.07-.09-.1-.12-.02-.03-.05-.04-.07-.02-.11.04.04.13.01.17-.02-.01-.18-.13-.11.01-.18.01-.34.17-.36.35.03-.01.06-.05.1,0-.02.04-.01.04.01.04.02,0,.07,0,.09.08-.06.08-.04.05-.12.14-.05-.13-.09-.2-.18-.13-.01,0-.02,0-.04,0-.01,0-.02-.01-.03-.01-.01,0-.02,0-.04,0-.01,0-.02-.01-.04-.01,0,.14-.25.13-.15.34-.06,0-.04.04,0,.09.03.05.06.1,0,.09-.15-.13-.06-.15-.07-.25-.13.04-.18.15-.11.31l-.07.04c-.08.06-.07.01-.07-.07-.11-.07-.08.07-.16.1h-.02c-.04.07-.04.15,0,.25-.03-.04-.05-.04-.08-.07-.03-.05-.01-.08-.05-.08-.05.07-.13.13-.19.19-.02-.01-.04-.02-.05-.04.12-.07-.01-.11.07-.17,0,.02.03.01.06,0l-.03-.04s0-.07.07-.07c0-.05-.05-.02-.1,0-.05.02-.11.05-.1-.02-.02-.02-.04-.09-.1-.06,0,.03-.02.07-.06.1l-.04-.07-.04-.07s.09-.02.08-.05c0-.03-.05-.02-.08-.02-.05,0-.1.02.02-.07-.06-.07-.18-.04-.21-.14l.13-.08-.09-.15c-.24.16-.07,0-.1-.06-.13.11-.16.05-.21.04,0-.04.01-.04.04-.02.04,0,.08.01.15-.06-.14-.05-.1-.04-.11-.18-.09.07-.16.1-.2.07.02-.02.05-.04.02-.05.06-.03.11-.02.07-.08,0-.04-.05,0-.1.03-.05.04-.1.07-.1.03.11-.1-.09-.02-.07-.11l-.04-.07.13-.08s.04-.16-.07-.11c-.05-.02-.02-.15-.11-.08-.07,0-.08-.02-.05-.09l-.04-.07s-.05-.01-.1,0c-.06.02-.11.04.01-.04-.01-.05-.06-.04-.11-.02-.02.01-.05.02-.07.01l-.15-.02-.08-.58-.18-.17-.21.05-.15-.25-.15-.23h-.22s-.21.14-.21.14l-.14.25-.4.15-.19.25-.22-.04h0s-.01.04-.05.05l-.09-.12-.04.03s.01.07-.03.09c-.12.02-.05.18-.17.12-.1.08-.24.13-.21.28-.02.02,0,.05-.01.07-.02.02.01.07-.04.09-.08-.17-.26.04-.1.08-.08.02-.01.12-.1.13-.04-.05-.05-.1-.07-.14-.04.02-.01.08-.05.1-.03.02-.18.11-.07.12.08-.09.06.01.16.13-.02,0-.04.03-.07-.01-.09-.16-.12-.02-.12.02-.01.05-.04.02-.07-.01-.02-.03-.05-.06-.07-.01.04.05.05.1.07.14l-.06.04-.09-.12-.04.03c.03.07.04.12.03.16,0-.03,0-.07-.02-.11,0,.08-.12.01-.1.13.02,0,.05.02.08.07l-.02.02.03.04c.05.07.05.11,0,.13-.04-.06-.08-.12-.11-.11l-.08.06s-.02-.06-.04-.1c-.07.04,0,.14-.07.18-.15-.05-.16.13-.25.18-.07.09-.19.16-.05.36l-.02.02c-.08-.14-.13-.1-.16-.21-.21.02-.07.39-.21.29h-.02c.04.1.06.22-.04.17.02.09-.08.12.02.24l-.06.05c-.16-.27-.27-.21-.37-.11-.04.07-.2.07-.16.18l-.12.09s.01.07-.03.09c-.06.04-.13.07-.12.15-.03.06-.19.06-.13.16-.1.13-.11.32-.3.41-.04.03-.07,0-.08-.07,0,.15-.34.12-.19.27-.07-.07.05-.13.1,0l-.15.11c-.1-.17-.13.02-.21.02.05.08.11.08.09.12-.16-.19-.33.04-.13.16,0,.13-.28.39-.17.12-.06-.15.18,0,.04-.16-.09-.07-.12.1-.12.15-.08.12-.22.22-.29.35l-.1.08.09.12-.08.06c.06.1-.09.09-.12.15l-.06.05c-.08-.09-.02-.12-.13-.22-.02.09-.08.15-.18.14.04.06.02.1.1.18l-.04.03-.09-.12c-.13,0,.04.14,0,.18-.04-.05-.1-.01-.06.05.02-.01.05.04.01.05l-.09-.12c-.05,0-.03.04-.01.07s.04.07-.01.07c-.08.02,0,.12-.09.13-.05-.02-.1-.01-.13.04,0,.1.01.22.11.11.01,0,.02-.01.05.02h-.02s-.04.04-.04.04c-.07,0-.04.07-.04.12l-.07.04s-.02-.13-.06-.1c-.06.02-.07.07-.02.15h-.02s-.1.09-.1.09l-.03-.04c-.01-.07-.04-.07-.09-.12-.01.05-.15.03-.07.12-.08.03-.11.1-.13.16-.02.07-.02.15-.08.19-.03-.03-.06-.08-.08-.07,0,.06.04.14.01.19l-.06-.08c-.08.02.04.15-.05.16-.02.01-.05-.02-.07-.04-.03-.03-.06-.06-.08-.04h-.02c.04.08.04.14.03.18-.03.01-.05.02-.1-.05-.05.04-.16.08-.02.15.07.08-.06.07-.07.12-.02.08-.06.03-.1-.01-.02-.03-.05-.05-.07-.05.05.09-.09.09.05.15.01.08-.06.11-.12.15l.03.04s0,.05-.01.07c-.08.02,0,.12-.09.13-.09-.15-.09-.04-.09,0-.04-.05-.06-.07-.08-.07-.02-.04,0-.05-.04-.1,0,.13-.22.15-.11.33.04-.01.07-.07.12-.02h-.02c0,.07-.01.11-.07.13-.04-.06-.03-.1-.1-.18.02.13-.1.19-.14.29-.05-.06-.12.09-.12.15.12.01,0,.16.15.21l-.06.04-.15-.21c-.02.13-.05.27-.15.36l-.09-.12s-.08.1-.07.18c-.01.04-.14.03-.07.12.02,0,.16.09.11.11-.05.05-.13-.02-.19-.05,0,.05.03.12.08.19h-.02c-.1.19-.2.41-.42.39l.06.08-.06.05-.02-.04s-.03-.03-.06-.08c-.08.07-.1.18-.17.25h-.02c-.01.06.13.19.11.24-.05-.05-.1-.13-.13-.08-.02.02-.03.01-.05.01-.01,0-.02-.01-.04,0-.02.02-.03.05-.03.09-.1.04.05.2-.05.23-.01-.07-.04-.1-.08-.07-.05.04-.1.1-.18.07-.06.01,0,.09.05.15l-.06.05.03.04-.02.02s-.07-.01-.12-.07c-.05-.05-.08-.12-.12-.07.17.35-.04.27-.11.46.01.14-.18.17,0,.39h-.02c-.03.08-.07.13-.12.19l-.05.07h-.01c-.14-.01-.14.1-.21.16-.02.01,0,.05-.01.07.04.05,0,.07-.03.08-.05.01-.04.05-.05.09l-.02.02-.08.07h-.02c-.03.07-.19.07-.13.18-.07.12-.13.12-.19.27-.08.02-.08.1-.12.15-.07.11-.22.18-.25.31-.02.02-.04.02-.06.01-.02-.01-.05-.02-.07.02.03.04.02.06.04.1l-.25.18c.02.07-.03.11,0,.19l-.02.02s-.08.05-.13.04l-.02.02s.04.09.02.12c-.02,0-.05-.02-.08-.07-.01.07-.09.09-.06.18.02-.01.05-.05.09,0-.05.02-.07.07-.07.12-.11-.02-.18-.04-.1.08-.02,0-.05-.01-.08-.07-.08.02.02.15.04.22.08.13-.18.08-.1.21-.1.09-.16.2-.13.35.07.16-.25.47-.07.43.01,0,.02-.01.05.02-.04.1-.13.18-.13.29l-.08.06c.02.09.01.15.04.22-.05.03-.07.08-.04.16-.02.03,0,.08-.05.1-.01.02,0,.07.02.11l-.04.03c-.1.15-.04.37-.12.53-.1.07-.07.19-.01.33-.05.04-.01.12-.09.13.03.05.08.12.07.14-.1-.05-.12.07-.07.18-.08.03-.04.12-.06.18.15.09.08.27.22.21l.06-.04c-.12-.12.02-.12.05-.16.08,0,.11-.02.11-.05.01-.04-.01-.09.13,0,.15.02.13-.15.27-.2.06-.08.25-.1.22-.22.02-.02,0-.05.01-.07.44-.2.61-1.04.99-1.05-.04-.05-.07-.1-.02-.12l.1.12c.1,0-.01-.12-.04-.19l.04-.04s.04.02.06.06c.08-.01-.02-.12.02-.15l.09-.13c.07.04.12-.02.18-.07-.04-.05-.07-.1-.02-.11.06,0,.1-.18.19-.01.04-.04.05-.08.02-.15.03-.06.05-.13.13-.16l.11-.08s.06.08.08.07c-.04-.08,0-.07.04-.07.02,0,.05.01.07-.01-.02-.04-.06-.09-.04-.1.13.11.39-.09.33-.25.16-.02.23-.06.27-.2.06.05.12.05.16,0-.03-.08-.14-.21-.14-.28.02,0,.05.03.09.07.05.06.1.12.12.03l.02-.02c-.01-.09.1-.12.16-.18.05.1-.08.12-.04.21.16-.07.15-.24.22-.36-.05-.01-.09-.01-.13.04-.06-.05.07-.18.16-.18.04.05,0,.07-.03.08.27.28,0-.17.15-.18h.02s.08-.07.08-.07c.02.04.02.06.04.1.02-.01.07.02.1.05.02-.13,0-.12.13-.09-.15-.22.18-.04.1-.21l-.06-.09s-.01-.06.01-.07c.1.14.17.18.24.15-.02-.04-.02-.06-.04-.1.1-.13.34-.21.47-.28-.05-.11-.1-.22-.05-.28.09.02.05.12.11.11,0-.08-.15-.23-.01-.24.02-.02-.01-.07.03-.08.04.05.07.04.11.11-.03,0-.03.02-.03.05,0,.04.01.08-.05.01h-.02c.08.22.29-.03.21-.15.08-.02.05-.1.1-.13,0-.05-.07-.09-.08-.19-.21.21-.37.37-.63.59l-.12.09c-.05.11-.22.12-.28.27l-.1.08.02.04c-.11.04-.07.1-.04.16-.04.03-.08.01-.12-.04-.22.25-.59.27-.73.54-.08-.08-.13.07-.19.08l.04.04c-.1,0-.16.07-.21.13-.05.07-.12.15-.24.13.03-.02.04-.05.04-.08.15.08.1-.16.23-.17l.13-.09s.04-.03.01-.07c-.02-.08.29.01.25-.18l.02-.02.1-.08.04-.03s-.02-.15-.05-.22l.12-.09s.05,0,.07.01c-.07.04-.12.08-.01.2l.08-.06c.04-.07.02-.06.1-.08.1-.02-.08-.18-.04-.22.06.01.13.07.15.15l.04-.03s.09-.04.05-.1c.03-.02.04-.05.04-.08,0,0,.01,0,.02,0,.05.02.1.02.08-.04h0s0-.02-.01-.04c0,.01.01.01.01.02h0c.46-.19.83-.85,1.26-.96-.12-.24.32-.2.28-.4l.21-.16c.09-.07.16-.14.16-.25l.02-.02c.13,0,.22-.13.25-.18l.19-.14.19-.14h.02s.02-.03.02-.03c.03-.02.03-.05.03-.08l.08-.06.04-.03.04-.03c.09.11-.14.05-.04.16l-.04.03h-.02c0,.07-.01.11-.07.13l-.04.03-.13.09c-.25.29-.47.33-.61.64-.12.09-.26.18-.32.3-.02,0-.01.03.01.05l.02-.02c.11.01.08-.04.2-.08.02.04.03.08.07.14l.19-.14-.03-.04.23-.17.13-.09.02-.02c.19-.17.39-.32.61-.58l-.04-.04.21-.15c.12-.05,0-.25.19-.14.39-.25.32-.53.81-.78-.04-.04-.05-.03-.08-.02-.02.01-.04.02-.07,0-.04-.06.02-.07.05-.1-.07-.11,0-.1.05-.09.03,0,.06.01.07,0-.02.04,0,.09-.05.1l.03.04.08-.06c.02-.12.21-.07.22-.22l.04-.03c.02-.05.18-.05.12-.15l.02-.02c.1.04.12-.15.25-.18,0-.02.04-.03.01-.07-.04.02-.09-.08-.14-.15.02-.02-.01-.07.03-.08l.06.08s.03.09.07.14c.18,0,.22-.24.41-.31-.01-.05-.24-.32-.09-.25.08-.02.04-.1.09-.13l.12.16.13-.09.13-.09c-.09-.16-.13,0-.19.01l.03.04c-.09.09-.08.04-.18-.12l.04-.03c.09.16.24-.03.22-.1h.02c-.04-.07.01-.09,0-.14.01-.08.07-.05.12-.04.05.02.1.04.07-.04.08-.07.05.06.09.12l.11-.08c-.04-.1-.02-.08.02-.07.03.01.08.03.1-.02.03-.04-.06-.06-.04-.1.15.04,0-.1.06-.18.04-.02.06.02.08.05.02.04.04.08.09.01.07-.09.26-.11.24-.24.01-.12.13-.05.21-.15-.12-.13-.01-.1.03-.09.15-.1.28-.2.36-.33l.06-.05.12-.09s.15-.03.07-.12c0-.07-.08-.18-.08-.25l.04-.03c.04.05.05.1.07.14.07.1.11.03.15-.04.02-.04.06-.09.11-.09.02-.03.09-.04.05-.1l.06-.05c-.02-.08,0-.14-.08-.07-.02-.02-.04-.05-.01-.05.01-.01.02-.02-.01-.05.07-.01.12-.16.2-.08.03.07-.08.07-.02.14l.02-.02c.16-.08.22-.2.33-.3.01-.04.14-.03.07-.12l.08-.06c.13,0,0-.14.07-.18.24.18.2-.21.2-.33h-.01c-.08-.02-.07.1-.12.15.05-.04.04-.16.12-.15h.02c.2.19.27-.08.12-.22.04.04.07,0,.1-.01,0,.01,0,.01.01.02.02,0,.04,0,.04,0-.11.05.04.15.1.13l.08.13c.12.1.22.24.33.34l.12.2s.12.04.15.13c.02,0,.06-.01.1-.04.04-.02.09-.05.1-.03.02.04-.11.09-.1.13-.08.1.08.16.15.15,0-.03.03-.07.06-.1v.02s.05.07.05.07c-.05.04-.08.01-.15.06.09.09.16.22.31.2-.02-.09-.19-.17-.11-.27l.06.09s.02.16.12.1l.12.19s.02.05-.01.07c-.05-.02-.02-.16-.13-.1.04.09.01.17.09.24.03.11.12.1.17.17l.02.04s.05.07.07.11l.18.42.13.29.06.13.07.15.06.13.11.02.22-.17.08-.04-.02-.03.02.03.22.25.13-.05.09-.16.18-.08.1-.16.25-.22.13-.06c.05-.02.1-.05.08-.12l.08-.05c.13-.11.29-.21.36-.35l.15-.1c.1,0,.02-.09.02-.13l.02-.02h0s.01.06.03.1l.08-.05-.02-.05c.11-.1.16-.27.32-.26.12-.04.08-.09.05-.15.08.05.15-.05.22-.08-.02-.05-.05-.11-.01-.12h.04s.05.02.07-.02c.02-.02.09-.04.06-.1.14-.05.13-.19.28-.24.09-.05.16-.12.12-.25h.02c.07.03.14,0,.21-.02.07-.15.27-.21.36-.35l.16-.1-.03-.04c.07-.07.22-.08.22-.19.08,0,.16-.02.18-.11.06-.02.08-.06.08-.12l.08-.05h.02c.13-.06.12-.19.25-.23.11-.04.12-.12.19-.18l.2-.12c.04-.06.19-.05.15-.16l.07-.04s.15-.02.08-.12c.35-.28.7-.53.87-.85l.02.04s.22.02.18-.11c.16-.09.3-.18.39-.3.1-.04.16-.1.15-.21.75-.49,1.4-1.13,2.25-1.72l.05-.02c.08-.09.29-.1.28-.24l.13-.08.29-.18c.04-.06.19-.05.15-.15l.08-.05.15-.1.07-.04.04-.02.11-.07h.02c.08-.04.02-.14.13-.15l.27-.16c.32-.25.64-.33.89-.63.2-.03.52-.22.63-.4h.02s.02-.03.02-.03c.1-.06.2-.15.31-.13.28-.17.41-.29.68-.43.08-.02.08-.09.12-.14h.02c.06-.11.21,0,.2-.13h.02c.24-.07.47-.25.7-.39.07,0,.12-.19.21-.01.05-.05-.02-.18.1-.18h.02s.05.07.05.07c.11-.03.13-.12.19-.18.07.16.22.01.18-.05-.05.04-.1.07-.16-.02l.18-.11c.05.12.19.15.15.03-.02,0-.03.01-.05-.03,0-.02.03-.02.02-.05l.32.08.06.09-.11.05s.03.1.09.07c0-.02.04-.05.07-.05l.08.12s.02.05-.02.07c-.16-.05-.07,0-.11.12.11-.01.08-.07.19-.07l.04.07-.13.07.04.09.13-.07.04.07s-.02.05-.08.07l.05.09s.02.08,0,.12l.02.05v.02c.13-.07.16-.01.19.02,0,.12.03.24.02.37l.04.07c.07-.01.07.02.06.05-.01.03-.02.07.05.04.02-.01.05-.02.05,0l.04.07.06.12s-.05.06-.12.1c.01.15.16.1.24.13v.03c-.01.13-.06.32.13.32l-.13.07c0,.06.04.05.08.05s.07,0,.08.04c-.11.12.11.1.11.21l.02.04s-.02.05-.02.07c0,.06-.03.21.13.13.08.07,0,.15.07.23l.02.04c-.1.07.04.12.04.18.05.16.07.21.18.35-.12.1.09.05.07.14.06.17.12.27.15.39l.05.09c.02.11.11.13.17.2-.1.08-.02.28.08.28.12.25.18.5.35.75l.02.05c.07.05.05.22.17.21,0,.13.08.26.15.39l.36.69c.09.11.1.33.25.36l.18.35c.1.12.12.36.27.41l.15.27c.05.03.02.18.13.13l.13.25.06.12c.13.01.11.25.25.25.08.1.1.29.23.32l.06.12c.02.05.11.02.12.12v.02c.12.19.27.31.41.43.66.68,1.26,1.44,2.36,1.5.12,0,.21.04.39-.03,0,.05.05.04.1.02.03-.01.05-.02.07-.02.11.07.32-.02.49-.05.07,0,.18-.07.25-.07.1.04.33-.13.52-.22.13-.09.41-.18.44-.26l.09-.05c.24-.32.42-.64.3-.95.06-.07-.04-.24-.12-.23-.05-.07-.1-.13-.15-.19h0s-.51-.61-.51-.61c-.08-.12-.11-.32-.24-.35-.07-.07-.06-.26-.19-.25-.4-.64-.76-1.19-1.17-1.87v-.02c.08-.1-.08-.17-.12-.21.06-.07-.04-.25-.13-.25-.25-.41-.56-1.12-.81-1.53l-.13-.25c-.2-.34-.41-.81-.58-1.07l-.06-.12-.02-.04c.04-.12-.09-.35-.21-.39l-.02-.05-.02-.04-.11-.21c.05-.14-.13-.27-.16-.41-.1-.12-.12-.36-.27-.41l-.04-.07c.08-.1-.07-.18-.08-.27l-.16-.3c.04-.09-.07-.3-.17-.32v-.02s-.05-.07-.05-.07c.08-.08-.07-.17-.08-.25l-.1-.18-.06-.12-.22-.41-.04-.07c-.08-.09-.08-.31-.23-.32l-.12-.23c-.07-.05-.04-.22-.16-.2l-.08-.16-.04-.07-.07-.14v-.02s.04-.02.04-.02l-.05-.09-.24-.44-.24-.44-.35-.66-.53-1-.35-.65-.33-.63-.16-.3-.08-.06-.09-.04-.21.13h.01Z"/>
    </clipPath>
    <clipPath id="clippath-16">
      <path class="cls-12" d="M15.44,24.94s.06,0,.09,0c.02.07.04.07.09.12,0-.04-.02-.1-.05-.16l-.04-.04s-.03-.01-.04-.01c-.04,0-.07.04-.06.09h0Z"/>
    </clipPath>
    <linearGradient id="linear-gradient" x1="-443.17" y1="-10135.67" x2="-441.81" y2="-10135.67" gradientTransform="translate(73.97 -1394.04) scale(.14 -.14)" gradientUnits="userSpaceOnUse">
      <stop offset="0" stop-color="#008ec6"/>
      <stop offset="1" stop-color="#006cb6"/>
    </linearGradient>
    <clipPath id="clippath-17">
      <path class="cls-12" d="M17.7,27.58s-.05.02-.07.05l-.08.06s0,.05-.01.07c-.1.01.07.16.06.21.07.08.12-.06.18-.07.08-.05.12-.11.11-.21-.02,0-.05.03-.07-.01-.01-.07-.04-.11-.08-.12h-.02Z"/>
    </clipPath>
    <linearGradient id="linear-gradient-2" x1="-180.82" y1="-4520.01" x2="-179.46" y2="-4520.01" gradientTransform="translate(68.25 -1192.58) scale(.27 -.27)" xlink:href="#linear-gradient"/>
  </defs>
  <rect class="cls-7" x="222.53" y="8" width=".8" height="34"/>
  <g>
    <g class="cls-14">
      <g class="cls-14">
        <g class="cls-14">
          <g class="cls-14">
            <g class="cls-14">
              <g class="cls-14">
                <path class="cls-10" d="M234.83,19.2h6.8c1,0,1.9.1,2.7.4s1.5.7,2,1.2,1,1.1,1.3,1.8c.3.7.4,1.5.4,2.3h0c0,1-.2,1.9-.5,2.6s-.8,1.3-1.4,1.8c-.6.5-1.3.9-2.1,1.1s-1.7.4-2.6.4h-2.8v5h-3.7v-16.7l-.1.1h0ZM241.43,27.6c.9,0,1.6-.2,2.1-.7s.8-1.1.8-1.8h0c0-.9-.3-1.5-.8-1.9s-1.3-.6-2.2-.6h-2.8v5.1h2.9v-.1Z"/>
                <path class="cls-10" d="M250.73,19.2h7.6c2.1,0,3.7.6,4.9,1.7,1,1,1.4,2.2,1.4,3.8h0c0,1.4-.3,2.5-1,3.3s-1.5,1.5-2.6,1.9l4.1,6h-4.3l-3.6-5.3h-2.9v5.3h-3.7v-16.7h.1ZM258.13,27.3c.9,0,1.6-.2,2.1-.6s.7-1,.7-1.7h0c0-.8-.3-1.4-.8-1.8s-1.2-.6-2.1-.6h-3.6v4.8h3.7v-.1h0Z"/>
                <path class="cls-10" d="M268.13,19.2h3.7v16.7h-3.7v-16.7Z"/>
                <path class="cls-10" d="M275.93,19.2h3.4l7.8,10.3v-10.3h3.6v16.7h-3.1l-8.1-10.6v10.6h-3.6v-16.7h0Z"/>
                <path class="cls-10" d="M298.63,22.6h-5.1v-3.4h13.8v3.4h-5.1v13.3h-3.7v-13.3h.1Z"/>
              </g>
            </g>
          </g>
        </g>
      </g>
    </g>
    <g class="cls-14">
      <g class="cls-14">
        <g class="cls-14">
          <g class="cls-14">
            <g class="cls-14">
              <g class="cls-14">
                <path class="cls-10" d="M318.03,19h6.8c1,0,1.9.1,2.7.4s1.5.7,2,1.2,1,1.1,1.3,1.8c.3.7.4,1.5.4,2.3h0c0,1-.2,1.9-.5,2.6s-.8,1.3-1.4,1.8-1.3.9-2.1,1.1c-.8.2-1.7.4-2.6.4h-2.8v5h-3.7v-16.7l-.1.1h0ZM324.63,27.4c.9,0,1.6-.2,2.1-.7s.8-1.1.8-1.8h0c0-.9-.3-1.5-.8-1.9s-1.3-.6-2.2-.6h-2.8v5.1h2.9v-.1Z"/>
                <path class="cls-10" d="M342.03,36c-1.3,0-2.5-.2-3.5-.7s-2-1.1-2.8-1.8c-.8-.8-1.4-1.7-1.8-2.7s-.7-2.2-.7-3.3h0c0-1.2.2-2.4.7-3.4.4-1,1.1-2,1.8-2.7.8-.8,1.7-1.4,2.8-1.9s2.3-.7,3.6-.7,2.5.2,3.5.7,2,1.1,2.8,1.8,1.4,1.7,1.8,2.7.7,2.2.7,3.3h0c0,1.2-.2,2.4-.7,3.4-.4,1-1.1,2-1.8,2.7-.8.8-1.7,1.4-2.8,1.9-1.1.5-2.3.7-3.6.7ZM342.03,32.6c.7,0,1.4-.1,2-.4.6-.3,1.1-.6,1.6-1.1s.8-1,1-1.7c.2-.6.4-1.3.4-2h0c0-.8-.1-1.4-.4-2.1s-.6-1.2-1-1.7c-.5-.5-1-.9-1.6-1.1-.6-.3-1.3-.4-2-.4s-1.4.1-2,.4-1.1.6-1.6,1.1c-.4.5-.8,1-1,1.7s-.4,1.3-.4,2h0c0,.8.1,1.4.4,2.1s.6,1.2,1,1.7c.5.5,1,.9,1.6,1.1.6.3,1.3.4,2,.4Z"/>
                <path class="cls-10" d="M354.13,19h7.6c2.1,0,3.7.6,4.9,1.7,1,1,1.4,2.2,1.4,3.8h0c0,1.4-.3,2.5-1,3.3s-1.5,1.5-2.6,1.9l4.1,6h-4.3l-3.6-5.3h-2.9v5.3h-3.7v-16.7s.1,0,.1,0ZM361.53,27.1c.9,0,1.6-.2,2.1-.6s.7-1,.7-1.7h0c0-.8-.3-1.4-.8-1.8s-1.2-.6-2.1-.6h-3.6v4.8h3.7v-.1h0Z"/>
                <path class="cls-10" d="M375.23,22.4h-5.1v-3.4h13.8v3.4h-5.1v13.3h-3.7v-13.3h.1Z"/>
                <path class="cls-10" d="M392.53,18.9h3.4l7.1,16.8h-3.8l-1.5-3.7h-7l-1.5,3.7h-3.7l7.1-16.8s-.1,0-.1,0ZM396.33,28.7l-2.2-5.4-2.2,5.4h4.4Z"/>
                <path class="cls-10" d="M405.63,19h3.7v13.4h8.3v3.3h-12v-16.7Z"/>
              </g>
            </g>
          </g>
        </g>
      </g>
    </g>
  </g>
  <g>
    <g>
      <path class="cls-10" d="M75.19,36.67c.19-.5.36-1.03.49-1.61h.03c.07.58.24,1.12.41,1.61l.79,2.31h-2.58l.86-2.31ZM74.62,33.36l-3.88,9.44h-.89v1.61h4.11v-1.61h-1.06l.78-2.12h3.8l.72,2.12h-.9v1.61h4.39v-1.61h-.89l-3.65-9.44h-2.54,0Z"/>
      <g class="cls-24">
        <rect class="cls-10" x="69.85" y="33.36" width="11.85" height="11.05"/>
      </g>
    </g>
    <g>
      <path class="cls-10" d="M96.91,34.97h1.04c1.41,0,1.94.53,1.94,1.61s-.56,1.61-1.8,1.61h-1.19v-3.22h0ZM93.52,33.35v1.61h1.09v7.83h-.99v1.61h4.3v-1.61h-1v-2.91h.54c.41,0,.69.19.91.55l1.34,2.31c.86,1.45,1.26,1.66,1.85,1.66h1.77v-1.61h-.41c-.3,0-.56-.13-.9-.7l-1-1.66c-.55-.92-.87-1.12-1.41-1.17v-.03c1.23-.05,2.6-1.22,2.6-2.86,0-1.12-.49-2.13-1.48-2.62-.63-.32-1.03-.41-2.32-.41h-4.89Z"/>
      <g class="cls-13">
        <rect class="cls-10" x="93.52" y="33.36" width="9.81" height="11.05"/>
      </g>
    </g>
    <g>
      <polygon class="cls-10" points="115.08 33.36 115.08 34.97 116.08 34.97 116.08 42.8 115.08 42.8 115.08 44.41 119.38 44.41 119.38 42.8 118.38 42.8 118.38 34.97 119.38 34.97 119.38 33.36 115.08 33.36"/>
      <g class="cls-21">
        <rect class="cls-10" x="115.08" y="33.36" width="4.3" height="11.05"/>
      </g>
    </g>
    <g>
      <path class="cls-10" d="M131.98,33.36l-.1,3.08h1.99l.09-1.47h3.79v.03c-.24.16-.5.41-.76.76l-5.54,7.12v1.53h8.94l.13-3.08h-2.01l-.09,1.47h-4.19v-.04c.25-.16.49-.41.76-.75l5.43-7.04v-1.61h-8.44Z"/>
      <g class="cls-17">
        <rect class="cls-10" x="131.45" y="33.36" width="9.07" height="11.05"/>
      </g>
    </g>
    <g>
      <path class="cls-10" d="M154.88,38.88c0-2.13.89-3.91,2.97-3.91s2.97,1.78,2.97,3.91-.79,3.92-2.97,3.92-2.97-1.78-2.97-3.92M152.39,38.88c0,3.11,1.59,5.72,5.46,5.72s5.47-2.6,5.47-5.72-1.71-5.72-5.47-5.72c-3.48,0-5.46,2.7-5.46,5.72"/>
      <g class="cls-5">
        <rect class="cls-10" x="152.4" y="33.17" width="10.93" height="11.43"/>
      </g>
    </g>
    <g>
      <path class="cls-10" d="M182.67,33.36v1.61h1.01v5.73h-.03c-.15-.42-.44-.87-.93-1.48l-4.65-5.86h-3.2v1.61h1.4v7.83h-1.03v1.61h3.9v-1.61h-1.07v-5.84h.03c.03.16.25.52.52.86l5.26,6.6h1.71v-9.44h1.09v-1.61h-4Z"/>
      <g class="cls-15">
        <rect class="cls-10" x="174.86" y="33.36" width="11.81" height="11.05"/>
      </g>
    </g>
    <g>
      <path class="cls-10" d="M203.31,36.67c.19-.5.36-1.03.49-1.61h.03c.08.58.24,1.12.41,1.61l.79,2.31h-2.57l.86-2.31h0ZM202.74,33.35l-3.88,9.44h-.88v1.61h4.1v-1.61h-1.06l.79-2.12h3.8l.71,2.12h-.9v1.61h4.38v-1.61h-.88l-3.65-9.44h-2.54,0Z"/>
      <g class="cls-1">
        <rect class="cls-10" x="197.97" y="33.36" width="11.83" height="11.05"/>
      </g>
    </g>
    <g>
      <path class="cls-10" d="M68.52,12.94c0,2.9,1.31,4.4,5.18,5.39l2.06.54c2.52.64,3.06,1.34,3.06,2.31,0,1.42-1.02,2.52-3.33,2.52-1.1,0-2.17-.08-3.16-.49v-2.46h-3.91v4.96c2.52.83,4.67,1.04,6.72,1.04,5.33,0,7.75-2.6,7.75-6.17,0-3.88-3.06-4.8-5.81-5.5l-2.26-.56c-1.23-.3-2.22-.7-2.22-2.06,0-1.04.83-2.38,3.43-2.38.91,0,1.82.21,2.52.46v2.28h3.54v-4.48c-1.61-.61-3.89-1-6.17-1-5.31,0-7.4,2.63-7.4,5.61"/>
      <g class="cls-2">
        <rect class="cls-10" x="63.59" y="5.78" width="24.12" height="22.48" transform="translate(21.62 72.65) rotate(-58.52)"/>
      </g>
    </g>
    <g>
      <path class="cls-10" d="M83.77,12.4v2.74h1.83v8.56h-1.53v2.74h6.89v-2.74h-1.6v-11.29h-5.59ZM84.82,7.73c0,1.4.96,2.33,2.52,2.33s2.52-.94,2.52-2.33-.96-2.33-2.52-2.33-2.52.94-2.52,2.33"/>
      <g class="cls-16">
        <rect class="cls-10" x="76.52" y="7.35" width="21.68" height="17.11" transform="translate(28.17 82.1) rotate(-58.52)"/>
      </g>
    </g>
    <g>
      <path class="cls-10" d="M98.05,14.65c1.75,0,2.85,1.1,2.85,3.03h-5.71c.16-1.91,1.15-3.03,2.86-3.03M91.14,19.47c0,3.89,2.28,7.26,7.69,7.26,1.91,0,3.43-.24,5.18-.89l.19-2.97c-1.58.67-2.74.96-4.53.96-2.63,0-4.35-1.37-4.45-3.59h9.76c0-4.53-1.96-8.18-6.79-8.18-4.39,0-7.05,3.03-7.05,7.4"/>
      <g class="cls-8">
        <rect class="cls-10" x="88.18" y="9.67" width="19.73" height="19.46" transform="translate(30.3 92.89) rotate(-58.52)"/>
      </g>
    </g>
    <g>
      <path class="cls-10" d="M110.88,15.62h-.05c.19-1.31.24-2.25.24-3.22h-5.45v2.74h1.82v8.56h-1.53v2.74h7.05v-2.74h-1.77v-4.53c0-2.31,1.44-3.7,3.48-3.7.37,0,.8.05,1.21.13l.24-3.35c-.4-.08-.78-.16-1.23-.16-2.14,0-3.46,1.18-4.02,3.54"/>
      <g class="cls-9">
        <rect class="cls-10" x="102" y="11.01" width="17.73" height="16.46" transform="translate(36.57 103.74) rotate(-58.52)"/>
      </g>
    </g>
    <path class="cls-10" d="M122.3,15.62h-.05c.19-1.31.24-2.25.24-3.22h-5.44v2.74h1.82v8.56h-1.53v2.74h7.05v-2.74h-1.77v-4.53c0-2.31,1.45-3.7,3.48-3.7.38,0,.81.05,1.21.13l.24-3.35c-.4-.08-.78-.16-1.24-.16-2.14,0-3.45,1.18-4.02,3.54"/>
    <g>
      <path class="cls-10" d="M131.86,22.32c0-1.21.96-1.85,4.02-1.85h1.04c0,2.57-1.5,3.54-3,3.54s-2.07-.86-2.07-1.69M128.78,13.53v3.56h3.22v-1.88c.64-.24,1.8-.4,2.33-.4,1.77,0,2.66.56,2.66,2.68v.67c-2.74,0-4.64.13-6.06.64-1.48.53-2.82,1.85-2.82,3.86,0,2.2,1.53,4.08,4.69,4.08,2.37,0,3.65-.99,4.59-3.11h.05c-.13.54-.19,1.02-.19,1.93v.86h4.72v-2.74h-1.58c.05-1.98.13-3.91.13-6.22,0-4.07-2.38-5.39-6.14-5.39-2.5,0-4.69.94-5.6,1.45"/>
      <g class="cls-11">
        <rect class="cls-10" x="125.16" y="9.66" width="19.75" height="19.48" transform="translate(47.97 124.43) rotate(-58.52)"/>
      </g>
    </g>
    <g>
      <path class="cls-10" d="M165.75,7.65h-7.29v2.73h1.93l-3.67,10.73c-.24.7-.46,1.47-.56,2.25h-.05c-.11-.78-.32-1.55-.56-2.25l-3.67-10.73h1.58v-2.73h-7.62v2.73h1.5l6.31,16.04h4.37l6.31-16.04h1.44v-2.73h0Z"/>
      <g class="cls-18">
        <rect class="cls-10" x="142.57" y="3.63" width="26.41" height="26.79" transform="translate(59.91 140.98) rotate(-58.52)"/>
      </g>
    </g>
    <g>
      <polygon class="cls-10" points="165.72 12.4 165.72 15.14 167.54 15.14 167.54 23.69 166.01 23.69 166.01 26.42 172.91 26.42 172.91 26.42 172.91 23.69 171.29 23.69 171.29 12.4 165.72 12.4"/>
      <path class="cls-10" d="M166.76,7.74c0,1.4.97,2.33,2.52,2.33s2.52-.94,2.52-2.33-.96-2.33-2.52-2.33-2.52.94-2.52,2.33"/>
    </g>
    <path class="cls-10" d="M173.85,16.66c0,2.01,1.04,3.35,3.48,3.73l3.16.48c1.63.24,2.12.64,2.12,1.42,0,1.47-1.96,1.72-2.74,1.72s-1.88-.24-2.5-.46v-1.63h-3.37v3.94c1.5.53,3.83.89,5.52.89,4.88,0,6.63-2.36,6.63-4.85s-1.35-3.78-4.56-4.24l-2.95-.43c-1.07-.16-1.26-.43-1.26-1.1,0-.78.81-1.47,2.52-1.47.69,0,1.41.13,2.17.4v1.42h3.38v-3.46c-2.06-.7-3.94-.94-5.44-.94-2.89,0-6.17,1.13-6.17,4.59"/>
    <path class="cls-10" d="M188.7,9.5v2.89h-1.91v2.74h1.91v7.85c0,2.47,1.47,3.76,4.24,3.76.91,0,1.88-.19,3.26-.67l.13-2.65c-.7.27-1.31.43-1.82.43-1.55,0-2.06-.49-2.06-2.47v-6.24h3.75v-2.74h-3.75v-3.11l-3.75.21h0Z"/>
    <path class="cls-10" d="M200.92,22.32c0-1.21.97-1.85,4.02-1.85h1.05c0,2.57-1.51,3.54-3,3.54s-2.07-.86-2.07-1.69M197.84,13.53v3.56h3.22v-1.88c.65-.24,1.8-.4,2.34-.4,1.77,0,2.65.56,2.65,2.68v.67c-2.74,0-4.64.13-6.06.64-1.47.53-2.82,1.85-2.82,3.86,0,2.2,1.53,4.08,4.69,4.08,2.35,0,3.65-.99,4.59-3.11h.05c-.13.54-.18,1.02-.18,1.93v.86h4.72v-2.74h-1.58c.05-1.98.13-3.91.13-6.22,0-4.07-2.38-5.39-6.14-5.39-2.49,0-4.7.94-5.61,1.45"/>
    <g class="cls-22">
      <rect class="cls-10" x="15" y="23.83" width="47.07" height="20.48"/>
    </g>
    <g class="cls-19">
      <rect x="15.44" y="35.06" width=".33" height=".21"/>
    </g>
    <g class="cls-4">
      <rect class="cls-10" x="11.61" y="5.69" width="42.78" height="27.68"/>
    </g>
    <g class="cls-20">
      <rect class="cls-23" x="15.43" y="24.85" width=".19" height=".21"/>
    </g>
    <g class="cls-3">
      <rect class="cls-6" x="17.44" y="27.58" width=".46" height=".48"/>
    </g>
  </g>
</svg>