<?xml version="1.0" encoding="UTF-8"?>
<svg id="Layer_1" xmlns="http://www.w3.org/2000/svg" version="1.1" xmlns:xlink="http://www.w3.org/1999/xlink" viewBox="0 0 429.2 50">
  <!-- Generator: Adobe Illustrator 29.0.1, SVG Export Plug-In . SVG Version: 2.1.0 Build 192)  -->
  <defs>
    <style>
      .st0 {
        font-family: GothamBold, 'Gotham Bold';
        font-size: 23.8px;
      }

      .st0, .st1 {
        fill: #fff;
      }

      .st0, .st2 {
        isolation: isolate;
      }

      .st3 {
        clip-rule: evenodd;
        fill: none;
      }

      .st4 {
        clip-path: url(#clippath);
      }
    </style>
    <clipPath id="clippath">
      <path class="st3" d="M82.4,21.9c-.4-.4,0-1.4-.4-1.8-.3-.2-.2-1.3-.5-1.6-.2-.2-.3-1.4-.7-1.5-.3-.1-.4-1.2-.8-1.5-.2-.2-.4-1.1-.8-1.3-.3-.2-.5-1.2-1-1.4-.3-.1-.5-1.1-1-1.2-.4-.1-.7-1.1-1.3-1.2-.3,0-.7-.9-1.3-1-.3,0-.9-1-1.6-1-.2,0-.8-.9-1.3-.8-.4,0-.9-.9-1.5-.7-.2,0-1.1-.7-1.5-.5-.2.1-1.1-.6-1.5-.4-.4.1-1.2-.5-1.6-.3-.4.2-1.1-.4-1.6,0-.3.1-1.2-.4-1.8,0-.1,0-1.3-.4-1.6,0-.2.2-1.3-.2-1.6.3-.1.2-1.6,0-1.8.4,0,.2-1.5.2-1.6.8,0,.2-1.2,0-1.5.6-.1.2-1.4.3-1.5.8,0,.3-1.3.4-1.4.9,0,.4-1.2.5-1.2,1,0,.3-1.2.5-1.1,1.3,0,.2-1.1.5-1.1,1.2,0,.2-1.1.9-1,1.3,0,.4-.9,1-.8,1.4,0,.2-.9.9-.7,1.3,0,.3-.8,1-.6,1.5,0,.2-.7,1.2-.4,1.6.1.2-.6,1-.3,1.5.1.2-.6,1-.3,1.5.2.4-.5,1.1-.2,1.6.2.3-.4,1.3,0,1.5.2.2-.2,1.4.2,1.7.4.4,0,1.4.4,1.8.3.2.2,1.3.5,1.6.2.2.3,1.4.7,1.5.3.1.4,1.2.8,1.5.2.2.4,1.1.8,1.3.3.2.5,1.2,1,1.4.3.1.5,1.1,1,1.2.4.1.7,1.1,1.3,1.2.3,0,.7.9,1.3,1,.3,0,.9,1,1.6.9.2,0,.8.9,1.3.8.4,0,.9.9,1.5.7.2,0,1.1.7,1.5.5.2-.1,1,.6,1.5.4.4-.1,1.2.5,1.6.3.4-.2,1.1.4,1.6,0,.3-.1,1.2.4,1.8,0,0,0,1.3.4,1.6,0,.2-.2,1.3.2,1.6-.3.1-.2,1.6,0,1.8-.5,0-.2,1.5-.2,1.6-.8,0-.2,1.2,0,1.5-.6.1-.2,1.4-.3,1.5-.8,0-.3,1.3-.4,1.4-.9,0-.4,1.2-.5,1.2-1,0-.3,1.2-.5,1.1-1.3,0-.2,1.1-.5,1.1-1.2,0-.2,1.1-.9,1-1.3,0-.4.9-1,.8-1.4,0-.2.9-.9.7-1.3,0-.3.8-1,.6-1.5,0-.2.7-1.2.4-1.6-.1-.2.6-1,.3-1.5-.1-.2.6-1,.3-1.5-.2-.4.5-1.2.2-1.6-.2-.3.2-1.2,0-1.5-.1-.3.2-1.4-.2-1.7"/>
    </clipPath>
  </defs>
  <rect class="st1" x="190.1" y="8" width=".8" height="34"/>
  <g>
    <g class="st2">
      <g class="st2">
        <g class="st2">
          <text class="st0" transform="translate(200.4 33.2)"><tspan x="0" y="0">PRINT</tspan></text>
        </g>
      </g>
    </g>
    <g class="st2">
      <g class="st2">
        <g class="st2">
          <text class="st0" transform="translate(283.6 33)"><tspan x="0" y="0">PORTAL</tspan></text>
        </g>
      </g>
    </g>
  </g>
  <circle class="st1" cx="63" cy="25.1" r="20.8"/>
  <g>
    <g>
      <path class="st1" d="M86.9,17.1c0-4.2,3.3-7.2,7.7-7.2s4.8,1,6.2,2.8l-2.9,2.6c-.8-1-1.8-1.6-3-1.6-1.9,0-3.2,1.3-3.2,3.5s1.3,3.5,3.2,3.5,2.2-.6,3-1.6l2.9,2.6c-1.4,1.8-3.5,2.8-6.2,2.8-4.4,0-7.7-3-7.7-7.2,0,0,0,0,0,0Z"/>
      <path class="st1" d="M101.2,17.1c0-4.2,3.3-7.2,7.8-7.2s7.8,3,7.8,7.2-3.3,7.2-7.8,7.2-7.8-3-7.8-7.2ZM112.1,17.1c0-2.2-1.4-3.5-3.1-3.5s-3.1,1.3-3.1,3.5,1.4,3.5,3.1,3.5,3.1-1.3,3.1-3.5Z"/>
      <path class="st1" d="M117.6,17.1c0-4.2,3.3-7.2,7.7-7.2s4.8,1,6.2,2.8l-2.9,2.6c-.8-1-1.8-1.6-3-1.6-1.9,0-3.2,1.3-3.2,3.5s1.3,3.5,3.2,3.5,2.2-.6,3-1.6l2.9,2.6c-1.4,1.8-3.5,2.8-6.2,2.8-4.4,0-7.7-3-7.7-7.2h0Z"/>
      <path class="st1" d="M146.1,10.2v13.8h-4.7v-5.1h-4.3v5.1h-4.7v-13.8h4.7v4.9h4.3v-4.9s4.7,0,4.7,0Z"/>
      <path class="st1" d="M148,10.2h4.7v13.8h-4.7v-13.8Z"/>
      <path class="st1" d="M153.7,23l1.5-3.4c1.3.8,3,1.3,4.6,1.3s1.8-.3,1.8-.8c0-1.7-7.7-.3-7.7-5.5s2.2-4.7,6.4-4.7,3.8.4,5.2,1.2l-1.4,3.4c-1.4-.7-2.6-1-3.9-1s-1.8.4-1.8.9c0,1.7,7.7.3,7.7,5.4s-2.2,4.7-6.4,4.7-4.6-.6-6-1.4h0Z"/>
      <path class="st1" d="M178.6,20.5v3.5h-11.5v-13.8h11.2v3.5h-6.7v1.6h5.9v3.4h-5.9v1.8h6.9Z"/>
    </g>
    <g>
      <path class="st1" d="M86.9,34.3c0-4.2,3.3-7.2,7.7-7.2s4.8,1,6.2,2.8l-2.9,2.6c-.8-1-1.8-1.6-3-1.6-1.9,0-3.2,1.3-3.2,3.5s1.3,3.5,3.2,3.5,2.2-.6,3-1.6l2.9,2.6c-1.4,1.8-3.5,2.8-6.2,2.8-4.4,0-7.7-3-7.7-7.2,0,0,0,0,0,0Z"/>
      <path class="st1" d="M102,34.3c0-4.2,3.3-7.2,7.8-7.2s7.8,3,7.8,7.2-3.3,7.2-7.8,7.2-7.8-3-7.8-7.2ZM112.9,34.3c0-2.2-1.4-3.5-3.1-3.5s-3.1,1.3-3.1,3.5,1.4,3.5,3.1,3.5,3.1-1.3,3.1-3.5Z"/>
      <path class="st1" d="M119.6,35v-7.6h4.7v7.5c0,2.1.8,2.9,2.1,2.9s2.1-.8,2.1-2.9v-7.5h4.6v7.6c0,4.2-2.5,6.5-6.7,6.5s-6.7-2.4-6.7-6.5Z"/>
      <path class="st1" d="M149.2,27.4v13.8h-3.8l-5.3-6.3v6.3h-4.5v-13.8h3.8l5.3,6.3v-6.3h4.5Z"/>
      <path class="st1" d="M154.9,31h-4.1v-3.6h12.8v3.6h-4.1v10.2h-4.7v-10.2h0Z"/>
      <path class="st1" d="M173.4,36.2v5h-4.7v-5.1l-5.2-8.8h4.9l2.8,4.8,2.9-4.8h4.5l-5.2,8.8Z"/>
    </g>
  </g>
  <g class="st4">
    <image width="900" height="900" transform="translate(43.3 5.4) scale(0)" xlink:href="cochisecounty-logo-01.jpg"/>
  </g>
</svg>