<?xml version="1.0" encoding="UTF-8"?>
<svg id="Layer_1" xmlns="http://www.w3.org/2000/svg" version="1.1" viewBox="0 0 429.2 50">
  <!-- Generator: Adobe Illustrator 29.0.1, SVG Export Plug-In . SVG Version: 2.1.0 Build 192)  -->
  <defs>
    <style>
      .st0 {
        fill: #fff;
      }

      .st1 {
        isolation: isolate;
      }

      .st2 {
        fill: #da0016;
        fill-rule: evenodd;
      }
    </style>
  </defs>
  <rect class="st0" x="181.6" y="8" width=".8" height="34"/>
  <g>
    <g class="st1">
      <g class="st1">
        <g class="st1">
          <g class="st1">
            <g class="st1">
              <path class="st0" d="M193.9,16.5h6.8c1,0,1.9.1,2.7.4.8.3,1.5.7,2,1.2.5.5,1,1.1,1.3,1.8.3.7.4,1.5.4,2.3h0c0,1-.2,1.9-.5,2.6-.3.7-.8,1.3-1.4,1.8-.6.5-1.3.9-2.1,1.1-.8.2-1.7.4-2.6.4h-2.8v5h-3.7v-16.7ZM200.5,24.9c.9,0,1.6-.2,2.1-.7s.8-1.1.8-1.8h0c0-.9-.3-1.5-.8-1.9-.5-.4-1.3-.6-2.2-.6h-2.8v5.1h2.9Z"/>
              <path class="st0" d="M209.8,16.5h7.6c2.1,0,3.7.6,4.9,1.7,1,1,1.4,2.2,1.4,3.8h0c0,1.4-.3,2.5-1,3.3s-1.5,1.5-2.6,1.9l4.1,6h-4.3l-3.6-5.3h-2.9v5.3h-3.7v-16.7ZM217.2,24.6c.9,0,1.6-.2,2.1-.6.5-.4.7-1,.7-1.7h0c0-.8-.3-1.4-.8-1.8s-1.2-.6-2.1-.6h-3.6v4.8h3.7Z"/>
              <path class="st0" d="M227.2,16.5h3.7v16.7h-3.7v-16.7Z"/>
              <path class="st0" d="M235,16.5h3.4l7.8,10.3v-10.3h3.6v16.7h-3.1l-8.1-10.6v10.6h-3.6v-16.7Z"/>
              <path class="st0" d="M257.7,19.9h-5.1v-3.4h13.8v3.4h-5.1v13.3h-3.7v-13.3Z"/>
            </g>
          </g>
        </g>
      </g>
    </g>
    <g class="st1">
      <g class="st1">
        <g class="st1">
          <g class="st1">
            <g class="st1">
              <path class="st0" d="M277.1,16.3h6.8c1,0,1.9.1,2.7.4.8.3,1.5.7,2,1.2.5.5,1,1.1,1.3,1.8.3.7.4,1.5.4,2.3h0c0,1-.2,1.9-.5,2.6-.3.7-.8,1.3-1.4,1.8-.6.5-1.3.9-2.1,1.1-.8.2-1.7.4-2.6.4h-2.8v5h-3.7v-16.7ZM283.7,24.7c.9,0,1.6-.2,2.1-.7s.8-1.1.8-1.8h0c0-.9-.3-1.5-.8-1.9-.5-.4-1.3-.6-2.2-.6h-2.8v5.1h2.9Z"/>
              <path class="st0" d="M301.1,33.3c-1.3,0-2.5-.2-3.5-.7s-2-1.1-2.8-1.8c-.8-.8-1.4-1.7-1.8-2.7s-.7-2.2-.7-3.3h0c0-1.2.2-2.4.7-3.4s1.1-2,1.8-2.7,1.7-1.4,2.8-1.9,2.3-.7,3.6-.7,2.5.2,3.5.7c1.1.5,2,1.1,2.8,1.8.8.8,1.4,1.7,1.8,2.7.4,1,.7,2.2.7,3.3h0c0,1.2-.2,2.4-.7,3.4-.4,1-1.1,2-1.8,2.7s-1.7,1.4-2.8,1.9-2.3.7-3.6.7ZM301.1,29.9c.7,0,1.4-.1,2-.4.6-.3,1.1-.6,1.6-1.1.4-.5.8-1,1-1.7.2-.6.4-1.3.4-2h0c0-.8-.1-1.4-.4-2.1-.2-.6-.6-1.2-1-1.7-.5-.5-1-.9-1.6-1.1-.6-.3-1.3-.4-2-.4s-1.4.1-2,.4c-.6.3-1.1.6-1.6,1.1-.4.5-.8,1-1,1.7s-.4,1.3-.4,2h0c0,.8.1,1.4.4,2.1s.6,1.2,1,1.7c.5.5,1,.9,1.6,1.1.6.3,1.3.4,2,.4Z"/>
              <path class="st0" d="M313.2,16.3h7.6c2.1,0,3.7.6,4.9,1.7,1,1,1.4,2.2,1.4,3.8h0c0,1.4-.3,2.5-1,3.3-.7.8-1.5,1.5-2.6,1.9l4.1,6h-4.3l-3.6-5.3h-2.9v5.3h-3.7v-16.7ZM320.6,24.4c.9,0,1.6-.2,2.1-.6.5-.4.7-1,.7-1.7h0c0-.8-.3-1.4-.8-1.8s-1.2-.6-2.1-.6h-3.6v4.8h3.7Z"/>
              <path class="st0" d="M334.3,19.7h-5.1v-3.4h13.8v3.4h-5.1v13.3h-3.7v-13.3Z"/>
              <path class="st0" d="M351.6,16.2h3.4l7.1,16.8h-3.8l-1.5-3.7h-7l-1.5,3.7h-3.7l7.1-16.8ZM355.4,26l-2.2-5.4-2.2,5.4h4.4Z"/>
              <path class="st0" d="M364.7,16.3h3.7v13.4h8.3v3.3h-12v-16.7Z"/>
            </g>
          </g>
        </g>
      </g>
    </g>
  </g>
  <g>
    <path class="st0" d="M102.9,17.1c-.7-.5-1.6-1-2.6-1s-2.4.9-2.4,2,1.1,1.9,2.5,1.9,1.8-.4,2.5-.9v3.7c-.8.3-2.5.4-3.3.4-3.5,0-6.2-2.2-6.2-5.1s2.8-5.3,6.3-5.3,2,.1,3,.4v3.8h.2Z"/>
    <path class="st0" d="M117.8,18c0,3.2-3,5.1-6.7,5.1s-6.7-1.9-6.7-5.1,3-5.2,6.7-5.2,6.7,2,6.7,5.2M108.8,18.1c0,1.1.9,1.9,2.3,1.9s2.3-.8,2.3-1.9-.9-2-2.3-2-2.3.9-2.3,2"/>
    <path class="st0" d="M128.6,17.1c-.7-.5-1.6-1-2.6-1s-2.4.9-2.4,2,1.1,1.9,2.5,1.9,1.8-.4,2.5-.9v3.7c-.8.3-2.5.4-3.3.4-3.5,0-6.2-2.2-6.2-5.1s2.8-5.3,6.3-5.3,2,.1,3,.4v3.8h.2Z"/>
    <polygon class="st0" points="130.5 13 134.8 13 134.8 16.4 137.5 16.4 137.5 13 141.7 13 141.7 23 137.5 23 137.5 19.5 134.8 19.5 134.8 23 130.5 23 130.5 13"/>
    <rect class="st0" x="144.1" y="13" width="4.4" height="10"/>
    <path class="st0" d="M151.5,19.4h.2c.8.6,1.7,1.1,2.8,1.1s1.1-.1,1.1-.6-.6-.5-1-.6h-.9c-1.7-.4-3.2-1.2-3.2-2.8,0-2.4,2.6-3.7,5.3-3.7s2.7.3,3.8.9l-1.2,2.6c-.8-.4-1.6-.8-2.6-.8s-.9.1-.9.5.5.4.9.5l1,.2c1.9.3,3.2,1.2,3.2,2.9s-2.6,3.6-5.3,3.6-3.3-.3-4.7-.9l1.4-2.8h0Z"/>
    <polygon class="st0" points="161.7 13 169.9 13 169.9 15.7 166.2 15.7 166.2 16.7 169.6 16.7 169.6 19.3 166.2 19.3 166.2 20.3 170 20.3 170 23 161.7 23 161.7 13"/>
    <path class="st0" d="M102.8,30.3c-.7-.5-1.6-1-2.6-1s-2.4.9-2.4,2,1.1,1.9,2.5,1.9,1.8-.4,2.5-.9v3.7c-.8.3-2.5.4-3.3.4-3.5,0-6.2-2.2-6.2-5.1s2.8-5.3,6.3-5.3,2,.1,3,.4v3.8h.2Z"/>
    <path class="st0" d="M117.4,31.3c0,3.2-3,5.1-6.7,5.1s-6.7-1.9-6.7-5.1,3-5.2,6.7-5.2,6.7,2,6.7,5.2M108.4,31.3c0,1.1.9,1.9,2.3,1.9s2.3-.8,2.3-1.9-.9-2-2.3-2-2.3.9-2.3,2"/>
    <polygon class="st0" points="118.9 26.3 123.3 26.3 123.3 33.1 127 33.1 127 36.3 118.9 36.3 118.9 26.3"/>
    <polygon class="st0" points="128.2 26.3 132.6 26.3 132.6 33.1 136.3 33.1 136.3 36.3 128.2 36.3 128.2 26.3"/>
    <polygon class="st0" points="137.5 26.3 145.6 26.3 145.6 29 141.9 29 141.9 30 145.3 30 145.3 32.6 141.9 32.6 141.9 33.5 145.8 33.5 145.8 36.3 137.5 36.3 137.5 26.3"/>
    <path class="st0" d="M160.4,30.4c0,1.6,0,3-1.5,4.3-1.3,1.2-3.3,1.8-5.1,1.8-3.7,0-6.7-1.9-6.7-5.1s2.9-5.2,6.7-5.2,5,.9,6,2.6l-4.1,1.2c-.3-.5-1-.8-1.7-.8-1.6,0-2.4,1.1-2.4,2.3s.8,2.1,2.3,2.1,1.6-.3,1.8-.9h-2v-2.4h6.8-.1Z"/>
    <polygon class="st0" points="161.8 26.3 170 26.3 170 29 166.3 29 166.3 30 169.7 30 169.7 32.6 166.3 32.6 166.3 33.5 170.1 33.5 170.1 36.3 161.8 36.3 161.8 26.3"/>
    <path class="st0" d="M91.1,25.1c0,10.8-8.8,19.6-19.6,19.6s-19.6-8.8-19.6-19.6,8.8-19.6,19.6-19.6,19.6,8.8,19.6,19.6"/>
    <path class="st2" d="M64,25.1c0,2.8,1.6,5.3,4,6.5-.9.3-1.7.3-2.3.3-3.4,0-3.9-2.5-3.9-3.7,0-1.8,1.2-3.8,2.6-5.5-.2.7-.4,1.5-.4,2.3M88,32.2c-2.8,6.4-9.2,11-16.7,11s-3.8-.3-5.5-.8c.8,0,1.6.2,2.4.2,3.8,0,7.8-1.1,11-2.9,2.1-1.2,6.4-4.2,8.7-7.4M89.5,26.2c0,1.4-.3,2.7-.7,4-1.4,3.1-6.9,7.2-10.2,8.7-4.7,2.1-8.8,2.5-10.7,2.5s-2.5-.2-3.1-.3c-4.2-.8-5.8-3-6.5-4.8-.6-1.5-.6-3.2-.6-3.7,0-7.6,5.3-17.8,11.3-22.4,3-2.3,5.4-2.6,7-2.6s1.6.2,2,.4c1.4.5,3.7,2.1,3.7,5.9s-.8,5.3-3.2,9c-.8-2.9-3.5-5.1-6.6-5.3,2.6-1,5-1.6,5.3-1.7,0,0-4.4,0-9.3,2.5-5.6,2.8-6.6,7.5-6.6,9.4,0,3.1,2.1,4.1,3.2,4.5.9.3,1.9.4,2.2.4,1.2,0,2.3-.2,3.3-.5.5,0,.9,0,1.4,0,3.7,0,6.7-2.7,7.2-6.2h10.9,0ZM81.2,9.8c4.7,3,7.9,8.1,8.3,14.1h-9.5c.8-1.3,1.5-2.7,1.9-4,.5-1.5.7-3.1.7-4.7,0-2.4-.6-4.1-1.5-5.3M53.2,25.1c0-10,8.1-18.1,18.1-18.1s1.7,0,2.5.2c-2.8.4-6.8,1.9-10.8,5.7-4.2,4-6.1,8-6.9,10.1-1.4,3.5-1.6,5.8-1.6,7.4s0,1.2,0,2c-1-2.2-1.5-4.7-1.5-7.2"/>
  </g>
</svg>