<?xml version="1.0" encoding="UTF-8"?>
<svg id="Layer_1" xmlns="http://www.w3.org/2000/svg" version="1.1" viewBox="0 0 429.2 50">
  <!-- Generator: Adobe Illustrator 29.0.1, SVG Export Plug-In . SVG Version: 2.1.0 Build 192)  -->
  <defs>
    <style>
      .st0 {
        fill: #0196a9;
      }

      .st1 {
        fill: #fff;
      }

      .st2 {
        isolation: isolate;
      }
    </style>
  </defs>
  <rect class="st1" x="200.4" y="8" width=".8" height="34"/>
  <g>
    <g class="st2">
      <g class="st2">
        <g class="st2">
          <g class="st2">
            <g class="st2">
              <g class="st2">
                <path class="st1" d="M212.7,19.2h6.8c1,0,1.9.1,2.7.4s1.5.7,2,1.2,1,1.1,1.3,1.8c.3.7.4,1.5.4,2.3h0c0,1-.2,1.9-.5,2.6-.3.7-.8,1.3-1.4,1.8-.6.5-1.3.9-2.1,1.1-.8.2-1.7.4-2.6.4h-2.8v5h-3.7v-16.7ZM219.3,27.6c.9,0,1.6-.2,2.1-.7s.8-1.1.8-1.8h0c0-.9-.3-1.5-.8-1.9-.5-.4-1.3-.6-2.2-.6h-2.8v5.1h2.9Z"/>
                <path class="st1" d="M228.6,19.2h7.6c2.1,0,3.7.6,4.9,1.7,1,1,1.4,2.2,1.4,3.8h0c0,1.4-.3,2.5-1,3.3s-1.5,1.5-2.6,1.9l4.1,6h-4.3l-3.6-5.3h-2.9v5.3h-3.7v-16.7ZM236,27.3c.9,0,1.6-.2,2.1-.6.5-.4.7-1,.7-1.7h0c0-.8-.3-1.4-.8-1.8s-1.2-.6-2.1-.6h-3.6v4.8h3.7Z"/>
                <path class="st1" d="M246,19.2h3.7v16.7h-3.7v-16.7Z"/>
                <path class="st1" d="M253.8,19.2h3.4l7.8,10.3v-10.3h3.6v16.7h-3.1l-8.1-10.6v10.6h-3.6v-16.7Z"/>
                <path class="st1" d="M276.5,22.6h-5.1v-3.4h13.8v3.4h-5.1v13.3h-3.7v-13.3Z"/>
              </g>
            </g>
          </g>
        </g>
      </g>
    </g>
    <g class="st2">
      <g class="st2">
        <g class="st2">
          <g class="st2">
            <g class="st2">
              <g class="st2">
                <path class="st1" d="M295.9,19h6.8c1,0,1.9.1,2.7.4s1.5.7,2,1.2,1,1.1,1.3,1.8c.3.7.4,1.5.4,2.3h0c0,1-.2,1.9-.5,2.6-.3.7-.8,1.3-1.4,1.8-.6.5-1.3.9-2.1,1.1-.8.2-1.7.4-2.6.4h-2.8v5h-3.7v-16.7ZM302.5,27.4c.9,0,1.6-.2,2.1-.7s.8-1.1.8-1.8h0c0-.9-.3-1.5-.8-1.9-.5-.4-1.3-.6-2.2-.6h-2.8v5.1h2.9Z"/>
                <path class="st1" d="M319.9,36c-1.3,0-2.5-.2-3.5-.7s-2-1.1-2.8-1.8c-.8-.8-1.4-1.7-1.8-2.7-.4-1-.7-2.2-.7-3.3h0c0-1.2.2-2.4.7-3.4.4-1,1.1-2,1.8-2.7.8-.8,1.7-1.4,2.8-1.9s2.3-.7,3.6-.7,2.5.2,3.5.7,2,1.1,2.8,1.8,1.4,1.7,1.8,2.7c.4,1,.7,2.2.7,3.3h0c0,1.2-.2,2.4-.7,3.4-.4,1-1.1,2-1.8,2.7-.8.8-1.7,1.4-2.8,1.9-1.1.5-2.3.7-3.6.7ZM319.9,32.6c.7,0,1.4-.1,2-.4.6-.3,1.1-.6,1.6-1.1s.8-1,1-1.7c.2-.6.4-1.3.4-2h0c0-.8-.1-1.4-.4-2.1s-.6-1.2-1-1.7c-.5-.5-1-.9-1.6-1.1-.6-.3-1.3-.4-2-.4s-1.4.1-2,.4c-.6.3-1.1.6-1.6,1.1-.4.5-.8,1-1,1.7s-.4,1.3-.4,2h0c0,.8.1,1.4.4,2.1s.6,1.2,1,1.7c.5.5,1,.9,1.6,1.1.6.3,1.3.4,2,.4Z"/>
                <path class="st1" d="M332,19h7.6c2.1,0,3.7.6,4.9,1.7,1,1,1.4,2.2,1.4,3.8h0c0,1.4-.3,2.5-1,3.3s-1.5,1.5-2.6,1.9l4.1,6h-4.3l-3.6-5.3h-2.9v5.3h-3.7v-16.7ZM339.4,27.1c.9,0,1.6-.2,2.1-.6.5-.4.7-1,.7-1.7h0c0-.8-.3-1.4-.8-1.8s-1.2-.6-2.1-.6h-3.6v4.8h3.7Z"/>
                <path class="st1" d="M353.1,22.4h-5.1v-3.4h13.8v3.4h-5.1v13.3h-3.7v-13.3Z"/>
                <path class="st1" d="M370.4,18.9h3.4l7.1,16.8h-3.8l-1.5-3.7h-7l-1.5,3.7h-3.7l7.1-16.8ZM374.2,28.7l-2.2-5.4-2.2,5.4h4.4Z"/>
                <path class="st1" d="M383.5,19h3.7v13.4h8.3v3.3h-12v-16.7Z"/>
              </g>
            </g>
          </g>
        </g>
      </g>
    </g>
  </g>
  <g>
    <path class="st1" d="M45.9,43.1h0c0-.2.2-.2.2-.2h0s0-.3,0-.7c0-1,.2-1.5.2-1.7,0-.6,0-.9,0-1h0c0,0-.2,0-.4,0v-.2h2.5c.2,0,.3,0,.4.3,0,0,.2.2.3.4,0,.2,0,.5,0,.8s0,.6-.2.9c0,.3-.2.6-.4.8s-.4.4-.6.5c-.2,0-.3.2-.5.2h-1.4M46.6,42.8h.8c.2,0,.4,0,.6,0,0,0,.2,0,.3-.2,0,0,.2-.2.3-.3,0-.2.2-.4.3-.7,0-.3,0-.5,0-.8s0-.5,0-.7c0-.2-.2-.3-.4-.4-.2,0-.5,0-.8,0h-.6l-.2,1.1c0,.4-.2,1-.3,1.7v.6"/>
    <path class="st1" d="M52.1,42.5h0c-.2.3-.4.4-.6.5-.2,0-.3,0-.5,0h-.3s-.2,0-.2-.2v-1.1c0-.3,0-.4.2-.6,0,0,0-.2.3-.3s.3-.3.5-.3h.3c0,0,.2,0,.3,0,0,0,0,.2,0,.3v.3s0,.2,0,.2c0,0-.2.2-.4.3-.2,0-.3,0-.5.2h-.3v.5c0,.2,0,.3,0,.4,0,0,.2,0,.3,0h.3c0,0,.3-.2.5-.3M51,41.7c.2,0,.4,0,.6-.2.2,0,.3-.2.3-.3s0-.2,0-.4v-.2h-.5s-.2.2-.2.3,0,.4-.2.8"/>
    <path class="st1" d="M53.2,44.6h0c0-.5,0-.8.2-1.1,0-.8.2-1.4.3-1.8,0-.3,0-.5,0-.8h0c0-.2,0,0,0,0h-.3c0,0,0,0,0,0,.2-.2.4-.3.6-.4,0,0,.2,0,.3,0s0,0,0,0h0v.8c0-.3.3-.5.5-.6.2-.2.3-.3.5-.3h.5s0,0,0,.2v.4c0,.2,0,.5,0,.8,0,.2-.2.4-.3.6,0,.2-.2.3-.4.4-.2,0-.3.2-.5.3h-.2c-.1,0,0,0,0,0h-.2v1.5h-.5M53.8,42.8c0,0,.3,0,.4,0h.3s.2-.2.2-.3c0-.2.2-.5.3-.7v-1h-.4s-.2,0-.3.2c0,0-.2.3-.3.5,0,.2-.2.4-.2.6,0,0,0,.3,0,.7"/>
    <path class="st1" d="M58.2,42.5h0c-.2.3-.4.4-.6.5-.2,0-.3,0-.5,0h-.3s-.2,0-.2-.2v-1.1c0-.3,0-.4.2-.6,0,0,0-.2.3-.3s.3-.3.5-.3h.3c0,0,.2,0,.3,0,0,0,0,.2,0,.3v.3s0,.2,0,.2c0,0-.2.2-.4.3-.2,0-.3,0-.5.2h-.3v.5c0,.2,0,.3,0,.4,0,0,.2,0,.3,0h.3c0,0,.3-.2.5-.3M57,41.7c.2,0,.4,0,.6-.2.2,0,.3-.2.3-.3s0-.2,0-.4v-.2h-.5s-.2.2-.2.3,0,.4-.2.8"/>
    <path class="st1" d="M59.6,43.1h0c0-.4.2-.9.3-1.5,0-.4,0-.7,0-.8s0,0,0,0h-.4c0,0,0,0,0,0l.2-.2s.2,0,.3-.2c0,0,.2,0,.2,0h0v1.2c0,0,0,0,0,0,0-.3.3-.5.5-.7s.4-.4.6-.5c0,0,.3,0,.3,0h0c0,.2,0,.5-.2,1-.2.7-.2,1-.2,1.2s0,0,0,0h0c0,0,.2,0,.3-.2h0c0,.2-.3.3-.4.4-.2,0-.3.2-.4.2h-.2v-.4c0,0,0-.4.2-.9,0-.5.2-.8.2-1s0,0,0,0h-.2c0,0-.3.2-.4.4,0,.2-.3.3-.3.5s-.2.4-.2.7,0,.3,0,.7h-.3"/>
    <path class="st1" d="M65.1,42.5h0c0,.2-.2.3-.3.4,0,0-.2.2-.3.2h0c0,0,0,0,0,0v-.4s0-.3.2-.8h0c0,.2-.3.5-.5.7l-.5.5h-.3q0,0-.2-.2v-1.1c0-.3,0-.5.2-.7,0-.2.2-.3.2-.4,0,0,.3-.3.5-.4h.7v-.7c.2,0,.2-.2.2-.3h0q0,0,0,0h-.2c.2,0,.4,0,.4,0,0,0,.2,0,.3-.2h0c0,.2,0,.4,0,.8,0,.2,0,.8-.3,1.8,0,.5,0,.8-.2,1v.2c0,.1,0,0,0,0h0c0,0,.2-.2.3-.2M64.7,40.8c-.2,0-.3,0-.5,0h-.3s0,0,0,0c0,0,0,.2-.2.4,0,.2,0,.4,0,.5v.9h0c0,0,.3-.2.4-.3,0,0,.2-.3.3-.4,0-.2.2-.3.2-.5s0-.4.2-.7"/>
    <path class="st1" d="M68.2,42.5h0c0,0-.4.4-.4.4,0,0-.2.2-.3.2h0c0-.3,0-.6.2-1.1h0c0,.2-.2.3-.3.4,0,.2-.3.3-.4.5,0,0-.3.2-.4.3h0v-.4c0-.2,0-.5,0-.8,0-.3.2-.6.3-.8,0,0,0-.2.2-.3.2,0,.3-.2.5-.3h1c0,0,0,0,0,0,0,.4-.2.8-.3,1.2,0,.2,0,.4,0,.5v.5h0s0,0,.3-.2M67.8,40.7h-.7v.2c0,.2-.3.4-.3.7,0,.4-.2.7-.2,1s0,0,0,0h.2c0,0,.3-.2.4-.4s.3-.4.4-.6c0-.2.2-.5.2-.9"/>
    <path class="st1" d="M69.9,41.2c0-.2.2-.3.3-.4,0,0,.2-.2.3-.3,0,0,.2,0,.3-.2h.5v.5c0,.2,0,.6-.2,1,0,.3-.2.5-.4.6,0,.2-.3.3-.5.4-.2,0-.3.2-.5.2s-.3,0-.4,0c0,0-.2-.2-.2-.3h0v-.4c0-.3.2-1,.4-2.2v-.6h-.4c.2-.2.4-.2.5-.2,0,0,.2,0,.3,0h0v.4M69.7,42.5c0,0,0,.2,0,.3,0,0,.2,0,.3,0s.3,0,.4-.2c0,0,.3-.4.4-.7s.2-.7.2-.9v-.3h-.3s-.2,0-.2.2c0,0-.2.2-.2.3s0,.2-.2.3c0,0,0,.3,0,.5v.5"/>
    <path class="st1" d="M73.4,42.5h0c0,.2,0,.2-.3.4-.2,0-.3.2-.4.3h-.2v-.4c0,0,0-.5.2-1.2,0-.5.2-.8.2-1,0-.4,0-.7.2-.9h0v-.2h-.3c.2,0,.3,0,.4,0s.2,0,.4,0h0c0,.2-.2.9-.4,2-.2.9-.3,1.4-.3,1.6h0s0,0,.2,0"/>
    <path class="st1" d="M76.1,42.5h0c-.2.3-.4.4-.6.5-.2,0-.3,0-.5,0h-.3s-.2,0-.2-.2v-1.1c0-.3,0-.4.2-.6,0,0,0-.2.3-.3.2,0,.3-.3.5-.3h.3c.1,0,.2,0,.3,0,0,0,0,.2,0,.3v.3s0,.2,0,.2c0,0-.2.2-.4.3-.2,0-.3,0-.5.2h-.3v.5c0,.2,0,.3,0,.4,0,0,.2,0,.3,0h.3c0,0,.3-.2.5-.3M75,41.7c.2,0,.4,0,.6-.2.2,0,.3-.2.3-.3s0-.2,0-.4v-.2h-.5s-.2.2-.2.3,0,.4-.2.8"/>
    <path class="st1" d="M77.8,42.8v-.3s0,0,.2,0h.2v.5s0,0-.2,0h-.2v-.2"/>
    <path class="st1" d="M80.2,43h.2q.2,0,.2,0v-.5h-.2q-.2,0-.2,0v.5"/>
    <path class="st1" d="M82.5,42.8v-.3s0,0,.2,0h.2v.5s0,0-.2,0h-.2v-.2"/>
    <path class="st1" d="M84.7,43.1v-.2h.3c0-.2,0-.6.2-1.4.2-1,.3-1.6.3-1.8v-.2h-.5v-.2h.9l.2.3.2.4,1.4,2.6.3-1.9c0-.3,0-.6,0-.9v-.2h0c0,0,0,0-.3,0v-.2h1.1v.2h-.3s0,.2,0,.5l-.2,1c-.2.9-.3,1.7-.3,2.2h-.3s0,0,0-.3c0,0,0-.2-.2-.3l-1.4-2.7-.2,1.5s0,.2,0,.7v.5h0v.2h.3v.2h-1"/>
    <path class="st1" d="M89.8,42.3v-.6c0-.2,0-.4.2-.5,0,0,.2-.3.3-.4,0,0,.2-.2.4-.3,0,0,.3,0,.4,0h.3c0,0,.2,0,.3.3v.5c0,.2,0,.6-.2.9,0,.2-.2.4-.3.6,0,0-.2.3-.4.4-.2,0-.3,0-.5,0s-.4,0-.5-.2c0,0-.2-.4-.2-.6M90.2,42.2v.4s0,.2.2.2h.6s.2-.2.2-.3c0-.2,0-.4.2-.6v-.6c0-.2,0-.4,0-.5,0,0-.2-.2-.3-.2-.2,0-.4.2-.6.5,0,.3-.2.7-.2,1.2"/>
    <path class="st1" d="M94.4,42.4h0c-.2.2-.3.4-.4.5s-.3.2-.3.2h-.2v-1.2c0-.2.2-.5.3-1h-.4c0,0,.2,0,.3,0h.2v-.9h.2c0,0,.2-.2.2-.2h0c0,.3,0,.5,0,.5,0,0,0,.3,0,.7h.6v.3h-.5c0,.2,0,.4,0,.8,0,.4,0,.6,0,.8v.2c0,.1,0,0,0,0h0s0,0,.2,0"/>
    <path class="st1" d="M97.2,44.2v-.2h.3c0,0,0-.4.2-.6,0-.2,0-.7.2-1.7l.2-1.3c0-.5,0-.8,0-.9s0,0,0,0h-.4v-.2h1.4c0,0-.2,0-.3,0h0c0,.2,0,.6-.2,1.2,0,.9-.2,1.5-.2,1.6v.7c0,.2,0,.4-.2.6,0,.2,0,.3-.2.4l-.2.2h-.4"/>
    <path class="st1" d="M100,41h0c.2-.2.4-.4.6-.5h.2v.3c-.2,1.1-.3,1.7-.3,1.9s0,0,0,0h0c0,0,.3-.2.4-.4.2-.2.3-.4.4-.6,0,0,0-.3.2-.5,0-.2,0-.5.2-.8h.3v.5c0,.3,0,.5-.2.9,0,.3,0,.5,0,.7v.2c0,.1,0,0,0,0h0s0,0,.3-.2h0c-.3.4-.5.5-.6.6h-.2v-.2s0-.3,0-.5v-.5c0,0,0,0,0,0-.2.3-.3.4-.3.5,0,.2-.3.3-.5.5s-.3.3-.5.3h-.2v-.9c0-.4.2-.8.2-1v-.3h0s-.2,0-.4.2"/>
    <path class="st1" d="M103.3,43v-.7h0v.5s.2,0,.2.2h.6s.2,0,.2-.2v-.5s0,0,0,0h-.3c-.2,0-.4,0-.4,0,0,0,0,0-.2-.2v-.6s0-.2.2-.3c0,0,.2,0,.3-.2,0,0,.2,0,.3,0h.6s.2,0,.2,0v.6h0v-.3s0,0-.2-.2h-.3c-.2,0-.3,0-.4.2,0,0,0,.2,0,.4v.3l.4.2h.4s.2,0,.2.2v.7c0,0,0,.2-.2.3s-.2.2-.4.3c0,0-.3,0-.4,0h-.3s-.2,0-.3,0"/>
    <path class="st1" d="M107.3,42.4h0c-.2.2-.3.4-.4.5s-.3.2-.3.2h-.2v-1.2c0-.2.2-.5.3-1h-.4c0,0,.2,0,.3,0h.2v-.9h.2c0,0,.2-.2.2-.2h0c0,.3,0,.5,0,.5,0,0,0,.3,0,.7h.6v.3h-.5c0,.2,0,.4,0,.8,0,.4,0,.6,0,.8v.2c0,.1,0,0,0,0h0s0,0,.2,0"/>
    <path class="st1" d="M110.4,43.1v-.2h.3s0,0,.2-.3l.2-.4,1.7-3.1h.2l.4,3.4v.3h.3v.2h-1.3v-.2h.3v-1.1h-1.3l-.4.7c0,.3-.2.5-.2.5h.4v.2h-1.1M111.8,41.3h1.1l-.2-1.6-.9,1.6Z"/>
    <path class="st1" d="M116.9,43.1v-.2h.3c0-.2,0-.6.2-1.4.2-1,.3-1.6.3-1.8v-.2h-.5v-.2h.9l.2.3.2.4,1.4,2.6.3-1.9c0-.3,0-.6,0-.9v-.2h0c0,0,0,0-.3,0v-.2h1.1v.2h-.3s0,.2,0,.5l-.2,1c-.2.9-.3,1.7-.3,2.2h-.3s0,0,0-.3c0,0,0-.2-.2-.3l-1.4-2.7-.2,1.5s0,.2,0,.7v.5h0v.2h.3v.2h-1"/>
    <path class="st1" d="M123.6,42.5h0c0,0-.4.4-.4.4,0,0-.2.2-.3.2h0c0-.3,0-.6.2-1.1h0c0,.2-.2.3-.3.4,0,.2-.3.3-.4.5,0,0-.3.2-.4.3h0v-.4c0-.2,0-.5,0-.8,0-.3.2-.6.3-.8,0,0,0-.2.2-.3.2,0,.3-.2.5-.3h1c0,0,0,0,0,0,0,.4-.2.8-.3,1.2,0,.2,0,.4,0,.5v.5h0s0,0,.3-.2M123.2,40.7h-.7v.2c0,.2-.3.4-.3.7,0,.4-.2.7-.2,1s0,0,0,0h.2c0,0,.3-.2.4-.4s.3-.4.4-.6c0-.2.2-.5.2-.9"/>
    <path class="st1" d="M124.9,43.1h0v-.6c0-.2,0-.5.2-.7,0-.3,0-.5,0-.7v-.2h0q0,0,0,0s-.2,0-.3.2h0c0-.2.2-.3.3-.4,0,0,.2-.2.3-.2h0c0,0,0,0,0,0h0v.3s0,.3,0,.8c.2-.2.3-.4.4-.6.2-.2.4-.4.6-.5,0,0,.2,0,.3,0s0,0,0,0h0v.3s0,.3-.2.7c.2-.3.3-.5.5-.6.2-.2.4-.3.6-.4h.3c.1,0,0,0,0,0h0v.4c0,.2,0,.5-.2,1s-.2.8-.2.9,0,0,0,0h0l.2-.2h0c0,.2-.2.3-.3.4,0,0-.3.2-.3.2h-.2v-.2c0-.2,0,0,0,0v-.3c0,0,0-.4.2-.8,0-.3,0-.5.2-.7v-.2h-.2c0,0-.2.2-.4.3,0,0-.2.3-.3.4,0,0-.2.3-.2.5s0,.5-.2,1h-.3c0-.3,0-.7.2-1.1s0-.7.2-.9v-.3h-.2c0,0-.2.2-.3.3,0,0-.2.3-.3.5,0,.2-.2.4-.2.6s0,.5-.2.9h-.3"/>
    <path class="st1" d="M131,42.5h0c-.2.3-.4.4-.6.5-.2,0-.3,0-.5,0h-.3s-.2,0-.2-.2v-1.1c0-.3.1-.4.2-.6,0,0,.2-.2.3-.3.2,0,.3-.3.5-.3h.3c.1,0,.2,0,.3,0,0,0,.1.2.1.3v.3s0,.2-.1.2c0,0-.2.2-.4.3-.2,0-.3,0-.5.2h-.3v.5c0,.2,0,.3.1.4,0,0,.2,0,.3,0h.3c.1,0,.3-.2.5-.3M129.8,41.7c.2,0,.4,0,.6-.2.2,0,.3-.2.3-.3s.1-.2.1-.4v-.2h-.5s-.2.2-.2.3-.1.4-.2.8"/>
    <path class="st1" d="M132,43.9h0c0-.2.2-.3.3-.5,0-.2.2-.5.2-.8.2,0,.4,0,.5-.2h0c0,.3-.2.5-.4.8s-.3.5-.4.6"/>
    <path class="st1" d="M136.1,43.1v-.2h.3s0,0,.2-.3l.2-.4,1.7-3.1h.2l.4,3.4v.3h.3v.2h-1.3v-.2h.3v-1.1h-1.3l-.4.7c-.1.3-.2.5-.2.5h.4v.2h-1.1M137.5,41.3h1.1l-.2-1.6-.9,1.6h0Z"/>
    <path class="st1" d="M145.5,42.5v.2c-.2,0-.4.2-.5.3-.1,0-.2,0-.4,0h-.5c-.5,0-.9,0-1.1-.4-.3-.3-.4-.7-.4-1.3s0-.7.2-1.1c.1-.3.3-.5.5-.7s.4-.4.7-.5c.2,0,.5-.2.7-.2h.5c.2,0,.3,0,.5.2v.8h-.2v-.3h0c0,0-.2-.3-.3-.3h-.6c-.2,0-.4,0-.6,0-.2,0-.3.2-.4.4-.1.2-.2.4-.3.7,0,.3-.1.5-.1.9v.7c0,.2.1.3.2.5,0,0,.2.2.3.3.2,0,.4,0,.6,0s.4,0,.6,0c.2,0,.4-.2.6-.3"/>
    <path class="st1" d="M146.6,42.3v-.6c0-.2.1-.4.2-.5,0,0,.2-.3.3-.4.1,0,.2-.2.4-.3.1,0,.3,0,.4,0h.3c.1,0,.2,0,.3.3v.5c0,.2,0,.6-.2.9,0,.2-.2.4-.3.6-.1,0-.2.3-.4.4-.2,0-.3,0-.5,0s-.4,0-.5-.2c-.1,0-.2-.4-.2-.6M147,42.2v.4s0,.2.2.2h.6s.2-.2.2-.3c0-.2.1-.4.2-.6v-.6c0-.2,0-.4-.1-.5,0,0-.2-.2-.3-.2-.2,0-.4.2-.6.5-.1.3-.2.7-.2,1.2"/>
    <path class="st1" d="M149.9,43.1h0v-.6c.1-.2.1-.5.2-.7,0-.3.1-.5.1-.7v-.2h0q0,0-.1,0s-.2,0-.3.2h0c0-.2.2-.3.3-.4.1,0,.2-.2.3-.2h.1c.1,0,0,0,0,0h0v.3s0,.3-.1.8c.2-.2.3-.4.4-.6.2-.2.4-.4.6-.5.1,0,.2,0,.3,0s0,0,0,0h0v.3s0,.3-.2.7c.2-.3.3-.5.5-.6.2-.2.4-.3.6-.4h.3c.1,0,0,0,0,0h0v.4c0,.2-.1.5-.2,1-.1.5-.2.8-.2.9s0,0,0,0h.1l.2-.2h0c0,.2-.2.3-.3.4-.1,0-.3.2-.3.2h-.2v-.2c0-.2,0,0,0,0v-.3c0,0,0-.4.2-.8,0-.3.1-.5.2-.7v-.2h-.2c-.1,0-.2.2-.4.3-.1,0-.2.3-.3.4,0,0-.2.3-.2.5s-.1.5-.2,1h-.3c0-.3.1-.7.2-1.1,0-.4.1-.7.2-.9v-.3h-.2c-.1,0-.2.2-.3.3s-.2.3-.3.5c0,.2-.2.4-.2.6s-.1.5-.2.9h-.3"/>
    <path class="st1" d="M154.6,43.1h0v-.6c.1-.2.1-.5.2-.7,0-.3.1-.5.1-.7v-.2h0q0,0-.1,0s-.2,0-.3.2h0c0-.2.2-.3.3-.4.1,0,.2-.2.3-.2h.1c.1,0,0,0,0,0h0v.3s0,.3-.1.8c.2-.2.3-.4.4-.6.2-.2.4-.4.6-.5.1,0,.2,0,.3,0s0,0,0,0h0v.3s0,.3-.2.7c.2-.3.3-.5.5-.6.2-.2.4-.3.6-.4h.3c.1,0,0,0,0,0h0v.4c0,.2-.1.5-.2,1-.1.5-.2.8-.2.9s0,0,0,0h.1l.2-.2h0c0,.2-.2.3-.3.4-.1,0-.3.2-.3.2h-.2v-.2c0-.2,0,0,0,0v-.3c0,0,0-.4.2-.8,0-.3.1-.5.2-.7v-.2h-.2c-.1,0-.2.2-.4.3-.1,0-.2.3-.3.4,0,0-.2.3-.2.5s-.1.5-.2,1h-.3c0-.3.1-.7.2-1.1,0-.4.1-.7.2-.9v-.3h-.2c-.1,0-.2.2-.3.3s-.2.3-.3.5c0,.2-.2.4-.2.6s-.1.5-.2.9h-.3"/>
    <path class="st1" d="M159.3,41h0c.3-.3.5-.5.6-.5h.2v.2c0,.2,0,0,0,0s0,.3-.1.6c-.2.8-.3,1.2-.3,1.3s0,0,0,0h.1s.1,0,.3-.2h0c-.3.3-.5.5-.6.6h-.3v-.8c.2-.8.3-1.3.3-1.5s0,0,0,0h0s-.1,0-.3.2M159.9,39.4v-.3s.1,0,.2,0h.1v.5s-.1,0-.2,0h-.1v-.2"/>
    <path class="st1" d="M162.6,42.4h0c-.1.2-.3.4-.4.5-.1,0-.3.2-.3.2h-.2v-1.2c.2-.2.2-.5.3-1h-.4c.1,0,.2,0,.3,0h.2v-.9h.2c0,0,.2-.2.2-.2h0c0,.3-.1.5-.1.5,0,0,0,.3-.1.7h.6v.3h-.5c0,.2,0,.4-.1.8,0,.4-.1.6-.1.8v.2c0,.1,0,0,0,0h0s.1,0,.2,0"/>
    <path class="st1" d="M164,43.1h0v-.6c.1-.2.1-.5.2-.7,0-.3.1-.5.1-.7v-.2h0q0,0-.1,0s-.2,0-.3.2h0c0-.2.2-.3.3-.4.1,0,.2-.2.3-.2h.1c.1,0,0,0,0,0h0v.3s0,.3-.1.8c.2-.2.3-.4.4-.6.2-.2.4-.4.6-.5.1,0,.2,0,.3,0s0,0,0,0h0v.3s0,.3-.2.7c.2-.3.3-.5.5-.6.2-.2.4-.3.6-.4h.3c.1,0,0,0,0,0h0v.4c0,.2-.1.5-.2,1-.1.5-.2.8-.2.9s0,0,0,0h.1l.2-.2h0c0,.2-.2.3-.3.4-.1,0-.3.2-.3.2h-.2v-.2c0-.2,0,0,0,0v-.3c0,0,0-.4.2-.8,0-.3.1-.5.2-.7v-.2h-.2c-.1,0-.2.2-.4.3-.1,0-.2.3-.3.4,0,0-.2.3-.2.5s-.1.5-.2,1h-.3c0-.3.1-.7.2-1.1s.1-.7.2-.9v-.3h-.2c-.1,0-.2.2-.3.3s-.2.3-.3.5c0,.2-.2.4-.2.6s-.1.5-.2.9h-.3"/>
    <path class="st1" d="M170.1,42.5h0c-.2.3-.4.4-.6.5-.2,0-.3,0-.5,0h-.3s-.2,0-.2-.2v-1.1c0-.3.1-.4.2-.6,0,0,.2-.2.3-.3.2,0,.3-.3.5-.3h.3c.1,0,.2,0,.3,0,0,0,.1.2.1.3v.3s0,.2-.1.2c0,0-.2.2-.4.3-.2,0-.3,0-.5.2h-.3v.5c0,.2,0,.3.1.4,0,0,.2,0,.3,0h.3c.1,0,.3-.2.5-.3M168.9,41.7c.2,0,.4,0,.5-.2.2,0,.3-.2.3-.3s.1-.2.1-.4v-.2h-.5s-.2.2-.2.3-.1.4-.2.8"/>
    <path class="st1" d="M171.5,43.1h0c0-.4.2-.9.3-1.5,0-.4.1-.7.1-.8s0,0,0,0h-.4c0,0,0,0,0,0l.2-.2s.2,0,.3-.2c0,0,.2,0,.2,0h0v1.2c-.1,0,0,0,0,0,.1-.3.3-.5.5-.7s.4-.4.6-.5c.1,0,.3,0,.3,0h.1c0,.2,0,.5-.2,1-.2.7-.2,1-.2,1.2s0,0,0,0h.1c.1,0,.2,0,.3-.2h0c-.1.2-.3.3-.4.4-.2,0-.3.2-.4.2h-.2v-.4c0,0,0-.4.2-.9.1-.5.2-.8.2-1s0,0,0,0h-.2c-.1,0-.3.2-.4.4-.1.2-.3.3-.3.5s-.2.4-.2.7,0,.3-.1.7h-.3"/>
    <path class="st1" d="M176.1,42.4h0c-.2.2-.3.4-.5.5-.1,0-.3.2-.3.2h-.2v-1.2c.1-.2.2-.5.3-1h-.4c.1,0,.2,0,.3,0h.2v-.9h.2c0,0,.2-.2.2-.2h0c0,.3-.1.5-.1.5,0,0,0,.3-.1.7h.6v.3h-.5c0,.2,0,.4-.1.8,0,.4-.1.6-.1.8v.2c0,.1,0,0,0,0h0s.1,0,.2,0"/>
    <path class="st1" d="M45.8,7h5.5c5,0,8.9,2.2,8.9,7.7s-3.1,7.3-7.5,7.3h-6.9M51.2,17.5h.3c1.8,0,3.2-.8,3.2-2.8s-1.2-3-3.2-3h-.3v5.8Z"/>
    <path class="st1" d="M66.3,17.6c0,.9,0,1.8,1.2,1.8s.9-.4,1-.9h5c-.7,2.5-3.5,3.7-5.9,3.7s-6.4-1.7-6.4-5.4,2.7-5.7,6.1-5.7,6.7,2.4,6.5,6.4M68.7,15.4c0-.7-.5-1.4-1.3-1.4s-1.2.6-1.2,1.4h2.5Z"/>
    <path class="st1" d="M79.8,13.2h.2c.6-1.2,2-1.9,3.3-1.9,3,0,4.4,2.8,4.4,5.4s-1.6,5.6-4.4,5.6-2.5-.7-3.1-1.7h0l.2,1.7v4.1h-5.1v-14.9h4.9M79.9,16.8c0,.8.5,1.5,1.3,1.5s1.3-.8,1.3-1.6-.6-1.5-1.3-1.5-1.3.7-1.3,1.5"/>
    <path class="st1" d="M93.6,17.6c0,.9,0,1.8,1.2,1.8s.9-.4,1-.9h5c-.7,2.5-3.5,3.7-5.9,3.7s-6.4-1.7-6.4-5.4,2.7-5.7,6.1-5.7,6.7,2.4,6.5,6.4M96,15.4c0-.7-.5-1.4-1.3-1.4s-1.2.6-1.2,1.4h2.5Z"/>
    <path class="st1" d="M107.2,13.2h0c1-1.2,1.8-1.9,3.4-1.9,2.6,0,3.7,2,3.7,4.3v6.5h-5.1v-5.2c0-.6,0-1.5-.9-1.5s-.9.9-.9,1.5v5.2h-5.1v-10.6h5"/>
    <path class="st1" d="M123.6,20.5h0c-.9,1.1-2.1,1.8-3.4,1.8-2.9,0-4.4-2.9-4.4-5.4s1.4-5.6,4.4-5.6,2.5.7,3.2,1.7h.2l-.2-2.5v-4.5h5.1v16.1h-4.8M120.7,16.8c0,.8.5,1.5,1.3,1.5s1.3-.8,1.3-1.6-.6-1.5-1.3-1.5-1.3.7-1.3,1.5"/>
    <path class="st1" d="M137.3,20.7h-.1c-.9,1-1.8,1.6-3.2,1.6-2.9,0-4.5-2.9-4.5-5.5s1.6-5.6,4.6-5.6,2.3.5,3.1,1.5h.1l-.2-1.3h5v10.6h-5M135.9,18.3c1,0,1.4-.8,1.4-1.6s-.6-1.4-1.4-1.4-1.3.7-1.3,1.5.4,1.6,1.3,1.6"/>
    <path class="st1" d="M143.8,5.9h5.1v4.5l-.2,2.5h.2c.7-1,2-1.7,3.2-1.7,3,0,4.4,3,4.4,5.6s-1.5,5.4-4.4,5.4-2.6-.7-3.4-1.8h-.1v1.6c.1,0-4.7,0-4.7,0M148.7,16.8c0,.8.5,1.5,1.3,1.5s1.3-.8,1.3-1.6-.6-1.5-1.3-1.5-1.3.7-1.3,1.5"/>
    <rect class="st1" x="157.9" y="5.9" width="5.1" height="16.1"/>
    <path class="st1" d="M169.5,17.6c0,.9.1,1.8,1.2,1.8s.9-.4,1-.9h5c-.7,2.5-3.5,3.7-5.9,3.7s-6.4-1.7-6.4-5.4,2.7-5.7,6.1-5.7,6.7,2.4,6.5,6.4M171.9,15.4c0-.7-.5-1.4-1.3-1.4s-1.2.6-1.2,1.4h2.5Z"/>
    <polyline class="st0" points="45.9 27.4 48.9 27.4 48.9 30.3 50.8 30.3 50.8 27.4 53.8 27.4 53.8 36 50.8 36 50.8 33 48.9 33 48.9 36 45.9 36"/>
    <polyline class="st0" points="56.7 27.4 62.4 27.4 62.4 29.8 59.8 29.8 59.8 30.6 62.2 30.6 62.2 32.8 59.8 32.8 59.8 33.6 62.5 33.6 62.5 36 56.7 36"/>
    <path class="st0" d="M67.8,36h-3.3l3-8.6h3.4l3.1,8.6h-3.3l-.3-1.1h-2.3M69.9,32.9l-.4-1.5c0-.4,0-.7-.2-1.1h0l-.6,2.6h1.3Z"/>
    <polyline class="st0" points="76.2 27.4 79.3 27.4 79.3 33.2 81.9 33.2 81.9 36 76.2 36"/>
    <polyline class="st0" points="83.4 27.4 89.9 27.4 89.9 30.2 88.2 30.1 88.2 36 85.1 36 85.1 30.1 83.4 30.2"/>
    <polyline class="st0" points="92.3 27.4 95.3 27.4 95.3 30.3 97.2 30.3 97.2 27.4 100.2 27.4 100.2 36 97.2 36 97.2 33 95.3 33 95.3 36 92.3 36"/>
    <path class="st0" d="M109.8,32.9h.2c.6.6,1.2.9,1.9.9s.8,0,.8-.5-.4-.4-.7-.5h-.6c-1.2-.3-2.2-1-2.2-2.4,0-2,1.8-3.2,3.7-3.2s1.9.2,2.7.7l-.8,2.2c-.5-.4-1.1-.6-1.8-.6s-.7.1-.7.5.4.4.6.4l.7.2c1.3.3,2.3,1,2.3,2.5s-1.9,3.1-3.7,3.1-2.3-.3-3.3-.8"/>
    <polyline class="st0" points="118.2 27.4 124 27.4 124 29.8 121.4 29.8 121.4 30.6 123.8 30.6 123.8 32.8 121.4 32.8 121.4 33.6 124.1 33.6 124.1 36 118.2 36"/>
    <path class="st0" d="M126.9,27.4h3.8c1.9,0,3.6.8,3.6,3s-.5,1.8-1.7,2.2h0c.2.2.4.3.5.6l1.9,2.8h-3.6l-1.4-2.7h0v2.7h-3M129.9,31.2h.2c.5,0,1,0,1-.7s-.5-.7-1-.7h-.2v1.5h0Z"/>
    <path class="st0" d="M145.2,27.4l-3.3,8.6h-2.6l-3.3-8.6h3.2l1.1,3.9c.1.4.2.8.2,1.3h0c0-.4,0-.9.2-1.3l1.1-3.9"/>
    <rect class="st0" x="147.4" y="27.4" width="3.1" height="8.6"/>
    <path class="st0" d="M159.8,30.9c-.5-.5-1.1-.9-1.8-.9s-1.7.7-1.7,1.7.8,1.7,1.7,1.7,1.3-.3,1.8-.8v3.2c-.6.2-1.7.3-2.3.3-2.4,0-4.3-1.9-4.3-4.3s2-4.5,4.5-4.5,1.4.1,2.1.4"/>
    <polyline class="st0" points="162.3 27.4 168.1 27.4 168.1 29.8 165.5 29.8 165.5 30.6 167.9 30.6 167.9 32.8 165.5 32.8 165.5 33.6 168.2 33.6 168.2 36 162.3 36"/>
    <path class="st0" d="M171.5,32.9h.2c.6.6,1.2.9,1.9.9s.8,0,.8-.5-.4-.4-.7-.5h-.6c-1.2-.3-2.2-1-2.2-2.4,0-2,1.8-3.2,3.7-3.2s1.9.2,2.7.7l-.8,2.2c-.5-.4-1.1-.6-1.8-.6s-.7.1-.7.5.4.4.6.4l.7.2c1.3.3,2.3,1,2.3,2.5s-1.9,3.1-3.7,3.1-2.3-.3-3.3-.8"/>
    <path class="st0" d="M179.7,27.5v.3h-.7v2h-.4v-2h-.7v-.3M182,29.9v-1.4c-.1-.2,0-.4,0-.6h0c0,.2-.1.5-.2.7l-.5,1.3h-.3l-.5-1.4c0-.2-.1-.4-.2-.6h0v2h-.4l.2-2.3h.5l.5,1.3c0,.2.1.4.2.6h0c0-.2.1-.4.2-.6l.5-1.3h.5l.2,2.3h-.7Z"/>
    <polygon class="st0" points="123.9 23.8 120.4 19.6 118.8 19.6 116.5 20.9 104.9 20.9 101.2 18 99.5 18.4 97.3 20.6 95.5 20.6 90.7 23.5 90.6 10.2 89.3 23.8 85.7 19.7 84 19.6 81.6 21 67.2 21 63.8 18 61.8 18.4 59.8 20.6 57.8 20.7 53.1 23.4 53.1 9.6 51.5 23.7 48 19.6 46.5 19.6 44.5 20.9 33.1 21 33.1 20.5 44.4 20.4 46.3 19.2 48.2 19.2 51.1 22.5 53 5.5 53.5 5.5 53.6 22.5 57.7 20.2 59.6 20.1 61.5 17.9 63.9 17.5 67.4 20.5 81.5 20.5 83.9 19.2 85.9 19.3 88.9 22.6 90.6 5.5 91.1 5.5 91.2 22.6 95.4 20.1 97.1 20.1 99.2 17.9 101.4 17.5 105.1 20.4 116.4 20.4 118.7 19.2 120.6 19.2 123.5 22.6 125.4 5.5 125.9 5.5 126.1 22.5 130.3 20.1 131.9 20.2 134 17.9 136.3 17.5 139.8 20.5 154 20.5 156.2 19.2 158.2 19.3 161.1 22.5 163.1 5.4 163.6 5.4 163.5 22.9 167.6 20.2 169.6 20.1 171.6 17.9 173.9 17.7 177.6 20.6 188.9 20.5 188.9 21 177.4 21.1 173.7 18.2 171.9 18.4 169.8 20.6 167.8 20.7 163 23.7 163.1 9.8 161.5 23.6 157.9 19.7 156.3 19.6 154.1 21 139.6 21 136.2 18 134.3 18.4 132.1 20.7 130.4 20.6 125.7 23.4 125.5 9.4 123.9 23.8"/>
  </g>
</svg>