<?xml version="1.0" encoding="UTF-8"?>
<svg id="Layer_1" data-name="Layer 1" xmlns="http://www.w3.org/2000/svg" viewBox="0 0 429.2 50">
  <defs>
    <style>
      .cls-1, .cls-2 {
        fill: #ffc629;
      }

      .cls-1, .cls-3 {
        fill-rule: evenodd;
      }

      .cls-4, .cls-3 {
        fill: #fff;
      }
    </style>
  </defs>
  <rect class="cls-2" x="275.08" y="10.53" width=".34" height="28.93"/>
  <g>
    <path class="cls-4" d="M289.57,24.96c-.11.22-.24.4-.43.54s-.4.25-.63.33c-.24.07-.5.11-.78.11h-.82v1.49h-1.09v-4.94h2.01c.3,0,.56.04.79.12.24.08.43.2.59.35s.29.33.37.54.13.44.13.69v.02c0,.3-.06.54-.16.76h.03ZM288.63,24.2c0-.24-.07-.43-.24-.55-.16-.13-.37-.19-.64-.19h-.83v1.5h.86c.27,0,.49-.07.63-.22s.23-.32.23-.53v-.02h0Z"/>
    <path class="cls-4" d="M300.15,27.43l-1.06-1.59h-.85v1.59h-1.09v-4.94h2.26c.59,0,1.04.14,1.37.43s.49.69.49,1.21v.02c0,.4-.1.72-.29.97-.2.25-.45.43-.77.55l1.21,1.77h-1.26,0ZM300.17,24.16c0-.24-.07-.41-.23-.53s-.35-.17-.63-.17h-1.08v1.41h1.11c.26,0,.47-.06.62-.19s.22-.3.22-.51v-.02h0Z"/>
    <path class="cls-4" d="M308.92,27.43v-4.94h1.09v4.94h-1.09Z"/>
    <path class="cls-4" d="M321.33,27.43l-2.39-3.14v3.14h-1.07v-4.94h1.01l2.31,3.04v-3.04h1.07v4.94h-.92,0Z"/>
    <path class="cls-4" d="M332.29,23.5v3.93h-1.09v-3.93h-1.5v-1.01h4.1v1.01h-1.51,0Z"/>
    <path class="cls-4" d="M353.74,24.96c-.11.22-.24.4-.43.54s-.4.25-.63.33-.5.11-.78.11h-.82v1.49h-1.09v-4.94h2.01c.3,0,.56.04.79.12.24.08.43.2.59.35.16.15.29.33.37.54s.13.44.13.69v.02c0,.3-.05.54-.16.76h.03ZM352.8,24.2c0-.24-.07-.43-.24-.55-.16-.13-.37-.19-.64-.19h-.83v1.5h.86c.27,0,.49-.07.63-.22.15-.14.23-.32.23-.53v-.02h0Z"/>
    <path class="cls-4" d="M366.15,25.95c-.13.31-.31.58-.54.82s-.51.42-.83.54c-.32.14-.67.2-1.05.2s-.73-.07-1.05-.2c-.32-.14-.59-.31-.83-.54s-.41-.5-.54-.81-.19-.64-.19-.99v-.02c0-.35.07-.69.2-.99.13-.31.31-.58.54-.82s.51-.42.83-.54c.32-.14.67-.2,1.06-.2s.73.07,1.05.2c.32.14.59.31.83.54s.41.5.54.81c.13.31.19.64.19.99v.02c0,.35-.07.68-.21.99ZM365.22,24.95c0-.22-.04-.41-.11-.6s-.17-.35-.31-.5-.29-.25-.48-.34-.38-.12-.6-.12-.42.04-.6.12-.34.19-.46.34-.23.31-.31.49-.11.38-.11.59v.02c0,.22.04.41.11.6s.17.35.31.5c.14.14.29.25.47.34.18.08.38.12.6.12s.42-.04.6-.12c.18-.07.34-.19.47-.34s.23-.31.31-.49.11-.39.11-.59v-.02h0Z"/>
    <path class="cls-4" d="M376.95,27.43l-1.06-1.59h-.85v1.59h-1.09v-4.94h2.26c.59,0,1.04.14,1.37.43.33.29.49.69.49,1.21v.02c0,.4-.1.72-.29.97-.2.25-.45.43-.76.55l1.21,1.77h-1.27,0ZM376.97,24.16c0-.24-.07-.41-.23-.53s-.35-.17-.63-.17h-1.08v1.41h1.11c.26,0,.47-.06.62-.19s.22-.3.22-.51v-.02h0Z"/>
    <path class="cls-4" d="M387.9,23.5v3.93h-1.09v-3.93h-1.5v-1.01h4.1v1.01h-1.51,0Z"/>
    <path class="cls-4" d="M400.54,27.43l-.45-1.11h-2.08l-.45,1.11h-1.11l2.11-4.97h1.01l2.11,4.97h-1.12,0ZM399.04,23.76l-.65,1.59h1.3l-.65-1.59Z"/>
    <path class="cls-4" d="M409.06,27.43v-4.94h1.09v3.96h2.46v.98h-3.54Z"/>
  </g>
  <g>
    <polygon class="cls-1" points="46.87 11.64 36.17 6.3 16.6 15.79 23.42 19.34 36.06 13.08 46.87 18.37 46.87 11.64"/>
    <polygon class="cls-1" points="48.02 12.12 48.02 23.86 46.6 25.39 48.3 29.67 48.96 29.67 50.61 25.53 49.17 23.86 49.17 19.14 55.49 15.79 48.02 12.12"/>
    <g>
      <path class="cls-3" d="M50.63,22.52v1.28l.85.05c1.17.05.91,1.01.91,1.01l-3.68,9.75-4.48-10.81h2.37v-1.28h-29.81l-.05,1.64,1.7-.02c1.33,0,1.07,1.15,1.07,1.15,0,0,.05,12.68,0,13.85-.05,1.17-.85.91-.85.91h-1.92v1.55h10.39v-1.5h-2.29c-.64-.05-.69-1.17-.69-1.17v-6.55l.85.05c2.93.05,3.04,3.89,3.04,3.89h1.44v-9.01h-1.33c-.32,4.05-3.89,3.68-3.89,3.68l-.05-5.75c-.05-1.33,1.65-1.12,1.65-1.12l3.14.05c2.45.22,3.04,2.24,3.04,2.24l6.29,15.34h1.12l3.41-9.12,3.73,9.16h1.07l6.34-17.47c.11-.48.91-.59.91-.59h.59v-1.22h-4.87ZM40.67,34.56l-4.48-10.71h3.04l2.83,6.87-1.39,3.83h0Z"/>
      <polygon class="cls-4" points="63.11 26.18 67 26.18 67 27.66 63.11 27.66 63.11 31.61 61.39 31.61 61.39 22.31 67.54 22.31 67.54 23.86 63.11 23.86 63.11 26.18"/>
      <rect class="cls-4" x="68.27" y="22.31" width="1.59" height="9.3"/>
      <path class="cls-4" d="M74.26,31.8c-2.06,0-3.43-1.5-3.43-3.52s1.4-3.46,3.36-3.46c1.83,0,3.4,1.28,3.41,3.46,0,2.06-1.36,3.52-3.34,3.52M74.18,26.25c-.99,0-1.69.79-1.69,2,0,1.36.83,2.11,1.78,2.11,1.14,0,1.72-1.01,1.69-2.09-.03-1.1-.66-2.01-1.77-2.01"/>
      <polygon class="cls-4" points="85.34 25.02 86.99 25.02 85.01 31.61 83.44 31.61 82.26 27.4 80.99 31.61 79.44 31.61 77.53 25.02 79.17 25.02 80.32 29.52 81.54 25.02 82.95 25.02 84.17 29.52 85.34 25.02"/>
      <path class="cls-4" d="M89.29,23.99h-1.57v-1.59h1.57v1.59ZM89.29,31.61h-1.57v-6.59h1.57v6.59Z"/>
      <path class="cls-4" d="M90.67,25.02h1.59v.78c.08-.12.24-.33.52-.52.4-.29,1-.46,1.51-.46.75,0,1.4.34,1.72.79.41.55.41,1.27.41,2.12v3.87h-1.57v-3.36c0-.49,0-.82-.05-1-.14-.58-.56-.88-1.08-.88s-.99.3-1.21.73c-.25.49-.25,1.16-.25,1.65v2.85h-1.59v-6.59h0Z"/>
      <path class="cls-4" d="M103.78,25.02v5.4c0,1.3,0,1.83-.43,2.38-.37.49-1.19,1.01-2.74,1.01-2.35,0-2.81-1.01-3.03-2.07h1.74c.12.38.4.82,1.34.82.81,0,1.16-.32,1.3-.53.24-.33.24-.72.24-1.51-.34.32-1.02.71-1.98.71-1.56,0-2.85-1.05-2.85-3.14,0-2.45,1.75-3.25,2.96-3.25s1.69.64,1.87.88v-.69s1.57,0,1.57,0ZM100.61,26.23c-.81,0-1.62.54-1.62,1.8,0,1.14.7,1.74,1.63,1.74.84,0,1.6-.46,1.62-1.68,0-1.07-.57-1.87-1.63-1.87"/>
      <polygon class="cls-4" points="117.5 22.31 115.46 31.61 113.43 31.61 112.13 25.14 110.79 31.61 108.76 31.61 106.82 22.31 108.6 22.31 109.86 29.39 111.31 22.31 112.93 22.31 114.4 29.39 115.71 22.31 117.5 22.31"/>
      <path class="cls-4" d="M123.82,30.13c-.82,1.1-1.87,1.68-3.22,1.68-1.72,0-3.38-1.1-3.38-3.52,0-2.21,1.42-3.46,3.28-3.46,1.74,0,2.46,1.04,2.59,1.24.54.76.66,1.91.67,2.56h-4.87c.18,1.04.83,1.63,1.87,1.63s1.51-.63,1.71-.91l1.34.78h0ZM122.02,27.46c-.14-1.02-.78-1.39-1.48-1.39-.84,0-1.42.49-1.6,1.39,0,0,3.08,0,3.08,0Z"/>
      <rect class="cls-4" x="124.72" y="22.31" width="1.59" height="9.3"/>
      <rect class="cls-4" x="127.7" y="22.31" width="1.59" height="9.3"/>
      <path class="cls-4" d="M131.28,29.66c.4.49.99.84,1.89.84s1.3-.45,1.3-.78c0-.42-.47-.53-.68-.56-.23-.05-1.3-.25-1.54-.32-1.57-.37-1.86-1.28-1.86-1.87,0-1.12,1.01-2.15,2.82-2.15,1,0,1.72.32,2.17.63.33.21.54.43.67.59l-1.11,1.04c-.18-.35-.63-1.01-1.79-1.01-.75,0-1.1.33-1.1.67,0,.47.49.61,1.33.75,1.37.25,1.75.32,2.17.64.41.32.67.84.67,1.4,0,1.02-.92,2.26-2.96,2.26-1.17,0-2.33-.37-3.16-1.17l1.17-.98h0Z"/>
      <path class="cls-4" d="M147.28,22.31v5.86c0,1.05,0,1.92-1,2.76-.95.83-2.17.91-2.81.91-.56,0-1.12-.06-1.65-.25-1.11-.38-1.69-1.19-1.91-1.88-.12-.41-.12-.7-.13-1.86v-5.55h1.74v5.72c0,.4-.02.78.12,1.13.35.9,1.33,1,1.88,1,.27,0,.98,0,1.49-.46.52-.46.52-.99.52-1.77v-5.63h1.75v.02Z"/>
      <path class="cls-4" d="M148.84,25.02h1.59v.78c.08-.12.24-.33.52-.52.4-.29,1-.46,1.51-.46.75,0,1.4.34,1.72.79.41.55.41,1.27.41,2.12v3.87h-1.57v-3.36c0-.49,0-.82-.05-1-.14-.58-.56-.88-1.08-.88s-.99.3-1.21.73c-.25.49-.25,1.16-.25,1.65v2.85h-1.59v-6.59h0Z"/>
      <path class="cls-4" d="M157.53,23.99h-1.57v-1.59h1.57v1.59ZM157.53,31.61h-1.57v-6.59h1.57v6.59Z"/>
      <path class="cls-4" d="M160.71,26.14v5.46h-1.58v-5.46h-.99v-1.13h.99v-.75c0-.93,0-1.97,2.12-1.97.32,0,.61.03.9.05v1.34c-.14-.03-.28-.04-.5-.04-.43,0-.67.09-.83.33-.05.09-.11.29-.11.49v.54h1.43v1.13s-1.43,0-1.43,0Z"/>
      <path class="cls-4" d="M164.31,23.99h-1.57v-1.59h1.57v1.59ZM164.31,31.61h-1.57v-6.59h1.57v6.59Z"/>
      <path class="cls-4" d="M171.9,30.13c-.82,1.1-1.87,1.68-3.22,1.68-1.72,0-3.38-1.1-3.38-3.52,0-2.21,1.42-3.46,3.28-3.46,1.74,0,2.46,1.04,2.59,1.24.54.76.66,1.91.67,2.56h-4.87c.18,1.04.83,1.63,1.87,1.63s1.51-.63,1.71-.91l1.34.78h0ZM170.11,27.46c-.14-1.02-.78-1.39-1.48-1.39-.84,0-1.42.49-1.6,1.39h3.08Z"/>
      <path class="cls-4" d="M178.75,22.31v9.3h-1.57v-.63c-.49.6-1.14.83-1.83.83-1.57,0-2.93-1.17-2.93-3.34,0-1.97,1.11-3.63,2.99-3.63.64,0,1.26.18,1.77.73v-3.25h1.57ZM176.81,26.89c-.24-.35-.63-.61-1.16-.61-1.07,0-1.58.96-1.58,2,0,.12,0,2.09,1.55,2.09.82,0,1.56-.61,1.54-2.03,0-.43-.06-1.02-.35-1.46"/>
      <path class="cls-4" d="M184.33,28.84c.23.34.92,1.41,2.88,1.41.33,0,.67-.03,1.01-.15.67-.28.79-.75.79-1.07,0-.59-.41-.81-.7-.92-.21-.08-.24-.09-1.08-.29l-1.12-.24c-.59-.14-.88-.21-1.17-.33-.43-.17-1.57-.73-1.57-2.27,0-1.77,1.49-2.9,3.68-2.9,2,0,3.08.99,3.74,1.88l-1.42,1.07c-.32-.46-.92-1.39-2.41-1.39-.93,0-1.75.43-1.75,1.13,0,.79.87.95,1.71,1.11l.96.21c1.25.26,3.02.78,3.02,2.76,0,2.13-1.98,2.99-3.95,2.99-.52,0-1.1-.05-1.66-.21-.62-.18-1.71-.63-2.41-1.77l1.46-1.02h0Z"/>
      <path class="cls-4" d="M196.1,27.35c-.12-.43-.58-1.11-1.49-1.11s-1.63.72-1.63,2.04c0,1.19.62,2.06,1.66,2.06s1.39-.76,1.58-1.29l1.36.71c-.52,1.42-1.82,2.06-2.96,2.06-1.83,0-3.26-1.41-3.26-3.49s1.45-3.49,3.32-3.49c1.66,0,2.5,1.11,2.85,1.87l-1.41.66h0Z"/>
      <path class="cls-4" d="M199.72,22.31v3.39c.5-.5,1.19-.87,2.09-.87.82,0,1.45.32,1.8.71.54.58.55,1.25.55,2v4.07h-1.55v-3.62c-.03-.59-.03-.73-.11-.93-.05-.14-.27-.72-1.14-.72-1.01,0-1.49.82-1.59,1.2-.05.21-.05.32-.05,1.05v3.03h-1.58v-9.3h1.58,0Z"/>
      <path class="cls-4" d="M208.28,31.8c-2.06,0-3.43-1.5-3.43-3.52s1.4-3.46,3.36-3.46c1.83,0,3.4,1.28,3.41,3.46,0,2.06-1.36,3.52-3.34,3.52M208.2,26.25c-.99,0-1.69.79-1.69,2,0,1.36.83,2.11,1.78,2.11,1.14,0,1.72-1.01,1.69-2.09-.03-1.1-.66-2.01-1.77-2.01"/>
      <path class="cls-4" d="M215.64,31.8c-2.06,0-3.43-1.5-3.43-3.52s1.4-3.46,3.36-3.46c1.83,0,3.4,1.28,3.41,3.46,0,2.06-1.36,3.52-3.34,3.52M215.56,26.25c-.99,0-1.69.79-1.69,2,0,1.36.83,2.11,1.78,2.11,1.14,0,1.72-1.01,1.69-2.09-.03-1.1-.66-2.01-1.77-2.01"/>
      <rect class="cls-4" x="219.97" y="22.31" width="1.59" height="9.3"/>
      <path class="cls-4" d="M226.29,22.31h3.33c.81,0,1.78.03,2.75.72,1.56,1.1,1.79,2.96,1.79,4,0,1.59-.53,3.22-1.91,4-.92.54-1.89.55-2.99.56h-2.97v-9.3h0ZM228.03,23.89v6.15h.73c1.31,0,1.78-.06,2.17-.21.67-.26,1.39-.84,1.39-2.78,0-.87-.14-2.29-1.42-2.91-.5-.23-.78-.24-1.95-.25h-.92,0Z"/>
      <path class="cls-4" d="M236.58,23.99h-1.57v-1.59h1.57v1.59ZM236.58,31.61h-1.57v-6.59h1.57v6.59Z"/>
      <path class="cls-4" d="M238.46,29.66c.4.49.99.84,1.89.84s1.3-.45,1.3-.78c0-.42-.47-.53-.68-.56-.23-.05-1.3-.25-1.54-.32-1.57-.37-1.86-1.28-1.86-1.87,0-1.12,1.01-2.15,2.82-2.15,1,0,1.72.32,2.17.63.33.21.54.43.67.59l-1.11,1.04c-.18-.35-.63-1.01-1.79-1.01-.75,0-1.1.33-1.1.67,0,.47.49.61,1.33.75,1.37.25,1.75.32,2.17.64.41.32.67.84.67,1.4,0,1.02-.92,2.26-2.96,2.26-1.17,0-2.33-.37-3.16-1.17l1.17-.98h0Z"/>
      <path class="cls-4" d="M246.32,26.15v2.97c0,.82,0,1.17.75,1.17.24,0,.43,0,.66-.08v1.33c-.47.08-.79.11-1.14.11-.33,0-1.43,0-1.74-.81-.11-.26-.11-.68-.11-1.34v-3.36h-.96v-1.13h.96v-2.33h1.58v2.33h1.41v1.13h-1.41,0Z"/>
      <path class="cls-4" d="M249.91,25.02v.93c.2-.34.63-1.12,2.11-1.08v1.62c-.34,0-.93.03-1.42.4-.67.52-.69,1.19-.69,2.27v2.44h-1.53v-6.59h1.53Z"/>
      <path class="cls-4" d="M254.31,23.99h-1.57v-1.59h1.57v1.59ZM254.31,31.61h-1.57v-6.59h1.57v6.59Z"/>
      <path class="cls-4" d="M259.93,27.35c-.12-.43-.58-1.11-1.49-1.11s-1.63.72-1.63,2.04c0,1.19.62,2.06,1.66,2.06s1.39-.76,1.58-1.29l1.36.71c-.52,1.42-1.82,2.06-2.96,2.06-1.83,0-3.26-1.41-3.26-3.49s1.45-3.49,3.32-3.49c1.66,0,2.5,1.11,2.85,1.87l-1.41.66h0Z"/>
      <path class="cls-4" d="M263.92,26.15v2.97c0,.82,0,1.17.75,1.17.24,0,.43,0,.66-.08v1.33c-.47.08-.79.11-1.14.11-.33,0-1.43,0-1.74-.81-.11-.26-.11-.68-.11-1.34v-3.36h-.96v-1.13h.96v-2.33h1.58v2.33h1.41v1.13h-1.41,0Z"/>
      <path class="cls-4" d="M61.83,41.93h-.69l1.25-5.43h2.19c.14,0,.3.02.45.05s.31.09.48.18c.06.05.14.09.21.15s.14.14.2.23.11.2.15.33c.04.13.05.28.05.45,0,.24-.04.44-.1.61-.06.16-.14.31-.24.42s-.19.2-.29.27c-.1.07-.19.13-.27.15-.11.05-.22.1-.32.14-.1.04-.2.06-.3.08s-.22.04-.34.04h-1.91l-.53,2.31-.02.03ZM62.49,39.04h1.66c.14,0,.27-.03.4-.05.16-.04.3-.09.41-.17.12-.07.21-.16.28-.26s.13-.2.16-.32c.04-.11.05-.23.05-.34,0-.19-.04-.34-.11-.45-.07-.11-.16-.19-.26-.24s-.2-.09-.31-.1c-.1,0-.18-.02-.24-.02h-1.59s-.45,1.96-.45,1.96Z"/>
      <path class="cls-4" d="M69.49,40.58c-.09.27-.22.51-.39.72s-.38.38-.63.51c-.25.13-.53.19-.84.19-.22,0-.43-.04-.61-.11-.19-.07-.34-.17-.48-.31s-.24-.3-.32-.5c-.07-.2-.12-.42-.12-.66,0-.32.05-.62.15-.88.1-.27.24-.51.43-.71.18-.2.4-.35.64-.46s.51-.16.79-.16c.18,0,.36.03.54.09.17.05.34.15.48.28.14.13.25.29.34.48s.14.43.14.7c0,.29-.04.56-.13.83M68.75,38.94c-.17-.16-.37-.25-.62-.25-.21,0-.4.05-.57.14-.17.1-.33.23-.44.39-.13.16-.22.35-.29.57s-.1.44-.1.67c0,.14.02.28.05.41.03.13.08.24.14.33.07.11.18.19.31.25s.26.1.4.1c.03,0,.09,0,.17-.02.09,0,.19-.05.3-.09s.23-.13.35-.23c.12-.1.23-.24.33-.43s.16-.36.2-.55.05-.37.05-.54c0-.34-.1-.59-.27-.75"/>
      <path class="cls-4" d="M71.53,38.3h.63l-.11.48h-.63l-.46,1.98c-.02.06-.04.14-.05.24-.02.1-.03.17-.03.23,0,.1.03.15.09.18.05.03.12.04.18.04h.12s.06,0,.11-.02c.05,0,.11-.02.19-.04l-.11.45c-.09.05-.18.07-.28.08-.1.02-.2.03-.3.03-.23,0-.38-.05-.47-.14s-.13-.22-.13-.36c0-.09,0-.17.03-.27.02-.09.04-.19.06-.29l.48-2.1h-.58l.11-.48h.58l.26-1.13h.58l-.26,1.13h0Z"/>
      <path class="cls-4" d="M75.4,40.89c-.09.23-.21.42-.35.56-.14.14-.3.26-.45.34-.16.08-.33.14-.49.16s-.31.05-.43.05c-.45,0-.81-.14-1.08-.41s-.41-.64-.41-1.13c0-.27.05-.54.13-.81.09-.27.22-.51.38-.72.17-.22.38-.39.63-.53s.53-.2.86-.2c.24,0,.43.04.61.11.17.07.31.17.43.31.11.13.19.29.24.47s.08.38.08.6c0,.11,0,.2-.02.26,0,.07-.02.14-.03.21h-2.71c0,.05,0,.1,0,.14v.13c0,.23.04.42.12.55.07.14.17.25.28.34.11.08.22.14.34.16.12.03.22.05.3.05.14,0,.27-.03.39-.07.2-.08.35-.18.44-.31s.15-.24.2-.35l.57.1h0ZM74.94,39.73v-.15c0-.14-.03-.28-.07-.39s-.11-.21-.18-.28c-.07-.07-.16-.13-.26-.17-.1-.04-.19-.05-.29-.05-.06,0-.15,0-.27.04-.11.03-.23.07-.35.15-.12.07-.24.18-.35.33-.11.14-.21.32-.28.54h2.07Z"/>
      <path class="cls-4" d="M77.39,38.3l-.13.53s.09-.1.16-.16c.07-.07.16-.14.26-.2.11-.06.23-.13.36-.17.14-.05.28-.07.45-.07.13,0,.24.02.37.05.13.04.24.1.34.17.1.08.18.17.24.29.06.12.09.25.09.41,0,.07,0,.15-.02.24,0,.08-.04.21-.06.37l-.5,2.18h-.6l.52-2.24c.03-.1.04-.18.05-.24v-.18c0-.06,0-.14-.03-.2-.02-.07-.05-.13-.1-.18-.05-.05-.12-.1-.19-.14-.08-.04-.18-.05-.3-.05-.1,0-.22.02-.35.05-.13.03-.26.1-.4.2-.07.06-.14.13-.2.2s-.11.16-.15.25c-.05.1-.08.21-.13.33-.04.12-.07.25-.11.42l-.42,1.79h-.61l.83-3.62h.62Z"/>
      <path class="cls-4" d="M81.54,38.3h.63l-.11.48h-.63l-.46,1.98c-.02.06-.04.14-.05.24-.02.1-.03.17-.03.23,0,.1.03.15.09.18.05.03.12.04.18.04h.12s.06,0,.11-.02c.05,0,.11-.02.19-.04l-.11.45c-.09.05-.18.07-.28.08-.1.02-.2.03-.3.03-.23,0-.38-.05-.47-.14s-.13-.22-.13-.36c0-.09,0-.17.03-.27.02-.09.04-.19.06-.29l.48-2.1h-.58l.11-.48h.58l.26-1.13h.58l-.26,1.13h0Z"/>
      <path class="cls-4" d="M83.48,38.3l-.83,3.62h-.62l.83-3.62h.62ZM83.75,37.19h-.63l.16-.69h.63l-.16.69Z"/>
      <path class="cls-4" d="M86.61,41.03c-.02.07-.03.13-.03.15v.06s0,.09.04.13c.03.05.07.06.14.06.05,0,.11,0,.14-.02.05,0,.07-.03.1-.04l-.12.5s-.08.02-.14.04c-.06,0-.14.02-.22.02-.1,0-.19-.02-.25-.05s-.12-.07-.16-.11c-.05-.05-.07-.09-.09-.14s-.03-.1-.03-.14v-.11c-.05.06-.1.14-.17.23s-.19.16-.35.24c-.22.1-.46.14-.73.14-.2,0-.37-.03-.51-.08-.14-.05-.24-.13-.33-.21-.08-.09-.14-.18-.18-.29-.04-.11-.05-.21-.05-.32,0-.14.03-.26.07-.39s.11-.24.2-.34c.14-.16.3-.28.49-.34s.42-.12.68-.16c.05,0,.12-.02.23-.04s.24-.04.36-.05.25-.04.37-.05c.12-.02.2-.03.24-.05.02-.07.04-.15.05-.24.02-.09.03-.16.03-.24,0-.13-.04-.23-.1-.3s-.14-.13-.22-.15c-.08-.04-.16-.05-.24-.05h-.16c-.18,0-.33.03-.43.07-.11.05-.2.12-.25.19-.06.08-.11.15-.13.24-.03.08-.05.16-.05.23l-.68-.06c.04-.11.09-.24.15-.36.06-.13.15-.25.27-.36.12-.11.27-.21.46-.28s.43-.12.72-.12c.18,0,.34.02.48.05.14.04.28.09.42.18.09.05.17.14.25.24.08.1.12.24.12.42,0,.05,0,.11-.02.19,0,.08-.03.18-.05.3l-.33,1.42h0ZM86.22,40.15c-.19.03-.36.05-.5.06s-.26.04-.37.05-.2.05-.29.07c-.08.03-.17.06-.25.1-.03,0-.06.03-.12.05-.05.03-.1.06-.15.11s-.1.1-.14.17c-.04.07-.05.16-.05.26,0,.17.06.3.18.38.13.08.26.13.43.13.1,0,.23-.03.39-.07.15-.05.29-.12.4-.21.13-.11.22-.23.25-.34s.08-.24.1-.34l.1-.43h.03Z"/>
      <polygon class="cls-4" points="89.33 36.5 88.08 41.93 87.48 41.93 88.73 36.5 89.33 36.5"/>
      <polygon class="cls-4" points="95.47 38.84 95.34 39.39 92.72 39.39 92.13 41.93 91.45 41.93 92.7 36.49 96.21 36.49 96.07 37.07 93.25 37.07 92.84 38.84 95.47 38.84"/>
      <path class="cls-4" d="M97.02,38.3l-.83,3.62h-.62l.83-3.62h.62ZM97.29,37.19h-.63l.16-.69h.63l-.16.69Z"/>
      <path class="cls-4" d="M98.7,38.3l-.13.53s.09-.1.16-.16c.07-.07.16-.14.26-.2.11-.06.23-.13.36-.17.14-.05.28-.07.45-.07.13,0,.24.02.37.05.13.04.24.1.34.17.1.08.18.17.24.29.06.12.09.25.09.41,0,.07,0,.15-.02.24,0,.08-.04.21-.06.37l-.5,2.18h-.6l.52-2.24c.03-.1.04-.18.05-.24v-.18c0-.06,0-.14-.03-.2-.02-.07-.05-.13-.1-.18-.05-.05-.12-.1-.19-.14-.08-.04-.18-.05-.3-.05-.1,0-.22.02-.35.05-.13.03-.26.1-.4.2-.07.06-.14.13-.2.2s-.11.16-.15.25c-.05.1-.08.21-.13.33-.04.12-.07.25-.11.42l-.42,1.79h-.61l.83-3.62h.62Z"/>
      <path class="cls-4" d="M105.76,36.49l-1.26,5.43h-.59l.12-.49c-.14.19-.31.33-.5.43s-.4.14-.64.14c-.3,0-.54-.05-.72-.16-.18-.11-.32-.24-.42-.41s-.16-.33-.2-.51c-.03-.17-.05-.34-.05-.46,0-.25.05-.52.13-.78s.21-.5.37-.72.37-.39.62-.53.53-.2.87-.2c.2,0,.38.03.53.08s.24.11.31.17c.11.1.17.18.21.26.03.08.05.16.07.25l.58-2.51h.6-.02ZM104.35,39.41c0-.11-.05-.22-.1-.32-.05-.11-.14-.19-.25-.27-.12-.07-.27-.11-.47-.11-.24,0-.44.05-.63.17-.17.11-.32.25-.43.43-.11.17-.2.36-.25.56-.05.2-.08.39-.08.56,0,.37.08.63.25.82.17.17.39.26.65.26s.46-.07.63-.2c.17-.14.31-.3.41-.5.1-.19.17-.4.23-.61.05-.21.07-.39.07-.54,0-.06,0-.15-.02-.26"/>
      <path class="cls-4" d="M106.26,40.58c0,.05-.02.1-.03.15,0,.05-.02.11-.02.16,0,.15.03.27.09.35.06.09.14.15.23.2.09.05.18.07.28.09.1,0,.19.02.26.02.16,0,.3-.02.42-.05s.21-.09.28-.15c.07-.06.13-.13.16-.2s.05-.14.05-.22c0-.14-.05-.24-.14-.31s-.23-.14-.42-.22l-.63-.24c-.1-.05-.2-.09-.29-.14-.09-.05-.17-.11-.24-.18s-.12-.14-.16-.24-.06-.19-.06-.31.03-.24.08-.38c.05-.13.14-.24.25-.34s.26-.19.45-.25c.18-.06.41-.1.66-.1.18,0,.34.02.51.05.15.04.29.09.41.17s.21.17.27.3c.06.12.1.26.1.43v.14l-.58.1c0-.05.02-.1.02-.13v-.08c0-.13-.05-.25-.17-.36-.12-.12-.29-.17-.53-.17-.28,0-.48.05-.62.17s-.2.24-.2.37c0,.14.05.24.15.3s.24.13.39.19l.59.23c.11.05.21.09.31.14.1.05.18.11.25.17s.13.14.17.24.06.21.06.34-.03.26-.07.39-.13.24-.22.35c-.1.11-.2.19-.32.25-.11.06-.23.11-.34.14-.12.03-.24.05-.34.05-.11,0-.21,0-.3,0-.19,0-.38-.02-.55-.05s-.33-.1-.45-.19-.23-.2-.31-.34c-.07-.14-.12-.31-.12-.51v-.14s0-.07.02-.11l.62-.1h.02Z"/>
      <path class="cls-4" d="M116.91,40.06c-.14.37-.33.71-.58,1s-.56.53-.93.7c-.36.17-.78.26-1.25.26-.4,0-.75-.07-1.05-.2-.3-.14-.55-.32-.74-.54-.2-.23-.34-.49-.44-.79-.1-.3-.15-.61-.15-.93,0-.37.05-.75.17-1.13.12-.38.29-.72.53-1.01.24-.3.54-.54.92-.73.37-.19.81-.28,1.31-.28.42,0,.8.07,1.12.23.33.14.59.34.78.6.18.23.32.5.4.8.09.3.13.6.13.9,0,.4-.07.79-.21,1.16M116.29,38.05c-.08-.24-.2-.43-.34-.61-.14-.16-.33-.29-.54-.38-.21-.09-.45-.13-.71-.13-.37,0-.7.08-.97.24s-.5.36-.68.61c-.18.24-.32.53-.4.84-.09.31-.13.63-.13.93s.05.57.13.82c.09.24.21.43.35.61s.33.29.53.38c.21.09.43.14.68.14.31,0,.61-.06.87-.2.27-.13.5-.32.7-.55.2-.24.35-.52.46-.83s.17-.67.17-1.05c0-.3-.04-.57-.13-.81"/>
      <path class="cls-4" d="M118.7,38.75c.04-.05.09-.11.15-.16.05-.05.13-.12.22-.17.08-.05.18-.1.3-.14.12-.04.25-.05.41-.05s.31.03.46.07c.15.05.3.14.43.24.13.12.23.26.31.44.07.18.12.41.12.67,0,.29-.05.58-.13.86-.09.28-.21.53-.38.74-.16.22-.36.39-.6.53-.24.13-.5.2-.8.2-.05,0-.11,0-.2,0-.08,0-.17-.03-.27-.06-.09-.04-.19-.08-.28-.15-.09-.07-.17-.16-.24-.29-.02-.03-.03-.05-.05-.08,0-.03-.03-.05-.04-.08l-.53,2.27h-.6l1.22-5.27h.59l-.11.45h0ZM120.37,39.14c-.07-.13-.16-.23-.25-.28-.09-.06-.19-.1-.28-.12s-.15-.03-.19-.03c-.06,0-.14,0-.22.03-.08.02-.17.05-.26.09s-.18.12-.28.2-.17.21-.25.35c-.04.07-.07.15-.11.25s-.07.21-.1.32c-.03.12-.05.23-.07.34-.02.12-.03.23-.03.34,0,.22.04.38.12.5.07.12.16.2.26.25.1.05.19.08.28.1.09,0,.14.02.17.02.21,0,.4-.05.56-.16s.31-.25.43-.43c.12-.17.2-.37.26-.59.05-.22.08-.43.08-.66s-.05-.4-.12-.53"/>
      <path class="cls-4" d="M122.79,38.75c.04-.05.09-.11.15-.16.05-.05.13-.12.22-.17.08-.05.18-.1.3-.14.12-.04.25-.05.41-.05s.31.03.46.07c.15.05.3.14.43.24.13.12.23.26.31.44.07.18.12.41.12.67,0,.29-.05.58-.13.86-.09.28-.21.53-.38.74-.16.22-.36.39-.6.53-.24.13-.5.2-.8.2-.05,0-.11,0-.2,0-.08,0-.17-.03-.27-.06-.09-.04-.19-.08-.28-.15-.09-.07-.17-.16-.24-.29-.02-.03-.03-.05-.05-.08,0-.03-.03-.05-.04-.08l-.53,2.27h-.6l1.22-5.27h.59l-.11.45h0ZM124.45,39.14c-.07-.13-.16-.23-.25-.28-.09-.06-.19-.1-.28-.12-.09-.02-.15-.03-.19-.03-.06,0-.14,0-.22.03-.08.02-.17.05-.26.09s-.18.12-.28.2-.17.21-.25.35c-.04.07-.07.15-.11.25s-.07.21-.1.32c-.03.12-.05.23-.07.34-.02.12-.03.23-.03.34,0,.22.04.38.12.5.07.12.16.2.26.25.1.05.19.08.28.1.09,0,.14.02.17.02.21,0,.4-.05.56-.16.16-.11.31-.25.43-.43.12-.17.2-.37.26-.59.05-.22.08-.43.08-.66s-.05-.4-.12-.53"/>
      <path class="cls-4" d="M129.09,40.58c-.09.27-.22.51-.39.72-.17.21-.38.38-.63.51-.25.13-.53.19-.84.19-.22,0-.43-.04-.61-.11-.19-.07-.34-.17-.48-.31s-.24-.3-.32-.5c-.07-.2-.12-.42-.12-.66,0-.32.05-.62.15-.88.1-.27.24-.51.43-.71.18-.2.4-.35.64-.46s.51-.16.79-.16c.18,0,.36.03.54.09s.34.15.48.28c.14.13.25.29.34.48s.14.43.14.7c0,.29-.04.56-.13.83M128.35,38.94c-.17-.16-.37-.25-.62-.25-.21,0-.4.05-.57.14s-.33.23-.44.39c-.13.16-.22.35-.29.57s-.1.44-.1.67c0,.14.02.28.05.41s.08.24.14.33c.07.11.18.19.31.25s.26.1.4.1c.03,0,.09,0,.17-.02.09,0,.19-.05.3-.09s.23-.13.35-.23c.12-.1.23-.24.33-.43s.16-.36.2-.55c.04-.19.05-.37.05-.54,0-.34-.1-.59-.27-.75"/>
      <path class="cls-4" d="M131.98,38.81h-.32c-.11,0-.23.05-.35.13-.12.07-.22.16-.3.27s-.15.23-.21.35-.1.24-.13.35c-.03.12-.05.22-.07.3l-.39,1.7h-.58l.83-3.62h.59l-.14.63c.05-.08.09-.15.13-.21.05-.05.12-.13.23-.23.06-.05.14-.12.25-.18s.25-.1.45-.1h.14l-.13.57v.02Z"/>
      <path class="cls-4" d="M133.62,38.3h.63l-.11.48h-.63l-.46,1.98c-.02.06-.04.14-.05.24-.02.1-.03.17-.03.23,0,.1.03.15.09.18.05.03.12.04.18.04h.12s.06,0,.11-.02c.05,0,.11-.02.19-.04l-.11.45c-.09.05-.18.07-.28.08-.1.02-.2.03-.3.03-.23,0-.38-.05-.47-.14s-.13-.22-.13-.36c0-.09,0-.17.03-.27.02-.09.04-.19.06-.29l.48-2.1h-.58l.11-.48h.58l.26-1.13h.58l-.26,1.13h0Z"/>
      <path class="cls-4" d="M137.97,38.3l-.83,3.62h-.58l.13-.57c-.05.06-.12.14-.18.2-.06.06-.15.14-.27.21-.14.07-.27.14-.43.17-.15.04-.3.05-.44.05-.29,0-.53-.07-.72-.23-.19-.15-.28-.35-.28-.62v-.1s0-.07.02-.12c0-.05.02-.11.04-.17.02-.07.04-.16.06-.28l.49-2.16h.61l-.49,2.15c-.02.1-.04.17-.05.24,0,.05-.02.11-.03.14,0,.04,0,.06,0,.09v.07c0,.09.02.17.05.24.05.06.11.13.21.18s.23.08.38.08c.12,0,.23-.02.35-.05s.24-.08.34-.15c.11-.07.21-.15.28-.25s.14-.21.18-.33.09-.24.13-.38c.04-.14.07-.28.1-.43l.37-1.59h.58,0Z"/>
      <path class="cls-4" d="M139.64,38.3l-.13.53s.09-.1.16-.16c.07-.07.16-.14.26-.2.11-.06.23-.13.36-.17.14-.05.28-.07.45-.07.13,0,.24.02.37.05s.24.1.34.17c.1.08.18.17.24.29.06.12.09.25.09.41,0,.07,0,.15-.02.24,0,.08-.04.21-.06.37l-.5,2.18h-.6l.52-2.24c.03-.1.04-.18.05-.24v-.18c0-.06,0-.14-.03-.2-.02-.07-.05-.13-.1-.18-.05-.05-.12-.1-.19-.14-.08-.04-.18-.05-.3-.05-.1,0-.22.02-.35.05-.13.03-.26.1-.4.2-.07.06-.14.13-.2.2s-.11.16-.15.25c-.05.1-.08.21-.13.33-.04.12-.07.25-.11.42l-.42,1.79h-.61l.83-3.62h.62Z"/>
      <path class="cls-4" d="M143.73,38.3l-.83,3.62h-.62l.83-3.62h.62ZM144,37.19h-.63l.16-.69h.63l-.16.69Z"/>
      <path class="cls-4" d="M145.48,38.3h.63l-.11.48h-.63l-.46,1.98c-.02.06-.04.14-.05.24-.02.1-.03.17-.03.23,0,.1.03.15.09.18.05.03.12.04.18.04h.12s.06,0,.11-.02c.05,0,.11-.02.19-.04l-.11.45c-.09.05-.18.07-.28.08-.1.02-.2.03-.3.03-.23,0-.38-.05-.47-.14s-.13-.22-.13-.36c0-.09,0-.17.03-.27.02-.09.04-.19.06-.29l.48-2.1h-.58l.11-.48h.58l.26-1.13h.58l-.26,1.13h0Z"/>
      <path class="cls-4" d="M149.57,38.3l-2.74,4.62c-.09.14-.16.24-.23.34s-.14.18-.23.24-.18.11-.3.14c-.11.03-.25.05-.43.05h-.25c-.05,0-.1-.02-.16-.03l.13-.53c.08.02.17.03.28.03.04,0,.09,0,.15,0,.06,0,.14-.04.23-.09.03-.02.06-.04.1-.07s.06-.07.09-.11c.03-.04.05-.07.07-.12.03-.04.05-.07.05-.09l.48-.82-.4-3.56h.59l.28,2.89,1.59-2.89h.68Z"/>
    </g>
  </g>
</svg>