<?xml version="1.0" encoding="UTF-8"?>
<svg id="ilm-header-white" xmlns="http://www.w3.org/2000/svg" viewBox="0 0 429.2 50">
  <defs>
    <style>
      .cls-1 {
        fill: #fff;
      }

      .cls-2 {
        isolation: isolate;
      }

      .cls-3 {
        fill: #59b5ab;
      }
    </style>
  </defs>
  <rect class="cls-1" x="167.08" y="8" width=".8" height="34"/>
  <g>
    <g class="cls-2">
      <g class="cls-2">
        <g class="cls-2">
          <g class="cls-2">
            <g class="cls-2">
              <g class="cls-2">
                <path class="cls-1" d="M179.38,19.2h6.8c1,0,1.9.1,2.7.4s1.5.7,2,1.2,1,1.1,1.3,1.8c.3.7.4,1.5.4,2.3h0c0,1-.2,1.9-.5,2.6s-.8,1.3-1.4,1.8c-.6.5-1.3.9-2.1,1.1s-1.7.4-2.6.4h-2.8v5h-3.7v-16.7l-.1.1h0ZM185.98,27.6c.9,0,1.6-.2,2.1-.7s.8-1.1.8-1.8h0c0-.9-.3-1.5-.8-1.9s-1.3-.6-2.2-.6h-2.8v5.1h2.9v-.1Z"/>
                <path class="cls-1" d="M195.28,19.2h7.6c2.1,0,3.7.6,4.9,1.7,1,1,1.4,2.2,1.4,3.8h0c0,1.4-.3,2.5-1,3.3s-1.5,1.5-2.6,1.9l4.1,6h-4.3l-3.6-5.3h-2.9v5.3h-3.7v-16.7h.1ZM202.68,27.3c.9,0,1.6-.2,2.1-.6s.7-1,.7-1.7h0c0-.8-.3-1.4-.8-1.8s-1.2-.6-2.1-.6h-3.6v4.8h3.7v-.1h0Z"/>
                <path class="cls-1" d="M212.68,19.2h3.7v16.7h-3.7v-16.7Z"/>
                <path class="cls-1" d="M220.48,19.2h3.4l7.8,10.3v-10.3h3.6v16.7h-3.1l-8.1-10.6v10.6h-3.6v-16.7h0Z"/>
                <path class="cls-1" d="M243.18,22.6h-5.1v-3.4h13.8v3.4h-5.1v13.3h-3.7v-13.3s.1,0,.1,0Z"/>
              </g>
            </g>
          </g>
        </g>
      </g>
    </g>
    <g class="cls-2">
      <g class="cls-2">
        <g class="cls-2">
          <g class="cls-2">
            <g class="cls-2">
              <g class="cls-2">
                <path class="cls-1" d="M262.58,19h6.8c1,0,1.9.1,2.7.4s1.5.7,2,1.2,1,1.1,1.3,1.8c.3.7.4,1.5.4,2.3h0c0,1-.2,1.9-.5,2.6s-.8,1.3-1.4,1.8-1.3.9-2.1,1.1c-.8.2-1.7.4-2.6.4h-2.8v5h-3.7v-16.7l-.1.1h0ZM269.18,27.4c.9,0,1.6-.2,2.1-.7s.8-1.1.8-1.8h0c0-.9-.3-1.5-.8-1.9s-1.3-.6-2.2-.6h-2.8v5.1h2.9v-.1Z"/>
                <path class="cls-1" d="M286.58,36c-1.3,0-2.5-.2-3.5-.7s-2-1.1-2.8-1.8c-.8-.8-1.4-1.7-1.8-2.7s-.7-2.2-.7-3.3h0c0-1.2.2-2.4.7-3.4.4-1,1.1-2,1.8-2.7.8-.8,1.7-1.4,2.8-1.9s2.3-.7,3.6-.7,2.5.2,3.5.7,2,1.1,2.8,1.8,1.4,1.7,1.8,2.7.7,2.2.7,3.3h0c0,1.2-.2,2.4-.7,3.4-.4,1-1.1,2-1.8,2.7-.8.8-1.7,1.4-2.8,1.9-1.1.5-2.3.7-3.6.7ZM286.58,32.6c.7,0,1.4-.1,2-.4.6-.3,1.1-.6,1.6-1.1s.8-1,1-1.7c.2-.6.4-1.3.4-2h0c0-.8-.1-1.4-.4-2.1s-.6-1.2-1-1.7c-.5-.5-1-.9-1.6-1.1-.6-.3-1.3-.4-2-.4s-1.4.1-2,.4-1.1.6-1.6,1.1c-.4.5-.8,1-1,1.7s-.4,1.3-.4,2h0c0,.8.1,1.4.4,2.1s.6,1.2,1,1.7c.5.5,1,.9,1.6,1.1.6.3,1.3.4,2,.4Z"/>
                <path class="cls-1" d="M298.68,19h7.6c2.1,0,3.7.6,4.9,1.7,1,1,1.4,2.2,1.4,3.8h0c0,1.4-.3,2.5-1,3.3s-1.5,1.5-2.6,1.9l4.1,6h-4.3l-3.6-5.3h-2.9v5.3h-3.7v-16.7s.1,0,.1,0ZM306.08,27.1c.9,0,1.6-.2,2.1-.6s.7-1,.7-1.7h0c0-.8-.3-1.4-.8-1.8s-1.2-.6-2.1-.6h-3.6v4.8h3.7v-.1h0Z"/>
                <path class="cls-1" d="M319.78,22.4h-5.1v-3.4h13.8v3.4h-5.1v13.3h-3.7v-13.3h.1Z"/>
                <path class="cls-1" d="M337.08,18.9h3.4l7.1,16.8h-3.8l-1.5-3.7h-7l-1.5,3.7h-3.7l7.1-16.8s-.1,0-.1,0ZM340.88,28.7l-2.2-5.4-2.2,5.4h4.4Z"/>
                <path class="cls-1" d="M350.18,19h3.7v13.4h8.3v3.3h-12v-16.7Z"/>
              </g>
            </g>
          </g>
        </g>
      </g>
    </g>
  </g>
  <g>
    <rect class="cls-1" x="98.12" y="15.42" width="1.49" height="7.44"/>
    <g>
      <path class="cls-1" d="M106.07,17.54c.43.44.65,1.07.65,1.86v3.47h-1.49v-3.26c0-.47-.12-.83-.35-1.08s-.56-.38-.96-.38-.74.12-.98.38-.36.61-.36,1.08v3.26h-1.49v-5.91h1.49v.74c.2-.26.45-.46.76-.6.31-.15.65-.22,1.02-.22.7,0,1.27.22,1.71.66"/>
      <path class="cls-1" d="M109.87,18.19v2.86c0,.2.05.34.14.43s.26.14.48.14h.69v1.26h-.94c-1.26,0-1.89-.61-1.89-1.83v-2.85h-.7v-1.23h.7v-1.46h1.5v1.46h1.32v1.23h-1.32,0Z"/>
      <path class="cls-1" d="M117.72,20.36h-4.32c.03.43.19.76.45,1s.58.36.97.36c.56,0,.95-.24,1.19-.71h1.61c-.17.57-.5,1.04-.98,1.4-.48.37-1.08.55-1.78.55-.57,0-1.08-.12-1.53-.38-.45-.25-.81-.61-1.06-1.07-.26-.46-.38-.99-.38-1.6s.12-1.15.37-1.61c.25-.46.6-.82,1.04-1.07.45-.25.96-.37,1.55-.37s1.07.12,1.51.36c.44.24.79.58,1.03,1.03.24.44.37.95.37,1.53,0,.22-.01.4-.05.58M116.22,19.36c0-.39-.15-.69-.41-.92-.27-.23-.6-.35-.99-.35-.37,0-.68.11-.93.33-.26.22-.41.53-.47.93h2.8Z"/>
      <path class="cls-1" d="M123.83,17.54c.43.44.65,1.07.65,1.86v3.47h-1.49v-3.26c0-.47-.12-.83-.35-1.08s-.56-.38-.96-.38-.74.12-.98.38-.36.61-.36,1.08v3.26h-1.49v-5.91h1.49v.74c.2-.26.45-.46.76-.6.31-.15.65-.22,1.02-.22.7,0,1.27.22,1.71.66"/>
      <path class="cls-1" d="M127.64,18.19v2.86c0,.2.05.34.14.43.1.09.26.14.48.14h.69v1.26h-.94c-1.26,0-1.89-.61-1.89-1.83v-2.85h-.7v-1.23h.7v-1.46h1.5v1.46h1.32v1.23h-1.32,0Z"/>
      <path class="cls-1" d="M130.14,16.01c-.18-.17-.26-.37-.26-.62s.09-.45.26-.62c.18-.16.39-.25.66-.25s.48.09.66.25c.18.17.26.37.26.62s-.09.46-.26.62-.39.25-.66.25-.48-.09-.66-.25M131.53,22.87h-1.49v-5.91h1.49v5.91Z"/>
      <path class="cls-1" d="M134.09,22.58c-.45-.25-.81-.61-1.07-1.07-.26-.46-.39-.99-.39-1.6s.14-1.14.4-1.6.63-.82,1.1-1.07c.46-.26.98-.38,1.55-.38s1.08.12,1.54.38c.47.26.83.61,1.1,1.07.27.46.4.99.4,1.6s-.14,1.14-.41,1.6c-.27.47-.64.82-1.11,1.07-.47.26-.99.38-1.56.38s-1.08-.12-1.54-.38M136.39,21.47c.24-.13.43-.33.57-.59.14-.26.22-.58.22-.96,0-.56-.15-.99-.44-1.29s-.66-.45-1.08-.45-.78.15-1.07.45c-.29.3-.43.73-.43,1.29s.14.99.42,1.29.64.45,1.06.45c.27,0,.52-.07.76-.2"/>
      <path class="cls-1" d="M144.79,17.54c.43.44.65,1.07.65,1.86v3.47h-1.49v-3.26c0-.47-.12-.83-.35-1.08-.23-.26-.56-.38-.96-.38s-.74.12-.98.38-.36.61-.36,1.08v3.26h-1.49v-5.91h1.49v.74c.2-.26.45-.46.76-.6.31-.15.65-.22,1.02-.22.7,0,1.27.22,1.71.66"/>
      <path class="cls-1" d="M146.83,18.3c.24-.46.56-.82.97-1.07.41-.25.87-.37,1.37-.37.44,0,.83.09,1.16.27s.6.4.79.67v-.84h1.5v5.91h-1.5v-.86c-.19.28-.45.51-.79.69-.34.18-.73.27-1.17.27-.5,0-.95-.13-1.36-.39s-.73-.62-.97-1.08c-.24-.47-.36-1-.36-1.61s.12-1.13.36-1.59M150.91,18.97c-.14-.26-.33-.46-.58-.6-.24-.14-.5-.21-.78-.21s-.53.07-.77.2-.43.33-.57.59c-.15.26-.22.57-.22.92s.07.66.22.93.34.47.58.61.49.22.76.22.54-.07.78-.21c.24-.14.43-.34.58-.6.14-.26.22-.57.22-.94s-.07-.68-.22-.93"/>
      <rect class="cls-1" x="154.09" y="14.97" width="1.49" height="7.89"/>
      <polygon class="cls-1" points="99.58 32.29 102.04 32.29 102.04 33.47 98.09 33.47 98.09 26.03 99.58 26.03 99.58 32.29"/>
      <path class="cls-1" d="M103.09,26.61c-.18-.16-.26-.37-.26-.62s.09-.46.26-.62c.18-.16.39-.25.66-.25s.48.09.66.25c.18.16.26.37.26.62s-.09.46-.26.62c-.18.16-.39.25-.66.25s-.48-.09-.66-.25M104.48,33.47h-1.49v-5.91h1.49v5.91Z"/>
      <path class="cls-1" d="M108.66,28.79h-1.03v4.68h-1.52v-4.68h-.67v-1.23h.67v-.3c0-.73.2-1.26.62-1.6.41-.34,1.03-.5,1.87-.48v1.26c-.36,0-.61.05-.75.18s-.22.36-.22.69v.24h1.03v1.23h0Z"/>
      <path class="cls-1" d="M115.08,30.96h-4.32c.03.43.19.76.45,1s.58.36.97.36c.56,0,.95-.24,1.19-.71h1.61c-.17.57-.5,1.04-.98,1.4-.48.37-1.08.55-1.78.55-.57,0-1.08-.12-1.53-.38-.45-.25-.81-.61-1.06-1.07-.26-.46-.38-.99-.38-1.6s.12-1.15.37-1.61c.25-.46.6-.82,1.04-1.07.45-.25.96-.37,1.55-.37s1.07.12,1.51.36c.44.24.79.58,1.03,1.03.24.44.37.95.37,1.53,0,.22-.01.4-.05.57M113.57,29.95c0-.39-.15-.69-.41-.92-.27-.23-.6-.35-.99-.35-.37,0-.68.11-.93.33-.26.22-.41.53-.47.93h2.8Z"/>
      <polygon class="cls-3" points="126.86 26.03 126.86 33.47 125.37 33.47 125.37 28.63 123.37 33.47 122.24 33.47 120.24 28.63 120.24 33.47 118.75 33.47 118.75 26.03 120.44 26.03 122.81 31.56 125.18 26.03 126.86 26.03"/>
      <path class="cls-3" d="M133.78,30.96h-4.32c.03.43.19.76.45,1s.58.36.97.36c.56,0,.95-.24,1.19-.71h1.61c-.17.57-.5,1.04-.98,1.4s-1.08.55-1.78.55c-.57,0-1.08-.12-1.53-.38-.45-.25-.81-.61-1.06-1.07-.25-.46-.38-.99-.38-1.6s.12-1.15.37-1.61c.25-.46.6-.82,1.04-1.07.45-.25.96-.37,1.55-.37s1.07.12,1.51.36c.44.24.79.58,1.03,1.03.24.44.37.95.37,1.53,0,.22-.01.4-.05.57M132.28,29.95c0-.39-.15-.69-.41-.92-.27-.23-.6-.35-.99-.35-.37,0-.68.11-.93.33-.26.22-.41.53-.47.93h2.8Z"/>
      <path class="cls-3" d="M134.89,28.9c.24-.46.56-.82.98-1.07.41-.25.87-.37,1.37-.37.39,0,.75.09,1.1.25.35.16.62.39.83.66v-2.8h1.52v7.89h-1.52v-.87c-.19.29-.44.53-.78.7s-.72.27-1.16.27c-.5,0-.95-.13-1.37-.39-.41-.26-.74-.62-.98-1.08s-.36-1-.36-1.61.12-1.13.36-1.59M138.97,29.57c-.14-.26-.33-.46-.58-.6-.24-.14-.5-.21-.78-.21s-.53.07-.77.2-.43.33-.57.59c-.15.26-.22.57-.22.92s.07.66.22.93.34.47.58.61.49.22.76.22.54-.07.78-.21c.24-.14.43-.34.58-.6.14-.26.22-.57.22-.93s-.07-.68-.22-.93"/>
      <path class="cls-3" d="M142.25,26.61c-.18-.16-.26-.37-.26-.62s.09-.46.26-.62c.18-.16.39-.25.66-.25s.48.09.66.25c.18.16.26.37.26.62s-.09.46-.26.62c-.18.16-.39.25-.66.25s-.48-.09-.66-.25M143.64,33.47h-1.49v-5.91h1.49v5.91Z"/>
      <path class="cls-3" d="M145.08,28.9c.24-.46.56-.82.97-1.07.41-.25.87-.37,1.37-.37.44,0,.83.09,1.16.27s.6.4.79.67v-.84h1.5v5.91h-1.5v-.86c-.19.28-.45.51-.79.69-.33.18-.73.27-1.17.27-.5,0-.95-.13-1.36-.39s-.73-.62-.97-1.08c-.24-.47-.36-1-.36-1.61s.12-1.13.36-1.59M149.16,29.57c-.14-.26-.33-.46-.58-.6-.24-.14-.5-.21-.78-.21s-.53.07-.77.2-.43.33-.57.59c-.15.26-.22.57-.22.92s.07.66.22.93.34.47.58.61.49.22.76.22.54-.07.78-.21c.24-.14.43-.34.58-.6.14-.26.22-.57.22-.93s-.07-.68-.22-.93"/>
      <path class="cls-3" d="M79.04,26c-.28-2.48.78-5.07,2.72-6.65,1.93-1.58,4.69-2.09,7.06-1.32.6.2,1.2.48,1.6.98.05.06.09.12.1.2,0,.1-.05.18-.11.26-.75,1.04-1.5,2.08-2.25,3.12l.03.03c-1.34-1.02-3.12-1.39-4.79-1.16-.79.11-1.58.35-2.22.82-.87.65-1.38,1.68-1.86,2.67"/>
      <path class="cls-3" d="M79.04,26c.28-2.48-.78-5.07-2.72-6.65-1.93-1.58-4.69-2.09-7.06-1.32-.6.2-1.2.48-1.6.98-.05.06-.09.12-.1.2,0,.1.05.18.11.26.75,1.04,1.5,2.08,2.25,3.12l-.03.03c1.34-1.02,3.12-1.39,4.79-1.16.79.11,1.58.35,2.22.82.87.65,1.38,1.68,1.86,2.67"/>
      <path class="cls-3" d="M81.59,15.86c0-1.41-1.14-2.54-2.54-2.54s-2.54,1.14-2.54,2.54,1.14,2.54,2.54,2.54,2.54-1.14,2.54-2.54"/>
      <path class="cls-3" d="M84.18,24.67c-2.83,0-5.12,2.29-5.12,5.12h-.03c0-2.83-2.29-5.12-5.12-5.12h-6.88c0,6.64,5.38,12.02,12.02,12.02s12.02-5.38,12.02-12.02h-6.89ZM79.13,35.02c-5.14,0-9.41-3.76-10.21-8.68h4.77c.58.05,1.45.22,2.35.75.33.19.82.5,1.28,1.06.41.51.47.83.98,2.07.16.4.41.97.74,1.66.19-.41.48-1.03.82-1.81.47-1.07.55-1.31.83-1.73.27-.4.68-1.02,1.46-1.48.83-.48,1.65-.54,2.12-.53h5.07c-.8,4.91-5.08,8.68-10.21,8.68"/>
    </g>
  </g>
</svg>