<?xml version="1.0" encoding="UTF-8"?>
<svg id="Layer_1" data-name="Layer 1" xmlns="http://www.w3.org/2000/svg" xmlns:xlink="http://www.w3.org/1999/xlink" viewBox="0 0 429.2 50">
  <defs>
    <style>
      .cls-1 {
        fill: #fff;
      }

      .cls-2 {
        fill: none;
      }

      .cls-3 {
        isolation: isolate;
      }

      .cls-4 {
        clip-path: url(#clippath);
      }
    </style>
    <clipPath id="clippath">
      <rect class="cls-2" x="87.29" y="5.4" width="48.01" height="39.21"/>
    </clipPath>
  </defs>
  <rect class="cls-1" x="146.8" y="8" width=".8" height="34"/>
  <g>
    <g class="cls-3">
      <g class="cls-3">
        <g class="cls-3">
          <g class="cls-3">
            <g class="cls-3">
              <g class="cls-3">
                <path class="cls-1" d="M159.1,19.2h6.8c1,0,1.9.1,2.7.4s1.5.7,2,1.2,1,1.1,1.3,1.8c.3.7.4,1.5.4,2.3h0c0,1-.2,1.9-.5,2.6s-.8,1.3-1.4,1.8c-.6.5-1.3.9-2.1,1.1s-1.7.4-2.6.4h-2.8v5h-3.7v-16.7l-.1.1h0ZM165.7,27.6c.9,0,1.6-.2,2.1-.7s.8-1.1.8-1.8h0c0-.9-.3-1.5-.8-1.9s-1.3-.6-2.2-.6h-2.8v5.1h2.9v-.1Z"/>
                <path class="cls-1" d="M175,19.2h7.6c2.1,0,3.7.6,4.9,1.7,1,1,1.4,2.2,1.4,3.8h0c0,1.4-.3,2.5-1,3.3s-1.5,1.5-2.6,1.9l4.1,6h-4.3l-3.6-5.3h-2.9v5.3h-3.7v-16.7h.1ZM182.4,27.3c.9,0,1.6-.2,2.1-.6s.7-1,.7-1.7h0c0-.8-.3-1.4-.8-1.8s-1.2-.6-2.1-.6h-3.6v4.8h3.7v-.1h0Z"/>
                <path class="cls-1" d="M192.4,19.2h3.7v16.7h-3.7v-16.7Z"/>
                <path class="cls-1" d="M200.2,19.2h3.4l7.8,10.3v-10.3h3.6v16.7h-3.1l-8.1-10.6v10.6h-3.6v-16.7h0Z"/>
                <path class="cls-1" d="M222.91,22.6h-5.1v-3.4h13.8v3.4h-5.1v13.3h-3.7v-13.3s.1,0,.1,0Z"/>
              </g>
            </g>
          </g>
        </g>
      </g>
    </g>
    <g class="cls-3">
      <g class="cls-3">
        <g class="cls-3">
          <g class="cls-3">
            <g class="cls-3">
              <g class="cls-3">
                <path class="cls-1" d="M242.31,19h6.8c1,0,1.9.1,2.7.4s1.5.7,2,1.2,1,1.1,1.3,1.8c.3.7.4,1.5.4,2.3h0c0,1-.2,1.9-.5,2.6s-.8,1.3-1.4,1.8-1.3.9-2.1,1.1c-.8.2-1.7.4-2.6.4h-2.8v5h-3.7v-16.7l-.1.1h0ZM248.91,27.4c.9,0,1.6-.2,2.1-.7s.8-1.1.8-1.8h0c0-.9-.3-1.5-.8-1.9s-1.3-.6-2.2-.6h-2.8v5.1h2.9v-.1Z"/>
                <path class="cls-1" d="M266.31,36c-1.3,0-2.5-.2-3.5-.7s-2-1.1-2.8-1.8c-.8-.8-1.4-1.7-1.8-2.7s-.7-2.2-.7-3.3h0c0-1.2.2-2.4.7-3.4.4-1,1.1-2,1.8-2.7.8-.8,1.7-1.4,2.8-1.9s2.3-.7,3.6-.7,2.5.2,3.5.7,2,1.1,2.8,1.8,1.4,1.7,1.8,2.7.7,2.2.7,3.3h0c0,1.2-.2,2.4-.7,3.4-.4,1-1.1,2-1.8,2.7-.8.8-1.7,1.4-2.8,1.9-1.1.5-2.3.7-3.6.7ZM266.31,32.6c.7,0,1.4-.1,2-.4.6-.3,1.1-.6,1.6-1.1s.8-1,1-1.7c.2-.6.4-1.3.4-2h0c0-.8-.1-1.4-.4-2.1s-.6-1.2-1-1.7c-.5-.5-1-.9-1.6-1.1-.6-.3-1.3-.4-2-.4s-1.4.1-2,.4-1.1.6-1.6,1.1c-.4.5-.8,1-1,1.7s-.4,1.3-.4,2h0c0,.8.1,1.4.4,2.1s.6,1.2,1,1.7c.5.5,1,.9,1.6,1.1.6.3,1.3.4,2,.4Z"/>
                <path class="cls-1" d="M278.41,19h7.6c2.1,0,3.7.6,4.9,1.7,1,1,1.4,2.2,1.4,3.8h0c0,1.4-.3,2.5-1,3.3s-1.5,1.5-2.6,1.9l4.1,6h-4.3l-3.6-5.3h-2.9v5.3h-3.7v-16.7s.1,0,.1,0ZM285.81,27.1c.9,0,1.6-.2,2.1-.6s.7-1,.7-1.7h0c0-.8-.3-1.4-.8-1.8s-1.2-.6-2.1-.6h-3.6v4.8h3.7v-.1h0Z"/>
                <path class="cls-1" d="M299.51,22.4h-5.1v-3.4h13.8v3.4h-5.1v13.3h-3.7v-13.3h.1Z"/>
                <path class="cls-1" d="M316.81,18.9h3.4l7.1,16.8h-3.8l-1.5-3.7h-7l-1.5,3.7h-3.7l7.1-16.8s-.1,0-.1,0ZM320.61,28.7l-2.2-5.4-2.2,5.4h4.4Z"/>
                <path class="cls-1" d="M329.91,19h3.7v13.4h8.3v3.3h-12v-16.7Z"/>
              </g>
            </g>
          </g>
        </g>
      </g>
    </g>
  </g>
  <g>
    <rect class="cls-1" x="97.14" y="5.42" width="5.74" height="25.24"/>
    <g class="cls-4">
      <path class="cls-1" d="M92.59,14.46c-.19,0-.39,0-.59.01-1.64.07-3.54.77-4.72,1.59,4-.36,4.82-.06,6.8.58,1.64.53,4.69,2.5,6.39,3.19.58.23,1.15.44,1.73.6,1.38.38,3.08.56,4.42.53,1.13-.02,1.95-.13,2.97-.47,1.02-.34,2.69-1.1,3.75-1.75-2.09.68-3.49.87-4.18.86-3.53-.05-5.02-.95-8.58-2.72-2.95-1.47-5.13-2.42-8.01-2.42"/>
      <rect class="cls-1" x="108.3" y="5.42" width="5.74" height="25.24"/>
      <path class="cls-1" d="M91.64,13.52c3.36-.14,5.82.92,8.99,2.49,3.58,1.78,4.83,2.63,8.23,2.63,1.23,0,2.43-.1,4.45-.79,1.35-.46,1.93-.73,4.09-1.96.24-.13.48-.28.73-.42.16-.09.3-.18.47-.28-2.76.67-4.99,1.19-7.09,1.27-5.81.2-7.99-2.67-13.54-3.43-2.03-.28-4.47-.15-6.34.49"/>
      <path class="cls-1" d="M125.19,13.79c-1.43,0-2.85.23-4.05.81-5.68,2.75-7.8,5.14-12.21,6.66-2.51.86-6.19.63-9.14-.44,1.88,1.13,5.71,2.87,9.07,2.67,2.74-.16,4.94-1.29,7.37-2.73,1.77-1.05,3.95-2.9,5.64-3.85,2.39-1.35,5.46-2.23,9.62-1.89-1.5-.63-3.91-1.24-6.3-1.23"/>
      <rect class="cls-1" x="87.29" y="33.06" width="1.21" height="5.23"/>
      <polygon class="cls-1" points="94.54 33.06 94.54 38.3 93.54 38.3 90.94 35.12 90.94 38.3 89.74 38.3 89.74 33.06 90.74 33.06 93.34 36.24 93.34 33.06 94.54 33.06"/>
      <polygon class="cls-1" points="100.58 33.06 100.58 38.3 99.59 38.3 96.98 35.12 96.98 38.3 95.78 38.3 95.78 33.06 96.78 33.06 99.39 36.24 99.39 33.06 100.58 33.06"/>
      <path class="cls-1" d="M101.5,35.68c0-1.56,1.21-2.71,2.86-2.71s2.86,1.14,2.86,2.71-1.22,2.71-2.86,2.71-2.86-1.15-2.86-2.71M106,35.68c0-.99-.7-1.67-1.64-1.67s-1.64.68-1.64,1.67.7,1.67,1.64,1.67,1.64-.68,1.64-1.67"/>
      <polygon class="cls-1" points="113 33.06 110.73 38.3 109.54 38.3 107.28 33.06 108.59 33.06 110.18 36.8 111.8 33.06 113 33.06"/>
      <path class="cls-1" d="M116.71,37.17h-2.43l-.46,1.12h-1.24l2.33-5.23h1.2l2.34,5.23h-1.27l-.46-1.12ZM116.33,36.26l-.83-2-.83,2h1.66Z"/>
      <polygon class="cls-1" points="119.82 34.05 118.14 34.05 118.14 33.06 122.7 33.06 122.7 34.05 121.03 34.05 121.03 38.3 119.82 38.3 119.82 34.05"/>
      <rect class="cls-1" x="123.35" y="33.06" width="1.21" height="5.23"/>
      <polygon class="cls-1" points="130.81 33.06 128.54 38.3 127.35 38.3 125.09 33.06 126.4 33.06 127.99 36.8 129.61 33.06 130.81 33.06"/>
      <polygon class="cls-1" points="135.3 37.32 135.3 38.3 131.25 38.3 131.25 33.06 135.2 33.06 135.2 34.03 132.45 34.03 132.45 35.17 134.88 35.17 134.88 36.11 132.45 36.11 132.45 37.32 135.3 37.32"/>
      <polygon class="cls-1" points="96.7 40.91 96.7 44.58 96.32 44.58 96.32 42.89 94.02 42.89 94.02 44.58 93.63 44.58 93.63 40.91 94.02 40.91 94.02 42.55 96.32 42.55 96.32 40.91 96.7 40.91"/>
      <polygon class="cls-1" points="100.48 44.24 100.48 44.58 97.89 44.58 97.89 40.91 100.41 40.91 100.41 41.25 98.28 41.25 98.28 42.55 100.18 42.55 100.18 42.88 98.28 42.88 98.28 44.24 100.48 44.24"/>
      <path class="cls-1" d="M103.69,43.6h-2.04l-.44.98h-.4l1.68-3.67h.38l1.68,3.67h-.41l-.44-.98ZM103.55,43.29l-.88-1.97-.88,1.97h1.76Z"/>
      <polygon class="cls-1" points="105.15 40.91 105.54 40.91 105.54 44.24 107.59 44.24 107.59 44.58 105.15 44.58 105.15 40.91"/>
      <polygon class="cls-1" points="108.6 41.25 107.32 41.25 107.32 40.91 110.28 40.91 110.28 41.25 108.99 41.25 108.99 44.58 108.6 44.58 108.6 41.25"/>
      <polygon class="cls-1" points="113.96 40.91 113.96 44.58 113.58 44.58 113.58 42.89 111.28 42.89 111.28 44.58 110.9 44.58 110.9 40.91 111.28 40.91 111.28 42.55 113.58 42.55 113.58 40.91 113.96 40.91"/>
      <path class="cls-1" d="M114.83,42.75c0-1.07.82-1.87,1.92-1.87.53,0,1.02.18,1.34.53l-.25.25c-.3-.3-.67-.43-1.08-.43-.89,0-1.55.65-1.55,1.52s.67,1.52,1.55,1.52c.42,0,.79-.13,1.08-.44l.25.25c-.33.36-.81.54-1.35.54-1.1,0-1.92-.79-1.92-1.86"/>
      <path class="cls-1" d="M121.12,43.6h-2.04l-.44.98h-.4l1.68-3.67h.38l1.68,3.67h-.41l-.44-.98ZM120.98,43.29l-.88-1.97-.88,1.97h1.76Z"/>
      <path class="cls-1" d="M125.08,44.58l-.84-1.18c-.09.01-.19.02-.29.02h-.98v1.16h-.39v-3.67h1.37c.93,0,1.5.47,1.5,1.26,0,.58-.3.98-.84,1.15l.9,1.26h-.42ZM125.06,42.17c0-.59-.39-.92-1.12-.92h-.97v1.84h.97c.73,0,1.12-.34,1.12-.92"/>
      <polygon class="cls-1" points="128.96 44.24 128.96 44.58 126.36 44.58 126.36 40.91 128.88 40.91 128.88 41.25 126.75 41.25 126.75 42.55 128.65 42.55 128.65 42.88 126.75 42.88 126.75 44.24 128.96 44.24"/>
      <rect class="cls-1" x="109.68" y="15.16" width="25.24" height="5.74" transform="translate(103.98 140.28) rotate(-89.86)"/>
      <path class="cls-1" d="M130.32,15.77c-.12,0-.24,0-.36,0-3.26-.02-5.71.73-7.69,1.84-1.55.88-3.75,2.73-5.63,3.84-2.45,1.45-4.8,2.68-7.74,2.84-.39.02-.79.02-1.18,0,1.78.61,3.84.67,5.38.58,2.66-.17,5.25-1.95,7.55-3.45,3.11-2.03,6.24-4.06,9.53-4.54,1.53-.22,3.52-.18,5.11-.22-2.07-.48-3.05-.9-4.98-.9"/>
    </g>
  </g>
</svg>