<?xml version="1.0" encoding="UTF-8"?>
<svg id="Layer_1" data-name="Layer 1" xmlns="http://www.w3.org/2000/svg" viewBox="0 0 429.2 50">
  <defs>
    <style>
      .cls-1 {
        fill: #51312d;
      }

      .cls-2 {
        fill: #fff;
      }

      .cls-3 {
        isolation: isolate;
      }
    </style>
  </defs>
  <rect class="cls-2" x="167.08" y="8" width=".8" height="34"/>
  <g>
    <g class="cls-3">
      <g class="cls-3">
        <g class="cls-3">
          <g class="cls-3">
            <g class="cls-3">
              <g class="cls-3">
                <path class="cls-2" d="M179.38,19.2h6.8c1,0,1.9.1,2.7.4s1.5.7,2,1.2,1,1.1,1.3,1.8c.3.7.4,1.5.4,2.3h0c0,1-.2,1.9-.5,2.6s-.8,1.3-1.4,1.8c-.6.5-1.3.9-2.1,1.1s-1.7.4-2.6.4h-2.8v5h-3.7v-16.7l-.1.1h0ZM185.98,27.6c.9,0,1.6-.2,2.1-.7s.8-1.1.8-1.8h0c0-.9-.3-1.5-.8-1.9s-1.3-.6-2.2-.6h-2.8v5.1h2.9v-.1Z"/>
                <path class="cls-2" d="M195.28,19.2h7.6c2.1,0,3.7.6,4.9,1.7,1,1,1.4,2.2,1.4,3.8h0c0,1.4-.3,2.5-1,3.3s-1.5,1.5-2.6,1.9l4.1,6h-4.3l-3.6-5.3h-2.9v5.3h-3.7v-16.7h.1ZM202.68,27.3c.9,0,1.6-.2,2.1-.6s.7-1,.7-1.7h0c0-.8-.3-1.4-.8-1.8s-1.2-.6-2.1-.6h-3.6v4.8h3.7v-.1h0Z"/>
                <path class="cls-2" d="M212.68,19.2h3.7v16.7h-3.7v-16.7Z"/>
                <path class="cls-2" d="M220.48,19.2h3.4l7.8,10.3v-10.3h3.6v16.7h-3.1l-8.1-10.6v10.6h-3.6v-16.7h0Z"/>
                <path class="cls-2" d="M243.18,22.6h-5.1v-3.4h13.8v3.4h-5.1v13.3h-3.7v-13.3h.1Z"/>
              </g>
            </g>
          </g>
        </g>
      </g>
    </g>
    <g class="cls-3">
      <g class="cls-3">
        <g class="cls-3">
          <g class="cls-3">
            <g class="cls-3">
              <g class="cls-3">
                <path class="cls-2" d="M262.58,19h6.8c1,0,1.9.1,2.7.4s1.5.7,2,1.2,1,1.1,1.3,1.8c.3.7.4,1.5.4,2.3h0c0,1-.2,1.9-.5,2.6s-.8,1.3-1.4,1.8-1.3.9-2.1,1.1c-.8.2-1.7.4-2.6.4h-2.8v5h-3.7v-16.7l-.1.1h0ZM269.18,27.4c.9,0,1.6-.2,2.1-.7s.8-1.1.8-1.8h0c0-.9-.3-1.5-.8-1.9s-1.3-.6-2.2-.6h-2.8v5.1h2.9v-.1Z"/>
                <path class="cls-2" d="M286.58,36c-1.3,0-2.5-.2-3.5-.7s-2-1.1-2.8-1.8c-.8-.8-1.4-1.7-1.8-2.7s-.7-2.2-.7-3.3h0c0-1.2.2-2.4.7-3.4.4-1,1.1-2,1.8-2.7.8-.8,1.7-1.4,2.8-1.9s2.3-.7,3.6-.7,2.5.2,3.5.7,2,1.1,2.8,1.8,1.4,1.7,1.8,2.7.7,2.2.7,3.3h0c0,1.2-.2,2.4-.7,3.4-.4,1-1.1,2-1.8,2.7-.8.8-1.7,1.4-2.8,1.9-1.1.5-2.3.7-3.6.7ZM286.58,32.6c.7,0,1.4-.1,2-.4.6-.3,1.1-.6,1.6-1.1s.8-1,1-1.7c.2-.6.4-1.3.4-2h0c0-.8-.1-1.4-.4-2.1s-.6-1.2-1-1.7c-.5-.5-1-.9-1.6-1.1-.6-.3-1.3-.4-2-.4s-1.4.1-2,.4-1.1.6-1.6,1.1c-.4.5-.8,1-1,1.7s-.4,1.3-.4,2h0c0,.8.1,1.4.4,2.1s.6,1.2,1,1.7c.5.5,1,.9,1.6,1.1.6.3,1.3.4,2,.4Z"/>
                <path class="cls-2" d="M298.68,19h7.6c2.1,0,3.7.6,4.9,1.7,1,1,1.4,2.2,1.4,3.8h0c0,1.4-.3,2.5-1,3.3s-1.5,1.5-2.6,1.9l4.1,6h-4.3l-3.6-5.3h-2.9v5.3h-3.7v-16.7s.1,0,.1,0ZM306.08,27.1c.9,0,1.6-.2,2.1-.6s.7-1,.7-1.7h0c0-.8-.3-1.4-.8-1.8s-1.2-.6-2.1-.6h-3.6v4.8h3.7v-.1h0Z"/>
                <path class="cls-2" d="M319.78,22.4h-5.1v-3.4h13.8v3.4h-5.1v13.3h-3.7v-13.3h.1Z"/>
                <path class="cls-2" d="M337.08,18.9h3.4l7.1,16.8h-3.8l-1.5-3.7h-7l-1.5,3.7h-3.7l7.1-16.8s-.1,0-.1,0ZM340.88,28.7l-2.2-5.4-2.2,5.4h4.4Z"/>
                <path class="cls-2" d="M350.18,19h3.7v13.4h8.3v3.3h-12v-16.7Z"/>
              </g>
            </g>
          </g>
        </g>
      </g>
    </g>
  </g>
  <g>
    <polygon class="cls-2" points="100.67 40.92 102.52 40.92 102.52 41.27 101 41.27 101 42.4 102.5 42.4 102.5 42.75 101 42.75 101 44.16 102.5 44.16 102.5 44.51 100.67 44.51 100.67 40.92"/>
    <polygon class="cls-2" points="105.53 44.51 105.53 40.92 105.6 40.92 107.74 43.67 107.74 40.92 108.06 40.92 108.06 44.51 107.98 44.51 105.86 41.79 105.86 44.51 105.53 44.51"/>
    <polygon class="cls-2" points="110.98 41.27 110.98 40.92 112.74 40.92 112.74 41.27 112.02 41.27 112.02 44.51 111.7 44.51 111.7 41.27 110.98 41.27"/>
    <polygon class="cls-2" points="115.67 40.92 117.51 40.92 117.51 41.27 115.99 41.27 115.99 42.4 117.5 42.4 117.5 42.75 115.99 42.75 115.99 44.16 117.5 44.16 117.5 44.51 115.67 44.51 115.67 40.92"/>
    <path class="cls-2" d="M97.75,41.59l-.25.21c-.14-.2-.31-.36-.5-.46s-.41-.16-.64-.16c-.26,0-.49.07-.71.21-.22.14-.39.32-.51.55-.12.23-.18.49-.18.78,0,.44.13.8.4,1.09.27.29.61.44,1.02.44.45,0,.83-.2,1.13-.59l.25.21c-.16.23-.36.41-.6.53-.24.13-.51.19-.8.19-.56,0-1.01-.21-1.33-.63-.27-.35-.41-.78-.41-1.28,0-.53.17-.97.49-1.33s.74-.54,1.24-.54c.3,0,.57.07.81.2.24.13.44.32.6.56"/>
    <g>
      <path class="cls-2" d="M121.04,41.27v1.22h.55c.21,0,.37-.02.48-.06s.18-.12.24-.22c.06-.1.09-.21.09-.33s-.03-.23-.09-.33c-.06-.1-.14-.17-.23-.21-.1-.04-.25-.06-.47-.06h-.57ZM120.72,40.92h.64c.36,0,.6.02.73.05.19.05.35.15.47.31s.18.36.18.59c0,.2-.04.37-.12.52-.08.15-.2.26-.35.33-.15.08-.36.11-.63.12l1.16,1.67h-.4l-1.16-1.67h-.18v1.67h-.32v-3.59h0Z"/>
      <path class="cls-2" d="M125.55,43.84l.27-.18c.19.39.41.59.67.59.11,0,.21-.03.3-.08.1-.05.17-.13.21-.23.05-.1.07-.19.07-.3,0-.12-.04-.24-.11-.35-.1-.16-.28-.35-.55-.57-.27-.23-.44-.39-.5-.49-.11-.17-.17-.35-.17-.55,0-.16.03-.3.1-.43s.16-.23.28-.3c.12-.07.25-.11.4-.11s.29.04.42.13c.13.08.27.24.42.46l-.26.22c-.12-.18-.22-.3-.31-.35-.08-.06-.18-.09-.28-.09-.13,0-.24.05-.32.13s-.12.2-.12.32c0,.08.01.15.04.23s.08.15.16.24c.04.05.18.17.41.36.28.23.47.44.57.61.1.18.16.36.16.54,0,.26-.09.49-.27.68-.18.19-.39.29-.64.29-.2,0-.37-.06-.53-.17-.16-.12-.3-.31-.44-.58"/>
    </g>
    <path class="cls-2" d="M70.31,30.52l.27-.32,5.63,4.75v-4.75h.41v5.64l-6.31-5.32ZM76.41,37.81l-.27.32-5.62-4.75v4.75h-.41v-5.64l6.3,5.32Z"/>
    <path class="cls-2" d="M76.16,38.37l-5.48-4.63v4.56h-.75v-6.17l6.71,5.65-.48.58h0ZM70.27,37.97h.08v-4.94l5.77,4.88.05-.06-5.9-4.98v5.11h0ZM76.8,36.2l-6.71-5.66.48-.58,5.49,4.63v-4.56h.75v6.17h0ZM70.55,30.5l5.91,4.98v-5.11h-.08v4.94l-5.78-4.88-.05.06h0Z"/>
    <polygon class="cls-2" points="101.86 35.92 98.49 33.15 98.49 38.1 98.08 38.1 98.08 32.27 101.86 35.38 105.64 32.27 105.64 38.1 105.22 38.1 105.22 33.15 101.86 35.92"/>
    <path class="cls-2" d="M105.81,38.27h-.75v-4.76l-3.2,2.63-3.2-2.63v4.76h-.75v-6.36l3.95,3.25,3.95-3.25v6.36h0ZM105.39,37.94h.08v-5.31l-3.61,2.98-3.61-2.98v5.31h.08v-5.13l3.53,2.9,3.53-2.9v5.13h0Z"/>
    <polygon class="cls-2" points="98.46 30.52 98.72 30.21 101.86 32.78 104.99 30.21 105.26 30.52 101.86 33.34 98.46 30.52"/>
    <path class="cls-2" d="M101.86,33.55l-3.64-3.01.48-.57,3.16,2.59,3.16-2.59.48.57-3.64,3.01ZM98.69,30.5l3.16,2.62,3.16-2.62-.05-.06-3.11,2.55-3.11-2.55-.05.06h0Z"/>
    <rect class="cls-2" x="67.02" y="30.02" width=".83" height="8.28"/>
    <polygon class="cls-2" points="77.96 30.83 77.96 30.02 82.5 30.02 82.5 30.83 80.65 30.83 80.65 38.31 79.81 38.31 79.81 30.83 77.96 30.83"/>
    <polygon class="cls-2" points="84.23 30.02 88.98 30.02 88.98 30.83 85.06 30.83 85.06 33.43 88.94 33.43 88.94 34.24 85.06 34.24 85.06 37.49 88.94 37.49 88.94 38.3 84.23 38.3 84.23 30.02"/>
    <g>
      <path class="cls-2" d="M91.81,30.83v2.81h1.43c.55.01.96-.04,1.23-.15.26-.11.47-.27.62-.5.15-.23.22-.49.22-.77s-.08-.53-.23-.76c-.15-.23-.35-.39-.59-.49-.24-.1-.65-.15-1.22-.15h-1.46,0ZM90.99,30.02h1.65c.92,0,1.54.04,1.87.11.49.11.89.35,1.2.72s.46.83.46,1.37c0,.45-.11.85-.32,1.19-.21.34-.51.6-.91.78s-.94.26-1.63.27l2.98,3.84h-1.03l-2.98-3.84h-.47v3.84h-.83v-8.28h0Z"/>
      <path class="cls-2" d="M111.49,30.62c-.61,0-1.19.16-1.74.48-.55.32-.98.75-1.29,1.29-.31.54-.46,1.14-.46,1.81,0,.98.34,1.81,1.02,2.49.68.68,1.5,1.02,2.47,1.02.64,0,1.24-.16,1.78-.47s.97-.74,1.28-1.28c.31-.54.46-1.14.46-1.8s-.15-1.25-.46-1.78c-.31-.53-.74-.96-1.29-1.28-.56-.32-1.15-.48-1.77-.48M111.46,29.81c1.25,0,2.3.42,3.15,1.25.84.84,1.27,1.87,1.27,3.09s-.42,2.24-1.26,3.08c-.84.84-1.87,1.27-3.08,1.27s-2.26-.42-3.11-1.26c-.85-.84-1.27-1.86-1.27-3.05,0-.8.19-1.53.58-2.21.38-.68.91-1.21,1.57-1.6.67-.38,1.38-.58,2.16-.58"/>
      <path class="cls-2" d="M117.56,30.02h.83v5c0,.59.01.96.03,1.11.04.33.14.6.29.82s.38.4.69.55c.31.15.63.22.94.22.27,0,.54-.06.79-.18.25-.11.46-.28.63-.48.17-.21.29-.46.37-.75.06-.21.08-.64.08-1.29v-5h.83v5c0,.74-.07,1.34-.22,1.79-.14.46-.43.85-.86,1.19-.43.34-.96.51-1.57.51-.67,0-1.24-.16-1.72-.48s-.8-.74-.96-1.27c-.1-.32-.15-.91-.15-1.75v-5h0Z"/>
    </g>
    <polygon class="cls-2" points="132.79 30.83 132.79 30.02 137.32 30.02 137.32 30.83 135.48 30.83 135.48 38.31 134.63 38.31 134.63 30.83 132.79 30.83"/>
    <path class="cls-2" d="M141.26,31.78l-1.42,3h2.83l-1.41-3ZM141.37,30.02l3.86,8.28h-.89l-1.3-2.72h-3.57l-1.29,2.72h-.92l3.91-8.28h.2,0Z"/>
    <rect class="cls-2" x="146.13" y="30.02" width=".83" height="8.28"/>
    <path class="cls-2" d="M125.32,30.52l.26-.32,5.46,4.48v-4.48h.42v5.37l-6.14-5.05h0ZM131.09,37.81l-.27.32-5.46-4.48v4.48h-.41v-5.37l6.14,5.05Z"/>
    <path class="cls-2" d="M130.84,38.37l-5.32-4.37v4.3h-.75v-5.89l6.55,5.38-.48.58h0ZM125.11,37.97h.08v-4.67l5.61,4.6.05-.07-5.74-4.72v4.85h0ZM131.63,35.92l-6.55-5.38.48-.58,5.32,4.37v-4.3h.75v5.89ZM125.56,30.49l5.74,4.72v-4.85h-.08v4.67l-5.61-4.6-.05.06Z"/>
    <path class="cls-2" d="M149.27,30.52l.27-.32,5.46,4.48v-4.48h.41v5.37l-6.14-5.05h0ZM155.04,37.81l-.27.32-5.46-4.48v4.48h-.42v-5.37l6.14,5.05h0Z"/>
    <path class="cls-2" d="M154.79,38.37l-5.32-4.37v4.3h-.75v-5.89l6.55,5.38-.48.58h0ZM149.06,37.97h.08v-4.67l5.61,4.6.05-.07-5.74-4.72v4.85h0ZM155.58,35.92l-6.55-5.38.48-.58,5.32,4.37v-4.3h.75v5.89h0ZM149.51,30.5l5.74,4.72v-4.85h-.08v4.67l-5.61-4.6-.05.07h0Z"/>
    <g>
      <path class="cls-1" d="M112.19,5.85c-.3.02-.6.04-.89.05-1.62.04-3.23-.13-4.84-.26-.16-.01-.36-.03-.59-.04l3.32,2.72,3.01-2.46h0Z"/>
      <path class="cls-1" d="M109.12,12.6l-4.8-3.97.38-.44,4.42,3.63,4.42-3.63.38.44-4.8,3.97h0ZM126.04,16.19c-.32-.42-.6-.85-.8-1.34-.02-.04-.04-.1-.03-.14.11-.5,0-.97-.17-1.44-.15-.41-.37-.78-.61-1.13-.1-.14.07-.64.13-.76.05-.1.11-.18.17-.27.04-.06.19-.11.14-.19-.33-.48-.79,0-1.06,0-.14,0-.26-.04-.37-.13-1.24-1.05-2.49-2.09-3.73-3.14-.98-.82-1.1-.91-2.13-1.67-.51-.38-1.84-.73-2.42-.51-.12.05-.24.06-.36.07l-5.62,4.65-5.49-4.54c-.85.09-1.74.3-2.52.72-1,.54-2.03.98-2.93,1.69-1.54,1.23-2.33,2.83-2.37,4.8-.02.81.06,1.61.2,2.41.04.24.08.49.21.72,1.06,1.75,1.97,3.58,2.68,5.51.1.27.21.54.27.82.1.47.17.95.24,1.42.01.08.04.11.12.11.19.02.38.04.56.07.51.05,1.01.11,1.52.15.12.01.88-.02.97,0,.15.03,1.27.14,1.6.05.27-.07.52-.18.81-.17.21.01.33-.24.25-.43-.13-.31-.34-.55-.65-.7-.16-.08-.32-.1-.49-.03-.4.16-.73.03-.94-.35-.04-.07-.07-.14-.1-.22-.12-.32-.14-.66-.15-1,0-.68,6.11-8.13,11.11,3.11.03.04.09.07.14.08.8.12,1.6.22,2.42.23.51,0,1.02-.02,1.51-.17.23-.07.46-.17.66-.31-.03-.06-.06-.1-.07-.15-.06-.16-.17-.26-.32-.35-.49-.29-.96-.6-1.45-.88-.33-.2-.55-.48-.69-.82-.13-.3-.17-.62-.19-.94-.03-.4-.09-.79-.23-1.16-.13-.33-.2-.69-.21-1.05-.02-.48.09-.92.43-1.29.3-.32.67-.48,1.09-.58.58-.14,1.17-.13,1.76-.06.17.02.35.03.5.11.58.31,1.19.56,1.84.7.66.14,1.32.26,1.98.39.1.02.14,0,.18-.09.06-.12.13-.24.2-.35.05.02.1.03.14.05.53.17,1.07.27,1.63.2.18-.02.33-.07.46-.22.13-.17.29-.32.44-.48.09-.1.18-.19.26-.28-.18-.23-.37-.44-.54-.67"/>
    </g>
  </g>
</svg>