<?xml version="1.0" encoding="UTF-8"?>
<svg id="Layer_1" data-name="Layer 1" xmlns="http://www.w3.org/2000/svg" viewBox="0 0 356.6 71.2">
  <defs>
    <style>
      .cls-1 {
        fill: #f8bd37;
      }

      .cls-2 {
        fill: #173654;
      }
    </style>
  </defs>
  <g>
    <rect class="cls-2" x="177.59" y="7.1" width="1.1" height="58.43"/>
    <path class="cls-2" d="M178.48,7.31v58h-.67V7.31h.67M178.91,6.88h-1.53v58.86h1.53V6.88h0Z"/>
  </g>
  <g>
    <path class="cls-2" d="M68.72,20.29h-9.42c-.1,0-.19.05-.24.13l-12.71,20.44h-.2l-1.76-20.31c0-.15-.14-.26-.28-.26h-9.6c-.12,0-.24.08-.27.2l-9.93,31.43c-.06.18.08.37.27.37h6.73c.12,0,.24-.08.27-.21l4.19-14.09c1.08-3.54,1.69-5.9,2.3-8.56h.2l1.88,22.59c0,.15.14.26.28.26h5.83c.1,0,.19-.05.24-.14l13.66-22.72h.2c-.72,2.67-1.41,5.16-2.16,8.56l-3.1,13.95c-.04.18.09.35.28.35h6.85c.14,0,.25-.09.28-.23l6.47-31.43c.03-.18-.1-.34-.28-.34h.02Z"/>
    <path class="cls-2" d="M94.87,28.06c-5.42,0-9.54,3.37-10.39,6.62-.72,2.73.37,4.99,3.15,6.53.81.44,1.39.72,2.01,1.03.56.27,1.16.57,2,1.01,1.56.82,1.74,1.33,1.54,2.08-.27,1.02-1.56,2.04-3.84,2.04-2.66,0-2.99-1.93-2.81-3.54.06-.35-.02-.61-.22-.76-.21-.16-.54-.18-.99-.06l-3.74,1.1c-.55.16-.93.6-1,1.18-.42,4.11,2.66,7.09,7.33,7.09,5.31,0,10.13-3.12,11.22-7.25.75-2.84-.43-4.97-3.71-6.69-.82-.42-1.64-.81-2.36-1.15-.35-.16-.69-.32-1-.48-1.41-.68-1.95-1.12-1.69-2.13.27-1.05,1.84-1.68,3.19-1.68.71,0,1.41.12,1.87.55.51.48.54,1.22.69,1.89.05.23.12.45.28.62.16.16.42.18.72.13l3.93-1.24s.79-.12.69-1.26c-.32-3.54-2.67-5.64-6.88-5.64h0Z"/>
    <path class="cls-2" d="M114.08,46.53c-.25-.12-.59-.11-.97.03l-.06.02c-.46.15-.94.32-1.72.32-1.02,0-1.52-.24-1.03-2.07l2.82-10.63c.03-.12.15-.21.27-.21h5.47c.13,0,.24-.09.28-.22l.25-1.05.78-2.68v-.03l.23-.6h-5.55c-.18,0-.32-.18-.27-.36l1.17-4.62c.05-.18-.09-.36-.27-.36h-5.33c-.13,0-.24.09-.27.21l-1.33,4.91c-.03.12-.15.21-.27.21h-2.73c-.12,0-.22.07-.26.17l-.15.36s0,.03-.01.04l-.79,2.93-.2.71c-.05.18.09.36.27.36h1.94c.19,0,.32.18.27.36l-2.74,10.33c-1.78,6.76,2.58,7.71,5.28,7.71s4.46-.85,5.16-1.56c.31-.31.49-.66.46-.95l-.36-2.77c-.03-.34-.21-.51-.36-.58h0l.02.02Z"/>
    <path class="cls-2" d="M163.03,27.36c-.44-.07-.96-.01-1.39-.01-3.81,0-6.09,2.46-7.96,5.13h-.15l.82-4.23c.03-.18-.1-.34-.28-.34h-5.41c-.13,0-.24.09-.28.21l-1.33,5.29-5.18,18.5c-.05.18.09.36.27.36h6.31c.13,0,.24-.09.27-.21l3.47-12.09c.96-3.63,3.29-6.07,6.27-6.07.65,0,1.52.03,2.15.19.14.04.28-.04.33-.18l2.27-6.16c.06-.16-.04-.35-.21-.38h.03Z"/>
    <path class="cls-2" d="M133.83,28.24c-6.65,0-13.03,5.12-14.84,12.02-2.2,8.35,2.86,12.11,8.48,12.11,5.28,0,8.77-2.9,10.72-4.95.49-.52-.04-.73-.04-.73l-3.64-1.65c-.62-.28-.96.13-.96.13-1.1,1.18-2.54,2.05-4.74,2.05-3.17,0-4.38-2.02-4.14-4.43,0-.02,0-.04,0-.06.02-.12.11-.36.11-.36h13.78c1.94,0,2.62-1.42,3.17-3.53,1.59-6.05-1.73-10.61-7.92-10.61h.01ZM135.89,37.56c-.02.14-.14.24-.28.24h-8.77c-.22,0-.36-.24-.24-.43,1.38-2.37,3.67-3.5,5.86-3.5,2.46,0,3.82,1.19,3.44,3.69h0Z"/>
    <path class="cls-2" d="M76.76,26.95c-1.27-.55-3.32-.33-3.71-.13-.18.09-.39.14-.44.34-.72,2.96-5.03,24.43-5.03,24.43-.07.34.19.66.54.66h6.6c.48,0,.88-.34.98-.8l3.88-21.47s-.25-1.91-2.82-3.02h0Z"/>
    <path class="cls-1" d="M82.49,28.93c-1.52-4.42,1.02-9.24,5.44-10.77-4.35,1.5-9.11-.82-10.7-5.11.13-.06.27-.12.41-.17l-.11-.32c-2.19.76-4.6-.43-5.36-2.64l-.32.11c.36,1.06.3,2.2-.2,3.2-.49,1-1.35,1.75-2.42,2.12l.11.32c1.06-.36,2.18-.29,3.17.21.98.5,1.72,1.36,2.1,2.46l.32-.11c-.7-2.03.31-4.26,2.28-5.17,1.38,4.36-.97,9-5.33,10.5,4.42-1.52,9.06.89,10.59,5.31l.02.06h0ZM74.38,17.1c-.43-.64-1.02-1.17-1.71-1.52-.62-.32-1.3-.48-1.98-.48h-.23c1.3-.9,2.04-2.41,1.96-3.97.9,1.31,2.42,2.06,3.99,1.98-1.33.9-2.1,2.42-2.03,3.98h0Z"/>
    <path class="cls-1" d="M80.92,13.75v.03c-.78-2.29.57-4.79,2.85-5.58-2.29.79-4.79-.45-5.57-2.74.79,2.29-.44,4.75-2.72,5.53,2.29-.79,4.65.47,5.44,2.75h0Z"/>
    <path class="cls-2" d="M153.13,49.44c0-1.61,1.33-2.91,2.94-2.91s2.82,1.26,2.82,2.84-1.31,2.9-2.91,2.9-2.86-1.26-2.86-2.82h0ZM158.33,49.36c0-1.26-1.01-2.3-2.27-2.3s-2.34,1.07-2.34,2.36,1.02,2.3,2.27,2.3,2.34-1.06,2.34-2.36ZM154.8,47.78h1.31c.79,0,1.23.36,1.23.9,0,.48-.36.78-.76.88l1.01,1.35h-.89l-.89-1.23h-.27v1.23h-.73v-3.12h0ZM156.03,49.14c.41,0,.54-.18.54-.42,0-.21-.15-.39-.54-.39h-.49v.82h.49Z"/>
  </g>
  <g>
    <path class="cls-2" d="M207.26,39.4c-.21.43-.49.8-.85,1.1s-.8.52-1.29.67c-.5.15-1.06.23-1.68.23-.85,0-1.7-.15-2.53-.44s-1.57-.75-2.26-1.35l1.46-1.75c.52.43,1.05.75,1.59.99s1.14.37,1.78.37c.52,0,.92-.09,1.2-.28s.43-.45.43-.77v-.04c0-.15-.03-.31-.09-.43s-.17-.23-.34-.35-.4-.22-.7-.32-.68-.22-1.15-.34c-.57-.14-1.08-.3-1.55-.46s-.85-.39-1.17-.63c-.32-.26-.57-.57-.75-.94s-.27-.84-.27-1.41v-.04c0-.52.09-.98.28-1.39.19-.41.46-.77.81-1.07s.76-.53,1.24-.7,1.02-.25,1.59-.25c.83,0,1.59.12,2.27.37s1.33.59,1.91,1.06l-1.29,1.87c-.5-.35-.99-.62-1.48-.81-.48-.19-.97-.3-1.45-.3s-.85.09-1.08.28c-.25.19-.36.43-.36.7v.04c0,.18.04.35.1.48s.19.26.37.36c.18.1.43.21.75.31s.72.21,1.2.34c.57.15,1.08.32,1.52.5.45.19.83.41,1.14.67.31.27.54.57.7.93s.23.77.23,1.26v.04c0,.55-.1,1.06-.31,1.48h.03Z"/>
    <path class="cls-2" d="M226.82,38.56c-.23.63-.55,1.16-.99,1.59-.43.43-.94.74-1.56.94-.61.21-1.29.31-2.04.31-1.51,0-2.7-.41-3.57-1.25s-1.3-2.09-1.3-3.74v-6.43h2.48v6.36c0,.93.22,1.61.65,2.08s1.02.7,1.78.7,1.35-.23,1.78-.67.65-1.12.65-2.03v-6.45h2.48v6.35c0,.85-.12,1.6-.35,2.23h.01Z"/>
    <path class="cls-2" d="M246.05,35.62c-.23.49-.55.9-.98,1.24s-.89.58-1.45.75-1.15.25-1.78.25h-1.88v3.38h-2.48v-11.25h4.59c.67,0,1.28.09,1.81.28s.98.45,1.35.8.66.75.85,1.23.3,1.01.3,1.59v.04c0,.66-.12,1.23-.35,1.72h.01ZM243.9,33.92c0-.55-.18-.98-.54-1.26s-.85-.43-1.47-.43h-1.91v3.44h1.96c.62,0,1.1-.15,1.45-.49s.52-.74.52-1.21v-.04h0Z"/>
    <path class="cls-2" d="M264.62,35.62c-.23.49-.55.9-.98,1.24s-.89.58-1.45.75-1.15.25-1.78.25h-1.88v3.38h-2.48v-11.25h4.59c.67,0,1.28.09,1.81.28s.98.45,1.35.8.66.75.85,1.23.3,1.01.3,1.59v.04c0,.66-.12,1.23-.35,1.72h.01ZM262.46,33.92c0-.55-.18-.98-.54-1.26s-.85-.43-1.47-.43h-1.91v3.44h1.96c.62,0,1.1-.15,1.45-.49s.52-.74.52-1.21v-.04h0Z"/>
    <path class="cls-2" d="M274.62,41.23v-11.25h2.48v9.02h5.61v2.23h-8.09Z"/>
    <path class="cls-2" d="M292.49,41.23v-11.25h2.48v11.25h-2.48Z"/>
    <path class="cls-2" d="M305.6,41.23v-11.25h8.48v2.21h-6.03v2.28h5.3v2.21h-5.3v2.36h6.12v2.21h-8.57Z"/>
    <path class="cls-2" d="M332.02,39.4c-.21.43-.49.8-.85,1.1s-.8.52-1.29.67c-.5.15-1.06.23-1.68.23-.85,0-1.7-.15-2.53-.44s-1.57-.75-2.26-1.35l1.46-1.75c.52.43,1.05.75,1.59.99s1.14.37,1.78.37c.52,0,.92-.09,1.2-.28s.43-.45.43-.77v-.04c0-.15-.03-.31-.09-.43s-.17-.23-.34-.35-.4-.22-.7-.32-.68-.22-1.15-.34c-.57-.14-1.08-.3-1.55-.46s-.85-.39-1.17-.63c-.32-.26-.57-.57-.75-.94s-.27-.84-.27-1.41v-.04c0-.52.09-.98.28-1.39.19-.41.46-.77.81-1.07s.76-.53,1.24-.7,1.02-.25,1.59-.25c.83,0,1.59.12,2.27.37s1.33.59,1.91,1.06l-1.29,1.87c-.5-.35-.99-.62-1.48-.81s-.97-.3-1.45-.3-.85.09-1.08.28c-.25.19-.36.43-.36.7v.04c0,.18.04.35.1.48s.19.26.37.36c.18.1.43.21.75.31.31.09.72.21,1.2.34.57.15,1.08.32,1.52.5.45.19.83.41,1.14.67.31.27.54.57.7.93s.23.77.23,1.26v.04c0,.55-.1,1.06-.31,1.48h.03Z"/>
  </g>
</svg>