<?xml version="1.0" encoding="UTF-8"?>
<svg id="Layer_1" data-name="Layer 1" xmlns="http://www.w3.org/2000/svg" viewBox="0 0 356.6 71.2">
  <defs>
    <style>
      .cls-1 {
        fill: #f8bd37;
      }

      .cls-2 {
        fill: #173654;
      }
    </style>
  </defs>
  <g>
    <rect class="cls-2" x="182.15" y="7.1" width="1.1" height="58.43"/>
    <path class="cls-2" d="M183.04,7.31v58h-.67V7.31h.67M183.47,6.88h-1.53v58.86h1.53V6.88h0Z"/>
  </g>
  <g>
    <path class="cls-2" d="M73.28,20.29h-9.42c-.1,0-.19.05-.24.13l-12.71,20.44h-.2l-1.76-20.31c-.01-.15-.14-.26-.28-.26h-9.6c-.12,0-.24.08-.27.2l-9.93,31.43c-.06.18.08.37.27.37h6.73c.12,0,.24-.08.27-.21l4.19-14.09c1.08-3.54,1.69-5.9,2.3-8.56h.2l1.88,22.59c.01.15.14.26.28.26h5.83c.1,0,.19-.05.24-.14l13.66-22.72h.2c-.72,2.67-1.41,5.16-2.16,8.56l-3.1,13.95c-.04.18.09.35.28.35h6.85c.14,0,.25-.09.28-.23l6.47-31.43c.03-.18-.1-.34-.28-.34h0Z"/>
    <path class="cls-2" d="M99.43,28.06c-5.42,0-9.54,3.37-10.39,6.62-.72,2.73.37,4.99,3.15,6.53.81.44,1.39.72,2.01,1.03.56.27,1.16.57,2,1.01,1.56.82,1.74,1.33,1.54,2.08-.27,1.02-1.56,2.04-3.84,2.04-2.66,0-2.99-1.93-2.81-3.54.06-.35-.02-.61-.22-.76-.21-.16-.54-.18-.99-.06l-3.74,1.1c-.55.16-.93.6-1,1.18-.42,4.11,2.66,7.09,7.33,7.09,5.31,0,10.13-3.12,11.22-7.25.75-2.84-.43-4.97-3.71-6.69-.82-.42-1.64-.81-2.36-1.15-.35-.16-.69-.32-1-.48-1.41-.68-1.95-1.12-1.69-2.13.27-1.05,1.84-1.68,3.19-1.68.71,0,1.41.12,1.87.55.51.48.54,1.22.69,1.89.05.23.12.45.28.62.16.16.42.18.72.13l3.93-1.24s.79-.12.69-1.26c-.32-3.54-2.67-5.64-6.88-5.64h0Z"/>
    <path class="cls-2" d="M118.64,46.53c-.25-.12-.59-.11-.97.03l-.06.02c-.46.15-.94.32-1.72.32-1.02,0-1.52-.24-1.03-2.07l2.82-10.63c.03-.12.15-.21.27-.21h5.47c.13,0,.24-.09.28-.22l.25-1.05.78-2.68s0-.02,0-.03l.23-.6h-5.55c-.18,0-.32-.18-.27-.36l1.17-4.62c.05-.18-.09-.36-.27-.36h-5.33c-.13,0-.24.09-.27.21l-1.33,4.91c-.03.12-.15.21-.27.21h-2.73c-.12,0-.22.07-.26.17l-.15.36s0,.03-.01.04l-.79,2.93-.2.71c-.05.18.09.36.27.36h1.94c.19,0,.32.18.27.36l-2.74,10.33c-1.78,6.76,2.58,7.71,5.28,7.71s4.46-.85,5.16-1.56c.31-.31.49-.66.46-.95l-.36-2.77c-.03-.34-.21-.51-.36-.58h0Z"/>
    <path class="cls-2" d="M167.59,27.36c-.44-.07-.96-.01-1.39-.01-3.81,0-6.09,2.46-7.96,5.13h-.15l.82-4.23c.03-.18-.1-.34-.28-.34h-5.41c-.13,0-.24.09-.28.21l-1.33,5.29-5.18,18.5c-.05.18.09.36.27.36h6.31c.13,0,.24-.09.27-.21l3.47-12.09c.96-3.63,3.29-6.07,6.27-6.07.65,0,1.52.03,2.15.19.14.04.28-.04.33-.18l2.27-6.16c.06-.16-.04-.35-.21-.38h0Z"/>
    <path class="cls-2" d="M138.39,28.24c-6.65,0-13.03,5.12-14.84,12.02-2.2,8.35,2.86,12.11,8.48,12.11,5.28,0,8.77-2.9,10.72-4.95.49-.52-.04-.73-.04-.73l-3.64-1.65c-.62-.28-.96.13-.96.13-1.1,1.18-2.54,2.05-4.74,2.05-3.17,0-4.38-2.02-4.14-4.43,0-.02,0-.04.01-.06.02-.12.11-.36.11-.36h13.78c1.94,0,2.62-1.42,3.17-3.53,1.59-6.05-1.73-10.61-7.92-10.61h0ZM140.45,37.56c-.02.14-.14.24-.28.24h-8.77c-.22,0-.36-.24-.24-.43,1.38-2.37,3.67-3.5,5.86-3.5,2.46,0,3.82,1.19,3.44,3.69h0Z"/>
    <path class="cls-2" d="M81.32,26.95c-1.27-.55-3.32-.33-3.71-.13-.18.09-.39.14-.44.34-.72,2.96-5.03,24.43-5.03,24.43-.07.34.19.66.54.66h6.6c.48,0,.88-.34.98-.8l3.88-21.47s-.25-1.91-2.82-3.02h0Z"/>
    <path class="cls-1" d="M87.05,28.93c-1.52-4.42,1.02-9.24,5.44-10.77-4.35,1.5-9.11-.82-10.7-5.11.13-.06.27-.12.41-.17l-.11-.32c-2.19.76-4.6-.43-5.36-2.64l-.32.11c.36,1.06.3,2.2-.2,3.2-.49,1-1.35,1.75-2.42,2.12l.11.32c1.06-.36,2.18-.29,3.17.21.98.5,1.72,1.36,2.1,2.46l.32-.11c-.7-2.03.31-4.26,2.28-5.17,1.38,4.36-.97,9-5.33,10.5,4.42-1.52,9.06.89,10.59,5.31l.02.06h0ZM78.94,17.1c-.43-.64-1.02-1.17-1.71-1.52-.62-.32-1.3-.48-1.98-.48-.08,0-.15,0-.23,0,1.3-.9,2.04-2.41,1.96-3.97.9,1.31,2.42,2.06,3.99,1.98-1.33.9-2.1,2.42-2.03,3.98h0Z"/>
    <path class="cls-1" d="M85.48,13.75v.03c-.78-2.29.57-4.79,2.85-5.58-2.29.79-4.79-.45-5.57-2.74.79,2.29-.44,4.75-2.72,5.53,2.29-.79,4.65.47,5.44,2.75Z"/>
    <path class="cls-2" d="M157.69,49.44c0-1.61,1.33-2.91,2.94-2.91s2.82,1.26,2.82,2.84-1.31,2.9-2.91,2.9-2.86-1.26-2.86-2.82h0ZM162.89,49.36c0-1.26-1.01-2.3-2.27-2.3s-2.34,1.07-2.34,2.36,1.02,2.3,2.27,2.3,2.34-1.06,2.34-2.36ZM159.36,47.78h1.31c.79,0,1.23.36,1.23.9,0,.48-.36.78-.76.88l1.01,1.35h-.89l-.89-1.23h-.27v1.23h-.73v-3.12h0ZM160.59,49.14c.41,0,.54-.18.54-.42,0-.21-.15-.39-.54-.39h-.49v.82h.49Z"/>
  </g>
  <g>
    <path class="cls-2" d="M208.97,35.52v-5.7l-2.45,3.73h-.05l-2.43-3.69v5.66h-1.9v-8.72h2.07l2.29,3.69,2.3-3.69h2.07v8.72h-1.9,0Z"/>
    <path class="cls-2" d="M225.51,35.52l-.8-1.96h-3.69l-.8,1.96h-1.96l3.74-8.79h1.77l3.74,8.79h-2.01,0ZM222.87,29.04l-1.16,2.83h2.32l-1.16-2.83h0Z"/>
    <path class="cls-2" d="M240.21,35.52l-1.87-2.79h-1.51v2.79h-1.92v-8.72h3.99c1.04,0,1.84.25,2.42.76.58.51.87,1.21.87,2.12v.03c0,.71-.17,1.28-.52,1.72-.34.45-.79.77-1.35.98l2.13,3.11h-2.25ZM240.25,29.78c0-.42-.13-.72-.4-.94-.27-.21-.63-.31-1.11-.31h-1.9v2.51h1.94c.47,0,.84-.11,1.09-.33s.38-.52.38-.9v-.03Z"/>
    <path class="cls-2" d="M255.62,35.52l-2.7-3.71-1.01,1.05v2.67h-1.92v-8.72h1.92v3.81l3.54-3.81h2.32l-3.55,3.7,3.71,5.02h-2.31Z"/>
    <path class="cls-2" d="M265.14,35.52v-8.72h6.57v1.71h-4.67v1.77h4.11v1.71h-4.11v1.83h4.74v1.71h-6.63Z"/>
    <path class="cls-2" d="M283.49,28.57v6.95h-1.92v-6.95h-2.66v-1.77h7.23v1.77h-2.66Z"/>
    <path class="cls-2" d="M293.76,35.52v-8.72h1.92v8.72h-1.92Z"/>
    <path class="cls-2" d="M310.04,35.52l-4.23-5.55v5.55h-1.9v-8.72h1.77l4.09,5.37v-5.37h1.9v8.72h-1.63Z"/>
    <path class="cls-2" d="M326.15,35.27c-.62.27-1.33.4-2.12.4-.68,0-1.3-.11-1.86-.33-.56-.22-1.04-.54-1.45-.94s-.72-.87-.94-1.42-.33-1.15-.33-1.79v-.03c0-.62.12-1.21.34-1.75.23-.54.54-1.02.95-1.43.41-.41.89-.73,1.45-.97.56-.24,1.17-.36,1.83-.36.39,0,.75.03,1.06.08.32.06.62.13.89.23s.53.22.77.37c.24.15.47.32.7.51l-1.21,1.46c-.17-.14-.33-.27-.5-.37-.17-.11-.34-.2-.52-.27-.18-.07-.37-.13-.58-.18-.21-.04-.44-.06-.69-.06-.35,0-.67.07-.98.22-.3.15-.57.34-.8.59-.23.24-.41.53-.54.86-.13.33-.19.68-.19,1.06v.03c0,.4.06.77.19,1.11s.31.63.55.88.51.44.84.58.67.21,1.06.21c.72,0,1.32-.18,1.81-.53v-1.26h-1.93v-1.66h3.79v3.79c-.45.38-.98.71-1.6.98h0Z"/>
    <path class="cls-2" d="M219.6,50.83c-.16.33-.38.62-.66.85s-.62.4-1,.52c-.39.12-.82.18-1.3.18-.66,0-1.32-.12-1.96-.34s-1.22-.58-1.75-1.05l1.13-1.36c.4.33.81.58,1.23.77.42.19.88.29,1.38.29.4,0,.71-.07.93-.22s.33-.35.33-.6v-.03c0-.12-.02-.24-.07-.33-.05-.09-.13-.18-.26-.27s-.31-.17-.54-.25-.53-.17-.89-.26c-.44-.11-.84-.23-1.2-.36s-.66-.3-.91-.49c-.25-.2-.44-.44-.58-.73s-.21-.65-.21-1.09v-.03c0-.4.07-.76.22-1.08.15-.32.36-.6.63-.83s.59-.41.96-.54.79-.19,1.23-.19c.64,0,1.23.09,1.76.29s1.03.46,1.48.82l-1,1.45c-.39-.27-.77-.48-1.15-.63-.37-.15-.75-.23-1.12-.23s-.66.07-.84.22c-.19.15-.28.33-.28.54v.03c0,.14.03.27.08.37s.15.2.29.28c.14.08.33.16.58.24s.56.16.93.26c.44.12.84.25,1.18.39.35.15.64.32.88.52.24.21.42.44.54.72s.18.6.18.98v.03c0,.43-.08.82-.24,1.15h0Z"/>
    <path class="cls-2" d="M234.76,50.18c-.18.49-.43.9-.77,1.23-.33.33-.73.57-1.21.73-.47.16-1,.24-1.58.24-1.17,0-2.09-.32-2.77-.97s-1.01-1.62-1.01-2.9v-4.98h1.92v4.93c0,.72.17,1.25.5,1.61s.79.54,1.38.54,1.05-.18,1.38-.52.5-.87.5-1.57v-5h1.92v4.92c0,.66-.09,1.24-.27,1.73h0Z"/>
    <path class="cls-2" d="M249.67,47.9c-.18.38-.43.7-.76.96s-.69.45-1.12.58c-.43.13-.89.19-1.38.19h-1.46v2.62h-1.92v-8.72h3.56c.52,0,.99.07,1.4.22s.76.35,1.05.62.51.58.66.95.23.78.23,1.23v.03c0,.51-.09.95-.27,1.33h0ZM248,46.58c0-.43-.14-.76-.42-.98-.28-.22-.66-.33-1.14-.33h-1.48v2.67h1.52c.48,0,.85-.12,1.12-.38s.4-.57.4-.94v-.03h0Z"/>
    <path class="cls-2" d="M264.06,47.9c-.18.38-.43.7-.76.96s-.69.45-1.12.58c-.43.13-.89.19-1.38.19h-1.46v2.62h-1.92v-8.72h3.56c.52,0,.99.07,1.4.22s.76.35,1.05.62.51.58.66.95.23.78.23,1.23v.03c0,.51-.09.95-.27,1.33h0ZM262.39,46.58c0-.43-.14-.76-.42-.98-.28-.22-.66-.33-1.14-.33h-1.48v2.67h1.52c.48,0,.85-.12,1.12-.38s.4-.57.4-.94v-.03h0Z"/>
    <path class="cls-2" d="M271.81,52.25v-8.72h1.92v6.99h4.35v1.73h-6.27Z"/>
    <path class="cls-2" d="M285.66,52.25v-8.72h1.92v8.72h-1.92Z"/>
    <path class="cls-2" d="M295.82,52.25v-8.72h6.57v1.71h-4.67v1.77h4.11v1.71h-4.11v1.83h4.74v1.71h-6.63Z"/>
    <path class="cls-2" d="M316.3,50.83c-.16.33-.38.62-.66.85s-.62.4-1,.52c-.39.12-.82.18-1.3.18-.66,0-1.32-.12-1.96-.34s-1.22-.58-1.75-1.05l1.13-1.36c.4.33.81.58,1.23.77.42.19.88.29,1.38.29.4,0,.71-.07.93-.22.22-.15.33-.35.33-.6v-.03c0-.12-.02-.24-.07-.33s-.13-.18-.26-.27-.31-.17-.54-.25-.53-.17-.89-.26c-.44-.11-.84-.23-1.2-.36s-.66-.3-.91-.49c-.25-.2-.44-.44-.58-.73s-.21-.65-.21-1.09v-.03c0-.4.07-.76.22-1.08.15-.32.36-.6.63-.83s.59-.41.96-.54.79-.19,1.23-.19c.64,0,1.23.09,1.76.29s1.03.46,1.48.82l-1,1.45c-.39-.27-.77-.48-1.15-.63s-.75-.23-1.12-.23-.66.07-.84.22c-.19.15-.28.33-.28.54v.03c0,.14.03.27.08.37s.15.2.29.28c.14.08.33.16.58.24.24.07.56.16.93.26.44.12.84.25,1.18.39.35.15.64.32.88.52.24.21.42.44.54.72s.18.6.18.98v.03c0,.43-.08.82-.24,1.15h0Z"/>
  </g>
</svg>