<?xml version="1.0" encoding="UTF-8"?>
<svg id="Layer_1" data-name="Layer 1" xmlns="http://www.w3.org/2000/svg" viewBox="0 0 429.2 50">
  <defs>
    <style>
      .cls-1 {
        fill: #fff;
      }

      .cls-2 {
        isolation: isolate;
      }

      .cls-3 {
        fill: #005587;
      }

      .cls-4 {
        fill: #6bbbad;
      }
    </style>
  </defs>
  <rect class="cls-4" x="186.37" y="8" width=".8" height="34"/>
  <g>
    <g class="cls-2">
      <g class="cls-2">
        <g class="cls-2">
          <g class="cls-2">
            <g class="cls-2">
              <g class="cls-2">
                <path class="cls-1" d="M198.67,19.2h6.8c1,0,1.9.1,2.7.4s1.5.7,2,1.2,1,1.1,1.3,1.8c.3.7.4,1.5.4,2.3h0c0,1-.2,1.9-.5,2.6s-.8,1.3-1.4,1.8c-.6.5-1.3.9-2.1,1.1s-1.7.4-2.6.4h-2.8v5h-3.7v-16.7l-.1.1h0ZM205.27,27.6c.9,0,1.6-.2,2.1-.7s.8-1.1.8-1.8h0c0-.9-.3-1.5-.8-1.9s-1.3-.6-2.2-.6h-2.8v5.1h2.9v-.1Z"/>
                <path class="cls-1" d="M214.57,19.2h7.6c2.1,0,3.7.6,4.9,1.7,1,1,1.4,2.2,1.4,3.8h0c0,1.4-.3,2.5-1,3.3s-1.5,1.5-2.6,1.9l4.1,6h-4.3l-3.6-5.3h-2.9v5.3h-3.7v-16.7h.1ZM221.97,27.3c.9,0,1.6-.2,2.1-.6s.7-1,.7-1.7h0c0-.8-.3-1.4-.8-1.8s-1.2-.6-2.1-.6h-3.6v4.8h3.7v-.1h0Z"/>
                <path class="cls-1" d="M231.97,19.2h3.7v16.7h-3.7v-16.7Z"/>
                <path class="cls-1" d="M239.77,19.2h3.4l7.8,10.3v-10.3h3.6v16.7h-3.1l-8.1-10.6v10.6h-3.6v-16.7h0Z"/>
                <path class="cls-1" d="M262.47,22.6h-5.1v-3.4h13.8v3.4h-5.1v13.3h-3.7v-13.3h.1Z"/>
              </g>
            </g>
          </g>
        </g>
      </g>
    </g>
    <g class="cls-2">
      <g class="cls-2">
        <g class="cls-2">
          <g class="cls-2">
            <g class="cls-2">
              <g class="cls-2">
                <path class="cls-1" d="M281.87,19h6.8c1,0,1.9.1,2.7.4s1.5.7,2,1.2,1,1.1,1.3,1.8c.3.7.4,1.5.4,2.3h0c0,1-.2,1.9-.5,2.6s-.8,1.3-1.4,1.8-1.3.9-2.1,1.1c-.8.2-1.7.4-2.6.4h-2.8v5h-3.7v-16.7l-.1.1h0ZM288.47,27.4c.9,0,1.6-.2,2.1-.7s.8-1.1.8-1.8h0c0-.9-.3-1.5-.8-1.9s-1.3-.6-2.2-.6h-2.8v5.1h2.9v-.1Z"/>
                <path class="cls-1" d="M305.87,36c-1.3,0-2.5-.2-3.5-.7s-2-1.1-2.8-1.8c-.8-.8-1.4-1.7-1.8-2.7s-.7-2.2-.7-3.3h0c0-1.2.2-2.4.7-3.4.4-1,1.1-2,1.8-2.7.8-.8,1.7-1.4,2.8-1.9s2.3-.7,3.6-.7,2.5.2,3.5.7,2,1.1,2.8,1.8,1.4,1.7,1.8,2.7.7,2.2.7,3.3h0c0,1.2-.2,2.4-.7,3.4-.4,1-1.1,2-1.8,2.7-.8.8-1.7,1.4-2.8,1.9-1.1.5-2.3.7-3.6.7ZM305.87,32.6c.7,0,1.4-.1,2-.4.6-.3,1.1-.6,1.6-1.1s.8-1,1-1.7c.2-.6.4-1.3.4-2h0c0-.8-.1-1.4-.4-2.1s-.6-1.2-1-1.7c-.5-.5-1-.9-1.6-1.1-.6-.3-1.3-.4-2-.4s-1.4.1-2,.4-1.1.6-1.6,1.1c-.4.5-.8,1-1,1.7s-.4,1.3-.4,2h0c0,.8.1,1.4.4,2.1s.6,1.2,1,1.7c.5.5,1,.9,1.6,1.1.6.3,1.3.4,2,.4Z"/>
                <path class="cls-1" d="M317.97,19h7.6c2.1,0,3.7.6,4.9,1.7,1,1,1.4,2.2,1.4,3.8h0c0,1.4-.3,2.5-1,3.3s-1.5,1.5-2.6,1.9l4.1,6h-4.3l-3.6-5.3h-2.9v5.3h-3.7v-16.7s.1,0,.1,0ZM325.37,27.1c.9,0,1.6-.2,2.1-.6s.7-1,.7-1.7h0c0-.8-.3-1.4-.8-1.8s-1.2-.6-2.1-.6h-3.6v4.8h3.7v-.1h0Z"/>
                <path class="cls-1" d="M339.07,22.4h-5.1v-3.4h13.8v3.4h-5.1v13.3h-3.7v-13.3h.1Z"/>
                <path class="cls-1" d="M356.37,18.9h3.4l7.1,16.8h-3.8l-1.5-3.7h-7l-1.5,3.7h-3.7l7.1-16.8s-.1,0-.1,0ZM360.17,28.7l-2.2-5.4-2.2,5.4h4.4Z"/>
                <path class="cls-1" d="M369.47,19h3.7v13.4h8.3v3.3h-12v-16.7Z"/>
              </g>
            </g>
          </g>
        </g>
      </g>
    </g>
  </g>
  <g>
    <g>
      <g>
        <g>
          <path class="cls-1" d="M58.39,26.95c-.39-.46-.78-.9-1.07-1.41-.73-1.19-1.24-2.48-1.53-3.89-.12-.56-.17-1.19-.17-1.8,0-1.46.29-2.87.85-4.18-.22-.12-.51-.17-.85-.29-.63-.22-1.29-.46-1.97-.63-.51-.12-.95-.29-1.41-.34,0,0,0,.05-.05.17-.05.22-.12.63-.17,1.12v.56c0,4.45,2.31,8.4,5.76,10.72.29.17.63.39.9.56.05.05.29.17.34.17-.12-.29-.46-.63-.63-.78h0Z"/>
          <path class="cls-1" d="M51,15.55c-.68-.05-1.36-.12-1.97-.12h-.22v.39c.05.51.12,1.02.22,1.46.68,3.33,2.6,6.03,5.19,7.84-2.03-2.48-3.21-5.59-3.21-8.91-.05-.22,0-.46,0-.68h0Z"/>
          <path class="cls-1" d="M63.42,20.85c-.39-2.48-2.48-4.96-4.91-6.54-.17.22-.29.46-.39.68-.85,1.41-1.29,3.04-1.29,4.79s.51,3.5,1.36,4.91c.39.68.85,1.24,1.41,1.8.12.12.22.17.29.29.29.29.63.51.9.73h0c.12.05.22.17.39.22.17.12.29.17.46.29.63.34,1.29.63,2.03.78.05-.95.12-3.67-.05-5.98-.05-.73-.12-1.41-.17-1.97h-.01Z"/>
        </g>
        <g>
          <path class="cls-1" d="M70.01,26.95c.39-.46.78-.9,1.07-1.41.73-1.19,1.24-2.48,1.53-3.89.12-.56.17-1.19.17-1.8,0-1.46-.29-2.87-.85-4.18.22-.12.51-.17.85-.29.63-.22,1.29-.46,1.97-.63.51-.12.95-.29,1.41-.34,0,0,0,.05.05.17.05.22.12.63.17,1.12v.56c0,4.45-2.31,8.4-5.76,10.72-.29.17-.63.39-.9.56-.05.05-.29.17-.34.17.12-.29.46-.63.63-.78h0Z"/>
          <path class="cls-1" d="M77.41,15.55c.68-.05,1.36-.12,1.97-.12h.22v.39c-.05.51-.12,1.02-.22,1.46-.68,3.33-2.6,6.03-5.13,7.84,2.03-2.48,3.21-5.59,3.21-8.91,0-.22,0-.46-.05-.68h0Z"/>
          <path class="cls-1" d="M65.05,20.85c.39-2.48,2.48-4.96,4.91-6.54.17.22.29.46.39.68.85,1.41,1.29,3.04,1.29,4.79s-.51,3.5-1.36,4.91c-.39.68-.85,1.24-1.41,1.8-.12.12-.22.17-.29.29-.29.29-.63.51-.9.73h0c-.12.05-.22.17-.39.22-.17.12-.29.17-.46.29-.63.34-1.29.63-2.03.78-.05-.95-.12-3.67.05-5.98,0-.73.05-1.41.17-1.97h.01Z"/>
        </g>
      </g>
      <path class="cls-1" d="M64.2,30.67c-7.39,0-13.7-4.62-16.18-11.17,1.63,7.44,8.29,13.03,16.18,13.03s14.55-5.59,16.25-13.03c-2.53,6.54-8.86,11.17-16.25,11.17Z"/>
      <path class="cls-1" d="M56.98,14.65c.17-.29.34-.63.56-.9l.63-.9.9.63c2.48,1.63,4.35,3.89,5.08,6.09.78-2.26,2.65-4.51,5.08-6.09l.9-.63.63.9c.22.29.39.63.56.9.9-.34,2.26-.78,3.44-1.07-1.12-4.74-5.42-8.18-10.55-8.18s-9.36,3.44-10.66,8.18c1.24.29,2.6.78,3.44,1.07Z"/>
    </g>
    <g>
      <polygon class="cls-1" points="91.73 16.74 86.43 9.24 84.68 9.24 84.68 19.9 86.48 19.9 86.48 12.39 91.84 19.9 93.59 19.9 93.59 9.24 91.73 9.24 91.73 16.74"/>
      <path class="cls-1" d="M100.59,9.07c-3.16,0-5.59,2.36-5.59,5.47s2.36,5.47,5.59,5.47,5.59-2.36,5.59-5.47-2.36-5.47-5.59-5.47ZM104.26,14.54c0,1.87-1.36,3.78-3.67,3.78s-3.67-1.92-3.67-3.78,1.36-3.78,3.67-3.78,3.67,1.92,3.67,3.78Z"/>
      <path class="cls-1" d="M114.58,12.51c0-1.92-1.53-3.27-3.84-3.27h-3.04v10.61h1.8v-4.11h.56l2.87,4.11h2.2l-3.04-4.35c.85-.17,2.48-.9,2.48-2.99h.01ZM112.77,12.51c0,1.02-.73,1.58-1.97,1.58h-1.29v-3.16h1.29c1.24,0,1.97.56,1.97,1.58Z"/>
      <polygon class="cls-1" points="115.41 10.93 118.47 10.93 118.47 19.9 120.33 19.9 120.33 10.93 123.37 10.93 123.37 9.24 115.41 9.24 115.41 10.93"/>
      <polygon class="cls-1" points="131.39 13.58 126.53 13.58 126.53 9.24 124.67 9.24 124.67 19.9 126.53 19.9 126.53 15.28 131.39 15.28 131.39 19.9 133.19 19.9 133.19 9.24 131.39 9.24 131.39 13.58"/>
      <polygon class="cls-1" points="152.48 15.28 156.99 15.28 156.99 13.58 152.48 13.58 152.48 10.93 157.38 10.93 157.38 9.24 150.61 9.24 150.61 19.9 157.44 19.9 157.44 18.2 152.48 18.2 152.48 15.28"/>
      <path class="cls-1" d="M163.09,13.8c-1.53-.68-2.26-1.02-2.26-1.8,0-.63.56-1.24,1.53-1.24,1.19,0,1.87.9,1.87.95l.17.22,1.41-1.07-.17-.22c-.05-.05-1.12-1.58-3.27-1.58s-3.38,1.46-3.38,2.94c0,1.97,1.75,2.7,3.11,3.33,1.24.51,1.92.9,1.92,1.75,0,.9-.9,1.29-1.75,1.29-1.53,0-2.09-1.36-2.09-1.41l-.12-.29-1.53.85.12.22c.05.12.95,2.26,3.67,2.26,2.09,0,3.61-1.24,3.61-2.99.05-1.87-1.24-2.53-2.82-3.21h-.01Z"/>
      <polygon class="cls-1" points="166.91 9.24 166.91 10.93 170.02 10.93 170.02 19.9 171.82 19.9 171.82 10.93 174.87 10.93 174.87 9.24 166.91 9.24"/>
      <polygon class="cls-1" points="139.05 19.95 141.93 12.68 144.75 19.95 145.26 19.95 149.54 9.24 147.57 9.24 145.04 15.78 142.61 9.24 141.31 9.24 138.83 15.78 136.29 9.24 134.31 9.24 138.54 19.95 139.05 19.95"/>
    </g>
    <g>
      <polygon class="cls-1" points="89.02 27 85.81 27 85.81 24.13 84.68 24.13 84.68 31.07 85.81 31.07 85.81 28.02 89.02 28.02 89.02 31.07 90.15 31.07 90.15 24.13 89.02 24.13 89.02 27"/>
      <polygon class="cls-1" points="95.95 28.02 98.94 28.02 98.94 27 95.95 27 95.95 25.2 99.18 25.2 99.18 24.13 94.83 24.13 94.83 31.07 99.23 31.07 99.23 30 95.95 30 95.95 28.02"/>
      <path class="cls-1" d="M106.05,24.13l-2.87,6.88h1.24l.73-1.8h2.82l.73,1.8h1.24l-2.87-6.88h-1.02ZM107.51,28.19h-1.92l.95-2.36.95,2.36h.01Z"/>
      <polygon class="cls-1" points="115.19 24.13 114 24.13 114 31.07 118.3 31.07 118.3 30 115.19 30 115.19 24.13"/>
      <polygon class="cls-1" points="121.12 25.2 123.09 25.2 123.09 31.07 124.27 31.07 124.27 25.2 126.31 25.2 126.31 24.13 121.12 24.13 121.12 25.2"/>
      <polygon class="cls-1" points="134.99 27 131.78 27 131.78 24.13 130.64 24.13 130.64 31.07 131.78 31.07 131.78 28.02 134.99 28.02 134.99 31.07 136.18 31.07 136.18 24.13 134.99 24.13 134.99 27"/>
      <path class="cls-1" d="M145.87,29.26s-.73.85-1.92.85c-1.53,0-2.43-1.29-2.43-2.48s.9-2.48,2.43-2.48c1.19,0,1.8.73,1.8.73l.12.12.78-.73-.12-.12c-.05-.05-.95-1.07-2.65-1.07-2.09,0-3.61,1.53-3.61,3.55s1.58,3.55,3.61,3.55c1.7,0,2.65-1.07,2.7-1.12l.12-.12-.78-.78-.05.12h0Z"/>
      <path class="cls-1" d="M152.93,24.13l-2.87,6.88h1.24l.73-1.8h2.82l.73,1.8h1.24l-2.87-6.88h-1.02ZM154.39,28.19h-1.92l.95-2.36.95,2.36h.01Z"/>
      <path class="cls-1" d="M165.33,26.27c0-1.24-1.02-2.09-2.48-2.09h-1.97v6.88h1.12v-2.7h.39l1.92,2.7h1.41l-1.97-2.82c.51-.17,1.58-.63,1.58-1.97ZM164.21,26.27c0,.68-.46,1.02-1.29,1.02h-.9v-2.09h.9c.78,0,1.29.39,1.29,1.07Z"/>
      <polygon class="cls-1" points="171.09 30 171.09 28.02 174.08 28.02 174.08 27 171.09 27 171.09 25.2 174.31 25.2 174.31 24.13 169.97 24.13 169.97 31.07 174.36 31.07 174.36 30 171.09 30"/>
    </g>
    <rect class="cls-4" x="47.73" y="35.69" width="126.91" height="8.91"/>
    <g>
      <path class="cls-3" d="M51.96,42.57v-4.74h.68l.78,2.03c.17.46.39,1.02.56,1.53h0c-.05-.63-.05-1.36-.05-2.2v-1.36h.68v4.74h-.68l-.78-2.03c-.17-.46-.39-1.02-.51-1.53h0c.05.56.05,1.24.05,2.2v1.29h-.73v.05h0Z"/>
      <path class="cls-3" d="M56.64,42.63c-.95,0-1.41-1.02-1.41-2.43s.51-2.43,1.46-2.43c1.02,0,1.41,1.07,1.41,2.36,0,1.75-.68,2.48-1.46,2.48h0ZM56.64,41.95c.51,0,.63-.85.63-1.8,0-.85-.12-1.75-.63-1.75s-.68.9-.68,1.75c0,.95.17,1.8.68,1.8h0Z"/>
      <path class="cls-3" d="M58.68,37.89c.29-.05.56-.12.9-.12.51,0,.9.05,1.19.34.29.22.34.56.34.95,0,.56-.29.95-.73,1.19h0c.34.12.51.46.63,1.02s.22,1.07.29,1.24h-.78c-.05-.12-.17-.63-.22-1.12-.12-.63-.29-.78-.63-.78h-.17v1.97h-.73v-4.68h-.07ZM59.41,39.97h.22c.46,0,.73-.34.73-.85,0-.46-.17-.78-.68-.78-.12,0-.17,0-.22.05v1.58h-.05Z"/>
      <path class="cls-3" d="M62.28,38.51h-.85v-.68h2.48v.68h-.85v4.06h-.73v-4.06s-.05,0-.05,0Z"/>
      <path class="cls-3" d="M65.1,37.78v1.97h1.12v-1.97h.73v4.74h-.73v-2.09h-1.12v2.09h-.73v-4.74h.73Z"/>
      <path class="cls-3" d="M68.32,42.57l-.85-4.79h.78l.29,2.09c.05.56.12,1.12.22,1.7h0c.05-.56.17-1.12.29-1.7l.39-2.09h.63l.34,2.03c.12.56.17,1.07.29,1.7h0c.05-.63.12-1.19.22-1.7l.29-2.03h.73l-.85,4.74h-.78l-.34-1.87c-.05-.46-.17-1.02-.22-1.58h0c-.05.56-.17,1.07-.29,1.58l-.39,1.87h-.73v.05h-.01Z"/>
      <path class="cls-3" d="M74.3,40.37h-1.12v1.53h1.29v.68h-2.03v-4.74h1.97v.68h-1.19v1.29h1.12v.56s-.05,0-.05,0Z"/>
      <path class="cls-3" d="M74.98,41.72c.17.12.51.17.73.17.46,0,.73-.29.73-.68s-.22-.63-.63-.85c-.51-.34-.9-.78-.9-1.29,0-.73.51-1.29,1.41-1.29.29,0,.56.12.68.17l-.12.68c-.12-.12-.34-.17-.56-.17-.46,0-.63.29-.63.56,0,.34.17.51.68.85.63.39.85.85.85,1.36,0,.85-.63,1.41-1.46,1.41-.34,0-.73-.12-.85-.22l.05-.68h.01Z"/>
      <path class="cls-3" d="M78.24,38.51h-.85v-.68h2.48v.68h-.85v4.06h-.73v-4.06s-.05,0-.05,0Z"/>
      <path class="cls-3" d="M81.97,37.78h.29v4.74h-.29v-4.74Z"/>
      <path class="cls-3" d="M85.52,42.63c-.95,0-1.41-1.02-1.41-2.43s.51-2.43,1.46-2.43c1.02,0,1.41,1.07,1.41,2.36,0,1.75-.63,2.48-1.46,2.48h0ZM85.57,41.95c.51,0,.63-.85.63-1.8,0-.85-.12-1.75-.63-1.75s-.68.9-.68,1.75c0,.95.17,1.8.68,1.8h0Z"/>
      <path class="cls-3" d="M87.61,37.89c.29-.05.56-.12.9-.12.51,0,.9.05,1.19.34.29.22.34.56.34.95,0,.56-.29.95-.73,1.19h0c.34.12.51.46.63,1.02s.22,1.07.29,1.24h-.78c-.05-.12-.17-.63-.22-1.12-.12-.63-.29-.78-.63-.78h-.22v1.97h-.73v-4.68h-.02ZM88.34,39.97h.22c.46,0,.73-.34.73-.85,0-.46-.17-.78-.68-.78-.12,0-.17,0-.22.05v1.58h-.05Z"/>
      <path class="cls-3" d="M91.84,42.63c-.95,0-1.41-1.02-1.41-2.43s.51-2.43,1.46-2.43c1.02,0,1.41,1.07,1.41,2.36,0,1.75-.63,2.48-1.46,2.48h0ZM91.89,41.95c.51,0,.63-.85.63-1.8,0-.85-.12-1.75-.63-1.75s-.68.9-.68,1.75c0,.95.17,1.8.68,1.8h0Z"/>
      <path class="cls-3" d="M95.73,42.57l-1.07-4.74h.85l.39,2.14c.12.51.22,1.12.29,1.75h0c.05-.56.17-1.19.29-1.75l.39-2.09h.78l-1.07,4.74h-.85s0-.05,0-.05Z"/>
      <path class="cls-3" d="M98.33,41.33l-.22,1.24h-.73l1.07-4.74h.9l.95,4.74h-.73l-.22-1.24h-1.02ZM99.18,40.71l-.17-1.07c-.05-.29-.12-.73-.17-1.07h0c-.05.34-.12.78-.17,1.07l-.22,1.07h.73Z"/>
      <path class="cls-3" d="M100.76,37.78h.73v4.11h1.24v.63h-1.97s0-4.74,0-4.74Z"/>
      <path class="cls-3" d="M103.24,37.78h.73v4.11h1.24v.63h-2.03v-4.74h.05Z"/>
      <path class="cls-3" d="M107.58,40.37h-1.12v1.53h1.29v.68h-2.03v-4.74h1.97v.68h-1.19v1.29h1.12v.56s-.05,0-.05,0Z"/>
      <path class="cls-3" d="M109.04,42.57v-1.92l-1.02-2.82h.78l.34,1.12c.12.34.22.68.29,1.02h0c.05-.34.17-.73.29-1.07l.34-1.12h.78l-1.07,2.82v1.92h-.73v.05h0Z"/>
      <path class="cls-3" d="M112.93,37.78h.29v4.74h-.29v-4.74Z"/>
      <path class="cls-3" d="M115.48,41.72c.17.12.51.17.73.17.46,0,.73-.29.73-.68s-.22-.63-.63-.85c-.51-.34-.9-.78-.9-1.29,0-.73.51-1.29,1.41-1.29.29,0,.56.12.68.17l-.12.68c-.12-.12-.34-.17-.56-.17-.46,0-.63.29-.63.56,0,.34.17.51.68.85.63.39.85.85.85,1.36,0,.85-.63,1.41-1.46,1.41-.34,0-.73-.12-.85-.22l.05-.68h.01Z"/>
      <path class="cls-3" d="M118.86,41.33l-.29,1.24h-.73l1.07-4.74h.9l.95,4.74h-.73l-.29-1.24h-.9.01ZM119.76,40.71l-.22-1.07c-.05-.29-.12-.73-.17-1.07h0c-.05.34-.12.78-.17,1.07l-.22,1.07h.78Z"/>
      <path class="cls-3" d="M122.02,37.78v1.97h1.12v-1.97h.73v4.74h-.73v-2.09h-1.12v2.09h-.73v-4.74h.73Z"/>
      <path class="cls-3" d="M125.4,37.78v3.16c0,.78.22,1.02.51,1.02.34,0,.56-.22.56-1.02v-3.11h.73v2.99c0,1.24-.51,1.8-1.29,1.8-.85,0-1.29-.56-1.29-1.75v-3.04h.78v-.05Z"/>
      <path class="cls-3" d="M128.57,41.33l-.29,1.24h-.73l1.07-4.74h.9l.95,4.74h-.73l-.29-1.24h-.9.01ZM129.41,40.71l-.22-1.07c-.05-.29-.12-.73-.17-1.07h0c-.05.34-.12.78-.17,1.07l-.22,1.07h.78Z"/>
      <path class="cls-3" d="M130.93,37.89c.29-.05.56-.12.9-.12.51,0,.9.05,1.19.34.29.22.34.56.34.95,0,.56-.29.95-.73,1.19h0c.34.12.51.46.63,1.02.12.56.22,1.07.29,1.24h-.78c-.05-.12-.17-.63-.22-1.12-.12-.63-.29-.78-.63-.78h-.17v1.97h-.73v-4.68h-.07ZM131.71,39.97h.22c.46,0,.73-.34.73-.85,0-.46-.17-.78-.68-.78-.12,0-.17,0-.29.05v1.58h.01Z"/>
      <path class="cls-3" d="M134.77,37.78v4.74h-.73v-4.74h.73Z"/>
      <path class="cls-3" d="M136.06,38.51h-.85v-.68h2.48v.68h-.85v4.06h-.73v-4.06h-.05,0Z"/>
      <path class="cls-3" d="M138.54,41.33l-.29,1.24h-.73l1.07-4.74h.9l.95,4.74h-.73l-.22-1.24h-.95ZM139.39,40.71l-.22-1.07c-.05-.29-.12-.73-.17-1.07h0c-.05.34-.12.78-.17,1.07l-.22,1.07h.78Z"/>
      <path class="cls-3" d="M142.78,37.78h.29v4.74h-.29v-4.74Z"/>
      <path class="cls-3" d="M146.16,37.78v1.97h1.12v-1.97h.73v4.74h-.73v-2.09h-1.12v2.09h-.73v-4.74h.73Z"/>
      <path class="cls-3" d="M150,42.63c-.95,0-1.41-1.02-1.41-2.43s.56-2.43,1.46-2.43c1.02,0,1.41,1.07,1.41,2.36,0,1.75-.63,2.48-1.46,2.48h0ZM150.05,41.95c.51,0,.63-.85.63-1.8,0-.85-.12-1.75-.68-1.75-.51,0-.68.9-.68,1.75.05.95.22,1.8.73,1.8h0Z"/>
      <path class="cls-3" d="M152.82,37.78v3.16c0,.78.22,1.02.51,1.02.34,0,.56-.22.56-1.02v-3.11h.73v2.99c0,1.24-.51,1.8-1.29,1.8-.85,0-1.29-.56-1.29-1.75v-3.04h.78v-.05Z"/>
      <path class="cls-3" d="M157.89,42.4c-.22.05-.56.17-.9.17-.51,0-.9-.12-1.19-.46-.39-.39-.63-1.07-.56-1.92,0-1.8,1.02-2.48,1.92-2.48.34,0,.56.05.73.12l-.17.63c-.12-.05-.29-.12-.56-.12-.63,0-1.19.46-1.19,1.8s.51,1.75,1.02,1.75c.12,0,.22,0,.22-.05v-1.36h-.51v-.63h1.19v2.53h0Z"/>
      <path class="cls-3" d="M159.3,37.78v1.97h1.12v-1.97h.73v4.74h-.73v-2.09h-1.12v2.09h-.73v-4.74h.73Z"/>
      <path class="cls-3" d="M162.51,38.51h-.85v-.68h2.48v.68h-.85v4.06h-.73v-4.06h-.05,0Z"/>
      <path class="cls-3" d="M165.67,42.63c-.95,0-1.41-1.02-1.41-2.43s.56-2.43,1.46-2.43c1.02,0,1.41,1.07,1.41,2.36,0,1.75-.63,2.48-1.46,2.48h0ZM165.73,41.95c.51,0,.63-.85.63-1.8,0-.85-.12-1.75-.68-1.75-.51,0-.68.9-.68,1.75.05.95.22,1.8.73,1.8h0Z"/>
      <path class="cls-3" d="M167.76,42.57v-4.74h.68l.78,2.03c.17.46.39,1.02.56,1.53h0c-.05-.63-.05-1.36-.05-2.2v-1.36h.68v4.74h-.68l-.78-2.03c-.17-.46-.39-1.02-.51-1.53h0c.05.56.05,1.24.05,2.2v1.29h-.73v.05h0Z"/>
    </g>
  </g>
</svg>