<?xml version="1.0" encoding="UTF-8"?>
<svg id="Layer_1" data-name="Layer 1" xmlns="http://www.w3.org/2000/svg" viewBox="0 0 356.6 71.2">
  <defs>
    <style>
      .cls-1 {
        fill: #fff;
      }

      .cls-2 {
        fill: #c3e4e0;
      }

      .cls-3 {
        fill: #004a7c;
      }

      .cls-4 {
        fill: #6dc4bc;
      }
    </style>
  </defs>
  <g>
    <rect class="cls-3" x="189.15" y="9.41" width=".99" height="52.37"/>
    <path class="cls-3" d="M189.95,9.6v51.99h-.6V9.6h.6M190.33,9.22h-1.37v52.76h1.37V9.22h0Z"/>
  </g>
  <g>
    <g>
      <path class="cls-3" d="M236.7,24.95c-.25.52-.6.96-1.03,1.32s-.95.62-1.54.79c-.58.18-1.22.27-1.88.27h-2v3.58h-2.63v-11.95h4.88c.72,0,1.36.1,1.92.3s1.04.48,1.43.85.69.8.9,1.31c.21.51.32,1.07.32,1.68v.03c0,.69-.12,1.3-.37,1.82h0ZM234.41,23.14c0-.59-.19-1.04-.57-1.35s-.9-.46-1.56-.46h-2.03v3.65h2.08c.66,0,1.17-.17,1.54-.52s.55-.78.55-1.29v-.03h0Z"/>
      <path class="cls-3" d="M254.81,30.91l-2.56-3.82h-2.06v3.82h-2.63v-11.95h5.46c1.42,0,2.53.35,3.32,1.04s1.18,1.66,1.18,2.9v.03c0,.97-.23,1.76-.71,2.36-.47.61-1.09,1.06-1.85,1.34l2.92,4.27h-3.07,0ZM254.86,23.04c0-.57-.18-1-.55-1.28s-.87-.43-1.52-.43h-2.61v3.43h2.66c.65,0,1.15-.15,1.49-.46.35-.31.52-.72.52-1.23v-.03h0Z"/>
      <path class="cls-3" d="M268.55,30.91v-11.95h2.63v11.95h-2.63Z"/>
      <path class="cls-3" d="M291.08,30.91l-5.79-7.59v7.59h-2.6v-11.95h2.42l5.6,7.36v-7.36h2.6v11.95h-2.23Z"/>
      <path class="cls-3" d="M310.13,21.39v9.53h-2.63v-9.53h-3.64v-2.42h9.9v2.42h-3.63,0Z"/>
    </g>
    <g>
      <path class="cls-3" d="M222.76,46.07c-.25.52-.6.96-1.03,1.32s-.95.62-1.53.79c-.58.18-1.22.27-1.89.27h-2v3.58h-2.63v-11.95h4.88c.72,0,1.36.1,1.92.3s1.04.48,1.43.85.7.8.9,1.31c.21.51.32,1.07.32,1.68v.03c0,.69-.12,1.3-.37,1.82h0ZM220.47,44.27c0-.59-.19-1.04-.57-1.35-.38-.31-.9-.46-1.56-.46h-2.03v3.65h2.08c.66,0,1.17-.17,1.54-.52.37-.35.55-.78.55-1.29v-.03h0Z"/>
      <path class="cls-3" d="M245.31,48.47c-.32.75-.76,1.4-1.32,1.96-.57.56-1.23,1.01-2.01,1.33-.78.32-1.63.48-2.55.48s-1.77-.16-2.54-.48c-.77-.32-1.44-.76-2.01-1.32-.56-.55-1-1.2-1.32-1.95-.31-.75-.47-1.55-.47-2.4v-.03c0-.85.16-1.65.48-2.4.32-.75.76-1.4,1.32-1.96.56-.56,1.23-1.01,2.01-1.33.78-.32,1.63-.49,2.55-.49s1.77.16,2.54.49c.77.32,1.44.76,2.01,1.32s1,1.2,1.32,1.95c.31.75.47,1.55.47,2.4v.03c0,.85-.16,1.65-.48,2.4h0ZM243.04,46.06c0-.51-.09-1-.27-1.45-.18-.45-.43-.85-.75-1.2s-.71-.61-1.15-.81c-.44-.2-.93-.3-1.45-.3s-1.02.1-1.46.29c-.44.19-.82.46-1.13.8s-.56.74-.73,1.19-.27.93-.27,1.44v.03c0,.51.09,1,.27,1.45.18.45.43.85.75,1.2s.7.61,1.14.81.92.3,1.46.3,1.01-.1,1.45-.29.82-.46,1.13-.8.56-.74.73-1.19.27-.93.27-1.44v-.03h0Z"/>
      <path class="cls-3" d="M263.92,52.04l-2.56-3.82h-2.06v3.82h-2.63v-11.95h5.46c1.42,0,2.53.35,3.32,1.04.79.7,1.19,1.66,1.19,2.9v.03c0,.97-.23,1.76-.71,2.36-.47.61-1.09,1.06-1.85,1.34l2.92,4.27h-3.08ZM263.97,44.18c0-.57-.18-1-.55-1.28s-.87-.43-1.52-.43h-2.61v3.43h2.66c.65,0,1.15-.15,1.5-.46.35-.31.52-.72.52-1.23v-.03Z"/>
      <path class="cls-3" d="M282.95,42.51v9.53h-2.63v-9.53h-3.63v-2.42h9.9v2.42h-3.64,0Z"/>
      <path class="cls-3" d="M306.03,52.04l-1.09-2.68h-5.05l-1.09,2.68h-2.68l5.12-12.04h2.42l5.12,12.04h-2.75ZM302.41,43.16l-1.59,3.88h3.18l-1.59-3.88Z"/>
      <path class="cls-3" d="M319.16,52.04v-11.95h2.63v9.58h5.96v2.37h-8.59Z"/>
    </g>
  </g>
  <g>
    <g>
      <g>
        <g>
          <path class="cls-4" d="M40.32,37.7c-.42-.49-.84-.97-1.15-1.52-.79-1.28-1.34-2.67-1.64-4.19-.13-.6-.18-1.28-.18-1.94,0-1.57.31-3.09.91-4.5-.24-.13-.55-.18-.91-.31-.67-.24-1.39-.49-2.12-.67-.55-.13-1.03-.31-1.52-.37,0,0,0,.06-.06.18-.06.24-.13.67-.18,1.21v.6c0,4.79,2.49,9.04,6.2,11.54.31.18.67.42.97.6.06.06.31.18.37.18-.13-.31-.49-.67-.67-.84h0Z"/>
          <path class="cls-4" d="M32.37,25.43c-.73-.06-1.46-.13-2.12-.13h-.24v.42c.06.55.13,1.1.24,1.57.73,3.58,2.8,6.49,5.58,8.43-2.18-2.67-3.46-6.01-3.46-9.59-.06-.24,0-.49,0-.73h0Z"/>
          <path class="cls-4" d="M45.73,31.14c-.42-2.67-2.67-5.34-5.28-7.04-.18.24-.31.49-.42.73-.91,1.52-1.39,3.28-1.39,5.16s.55,3.77,1.46,5.28c.42.73.91,1.34,1.52,1.94.13.13.24.18.31.31.31.31.67.55.97.79h0c.13.06.24.18.42.24.18.13.31.18.49.31.67.37,1.39.67,2.18.84.06-1.03.13-3.95-.06-6.44-.06-.79-.13-1.52-.18-2.12h-.01Z"/>
        </g>
        <g>
          <path class="cls-4" d="M52.83,37.7c.42-.49.84-.97,1.15-1.52.79-1.28,1.34-2.67,1.64-4.19.13-.6.18-1.28.18-1.94,0-1.57-.31-3.09-.91-4.5.24-.13.55-.18.91-.31.67-.24,1.39-.49,2.12-.67.55-.13,1.03-.31,1.52-.37,0,0,0,.06.06.18.06.24.13.67.18,1.21v.6c0,4.79-2.49,9.04-6.2,11.54-.31.18-.67.42-.97.6-.06.06-.31.18-.37.18.13-.31.49-.67.67-.84h0Z"/>
          <path class="cls-4" d="M60.78,25.43c.73-.06,1.46-.13,2.12-.13h.24v.42c-.06.55-.13,1.1-.24,1.57-.73,3.58-2.8,6.49-5.52,8.43,2.18-2.67,3.46-6.01,3.46-9.59,0-.24,0-.49-.06-.73h0Z"/>
          <path class="cls-4" d="M47.49,31.14c.42-2.67,2.67-5.34,5.28-7.04.18.24.31.49.42.73.91,1.52,1.39,3.28,1.39,5.16s-.55,3.77-1.46,5.28c-.42.73-.91,1.34-1.52,1.94-.13.13-.24.18-.31.31-.31.31-.67.55-.97.79h0c-.13.06-.24.18-.42.24-.18.13-.31.18-.49.31-.67.37-1.39.67-2.18.84-.06-1.03-.13-3.95.06-6.44,0-.79.06-1.52.18-2.12h.01Z"/>
        </g>
      </g>
      <path class="cls-3" d="M46.58,41.71c-7.95,0-14.74-4.98-17.41-12.02,1.76,8.01,8.92,14.02,17.41,14.02s15.66-6.01,17.48-14.02c-2.73,7.04-9.53,12.02-17.48,12.02Z"/>
      <path class="cls-3" d="M38.8,24.46c.18-.31.37-.67.6-.97l.67-.97.97.67c2.67,1.76,4.68,4.19,5.47,6.55.84-2.43,2.85-4.85,5.47-6.55l.97-.67.67.97c.24.31.42.67.6.97.97-.37,2.43-.84,3.7-1.15-1.21-5.1-5.83-8.8-11.35-8.8s-10.08,3.7-11.47,8.8c1.34.31,2.8.84,3.7,1.15Z"/>
    </g>
    <g>
      <polygon class="cls-3" points="76.2 26.71 70.49 18.64 68.61 18.64 68.61 30.11 70.55 30.11 70.55 22.03 76.31 30.11 78.2 30.11 78.2 18.64 76.2 18.64 76.2 26.71"/>
      <path class="cls-3" d="M85.73,18.46c-3.4,0-6.01,2.54-6.01,5.89s2.54,5.89,6.01,5.89,6.01-2.54,6.01-5.89-2.54-5.89-6.01-5.89ZM89.68,24.35c0,2.01-1.46,4.06-3.95,4.06s-3.95-2.07-3.95-4.06,1.46-4.06,3.95-4.06,3.95,2.07,3.95,4.06Z"/>
      <path class="cls-3" d="M100.78,22.16c0-2.07-1.64-3.51-4.13-3.51h-3.28v11.41h1.94v-4.43h.6l3.09,4.43h2.36l-3.28-4.68c.91-.18,2.67-.97,2.67-3.22h.01ZM98.84,22.16c0,1.1-.79,1.7-2.12,1.7h-1.39v-3.4h1.39c1.34,0,2.12.6,2.12,1.7Z"/>
      <polygon class="cls-3" points="101.68 20.46 104.97 20.46 104.97 30.11 106.97 30.11 106.97 20.46 110.24 20.46 110.24 18.64 101.68 18.64 101.68 20.46"/>
      <polygon class="cls-3" points="118.87 23.31 113.64 23.31 113.64 18.64 111.64 18.64 111.64 30.11 113.64 30.11 113.64 25.14 118.87 25.14 118.87 30.11 120.81 30.11 120.81 18.64 118.87 18.64 118.87 23.31"/>
      <polygon class="cls-3" points="141.57 25.14 146.42 25.14 146.42 23.31 141.57 23.31 141.57 20.46 146.84 20.46 146.84 18.64 139.56 18.64 139.56 30.11 146.91 30.11 146.91 28.29 141.57 28.29 141.57 25.14"/>
      <path class="cls-3" d="M152.98,23.55c-1.64-.73-2.43-1.1-2.43-1.94,0-.67.6-1.34,1.64-1.34,1.28,0,2.01.97,2.01,1.03l.18.24,1.52-1.15-.18-.24c-.06-.06-1.21-1.7-3.51-1.7s-3.64,1.57-3.64,3.16c0,2.12,1.88,2.91,3.34,3.58,1.34.55,2.07.97,2.07,1.88,0,.97-.97,1.39-1.88,1.39-1.64,0-2.25-1.46-2.25-1.52l-.13-.31-1.64.91.13.24c.06.13,1.03,2.43,3.95,2.43,2.25,0,3.88-1.34,3.88-3.22.06-2.01-1.34-2.73-3.04-3.46h-.01Z"/>
      <polygon class="cls-3" points="157.1 18.64 157.1 20.46 160.44 20.46 160.44 30.11 162.38 30.11 162.38 20.46 165.66 20.46 165.66 18.64 157.1 18.64"/>
      <polygon class="cls-3" points="127.12 30.17 130.21 22.34 133.25 30.17 133.8 30.17 138.41 18.64 136.28 18.64 133.56 25.68 130.94 18.64 129.55 18.64 126.88 25.68 124.14 18.64 122.02 18.64 126.57 30.17 127.12 30.17"/>
    </g>
    <g>
      <polygon class="cls-3" points="73.28 37.76 69.82 37.76 69.82 34.66 68.61 34.66 68.61 42.13 69.82 42.13 69.82 38.85 73.28 38.85 73.28 42.13 74.5 42.13 74.5 34.66 73.28 34.66 73.28 37.76"/>
      <polygon class="cls-3" points="80.74 38.85 83.96 38.85 83.96 37.76 80.74 37.76 80.74 35.82 84.21 35.82 84.21 34.66 79.53 34.66 79.53 42.13 84.27 42.13 84.27 40.97 80.74 40.97 80.74 38.85"/>
      <path class="cls-3" d="M91.61,34.66l-3.09,7.41h1.34l.79-1.94h3.04l.79,1.94h1.34l-3.09-7.41h-1.1ZM93.18,39.03h-2.07l1.03-2.54,1.03,2.54h.01Z"/>
      <polygon class="cls-3" points="101.44 34.66 100.16 34.66 100.16 42.13 104.79 42.13 104.79 40.97 101.44 40.97 101.44 34.66"/>
      <polygon class="cls-3" points="107.82 35.82 109.94 35.82 109.94 42.13 111.21 42.13 111.21 35.82 113.4 35.82 113.4 34.66 107.82 34.66 107.82 35.82"/>
      <polygon class="cls-3" points="122.75 37.76 119.29 37.76 119.29 34.66 118.07 34.66 118.07 42.13 119.29 42.13 119.29 38.85 122.75 38.85 122.75 42.13 124.03 42.13 124.03 34.66 122.75 34.66 122.75 37.76"/>
      <path class="cls-3" d="M134.46,40.19s-.79.91-2.07.91c-1.64,0-2.61-1.39-2.61-2.67s.97-2.67,2.61-2.67c1.28,0,1.94.79,1.94.79l.13.13.84-.79-.13-.13c-.06-.06-1.03-1.15-2.85-1.15-2.25,0-3.88,1.64-3.88,3.82s1.7,3.82,3.88,3.82c1.83,0,2.85-1.15,2.91-1.21l.13-.13-.84-.84-.06.13h0Z"/>
      <path class="cls-3" d="M142.05,34.66l-3.09,7.41h1.34l.79-1.94h3.04l.79,1.94h1.34l-3.09-7.41h-1.1ZM143.62,39.03h-2.07l1.03-2.54,1.03,2.54h.01Z"/>
      <path class="cls-3" d="M155.4,36.97c0-1.34-1.1-2.25-2.67-2.25h-2.12v7.41h1.21v-2.91h.42l2.07,2.91h1.52l-2.12-3.04c.55-.18,1.7-.67,1.7-2.12ZM154.19,36.97c0,.73-.49,1.1-1.39,1.1h-.97v-2.25h.97c.84,0,1.39.42,1.39,1.15Z"/>
      <polygon class="cls-3" points="161.59 40.97 161.59 38.85 164.81 38.85 164.81 37.76 161.59 37.76 161.59 35.82 165.05 35.82 165.05 34.66 160.38 34.66 160.38 42.13 165.11 42.13 165.11 40.97 161.59 40.97"/>
    </g>
    <rect class="cls-4" x="28.85" y="47.1" width="136.56" height="9.59"/>
    <g>
      <path class="cls-1" d="M33.41,54.51v-5.1h.73l.84,2.18c.18.49.42,1.1.6,1.64h0c-.06-.67-.06-1.46-.06-2.36v-1.46h.73v5.1h-.73l-.84-2.18c-.18-.49-.42-1.1-.55-1.64h0c.06.6.06,1.34.06,2.36v1.39h-.79v.06h0Z"/>
      <path class="cls-1" d="M38.44,54.57c-1.03,0-1.52-1.1-1.52-2.61s.55-2.61,1.57-2.61c1.1,0,1.52,1.15,1.52,2.54,0,1.88-.73,2.67-1.57,2.67h0ZM38.44,53.84c.55,0,.67-.91.67-1.94,0-.91-.13-1.88-.67-1.88s-.73.97-.73,1.88c0,1.03.18,1.94.73,1.94h0Z"/>
      <path class="cls-1" d="M40.63,49.47c.31-.06.6-.13.97-.13.55,0,.97.06,1.28.37.31.24.37.6.37,1.03,0,.6-.31,1.03-.79,1.28h0c.37.13.55.49.67,1.1s.24,1.15.31,1.34h-.84c-.06-.13-.18-.67-.24-1.21-.13-.67-.31-.84-.67-.84h-.18v2.12h-.79v-5.03h-.08ZM41.42,51.71h.24c.49,0,.79-.37.79-.91,0-.49-.18-.84-.73-.84-.13,0-.18,0-.24.06v1.7h-.06Z"/>
      <path class="cls-1" d="M44.51,50.14h-.91v-.73h2.67v.73h-.91v4.37h-.79v-4.37s-.06,0-.06,0Z"/>
      <path class="cls-1" d="M47.55,49.35v2.12h1.21v-2.12h.79v5.1h-.79v-2.25h-1.21v2.25h-.79v-5.1h.79Z"/>
      <path class="cls-1" d="M51,54.51l-.91-5.16h.84l.31,2.25c.06.6.13,1.21.24,1.83h0c.06-.6.18-1.21.31-1.83l.42-2.25h.67l.37,2.18c.13.6.18,1.15.31,1.83h0c.06-.67.13-1.28.24-1.83l.31-2.18h.79l-.91,5.1h-.84l-.37-2.01c-.06-.49-.18-1.1-.24-1.7h0c-.06.6-.18,1.15-.31,1.7l-.42,2.01h-.79v.06h-.01Z"/>
      <path class="cls-1" d="M57.44,52.14h-1.21v1.64h1.39v.73h-2.18v-5.1h2.12v.73h-1.28v1.39h1.21v.6s-.06,0-.06,0Z"/>
      <path class="cls-1" d="M58.17,53.6c.18.13.55.18.79.18.49,0,.79-.31.79-.73s-.24-.67-.67-.91c-.55-.37-.97-.84-.97-1.39,0-.79.55-1.39,1.52-1.39.31,0,.6.13.73.18l-.13.73c-.13-.13-.37-.18-.6-.18-.49,0-.67.31-.67.6,0,.37.18.55.73.91.67.42.91.91.91,1.46,0,.91-.67,1.52-1.57,1.52-.37,0-.79-.13-.91-.24l.06-.73h.01Z"/>
      <path class="cls-1" d="M61.68,50.14h-.91v-.73h2.67v.73h-.91v4.37h-.79v-4.37s-.06,0-.06,0Z"/>
      <path class="cls-2" d="M65.69,49.35h.31v5.1h-.31v-5.1Z"/>
      <path class="cls-1" d="M69.51,54.57c-1.03,0-1.52-1.1-1.52-2.61s.55-2.61,1.57-2.61c1.1,0,1.52,1.15,1.52,2.54,0,1.88-.67,2.67-1.57,2.67h0ZM69.57,53.84c.55,0,.67-.91.67-1.94,0-.91-.13-1.88-.67-1.88s-.73.97-.73,1.88c0,1.03.18,1.94.73,1.94h0Z"/>
      <path class="cls-1" d="M71.76,49.47c.31-.06.6-.13.97-.13.55,0,.97.06,1.28.37.31.24.37.6.37,1.03,0,.6-.31,1.03-.79,1.28h0c.37.13.55.49.67,1.1s.24,1.15.31,1.34h-.84c-.06-.13-.18-.67-.24-1.21-.13-.67-.31-.84-.67-.84h-.24v2.12h-.79v-5.03h-.02ZM72.55,51.71h.24c.49,0,.79-.37.79-.91,0-.49-.18-.84-.73-.84-.13,0-.18,0-.24.06v1.7h-.06Z"/>
      <path class="cls-1" d="M76.31,54.57c-1.03,0-1.52-1.1-1.52-2.61s.55-2.61,1.57-2.61c1.1,0,1.52,1.15,1.52,2.54,0,1.88-.67,2.67-1.57,2.67h0ZM76.37,53.84c.55,0,.67-.91.67-1.94,0-.91-.13-1.88-.67-1.88s-.73.97-.73,1.88c0,1.03.18,1.94.73,1.94h0Z"/>
      <path class="cls-1" d="M80.5,54.51l-1.15-5.1h.91l.42,2.31c.13.55.24,1.21.31,1.88h0c.06-.6.18-1.28.31-1.88l.42-2.25h.84l-1.15,5.1h-.91s0-.06,0-.06Z"/>
      <path class="cls-1" d="M83.3,53.17l-.24,1.34h-.79l1.15-5.1h.97l1.03,5.1h-.79l-.24-1.34h-1.1ZM84.21,52.5l-.18-1.15c-.06-.31-.13-.79-.18-1.15h0c-.06.37-.13.84-.18,1.15l-.24,1.15h.79Z"/>
      <path class="cls-1" d="M85.91,49.35h.79v4.43h1.34v.67h-2.12s0-5.1,0-5.1Z"/>
      <path class="cls-1" d="M88.58,49.35h.79v4.43h1.34v.67h-2.18v-5.1h.06Z"/>
      <path class="cls-1" d="M93.25,52.14h-1.21v1.64h1.39v.73h-2.18v-5.1h2.12v.73h-1.28v1.39h1.21v.6s-.06,0-.06,0Z"/>
      <path class="cls-1" d="M94.82,54.51v-2.07l-1.1-3.04h.84l.37,1.21c.13.37.24.73.31,1.1h0c.06-.37.18-.79.31-1.15l.37-1.21h.84l-1.15,3.04v2.07h-.79v.06h0Z"/>
      <path class="cls-2" d="M99.01,49.35h.31v5.1h-.31v-5.1Z"/>
      <path class="cls-1" d="M101.75,53.6c.18.13.55.18.79.18.49,0,.79-.31.79-.73s-.24-.67-.67-.91c-.55-.37-.97-.84-.97-1.39,0-.79.55-1.39,1.52-1.39.31,0,.6.13.73.18l-.13.73c-.13-.13-.37-.18-.6-.18-.49,0-.67.31-.67.6,0,.37.18.55.73.91.67.42.91.91.91,1.46,0,.91-.67,1.52-1.57,1.52-.37,0-.79-.13-.91-.24l.06-.73h.01Z"/>
      <path class="cls-1" d="M105.39,53.17l-.31,1.34h-.79l1.15-5.1h.97l1.03,5.1h-.79l-.31-1.34h-.97.01ZM106.36,52.5l-.24-1.15c-.06-.31-.13-.79-.18-1.15h0c-.06.37-.13.84-.18,1.15l-.24,1.15h.84Z"/>
      <path class="cls-1" d="M108.79,49.35v2.12h1.21v-2.12h.79v5.1h-.79v-2.25h-1.21v2.25h-.79v-5.1h.79Z"/>
      <path class="cls-1" d="M112.43,49.35v3.4c0,.84.24,1.1.55,1.1.37,0,.6-.24.6-1.1v-3.34h.79v3.22c0,1.34-.55,1.94-1.39,1.94-.91,0-1.39-.6-1.39-1.88v-3.28h.84v-.06Z"/>
      <path class="cls-1" d="M115.83,53.17l-.31,1.34h-.79l1.15-5.1h.97l1.03,5.1h-.79l-.31-1.34h-.97.01ZM116.75,52.5l-.24-1.15c-.06-.31-.13-.79-.18-1.15h0c-.06.37-.13.84-.18,1.15l-.24,1.15h.84Z"/>
      <path class="cls-1" d="M118.38,49.47c.31-.06.6-.13.97-.13.55,0,.97.06,1.28.37.31.24.37.6.37,1.03,0,.6-.31,1.03-.79,1.28h0c.37.13.55.49.67,1.1.13.6.24,1.15.31,1.34h-.84c-.06-.13-.18-.67-.24-1.21-.13-.67-.31-.84-.67-.84h-.18v2.12h-.79v-5.03h-.08ZM119.22,51.71h.24c.49,0,.79-.37.79-.91,0-.49-.18-.84-.73-.84-.13,0-.18,0-.31.06v1.7h.01Z"/>
      <path class="cls-1" d="M122.51,49.35v5.1h-.79v-5.1h.79Z"/>
      <path class="cls-1" d="M123.9,50.14h-.91v-.73h2.67v.73h-.91v4.37h-.79v-4.37h-.06,0Z"/>
      <path class="cls-1" d="M126.57,53.17l-.31,1.34h-.79l1.15-5.1h.97l1.03,5.1h-.79l-.24-1.34h-1.03ZM127.48,52.5l-.24-1.15c-.06-.31-.13-.79-.18-1.15h0c-.06.37-.13.84-.18,1.15l-.24,1.15h.84Z"/>
      <path class="cls-2" d="M131.12,49.35h.31v5.1h-.31v-5.1Z"/>
      <path class="cls-1" d="M134.77,49.35v2.12h1.21v-2.12h.79v5.1h-.79v-2.25h-1.21v2.25h-.79v-5.1h.79Z"/>
      <path class="cls-1" d="M138.9,54.57c-1.03,0-1.52-1.1-1.52-2.61s.6-2.61,1.57-2.61c1.1,0,1.52,1.15,1.52,2.54,0,1.88-.67,2.67-1.57,2.67h0ZM138.95,53.84c.55,0,.67-.91.67-1.94,0-.91-.13-1.88-.73-1.88-.55,0-.73.97-.73,1.88.06,1.03.24,1.94.79,1.94h0Z"/>
      <path class="cls-1" d="M141.93,49.35v3.4c0,.84.24,1.1.55,1.1.37,0,.6-.24.6-1.1v-3.34h.79v3.22c0,1.34-.55,1.94-1.39,1.94-.91,0-1.39-.6-1.39-1.88v-3.28h.84v-.06Z"/>
      <path class="cls-1" d="M147.39,54.33c-.24.06-.6.18-.97.18-.55,0-.97-.13-1.28-.49-.42-.42-.67-1.15-.6-2.07,0-1.94,1.1-2.67,2.07-2.67.37,0,.6.06.79.13l-.18.67c-.13-.06-.31-.13-.6-.13-.67,0-1.28.49-1.28,1.94s.55,1.88,1.1,1.88c.13,0,.24,0,.24-.06v-1.46h-.55v-.67h1.28v2.73h0Z"/>
      <path class="cls-1" d="M148.9,49.35v2.12h1.21v-2.12h.79v5.1h-.79v-2.25h-1.21v2.25h-.79v-5.1h.79Z"/>
      <path class="cls-1" d="M152.36,50.14h-.91v-.73h2.67v.73h-.91v4.37h-.79v-4.37h-.06,0Z"/>
      <path class="cls-1" d="M155.76,54.57c-1.03,0-1.52-1.1-1.52-2.61s.6-2.61,1.57-2.61c1.1,0,1.52,1.15,1.52,2.54,0,1.88-.67,2.67-1.57,2.67h0ZM155.82,53.84c.55,0,.67-.91.67-1.94,0-.91-.13-1.88-.73-1.88-.55,0-.73.97-.73,1.88.06,1.03.24,1.94.79,1.94h0Z"/>
      <path class="cls-1" d="M158.01,54.51v-5.1h.73l.84,2.18c.18.49.42,1.1.6,1.64h0c-.06-.67-.06-1.46-.06-2.36v-1.46h.73v5.1h-.73l-.84-2.18c-.18-.49-.42-1.1-.55-1.64h0c.06.6.06,1.34.06,2.36v1.39h-.79v.06h0Z"/>
    </g>
  </g>
</svg>