<?xml version="1.0" encoding="UTF-8"?>
<svg id="Layer_1" xmlns="http://www.w3.org/2000/svg" version="1.1" viewBox="0 0 429.2 50">
  <!-- Generator: Adobe Illustrator 29.0.1, SVG Export Plug-In . SVG Version: 2.1.0 Build 192)  -->
  <defs>
    <style>
      .st0 {
        font-family: GothamBold, 'Gotham Bold';
        font-size: 23.8px;
      }

      .st0, .st1 {
        fill: #fff;
      }

      .st0, .st2 {
        isolation: isolate;
      }
    </style>
  </defs>
  <rect class="st1" x="216" y="8" width=".8" height="34"/>
  <g>
    <g class="st2">
      <g class="st2">
        <g class="st2">
          <text class="st0" transform="translate(226.3 35.9)"><tspan x="0" y="0">PRINT</tspan></text>
        </g>
      </g>
    </g>
    <g class="st2">
      <g class="st2">
        <g class="st2">
          <text class="st0" transform="translate(309.5 35.7)"><tspan x="0" y="0">PORTAL</tspan></text>
        </g>
      </g>
    </g>
  </g>
  <g>
    <path class="st1" d="M35.5,42.3c-9.4,0-17-5.1-17-11.4s7.6-11.4,17-11.4,17,5.1,17,11.4-7.6,11.4-17,11.4ZM35.5,21.7c-8.2,0-15,4.2-15,9.3s6.8,9.3,15,9.3,15-4.2,15-9.3-6.7-9.3-15-9.3Z"/>
    <path class="st1" d="M28.7,40.8c-2.8,0-5.4-1-7.3-2.7-2.4-2.4-3.3-5.7-2.7-9.6.6-3.7,2.5-7.5,5.6-10.6,3.7-3.8,8.5-6.1,12.9-6.1s5.4,1,7.3,2.7c2.4,2.4,3.3,5.7,2.7,9.6-.6,3.7-2.5,7.5-5.6,10.6-3.7,3.8-8.5,6.1-12.9,6.1ZM37.2,13.8c-3.8,0-8.1,2.1-11.5,5.4-2.7,2.8-4.5,6.2-5,9.5-.5,3.2.3,6,2.2,7.8,1.5,1.4,3.4,2.2,5.8,2.2,3.8,0,8.1-2.1,11.5-5.4,2.7-2.8,4.5-6.2,5-9.5.5-3.2-.3-6-2.2-7.8-1.5-1.4-3.4-2.2-5.8-2.2Z"/>
    <path class="st1" d="M71,24.4h2.5c1.1,0,2.1-.4,2.8-.8,1.5-.9,2.3-2.3,2.3-4.1s-.7-3.3-2.2-4.4c-.6-.5-1.4-.8-2.2-1s-2-.3-3.6-.3h-9.3v.4h0c.7,0,1.2.2,1.6.4.4.2.8.5,1,.9.2.3.3.7.4,1.2,0,.5,0,1.2,0,2.1v11.2c0,1.1,0,1.9-.2,2.4s-.3.9-.7,1.3c-.3.3-.6.5-1,.7-.4,0-.9.2-1.5.3v.4h9.8v-.4c-.6,0-1.1,0-1.5-.3-.4,0-.7-.4-1-.7-.3-.3-.5-.8-.7-1.3,0-.5-.2-1.3-.2-2.4v-5.5h3.3ZM68,14.2h2.8c.9,0,1.6.4,2.3.9.6.5,1,1,1.3,1.8.3.7.4,1.5.4,2.4,0,1.5-.5,2.7-1.5,3.6-.4.4-.9.7-1.5.8-.6.2-1.4.2-2.4.2h-1.5v-9.6ZM79.4,21.9c.5,0,.9,0,1.1.3.3,0,.5.4.7.7.2.3.3.6.4,1.1,0,.4,0,1.2,0,2.3v3.9c0,.9,0,1.7,0,2.2,0,.5,0,.9-.3,1.1-.2.4-.4.6-.7.8-.3.2-.7.3-1.4.4v.3h7.1v-.3c-.8-.2-1.4-.4-1.7-.7s-.4-.5-.5-.8c0-.4,0-1,0-1.7v-10.3l-4.6.6s0,.2,0,.2ZM83.7,14.9c.3-.3.4-.6.4-1s0-.7-.4-1-.6-.4-1-.4-.8,0-1,.4c-.3.3-.4.6-.4,1s0,.8.4,1c.3.3.6.4,1.1.4s.6,0,.9-.4ZM87.3,21.6v.3c.5,0,.9,0,1.1.3.3,0,.5.4.7.7.2.3.3.6.4,1.1,0,.4,0,1.2,0,2.3v3.9c0,.9,0,1.7,0,2.2,0,.5,0,.9-.3,1.1-.2.4-.4.6-.7.8-.3.2-.7.3-1.4.4v.3h7.1v-.3c-.8-.2-1.4-.4-1.7-.7s-.4-.5-.5-.8,0-.9,0-1.6v-4.1c0-1,0-1.8.2-2.4s.3-1.2.6-1.6c.3-.5.7-.9,1.3-1.2.5-.3,1.1-.4,1.7-.4s1,0,1.5.3c.4.2.8.5,1,.9s.4.8.5,1.4,0,1.5,0,2.7v2.9c0,.9,0,1.7,0,2.2,0,.5,0,.9-.3,1.1-.2.4-.4.6-.7.8-.3.2-.7.3-1.4.4v.3h7.1v-.3c-.8-.2-1.4-.4-1.7-.7s-.4-.5-.5-.8,0-.9,0-1.6v-4.2c0-1.8.3-3,.8-3.9.6-1,1.6-1.5,2.8-1.5s2.1.5,2.5,1.4c.2.4.4.9.4,1.4,0,.6,0,1.4,0,2.5v3c0,.9,0,1.7,0,2.2,0,.5,0,.9-.3,1.1-.2.4-.4.6-.7.8-.3.2-.7.3-1.4.4v.3h7.1v-.3c-.8-.2-1.4-.4-1.7-.7s-.4-.5-.5-.8,0-.9,0-1.6v-6.6c0-1.1-.4-2.1-1.2-2.7-.8-.7-1.9-1.1-3.1-1.1s-1.9.2-2.6.6c-.8.4-1.7,1-2.4,1.8-.5-.8-1-1.3-1.4-1.6-.7-.5-1.5-.8-2.4-.8s-1.8.2-2.6.6c-.8.4-1.6.9-2.3,1.7,0-.7-.2-1.5-.4-2.3,0,0-4.2.4-4.2.4ZM126.1,33.9c-.2,0-.5.2-.8.2-.7,0-1.1-.4-1.3-1.2,0-.4,0-1.1,0-2.1v-5.9c0-.8,0-1.3,0-1.6-.2-.6-.6-1.2-1.3-1.6-.5-.3-1.1-.5-1.8-.7-.7-.2-1.4-.3-2.1-.3s-1.2,0-1.8.2c-.6,0-1.1.3-1.6.5-.8.4-1.2.8-1.2,1.4s0,.7.4.9c.2.2.6.4.9.4.6,0,1-.3,1.2-.8l.4-.9c.2-.4.4-.7.8-.9.3-.2.7-.3,1.2-.3s.7,0,1.1.2c.3.2.6.4.8.6.5.6.7,1.5.7,2.7s0,1.1-.2,1.4-.4.6-.7.9c-.3.2-.7.4-1.1.6s-1.1.4-2.1.6c-.8.2-1.4.4-1.8.6s-.8.5-1.1.8c-.6.6-.9,1.4-.9,2.3s.3,1.7,1,2.3c.7.6,1.6.9,2.7.9s1.7-.2,2.4-.6c.4-.2.9-.6,1.6-1.3.4.6.7,1,1,1.3.5.4,1.1.6,1.9.6,1.4,0,2.3-.6,2.6-1.7l-.3-.2c-.3.3-.5.6-.7.7ZM121.5,29.6c0,1.4-.2,2.4-.5,3-.2.6-.6,1-1.1,1.3s-1,.5-1.5.5-1.1-.2-1.5-.7-.6-1.1-.6-1.8.3-1.6.8-2.2c.2-.3.5-.6.8-.8.3-.2.8-.5,1.6-1,.7-.4,1.3-.8,1.9-1.3v2.8s0,0,0,0ZM141.2,38.4c0,0,0,0,0,0,0,0,0,0-.2,0h-.6c-.4-.2-.8-.3-1.2-.3s-.8,0-1.1.2c-.4,0-.7.3-1,.5-.4.3-.6.7-.8,1.1-.2.5-.3,1-.3,1.5s.2,1.3.5,1.9c.3.5.8.9,1.4,1.1.4,0,.8.2,1.2.2s.8,0,1.2-.2c.3,0,.6-.3.8-.6.2-.3.3-.7.4-1.1h0c0,.4-.2.8-.4,1-.2.2-.4.4-.6.5-.3,0-.6.2-.9.2-.7,0-1.2-.2-1.6-.7-.2-.3-.4-.6-.5-1s-.2-.8-.2-1.3,0-1.1.3-1.5c0-.3.3-.6.5-.8l.6-.6c.2,0,.5-.2.9-.2s.4,0,.6,0,.4.2.5.3c.2.2.4.4.5.7,0,0,.2.4.3.6,0,0,0,0,0,.2h0v-2h-.3ZM144,41.5h.3c0,0,.2,0,.3,0,.2,0,.3.3.5.7.2.3.4.7.6,1.1l.3.7s0,0,0,.3h1.5c0,0-.2,0-.3-.2,0,0,0,0-.2-.2s-.2-.3-.3-.6-.3-.7-.6-1.2c0-.2-.2-.4-.3-.5s0-.2-.2-.2c0,0-.2-.2-.4-.2.2,0,.4,0,.5-.2,0,0,.3,0,.4-.2.4-.3.5-.7.5-1.1s0-.6-.2-.8c-.2-.2-.4-.4-.7-.5s-.6-.2-1.1-.2h-2.8c.2,0,.3,0,.4.2,0,0,.2,0,.3.2,0,0,.2.2.2.4s0,.4,0,.7v3.2c0,.3,0,.5,0,.7,0,0,0,.3-.2.4,0,0-.2,0-.3.2,0,0-.2,0-.4,0h0c0,0,2.8,0,2.8,0h0c-.2,0-.3,0-.4-.2,0,0-.2,0-.3-.2,0,0-.2-.2-.2-.4s0-.4,0-.7v-1.6h.3ZM143.8,38.5h.2c.3,0,.6,0,.7,0,.2,0,.3,0,.4.2.2,0,.3.3.4.5,0,.2,0,.4,0,.7s-.2.8-.5,1.1c0,0-.3.2-.5.3-.2,0-.4,0-.8,0v-2.9h0ZM147.7,38.4h0c.2,0,.3,0,.4.2,0,0,.2,0,.3.2,0,0,.2.2.2.4s0,.4,0,.7v3.2c0,.3,0,.5,0,.7,0,0,0,.3-.2.4,0,0-.2,0-.3.2,0,0-.2,0-.4,0h0c0,0,5.3,0,5.3,0v-1.8c0,0,0,0,0,0,0,.3,0,.5-.2.7,0,.2-.2.3-.3.4-.2.2-.4.3-.6.4-.2,0-.5,0-.9,0s-.6,0-.8-.2c-.2,0-.4-.3-.5-.5,0,0,0-.3,0-.5v-1.9h.3c.2,0,.4,0,.5,0,0,0,.3,0,.4.2,0,0,.2.2.2.4,0,0,0,.3,0,.6h0v-2.4h0c0,.2,0,.4,0,.5s0,.2-.2.3c0,0-.2.2-.3.2s-.3,0-.6,0h-.3v-2.6h1c.3,0,.6,0,.8,0,.2,0,.4,0,.5.2.2,0,.3.3.4.4,0,.2.2.4.2.6h0v-1.5h-4.9ZM153.3,44.4h3.2c.4,0,.8,0,1.1,0,.5,0,.9-.3,1.2-.7.2-.2.4-.5.6-.9,0-.4.2-.8.2-1.2,0-.6,0-1.1-.4-1.6-.2-.5-.6-.9-1-1.2s-1-.5-1.6-.5h-3.4c.3,0,.5.2.6.3,0,0,.2.2.2.4s0,.4,0,.7v3.2c0,.3,0,.5,0,.7,0,0,0,.3-.2.4,0,0-.2,0-.3.2,0,0-.2,0-.4,0h0c0,0,.2,0,.2,0h0ZM155.8,38.5c.4,0,.7,0,1,0,.5,0,.9.4,1.2.8.2.3.4.6.6,1,0,.4.2.8.2,1.2s0,.7-.2,1.1c0,.3-.3.6-.5.9-.2.3-.4.5-.7.6s-.6.2-.9.2-.7,0-.9-.4c0,0-.2-.2-.2-.4s0-.4,0-.7v-4.4h.5q0,0,0,0ZM160.4,38.4h0c.2,0,.3,0,.4.2,0,0,.2,0,.3.2,0,0,.2.2.2.4v4.6c0,0,0,.3-.2.4,0,0-.2,0-.3.2,0,0-.2,0-.4,0h0c0,0,2.8,0,2.8,0h0c-.2,0-.4,0-.5-.2s-.2,0-.3-.3c0,0,0-.2,0-.3v-4.3c0-.2,0-.4.2-.5,0,0,.2-.2.3-.2s.2,0,.4,0h0c0,0-2.8,0-2.8,0v-.2h0ZM165.9,43c0,.3,0,.5,0,.7,0,0,0,.3-.2.4,0,0-.2,0-.3.2,0,0-.2,0-.4,0h0c0,0,2.8,0,2.8,0h0c-.2,0-.3,0-.4-.2,0,0-.2,0-.3-.2,0,0-.2-.2-.2-.4s0-.4,0-.7v-4.5c.7,0,1.1,0,1.4,0,.3,0,.6.2.8.5.2.2.3.5.4.9h0v-1.7h-6.1v1.7c0,0,0,0,0,0,0-.4.2-.6.3-.9,0-.2.3-.4.6-.5.2,0,.6-.2,1-.2h.6v4.6h0,0ZM172,38.4h0c.2,0,.3,0,.4.2,0,0,.2,0,.3.2,0,0,.2.2.2.4v4c0,.4.2.7.5.9.4.4,1,.5,1.9.5s1.4-.2,1.9-.6c.2-.2.3-.3.4-.5,0-.2,0-.5,0-.9v-2.7c0-.3,0-.5,0-.7,0,0,0-.3.2-.4,0,0,.2-.2.3-.2s.2,0,.4,0h0c0,0-2.1,0-2.1,0h0c.2,0,.3,0,.4.2,0,0,.2,0,.3.2,0,0,.2.2.2.4s0,.4,0,.7v3.3c0,.2,0,.3,0,.5,0,0,0,.2-.3.3-.2.2-.4.3-.7.4-.3,0-.6,0-.9,0s-.6,0-.8-.2c-.2,0-.4-.3-.5-.5s-.2-.3-.2-.5v-4.1c0-.2,0-.3.2-.4,0,0,.2-.2.3-.2s.2,0,.4,0h0c0,0-2.9,0-2.9,0h0ZM184.1,44.4h.2v-4.6c0-.3,0-.5,0-.7,0,0,0-.3.2-.4.2-.2.4-.3.7-.3h0c0,0-2.1,0-2.1,0h0c.2,0,.3,0,.4.2,0,0,.2,0,.3.2,0,0,.2.2.2.4s0,.4,0,.7v3.2l-3.6-4.6h-1.7c.2,0,.3,0,.4.2,0,0,.2,0,.3.2,0,0,.2.2.2.4s0,.4,0,.7v3.2c0,.3,0,.5,0,.7,0,0,0,.3-.2.4,0,0-.2,0-.3.2,0,0-.2,0-.4,0h0c0,0,2.1,0,2.1,0h0c-.2,0-.3,0-.4-.2,0,0-.2,0-.3-.2,0,0-.2-.2-.2-.4s0-.4,0-.7v-3.8s4.1,5.1,4.1,5.1ZM185.6,38.4h0c.2,0,.3,0,.4.2,0,0,.2,0,.3.2,0,0,.2.2.2.4v4.6c0,0,0,.3-.2.4,0,0-.2,0-.3.2,0,0-.2,0-.4,0h0c0,0,2.8,0,2.8,0h0c-.2,0-.4,0-.5-.2s-.2,0-.3-.3c0,0,0-.2,0-.3v-4.3c0-.2,0-.4.2-.5,0,0,.2-.2.3-.2s.2,0,.4,0h0c0,0-2.8,0-2.8,0v-.2h0ZM189.4,42.5c0,.4.3.7.6,1,.3.4.7.6,1.1.8.4.2.9.3,1.4.3s.9,0,1.4-.3c.4-.2.8-.5,1.2-.9.3-.3.5-.6.6-1s.2-.7.2-1.1c0-.8-.3-1.5-.8-2.1-.3-.4-.7-.7-1.1-.9-.4-.2-.9-.3-1.3-.3s-.7,0-1.1.2-.7.3-1,.5c-.4.3-.7.7-.9,1.1-.2.4-.3.9-.3,1.4-.2.6-.2,1,0,1.3h0ZM190.4,40.2c0-.4.3-.8.5-1.1.2-.2.4-.4.6-.5.2,0,.5-.2.8-.2s.6,0,.8.2c.2,0,.4.3.6.5.2.3.4.7.6,1.1,0,.4.2.9.2,1.4,0,.9-.2,1.6-.7,2.2-.2.3-.4.5-.7.6-.2,0-.5.2-.8.2s-.6,0-.8-.2c-.2,0-.5-.3-.7-.6-.5-.6-.7-1.3-.7-2.2,0-.5,0-1,.3-1.4h0ZM201.5,44.4h.2v-4.6c0-.3,0-.5,0-.7,0,0,0-.3.2-.4.2-.2.4-.3.7-.3h0c0,0-2.1,0-2.1,0h0c.2,0,.3,0,.4.2,0,0,.2,0,.3.2,0,0,.2.2.2.4s0,.4,0,.7v3.2l-3.6-4.6h-1.7c.2,0,.3,0,.4.2,0,0,.2,0,.3.2,0,0,.2.2.2.4s0,.4,0,.7v3.2c0,.3,0,.5,0,.7,0,0,0,.3-.2.4,0,0-.2,0-.3.2,0,0-.2,0-.4,0h0c0,0,2.1,0,2.1,0h0c-.2,0-.3,0-.4-.2,0,0-.2,0-.3-.2,0,0-.2-.2-.2-.4s0-.4,0-.7v-3.8s4.1,5.1,4.1,5.1Z"/>
    <path class="st1" d="M137.3,20.8h-2.9l.9-3.1c.5-1.8,1.6-5.6,4.2-5.6s.9.3,1.4.9c.4.5.7,1.2,1.5,1.2s.9-.7.9-.9c0-1-1.2-2-3-2-5.1,0-6.9,5.8-7.7,9.6h-3.3l-.3.8h3.3l-2.6,9.7c-2.1,7.7-3.7,11-6.7,11s-1.4-.6-1.4-.9,0-.5,0-.8c0-.6-.5-1.3-1.3-1.3s-1.2.5-1.2,1.3c0,1.6,2.3,2.4,3.8,2.4,5.6,0,7.7-7.7,8.7-11.5l2.6-10h2.9s0-.8,0-.8ZM143.8,30.7c-1,2.2-2.4,3.7-3.9,3.7s-1.7,0-1.7-2.2.3-2.1.5-2.7c3.6-1.5,7.1-3.7,7.1-6.5s-.2-2.1-1.9-2.1c-2.9,0-7.6,5.6-7.6,10.9s1.7,3.5,3,3.5c2.3,0,4.1-2,5.3-4.7h-.8ZM138.9,28.7c1.4-4.9,3.4-6.9,4.5-6.9s1.1.2,1.1,1.3c0,2-3.3,4.6-5.6,5.6h0ZM158.3,31.9c-.7,1.2-1.8,2.3-2.4,2.3s-.6-.5-.6-.8c0-.5.2-1.2.4-2.2l5.8-18.9h-.3c-.9.3-2.4.7-3.9.7l-.2.7c1.4,0,1.8,0,1.8.8s-.2.8-.4,1.4l-2,6.6c-.4-.8-1.2-1.4-2.1-1.4-3.4,0-7.9,5.7-7.9,10.9s.7,3.5,2.6,3.5,3.5-2.2,4.3-2.9c-.2,2.2.5,2.9,1.7,2.9s2.9-1.8,3.9-3.4h-.8q0,0,0,0ZM148.4,32.5c0-2.9,3.2-10.8,6.2-10.8s1.5.8,1.5,1.6-.8,3.6-1.6,5.6c-1.4,3.3-3.3,5.5-4.8,5.5-1.3,0-1.3-1.6-1.3-1.9ZM167.9,30.7c-1,2.2-2.4,3.7-3.9,3.7s-1.7,0-1.7-2.2.3-2.1.5-2.7c3.6-1.5,7.1-3.7,7.1-6.5s-.2-2.1-1.9-2.1c-2.9,0-7.6,5.6-7.6,10.9s1.7,3.5,3,3.5c2.3,0,4.1-2,5.3-4.7,0,0-.8,0-.8,0ZM163.1,28.7c1.4-4.9,3.4-6.9,4.5-6.9s1.1.2,1.1,1.3c0,2-3.4,4.6-5.6,5.6h0ZM171.3,25.4c.5-1.2,1.6-3.3,2.5-3.3s.5.9.5,1c0,1-.6,2.8-1.2,4.6l-2.3,7.3h2l.5-1.7c1-2.9,3.8-10.9,5.1-10.9s.3.2.5.4.4.4.8.4,1-.4,1-1.1-.5-1.3-1.3-1.3c-2,0-3.5,4.3-4.5,6.6.2-1,.8-2.8.8-4.3s-.7-2.3-1.4-2.3c-1.8,0-3.1,2.7-3.8,4.4h.8q0,0,0,0ZM190.7,21.3l-.4,1.5c-.2-1.2-1.1-1.8-2.1-1.8-2.9,0-8.1,5.5-8.1,10.8s1.5,3.6,2.7,3.6c2.1,0,4.1-2.6,4.8-3.9-.3.9-.4,1.7-.4,2,0,.8.3,2,1.6,2s2.9-1.7,4-3.9h-.7c-.7,1.2-1.7,2.5-2.5,2.5s-.6-.4-.6-.7.4-1.9.7-2.5l2.9-9.6h-2s0,0,0,0ZM182.1,32.3c0-2.8,3.3-10.4,6.3-10.4s1.4.7,1.4,1.7-.9,4.4-2.3,7.2c-1.2,2.4-3,3.8-4.1,3.8-1.3,0-1.3-1.5-1.3-2.3h0ZM200.3,31c-.9,2.2-2.2,3.4-2.9,3.4s-.8-.3-.8-1.1.4-2.1.6-2.5l5.6-18.5h-.4c-1,.4-2.1.6-4,.6l-.2.7h.6c.8,0,1.4,0,1.4.8s-.5,2-.6,2.3l-4.3,14.1c0,.3-.5,1.8-.5,2.5s.7,2.2,2,2.2c2.2,0,3.6-2.6,4.3-4.4,0,0-.7,0-.7,0Z"/>
    <path class="st1" d="M201,34.7c0-.2,0-.5,0-.7s.2-.4.4-.6.4-.3.6-.4c.2,0,.5,0,.7,0s.5,0,.7,0,.4.2.6.4c.2.2.3.3.4.6,0,.2,0,.4,0,.7s0,.5,0,.7-.2.4-.4.6-.3.3-.6.4c-.2,0-.4,0-.7,0s-.5,0-.7,0-.4-.2-.6-.4c-.2-.2-.3-.3-.4-.6,0-.2,0-.4,0-.7ZM201.2,34.7c0,.2,0,.4,0,.6s.2.4.4.5c0,0,.3.3.5.3.2,0,.4,0,.6,0s.4,0,.6,0c.2,0,.4-.2.5-.3,0,0,.3-.3.3-.5,0-.2,0-.4,0-.6s0-.4,0-.6-.2-.4-.3-.5-.3-.3-.5-.4-.4,0-.6,0-.4,0-.6,0c-.2,0-.4.2-.5.4,0,0-.3.3-.4.5,0,.2,0,.4,0,.6ZM203.4,35.7l-.6-.9h-.4v.9h-.2v-2h.7c.2,0,.4,0,.5,0s.2.2.2.4,0,.3-.2.4c0,0-.2,0-.4,0l.6.9h-.2ZM203.4,34.3c0-.2,0-.3,0-.3,0,0-.2,0-.3,0h-.5v.8h.4c.2,0,.3,0,.4,0,0,0,0-.2,0-.3h0Z"/>
    <path class="st1" d="M27.8,41.2c-.4,0-.8,0-1.3,0-6.4-1-10.4-9.8-8.8-19.7,1.5-9.1,7.2-16,13.2-16s.8,0,1.3,0c3.2.5,5.9,2.8,7.4,6.7,1.6,3.6,2.1,8.2,1.3,12.9-1.4,9.2-7.1,16.1-13.1,16.1ZM30.9,7.5c-5,0-9.9,6.3-11.2,14.3-1.4,8.7,1.8,16.5,7.1,17.3,5.3.9,10.8-5.8,12.1-14.3.7-4.3.3-8.5-1.2-11.9-1.4-3.1-3.4-5.1-6-5.5,0,0-.9,0-.9,0Z"/>
  </g>
</svg>