<?xml version="1.0" encoding="UTF-8"?>
<svg id="Layer_1" xmlns="http://www.w3.org/2000/svg" version="1.1" viewBox="0 0 429.2 50">
  <!-- Generator: Adobe Illustrator 29.0.1, SVG Export Plug-In . SVG Version: 2.1.0 Build 192)  -->
  <defs>
    <style>
      .st0 {
        font-family: GothamBold, 'Gotham Bold';
        font-size: 23.8px;
      }

      .st0, .st1 {
        fill: #fff;
      }

      .st0, .st2 {
        isolation: isolate;
      }
    </style>
  </defs>
  <rect class="st1" x="225.7" y="8" width=".8" height="34"/>
  <g>
    <g class="st2">
      <g class="st2">
        <g class="st2">
          <text class="st0" transform="translate(236 35.9)"><tspan x="0" y="0">PRINT</tspan></text>
        </g>
      </g>
    </g>
    <g class="st2">
      <g class="st2">
        <g class="st2">
          <text class="st0" transform="translate(319.2 35.7)"><tspan x="0" y="0">PORTAL</tspan></text>
        </g>
      </g>
    </g>
  </g>
  <g>
    <g>
      <path class="st1" d="M208.4,23.6c0-1.6,0-3.3.3-3.9.1-.3.5-.4.8-.5h.5c.2-.2.1-.6,0-.7-.7,0-1.2,0-2.1,0s-1.5,0-2.3,0c-.2,0-.2.4,0,.6h.5c.5.1.8.3,1,.5.4.6.4,2.4.4,3.9v3.8c0,.3,0,.4,0,.5-.2-.1-2-2.2-2.8-3.1l-2-2.1c-.7-.7-2.8-3.2-3.2-4.1-.5,0-.9,0-1.4,0s-1.6,0-2.3,0c-.2,0-.2.5,0,.6h.3c.3.1.8.3,1,.5.7.6.6.9.6,2.4v4.7c0,1.6,0,3.3-.3,3.9-.1.3-.5.4-.9.5h-.4c-.2.2-.1.6,0,.7.7,0,1.2,0,2,0s1.5,0,2.2,0c.2,0,.2-.4,0-.6h-.4c-.5-.1-.8-.3-1-.5-.3-.6-.4-2.4-.4-3.9v-3.8c0-1,0-1.3,0-1.3.3.3,1,1,2.2,2.5l4.6,5.2c1.4,1.6,2,2.3,2.3,2.7.2,0,.5,0,.7-.3,0-.5,0-2.9,0-3.5v-4.7ZM188.4,19.1c3.1,0,4.5,3.4,4.5,6.4s-1.8,5.6-4,5.6c-3.4,0-4.5-3.7-4.5-6.4,0-4.2,2.1-5.6,4.1-5.6M188.6,18.3c-4.1,0-7,3-7,7s2.6,6.6,7,6.6,6.9-2.9,6.9-6.8-2.3-6.8-6.9-6.8M175.8,31.9c2.8,0,4.6-1.6,4.6-3.8s-1.4-3.2-2.7-3.9l-1.2-.6c-1.3-.7-1.9-1.6-1.9-2.4s.6-2.1,2.2-2.1,2.4,1.3,2.7,2.3c.2.1.5.1.6,0,0-.9-.2-2.2-.4-2.7-.9-.2-1.7-.4-2.7-.4-2.9,0-4.3,1.6-4.3,3.6s1.3,3,2.8,3.8l.8.5c1.5.8,2,1.7,2,2.8s-.8,2.1-2.3,2.1-3-2.1-3.3-3.1c-.2-.1-.5-.1-.6,0,0,1.2.2,2.6.6,3,.4.2,1.4.8,3.2.8M170.2,18.9c-.2,0-.3,0-.5-.1-.9-.2-2.3-.4-3.4-.4-2,0-4,.6-5.4,1.7-1.5,1.1-2.5,2.9-2.5,5.2s1.2,4.4,2.8,5.4c1.4.9,3.1,1.3,5,1.3s2.6-.3,3.1-.5c.2,0,.5-.1.7-.2.3-.4.8-1.7.9-3,0-.2-.4-.3-.6,0-.5,1.3-1.6,2.9-4.1,2.9s-5.1-2-5.1-6.2,2.5-5.8,5-5.8,3.5,1.6,3.8,2.9c.1.1.5.1.6,0-.2-1.5-.2-2.6-.3-3.1M146.1,26.5c0,2,.4,3.4,1.3,4.2.9.9,2.2,1.3,4,1.3s2.8-.4,3.9-1.5c1-1.1,1.3-2.7,1.3-4.5v-2.3c0-1.6,0-3.3.3-3.9.1-.3.5-.4.9-.5h.4c.2-.2.1-.6,0-.6-.7,0-1.3,0-2.1,0s-1.5,0-2.2,0c-.2,0-.2.4,0,.5h.4c.5.1.8.3,1,.6.4.6.4,2.4.4,3.9v2.5c0,3-1.1,4.9-3.6,4.9s-3.6-2.3-3.6-5v-4.5c0-2.1.2-2.2,1.1-2.3h.4c.1-.2.1-.5,0-.6-.9,0-1.7,0-2.6,0s-1.7,0-2.5,0c-.2,0-.2.4,0,.5h.3c.9.2,1.1.3,1.1,2.3v5ZM136.3,28.8c0,2.1-.2,2.1-1.1,2.2h-.8c-.1.2-.1.6,0,.7,1.3,0,2.2,0,3,0s1.7,0,2.9,0c.2,0,.2-.4,0-.6h-.7c-.9-.2-1.1-.2-1.1-2.3v-8.5c0-.8,0-.9.5-.9h1.1c2.1,0,2.5.4,2.7,1.9.2.1.5,0,.6,0,0-.6,0-2.3.3-3.1,0,0-.1,0-.3,0s-.2,0-.2,0c-.2.5-.5.5-1.5.5h-8c-1.3,0-1.6,0-1.7-.5,0,0-.1,0-.2,0s-.2,0-.2,0c-.1.7-.4,1.9-.8,3,0,.2.5.3.6.1.7-1.6,1.3-1.8,3.1-1.8h1.1c.5,0,.5,0,.5.9v8.5ZM116.9,25.9c-.5,0-.5,0-.3-.6l.8-2.3c.3-.9.5-1.4.6-1.6h0c0,.1.2.5.5,1.6l.8,2.4c.2.5,0,.5-.5.5h-2ZM119.2,26.8c.5,0,.6,0,.8.5l.9,2.7c.3.8.2.9-.5,1h-.4c-.1.2,0,.5,0,.6.7,0,1.6,0,2.4,0s1.7,0,2.6,0c.1,0,.1-.4,0-.6h-.3c-1-.3-1.1-.4-1.6-1.7l-2.8-8.2c-.3-.9-.6-1.8-.9-2.7,0,0-.2-.2-.3-.2s-.7.8-1.4.9c0,.3-.1.8-.4,1.4l-2.7,7c-.4,1.1-.7,1.9-1,2.4-.3.6-.5.8-1.1.9h-.6c-.1.3-.1.6,0,.7.7,0,1.3,0,1.9,0,.8,0,1.5,0,2.1,0,.2,0,.2-.4,0-.6h-.6c-.7-.2-.8-.3-.4-1.4l.8-2.4c.2-.5.2-.5.7-.5h2.6ZM103.3,20.4c0-.9,0-1,1-1,1.7,0,2.7,1.4,2.7,2.9s-.9,2.8-2.8,2.8-.9,0-.9-.7v-4.1ZM101.1,28.8c0,2.1-.2,2.1-1.1,2.3h-.4c-.2.2-.1.5,0,.6.9,0,1.8,0,2.7,0s1.7,0,2.6,0c.2,0,.2-.4,0-.6h-.4c-.9-.2-1.1-.2-1.1-2.3v-2.5c0-.4,0-.4.6-.4s.9,0,1.2.7c.5.8,1,1.8,1.6,2.7,1.2,1.8,2.2,2.6,4.1,2.6s1.1,0,1.3-.1c0,0,0-.3,0-.4-.2,0-.8-.1-1.4-.6-.9-.8-1.9-2.4-3.5-5.1,0-.1-.1-.3,0-.3,1-.4,2.4-1.3,2.4-3.1s-.7-2.3-1.7-2.9c-.9-.5-2.2-.7-3.7-.7s-3.3,0-4.5.2c-.2,0-.2.4,0,.5h.5c.9.2.9.4.9,2.3v7.2ZM90.2,20.4c0-.9,0-1,1-1,1.7,0,2.7,1.4,2.7,2.9s-.9,2.8-2.8,2.8-.9,0-.9-.7v-4.1ZM87.9,28.8c0,2.1-.2,2.1-1.1,2.3h-.4c-.2.2-.1.5,0,.6.9,0,1.8,0,2.7,0s1.7,0,2.6,0c.2,0,.2-.4,0-.6h-.4c-.9-.2-1.1-.2-1.1-2.3v-2.5c0-.4,0-.4.6-.4s.9,0,1.2.7c.5.8,1,1.8,1.6,2.7,1.2,1.8,2.2,2.6,4.1,2.6s1.1,0,1.3-.1c0,0,0-.3,0-.4-.2,0-.8-.1-1.4-.6-.9-.8-1.9-2.4-3.5-5.1,0-.1-.1-.3,0-.3,1-.4,2.4-1.3,2.4-3.1s-.7-2.3-1.7-2.9c-.9-.5-2.2-.7-3.7-.7s-3.3,0-4.5.2c-.2,0-.2.4,0,.5h.5c.9.2.9.4.9,2.3v7.2ZM76.1,28.8c0,2.1-.2,2.1-1.1,2.2h-.7c-.1.2-.1.6,0,.6.9,0,2.1,0,2.9,0h2.2c2.3,0,4,0,4.9,0,.3-.5.7-2,.8-2.8-.1-.2-.5-.3-.6-.1-.7,1.6-1.1,2.1-3.6,2.1-1.7,0-2-.2-2.2-.4-.3-.3-.3-1-.3-2v-2.5c0-.5,0-.5.5-.5h.9c1.7,0,2,0,2.2.9v.8c.3.1.7.1.8,0,0-.6,0-1.3,0-2.1s0-1.4,0-2c0-.2-.5-.2-.6,0v.7c-.3.8-.6.9-2.3.9h-.9c-.5,0-.5,0-.5-.5v-3.3c0-1.1,0-1.2.8-1.2h1.3c.5,0,1.1,0,1.6.2.6.2.9.6,1.2,1.8.2.1.5,0,.6,0-.1-.8-.2-2.4-.3-2.7-.3,0-1.4,0-2.7,0h-3.8c-.9,0-1.8,0-2.5,0-.2,0-.2.4,0,.6h.3c.9.2,1.1.2,1.1,2.3v7.3ZM70.7,21.5c0-2.1.2-2.1,1.1-2.3h.4c.1-.2.1-.5,0-.6-.9,0-1.7,0-2.6,0s-1.8,0-2.7,0c-.2,0-.2.4,0,.6h.4c.9.2,1.1.2,1.1,2.3v7.3c0,2.1-.2,2.1-1.1,2.3h-.4c-.1.2-.1.5,0,.6.9,0,1.8,0,2.7,0s1.7,0,2.6,0c.2,0,.2-.4,0-.6h-.4c-.9-.2-1.1-.2-1.1-2.3v-7.3ZM60.3,31.9c2.8,0,4.6-1.6,4.6-3.8s-1.4-3.2-2.7-3.9l-1.2-.6c-1.3-.7-1.9-1.6-1.9-2.4s.6-2.1,2.2-2.1,2.4,1.3,2.7,2.3c.2.1.5.1.6,0,0-.9-.2-2.2-.4-2.7-.9-.2-1.7-.4-2.7-.4-2.9,0-4.3,1.6-4.3,3.6s1.3,3,2.8,3.8l.8.5c1.5.8,2,1.7,2,2.8s-.8,2.1-2.3,2.1-3-2.1-3.3-3.1c-.2-.1-.5-.1-.6,0,0,1.2.2,2.6.6,3,.4.2,1.4.8,3.2.8"/>
      <path class="st1" d="M212.4,20.5c.7,0,1.4.6,1.4,1.4s-.6,1.4-1.4,1.4-1.4-.6-1.4-1.4.6-1.4,1.4-1.4M212.4,20.2c-1,0-1.8.8-1.8,1.7s.8,1.7,1.8,1.7,1.8-.8,1.8-1.7-.8-1.7-1.8-1.7M212.3,21.4c0,0,0-.1.2-.1s.2.1.2.3,0,.3-.2.3-.1,0-.1,0v-.4ZM211.8,22.3c0,.2,0,.2-.2.3h0s0,.1,0,.2c.1,0,.3,0,.4,0s.3,0,.4,0c0,0,0-.1,0-.1h0c-.2,0-.2,0-.2-.3v-.2s0,0,0,0,.1,0,.1,0c0,.1.1.2.2.4.1.2.3.3.5.3s.1,0,.2,0c0,0,0-.1,0-.1,0,0,0,0-.1,0-.1,0-.2-.3-.4-.5,0,0,0,0,0-.1.1,0,.3-.2.3-.4,0-.4-.4-.5-.7-.5s-.5,0-.8,0c0,0,0,.1,0,.2h0c.1,0,.2,0,.2.3v.8Z"/>
    </g>
    <path class="st1" d="M14.5,44.7h2.9c1.5,0,2.3-1,2.6-2.5v-3.3c0-.2-.2-.3-.4-.4h-2.7c-1.4.2-2.4.9-2.8,2.3v3.6c0,.2.1.3.3.2M20.8,44.7h2.9c1.5,0,2.3-1,2.6-2.5v-3.3c0-.2-.2-.3-.4-.4h-2.7c-1.4.2-2.4.9-2.8,2.3v3.6c0,.2.1.3.3.2M32.5,44.7h-2.9c-1.5,0-2.3-1-2.6-2.5v-3.3c0-.2.2-.3.4-.4h2.7c1.4.2,2.4.9,2.8,2.3v3.6c0,.2-.1.3-.3.2M38.8,44.7h-2.9c-1.5,0-2.3-1-2.6-2.5v-3.3c0-.2.2-.3.4-.4h2.7c1.4.2,2.4.9,2.8,2.3v3.6c0,.2-.1.3-.3.2M45.1,38.1h-2.9c-1.5,0-2.3-1-2.6-2.5v-3.3c0-.2.2-.3.4-.4h2.7c1.4.2,2.4.9,2.8,2.3v3.6c0,.2-.1.3-.3.2M38.8,38.1h-2.9c-1.5,0-2.3-1-2.6-2.5v-3.3c0-.2.2-.3.4-.4h2.7c1.4.2,2.4.9,2.8,2.3v3.6c0,.2-.1.3-.3.2M32.5,38.1h-2.9c-1.5,0-2.3-1-2.6-2.5v-3.3c0-.2.2-.3.4-.4h2.7c1.4.2,2.4.9,2.8,2.3v3.6c0,.2-.1.3-.3.2M20.8,38.1h2.9c1.5,0,2.3-1,2.6-2.5v-3.3c0-.2-.2-.3-.4-.4h-2.7c-1.4.2-2.4.9-2.8,2.3v3.6c0,.2.1.3.3.2M14.5,38.1h2.9c1.5,0,2.3-1,2.6-2.5v-3.3c0-.2-.2-.3-.4-.4h-2.7c-1.4.2-2.4.9-2.8,2.3v3.6c0,.2.1.3.3.2M8.2,38.1h2.9c1.5,0,2.3-1,2.6-2.5v-3.3c0-.2-.2-.3-.4-.4h-2.7c-1.4.2-2.4.9-2.8,2.3v3.6c0,.2.1.3.3.2M8.2,31.3h2.9c1.5,0,2.3-1,2.6-2.5v-3.3c0-.2-.2-.3-.4-.4h-2.7c-1.4.1-2.4.9-2.8,2.3v3.6c0,.2.1.3.3.2M14.5,31.3h2.9c1.5,0,2.3-1,2.6-2.5v-3.3c0-.2-.2-.3-.4-.4h-2.7c-1.4.1-2.4.9-2.8,2.3v3.6c0,.2.1.3.3.2M20.8,31.3h2.9c1.5,0,2.3-1,2.6-2.5v-3.3c0-.2-.2-.3-.4-.4h-2.7c-1.4.1-2.4.9-2.8,2.3v3.6c0,.2.1.3.3.2M32.5,31.3h-2.9c-1.5,0-2.3-1-2.6-2.5v-3.3c0-.2.2-.3.4-.4h2.7c1.4.1,2.4.9,2.8,2.3v3.6c0,.2-.1.3-.3.2M38.8,31.3h-2.9c-1.5,0-2.3-1-2.6-2.5v-3.3c0-.2.2-.3.4-.4h2.7c1.4.1,2.4.9,2.8,2.3v3.6c0,.2-.1.3-.3.2M45.1,31.3h-2.9c-1.5,0-2.3-1-2.6-2.5v-3.3c0-.2.2-.3.4-.4h2.7c1.4.1,2.4.9,2.8,2.3v3.6c0,.2-.1.3-.3.2M45.1,18.5h-2.9c-1.5,0-2.3,1-2.6,2.5v3.3c0,.2.2.3.4.4h2.7c1.4-.2,2.4-.9,2.8-2.3v-3.6c0-.2-.1-.3-.3-.3M38.8,18.5h-2.9c-1.5,0-2.3,1-2.6,2.5v3.3c0,.2.2.3.4.4h2.7c1.4-.2,2.4-.9,2.8-2.3v-3.6c0-.2-.1-.3-.3-.3M32.5,18.5h-2.9c-1.5,0-2.3,1-2.6,2.5v3.3c0,.2.2.3.4.4h2.7c1.4-.2,2.4-.9,2.8-2.3v-3.6c0-.2-.1-.3-.3-.3M20.8,18.5h2.9c1.5,0,2.3,1,2.6,2.5v3.3c0,.2-.2.3-.4.4h-2.7c-1.4-.2-2.4-.9-2.8-2.3v-3.6c0-.2.1-.3.3-.3M14.5,18.5h2.9c1.5,0,2.3,1,2.6,2.5v3.3c0,.2-.2.3-.4.4h-2.7c-1.4-.2-2.4-.9-2.8-2.3v-3.6c0-.2.1-.3.3-.3M8.2,18.5h2.9c1.5,0,2.3,1,2.6,2.5v3.3c0,.2-.2.3-.4.4h-2.7c-1.4-.2-2.4-.9-2.8-2.3v-3.6c0-.2.1-.3.3-.3M8.2,12h2.9c1.5,0,2.3,1,2.6,2.5v3.3c0,.2-.2.3-.4.4h-2.7c-1.4-.2-2.4-.9-2.8-2.3v-3.6c0-.2.1-.3.3-.3M14.5,12h2.9c1.5,0,2.3,1,2.6,2.5v3.3c0,.2-.2.3-.4.4h-2.7c-1.4-.2-2.4-.9-2.8-2.3v-3.6c0-.2.1-.3.3-.3M20.8,12h2.9c1.5,0,2.3,1,2.6,2.5v3.3c0,.2-.2.3-.4.4h-2.7c-1.4-.2-2.4-.9-2.8-2.3v-3.6c0-.2.1-.3.3-.3M32.5,12h-2.9c-1.5,0-2.3,1-2.6,2.5v3.3c0,.2.2.3.4.4h2.7c1.4-.2,2.4-.9,2.8-2.3v-3.6c0-.2-.1-.3-.3-.3M38.8,12h-2.9c-1.5,0-2.3,1-2.6,2.5v3.3c0,.2.2.3.4.4h2.7c1.4-.2,2.4-.9,2.8-2.3v-3.6c0-.2-.1-.3-.3-.3M45.1,12h-2.9c-1.5,0-2.3,1-2.6,2.5v3.3c0,.2.2.3.4.4h2.7c1.4-.2,2.4-.9,2.8-2.3v-3.6c0-.2-.1-.3-.3-.3M38.8,5.4h-2.9c-1.5,0-2.3,1-2.6,2.5v3.3c0,.2.2.3.4.4h2.7c1.4-.2,2.4-.9,2.8-2.3v-3.6c0-.2-.1-.3-.3-.2M32.5,5.4h-2.9c-1.5,0-2.3,1-2.6,2.5v3.3c0,.2.2.3.4.4h2.7c1.4-.2,2.4-.9,2.8-2.3v-3.6c0-.2-.1-.3-.3-.2M20.8,5.4h2.9c1.5,0,2.3,1,2.6,2.5v3.3c0,.2-.2.3-.4.4h-2.7c-1.4-.2-2.4-.9-2.8-2.3v-3.6c0-.2.1-.3.3-.2M14.5,5.4h2.9c1.5,0,2.3,1,2.6,2.5v3.3c0,.2-.2.3-.4.4h-2.7c-1.4-.2-2.4-.9-2.8-2.3v-3.6c0-.2.1-.3.3-.2"/>
  </g>
</svg>