<?xml version="1.0" encoding="UTF-8"?>
<svg id="Layer_1" data-name="Layer 1" xmlns="http://www.w3.org/2000/svg" viewBox="0 0 429.2 50">
  <defs>
    <style>
      .cls-1 {
        fill: #fff;
      }

      .cls-2 {
        isolation: isolate;
      }

      .cls-3 {
        fill: #212203;
      }
    </style>
  </defs>
  <rect class="cls-3" x="186.37" y="8" width=".8" height="34"/>
  <g>
    <g class="cls-2">
      <g class="cls-2">
        <g class="cls-2">
          <g class="cls-2">
            <g class="cls-2">
              <g class="cls-2">
                <path class="cls-1" d="M198.67,16.8h6.8c1,0,1.9.1,2.7.4s1.5.7,2,1.2,1,1.1,1.3,1.8c.3.7.4,1.5.4,2.3h0c0,1-.2,1.9-.5,2.6s-.8,1.3-1.4,1.8c-.6.5-1.3.9-2.1,1.1s-1.7.4-2.6.4h-2.8v5h-3.7v-16.7l-.1.1h0ZM205.27,25.2c.9,0,1.6-.2,2.1-.7s.8-1.1.8-1.8h0c0-.9-.3-1.5-.8-1.9s-1.3-.6-2.2-.6h-2.8v5.1h2.9v-.1Z"/>
                <path class="cls-1" d="M214.57,16.8h7.6c2.1,0,3.7.6,4.9,1.7,1,1,1.4,2.2,1.4,3.8h0c0,1.4-.3,2.5-1,3.3s-1.5,1.5-2.6,1.9l4.1,6h-4.3l-3.6-5.3h-2.9v5.3h-3.7v-16.7h.1ZM221.97,24.9c.9,0,1.6-.2,2.1-.6s.7-1,.7-1.7h0c0-.8-.3-1.4-.8-1.8s-1.2-.6-2.1-.6h-3.6v4.8h3.7v-.1h0Z"/>
                <path class="cls-1" d="M231.97,16.8h3.7v16.7h-3.7v-16.7Z"/>
                <path class="cls-1" d="M239.77,16.8h3.4l7.8,10.3v-10.3h3.6v16.7h-3.1l-8.1-10.6v10.6h-3.6v-16.7h0Z"/>
                <path class="cls-1" d="M262.47,20.2h-5.1v-3.4h13.8v3.4h-5.1v13.3h-3.7v-13.3h.1Z"/>
              </g>
            </g>
          </g>
        </g>
      </g>
    </g>
    <g class="cls-2">
      <g class="cls-2">
        <g class="cls-2">
          <g class="cls-2">
            <g class="cls-2">
              <g class="cls-2">
                <path class="cls-1" d="M281.87,16.6h6.8c1,0,1.9.1,2.7.4s1.5.7,2,1.2,1,1.1,1.3,1.8c.3.7.4,1.5.4,2.3h0c0,1-.2,1.9-.5,2.6s-.8,1.3-1.4,1.8-1.3.9-2.1,1.1c-.8.2-1.7.4-2.6.4h-2.8v5h-3.7v-16.7l-.1.1h0ZM288.47,25c.9,0,1.6-.2,2.1-.7s.8-1.1.8-1.8h0c0-.9-.3-1.5-.8-1.9s-1.3-.6-2.2-.6h-2.8v5.1h2.9v-.1Z"/>
                <path class="cls-1" d="M305.87,33.6c-1.3,0-2.5-.2-3.5-.7s-2-1.1-2.8-1.8c-.8-.8-1.4-1.7-1.8-2.7s-.7-2.2-.7-3.3h0c0-1.2.2-2.4.7-3.4.4-1,1.1-2,1.8-2.7.8-.8,1.7-1.4,2.8-1.9s2.3-.7,3.6-.7,2.5.2,3.5.7,2,1.1,2.8,1.8,1.4,1.7,1.8,2.7.7,2.2.7,3.3h0c0,1.2-.2,2.4-.7,3.4-.4,1-1.1,2-1.8,2.7-.8.8-1.7,1.4-2.8,1.9-1.1.5-2.3.7-3.6.7ZM305.87,30.2c.7,0,1.4-.1,2-.4.6-.3,1.1-.6,1.6-1.1s.8-1,1-1.7c.2-.6.4-1.3.4-2h0c0-.8-.1-1.4-.4-2.1s-.6-1.2-1-1.7c-.5-.5-1-.9-1.6-1.1-.6-.3-1.3-.4-2-.4s-1.4.1-2,.4-1.1.6-1.6,1.1c-.4.5-.8,1-1,1.7s-.4,1.3-.4,2h0c0,.8.1,1.4.4,2.1s.6,1.2,1,1.7c.5.5,1,.9,1.6,1.1.6.3,1.3.4,2,.4Z"/>
                <path class="cls-1" d="M317.97,16.6h7.6c2.1,0,3.7.6,4.9,1.7,1,1,1.4,2.2,1.4,3.8h0c0,1.4-.3,2.5-1,3.3s-1.5,1.5-2.6,1.9l4.1,6h-4.3l-3.6-5.3h-2.9v5.3h-3.7v-16.7s.1,0,.1,0ZM325.37,24.7c.9,0,1.6-.2,2.1-.6s.7-1,.7-1.7h0c0-.8-.3-1.4-.8-1.8s-1.2-.6-2.1-.6h-3.6v4.8h3.7v-.1h0Z"/>
                <path class="cls-1" d="M339.07,20h-5.1v-3.4h13.8v3.4h-5.1v13.3h-3.7v-13.3h.1Z"/>
                <path class="cls-1" d="M356.37,16.5h3.4l7.1,16.8h-3.8l-1.5-3.7h-7l-1.5,3.7h-3.7l7.1-16.8s-.1,0-.1,0ZM360.17,26.3l-2.2-5.4-2.2,5.4h4.4Z"/>
                <path class="cls-1" d="M369.47,16.6h3.7v13.4h8.3v3.3h-12v-16.7Z"/>
              </g>
            </g>
          </g>
        </g>
      </g>
    </g>
  </g>
  <g>
    <g>
      <path class="cls-1" d="M104.37,30.5v2.54h8.45c-2.78,4.84-7.99,8.13-13.96,8.13-8.92,0-16.18-7.27-16.18-16.16,0-1.93.36-3.78.99-5.51h4.62v16.07h5.08v-10.4c0-3.14,2.54-5.67,5.67-5.67h3.3l-3.94-5.08h-11.74c2.95-3.43,7.32-5.59,12.2-5.59,3.24,0,6.24.98,8.77,2.63h4.07c-4.09-3.9-9.91-5.99-16.19-4.87-7.52,1.33-13.61,7.32-15.03,14.83-2.24,11.85,6.89,22.29,18.38,22.29,8.38,0,15.49-5.58,17.83-13.21h-12.32Z"/>
      <path class="cls-1" d="M110.98,14.42h-9.61l3.86,5.08h5.53c.82,0,1.49.67,1.49,1.49s-.67,1.49-1.49,1.49h-10.84c-1.99,0-3.6,1.61-3.6,3.6v9.51h5.08v-8.03h9.58c3.63,0,6.57-2.94,6.57-6.57s-2.94-6.57-6.57-6.57h0Z"/>
    </g>
    <g>
      <g>
        <path class="cls-1" d="M123.92,11.27h-1.66v-1.4h4.91v1.4h-1.66v6.65h-1.59v-6.65h0Z"/>
        <path class="cls-1" d="M129.19,9.87h1.59v3.27h1.71v-3.27h1.59v8.05h-1.59v-3.38h-1.71v3.38h-1.59v-8.05Z"/>
        <path class="cls-1" d="M136.47,9.87h4.33v1.4h-2.74v1.86h2.18v1.4h-2.18v1.98h2.74v1.4h-4.33v-8.05h0Z"/>
        <path class="cls-1" d="M142.92,9.87h2.35c1.59,0,2.35.66,2.35,2.05v.31c0,.85-.33,1.38-1.03,1.66v.04c.73.2,1.05.79,1.05,1.94v.94c0,.45.02.77.18,1.12h-1.63c-.09-.22-.14-.33-.14-1.13v-1.05c0-.77-.26-1.05-1-1.05h-.55v3.22h-1.59v-8.05h0ZM145.09,13.3c.66,0,.94-.28.94-.9v-.31c0-.56-.24-.82-.77-.82h-.75v2.02h.58,0Z"/>
        <path class="cls-1" d="M153.16,16.46h-1.79l-.26,1.46h-1.51l1.65-8.05h2.15l1.65,8.05h-1.63l-.26-1.46h0ZM152.91,15.08l-.65-3.6-.64,3.6h1.29Z"/>
        <path class="cls-1" d="M157.03,9.87h2.34c1.6,0,2.37.71,2.37,2.22v.48c0,1.52-.76,2.23-2.37,2.23h-.75v3.12h-1.59v-8.05ZM159.37,13.4c.55,0,.77-.24.77-.83v-.48c0-.57-.23-.82-.77-.82h-.75v2.13s.75,0,.75,0Z"/>
        <path class="cls-1" d="M165.17,14.59l-1.92-4.73h1.72l1.07,2.86,1.08-2.86h1.57l-1.92,4.73v3.33h-1.59v-3.33h-.01Z"/>
        <path class="cls-1" d="M122.62,21.63h2.34c1.6,0,2.37.71,2.37,2.22v.48c0,1.52-.76,2.23-2.37,2.23h-.75v3.12h-1.59v-8.05h0ZM124.96,25.16c.55,0,.77-.24.77-.83v-.48c0-.57-.23-.82-.77-.82h-.75v2.13h.75Z"/>
        <path class="cls-1" d="M132.09,28.22h-1.79l-.26,1.46h-1.51l1.65-8.05h2.15l1.65,8.05h-1.63l-.26-1.46h0ZM131.84,26.84l-.65-3.6-.64,3.6h1.29Z"/>
        <path class="cls-1" d="M135.97,21.63h2.35c1.59,0,2.35.66,2.35,2.05v.31c0,.85-.33,1.38-1.03,1.66v.04c.73.2,1.05.79,1.05,1.94v.94c0,.45.02.77.18,1.12h-1.63c-.09-.22-.14-.33-.14-1.13v-1.05c0-.77-.26-1.05-1-1.05h-.55v3.22h-1.59v-8.05h0ZM138.14,25.06c.66,0,.94-.28.94-.9v-.31c0-.56-.24-.82-.77-.82h-.75v2.02h.58,0Z"/>
        <path class="cls-1" d="M144.25,23.03h-1.66v-1.4h4.91v1.4h-1.66v6.65h-1.59v-6.65h0Z"/>
        <path class="cls-1" d="M149.53,21.63h1.97l1.59,4.66v-4.66h1.42v8.05h-1.6l-1.96-5.73v5.73h-1.42v-8.05h0Z"/>
        <path class="cls-1" d="M156.9,21.63h4.33v1.4h-2.74v1.86h2.18v1.4h-2.18v1.98h2.74v1.4h-4.33v-8.05h0Z"/>
        <path class="cls-1" d="M163.34,21.63h2.35c1.59,0,2.35.66,2.35,2.05v.31c0,.85-.33,1.38-1.03,1.66v.04c.73.2,1.05.79,1.05,1.94v.94c0,.45.02.77.18,1.12h-1.63c-.09-.22-.14-.33-.14-1.13v-1.05c0-.77-.26-1.05-1-1.05h-.55v3.22h-1.59v-8.05h0ZM165.51,25.06c.66,0,.94-.28.94-.9v-.31c0-.56-.24-.82-.77-.82h-.75v2.02h.58,0Z"/>
        <path class="cls-1" d="M170.11,27.59v-.36h1.5v.36c0,.5.25.85.82.85.5,0,.83-.31.83-.85,0-.69-.27-.86-1.35-1.39-1.36-.67-1.76-1.36-1.76-2.48,0-1.31.82-2.2,2.35-2.2s2.3.89,2.3,2.22v.23h-1.5v-.22c0-.51-.23-.87-.78-.87-.49,0-.77.32-.77.82,0,.62.31.81,1.38,1.32,1.4.68,1.74,1.39,1.74,2.54,0,1.36-.84,2.24-2.4,2.24s-2.34-.89-2.34-2.21h-.02Z"/>
      </g>
      <g>
        <path class="cls-1" d="M122.47,38.22v-2.93c0-1.09.62-1.72,1.72-1.72s1.73.63,1.73,1.72v.31h-.66v-.35c0-.7-.38-1.05-1.05-1.05s-1.04.35-1.04,1.05v3c0,.7.37,1.05,1.04,1.05s1.05-.35,1.05-1.05v-1.12h-.97v-.65h1.63v1.75c0,1.08-.62,1.7-1.72,1.7s-1.73-.62-1.73-1.7h0Z"/>
        <path class="cls-1" d="M128.7,33.66h1.65c1.17,0,1.73.49,1.73,1.53v.16c0,.78-.29,1.23-.95,1.4h0c.66.15.95.59.95,1.46v.78c0,.3.02.61.11.85h-.72c-.06-.2-.1-.4-.1-.85v-.81c0-.77-.31-1.06-1.14-1.06h-.83v2.72h-.71v-6.17h0ZM130.22,36.48c.8,0,1.15-.32,1.15-1.02v-.16c0-.71-.3-1.01-1.03-1.01h-.93v2.2h.81,0Z"/>
        <path class="cls-1" d="M134.81,38.2v-2.91c0-1.11.62-1.72,1.74-1.72s1.74.61,1.74,1.72v2.91c0,1.11-.62,1.72-1.74,1.72s-1.74-.61-1.74-1.72ZM137.6,38.24v-3c0-.7-.38-1.05-1.05-1.05s-1.04.35-1.04,1.05v3c0,.7.37,1.05,1.04,1.05s1.05-.35,1.05-1.05Z"/>
        <path class="cls-1" d="M141.06,38.2v-4.54h.71v4.59c0,.7.36,1.05,1.03,1.05s1.02-.34,1.02-1.05v-4.59h.68v4.54c0,1.09-.6,1.72-1.72,1.72s-1.72-.63-1.72-1.72h0Z"/>
        <path class="cls-1" d="M147.34,33.66h1.64c1.19,0,1.74.53,1.74,1.64v.26c0,1.11-.56,1.64-1.74,1.64h-.93v2.64h-.71v-6.17h0ZM148.98,36.57c.73,0,1.04-.28,1.04-1.01v-.26c0-.72-.3-1.01-1.04-1.01h-.93v2.28s.93,0,.93,0Z"/>
      </g>
    </g>
  </g>
</svg>