<?xml version="1.0" encoding="UTF-8"?>
<svg id="Layer_1" data-name="Layer 1" xmlns="http://www.w3.org/2000/svg" viewBox="0 0 356.6 71.2">
  <defs>
    <style>
      .cls-1 {
        fill: #deba61;
      }

      .cls-2 {
        fill: #212221;
      }

      .cls-3 {
        fill: #c98b18;
      }
    </style>
  </defs>
  <rect class="cls-3" x="177.56" y="7.05" width="1.49" height="57.09"/>
  <g>
    <g>
      <path class="cls-2" d="M229.22,24.16c-.27.57-.64,1.04-1.12,1.42s-1.03.67-1.67.86c-.63.19-1.32.29-2.04.29h-2.16v3.88h-2.85v-12.93h5.28c.77,0,1.47.11,2.08.32s1.13.52,1.55.92c.42.4.75.86.98,1.41s.34,1.15.34,1.82v.03c0,.75-.14,1.4-.4,1.98h0ZM226.74,22.2c0-.64-.21-1.13-.62-1.46s-.98-.5-1.69-.5h-2.2v3.95h2.26c.72,0,1.27-.19,1.67-.56s.59-.84.59-1.39v-.03h0s0,0,0,0Z"/>
      <path class="cls-2" d="M248.82,30.6l-2.77-4.13h-2.23v4.13h-2.85v-12.93h5.91c1.54,0,2.74.37,3.59,1.13s1.29,1.8,1.29,3.14v.03c0,1.05-.25,1.9-.77,2.56s-1.17,1.15-2,1.45l3.16,4.62h-3.32s0,0,0,0ZM248.87,22.08c0-.62-.2-1.08-.59-1.39s-.94-.46-1.64-.46h-2.83v3.71h2.88c.7,0,1.24-.17,1.61-.5s.56-.77.56-1.33v-.03s0,0,0,0Z"/>
      <path class="cls-2" d="M263.69,30.6v-12.93h2.85v12.93h-2.85Z"/>
      <path class="cls-2" d="M288.07,30.6l-6.26-8.22v8.22h-2.81v-12.93h2.62l6.06,7.96v-7.96h2.81v12.93h-2.42,0Z"/>
      <path class="cls-2" d="M308.69,20.3v10.31h-2.85v-10.31h-3.94v-2.62h10.72v2.62h-3.93Z"/>
    </g>
    <g>
      <path class="cls-2" d="M214.13,47.01c-.27.57-.64,1.04-1.12,1.42s-1.03.67-1.66.86c-.63.19-1.32.29-2.04.29h-2.16v3.88h-2.85v-12.93h5.28c.77,0,1.47.11,2.08.32s1.13.52,1.55.92c.42.4.75.86.98,1.41.23.55.34,1.16.34,1.82v.03c0,.75-.14,1.4-.4,1.98h0ZM211.65,45.06c0-.64-.21-1.13-.62-1.46-.41-.33-.98-.5-1.69-.5h-2.2v3.95h2.26c.72,0,1.27-.19,1.67-.56s.59-.84.59-1.39v-.03h0s0,0,0,0Z"/>
      <path class="cls-2" d="M238.53,49.59c-.34.8-.82,1.52-1.43,2.12-.61.61-1.34,1.09-2.18,1.44-.85.35-1.77.52-2.76.52s-1.92-.17-2.75-.52c-.84-.35-1.56-.83-2.17-1.42-.61-.6-1.09-1.3-1.42-2.1s-.51-1.67-.51-2.6v-.03c0-.92.17-1.79.52-2.6.34-.8.82-1.52,1.43-2.12.61-.61,1.34-1.09,2.18-1.44.85-.35,1.77-.53,2.76-.53s1.92.17,2.75.53,1.56.83,2.17,1.42,1.08,1.3,1.42,2.1c.34.8.51,1.67.51,2.6v.03c0,.92-.17,1.78-.52,2.6h0ZM236.08,46.99c0-.55-.09-1.08-.29-1.57-.19-.49-.46-.92-.81-1.29s-.77-.66-1.25-.88c-.48-.22-1-.32-1.57-.32s-1.11.1-1.58.31c-.47.21-.88.5-1.22.87s-.6.8-.79,1.29-.29,1.01-.29,1.56v.03c0,.55.09,1.08.29,1.57.19.49.46.92.81,1.29s.76.66,1.23.88,1,.32,1.58.32,1.09-.1,1.57-.31.89-.5,1.23-.87.6-.8.79-1.29.29-1.01.29-1.56v-.03h0Z"/>
      <path class="cls-2" d="M258.67,53.46l-2.77-4.13h-2.23v4.13h-2.85v-12.93h5.91c1.54,0,2.74.37,3.59,1.13.86.75,1.29,1.8,1.29,3.14v.03c0,1.05-.25,1.9-.77,2.56-.52.66-1.17,1.15-2,1.45l3.16,4.62h-3.32s0,.01,0,.01h0ZM258.73,44.96c0-.62-.2-1.08-.59-1.39s-.94-.46-1.64-.46h-2.83v3.71h2.88c.7,0,1.24-.17,1.62-.5.37-.33.56-.77.56-1.33v-.03h0Z"/>
      <path class="cls-2" d="M279.27,43.15v10.31h-2.85v-10.31h-3.93v-2.62h10.72v2.62h-3.94Z"/>
      <path class="cls-2" d="M304.25,53.46l-1.18-2.9h-5.47l-1.18,2.9h-2.9l5.55-13.03h2.62l5.55,13.03h-2.98ZM300.33,43.85l-1.72,4.19h3.44l-1.72-4.19h0Z"/>
      <path class="cls-2" d="M318.45,53.46v-12.93h2.85v10.36h6.44v2.57h-9.29Z"/>
    </g>
  </g>
  <g>
    <g>
      <path class="cls-1" d="M60.44,42.77v3.31h11.01c-3.63,6.31-10.42,10.6-18.19,10.6-11.62,0-21.09-9.47-21.09-21.06,0-2.52.46-4.93,1.29-7.18h6.02v20.95h6.62v-13.55c0-4.09,3.31-7.4,7.4-7.4h4.3l-5.13-6.62h-15.3c3.84-4.47,9.54-7.29,15.89-7.29,4.22,0,8.14,1.27,11.43,3.43h5.3c-5.34-5.08-12.92-7.81-21.11-6.36-9.8,1.74-17.73,9.54-19.59,19.33-2.92,15.44,8.98,29.06,23.96,29.06,10.92,0,20.19-7.27,23.25-17.21h-16.06Z"/>
      <path class="cls-1" d="M69.05,21.81h-12.53l5.03,6.62h7.21c1.07,0,1.94.87,1.94,1.94s-.87,1.94-1.94,1.94h-14.13c-2.59,0-4.69,2.1-4.69,4.69v12.39h6.62v-10.46h12.49c4.73,0,8.56-3.83,8.56-8.56s-3.83-8.56-8.56-8.56h0Z"/>
    </g>
    <g>
      <g>
        <path class="cls-2" d="M85.92,17.7h-2.16v-1.83h6.4v1.83h-2.16v8.67h-2.07v-8.67h0Z"/>
        <path class="cls-2" d="M92.79,15.87h2.07v4.26h2.22v-4.26h2.07v10.49h-2.07v-4.41h-2.22v4.41h-2.07v-10.49Z"/>
        <path class="cls-2" d="M102.27,15.87h5.65v1.83h-3.57v2.43h2.85v1.83h-2.85v2.58h3.57v1.83h-5.65v-10.49h0Z"/>
        <path class="cls-2" d="M110.68,15.87h3.07c2.07,0,3.07.86,3.07,2.67v.4c0,1.11-.43,1.8-1.35,2.16v.05c.95.26,1.37,1.03,1.37,2.53v1.23c0,.59.03,1,.24,1.46h-2.12c-.12-.29-.18-.43-.18-1.47v-1.37c0-1-.34-1.37-1.3-1.37h-.71v4.2h-2.07v-10.49h0ZM113.51,20.34c.86,0,1.23-.36,1.23-1.17v-.4c0-.74-.31-1.06-1.01-1.06h-.98v2.64h.76Z"/>
        <path class="cls-2" d="M124.02,24.46h-2.33l-.34,1.9h-1.97l2.15-10.49h2.8l2.15,10.49h-2.12l-.34-1.9h0,0ZM123.69,22.66l-.85-4.69-.83,4.69h1.68Z"/>
        <path class="cls-2" d="M129.08,15.87h3.05c2.09,0,3.08.93,3.08,2.89v.63c0,1.98-.99,2.91-3.08,2.91h-.98v4.07h-2.07v-10.49h0ZM132.13,20.47c.71,0,1.01-.31,1.01-1.08v-.63c0-.75-.3-1.06-1.01-1.06h-.98v2.78s.98,0,.98,0Z"/>
        <path class="cls-2" d="M139.69,22.03l-2.51-6.16h2.24l1.4,3.73,1.41-3.73h2.05l-2.51,6.16v4.33h-2.07v-4.33h0Z"/>
        <path class="cls-2" d="M84.22,31.2h3.05c2.09,0,3.08.93,3.08,2.89v.63c0,1.98-.99,2.91-3.08,2.91h-.98v4.07h-2.07v-10.49h0ZM87.27,35.8c.71,0,1.01-.31,1.01-1.08v-.63c0-.75-.3-1.06-1.01-1.06h-.98v2.78s.98,0,.98,0Z"/>
        <path class="cls-2" d="M96.57,39.79h-2.33l-.34,1.9h-1.97l2.15-10.49h2.8l2.15,10.49h-2.12l-.34-1.9h0,0ZM96.24,37.99l-.85-4.69-.83,4.69h1.68Z"/>
        <path class="cls-2" d="M101.62,31.2h3.07c2.07,0,3.07.86,3.07,2.67v.4c0,1.11-.43,1.8-1.35,2.16v.05c.95.26,1.37,1.03,1.37,2.53v1.23c0,.59.03,1,.24,1.46h-2.12c-.12-.29-.18-.43-.18-1.47v-1.37c0-1-.34-1.37-1.3-1.37h-.71v4.2h-2.07v-10.49h0ZM104.45,35.67c.86,0,1.23-.36,1.23-1.17v-.4c0-.74-.31-1.06-1.01-1.06h-.98v2.64h.76Z"/>
        <path class="cls-2" d="M112.41,33.03h-2.16v-1.83h6.4v1.83h-2.16v8.67h-2.07v-8.67h0Z"/>
        <path class="cls-2" d="M119.29,31.2h2.56l2.07,6.07v-6.07h1.85v10.49h-2.09l-2.55-7.47v7.47h-1.85v-10.49h0Z"/>
        <path class="cls-2" d="M128.9,31.2h5.65v1.83h-3.57v2.43h2.85v1.83h-2.85v2.58h3.57v1.83h-5.65v-10.49h0Z"/>
        <path class="cls-2" d="M137.3,31.2h3.07c2.07,0,3.07.86,3.07,2.67v.4c0,1.11-.43,1.8-1.35,2.16v.05c.95.26,1.37,1.03,1.37,2.53v1.23c0,.59.03,1,.24,1.46h-2.12c-.12-.29-.18-.43-.18-1.47v-1.37c0-1-.34-1.37-1.3-1.37h-.71v4.2h-2.07v-10.49h0ZM140.13,35.67c.86,0,1.23-.36,1.23-1.17v-.4c0-.74-.31-1.06-1.01-1.06h-.98v2.64h.76,0Z"/>
        <path class="cls-2" d="M146.12,38.97v-.46h1.96v.46c0,.65.33,1.11,1.07,1.11.65,0,1.08-.4,1.08-1.11,0-.9-.36-1.12-1.76-1.81-1.78-.87-2.3-1.77-2.3-3.24,0-1.71,1.07-2.86,3.07-2.86s3,1.15,3,2.89v.3h-1.96v-.29c0-.66-.3-1.14-1.02-1.14-.63,0-1.01.42-1.01,1.06,0,.81.4,1.05,1.79,1.72,1.82.89,2.27,1.81,2.27,3.32,0,1.77-1.1,2.92-3.13,2.92s-3.05-1.15-3.05-2.88h0Z"/>
      </g>
      <g>
        <path class="cls-2" d="M84.03,52.82v-3.81c0-1.43.8-2.24,2.24-2.24s2.26.82,2.26,2.24v.4h-.86v-.46c0-.91-.49-1.37-1.36-1.37s-1.35.46-1.35,1.37v3.91c0,.91.48,1.37,1.35,1.37s1.36-.46,1.36-1.37v-1.46h-1.26v-.85h2.12v2.28c0,1.41-.8,2.22-2.24,2.22s-2.26-.8-2.26-2.22h0Z"/>
        <path class="cls-2" d="M92.14,46.88h2.15c1.52,0,2.25.64,2.25,1.99v.21c0,1.02-.37,1.6-1.24,1.83h0c.86.2,1.24.77,1.24,1.91v1.01c0,.39.02.79.15,1.1h-.93c-.08-.26-.12-.52-.12-1.12v-1.06c0-1-.41-1.38-1.49-1.38h-1.08v3.55h-.92v-8.05h0ZM94.12,50.55c1.05,0,1.5-.41,1.5-1.33v-.21c0-.93-.4-1.32-1.34-1.32h-1.21v2.86h1.06Z"/>
        <path class="cls-2" d="M100.11,52.8v-3.79c0-1.45.8-2.24,2.27-2.24s2.27.79,2.27,2.24v3.79c0,1.45-.8,2.24-2.27,2.24s-2.27-.79-2.27-2.24ZM103.74,52.86v-3.91c0-.91-.49-1.37-1.36-1.37s-1.35.46-1.35,1.37v3.91c0,.91.48,1.37,1.35,1.37s1.36-.46,1.36-1.37Z"/>
        <path class="cls-2" d="M108.25,52.8v-5.92h.92v5.98c0,.92.47,1.37,1.34,1.37s1.33-.45,1.33-1.37v-5.98h.89v5.92c0,1.43-.78,2.24-2.24,2.24s-2.24-.83-2.24-2.24h0,0Z"/>
        <path class="cls-2" d="M116.44,46.88h2.14c1.55,0,2.27.69,2.27,2.14v.33c0,1.45-.73,2.14-2.27,2.14h-1.21v3.44h-.92v-8.05h0ZM118.58,50.67c.95,0,1.35-.37,1.35-1.32v-.33c0-.94-.4-1.32-1.35-1.32h-1.21v2.98h1.21Z"/>
      </g>
    </g>
  </g>
</svg>