<?xml version="1.0" encoding="UTF-8"?>
<svg id="tierraantigua-header-white" xmlns="http://www.w3.org/2000/svg" viewBox="0 0 429.2 50">
  <defs>
    <style>
      .cls-1 {
        fill: #fff;
      }

      .cls-2 {
        isolation: isolate;
      }
    </style>
  </defs>
  <rect class="cls-1" x="186.37" y="8" width=".8" height="34"/>
  <g>
    <g class="cls-2">
      <g class="cls-2">
        <g class="cls-2">
          <g class="cls-2">
            <g class="cls-2">
              <g class="cls-2">
                <path class="cls-1" d="M198.67,19.2h6.8c1,0,1.9.1,2.7.4s1.5.7,2,1.2,1,1.1,1.3,1.8c.3.7.4,1.5.4,2.3h0c0,1-.2,1.9-.5,2.6s-.8,1.3-1.4,1.8c-.6.5-1.3.9-2.1,1.1s-1.7.4-2.6.4h-2.8v5h-3.7v-16.7l-.1.1h0ZM205.27,27.6c.9,0,1.6-.2,2.1-.7s.8-1.1.8-1.8h0c0-.9-.3-1.5-.8-1.9s-1.3-.6-2.2-.6h-2.8v5.1h2.9v-.1Z"/>
                <path class="cls-1" d="M214.57,19.2h7.6c2.1,0,3.7.6,4.9,1.7,1,1,1.4,2.2,1.4,3.8h0c0,1.4-.3,2.5-1,3.3s-1.5,1.5-2.6,1.9l4.1,6h-4.3l-3.6-5.3h-2.9v5.3h-3.7v-16.7h.1ZM221.97,27.3c.9,0,1.6-.2,2.1-.6s.7-1,.7-1.7h0c0-.8-.3-1.4-.8-1.8s-1.2-.6-2.1-.6h-3.6v4.8h3.7v-.1h0Z"/>
                <path class="cls-1" d="M231.97,19.2h3.7v16.7h-3.7v-16.7Z"/>
                <path class="cls-1" d="M239.77,19.2h3.4l7.8,10.3v-10.3h3.6v16.7h-3.1l-8.1-10.6v10.6h-3.6v-16.7h0Z"/>
                <path class="cls-1" d="M262.47,22.6h-5.1v-3.4h13.8v3.4h-5.1v13.3h-3.7v-13.3h.1Z"/>
              </g>
            </g>
          </g>
        </g>
      </g>
    </g>
    <g class="cls-2">
      <g class="cls-2">
        <g class="cls-2">
          <g class="cls-2">
            <g class="cls-2">
              <g class="cls-2">
                <path class="cls-1" d="M281.87,19h6.8c1,0,1.9.1,2.7.4s1.5.7,2,1.2,1,1.1,1.3,1.8c.3.7.4,1.5.4,2.3h0c0,1-.2,1.9-.5,2.6s-.8,1.3-1.4,1.8-1.3.9-2.1,1.1c-.8.2-1.7.4-2.6.4h-2.8v5h-3.7v-16.7l-.1.1h0ZM288.47,27.4c.9,0,1.6-.2,2.1-.7s.8-1.1.8-1.8h0c0-.9-.3-1.5-.8-1.9s-1.3-.6-2.2-.6h-2.8v5.1h2.9v-.1Z"/>
                <path class="cls-1" d="M305.87,36c-1.3,0-2.5-.2-3.5-.7s-2-1.1-2.8-1.8c-.8-.8-1.4-1.7-1.8-2.7s-.7-2.2-.7-3.3h0c0-1.2.2-2.4.7-3.4.4-1,1.1-2,1.8-2.7.8-.8,1.7-1.4,2.8-1.9s2.3-.7,3.6-.7,2.5.2,3.5.7,2,1.1,2.8,1.8,1.4,1.7,1.8,2.7.7,2.2.7,3.3h0c0,1.2-.2,2.4-.7,3.4-.4,1-1.1,2-1.8,2.7-.8.8-1.7,1.4-2.8,1.9-1.1.5-2.3.7-3.6.7ZM305.87,32.6c.7,0,1.4-.1,2-.4.6-.3,1.1-.6,1.6-1.1s.8-1,1-1.7c.2-.6.4-1.3.4-2h0c0-.8-.1-1.4-.4-2.1s-.6-1.2-1-1.7c-.5-.5-1-.9-1.6-1.1-.6-.3-1.3-.4-2-.4s-1.4.1-2,.4-1.1.6-1.6,1.1c-.4.5-.8,1-1,1.7s-.4,1.3-.4,2h0c0,.8.1,1.4.4,2.1s.6,1.2,1,1.7c.5.5,1,.9,1.6,1.1.6.3,1.3.4,2,.4Z"/>
                <path class="cls-1" d="M317.97,19h7.6c2.1,0,3.7.6,4.9,1.7,1,1,1.4,2.2,1.4,3.8h0c0,1.4-.3,2.5-1,3.3s-1.5,1.5-2.6,1.9l4.1,6h-4.3l-3.6-5.3h-2.9v5.3h-3.7v-16.7s.1,0,.1,0ZM325.37,27.1c.9,0,1.6-.2,2.1-.6s.7-1,.7-1.7h0c0-.8-.3-1.4-.8-1.8s-1.2-.6-2.1-.6h-3.6v4.8h3.7v-.1h0Z"/>
                <path class="cls-1" d="M339.07,22.4h-5.1v-3.4h13.8v3.4h-5.1v13.3h-3.7v-13.3h.1Z"/>
                <path class="cls-1" d="M356.37,18.9h3.4l7.1,16.8h-3.8l-1.5-3.7h-7l-1.5,3.7h-3.7l7.1-16.8s-.1,0-.1,0ZM360.17,28.7l-2.2-5.4-2.2,5.4h4.4Z"/>
                <path class="cls-1" d="M369.47,19h3.7v13.4h8.3v3.3h-12v-16.7Z"/>
              </g>
            </g>
          </g>
        </g>
      </g>
    </g>
  </g>
  <g>
    <path class="cls-1" d="M162.35,40.24v-.51c.03-.56.06-.85.2-1.19.37-.86,1.25-1.4,2.19-1.4h1.21s.28-3.74.58-4.74c.28-1.01,3.16-.86,3.16-.86v-2.3c0-1.43,2.58-1.58,2.58-1.58h2.59v12.59h-12.52ZM172,35.7h1.43v-2.45h-1.43v2.45ZM172,38.43h1.43v-2.16h-1.43v2.16ZM169.84,35.7h1.43v-2.45h-1.43v2.45ZM169.84,38.43h1.43v-2.16h-1.43v2.16Z"/>
    <path class="cls-1" d="M58.67,33.15c1.08.96,2.53,1.86,3.82,2.68l-.07.32h-1.74c-1.6-.73-2.35-1.18-4.78-2.89v1.31c0,.48.01.66.32,1.32l.12.26h-2.98l.11-.25c.26-.64.32-1.09.32-1.6v-3.46c0-.72-.19-1.05-.3-1.25l-.16-.28h2.68s.11-.01.11-.01c2.11,0,3.76.48,4.41,1.29.19.24.29.49.29.75,0,.76-.72,1.37-2.15,1.81M55.91,32.68c1.04-.15,2.77-.45,2.77-1.25,0-.39-.59-1.08-2.77-1.21v2.47ZM74.2,35.2v-2.03c.83.04,1.3.07,2.66.28h.06l1.46-1.25h-4.18v-1.93c1.19-.01,1.91.07,3.24.39h.07s1.27-1.35,1.27-1.35h-7.32l.17.28c.4.65.43,1.35.43,1.55v3.19c0,.8-.25,1.23-.43,1.58l-.15.27h6.8l1.25-1.5-.43.07c-2.53.46-3.42.46-4.91.46M100.47,35.82l.45.32-3.59.03v-.17c0-.25-.06-.53-.46-1.02l-.68-.83h-4.22l-.59.66c-.42.48-.62.87-.58,1.17l.03.2h-3.18l-.07-.32c.37-.23.72-.45,1.77-1.53l4.8-5.02h.2l4.23,4.8c.89,1.01,1.45,1.42,1.9,1.74M94.17,31.71l-1.2,1.34h2.29l-1.09-1.34ZM112.25,35.16l.07-4.07c.01-.9.2-1.16.44-1.48l.21-.29h-3.37s.2.3.2.3c.19.27.38.56.38,1.41v2.88c0,1.37-.16,1.58-.46,1.97l-.22.29h6.41l1.39-1.66-.45.1c-1.25.26-2.46.45-4.59.56M125.23,30.83l.34-.07c2.27-.43,3.05-.45,3.77-.44v4.02c0,.69-.13,1.13-.32,1.57l-.11.26h3.02l-.14-.27c-.22-.42-.32-.89-.32-1.46v-4.12c1.34,0,1.77.07,3.06.34h.07s1.17-1.35,1.17-1.35h-9.61l-.9,1.5h0ZM154.62,29.33h-2.65l.03.19c.03.2-.06.37-.59.84l-1.6,1.49-1.65-1.53c-.32-.31-.53-.53-.49-.79l.04-.21h-2.99s-.04.36-.04.36c.53.21.78.36,1.36.92l2.71,2.54v1.76c0,.6-.11.75-.29,1l-.22.29h3.21l-.3-.31c-.25-.26-.28-.53-.28-.64v-2.17l2.9-2.69.09-.08c.15-.14.46-.39.82-.64l-.07-.32h0s0,.02,0,.02Z"/>
    <path class="cls-1" d="M47.74,39.64h89.13s.01,0,.01-.01h3.82c0-.76,0-.23.03-1.37H47.74s-.01,0-.01.01v1.34s0,.01.01.01"/>
    <path class="cls-1" d="M61.85,11.86c.67.04,1.14.04,1.48,0,.25-.03.42-.08.56-.18.15-.11.3-.22.45-.36.15-.14.28-.28.38-.42.11-.13.16-.25.18-.37.03-.15-.01-.29-.11-.41-.07-.08-.2-.19-.43-.19-.06,0-.11,0-.15.01-.04,0-.08.01-.16.04-.06,0-.19.04-.46.07-.23.03-.56.06-.98.1-.15.01-.26.03-.37.04-.21.03-.41.05-.82.07-.11,0-.17,0-.24.01h0c-.07,0-.14,0-.27.01-.09,0-.15,0-.22,0h-.01c-.1,0-.18,0-.32.01h-.23c-.11,0-.19,0-.35,0h-3.71c-.4,0-2.12-.01-2.52-.04-.42-.03-.93-.1-1.52-.2-.13-.03-.28-.05-.42-.07-.15-.04-.28-.06-.42-.09s-.27-.06-.38-.08c-.11-.03-.67-.1-1,0-.1.04-.21.09-.34.15-.14.07-.28.14-.42.21s-.25.2-.39.38c-.15.21-.27.37-.42.73-.15.37-.2.97-.07,1.13.11.15.28.25.51.25s.68-.51.89-.64c.7-.42,1.17-.35,2.13-.32h.21c.13,0,.24,0,.35,0h.6c.14,0,.31.01.51.01h.75c.51,0,1.15,0,1.32,0,.18,0,.37,0,.6,0h.04v.15c.05.33.08,1.04.1,1.48.01.32.04.51.05.68.01.2.04.37.05.71,0,.12,0,.21.01.28v.04c0,.14.01.27.03.57,0,.48.01,1,.01,1.54v.34s0,.1,0,.39c0,.57-.03,1.16-.05,1.73,0,.26-.03.57-.05.96-.03.37-.05.75-.07,1.13-.03.39-.06.77-.09,1.13-.04.36-.07.67-.11.91-.04.2-.04.35,0,.47.07.23.28.37.51.37.09,0,.18-.03.26-.07.18-.08.37-.17.6-.28.21-.11.42-.2.64-.28.23-.1.39-.25.47-.43.06-.14.09-.3.09-.5v-.27h0c0-.16,0-.34,0-.56v-.75c0-.28,0-.56,0-.84,0-.66-.01-1.41-.03-2.23,0-.41,0-.6-.01-.77,0-.19,0-.36-.01-.8,0-.85,0-1.3,0-2.13v-.82c0-.39,0-1.18,0-1.48v-.65h2.65c.24,0,.51,0,.81.01"/>
    <path class="cls-1" d="M67.07,15.96c-.04-.06-.11-.12-.24-.15h-.11c-.12,0-.26.03-.42.09-.15.06-.29.13-.45.21-.15.08-.29.18-.44.28-.15.11-.28.2-.37.3-.11.11-.2.19-.25.26-.06.08-.07.17-.06.26s.07.17.17.23h0c.03.07.04.13.05.19.01.07.03.15.04.22,0,.09.01.16.03.22.03.32.05.66.07,1,.01.35.04.72.05,1.1.03.82,0,1.57-.05,2.22-.07.66-.12,1.22-.19,1.69-.01.11-.03.2,0,.28,0,.06.06.25.3.3.1.04.23.03.39-.03.09-.03.2-.07.32-.15.11-.07.24-.16.38-.27.15-.11.32-.26.51-.43.11-.1.18-.22.19-.36,0-.09,0-.19,0-.28-.06-.51-.1-1.03-.12-1.55-.03-.53-.04-1.01-.05-1.42v-.82c0-.3,0-.62.01-.96.01-.32.04-.66.07-.98.04-.32.09-.62.16-.89v-.03c.01-.07.04-.15.05-.25.04-.15-.01-.25-.05-.3"/>
    <path class="cls-1" d="M67.21,11.76c-.08-.06-.17-.09-.26-.09-.11,0-.28.04-.42.21-.11.11-.2.22-.28.32-.09.1-.15.17-.19.21-.18.2-.34.37-.48.49-.15.14-.29.27-.39.38-.1.11-.16.23-.19.34-.03.09-.04.16-.04.22-.03.17,0,.3.09.39.07.08.17.12.28.12s.25-.05.37-.14c.13-.08.29-.2.48-.34l.75-.58c.06-.05.13-.11.22-.18.1-.07.2-.15.32-.25.15-.11.19-.25.19-.33,0-.07,0-.16-.01-.25-.03-.14-.09-.26-.2-.36-.07-.07-.15-.13-.24-.18"/>
    <path class="cls-1" d="M76.05,24.11c.28-.11.52-.23.72-.36.24-.15.45-.35.63-.58s.32-.52.42-.85c.07-.25-.07-.39-.15-.44-.05-.04-.11-.06-.17-.07-.07-.03-.15-.04-.25-.04h-.04c-.12,0-.23.04-.31.12-.06.05-.11.11-.15.18-.11.18-.24.35-.39.5s-.32.28-.51.39c-.27.16-.58.28-.93.37-.68.16-1.41.16-2.06.03-.3-.07-.58-.17-.82-.31-.39-.23-.72-.51-.98-.84-.27-.33-.48-.68-.64-1.03-.15-.34-.24-.68-.27-1-.03-.23,0-.43.04-.6v-.03h.04c.53-.11,1.12-.19,1.71-.25,1.17-.11,2.31-.12,3.41-.04.48.04.96.06,1.42.07.08,0,.15.01.21.01h.15c.27,0,.36-.15.38-.22.04-.1.04-.22-.01-.43-.07-.29-.2-.61-.4-.94-.2-.32-.45-.63-.75-.9s-.66-.51-1.05-.68c-.41-.19-.85-.28-1.32-.28-.28,0-.56.04-.83.1-.45.11-.9.27-1.37.49-.46.21-.9.48-1.31.77-.68.5-1.17,1.02-1.49,1.55-.32.53-.51,1.07-.56,1.58-.04.44-.01.88.09,1.29.11.42.28.82.53,1.18s.59.68,1,.94c.4.27.89.46,1.43.59.27.07.56.11.85.14.61.06,1.27.06,1.91,0,.33-.04.66-.09.96-.15.31-.07.6-.15.87-.26M71.42,17.88c.21-.14.43-.25.67-.35.25-.1.5-.18.74-.24.25-.06.47-.1.67-.12h.03s.05-.01.08-.01h.07c.2,0,.39.04.6.11.2.07.39.2.56.36.09.09.17.17.24.25l.06.07h-.26c-.56-.05-1.46-.05-2.51-.01-.28,0-.59.01-.89.03h-.13l.11-.07h-.03s0,0,0,0h0Z"/>
    <path class="cls-1" d="M82.74,17.61c.14-.04.28-.06.42-.08.33-.05.68-.04.98.05.07.03.11.05.16.08.06.04.11.08.17.13h.03c.22.17.44.18.64.02.14-.11.28-.23.43-.35s.28-.25.41-.37c.11-.11.16-.25.12-.42-.04-.11-.09-.22-.17-.29h0c-.19-.19-.42-.32-.72-.38-.72-.15-1.39-.13-1.99.05-.32.09-.61.2-.88.31-.38.15-.75.33-1.1.53l-.06.04v-.07c0-.11,0-.23-.03-.33-.03-.13-.07-.25-.16-.35-.14-.17-.29-.2-.4-.2-.04,0-.06,0-.08,0h-.08c-.11.06-.23.11-.35.18s-.24.13-.35.2-.22.14-.32.2c-.11.07-.19.14-.25.2-.07.07-.26.31,0,.68.01.04.04.1.07.2.03.1.04.22.05.37.03.46.04.9.05,1.34,0,.44.01.85.03,1.22v.97c0,.32,0,.63-.03.9,0,.28-.03.53-.05.77-.01.22-.05.42-.07.57-.04.13-.06.25-.07.35-.04.23.11.42.35.47h.15c.1,0,.21,0,.34-.04.12-.04.25-.07.37-.12s.25-.11.37-.16c.12-.07.22-.11.31-.17.15-.11.2-.24.23-.32.01-.09.03-.2.01-.36-.03-.51-.04-1.02-.07-1.53-.03-.5-.04-.94-.05-1.34,0-.37,0-.7-.04-.98-.03-.26-.04-.5-.04-.69,0-.18.01-.32.06-.45.04-.1.09-.19.19-.27.11-.1.28-.19.51-.27.24-.09.55-.19.93-.28"/>
    <path class="cls-1" d="M90.63,17.61c.14-.04.28-.06.42-.08.33-.05.68-.04.98.05.07.03.11.05.16.08.06.04.11.08.17.13h.03c.22.17.44.18.64.02.14-.11.28-.23.43-.35s.28-.25.41-.37c.11-.11.16-.25.12-.42-.04-.11-.09-.22-.17-.29-.19-.19-.43-.32-.72-.38-.72-.15-1.39-.13-1.99.05-.32.09-.61.2-.88.31-.38.15-.75.33-1.1.53l-.06.04v-.07c0-.11,0-.23-.03-.33-.03-.12-.07-.25-.16-.35-.14-.17-.29-.2-.4-.2-.04,0-.06,0-.08,0h-.08c-.11.06-.23.11-.35.18-.11.07-.24.13-.35.2s-.22.14-.32.2c-.11.07-.19.14-.25.2-.07.07-.26.31,0,.68.01.04.04.09.07.2.03.1.04.22.05.37.03.46.04.9.05,1.34,0,.44.01.85.03,1.22v.97c0,.33,0,.63-.03.9,0,.28-.03.53-.05.77-.01.22-.05.42-.07.57-.04.12-.05.25-.07.35-.04.23.11.42.35.47h.15c.1,0,.21,0,.34-.04.12-.04.25-.07.37-.12s.25-.11.37-.16.22-.11.31-.18c.15-.11.2-.23.23-.32.01-.09.03-.2.01-.36-.03-.52-.04-1.03-.07-1.53s-.04-.94-.05-1.34c0-.37,0-.7-.04-.98-.03-.26-.04-.5-.04-.69,0-.18.01-.32.06-.45.04-.1.09-.19.19-.27.11-.1.28-.19.51-.27.24-.09.55-.19.93-.28"/>
    <path class="cls-1" d="M100.89,24.2c-.03.07-.03.16,0,.25.01.06.1.25.37.25.07,0,.12,0,.18-.03.06-.01.15-.05.31-.11.13-.05.27-.1.42-.15l.42-.15c.14-.05.25-.1.32-.13.14-.07.23-.17.25-.31.01-.09,0-.2-.01-.32-.03-.09-.04-.2-.07-.32-.03-.11-.04-.27-.05-.44-.03-.6-.04-1.15-.06-1.67s-.04-1.01-.07-1.44-.07-.82-.13-1.16c-.06-.35-.15-.64-.25-.88-.15-.32-.37-.6-.66-.8-.28-.2-.59-.35-.92-.46-.33-.11-.68-.18-1.03-.21-.35-.04-.68-.04-1-.03-.43.04-.83.08-1.18.17-.35.08-.67.18-.96.28-.29.11-.56.22-.82.34-.25.12-.47.22-.68.32-.19.08-.31.16-.4.25-.12.12-.12.25-.11.31,0,.06.05.17.19.24.05.03.11.06.21.09.09.04.19.07.29.1s.2.07.29.09c.1.04.19.06.25.07.04,0,.08.01.11.01.13.01.25,0,.35-.04.07-.04.15-.08.25-.16.35-.3.68-.53,1-.68.29-.14.65-.2,1.07-.19.43.01.79.07,1.07.17.26.1.48.23.64.4.16.17.28.39.36.66.07.22.11.46.14.74v.04h-.04c-.25.04-.5.07-.74.1-.34.04-.69.08-1.04.13-.36.05-.72.11-1.1.2-.38.09-.78.21-1.2.37-.56.22-1.08.49-1.53.8-.47.32-.82.68-1.04,1.05-.13.23-.2.46-.21.69,0,.23.04.45.12.65s.21.39.37.56c.15.16.33.29.52.4.32.17.68.29,1.07.36.6.1,1.25.12,1.89.06.25-.03.48-.06.68-.09.45-.08.9-.18,1.35-.3.27-.07.53-.15.8-.25l.07-.03v.07s-.04.09-.05.13M100.61,22.9c-.2.11-.42.22-.64.31s-.46.17-.71.23c-.24.07-.47.11-.7.15-.13.01-.28.04-.43.04-.18,0-.37-.01-.56-.04s-.36-.07-.53-.11c-.16-.05-.32-.11-.46-.17-.13-.06-.23-.12-.3-.2-.07-.07-.12-.15-.15-.25-.04-.13-.06-.28-.06-.43,0-.13.01-.26.06-.38.04-.11.09-.23.17-.34s.2-.22.35-.32c.15-.11.35-.21.58-.31.18-.07.36-.14.53-.2.17-.05.35-.09.53-.12.19-.04.39-.06.6-.07.22-.01.46-.04.7-.04s.5,0,.77.01c.2.01.42.04.65.05h.04v1.89h0c-.12.12-.27.22-.42.31"/>
    <path class="cls-1" d="M118.89,20.33l.04-.03v.04c.07.13.13.26.19.41.11.28.25.58.38.91.14.34.28.69.43,1.06l.32.84c.08.22.14.38.18.49.06.17.11.29.19.38.14.18.36.26.58.2.07-.01.16-.04.29-.09.03,0,.04,0,.07-.01.09-.01.18-.04.27-.07l.32-.1.07-.04c.1-.05.39-.2.46-.5.04-.15.01-.32-.07-.5l-.03-.04c-.13-.23-.26-.46-.38-.69s-.25-.47-.37-.72c-.1-.19-.21-.42-.34-.68-.13-.26-.26-.53-.39-.8-.13-.28-.26-.53-.38-.79-.12-.25-.22-.46-.3-.63-.08-.15-.14-.28-.19-.39-.05-.11-.09-.2-.13-.29-.04-.08-.08-.17-.11-.25-.04-.08-.08-.18-.14-.3-.07-.14-.15-.32-.26-.57l-.37-.84c-.14-.31-.28-.63-.43-.96s-.29-.66-.43-.98c-.04-.09-.09-.2-.15-.33s-.12-.29-.2-.49-.17-.43-.27-.69-.22-.59-.37-1c-.08-.22-.15-.44-.21-.64-.06-.2-.11-.42-.16-.64-.01-.09-.04-.15-.04-.21-.01-.11-.04-.2-.07-.27-.06-.15-.17-.27-.32-.32-.12-.06-.27-.06-.42-.01-.05,0-.11.03-.15.04-.06.03-.11.06-.19.11l-.46.32c-.1.05-.19.11-.28.16-.08.06-.17.11-.26.16-.13.08-.23.18-.29.3-.07.11-.1.22-.11.34-.28,1.37-5,9.41-5,9.41-.07.11-.17.28-.3.48-.12.2-.25.4-.4.63-.14.21-.28.42-.41.61-.11.17-.22.31-.3.4l-.11.11-.17.18c-.06.07-.12.12-.18.18l-.11.11-.06.05-.04.07c-.13.24-.07.52.14.68.05.04.1.07.15.1.1.06.22.11.36.15.1.03.18.06.25.08l.07.03h.07c.15.01.29-.01.42-.07.11-.05.2-.12.28-.2.07-.07.13-.15.18-.23.04-.07.09-.14.12-.2l1.36-2.37c.07-.13.14-.25.2-.37.07-.11.13-.24.2-.36.07-.11.13-.25.21-.37l.15-.26h.03c.24-.01.5-.03.78-.04.39-.01.79-.04,1.21-.04s.82,0,1.24-.01h1.15c.29,0,.56.01.76.03s.38.03.53.04c.14.01.25.03.32.04.09.01.15.04.2.05.04,0,.07.03.1.04.06.04.12.06.19.08.13.06.2.09.23.11.15.08.31.11.45.07.06-.01.11-.04.17-.07M117.84,18.57c-.21,0-.46,0-.77,0h-.11c-.29,0-.64,0-1.02-.01-.47-.01-.94-.04-1.39-.07-.46-.03-.87-.06-1.25-.09-.28-.03-.53-.05-.77-.07h-.06l.58-1.03c.16-.28.32-.56.46-.82l.37-.69c.11-.21.23-.42.35-.63.06-.11.13-.23.21-.37s.18-.3.28-.48.24-.38.37-.62l.38-.62.04.06c.07.12.13.25.19.35.11.2.21.41.3.6.09.18.18.37.27.56s.18.38.28.59c.17.37.32.71.45.98l.51,1.09c.06.12.11.24.17.35s.11.24.17.37.14.3.23.5l.03.05h-.28s0,0,0,0Z"/>
    <path class="cls-1" d="M130.77,24.63c.07,0,.15-.03.24-.07.11-.06.21-.11.32-.17l.68-.35c.11-.06.21-.11.3-.17.16-.11.25-.27.22-.44,0-.07-.03-.16-.04-.28-.01-.11-.03-.23-.04-.37l-.06-1.28c0-.25-.03-.51-.04-.8l-.04-.85c-.01-.28-.03-.53-.04-.77s-.01-.42-.03-.53c0-.15-.01-.3-.03-.46,0-.17-.04-.34-.08-.51-.04-.18-.11-.35-.21-.51-.1-.17-.25-.32-.42-.46-.21-.16-.53-.3-.98-.43-.7-.2-1.52-.25-2.35-.12-.3.04-.6.11-.9.21s-.61.23-.92.39c-.14.07-.28.15-.42.25l-.06.04v-.36c0-.18-.05-.31-.15-.4-.09-.08-.21-.12-.36-.12h-.06c-.14,0-.28.05-.42.11-.11.06-.24.11-.34.18-.11.07-.21.14-.3.21-.07.07-.14.11-.18.14h-.01c-.11.11-.2.21-.25.31-.08.15-.09.36.12.53.07.06.1.12.11.2.03.12.05.26.06.43.03.4.05.8.07,1.2.01.41.03.81.04,1.2,0,.39,0,.77,0,1.13,0,.36,0,.69-.01.98,0,.18-.01.37-.04.59-.01.2-.04.42-.09.65-.03.11-.04.2-.05.28-.03.15.04.35.29.42.12.05.26.04.49-.04.11-.04.25-.08.39-.14.13-.06.26-.11.37-.16.12-.06.2-.1.27-.12h.03c.09-.07.16-.14.21-.22.07-.11.07-.25.04-.36-.06-.17-.09-.32-.09-.45l-.03-.45c-.01-.3-.03-.64-.04-1.01-.01-.35-.03-.73-.04-1.16l-.04-1.19c0-.33-.01-.66-.01-.96h0s.01-.01.01-.01c.27-.2.56-.35.87-.46.37-.13.73-.23,1.09-.29.58-.1,1.08-.11,1.54-.01.2.04.38.11.53.2s.26.2.35.34.14.31.15.51c.03.37.04.72.05,1.04,0,.32.01.64.03.93,0,.28,0,.58,0,.87,0,.28,0,.59-.01.89,0,.15-.01.34-.04.6-.01.26-.04.56-.05.87,0,.16,0,.29,0,.41.04.28.21.37.36.37"/>
    <path class="cls-1" d="M140.2,16.04c-.07,0-.15.01-.24.05-.05.01-.1.04-.15.04-.27.07-.56.12-.82.17-.27.04-.56.07-.82.09h-.41c-.08,0-.17,0-.27,0-.1,0-.22,0-.36,0h-.24v-.04c0-.19.01-.38.03-.58.01-.31.04-.63.05-.96s.04-.65.06-.98c.03-.32.04-.64.07-.94.03-.17-.04-.32-.16-.42-.1-.07-.21-.11-.35-.13h-.03c-.11,0-.23.04-.4.13-.13.07-.28.15-.42.25-.15.1-.3.2-.44.31-.15.11-.25.2-.33.28-.15.15-.22.32-.2.48.01.11.05.22.11.34.11.2.15.32.15.38.03.11.04.22.04.33v1.48h-.55c-.11,0-.2,0-.32,0h-.06c-.09,0-.17.01-.25.04-.08.04-.16.09-.24.18-.04.04-.08.08-.21.25-.1.13-.19.28-.27.45-.08.15-.07.28-.05.35.07.22.25.24.29.24h.11v-.03h.02c.14-.03.27-.05.39-.07.14-.03.28-.04.42-.06s.28-.03.43-.04h.25v1.29c-.01.22-.01.41-.03.57v.36c0,.23-.01.49-.03.78l-.04.89c0,.3-.01.6-.03.88v.76c.01.44.16.82.42,1.12.27.3.64.47,1.13.51h.07c.2,0,.44-.05.75-.14.29-.09.6-.2.9-.32.3-.11.6-.24.86-.35.26-.11.46-.2.59-.27.08-.04.15-.07.2-.12.08-.07.14-.16.16-.25.04-.1.06-.2.08-.32s.05-.31.07-.58c0-.15-.05-.26-.11-.31-.05-.06-.15-.12-.31-.12s-.33.07-.46.2h-.01c-.25.31-.51.55-.77.75-.25.19-.44.3-.6.34-.1.04-.18.05-.25.06-.08,0-.15.01-.21.01-.11,0-.2-.03-.25-.07s-.12-.15-.2-.37c-.03-.07-.07-.23-.1-.53-.04-.25-.06-.53-.07-.85-.03-.31-.04-.61-.04-.91,0-.3,0-.56,0-.75v-.47c0-.19,0-.38.01-.6l.04-1.13h.04c.06,0,.11.01.15.01.13.01.25.03.36.04s.21.04.32.05c.11.03.24.04.37.07.23.04.46.06.7.07h.08c.11,0,.2,0,.29-.04.11-.03.21-.07.29-.12.12-.07.25-.15.37-.25.12-.1.24-.2.34-.3.11-.11.2-.24.27-.37.07-.15.11-.29.11-.45,0-.2-.15-.36-.36-.36"/>
    <path class="cls-1" d="M144.07,11.76c-.08-.06-.17-.09-.26-.09-.11,0-.28.04-.42.21-.11.11-.2.22-.28.32-.08.09-.15.17-.19.21-.18.2-.34.37-.48.49-.15.14-.29.27-.39.38-.1.11-.16.23-.19.34-.01.08-.04.16-.04.22-.03.17,0,.3.09.39.07.08.17.12.28.12s.25-.05.37-.14c.14-.08.29-.2.48-.34l.75-.58c.06-.05.13-.11.22-.18.1-.07.2-.15.32-.25.15-.11.19-.25.19-.33,0-.07,0-.16-.01-.25-.03-.14-.09-.26-.2-.36-.07-.07-.15-.13-.24-.18"/>
    <path class="cls-1" d="M143.93,15.96c-.04-.06-.11-.12-.24-.15h-.1c-.12,0-.26.03-.42.09-.15.06-.29.13-.45.21-.15.08-.29.18-.44.28-.15.11-.28.2-.37.3-.11.11-.19.19-.25.26-.06.08-.07.17-.05.26s.07.16.17.23h0v.03s.04.11.05.18c0,.07.03.15.03.22,0,.09.01.16.03.22.03.32.05.66.07,1,.01.34.04.72.05,1.1.03.82,0,1.57-.05,2.22-.07.66-.12,1.22-.19,1.69-.01.11-.03.2,0,.28,0,.06.06.25.3.3.1.04.23.03.39-.03.09-.03.2-.08.32-.15.11-.07.24-.16.38-.27.15-.11.32-.26.51-.43.11-.1.18-.22.19-.36,0-.09,0-.19,0-.28-.06-.51-.1-1.03-.11-1.55-.03-.53-.04-1.01-.05-1.42v-.82c0-.3,0-.63.01-.96s.04-.66.07-.98c.04-.32.09-.62.16-.89v-.03c.01-.07.04-.15.05-.25.04-.15-.01-.25-.05-.3"/>
    <path class="cls-1" d="M142.02,35.6c-.13-.16-.25-.3-.35-.42-.04-.04-.07-.05-.11-.05-.03,0-.05,0-.07.01-.05.03-.1.08-.09.16.03.19.11.82.28,1.22.22.53.57,1.03,1.05,1.46.62.57,1.21,1.07,2.07,1.41.85.33,1.74.61,2.67.73.92.11,1.86.13,2.8.05s1.83-.29,2.65-.52c.84-.25,1.65-.56,2.43-.92.77-.37,1.48-.82,2.13-1.34.64-.52,1.24-1.13,1.76-1.8.52-.67.97-1.43,1.34-2.27.35-.82.53-1.63.53-2.41,0-.73.01-1.36-.3-2.17-.17-.44-.46-.98-.78-1.43-.27-.38-.64-.74-1.08-1.05s-1-.57-1.61-.78c-.07-.03-.14-.05-.21-.07-.55-.19-1.06-.36-1.74-.41-.86-.08-1.48-.09-2.13-.04-.64.05-1.31.12-1.91.21-.72.11-1.2.16-1.8.22-.84.08-1.87.13-2.53-.18-.49-.24-.64-.34-.78-1-.06-.28.07-.61.38-1.01h0s.07-.05.11-.07c.14-.08.26-.16.42-.23.2-.09.42-.15.65-.21.24-.06.46-.1.68-.12.24-.03.43-.05.61-.07.14-.03.25-.11.3-.26.03-.07.05-.25.05-.27v-.03h.04c.17-.05.34-.09.5-.13.22-.07.44-.14.65-.22.21-.08.42-.19.61-.3.2-.11.41-.27.61-.44.43-.34.78-.68,1.04-1.01.27-.34.44-.68.51-1,.07-.34.04-.68-.11-1-.06-.12-.14-.25-.24-.37l-.05-.06h.07c.12,0,.25-.01.38-.04.16-.03.33-.07.51-.14.18-.08.35-.18.51-.29s.31-.24.43-.36c.13-.13.24-.26.32-.39.08-.14.14-.27.16-.38.05-.22.04-.38-.04-.51-.06-.1-.17-.2-.42-.22-.09,0-.19,0-.28,0-.11,0-.23.04-.35.09-.11.05-.22.11-.3.17-.09.07-.17.18-.22.31h0s-.01.01-.01.01c0,0-.06.03-.09.04-.13.04-.29.05-.46.07-.18,0-.37,0-.55,0-.19,0-.33-.03-.46-.04-.3-.04-.56,0-.75.15-.11.08-.22.18-.33.3h-.01s-.03.01-.03.01c-.56-.15-1.14-.2-1.72-.15-.64.07-1.25.22-1.82.48-.57.28-1.05.6-1.42.96-.37.36-.66.77-.85,1.21-.17.37-.25.77-.24,1.19s.11.81.32,1.15c.2.35.51.64.9.85.11.06.22.11.35.15l.08.03-.07.04c-.21.11-.41.25-.58.41-.18.15-.33.3-.46.46l-.03.03c-.1.12-.2.24-.25.35h-.01c-.1.17-.16.31-.2.45-.19.59-.13,1.17.18,1.73.31.56.83,1.03,1.56,1.39.46.22.91.36,1.34.42.44.06.89.07,1.34.06s.91-.06,1.38-.13c.48-.07,1-.11,1.53-.14.56-.03,1.13-.01,1.73.04.61.06,1.28.2,1.99.42.75.23,1.34.59,1.75,1.07.38.45.8,1,.93,1.72.15.82.17,2.13.04,2.92-.12.72-.5,1.32-.83,1.86l-.04.07c-.35.56-.77,1.05-1.24,1.46s-1.03.77-1.65,1.06c-.62.28-1.34.51-2.13.68-.76.15-1.55.26-2.37.32-.82.07-1.64.04-2.43-.08h-.04c-.77-.12-1.65-.26-2.61-.51-2.07-.81-2.92-1.86-3.47-2.55M147.07,18.58c.07-.17.15-.34.28-.52.11-.16.28-.31.5-.42.21-.12.44-.21.68-.27.24-.06.49-.09.73-.09h.04c.26,0,.53.04.78.11s.49.18.7.31c.2.13.34.28.46.49.12.2.2.42.23.64.04.23.01.44-.05.64-.06.2-.16.37-.31.5-.25.2-.49.35-.73.44-.27.1-.56.19-.89.27-.25.07-.49.1-.7.1-.09,0-.17,0-.25-.01-.27-.04-.51-.12-.69-.25-.2-.12-.36-.28-.5-.48-.14-.2-.25-.42-.33-.66-.01-.06-.04-.15-.04-.33,0-.15.04-.31.1-.47"/>
    <path class="cls-1" d="M163.74,24.36c.13-.06.26-.11.39-.18.14-.07.27-.14.38-.21.12-.08.21-.16.27-.24.06-.07.09-.14.1-.22,0-.13-.06-.29-.3-.34h-.03s-.03,0-.07-.07c-.03-.04-.08-.16-.11-.46-.04-.37-.07-.75-.07-1.13s0-.77,0-1.16c0-.38.03-.77.04-1.15.03-.4.04-.77.06-1.13.01-.4.04-.74.05-1.01s.04-.51.07-.71c.01-.17-.06-.31-.2-.37-.07-.04-.15-.05-.24-.05h-.05c-.25,0-.51.05-.76.12-.25.07-.42.14-.56.2-.23.09-.36.28-.34.52v.03c.04.2.05.42.07.61.01.21.04.43.06.67.05.53.09,1.03.14,1.48.04.42.07.78.07,1.09,0,.3,0,.57-.04.79-.04.21-.1.4-.2.57-.1.17-.25.35-.42.51-.19.17-.44.35-.75.53-.27.17-.57.29-.89.38-.5.13-1.03.16-1.55.09-.17-.03-.32-.07-.44-.13-.11-.06-.21-.14-.28-.24-.07-.09-.11-.22-.12-.38,0-.08,0-.2-.01-.35v-2.43c.01-.58.04-1.14.08-1.69.04-.56.09-1.13.15-1.71,0-.1,0-.2-.04-.3-.05-.19-.19-.3-.37-.3h-.06c-.15.03-.32.07-.49.11-.16.05-.32.11-.46.16-.15.06-.27.11-.37.16-.11.05-.17.08-.22.11-.18.09-.22.23-.23.3,0,.08,0,.15.04.25.04.07.06.17.07.27.01.12.01.25.01.38.01.37.03.74.03,1.12s0,.75.01,1.13v.98c0,.28,0,.56.03.81,0,.25.03.47.04.68s.04.41.07.6c.05.33.17.62.37.84.19.21.42.39.69.52.27.13.56.22.89.28.77.12,1.6.1,2.39-.1.48-.11.89-.28,1.25-.48.04-.01.07-.04.09-.05.01,0,.06-.04.13-.08.07-.04.17-.11.32-.2.06-.04.13-.08.21-.13l.06-.04v.07c0,.14.03.28.07.42.04.09.1.18.18.25.13.12.26.15.35.15h.08c.1-.03.22-.06.37-.12"/>
    <path class="cls-1" d="M172.57,24.2c-.03.07-.03.16,0,.25.01.06.1.25.37.25.07,0,.12,0,.18-.03.07-.03.18-.06.31-.11s.27-.1.42-.15l.42-.15c.14-.05.25-.1.32-.13.14-.07.23-.17.25-.31.01-.09,0-.2-.01-.32-.03-.09-.05-.2-.07-.33-.03-.12-.04-.27-.05-.44-.03-.6-.04-1.15-.06-1.67-.01-.53-.04-1.01-.07-1.44s-.07-.82-.13-1.16c-.06-.35-.15-.64-.25-.88-.15-.32-.37-.6-.66-.8-.28-.2-.59-.35-.92-.46s-.68-.18-1.04-.21c-.35-.04-.69-.04-1-.03-.43.04-.83.08-1.18.17-.35.08-.67.18-.96.28-.29.11-.56.22-.82.34-.25.12-.47.22-.68.32-.19.08-.31.16-.4.25-.12.12-.12.25-.11.31,0,.06.05.17.19.24.05.03.11.06.21.09.09.04.19.07.29.1s.2.07.29.09c.1.04.19.06.25.07.04,0,.08.01.11.01.13.01.25,0,.35-.04.07-.04.15-.08.25-.16.35-.3.68-.53,1-.68.29-.14.65-.2,1.07-.19.43.01.79.07,1.07.17.26.1.48.23.64.4.16.17.28.39.36.66.07.22.11.46.14.74v.04h-.04c-.25.04-.5.07-.74.1-.34.04-.69.08-1.04.13-.36.05-.72.11-1.1.2-.38.09-.78.21-1.2.37-.56.22-1.08.49-1.53.8-.47.32-.82.68-1.04,1.05-.13.23-.2.46-.21.69,0,.23.04.45.12.65s.21.39.37.56c.15.16.33.29.52.4.32.17.68.29,1.07.36.6.1,1.25.12,1.89.06.25-.03.48-.06.68-.09.45-.08.9-.18,1.35-.3.27-.07.53-.15.8-.25l.07-.03v.07s-.04.09-.05.13M172.28,22.89c-.2.11-.42.22-.64.31-.23.09-.46.17-.71.23-.24.07-.47.11-.7.15-.13.01-.28.04-.43.04-.18,0-.37-.01-.56-.04s-.36-.07-.53-.11c-.16-.05-.32-.11-.46-.17-.13-.06-.23-.12-.3-.2-.07-.07-.12-.15-.15-.25-.04-.13-.06-.28-.06-.43,0-.13.01-.26.05-.38.04-.11.09-.23.17-.34s.2-.22.35-.32c.15-.11.35-.21.58-.31.18-.07.36-.14.53-.2.17-.05.35-.09.53-.12.19-.04.39-.06.6-.07.22-.01.46-.04.7-.04s.5,0,.77.01c.2,0,.42.04.65.05h.04v1.89h0c-.12.12-.27.22-.42.31"/>
  </g>
</svg>