<?xml version="1.0" encoding="UTF-8"?>
<svg id="Layer_1" data-name="Layer 1" xmlns="http://www.w3.org/2000/svg" viewBox="0 0 356.6 71.2">
  <defs>
    <style>
      .cls-1 {
        fill: #2c2159;
      }
    </style>
  </defs>
  <g>
    <rect class="cls-1" x="189.15" y="9.41" width=".99" height="52.37"/>
    <path class="cls-1" d="M189.95,9.6v51.99h-.6V9.6h.6M190.33,9.22h-1.37v52.76h1.37V9.22h0Z"/>
  </g>
  <g>
    <g>
      <path class="cls-1" d="M236.7,24.95c-.25.52-.6.96-1.03,1.32s-.95.62-1.54.79c-.58.18-1.22.27-1.88.27h-2v3.58h-2.63v-11.95h4.88c.72,0,1.36.1,1.92.3s1.04.48,1.43.85.69.8.9,1.31c.21.51.32,1.07.32,1.68v.03c0,.69-.12,1.3-.37,1.82h0ZM234.41,23.14c0-.59-.19-1.04-.57-1.35s-.9-.46-1.56-.46h-2.03v3.65h2.08c.66,0,1.17-.17,1.54-.52s.55-.78.55-1.29v-.03h0Z"/>
      <path class="cls-1" d="M254.81,30.91l-2.56-3.82h-2.06v3.82h-2.63v-11.95h5.46c1.42,0,2.53.35,3.32,1.04.79.69,1.18,1.66,1.18,2.9v.03c0,.97-.23,1.76-.71,2.36-.47.61-1.09,1.06-1.85,1.34l2.92,4.27h-3.07ZM254.86,23.04c0-.57-.18-1-.55-1.28s-.87-.43-1.52-.43h-2.61v3.43h2.66c.65,0,1.15-.15,1.49-.46.35-.31.52-.72.52-1.23v-.03h0Z"/>
      <path class="cls-1" d="M268.55,30.91v-11.95h2.63v11.95h-2.63Z"/>
      <path class="cls-1" d="M291.08,30.91l-5.79-7.59v7.59h-2.6v-11.95h2.42l5.6,7.36v-7.36h2.6v11.95h-2.23Z"/>
      <path class="cls-1" d="M310.13,21.39v9.53h-2.63v-9.53h-3.64v-2.42h9.9v2.42h-3.63,0Z"/>
    </g>
    <g>
      <path class="cls-1" d="M222.76,46.07c-.25.52-.6.96-1.03,1.32s-.95.62-1.53.79c-.58.18-1.22.27-1.89.27h-2v3.58h-2.63v-11.95h4.88c.72,0,1.36.1,1.92.3s1.04.48,1.43.85.7.8.9,1.31c.21.51.32,1.07.32,1.68v.03c0,.69-.12,1.3-.37,1.82h0ZM220.47,44.27c0-.59-.19-1.04-.57-1.35-.38-.31-.9-.46-1.56-.46h-2.03v3.65h2.08c.66,0,1.17-.17,1.54-.52.37-.35.55-.78.55-1.29v-.03h0Z"/>
      <path class="cls-1" d="M245.31,48.47c-.32.75-.76,1.4-1.32,1.96-.57.56-1.23,1.01-2.01,1.33-.78.32-1.63.48-2.55.48s-1.77-.16-2.54-.48c-.77-.32-1.44-.76-2.01-1.32-.56-.55-1-1.2-1.32-1.95-.31-.75-.47-1.55-.47-2.4v-.03c0-.85.16-1.65.48-2.4.32-.75.76-1.4,1.32-1.96.56-.56,1.23-1.01,2.01-1.33.78-.32,1.63-.49,2.55-.49s1.77.16,2.54.49c.77.32,1.44.76,2.01,1.32s1,1.2,1.32,1.95c.31.75.47,1.55.47,2.4v.03c0,.85-.16,1.65-.48,2.4h0ZM243.04,46.06c0-.51-.09-1-.27-1.45-.18-.45-.43-.85-.75-1.2s-.71-.61-1.15-.81c-.44-.2-.93-.3-1.45-.3s-1.02.1-1.46.29c-.44.19-.82.46-1.13.8s-.56.74-.73,1.19-.27.93-.27,1.44v.03c0,.51.09,1,.27,1.45.18.45.43.85.75,1.2s.7.61,1.14.81.92.3,1.46.3,1.01-.1,1.45-.29.82-.46,1.13-.8.56-.74.73-1.19.27-.93.27-1.44v-.03h0Z"/>
      <path class="cls-1" d="M263.92,52.04l-2.56-3.82h-2.06v3.82h-2.63v-11.95h5.46c1.42,0,2.53.35,3.32,1.04.79.7,1.19,1.66,1.19,2.9v.03c0,.97-.23,1.76-.71,2.36-.47.61-1.09,1.06-1.85,1.34l2.92,4.27h-3.08ZM263.97,44.18c0-.57-.18-1-.55-1.28s-.87-.43-1.52-.43h-2.61v3.43h2.66c.65,0,1.15-.15,1.5-.46.35-.31.52-.72.52-1.23v-.03h0Z"/>
      <path class="cls-1" d="M282.95,42.51v9.53h-2.63v-9.53h-3.63v-2.42h9.9v2.42h-3.64,0Z"/>
      <path class="cls-1" d="M306.03,52.04l-1.09-2.68h-5.05l-1.09,2.68h-2.68l5.12-12.04h2.42l5.12,12.04h-2.75ZM302.41,43.16l-1.59,3.88h3.18l-1.59-3.88Z"/>
      <path class="cls-1" d="M319.16,52.04v-11.95h2.63v9.58h5.96v2.37s-8.59,0-8.59,0Z"/>
    </g>
  </g>
  <g>
    <path class="cls-1" d="M152.19,52v-.55c.03-.6.06-.92.21-1.28.4-.93,1.35-1.51,2.36-1.51h1.31s.31-4.02.62-5.1c.31-1.08,3.4-.93,3.4-.93v-2.47c0-1.54,2.78-1.7,2.78-1.7h2.79v13.54h-13.47ZM162.57,47.11h1.54v-2.63h-1.54v2.63ZM162.57,50.05h1.54v-2.32h-1.54v2.32ZM160.25,47.11h1.54v-2.63h-1.54v2.63ZM160.25,50.05h1.54v-2.32h-1.54v2.32Z"/>
    <path class="cls-1" d="M40.62,44.37c1.17,1.03,2.73,2,4.11,2.88l-.07.35h-1.88c-1.72-.79-2.52-1.27-5.14-3.11v1.41c0,.52.01.71.35,1.42l.13.28h-3.21l.11-.27c.28-.68.34-1.17.34-1.73v-3.73c0-.78-.2-1.13-.32-1.34l-.17-.3h2.88s.12-.01.12-.01c2.27,0,4.04.52,4.75,1.39.2.25.32.52.32.81,0,.82-.78,1.47-2.31,1.95M37.65,43.86c1.12-.17,2.98-.48,2.98-1.35,0-.42-.63-1.16-2.98-1.31v2.66ZM57.34,46.57v-2.18c.9.04,1.4.08,2.86.3h.06l1.58-1.35h-4.5v-2.08c1.28-.01,2.06.08,3.49.42h.07s1.36-1.46,1.36-1.46h-7.87l.18.3c.43.7.47,1.45.47,1.67v3.43c0,.86-.26,1.32-.47,1.7l-.17.29h7.31l1.35-1.62-.47.08c-2.73.49-3.68.5-5.29.5M85.6,47.24l.48.34-3.86.03v-.18c0-.26-.06-.57-.5-1.09l-.74-.9h-4.54l-.63.71c-.45.52-.67.94-.62,1.25l.03.22h-3.42l-.07-.35c.4-.25.78-.48,1.9-1.65l5.17-5.41h.22l4.55,5.17c.96,1.08,1.56,1.52,2.04,1.88M78.82,42.82l-1.29,1.44h2.46l-1.17-1.44ZM98.28,46.53l.07-4.38c.01-.97.22-1.25.47-1.59l.23-.32h-3.63s.21.32.21.32c.2.29.41.6.41,1.52v3.09c0,1.47-.17,1.7-.49,2.12l-.24.32h6.9l1.49-1.79-.48.1c-1.34.28-2.65.48-4.94.6M112.25,41.87l.37-.07c2.44-.47,3.28-.48,4.06-.47v4.33c0,.75-.14,1.22-.35,1.69l-.12.28h3.25l-.15-.29c-.24-.45-.35-.96-.35-1.57v-4.43c1.44,0,1.9.08,3.3.37h.07s1.25-1.45,1.25-1.45h-10.35l-.97,1.62h0ZM143.87,40.26h-2.85l.03.2c.03.22-.06.4-.63.91l-1.72,1.6-1.77-1.65c-.35-.33-.58-.57-.52-.85l.04-.23h-3.22s-.04.38-.04.38c.58.23.84.39,1.47.99l2.92,2.74v1.9c0,.65-.12.81-.32,1.07l-.24.32h3.45l-.32-.33c-.27-.28-.3-.58-.3-.69v-2.34l3.12-2.9.09-.09c.17-.15.49-.42.88-.69l-.07-.35h0s0,.02,0,.02Z"/>
    <path class="cls-1" d="M28.86,51.36h95.91s.01,0,.01-.01h4.11c0-.82,0-.25.03-1.47H28.86s-.01,0-.01.01v1.44s0,.01.01.01"/>
    <path class="cls-1" d="M44.05,21.46c.72.04,1.23.04,1.59,0,.26-.03.45-.09.6-.19.16-.11.32-.24.48-.39.17-.15.31-.31.41-.45.11-.14.17-.27.19-.4.03-.16-.01-.32-.11-.44-.08-.09-.22-.2-.47-.2-.06,0-.12,0-.17.01-.04,0-.09.01-.17.04-.06,0-.2.04-.5.07-.25.03-.6.06-1.06.1-.16.01-.28.03-.4.04-.23.03-.44.05-.88.08-.11,0-.18,0-.25.01h0c-.08,0-.15,0-.29.01-.09,0-.17,0-.24,0h-.01c-.1,0-.19,0-.35.01h-.25c-.11,0-.2,0-.38,0h-4c-.43,0-2.28-.01-2.71-.04-.45-.03-1-.1-1.63-.21-.14-.03-.3-.05-.45-.08-.16-.04-.31-.06-.45-.09s-.29-.06-.41-.09c-.11-.03-.72-.1-1.08,0-.1.04-.23.09-.37.16-.15.07-.3.15-.45.23s-.27.21-.42.41c-.17.23-.29.4-.45.79-.16.4-.21,1.04-.08,1.22.11.16.3.27.55.27s.74-.55.96-.68c.75-.45,1.26-.38,2.3-.34h.23c.14,0,.25,0,.38,0h.65c.15,0,.33.01.55.01h.81c.55,0,1.24,0,1.42,0,.19,0,.4,0,.64,0h.04v.16c.06.36.08,1.12.11,1.59.01.35.04.55.05.74.01.21.04.4.05.76,0,.13,0,.23.01.31v.04c0,.15.01.29.03.61,0,.52.01,1.07.01,1.66v.37s0,.1,0,.42c0,.61-.03,1.25-.05,1.86,0,.28-.03.61-.05,1.03-.03.4-.05.81-.08,1.22-.03.42-.06.83-.09,1.21-.04.39-.08.72-.12.98-.04.22-.04.38,0,.51.08.25.3.4.55.4.09,0,.19-.03.28-.07.19-.09.4-.18.64-.3.23-.11.45-.21.69-.31.25-.1.42-.26.51-.47.06-.15.09-.32.09-.53v-.29h0c0-.17,0-.37,0-.6v-.81c0-.3,0-.6,0-.91,0-.71-.01-1.52-.03-2.4,0-.44,0-.64-.01-.83,0-.2,0-.39-.01-.86,0-.92,0-1.4,0-2.3v-.88c0-.42,0-1.27,0-1.59v-.7h2.85c.25,0,.55,0,.87.01"/>
    <path class="cls-1" d="M49.66,25.88c-.04-.06-.11-.13-.25-.16h-.11c-.13,0-.28.03-.45.09-.16.06-.32.14-.48.23-.16.09-.32.19-.47.3-.16.11-.3.22-.4.32-.12.11-.21.2-.26.28-.06.09-.08.18-.06.28s.08.18.18.25h0c.03.08.04.14.05.21.01.08.03.16.04.24,0,.09.01.17.03.24.03.35.05.71.07,1.08.01.38.04.78.05,1.19.03.88,0,1.69-.05,2.39-.07.71-.13,1.32-.2,1.82-.01.12-.03.22,0,.3,0,.06.06.26.32.32.1.04.25.03.42-.03.09-.03.21-.08.34-.17.11-.07.25-.17.41-.29.16-.12.34-.28.55-.47.11-.1.19-.24.2-.39,0-.09,0-.2,0-.31-.06-.55-.1-1.11-.13-1.67-.03-.57-.04-1.08-.05-1.52v-.88c0-.32,0-.67.01-1.03.01-.35.04-.71.08-1.06.04-.34.09-.67.17-.96v-.03c.01-.08.04-.17.05-.26.04-.16-.01-.26-.05-.32"/>
    <path class="cls-1" d="M49.81,21.36c-.09-.06-.18-.09-.28-.09-.12,0-.3.04-.45.23-.11.12-.21.24-.31.34-.09.1-.17.18-.2.23-.19.22-.37.4-.52.52-.17.15-.32.29-.42.41-.1.11-.17.25-.2.37-.03.09-.04.17-.04.24-.03.18,0,.32.09.42.08.09.18.13.31.13s.26-.05.4-.15c.14-.09.32-.21.52-.37l.81-.62c.06-.05.14-.12.24-.19.1-.08.22-.17.34-.26.16-.11.2-.26.2-.36,0-.08,0-.17-.01-.26-.03-.15-.09-.28-.21-.39-.08-.08-.17-.14-.25-.19"/>
    <path class="cls-1" d="M59.32,34.64c.3-.11.56-.25.77-.39.25-.17.48-.38.67-.62s.34-.56.45-.92c.08-.27-.08-.42-.16-.47-.05-.04-.11-.06-.18-.08-.08-.03-.17-.04-.26-.04h-.04c-.13,0-.25.04-.33.13-.06.05-.11.12-.16.19-.11.19-.25.38-.42.53s-.35.3-.55.42c-.29.17-.62.31-1,.4-.73.17-1.52.17-2.22.03-.32-.07-.62-.18-.88-.33-.42-.25-.78-.55-1.06-.91-.29-.36-.52-.73-.68-1.1-.16-.37-.25-.73-.29-1.07-.03-.25,0-.47.04-.64v-.03h.04c.58-.11,1.2-.2,1.84-.26,1.25-.11,2.49-.13,3.67-.04.52.04,1.03.06,1.52.08.09,0,.17.01.23.01h.17c.29,0,.39-.17.41-.24.04-.1.04-.24-.01-.47-.07-.32-.22-.66-.43-1.01-.21-.35-.48-.67-.81-.97s-.71-.55-1.13-.74c-.44-.2-.91-.3-1.42-.3-.3,0-.6.04-.9.1-.48.11-.97.29-1.47.52-.5.23-.97.52-1.41.83-.73.53-1.26,1.09-1.6,1.67-.34.58-.55,1.15-.6,1.7-.04.47-.01.95.09,1.39.11.45.31.88.58,1.27s.63.73,1.07,1.01c.43.29.96.5,1.54.63.29.07.6.12.91.15.66.06,1.36.06,2.05,0,.36-.04.71-.09,1.03-.17.33-.07.65-.17.94-.28M54.34,27.94c.23-.15.47-.27.72-.38.26-.1.53-.19.8-.25.26-.06.51-.1.72-.13h.03s.05-.01.09-.01h.08c.21,0,.42.04.65.12.21.08.42.21.6.39.09.09.18.18.25.27l.06.07h-.28c-.6-.05-1.58-.05-2.7-.01-.31,0-.63.01-.96.03h-.14l.11-.07h-.03s0,0,0,0h0Z"/>
    <path class="cls-1" d="M66.52,27.65c.15-.04.3-.06.45-.09.36-.05.73-.04,1.06.05.07.03.12.05.17.09.06.04.12.09.18.14h.03c.24.18.47.19.69.02.15-.12.31-.25.47-.38s.31-.27.44-.4c.12-.11.17-.27.13-.45-.04-.12-.09-.24-.18-.32h0c-.2-.2-.45-.34-.77-.41-.77-.16-1.49-.14-2.15.05-.34.09-.66.21-.95.33-.41.17-.81.36-1.18.57l-.06.04v-.07c0-.12,0-.25-.03-.36-.03-.14-.08-.26-.17-.38-.15-.18-.32-.22-.43-.22-.04,0-.06,0-.09,0h-.08c-.12.07-.25.12-.38.19s-.25.14-.38.21-.24.15-.34.22c-.11.08-.2.15-.26.22-.07.07-.28.33,0,.73.01.04.04.1.07.21.03.1.04.24.05.4.03.49.04.97.05,1.44,0,.47.01.92.03,1.32v1.04c0,.35,0,.67-.03.97,0,.31-.03.58-.05.83-.01.24-.05.45-.08.61-.04.14-.06.26-.07.38-.04.25.11.45.38.51h.16c.1,0,.23,0,.37-.04.13-.04.26-.08.4-.13s.27-.11.4-.17c.13-.07.24-.12.33-.18.16-.11.22-.25.25-.34.01-.09.03-.22.01-.39-.03-.55-.04-1.09-.07-1.65-.03-.53-.04-1.01-.05-1.44,0-.4,0-.75-.04-1.06-.03-.28-.04-.53-.04-.75,0-.19.01-.35.06-.48.04-.1.09-.2.2-.29.12-.1.31-.2.55-.29.25-.09.59-.2,1-.31"/>
    <path class="cls-1" d="M75.01,27.65c.15-.04.3-.06.45-.09.36-.05.73-.04,1.06.05.07.03.12.05.17.09.06.04.12.09.18.14h.03c.24.18.47.19.69.02.15-.12.31-.25.47-.38s.31-.27.44-.4c.12-.11.17-.27.13-.45-.04-.12-.09-.24-.18-.32-.2-.2-.47-.34-.77-.41-.77-.16-1.49-.14-2.15.05-.34.09-.66.21-.95.33-.41.17-.81.36-1.18.57l-.06.04v-.07c0-.12,0-.25-.03-.36-.03-.13-.08-.26-.17-.38-.15-.18-.32-.22-.43-.22-.04,0-.06,0-.09,0h-.08c-.12.07-.25.12-.38.19-.12.07-.25.14-.38.21s-.24.15-.34.22c-.11.08-.2.15-.26.22-.07.07-.28.33,0,.73.01.04.04.09.07.21.03.1.04.24.05.4.03.49.04.97.05,1.44,0,.47.01.92.03,1.32v1.04c0,.36,0,.67-.03.97,0,.31-.03.58-.05.83-.01.24-.05.45-.08.61-.04.13-.05.26-.07.38-.04.25.11.45.38.51h.16c.1,0,.23,0,.37-.04.13-.04.26-.08.4-.13s.27-.11.4-.17.24-.12.33-.19c.17-.11.22-.25.25-.34.01-.09.03-.22.01-.39-.03-.56-.04-1.11-.07-1.65s-.04-1.01-.05-1.44c0-.4,0-.75-.04-1.06-.03-.28-.04-.53-.04-.75,0-.19.01-.35.06-.48.04-.1.09-.2.2-.29.12-.1.31-.2.55-.29.25-.09.59-.2,1-.31"/>
    <path class="cls-1" d="M86.05,34.74c-.03.08-.03.17,0,.27.01.06.1.26.4.26.07,0,.13,0,.19-.03.06-.01.17-.05.33-.11.14-.05.29-.1.45-.16l.45-.17c.15-.05.26-.1.34-.14.15-.07.25-.18.27-.33.01-.09,0-.21-.01-.35-.03-.09-.04-.21-.08-.35-.03-.12-.04-.29-.05-.47-.03-.64-.04-1.24-.06-1.8s-.04-1.08-.08-1.55-.08-.88-.14-1.25c-.06-.38-.16-.69-.27-.95-.17-.35-.4-.64-.71-.86-.3-.21-.63-.38-.99-.49-.36-.11-.73-.19-1.11-.23-.38-.04-.74-.04-1.07-.03-.47.04-.9.09-1.27.18-.38.09-.72.19-1.03.31-.32.11-.6.24-.88.37-.26.13-.51.24-.74.34-.2.09-.33.17-.43.27-.13.13-.13.26-.12.33,0,.06.05.18.2.25.05.03.12.06.23.09.09.04.2.07.32.1s.22.07.32.09c.1.04.2.06.27.07.04,0,.09.01.12.01.14.01.26,0,.38-.04.08-.04.17-.09.26-.17.38-.32.74-.57,1.08-.73.32-.15.7-.22,1.15-.2.47.01.85.08,1.15.18.28.1.52.25.68.43.17.18.3.42.39.71.07.24.11.5.15.8v.04h-.04c-.26.04-.53.08-.8.1-.37.04-.75.09-1.12.14-.39.05-.78.12-1.18.22-.41.09-.84.23-1.29.4-.6.24-1.16.52-1.65.86-.51.34-.88.73-1.12,1.13-.14.25-.22.49-.23.75,0,.25.04.48.13.7s.23.42.4.6c.17.17.36.32.56.43.35.18.74.32,1.15.39.65.1,1.35.13,2.03.06.27-.03.52-.06.74-.09.48-.09.97-.19,1.45-.32.29-.08.58-.17.86-.26l.07-.03v.07c-.02.05-.04.09-.05.14M85.75,33.34c-.21.12-.45.24-.69.33s-.5.18-.76.25c-.25.07-.51.12-.75.16-.14.01-.3.04-.47.04-.19,0-.4-.01-.6-.04s-.39-.07-.57-.12c-.17-.05-.34-.11-.49-.18-.14-.06-.25-.13-.32-.21-.08-.07-.13-.16-.17-.27-.04-.14-.06-.3-.06-.47,0-.14.01-.28.06-.41.04-.12.09-.25.18-.37s.21-.24.38-.35c.17-.12.38-.23.62-.33.19-.08.39-.15.57-.21.18-.05.38-.09.57-.13.2-.04.42-.06.64-.08.24-.01.49-.04.75-.04s.53,0,.83.01c.22.01.45.04.7.05h.04v2.03h0c-.13.13-.29.24-.45.33"/>
    <path class="cls-1" d="M105.42,30.57l.04-.03v.04c.08.14.14.28.21.44.12.3.26.62.41.98.15.37.31.75.47,1.14l.35.91c.09.24.15.41.19.52.06.18.12.32.2.41.15.19.39.28.62.22.08-.01.17-.04.32-.09.03,0,.04,0,.07-.01.09-.01.19-.04.29-.08l.35-.1.08-.04c.1-.05.42-.21.49-.53.04-.17.01-.35-.07-.53l-.03-.04c-.14-.25-.28-.49-.41-.75s-.26-.51-.4-.77c-.1-.2-.23-.45-.37-.73-.14-.28-.28-.57-.42-.86-.14-.3-.28-.58-.41-.85-.13-.26-.24-.49-.32-.67-.09-.17-.15-.31-.2-.42-.05-.11-.09-.22-.14-.32-.04-.09-.09-.18-.12-.27-.04-.09-.09-.19-.15-.32-.07-.15-.16-.35-.28-.61l-.4-.91c-.15-.33-.31-.67-.47-1.03s-.32-.71-.47-1.05c-.04-.09-.09-.22-.16-.36s-.13-.32-.22-.52-.18-.47-.29-.75-.24-.63-.4-1.08c-.09-.24-.16-.47-.23-.69-.06-.22-.12-.45-.17-.68-.01-.09-.04-.17-.04-.23-.01-.11-.04-.21-.07-.29-.06-.17-.18-.29-.34-.35-.13-.06-.29-.06-.45-.01-.05,0-.11.03-.16.04-.06.03-.12.06-.2.11l-.49.34c-.1.05-.2.11-.3.17-.09.06-.18.11-.28.17-.14.09-.25.19-.32.32-.07.11-.1.24-.11.37-.3,1.47-5.38,10.12-5.38,10.12-.08.12-.18.3-.32.52-.13.21-.27.43-.43.67-.15.23-.3.45-.44.66-.12.18-.24.33-.32.43l-.11.11-.18.19c-.06.07-.13.13-.19.19l-.12.12-.06.05-.04.07c-.14.25-.08.56.15.73.05.04.1.07.17.1.1.06.24.11.39.16.1.03.19.06.27.09l.07.03h.07c.17.01.32-.01.45-.08.11-.05.21-.13.3-.22.07-.07.14-.16.19-.25.04-.08.09-.15.13-.22l1.47-2.55c.08-.14.15-.27.22-.4.07-.12.14-.25.22-.39.07-.12.14-.26.23-.4l.16-.28h.03c.25-.01.53-.03.84-.04.42-.01.85-.04,1.3-.04s.88,0,1.34-.01h1.24c.32,0,.6.01.82.03s.41.03.57.04c.15.01.26.03.35.04.09.01.17.04.22.05.04,0,.08.03.1.04.06.04.13.06.2.09.14.06.21.09.25.11.17.09.33.11.48.08.06-.01.12-.04.18-.08M104.29,28.68c-.23,0-.5,0-.83,0h-.12c-.32,0-.68,0-1.09-.01-.51-.01-1.01-.04-1.49-.07-.49-.03-.94-.06-1.34-.09-.31-.03-.58-.05-.83-.08h-.06l.62-1.1c.17-.31.34-.6.49-.88l.4-.75c.12-.23.25-.45.38-.67.06-.12.14-.25.23-.4s.19-.32.31-.52.25-.41.4-.67l.41-.67.04.06c.07.13.14.26.2.38.11.22.23.44.32.64.09.19.19.4.29.6s.19.41.3.63c.18.4.35.76.48,1.05l.55,1.17c.06.13.12.25.18.38s.12.25.18.4.15.32.25.53l.03.05h-.31s0,0,0,0Z"/>
    <path class="cls-1" d="M118.21,35.2c.08,0,.17-.03.25-.07.11-.06.23-.12.35-.18l.74-.38c.12-.06.23-.12.32-.18.17-.11.26-.29.24-.47,0-.08-.03-.17-.04-.31-.01-.11-.03-.25-.04-.4l-.06-1.38c0-.26-.03-.55-.04-.86l-.04-.92c-.01-.3-.03-.57-.04-.83s-.01-.45-.03-.57c0-.16-.01-.32-.03-.5,0-.18-.04-.37-.09-.55-.04-.19-.12-.38-.23-.55-.1-.18-.26-.34-.45-.49-.23-.17-.57-.32-1.05-.47-.75-.22-1.63-.26-2.52-.13-.32.04-.65.12-.97.23s-.66.25-.99.42c-.15.08-.3.17-.45.26l-.06.04v-.39c0-.19-.05-.33-.16-.43-.09-.09-.23-.13-.39-.13h-.06c-.15,0-.3.05-.45.11-.12.06-.25.12-.37.19-.12.07-.23.15-.32.23-.08.07-.15.11-.19.15h-.01c-.12.12-.22.23-.27.33-.09.16-.09.39.13.58.07.06.1.13.12.21.03.13.05.28.06.47.03.43.05.86.07,1.29.01.44.03.87.04,1.29,0,.42,0,.83,0,1.22,0,.39,0,.75-.01,1.06,0,.19-.01.4-.04.63-.01.22-.04.45-.09.7-.03.11-.04.22-.05.3-.03.16.04.38.32.45.13.05.28.04.52-.04.12-.04.26-.09.42-.15.14-.06.28-.11.4-.17.13-.06.22-.1.29-.13h.03c.09-.08.17-.16.23-.24.07-.12.08-.26.04-.39-.06-.18-.09-.34-.09-.48l-.03-.48c-.01-.32-.03-.68-.04-1.08-.01-.38-.03-.79-.04-1.25l-.04-1.28c0-.36-.01-.71-.01-1.03h0s.01-.01.01-.01c.29-.21.6-.38.94-.5.4-.14.79-.25,1.17-.32.62-.1,1.17-.11,1.66-.01.22.04.41.11.57.21s.28.22.38.37.15.33.16.55c.03.4.04.77.05,1.12,0,.35.01.68.03,1,0,.31,0,.62,0,.94,0,.31,0,.63-.01.96,0,.16-.01.37-.04.64-.01.28-.04.6-.05.94,0,.17,0,.32,0,.44.04.3.23.4.39.4"/>
    <path class="cls-1" d="M128.35,25.96c-.08,0-.16.01-.25.05-.05.01-.1.04-.16.04-.29.07-.6.13-.88.18-.29.04-.6.08-.88.09h-.44c-.09,0-.18,0-.29,0-.1,0-.24,0-.39,0h-.25v-.04c0-.2.01-.41.03-.62.01-.33.04-.67.05-1.03s.04-.7.06-1.05c.03-.34.04-.68.08-1.01.03-.18-.04-.35-.17-.45-.1-.08-.23-.12-.38-.14h-.03c-.11,0-.25.04-.43.14-.14.08-.3.17-.45.27-.17.1-.32.22-.47.33-.16.12-.27.22-.36.31-.17.17-.24.34-.22.52.01.12.05.24.11.37.11.21.16.34.17.41.03.11.04.24.04.36v1.59h-.59c-.11,0-.22,0-.34,0h-.06c-.09,0-.18.01-.26.04-.09.04-.17.09-.25.19-.04.04-.09.09-.23.26-.1.14-.2.3-.29.48-.09.17-.08.3-.05.38.08.24.26.25.32.25h.12v-.03h.02c.15-.03.29-.05.42-.07.15-.03.3-.04.45-.06s.31-.03.47-.04h.27v1.39c-.01.24-.01.44-.03.61v.39c0,.25-.01.52-.03.84l-.04.96c0,.32-.01.64-.03.95v.82c.01.47.17.88.45,1.2.29.32.69.51,1.21.55h.08c.21,0,.47-.05.81-.15.32-.09.64-.21.97-.34.32-.12.64-.25.93-.38.28-.12.49-.22.63-.29.09-.04.16-.08.22-.13.09-.07.15-.17.17-.27.04-.1.06-.22.09-.34s.05-.33.07-.62c0-.17-.05-.28-.11-.33-.05-.06-.16-.13-.33-.13s-.36.07-.5.22h-.01c-.27.33-.55.59-.83.8-.26.2-.47.32-.64.37-.1.04-.19.05-.27.06-.09,0-.16.01-.23.01-.12,0-.21-.03-.26-.08s-.13-.17-.21-.4c-.03-.08-.07-.25-.1-.57-.04-.27-.06-.58-.08-.91-.03-.33-.04-.66-.04-.98,0-.32,0-.6,0-.81v-.51c0-.2,0-.41.01-.64l.04-1.21h.04c.06,0,.11.01.17.01.14.01.26.03.39.04s.23.04.34.05c.12.03.25.04.4.07.25.04.5.06.75.07h.09c.11,0,.22,0,.32-.04.11-.03.23-.07.32-.13.13-.07.26-.17.4-.26.13-.1.25-.21.37-.32.11-.12.22-.25.29-.4.08-.16.12-.32.12-.48,0-.22-.16-.39-.39-.39"/>
    <path class="cls-1" d="M132.52,21.36c-.09-.06-.18-.09-.28-.09-.12,0-.3.04-.45.23-.11.12-.21.24-.31.34-.09.09-.17.18-.2.23-.19.22-.37.4-.52.52-.17.15-.32.29-.42.41-.1.11-.17.25-.2.37-.01.09-.04.17-.04.24-.03.18,0,.32.09.42.08.09.18.13.31.13s.26-.05.4-.15c.15-.09.32-.21.52-.37l.81-.62c.06-.05.14-.12.24-.19.1-.08.22-.17.34-.26.16-.11.2-.26.2-.36,0-.08,0-.17-.01-.26-.03-.15-.09-.28-.21-.39-.08-.08-.17-.14-.25-.19"/>
    <path class="cls-1" d="M132.37,25.88c-.04-.06-.11-.13-.25-.16h-.1c-.13,0-.28.03-.45.09-.16.06-.32.14-.48.23-.16.09-.32.19-.47.3-.16.11-.3.22-.4.32-.12.11-.2.2-.26.28-.06.09-.08.18-.05.28s.08.17.18.25h0v.03c.03.05.04.11.05.19,0,.08.03.16.03.24,0,.09.01.17.03.24.03.35.05.71.07,1.08.01.37.04.77.05,1.19.03.88,0,1.69-.05,2.39-.07.71-.13,1.32-.2,1.82-.01.12-.03.22,0,.3,0,.06.06.26.32.32.1.04.25.03.42-.03.09-.03.21-.09.34-.17.11-.07.25-.17.41-.29.16-.12.34-.28.55-.47.11-.1.19-.24.2-.39,0-.09,0-.2,0-.31-.06-.55-.1-1.11-.12-1.67-.03-.57-.04-1.08-.05-1.52v-.88c0-.32,0-.67.01-1.03s.04-.71.08-1.06c.04-.34.09-.67.17-.96v-.03c.01-.08.04-.17.05-.26.04-.16-.01-.26-.05-.32"/>
    <path class="cls-1" d="M130.31,47c-.14-.17-.26-.32-.38-.45-.04-.04-.08-.05-.12-.05-.03,0-.05,0-.08.01-.05.03-.1.09-.09.17.03.2.11.88.3,1.32.24.58.61,1.1,1.13,1.58.67.61,1.3,1.15,2.23,1.52.92.36,1.88.66,2.87.79.99.12,2,.14,3.01.05s1.97-.32,2.85-.56c.91-.26,1.78-.6,2.61-.99.83-.4,1.59-.88,2.29-1.44.69-.56,1.33-1.21,1.9-1.94.56-.72,1.04-1.54,1.44-2.44.38-.88.57-1.75.58-2.59,0-.79.01-1.47-.32-2.34-.18-.47-.5-1.05-.84-1.54-.29-.41-.68-.8-1.17-1.13s-1.07-.61-1.74-.84c-.08-.03-.15-.05-.23-.08-.59-.2-1.14-.39-1.87-.44-.93-.09-1.59-.09-2.3-.04-.69.05-1.41.13-2.06.23-.78.11-1.29.17-1.94.24-.91.09-2.01.14-2.72-.19-.52-.25-.69-.37-.84-1.08-.06-.3.08-.66.41-1.08h0s.08-.05.11-.08c.15-.09.28-.17.45-.25.22-.09.45-.17.7-.23.25-.06.5-.1.74-.13.25-.03.47-.05.66-.07.15-.03.27-.12.32-.28.03-.07.05-.27.05-.29v-.03h.04c.18-.05.37-.09.53-.14.24-.07.47-.15.7-.24.23-.09.45-.2.66-.32.21-.12.44-.29.66-.47.47-.37.84-.74,1.12-1.08.29-.37.47-.73.55-1.07.08-.37.04-.73-.12-1.07-.06-.13-.15-.27-.25-.4l-.05-.06h.08c.13,0,.26-.01.41-.04.17-.03.36-.07.55-.15.19-.09.38-.19.55-.32s.33-.25.47-.39c.14-.14.25-.28.34-.42.09-.15.15-.29.17-.41.05-.24.04-.41-.04-.55-.06-.1-.18-.22-.45-.24-.09,0-.2,0-.31,0-.12,0-.25.04-.38.09-.12.05-.24.11-.32.18-.09.08-.18.19-.24.33h0s-.01.01-.01.01c0,0-.06.03-.09.04-.14.04-.32.05-.5.07-.19,0-.4,0-.59,0-.2,0-.36-.03-.49-.04-.32-.04-.6,0-.81.16-.11.09-.24.19-.36.32h-.01s-.03.01-.03.01c-.6-.17-1.23-.22-1.85-.16-.68.07-1.35.24-1.96.52-.61.3-1.13.64-1.52,1.03-.4.39-.71.83-.91,1.31-.18.4-.26.83-.25,1.28s.12.87.34,1.24c.22.38.55.68.97.92.11.06.24.11.38.16l.09.03-.08.04c-.23.12-.44.27-.62.44-.19.16-.36.32-.5.5l-.03.03c-.1.13-.21.25-.27.38h-.01c-.1.18-.17.33-.22.48-.2.63-.14,1.26.19,1.86.33.6.9,1.11,1.67,1.49.5.24.98.39,1.44.45.47.06.96.08,1.44.06s.98-.06,1.48-.14c.52-.07,1.07-.12,1.65-.15.6-.03,1.22-.01,1.86.04.66.06,1.38.21,2.15.45.81.25,1.44.63,1.88,1.15.41.48.86,1.07,1,1.85.17.88.18,2.3.04,3.14-.13.77-.53,1.42-.9,2l-.04.08c-.38.6-.83,1.13-1.33,1.58s-1.1.83-1.77,1.14c-.67.31-1.44.55-2.29.73-.82.17-1.67.28-2.55.35-.88.07-1.76.04-2.61-.09h-.04c-.83-.13-1.78-.28-2.81-.55-2.23-.87-3.14-2-3.74-2.74M135.74,28.69c.07-.18.17-.37.3-.56.12-.17.31-.33.53-.45.23-.13.47-.23.74-.29.25-.06.52-.09.79-.09h.04c.28,0,.57.04.84.12s.52.19.75.33c.21.14.37.31.49.52.13.22.21.45.25.69.04.25.01.47-.05.69-.06.21-.17.4-.33.53-.26.22-.52.38-.79.47-.29.1-.6.2-.96.29-.27.07-.52.1-.75.1-.09,0-.18,0-.27-.01-.29-.04-.55-.13-.75-.26-.21-.13-.39-.31-.53-.52-.15-.22-.27-.45-.36-.71-.01-.06-.04-.17-.04-.36,0-.16.04-.33.1-.51"/>
    <path class="cls-1" d="M153.68,34.91c.14-.06.28-.12.42-.19.15-.07.29-.15.41-.23.13-.09.23-.17.29-.25.06-.07.09-.15.1-.24,0-.14-.06-.32-.32-.37h-.03s-.03,0-.07-.07c-.03-.04-.09-.17-.12-.5-.04-.4-.07-.81-.08-1.22s0-.83,0-1.25c0-.41.03-.83.04-1.24.03-.43.04-.83.06-1.21.01-.43.04-.8.05-1.08s.04-.55.07-.76c.01-.18-.06-.33-.21-.4-.08-.04-.16-.05-.25-.05h-.05c-.27,0-.55.05-.82.13-.26.08-.45.15-.6.21-.25.09-.39.31-.37.56v.03c.04.22.05.45.07.66.01.23.04.47.06.72.05.57.09,1.1.15,1.59.04.45.07.84.08,1.17,0,.32,0,.61-.04.85-.04.23-.1.43-.21.61-.1.18-.26.38-.45.55-.2.18-.47.38-.81.58-.29.18-.61.32-.96.41-.53.14-1.11.17-1.67.09-.18-.03-.34-.07-.47-.14-.12-.06-.23-.15-.31-.25-.07-.09-.11-.24-.13-.41,0-.09,0-.21-.01-.38v-2.61c.01-.62.04-1.23.09-1.82.04-.6.09-1.21.16-1.84,0-.1,0-.21-.04-.32-.05-.2-.2-.32-.4-.32h-.06c-.17.03-.34.07-.52.12-.17.05-.34.11-.5.17-.16.06-.29.12-.4.17-.11.05-.18.09-.24.11-.19.09-.24.25-.25.32,0,.09,0,.17.04.26.04.08.06.18.08.29.01.13.01.26.01.41.01.4.03.8.03,1.2s0,.81.01,1.21v1.06c0,.31,0,.6.03.87,0,.26.03.51.04.73s.04.44.07.64c.05.36.18.67.4.91.2.23.45.42.75.56.29.14.6.24.96.3.83.13,1.72.1,2.58-.1.52-.12.96-.3,1.35-.52.04-.01.07-.04.09-.05.01,0,.06-.04.14-.09.07-.04.18-.11.35-.22.06-.04.14-.09.23-.14l.06-.04v.07c0,.15.03.31.08.45.04.09.1.19.19.27.14.13.28.16.38.16h.09c.1-.03.24-.06.4-.13"/>
    <path class="cls-1" d="M163.18,34.74c-.03.08-.03.17,0,.27.01.06.1.26.4.26.07,0,.13,0,.19-.03.08-.03.19-.06.33-.11s.29-.1.45-.16l.45-.17c.15-.05.26-.1.34-.14.15-.07.25-.18.27-.33.01-.09,0-.21-.01-.35-.03-.09-.05-.21-.08-.36-.03-.13-.04-.29-.05-.47-.03-.64-.04-1.24-.06-1.8-.01-.57-.04-1.08-.08-1.55s-.08-.88-.14-1.25c-.06-.38-.16-.69-.27-.95-.17-.35-.4-.64-.71-.86-.3-.21-.63-.38-.99-.49s-.73-.19-1.12-.23c-.38-.04-.75-.04-1.07-.03-.47.04-.9.09-1.27.18-.38.09-.72.19-1.03.31-.32.11-.6.24-.88.37-.26.13-.51.24-.74.34-.2.09-.33.17-.43.27-.13.13-.13.26-.12.33,0,.06.05.18.2.25.05.03.12.06.23.09.09.04.2.07.32.1s.22.07.32.09c.1.04.2.06.27.07.04,0,.09.01.12.01.14.01.26,0,.38-.04.08-.04.17-.09.26-.17.38-.32.74-.57,1.08-.73.32-.15.7-.22,1.15-.2.47.01.85.08,1.15.18.28.1.52.25.68.43.17.18.3.42.39.71.07.24.11.5.15.8v.04h-.04c-.26.04-.53.08-.8.1-.37.04-.75.09-1.12.14-.39.05-.78.12-1.18.22-.41.09-.84.23-1.29.4-.6.24-1.16.52-1.65.86-.51.34-.88.73-1.12,1.13-.14.25-.22.49-.23.75,0,.25.04.48.13.7s.23.42.4.6c.17.17.36.32.56.43.35.18.74.32,1.15.39.65.1,1.35.13,2.03.06.27-.03.52-.06.74-.09.48-.09.97-.19,1.45-.32.29-.08.58-.17.86-.26l.07-.03v.07c-.02.05-.04.09-.05.14M162.87,33.33c-.21.12-.45.24-.68.33-.25.09-.5.18-.76.25-.25.07-.51.12-.75.16-.14.01-.3.04-.47.04-.19,0-.4-.01-.6-.04s-.39-.07-.57-.12c-.17-.05-.34-.11-.49-.18-.14-.06-.25-.13-.32-.21-.08-.07-.13-.16-.17-.27-.04-.14-.06-.3-.06-.47,0-.14.01-.28.05-.41.04-.12.09-.25.18-.37s.21-.24.38-.35c.17-.12.38-.23.62-.33.19-.08.39-.15.57-.21.18-.05.38-.09.57-.13.2-.04.42-.06.64-.08.24-.01.49-.04.75-.04s.53,0,.83.01c.22,0,.45.04.7.05h.04v2.03h0c-.13.13-.29.24-.45.33"/>
  </g>
</svg>