<?xml version="1.0" encoding="UTF-8"?>
<svg id="Layer_1" data-name="Layer 1" xmlns="http://www.w3.org/2000/svg" viewBox="0 0 429.2 50">
  <defs>
    <style>
      .cls-1 {
        fill: #fff;
      }

      .cls-2 {
        isolation: isolate;
      }
    </style>
  </defs>
  <rect class="cls-1" x="194.13" y="8" width=".8" height="34"/>
  <g>
    <g class="cls-2">
      <g class="cls-2">
        <g class="cls-2">
          <g class="cls-2">
            <g class="cls-2">
              <g class="cls-2">
                <path class="cls-1" d="M206.43,19.2h6.8c1,0,1.9.1,2.7.4s1.5.7,2,1.2,1,1.1,1.3,1.8c.3.7.4,1.5.4,2.3h0c0,1-.2,1.9-.5,2.6s-.8,1.3-1.4,1.8c-.6.5-1.3.9-2.1,1.1s-1.7.4-2.6.4h-2.8v5h-3.7v-16.7l-.1.1h0ZM213.03,27.6c.9,0,1.6-.2,2.1-.7s.8-1.1.8-1.8h0c0-.9-.3-1.5-.8-1.9s-1.3-.6-2.2-.6h-2.8v5.1h2.9v-.1Z"/>
                <path class="cls-1" d="M222.33,19.2h7.6c2.1,0,3.7.6,4.9,1.7,1,1,1.4,2.2,1.4,3.8h0c0,1.4-.3,2.5-1,3.3s-1.5,1.5-2.6,1.9l4.1,6h-4.3l-3.6-5.3h-2.9v5.3h-3.7v-16.7h.1ZM229.73,27.3c.9,0,1.6-.2,2.1-.6s.7-1,.7-1.7h0c0-.8-.3-1.4-.8-1.8s-1.2-.6-2.1-.6h-3.6v4.8h3.7v-.1h0Z"/>
                <path class="cls-1" d="M239.73,19.2h3.7v16.7h-3.7v-16.7Z"/>
                <path class="cls-1" d="M247.53,19.2h3.4l7.8,10.3v-10.3h3.6v16.7h-3.1l-8.1-10.6v10.6h-3.6v-16.7h0Z"/>
                <path class="cls-1" d="M270.23,22.6h-5.1v-3.4h13.8v3.4h-5.1v13.3h-3.7v-13.3h.1Z"/>
              </g>
            </g>
          </g>
        </g>
      </g>
    </g>
    <g class="cls-2">
      <g class="cls-2">
        <g class="cls-2">
          <g class="cls-2">
            <g class="cls-2">
              <g class="cls-2">
                <path class="cls-1" d="M289.63,19h6.8c1,0,1.9.1,2.7.4s1.5.7,2,1.2,1,1.1,1.3,1.8c.3.7.4,1.5.4,2.3h0c0,1-.2,1.9-.5,2.6s-.8,1.3-1.4,1.8-1.3.9-2.1,1.1c-.8.2-1.7.4-2.6.4h-2.8v5h-3.7v-16.7l-.1.1h0ZM296.23,27.4c.9,0,1.6-.2,2.1-.7s.8-1.1.8-1.8h0c0-.9-.3-1.5-.8-1.9s-1.3-.6-2.2-.6h-2.8v5.1h2.9v-.1Z"/>
                <path class="cls-1" d="M313.63,36c-1.3,0-2.5-.2-3.5-.7s-2-1.1-2.8-1.8c-.8-.8-1.4-1.7-1.8-2.7s-.7-2.2-.7-3.3h0c0-1.2.2-2.4.7-3.4.4-1,1.1-2,1.8-2.7.8-.8,1.7-1.4,2.8-1.9s2.3-.7,3.6-.7,2.5.2,3.5.7,2,1.1,2.8,1.8,1.4,1.7,1.8,2.7.7,2.2.7,3.3h0c0,1.2-.2,2.4-.7,3.4-.4,1-1.1,2-1.8,2.7-.8.8-1.7,1.4-2.8,1.9-1.1.5-2.3.7-3.6.7ZM313.63,32.6c.7,0,1.4-.1,2-.4.6-.3,1.1-.6,1.6-1.1s.8-1,1-1.7c.2-.6.4-1.3.4-2h0c0-.8-.1-1.4-.4-2.1s-.6-1.2-1-1.7c-.5-.5-1-.9-1.6-1.1-.6-.3-1.3-.4-2-.4s-1.4.1-2,.4-1.1.6-1.6,1.1c-.4.5-.8,1-1,1.7s-.4,1.3-.4,2h0c0,.8.1,1.4.4,2.1s.6,1.2,1,1.7c.5.5,1,.9,1.6,1.1.6.3,1.3.4,2,.4Z"/>
                <path class="cls-1" d="M325.73,19h7.6c2.1,0,3.7.6,4.9,1.7,1,1,1.4,2.2,1.4,3.8h0c0,1.4-.3,2.5-1,3.3s-1.5,1.5-2.6,1.9l4.1,6h-4.3l-3.6-5.3h-2.9v5.3h-3.7v-16.7s.1,0,.1,0ZM333.13,27.1c.9,0,1.6-.2,2.1-.6s.7-1,.7-1.7h0c0-.8-.3-1.4-.8-1.8s-1.2-.6-2.1-.6h-3.6v4.8h3.7v-.1h0Z"/>
                <path class="cls-1" d="M346.83,22.4h-5.1v-3.4h13.8v3.4h-5.1v13.3h-3.7v-13.3h.1Z"/>
                <path class="cls-1" d="M364.13,18.9h3.4l7.1,16.8h-3.8l-1.5-3.7h-7l-1.5,3.7h-3.7l7.1-16.8s-.1,0-.1,0ZM367.93,28.7l-2.2-5.4-2.2,5.4h4.4Z"/>
                <path class="cls-1" d="M377.23,19h3.7v13.4h8.3v3.3h-12v-16.7Z"/>
              </g>
            </g>
          </g>
        </g>
      </g>
    </g>
  </g>
  <g>
    <g>
      <path class="cls-1" d="M66.32,43.06c-9.92,2.92-20.33-2.76-23.25-12.68-2.92-9.92,2.76-20.33,12.68-23.25,6.09-1.79,12.37-.34,16.98,3.35-4.89-4.43-11.9-6.28-18.7-4.28-10.38,3.05-16.32,13.95-13.27,24.33,3.05,10.38,13.95,16.32,24.33,13.27,1.99-.59,3.82-1.46,5.46-2.57-1.3.77-2.72,1.39-4.23,1.83"/>
      <path class="cls-1" d="M56,7.98c-4.57,1.35-8.35,4.39-10.64,8.58-2.28,4.19-2.8,9.01-1.45,13.59.25.86.57,1.7.94,2.5-.39-1.16-.68-2.38-.84-3.64-1.32-10.26,5.92-19.64,16.17-20.97,2.75-.35,5.44-.09,7.92.68-1.12-.48-2.29-.85-3.48-1.1-2.84-.59-5.82-.46-8.62.36Z"/>
    </g>
    <g>
      <g>
        <path class="cls-1" d="M49.39,16.97h13.62l.13,4.09h-.58c-.28-1.29-.64-2.12-1.08-2.51-.44-.39-1.35-.58-2.75-.58h-1.34v12.33c0,.93.15,1.5.44,1.73.29.22.93.37,1.91.44v.45h-7.02v-.45c1.02-.08,1.65-.25,1.91-.5.25-.26.38-.91.38-1.94v-12.05h-1.35c-1.33,0-2.24.19-2.72.58-.48.38-.85,1.22-1.09,2.52h-.59l.14-4.09Z"/>
        <path class="cls-1" d="M63.91,32.46c1-.1,1.63-.33,1.92-.68.28-.35.42-1.16.42-2.43v-9.78c0-.87-.14-1.44-.41-1.7-.27-.26-.9-.42-1.87-.46v-.45h4.75l5.53,12,5.4-12h4.79v.45c-.89.06-1.47.23-1.73.49-.26.26-.39.82-.39,1.67v10.71c0,.88.13,1.44.39,1.69.26.25.84.41,1.73.49v.45h-6.74v-.45c.97-.08,1.58-.25,1.82-.52.24-.27.36-.91.36-1.93v-10.81l-6.17,13.72h-.33l-6.06-13.15v9.6c0,1.32.19,2.17.58,2.57.25.26.81.44,1.68.53v.45h-5.66v-.45Z"/>
        <path class="cls-1" d="M95.28,17.08c.92.26,1.43.39,1.54.39.23,0,.44-.06.65-.19.2-.13.35-.32.42-.59h.51l.22,5.41h-.55c-.32-1.07-.74-1.94-1.26-2.6-.99-1.24-2.32-1.86-3.99-1.86s-3.06.67-4.13,2c-1.07,1.33-1.61,3.17-1.61,5.5,0,2.15.56,3.86,1.69,5.15,1.13,1.28,2.55,1.92,4.28,1.92,1.25,0,2.4-.3,3.45-.89.6-.34,1.27-.85,1.99-1.53l.45.45c-.53.67-1.2,1.27-1.99,1.78-1.35.86-2.81,1.29-4.39,1.29-2.59,0-4.64-.83-6.16-2.48-1.4-1.53-2.11-3.44-2.11-5.73s.74-4.31,2.22-5.9c1.56-1.67,3.59-2.51,6.09-2.51.87,0,1.76.13,2.68.39Z"/>
      </g>
      <g>
        <path class="cls-1" d="M105.6,16.98h1.71v7.13h7.69v-7.13h1.71v15.94h-1.71v-7.22h-7.69v7.22h-1.71v-15.94Z"/>
        <path class="cls-1" d="M120.53,16.98h9.72v1.57h-8.01v5.55h7.19v1.55h-7.19v5.69h8.13v1.57h-9.83v-15.94Z"/>
        <path class="cls-1" d="M138.33,16.88h1.68l6.08,16.03h-1.82l-1.55-4.19h-7.17l-1.55,4.19h-1.75l6.08-16.03ZM142.16,27.17l-3-8.08-3.03,8.08h6.03Z"/>
        <path class="cls-1" d="M148.76,16.98h1.71v14.36h7.4v1.57h-9.11v-15.94Z"/>
        <path class="cls-1" d="M162.55,18.57h-4.46v-1.59h10.65v1.59h-4.48v14.34h-1.71v-14.34Z"/>
        <path class="cls-1" d="M171.52,16.98h1.71v7.13h7.69v-7.13h1.71v15.94h-1.71v-7.22h-7.69v7.22h-1.71v-15.94Z"/>
      </g>
    </g>
  </g>
</svg>