<?xml version="1.0" encoding="UTF-8"?>
<svg id="Layer_1" data-name="Layer 1" xmlns="http://www.w3.org/2000/svg" viewBox="0 0 356.6 71.2">
  <defs>
    <style>
      .cls-1 {
        fill: #008996;
      }

      .cls-2 {
        fill: #ff6d2d;
      }
    </style>
  </defs>
  <g>
    <rect x="166.14" y="14.03" width=".99" height="52.37"/>
    <path d="M166.94,14.22v51.99h-.6V14.22h.6M167.32,13.84h-1.37v52.76h1.37V13.84h0Z"/>
  </g>
  <g>
    <g>
      <path class="cls-1" d="M213.69,29.64c-.25.52-.6.96-1.03,1.32s-.95.62-1.54.79c-.58.18-1.22.27-1.88.27h-2v3.58h-2.63v-11.95h4.88c.72,0,1.36.1,1.92.3s1.04.48,1.43.85.69.8.9,1.31c.21.51.32,1.07.32,1.68v.03c0,.69-.12,1.3-.37,1.82h0ZM211.4,27.83c0-.59-.19-1.04-.57-1.35s-.9-.46-1.56-.46h-2.03v3.65h2.08c.66,0,1.17-.17,1.54-.52s.55-.78.55-1.29v-.03h0Z"/>
      <path class="cls-1" d="M231.8,35.6l-2.56-3.82h-2.06v3.82h-2.63v-11.95h5.46c1.42,0,2.53.35,3.32,1.04s1.18,1.66,1.18,2.9v.03c0,.97-.23,1.76-.71,2.36-.47.61-1.09,1.06-1.85,1.34l2.92,4.27h-3.07,0ZM231.85,27.73c0-.57-.18-1-.55-1.28s-.87-.43-1.52-.43h-2.61v3.43h2.66c.65,0,1.15-.15,1.49-.46.35-.31.52-.72.52-1.23v-.03h0Z"/>
      <path class="cls-1" d="M245.54,35.6v-11.95h2.63v11.95h-2.63Z"/>
      <path class="cls-1" d="M268.07,35.6l-5.79-7.59v7.59h-2.6v-11.95h2.42l5.6,7.36v-7.36h2.6v11.95h-2.23Z"/>
      <path class="cls-1" d="M287.12,26.08v9.53h-2.63v-9.53h-3.64v-2.42h9.9v2.42h-3.63,0Z"/>
    </g>
    <g>
      <path class="cls-1" d="M199.75,50.76c-.25.52-.6.96-1.03,1.32s-.95.62-1.53.79c-.58.18-1.22.27-1.89.27h-2v3.58h-2.63v-11.95h4.88c.72,0,1.36.1,1.92.3s1.04.48,1.43.85.7.8.9,1.31c.21.51.32,1.07.32,1.68v.03c0,.69-.12,1.3-.37,1.82h0ZM197.46,48.96c0-.59-.19-1.04-.57-1.35-.38-.31-.9-.46-1.56-.46h-2.03v3.65h2.08c.66,0,1.17-.17,1.54-.52.37-.35.55-.78.55-1.29v-.03h0Z"/>
      <path class="cls-1" d="M222.3,53.15c-.32.75-.76,1.4-1.32,1.96-.57.56-1.23,1.01-2.01,1.33-.78.32-1.63.48-2.55.48s-1.77-.16-2.54-.48c-.77-.32-1.44-.76-2.01-1.32-.56-.55-1-1.2-1.32-1.95-.31-.75-.47-1.55-.47-2.4v-.03c0-.85.16-1.65.48-2.4.32-.75.76-1.4,1.32-1.96.56-.56,1.23-1.01,2.01-1.33.78-.32,1.63-.49,2.55-.49s1.77.16,2.54.49c.77.32,1.44.76,2.01,1.32s1,1.2,1.32,1.95c.31.75.47,1.55.47,2.4v.03c0,.85-.16,1.65-.48,2.4h0ZM220.03,50.75c0-.51-.09-1-.27-1.45-.18-.45-.43-.85-.75-1.2s-.71-.61-1.15-.81c-.44-.2-.93-.3-1.45-.3s-1.02.1-1.46.29c-.44.19-.82.46-1.13.8s-.56.74-.73,1.19-.27.93-.27,1.44v.03c0,.51.09,1,.27,1.45.18.45.43.85.75,1.2s.7.61,1.14.81.92.3,1.46.3,1.01-.1,1.45-.29.82-.46,1.13-.8.56-.74.73-1.19.27-.93.27-1.44v-.03h0Z"/>
      <path class="cls-1" d="M240.91,56.73l-2.56-3.82h-2.06v3.82h-2.63v-11.95h5.46c1.42,0,2.53.35,3.32,1.04.79.7,1.19,1.66,1.19,2.9v.03c0,.97-.23,1.76-.71,2.36-.47.61-1.09,1.06-1.85,1.34l2.92,4.27h-3.08ZM240.96,48.87c0-.57-.18-1-.55-1.28s-.87-.43-1.52-.43h-2.61v3.43h2.66c.65,0,1.15-.15,1.5-.46.35-.31.52-.72.52-1.23v-.03Z"/>
      <path class="cls-1" d="M259.94,47.2v9.53h-2.63v-9.53h-3.63v-2.42h9.9v2.42h-3.64,0Z"/>
      <path class="cls-1" d="M283.02,56.73l-1.09-2.68h-5.05l-1.09,2.68h-2.68l5.12-12.04h2.42l5.12,12.04h-2.75ZM279.4,47.85l-1.59,3.88h3.18l-1.59-3.88Z"/>
      <path class="cls-1" d="M296.15,56.73v-11.95h2.63v9.58h5.96v2.37h-8.59Z"/>
    </g>
  </g>
  <g>
    <g>
      <path class="cls-1" d="M98.75,67.74c-17.65,5.19-36.17-4.91-41.36-22.56-5.19-17.65,4.91-36.17,22.56-41.36,10.84-3.19,22-.6,30.21,5.95-8.7-7.88-21.18-11.17-33.26-7.62-18.47,5.43-29.04,24.81-23.61,43.28s24.81,29.04,43.28,23.6c3.55-1.04,6.8-2.6,9.71-4.57-2.31,1.37-4.83,2.47-7.53,3.26"/>
      <path class="cls-2" d="M80.38,5.31c-8.14,2.4-14.86,7.81-18.92,15.26-4.06,7.45-4.98,16.03-2.59,24.17.45,1.54,1.01,3.03,1.68,4.45-.7-2.06-1.21-4.23-1.5-6.48-2.36-18.25,10.52-34.95,28.77-37.3,4.89-.63,9.67-.17,14.09,1.2-1.99-.86-4.07-1.52-6.19-1.96-5.05-1.04-10.36-.82-15.34.65h0Z"/>
    </g>
    <g>
      <g>
        <path class="cls-1" d="M69.59,17.57h20.03l.19,6.02h-.85c-.42-1.89-.94-3.12-1.58-3.69-.64-.57-1.98-.86-4.04-.86h-1.97v18.12c0,1.37.21,2.21.64,2.54s1.36.54,2.8.65v.66h-10.32v-.66c1.5-.12,2.43-.36,2.8-.74s.55-1.33.55-2.86v-17.71h-1.99c-1.96,0-3.3.28-4,.85-.71.57-1.24,1.8-1.6,3.7h-.87s.21-6.02.21-6.02Z"/>
        <path class="cls-1" d="M90.93,40.34c1.47-.15,2.4-.48,2.82-.99s.62-1.7.62-3.57v-14.38c0-1.28-.2-2.11-.6-2.5s-1.32-.62-2.75-.68v-.66h6.98l8.13,17.64,7.94-17.64h7.04v.66c-1.32.09-2.16.33-2.54.72-.38.38-.57,1.21-.57,2.46v15.74c0,1.29.19,2.12.57,2.48s1.23.6,2.54.72v.66h-9.91v-.66c1.43-.12,2.32-.37,2.67-.77s.53-1.35.53-2.84v-15.9l-9.07,20.17h-.48l-8.91-19.34v14.12c0,1.93.28,3.2.85,3.78.37.38,1.19.64,2.47.78v.66h-8.32v-.66h-.01Z"/>
        <path class="cls-1" d="M137.06,17.72c1.35.38,2.1.57,2.26.57.33,0,.65-.09.95-.28s.51-.47.62-.87h.74l.33,7.96h-.81c-.47-1.58-1.09-2.85-1.85-3.82-1.45-1.82-3.41-2.73-5.86-2.73s-4.51.98-6.08,2.94-2.36,4.66-2.36,8.09c0,3.16.83,5.68,2.48,7.57,1.65,1.88,3.75,2.83,6.29,2.83,1.83,0,3.52-.44,5.07-1.32.89-.5,1.86-1.25,2.92-2.25l.66.66c-.78.99-1.76,1.86-2.92,2.61-1.98,1.27-4.13,1.9-6.45,1.9-3.8,0-6.83-1.22-9.06-3.65-2.06-2.25-3.1-5.06-3.1-8.42s1.09-6.34,3.27-8.68c2.3-2.46,5.28-3.68,8.96-3.68,1.28,0,2.6.19,3.94.57h0Z"/>
      </g>
      <g>
        <path d="M84.81,44.74h1.28v5.33h5.75v-5.33h1.28v11.92h-1.28v-5.4h-5.75v5.4h-1.28s0-11.92,0-11.92Z"/>
        <path d="M95.98,44.74h7.27v1.17h-5.99v4.15h5.38v1.16h-5.38v4.26h6.08v1.17h-7.36v-11.92h0Z"/>
        <path d="M109.29,44.67h1.26l4.55,11.99h-1.36l-1.16-3.13h-5.36l-1.16,3.13h-1.31l4.55-11.99h-.01ZM112.15,52.36l-2.25-6.04-2.26,6.04h4.51Z"/>
        <path d="M117.09,44.74h1.28v10.74h5.53v1.17h-6.81v-11.92h0Z"/>
        <path d="M127.4,45.93h-3.34v-1.19h7.97v1.19h-3.35v10.72h-1.28s0-10.72,0-10.72Z"/>
        <path d="M134.11,44.74h1.28v5.33h5.75v-5.33h1.28v11.92h-1.28v-5.4h-5.75v5.4h-1.28s0-11.92,0-11.92Z"/>
      </g>
    </g>
  </g>
</svg>