<?xml version="1.0" encoding="UTF-8"?>
<svg id="Layer_1" data-name="Layer 1" xmlns="http://www.w3.org/2000/svg" viewBox="0 0 429.2 50">
  <defs>
    <style>
      .cls-1 {
        fill: #fff;
      }

      .cls-2 {
        isolation: isolate;
      }
    </style>
  </defs>
  <rect class="cls-1" x="151.42" y="8" width=".8" height="34"/>
  <g>
    <g class="cls-2">
      <g class="cls-2">
        <g class="cls-2">
          <g class="cls-2">
            <g class="cls-2">
              <path class="cls-1" d="M163.72,19.2h6.8c1,0,1.9.1,2.7.4s1.5.7,2,1.2,1,1.1,1.3,1.8c.3.7.4,1.5.4,2.3h0c0,1-.2,1.9-.5,2.6s-.8,1.3-1.4,1.8c-.6.5-1.3.9-2.1,1.1s-1.7.4-2.6.4h-2.8v5h-3.7v-16.7l-.1.1ZM170.32,27.6c.9,0,1.6-.2,2.1-.7s.8-1.1.8-1.8h0c0-.9-.3-1.5-.8-1.9s-1.3-.6-2.2-.6h-2.8v5.1h2.9v-.1Z"/>
              <path class="cls-1" d="M179.62,19.2h7.6c2.1,0,3.7.6,4.9,1.7s1.4,2.2,1.4,3.8h0c0,1.4-.3,2.5-1,3.3s-1.5,1.5-2.6,1.9l4.1,6h-4.3l-3.6-5.3h-2.9v5.3h-3.7v-16.7h.1ZM187.02,27.3c.9,0,1.6-.2,2.1-.6s.7-1,.7-1.7h0c0-.8-.3-1.4-.8-1.8s-1.2-.6-2.1-.6h-3.6v4.8h3.7v-.1Z"/>
              <path class="cls-1" d="M197.02,19.2h3.7v16.7h-3.7v-16.7Z"/>
              <path class="cls-1" d="M204.82,19.2h3.4l7.8,10.3v-10.3h3.6v16.7h-3.1l-8.1-10.6v10.6h-3.6v-16.7h0Z"/>
              <path class="cls-1" d="M227.52,22.6h-5.1v-3.4h13.8v3.4h-5.1v13.3h-3.7v-13.3h.1Z"/>
            </g>
          </g>
        </g>
      </g>
    </g>
    <g class="cls-2">
      <g class="cls-2">
        <g class="cls-2">
          <g class="cls-2">
            <g class="cls-2">
              <path class="cls-1" d="M246.92,19h6.8c1,0,1.9.1,2.7.4s1.5.7,2,1.2,1,1.1,1.3,1.8c.3.7.4,1.5.4,2.3h0c0,1-.2,1.9-.5,2.6s-.8,1.3-1.4,1.8-1.3.9-2.1,1.1c-.8.2-1.7.4-2.6.4h-2.8v5h-3.7v-16.7l-.1.1ZM253.52,27.4c.9,0,1.6-.2,2.1-.7s.8-1.1.8-1.8h0c0-.9-.3-1.5-.8-1.9s-1.3-.6-2.2-.6h-2.8v5.1h2.9v-.1Z"/>
              <path class="cls-1" d="M270.92,36c-1.3,0-2.5-.2-3.5-.7s-2-1.1-2.8-1.8c-.8-.8-1.4-1.7-1.8-2.7s-.7-2.2-.7-3.3h0c0-1.2.2-2.4.7-3.4.4-1,1.1-2,1.8-2.7.8-.8,1.7-1.4,2.8-1.9s2.3-.7,3.6-.7,2.5.2,3.5.7,2,1.1,2.8,1.8,1.4,1.7,1.8,2.7.7,2.2.7,3.3h0c0,1.2-.2,2.4-.7,3.4-.4,1-1.1,2-1.8,2.7-.8.8-1.7,1.4-2.8,1.9-1.1.5-2.3.7-3.6.7ZM270.92,32.6c.7,0,1.4-.1,2-.4.6-.3,1.1-.6,1.6-1.1s.8-1,1-1.7c.2-.6.4-1.3.4-2h0c0-.8-.1-1.4-.4-2.1s-.6-1.2-1-1.7c-.5-.5-1-.9-1.6-1.1-.6-.3-1.3-.4-2-.4s-1.4.1-2,.4-1.1.6-1.6,1.1c-.4.5-.8,1-1,1.7s-.4,1.3-.4,2h0c0,.8.1,1.4.4,2.1s.6,1.2,1,1.7c.5.5,1,.9,1.6,1.1.6.3,1.3.4,2,.4Z"/>
              <path class="cls-1" d="M283.02,19h7.6c2.1,0,3.7.6,4.9,1.7,1,1,1.4,2.2,1.4,3.8h0c0,1.4-.3,2.5-1,3.3s-1.5,1.5-2.6,1.9l4.1,6h-4.3l-3.6-5.3h-2.9v5.3h-3.7v-16.7h.1ZM290.42,27.1c.9,0,1.6-.2,2.1-.6s.7-1,.7-1.7h0c0-.8-.3-1.4-.8-1.8s-1.2-.6-2.1-.6h-3.6v4.8h3.7v-.1Z"/>
              <path class="cls-1" d="M304.12,22.4h-5.1v-3.4h13.8v3.4h-5.1v13.3h-3.7v-13.3h.1Z"/>
              <path class="cls-1" d="M321.42,18.9h3.4l7.1,16.8h-3.8l-1.5-3.7h-7l-1.5,3.7h-3.7l7.1-16.8h-.1ZM325.22,28.7l-2.2-5.4-2.2,5.4h4.4Z"/>
              <path class="cls-1" d="M334.52,19h3.7v13.4h8.3v3.3h-12v-16.7Z"/>
            </g>
          </g>
        </g>
      </g>
    </g>
  </g>
  <g>
    <path class="cls-1" d="M90.62,44.7h-1.47v-4.02l-2.06,4.02h-.89l-2.06-4.02v4.02h-1.47v-6.88h1.58l2.39,4.66c.78-1.52,1.6-3.15,2.39-4.66h1.59v6.88h0Z"/>
    <path class="cls-1" d="M97.71,44.7h-1.58l-.56-1.32h-2.34l-.54,1.32h-1.59l2.83-6.88h.95l2.83,6.88h0ZM95.12,42.15l-.71-1.98c-.21.57-.47,1.34-.71,1.98h1.41Z"/>
    <path class="cls-1" d="M102.28,42.51l1.48,2.18h-1.65l-1.26-1.87h-1.1v1.87h-1.48v-6.88h2.76c1.41,0,2.54,1.08,2.54,2.5,0,.96-.51,1.77-1.29,2.19M99.75,41.6h1.28c.6,0,1.08-.54,1.08-1.28s-.49-1.28-1.08-1.28h-1.28v2.57h0Z"/>
    <path class="cls-1" d="M110.46,44.7h-1.58l-.56-1.32h-2.34l-.54,1.32h-1.59l2.83-6.88h.95l2.83,6.88h0ZM107.87,42.15l-.71-1.98c-.21.57-.47,1.34-.71,1.98h1.41Z"/>
    <polygon class="cls-1" points="117.31 44.7 115.74 44.7 112.69 40.18 112.69 44.7 111.22 44.7 111.22 37.82 112.78 37.82 115.83 42.34 115.83 37.82 117.31 37.82 117.31 44.7"/>
    <path class="cls-1" d="M124.52,44.7h-1.58l-.56-1.32h-2.34l-.54,1.32h-1.59l2.83-6.88h.95l2.83,6.88h0ZM121.92,42.15l-.71-1.98c-.21.57-.47,1.34-.71,1.98h1.41Z"/>
    <path class="cls-1" d="M133.64,44.7h-1.58l-.56-1.32h-2.34l-.54,1.32h-1.59l2.83-6.88h.95l2.83,6.88h0ZM131.04,42.15l-.71-1.98c-.21.57-.47,1.34-.71,1.98h1.41Z"/>
    <polygon class="cls-1" points="139.57 39.07 136.11 43.48 139.57 43.48 139.57 44.7 134.37 44.7 134.37 43.44 137.84 39.04 134.37 39.04 134.37 37.82 139.57 37.82 139.57 39.07"/>
    <path class="cls-1" d="M101.61,17.19l9.54-11.79,13.67,16.82-2.75,3.38h-13.67s-6.8-8.4-6.8-8.4ZM122.69,22.22l-11.53-14.18-7.41,9.16,5.45,6.74h12.09l1.4-1.72h0Z"/>
    <path class="cls-1" d="M100.16,12.78l3.58,4.41-6.86,8.4h-7.17s10.44-12.82,10.44-12.82ZM101.61,17.19l-1.45-1.78-6.96,8.52h2.89l5.51-6.74h0Z"/>
    <path class="cls-1" d="M122.69,22.22l3.76-4.63,6.48,8.01h-7.49l-2.75-3.38ZM126.44,20.23l-1.62,1.99,1.4,1.72h3.22l-3-3.71Z"/>
    <path class="cls-1" d="M85.95,30.23l-1.13,1.39h33.68c.1-.53.34-1.01.68-1.39h-33.22Z"/>
    <path class="cls-1" d="M83.88,32.77l-1.13,1.39h36.48c-.34-.39-.59-.86-.69-1.39h-34.66Z"/>
    <path class="cls-1" d="M121.92,32.73c-.29,0-.53-.24-.53-.53s.24-.53.53-.53h11.73c1.11,0,2.01-.9,2.01-2.01s-.9-2.02-2.01-2.02h-45.6l-1.21,1.48h46.81c.29,0,.53.24.53.53s-.24.53-.53.53h-11.73c-1.11,0-2.02.9-2.02,2.01s.9,2.01,2.02,2.01h17.98l-1.2-1.48h-16.78,0Z"/>
  </g>
</svg>