<?xml version="1.0" encoding="UTF-8"?>
<svg id="Layer_1" data-name="Layer 1" xmlns="http://www.w3.org/2000/svg" viewBox="0 0 356.6 71.2">
  <defs>
    <style>
      .cls-1 {
        fill: #fff;
      }

      .cls-2 {
        fill: #ab0520;
      }

      .cls-3 {
        fill: #0c234b;
      }
    </style>
  </defs>
  <g>
    <rect class="cls-2" x="181.96" y=".98" width="1.31" height="69.23"/>
    <path class="cls-2" d="M183.01,1.24v68.72h-.8V1.24h.8M183.52.73h-1.81v69.74h1.81V.73h0Z"/>
  </g>
  <g>
    <g>
      <path class="cls-1" d="M235.95,21.62c-.33.69-.79,1.27-1.37,1.74s-1.26.82-2.03,1.05c-.77.23-1.61.35-2.49.35h-2.64v4.74h-3.48v-15.79h6.46c.95,0,1.79.13,2.54.4s1.38.64,1.9,1.12c.52.48.91,1.06,1.19,1.73.28.67.42,1.41.42,2.22v.05c0,.91-.16,1.72-.49,2.41h0ZM232.92,19.23c0-.78-.25-1.38-.76-1.78s-1.19-.61-2.06-.61h-2.68v4.83h2.76c.87,0,1.55-.23,2.03-.69s.72-1.03.72-1.7v-.05h0Z"/>
      <path class="cls-1" d="M259.89,29.5l-3.39-5.05h-2.73v5.05h-3.48v-15.8h7.22c1.88,0,3.34.46,4.39,1.38s1.57,2.2,1.57,3.84v.05c0,1.28-.31,2.32-.94,3.13-.63.8-1.44,1.4-2.45,1.77l3.86,5.64h-4.06ZM259.95,19.1c0-.75-.24-1.32-.72-1.69s-1.15-.56-2.01-.56h-3.45v4.53h3.52c.86,0,1.51-.2,1.97-.61.46-.41.69-.95.69-1.63v-.04h0Z"/>
      <path class="cls-1" d="M278.05,29.5v-15.8h3.48v15.79h-3.48Z"/>
      <path class="cls-1" d="M307.84,29.5l-7.65-10.04v10.04h-3.43v-15.8h3.2l7.4,9.72v-9.72h3.43v15.79h-2.95Z"/>
      <path class="cls-1" d="M333.02,16.91v12.59h-3.48v-12.59h-4.81v-3.2h13.09v3.2h-4.8,0Z"/>
    </g>
    <g>
      <path class="cls-1" d="M217.52,49.54c-.33.69-.79,1.27-1.37,1.74s-1.26.82-2.03,1.05c-.77.23-1.61.35-2.5.35h-2.64v4.74h-3.48v-15.79h6.46c.95,0,1.79.13,2.54.4s1.38.64,1.9,1.12c.52.48.92,1.06,1.19,1.73.28.67.42,1.41.42,2.22v.05c0,.91-.16,1.72-.49,2.41h0ZM214.49,47.15c0-.78-.25-1.38-.76-1.78-.5-.41-1.19-.61-2.06-.61h-2.68v4.83h2.76c.87,0,1.55-.23,2.03-.69.48-.46.72-1.03.72-1.7v-.05h0Z"/>
      <path class="cls-1" d="M247.33,52.69c-.42.99-1,1.85-1.75,2.6-.75.74-1.63,1.33-2.66,1.76-1.03.43-2.16.64-3.38.64s-2.34-.21-3.36-.64c-1.02-.43-1.91-1.01-2.65-1.74-.74-.73-1.33-1.59-1.74-2.57-.41-.99-.62-2.04-.62-3.17v-.05c0-1.13.21-2.19.63-3.17.42-.99,1-1.85,1.75-2.59.74-.74,1.63-1.33,2.66-1.76,1.03-.43,2.16-.65,3.38-.65s2.34.21,3.36.65c1.02.43,1.91,1.01,2.65,1.74s1.32,1.59,1.74,2.57c.41.99.62,2.04.62,3.17v.05c0,1.12-.21,2.18-.63,3.17h0ZM244.33,49.52c0-.68-.12-1.32-.35-1.92-.23-.6-.56-1.13-.99-1.58s-.94-.81-1.52-1.07c-.58-.26-1.23-.4-1.92-.4s-1.35.13-1.93.38c-.58.25-1.08.61-1.49,1.06s-.74.98-.97,1.57-.35,1.23-.35,1.91v.05c0,.68.12,1.32.35,1.92.23.6.56,1.13.99,1.58s.93.81,1.51,1.07,1.22.4,1.93.4,1.33-.13,1.92-.38,1.09-.61,1.5-1.06.74-.98.97-1.57c.23-.59.35-1.23.35-1.91v-.05h0Z"/>
      <path class="cls-1" d="M271.92,57.42l-3.39-5.05h-2.73v5.05h-3.48v-15.79h7.22c1.88,0,3.34.46,4.39,1.38,1.05.92,1.57,2.2,1.57,3.84v.04c0,1.28-.31,2.32-.94,3.13-.63.8-1.44,1.4-2.45,1.77l3.86,5.64h-4.06ZM271.99,47.02c0-.75-.24-1.32-.72-1.69s-1.15-.56-2.01-.56h-3.45v4.53h3.52c.86,0,1.51-.2,1.98-.61.46-.41.69-.95.69-1.63v-.04Z"/>
      <path class="cls-1" d="M297.09,44.83v12.59h-3.48v-12.59h-4.8v-3.2h13.09v3.2h-4.81,0Z"/>
      <path class="cls-1" d="M327.59,57.42l-1.44-3.54h-6.68l-1.44,3.54h-3.54l6.77-15.91h3.2l6.77,15.91h-3.63,0ZM322.81,45.68l-2.1,5.12h4.2l-2.1-5.12Z"/>
      <path class="cls-1" d="M344.95,57.42v-15.79h3.48v12.66h7.87v3.14h-11.35Z"/>
    </g>
  </g>
  <g>
    <path class="cls-1" d="M47.46,33.21c0,.65.06,1.1.17,1.41s.31.58.56.83h-3.39c.27-.25.46-.52.56-.83s.17-.77.17-1.41v-9.02h-1c-.69,0-1.25.06-1.68.17s-.77.29-1.02.52l.63-2.08h8.88l-.58,2.04c-.19-.23-.44-.4-.73-.5-.31-.1-.69-.17-1.14-.17h-1.39l-.02,9.05h0Z"/>
    <path class="cls-1" d="M54.22,33.46c0,.56.04,1,.15,1.27.1.27.27.52.5.73h-3.03c.23-.21.4-.46.5-.73s.15-.69.15-1.27v-7.3c0-.56-.04-1-.15-1.27s-.27-.52-.5-.73h3.03c-.23.21-.42.46-.5.73-.1.27-.15.69-.15,1.27v2.52h5.97v-2.52c0-.56-.04-1-.15-1.27s-.27-.52-.5-.73h3.03c-.23.21-.4.46-.5.73s-.15.69-.15,1.27v7.3c0,.56.04,1,.15,1.27.1.27.27.52.5.73h-3.03c.25-.21.42-.46.5-.73.1-.27.15-.69.15-1.27v-3.47h-5.97v3.47h0Z"/>
    <path class="cls-1" d="M64.06,35.43c.23-.21.4-.46.5-.73s.15-.69.15-1.27v-7.3c0-.56-.04-1-.15-1.27s-.27-.52-.5-.73h6.07v1.79c-.27-.23-.56-.38-.89-.48-.33-.1-.71-.15-1.12-.15-.23,0-.46.02-.73.06s-.58.08-.91.17v3.18h2.72v1.64c-.13-.15-.31-.27-.52-.33-.23-.06-.63-.1-1.2-.1h-1v4.04c.42.06.81.1,1.14.15s.65.04.89.04c.56,0,1.1-.08,1.6-.23.5-.15,1-.4,1.47-.71l-.77,2.21-6.76.02h0Z"/>
    <path class="cls-1" d="M85.75,35.43v-.96c-.6.44-1.2.77-1.83.98s-1.25.33-1.87.33c-.73,0-1.37-.13-1.93-.36-.56-.25-1.06-.6-1.45-1.08-.31-.38-.56-.83-.69-1.33-.15-.5-.21-1.18-.21-2.04v-5.93c0-.63-.06-1.1-.17-1.41s-.29-.56-.56-.81h3.39c-.25.23-.44.5-.56.81-.1.29-.17.77-.17,1.41v5.55c0,.85.04,1.5.13,1.91s.23.75.42,1c.23.29.56.52.96.67s.85.23,1.41.23c.46,0,.87-.06,1.27-.21.4-.13.73-.33,1.04-.58.27-.21.46-.5.56-.85s.17-.81.17-1.41v-6.28c0-.67-.06-1.14-.17-1.43s-.29-.56-.56-.79h3.41c-.27.23-.46.5-.56.83-.1.31-.17.79-.17,1.39v8.15c0,.63.06,1.1.17,1.41s.29.58.56.81l-2.58-.02h-.02Z"/>
    <path class="cls-1" d="M100.7,24.16c-.25.21-.42.46-.5.73-.1.27-.15.69-.15,1.27v9.57c-.4-.02-.75-.15-1.1-.38-.36-.25-.79-.71-1.31-1.39l-5.74-7.34v6.86c0,.58.04,1.02.15,1.29s.27.5.5.71h-2.52c.23-.21.4-.46.5-.73s.15-.69.15-1.27v-7.28c0-.56-.04-1-.15-1.27s-.27-.52-.5-.73h2.25l6.57,8.46v-6.49c0-.56-.04-1-.15-1.27s-.27-.52-.5-.73l2.5-.02h0Z"/>
    <path class="cls-1" d="M104.92,33.46c0,.56.04,1,.15,1.27.1.27.27.52.5.73h-3.03c.25-.21.42-.46.5-.73.1-.27.15-.69.15-1.27v-7.3c0-.56-.04-1-.15-1.27s-.27-.52-.5-.73h3.03c-.25.21-.42.46-.5.73-.1.27-.15.69-.15,1.27v7.3h0Z"/>
    <path class="cls-1" d="M112.01,35.75c-.48-.13-.87-.4-1.2-.81s-.65-1.04-.94-1.87l-2.25-6.57c-.19-.54-.36-.98-.52-1.33-.17-.33-.36-.67-.54-.98h2.29c.02.19.02.36.06.52.02.17.06.31.1.46l2.7,8.07,2.56-6.71c.08-.21.13-.42.19-.63.04-.21.06-.4.06-.58,0-.15-.04-.31-.13-.48-.08-.17-.23-.38-.44-.65h2.54l-4.49,11.56h0Z"/>
    <path class="cls-1" d="M117.29,35.43c.23-.21.4-.46.5-.73s.15-.69.15-1.27v-7.3c0-.56-.04-1-.15-1.27s-.27-.52-.5-.73h6.07v1.79c-.27-.23-.56-.38-.89-.48s-.71-.15-1.12-.15c-.21,0-.46.02-.73.06s-.58.08-.91.17v3.18h2.72v1.64c-.13-.15-.31-.27-.52-.33s-.63-.1-1.2-.1h-1v4.04c.42.06.81.1,1.14.15s.65.04.89.04c.56,0,1.1-.08,1.6-.23s1-.4,1.47-.71l-.77,2.21-6.76.02h0Z"/>
    <path class="cls-1" d="M127.96,33.46c0,.56.04,1,.15,1.27.1.27.27.52.5.73h-3.03c.23-.21.4-.46.5-.73s.15-.69.15-1.27v-7.3c0-.56-.04-1-.15-1.27s-.27-.52-.5-.73h3.85c1.1,0,1.98.27,2.66.79.67.54,1.02,1.23,1.02,2.08,0,.63-.21,1.16-.6,1.62-.42.48-1.04.89-1.89,1.25l2.89,3.91c.17.23.38.48.63.75.23.27.52.54.81.81l-.85.08h-.15c-.4,0-.79-.1-1.18-.33-.38-.21-.71-.52-.98-.89l-3.3-4.64c.98-.23,1.7-.52,2.16-.91s.69-.89.69-1.5c0-.56-.19-1.04-.58-1.39-.4-.36-.89-.54-1.54-.54-.15,0-.31.02-.52.04s-.44.06-.69.1l-.02,8.07h0Z"/>
    <path class="cls-1" d="M135.45,35.18l-.52-2.04c.65.44,1.27.77,1.87.98s1.2.31,1.81.31c.77,0,1.37-.17,1.83-.5s.69-.77.69-1.29c0-.15-.02-.31-.06-.46s-.1-.29-.21-.44c-.21-.31-.87-.75-2.04-1.33-.29-.15-.52-.25-.69-.33-1.08-.56-1.83-1.06-2.23-1.52s-.6-1.02-.6-1.66c0-.91.38-1.64,1.1-2.19s1.75-.81,3.01-.81c.38,0,.77.02,1.2.08.44.04.91.13,1.43.23v1.89c-.46-.36-.91-.63-1.39-.79-.46-.17-.94-.27-1.45-.27-.63,0-1.14.15-1.54.42s-.58.65-.58,1.08c0,.4.15.75.46,1.04.29.31.98.71,2.04,1.23.06.02.15.06.27.13.89.42,1.56.81,2,1.14.33.25.58.58.77.96s.27.77.27,1.18c0,.98-.44,1.79-1.31,2.48-.87.67-1.96,1.02-3.26,1.02-.42,0-.87-.04-1.35-.15-.42-.04-.96-.19-1.52-.4h.01Z"/>
    <path class="cls-1" d="M146.86,33.46c0,.56.04,1,.15,1.27.1.27.27.52.5.73h-3.05c.25-.21.42-.46.5-.73.1-.27.15-.69.15-1.27v-7.3c0-.56-.04-1-.15-1.27s-.27-.52-.5-.73h3.08c-.25.21-.42.46-.5.73-.1.27-.15.69-.15,1.27l-.02,7.3h0Z"/>
    <path class="cls-1" d="M84.46,43.13l-1.83,4.7h3.64l-1.81-4.7h0ZM84.67,39.11l1,2.46,3.81,9.57c.42,1.06.75,2.1,1.79,2.64v.06h-3.76v-.06c.89-.42.75-.6.25-1.91l-1-2.62h-4.66l-.96,2.62c-.4,1.04-.52,1.58.38,1.91v.06h-3.37v-.06c1.06-.54,1.37-1.58,1.77-2.64l4.72-11.94v-.08h.04-.01Z"/>
    <path class="cls-1" d="M61.11,43.48c-1.23,0-2.25.44-3.05,1.29-.81.85-1.2,1.96-1.2,3.3s.4,2.52,1.18,3.43,1.79,1.37,2.97,1.37,2.25-.44,3.05-1.29c.79-.87,1.2-1.98,1.2-3.3s-.4-2.52-1.18-3.43c-.79-.94-1.79-1.37-2.97-1.37h0ZM61.04,54.09c-.85,0-1.64-.15-2.39-.42s-1.39-.67-1.93-1.18c-.56-.54-1-1.18-1.31-1.91s-.46-1.5-.46-2.31c0-.63.1-1.25.29-1.85s.48-1.14.85-1.66c.58-.79,1.29-1.41,2.16-1.83.85-.44,1.79-.65,2.79-.65.85,0,1.66.15,2.41.42.75.27,1.39.67,1.93,1.18.58.54,1.02,1.18,1.31,1.91.31.75.46,1.54.46,2.39,0,.79-.17,1.56-.52,2.31-.33.75-.83,1.41-1.43,2-.56.52-1.18.91-1.89,1.18-.69.27-1.45.42-2.27.42h0Z"/>
    <path class="cls-1" d="M70.5,51.82c0,.56.04,1,.15,1.27s.27.52.52.73h-3.05c.23-.21.4-.46.5-.73s.15-.69.15-1.27v-7.3c0-.56-.04-1-.15-1.27s-.27-.52-.5-.73h6.09v1.79c-.27-.23-.56-.38-.89-.48-.33-.1-.71-.15-1.12-.15-.23,0-.46.02-.75.06-.27.04-.58.08-.91.17v3.18h2.74v1.64c-.13-.15-.31-.27-.52-.31-.23-.06-.63-.1-1.2-.1h-1.02l-.02,3.49h-.01Z"/>
    <path class="cls-1" d="M94.5,51.82c0,.56.04.98.15,1.27.1.27.27.52.5.73h-3.03c.23-.21.4-.46.5-.73s.15-.69.15-1.27v-7.3c0-.56-.04-1-.15-1.27s-.27-.52-.5-.73h3.85c1.1,0,1.98.27,2.66.79.67.54,1,1.23,1,2.08,0,.63-.21,1.16-.6,1.64s-1.04.89-1.89,1.25l2.89,3.91c.17.23.38.48.63.73s.52.52.83.81l-.85.08h-.15c-.4,0-.79-.1-1.18-.33-.4-.21-.71-.52-.98-.89l-3.3-4.64c.98-.23,1.7-.52,2.16-.91s.69-.89.69-1.5c0-.56-.19-1.04-.58-1.39s-.89-.54-1.54-.54c-.15,0-.31.02-.52.04s-.44.06-.69.1l-.02,8.07h0Z"/>
    <path class="cls-1" d="M104.8,51.82c0,.56.04,1,.15,1.27s.27.52.5.73h-3.03c.23-.21.4-.46.5-.73s.15-.69.15-1.27v-7.3c0-.56-.04-.98-.15-1.27-.1-.27-.27-.52-.5-.73h3.03c-.25.21-.42.46-.5.73-.1.27-.15.69-.15,1.27v7.3h0Z"/>
    <path class="cls-1" d="M116.04,51.69l-.81,2.1h-8.67l5.91-9.82c-.44-.1-.85-.19-1.25-.25s-.75-.08-1.08-.08c-.5,0-.96.06-1.41.19s-.91.31-1.39.58l.77-1.89h7.19l-5.91,9.82c.67.08,1.2.13,1.66.17.44.04.83.04,1.16.04.77,0,1.47-.08,2.1-.21s1.2-.38,1.73-.65h0Z"/>
    <path class="cls-1" d="M122.51,43.48c-1.25,0-2.27.44-3.05,1.29s-1.2,1.96-1.2,3.3.4,2.52,1.18,3.43,1.79,1.37,2.97,1.37,2.25-.44,3.05-1.29c.79-.87,1.2-1.98,1.2-3.3s-.4-2.52-1.18-3.43c-.81-.94-1.79-1.37-2.97-1.37h0ZM122.45,54.09c-.85,0-1.64-.15-2.39-.42s-1.39-.67-1.93-1.18c-.56-.54-1-1.18-1.31-1.91s-.46-1.5-.46-2.31c0-.63.1-1.25.29-1.85s.48-1.14.85-1.66c.58-.79,1.31-1.41,2.16-1.83.85-.44,1.79-.65,2.79-.65.87,0,1.66.15,2.41.42.75.27,1.39.67,1.93,1.18.58.54,1.02,1.18,1.31,1.91.31.75.46,1.54.46,2.39,0,.79-.17,1.56-.52,2.31-.33.75-.83,1.41-1.43,2-.56.52-1.18.91-1.89,1.18s-1.45.42-2.27.42h0Z"/>
    <path class="cls-1" d="M140.16,42.55c-.25.21-.42.46-.5.73-.1.27-.15.69-.15,1.27v9.55c-.4-.02-.75-.15-1.1-.38-.36-.25-.79-.71-1.31-1.37l-5.76-7.38v6.86c0,.58.04,1.02.15,1.29s.25.5.5.71h-2.52c.23-.21.4-.46.5-.73s.15-.69.15-1.27v-7.3c0-.56-.04-.98-.15-1.27-.1-.27-.27-.52-.5-.73h2.25l6.57,8.46v-6.49c0-.56-.06-.98-.15-1.27-.1-.27-.27-.52-.5-.73h2.52v.04h0Z"/>
    <path class="cls-1" d="M144.26,48.47h3.26l-1.58-4.37-1.68,4.37h0ZM142.74,52.28c-.04.1-.08.23-.1.36s-.04.25-.04.38c0,.1.04.23.1.36.08.13.21.27.38.44h-2.62c.21-.15.42-.36.58-.63s.36-.63.54-1.08l3.12-8.05c.06-.15.1-.29.15-.44s.04-.27.04-.4-.02-.25-.08-.36c-.06-.1-.17-.21-.31-.33h2.54l3.53,9.46c.17.44.33.77.54,1.04.19.27.44.52.73.77h-3.18l.04-.04c.29-.31.44-.54.44-.69,0-.17-.06-.42-.19-.77-.02-.06-.02-.1-.04-.13l-.96-2.6h-4.14l-1.06,2.7h0Z"/>
    <path class="cls-1" d="M157.68,24.16l2.89,4.91,1.93-3.2c.13-.19.21-.38.27-.54s.08-.29.08-.42-.04-.25-.13-.38c-.08-.13-.19-.25-.36-.4h2.62l-3.81,6.22v3.08c0,.56.04,1,.15,1.27s.27.52.5.73h-3.05c.25-.21.42-.46.5-.73.1-.27.15-.69.15-1.27v-3.12l-2.6-4.29c-.27-.4-.46-.44-.71-.54-.27-.1-.73-.1-1.14-.1h-1.25v8.05c0,.56.04,1,.15,1.27.1.27.27.52.5.73h-3.05c.23-.21.42-.46.5-.73.1-.27.15-.69.15-1.27v-8.05h-.89c-.63,0-1.12.04-1.5.15s-.69.25-.91.48l.56-1.85h8.47Z"/>
    <polygon class="cls-1" points="34.36 16.26 34.36 28.95 33.09 28.95 38.21 42.61 42.6 42.65 42.6 55.33 .3 55.33 .3 42.65 4.67 42.67 9.83 28.95 8.52 28.95 8.52 16.26 34.36 16.26"/>
    <polyline class="cls-3" points="21.45 20.98 29.62 20.98 29.62 24.27 26.23 24.27 35.15 47.25 37.77 47.25 37.77 50.62 26.73 50.62 26.73 47.35 23.61 47.35 23.61 53.8 41.08 53.8 41.08 44.17 37.15 44.17 30.87 27.43 32.84 27.43 32.84 17.82 21.45 17.82 21.45 17.82 10.06 17.82 10.06 27.43 12.03 27.43 5.75 44.17 1.82 44.17 1.82 53.8 19.27 53.8 19.27 47.35 16.17 47.35 16.17 50.62 5.11 50.62 5.11 47.25 7.75 47.25 16.67 24.27 13.28 24.27 13.28 20.98 21.45 20.98"/>
    <path class="cls-3" d="M46.11,50.99c.31.31.48.69.48,1.14s-.17.83-.48,1.14-.71.46-1.16.46-.85-.15-1.16-.46-.48-.69-.48-1.14.17-.83.48-1.14.71-.46,1.16-.46c.46-.02.85.17,1.16.46h0ZM45.88,51.2c-.25-.25-.56-.4-.94-.4s-.69.13-.94.4c-.25.25-.38.58-.38.96s.13.69.38.96c.25.25.56.4.94.4s.69-.13.94-.4c.25-.25.38-.58.38-.96.02-.4-.13-.71-.38-.96h0ZM44.24,51.2h.75c.21,0,.36.04.48.13.1.08.17.21.17.38s-.06.31-.17.42c-.08.08-.19.13-.33.15l.54.81h-.33l-.48-.81h-.31v.81h-.31v-1.87h0ZM44.53,52.03h.4c.15,0,.23-.02.31-.08.06-.04.1-.13.1-.23,0-.08-.04-.17-.1-.21s-.17-.06-.31-.06h-.4v.58h0Z"/>
    <path class="cls-2" d="M21.45,21.02l9.07,23.5s1.16,2.85,3.03,2.85h-6.59s.33.04.67-.5c.19-.31.02-.79.02-.79l-2.04-5.24h-8.32l-2.04,5.24s-.15.48.04.79c.33.54.67.5.67.5h-6.61c1.89,0,3.03-2.85,3.03-2.85l9.07-23.5M21.43,38.34h3.2l-3.18-8.23-3.18,8.23h3.16Z"/>
  </g>
</svg>