<?xml version="1.0" encoding="UTF-8"?>
<svg id="Layer_1" data-name="Layer 1" xmlns="http://www.w3.org/2000/svg" viewBox="0 0 429.2 50">
  <defs>
    <style>
      .cls-1 {
        fill: #fff;
      }

      .cls-2 {
        isolation: isolate;
      }

      .cls-3 {
        fill: #ab0520;
      }

      .cls-4 {
        fill: #0c234b;
      }
    </style>
  </defs>
  <rect class="cls-1" x="205.41" y="8" width=".8" height="34"/>
  <g>
    <g class="cls-2">
      <g class="cls-2">
        <g class="cls-2">
          <g class="cls-2">
            <g class="cls-2">
              <g class="cls-2">
                <path class="cls-1" d="M217.71,19.2h6.8c1,0,1.9.1,2.7.4s1.5.7,2,1.2,1,1.1,1.3,1.8c.3.7.4,1.5.4,2.3h0c0,1-.2,1.9-.5,2.6s-.8,1.3-1.4,1.8c-.6.5-1.3.9-2.1,1.1s-1.7.4-2.6.4h-2.8v5h-3.7v-16.7l-.1.1ZM224.31,27.6c.9,0,1.6-.2,2.1-.7s.8-1.1.8-1.8h0c0-.9-.3-1.5-.8-1.9s-1.3-.6-2.2-.6h-2.8v5.1h2.9v-.1Z"/>
                <path class="cls-1" d="M233.61,19.2h7.6c2.1,0,3.7.6,4.9,1.7,1,1,1.4,2.2,1.4,3.8h0c0,1.4-.3,2.5-1,3.3s-1.5,1.5-2.6,1.9l4.1,6h-4.3l-3.6-5.3h-2.9v5.3h-3.7v-16.7h.1ZM241.01,27.3c.9,0,1.6-.2,2.1-.6s.7-1,.7-1.7h0c0-.8-.3-1.4-.8-1.8s-1.2-.6-2.1-.6h-3.6v4.8h3.7v-.1Z"/>
                <path class="cls-1" d="M251.01,19.2h3.7v16.7h-3.7v-16.7Z"/>
                <path class="cls-1" d="M258.81,19.2h3.4l7.8,10.3v-10.3h3.6v16.7h-3.1l-8.1-10.6v10.6h-3.6v-16.7h0Z"/>
                <path class="cls-1" d="M281.51,22.6h-5.1v-3.4h13.8v3.4h-5.1v13.3h-3.7v-13.3h.1Z"/>
              </g>
            </g>
          </g>
        </g>
      </g>
    </g>
    <g class="cls-2">
      <g class="cls-2">
        <g class="cls-2">
          <g class="cls-2">
            <g class="cls-2">
              <g class="cls-2">
                <path class="cls-1" d="M300.91,19h6.8c1,0,1.9.1,2.7.4s1.5.7,2,1.2,1,1.1,1.3,1.8c.3.7.4,1.5.4,2.3h0c0,1-.2,1.9-.5,2.6s-.8,1.3-1.4,1.8-1.3.9-2.1,1.1c-.8.2-1.7.4-2.6.4h-2.8v5h-3.7v-16.7l-.1.1ZM307.51,27.4c.9,0,1.6-.2,2.1-.7s.8-1.1.8-1.8h0c0-.9-.3-1.5-.8-1.9s-1.3-.6-2.2-.6h-2.8v5.1h2.9v-.1Z"/>
                <path class="cls-1" d="M324.91,36c-1.3,0-2.5-.2-3.5-.7s-2-1.1-2.8-1.8c-.8-.8-1.4-1.7-1.8-2.7s-.7-2.2-.7-3.3h0c0-1.2.2-2.4.7-3.4.4-1,1.1-2,1.8-2.7.8-.8,1.7-1.4,2.8-1.9s2.3-.7,3.6-.7,2.5.2,3.5.7,2,1.1,2.8,1.8,1.4,1.7,1.8,2.7.7,2.2.7,3.3h0c0,1.2-.2,2.4-.7,3.4-.4,1-1.1,2-1.8,2.7-.8.8-1.7,1.4-2.8,1.9-1.1.5-2.3.7-3.6.7ZM324.91,32.6c.7,0,1.4-.1,2-.4.6-.3,1.1-.6,1.6-1.1s.8-1,1-1.7c.2-.6.4-1.3.4-2h0c0-.8-.1-1.4-.4-2.1s-.6-1.2-1-1.7c-.5-.5-1-.9-1.6-1.1-.6-.3-1.3-.4-2-.4s-1.4.1-2,.4-1.1.6-1.6,1.1c-.4.5-.8,1-1,1.7s-.4,1.3-.4,2h0c0,.8.1,1.4.4,2.1s.6,1.2,1,1.7c.5.5,1,.9,1.6,1.1.6.3,1.3.4,2,.4Z"/>
                <path class="cls-1" d="M337.01,19h7.6c2.1,0,3.7.6,4.9,1.7,1,1,1.4,2.2,1.4,3.8h0c0,1.4-.3,2.5-1,3.3s-1.5,1.5-2.6,1.9l4.1,6h-4.3l-3.6-5.3h-2.9v5.3h-3.7v-16.7h.1ZM344.41,27.1c.9,0,1.6-.2,2.1-.6s.7-1,.7-1.7h0c0-.8-.3-1.4-.8-1.8s-1.2-.6-2.1-.6h-3.6v4.8h3.7v-.1Z"/>
                <path class="cls-1" d="M358.11,22.4h-5.1v-3.4h13.8v3.4h-5.1v13.3h-3.7v-13.3h.1Z"/>
                <path class="cls-1" d="M375.41,18.9h3.4l7.1,16.8h-3.8l-1.5-3.7h-7l-1.5,3.7h-3.7l7.1-16.8h-.1ZM379.21,28.7l-2.2-5.4-2.2,5.4h4.4Z"/>
                <path class="cls-1" d="M388.51,19h3.7v13.4h8.3v3.3h-12v-16.7Z"/>
              </g>
            </g>
          </g>
        </g>
      </g>
    </g>
  </g>
  <g>
    <path class="cls-1" d="M76,22.41c0,.65.06,1.1.17,1.41s.31.58.56.83h-3.4c.27-.25.46-.52.56-.83s.17-.77.17-1.41v-9.05h-1c-.69,0-1.25.06-1.69.17s-.77.29-1.02.52l.63-2.09h8.91l-.58,2.05c-.19-.23-.44-.4-.73-.5-.31-.1-.69-.17-1.14-.17h-1.39l-.02,9.08h-.02Z"/>
    <path class="cls-1" d="M82.78,22.66c0,.56.04,1,.15,1.27.1.27.27.52.5.73h-3.04c.23-.21.4-.46.5-.73s.15-.69.15-1.27v-7.32c0-.56-.04-1-.15-1.27s-.27-.52-.5-.73h3.04c-.23.21-.42.46-.5.73-.1.27-.15.69-.15,1.27v2.53h5.99v-2.53c0-.56-.04-1-.15-1.27s-.27-.52-.5-.73h3.04c-.23.21-.4.46-.5.73s-.15.69-.15,1.27v7.32c0,.56.04,1,.15,1.27.1.27.27.52.5.73h-3.04c.25-.21.42-.46.5-.73.1-.27.15-.69.15-1.27v-3.48h-5.99v3.48h0Z"/>
    <path class="cls-1" d="M92.65,24.63c.23-.21.4-.46.5-.73s.15-.69.15-1.27v-7.32c0-.56-.04-1-.15-1.27s-.27-.52-.5-.73h6.09v1.8c-.27-.23-.56-.38-.89-.48s-.71-.15-1.12-.15c-.23,0-.46.02-.73.06s-.58.08-.91.17v3.19h2.73v1.65c-.13-.15-.31-.27-.52-.33-.23-.06-.63-.1-1.2-.1h-1v4.05c.42.06.81.1,1.14.15s.65.04.89.04c.56,0,1.1-.08,1.61-.23.5-.15,1-.4,1.47-.71l-.77,2.22-6.78.02h.01Z"/>
    <path class="cls-1" d="M114.41,24.63v-.96c-.6.44-1.2.77-1.84.98s-1.25.33-1.88.33c-.73,0-1.37-.13-1.94-.36-.56-.25-1.06-.6-1.45-1.08-.31-.38-.56-.83-.69-1.33-.15-.5-.21-1.18-.21-2.05v-5.95c0-.63-.06-1.1-.17-1.41s-.29-.56-.56-.81h3.4c-.25.23-.44.5-.56.81-.1.29-.17.77-.17,1.41v5.57c0,.85.04,1.5.13,1.92s.23.75.42,1c.23.29.56.52.96.67s.85.23,1.41.23c.46,0,.87-.06,1.27-.21.4-.13.73-.33,1.04-.58.27-.21.46-.5.56-.85s.17-.81.17-1.41v-6.3c0-.67-.06-1.14-.17-1.43s-.29-.56-.56-.79h3.42c-.27.23-.46.5-.56.83-.1.31-.17.79-.17,1.39v8.18c0,.63.06,1.1.17,1.41s.29.58.56.81l-2.59-.02h-.02.01Z"/>
    <path class="cls-1" d="M129.41,13.33c-.25.21-.42.46-.5.73-.1.27-.15.69-.15,1.27v9.6c-.4-.02-.75-.15-1.1-.38-.36-.25-.79-.71-1.31-1.39l-5.76-7.36v6.88c0,.58.04,1.02.15,1.29s.27.5.5.71h-2.53c.23-.21.4-.46.5-.73s.15-.69.15-1.27v-7.3c0-.56-.04-1-.15-1.27s-.27-.52-.5-.73h2.26l6.59,8.49v-6.51c0-.56-.04-1-.15-1.27s-.27-.52-.5-.73l2.51-.02h0Z"/>
    <path class="cls-1" d="M133.65,22.66c0,.56.04,1,.15,1.27.1.27.27.52.5.73h-3.04c.25-.21.42-.46.5-.73.1-.27.15-.69.15-1.27v-7.32c0-.56-.04-1-.15-1.27s-.27-.52-.5-.73h3.04c-.25.21-.42.46-.5.73-.1.27-.15.69-.15,1.27v7.32h0Z"/>
    <path class="cls-1" d="M140.76,24.95c-.48-.13-.87-.4-1.2-.81s-.65-1.04-.94-1.88l-2.26-6.59c-.19-.54-.36-.98-.52-1.33-.17-.33-.36-.67-.54-.98h2.3c.02.19.02.36.06.52.02.17.06.31.1.46l2.71,8.1,2.57-6.73c.08-.21.13-.42.19-.63.04-.21.06-.4.06-.58,0-.15-.04-.31-.13-.48-.08-.17-.23-.38-.44-.65h2.55l-4.5,11.6h.01Z"/>
    <path class="cls-1" d="M146.06,24.63c.23-.21.4-.46.5-.73s.15-.69.15-1.27v-7.32c0-.56-.04-1-.15-1.27s-.27-.52-.5-.73h6.09v1.8c-.27-.23-.56-.38-.89-.48s-.71-.15-1.12-.15c-.21,0-.46.02-.73.06s-.58.08-.91.17v3.19h2.73v1.65c-.13-.15-.31-.27-.52-.33s-.63-.1-1.2-.1h-1v4.05c.42.06.81.1,1.14.15s.65.04.89.04c.56,0,1.1-.08,1.61-.23s1-.4,1.47-.71l-.77,2.22-6.78.02h.01Z"/>
    <path class="cls-1" d="M156.76,22.66c0,.56.04,1,.15,1.27.1.27.27.52.5.73h-3.04c.23-.21.4-.46.5-.73s.15-.69.15-1.27v-7.32c0-.56-.04-1-.15-1.27s-.27-.52-.5-.73h3.86c1.1,0,1.99.27,2.67.79.67.54,1.02,1.23,1.02,2.09,0,.63-.21,1.16-.6,1.63-.42.48-1.04.89-1.9,1.25l2.9,3.92c.17.23.38.48.63.75.23.27.52.54.81.81l-.85.08h-.15c-.4,0-.79-.1-1.18-.33-.38-.21-.71-.52-.98-.89l-3.31-4.66c.98-.23,1.71-.52,2.17-.91s.69-.89.69-1.5c0-.56-.19-1.04-.58-1.39-.4-.36-.89-.54-1.54-.54-.15,0-.31.02-.52.04s-.44.06-.69.1l-.02,8.1h-.03Z"/>
    <path class="cls-1" d="M164.28,24.38l-.52-2.05c.65.44,1.27.77,1.88.98s1.2.31,1.82.31c.77,0,1.37-.17,1.84-.5s.69-.77.69-1.29c0-.15-.02-.31-.06-.46s-.1-.29-.21-.44c-.21-.31-.87-.75-2.05-1.33-.29-.15-.52-.25-.69-.33-1.08-.56-1.84-1.06-2.24-1.52s-.6-1.02-.6-1.67c0-.91.38-1.65,1.1-2.2s1.76-.81,3.02-.81c.38,0,.77.02,1.2.08.44.04.91.13,1.43.23v1.9c-.46-.36-.91-.63-1.39-.79-.46-.17-.94-.27-1.45-.27-.63,0-1.14.15-1.54.42s-.58.65-.58,1.08c0,.4.15.75.46,1.04.29.31.98.71,2.05,1.23.06.02.15.06.27.13.89.42,1.57.81,2.01,1.14.33.25.58.58.77.96s.27.77.27,1.18c0,.98-.44,1.8-1.31,2.49-.87.67-1.97,1.02-3.27,1.02-.42,0-.87-.04-1.35-.15-.42-.04-.96-.19-1.52-.4h.01-.01Z"/>
    <path class="cls-1" d="M175.72,22.66c0,.56.04,1,.15,1.27.1.27.27.52.5.73h-3.06c.25-.21.42-.46.5-.73.1-.27.15-.69.15-1.27v-7.32c0-.56-.04-1-.15-1.27s-.27-.52-.5-.73h3.09c-.25.21-.42.46-.5.73-.1.27-.15.69-.15,1.27l-.02,7.32h-.01Z"/>
    <path class="cls-1" d="M113.12,32.36l-1.84,4.72h3.65l-1.82-4.72h0ZM113.33,28.32l1,2.47,3.82,9.6c.42,1.06.75,2.11,1.8,2.65v.06h-3.77v-.06c.89-.42.75-.6.25-1.92l-1-2.63h-4.68l-.96,2.63c-.4,1.04-.52,1.59.38,1.92v.06h-3.38v-.06c1.06-.54,1.37-1.59,1.78-2.65l4.74-11.98v-.08h.04-.01,0Z"/>
    <path class="cls-1" d="M89.69,32.71c-1.23,0-2.26.44-3.06,1.29-.81.85-1.2,1.97-1.2,3.31s.4,2.53,1.18,3.44,1.8,1.37,2.98,1.37,2.26-.44,3.06-1.29c.79-.87,1.2-1.99,1.2-3.31s-.4-2.53-1.18-3.44c-.79-.94-1.8-1.37-2.98-1.37h0ZM89.62,43.35c-.85,0-1.65-.15-2.4-.42s-1.39-.67-1.94-1.18c-.56-.54-1-1.18-1.31-1.92s-.46-1.5-.46-2.32c0-.63.1-1.25.29-1.86s.48-1.14.85-1.67c.58-.79,1.29-1.41,2.17-1.84.85-.44,1.8-.65,2.8-.65.85,0,1.67.15,2.42.42.75.27,1.39.67,1.94,1.18.58.54,1.02,1.18,1.31,1.92.31.75.46,1.54.46,2.4,0,.79-.17,1.57-.52,2.32-.33.75-.83,1.41-1.43,2.01-.56.52-1.18.91-1.9,1.18-.69.27-1.45.42-2.28.42h0Z"/>
    <path class="cls-1" d="M99.11,41.08c0,.56.04,1,.15,1.27s.27.52.52.73h-3.06c.23-.21.4-.46.5-.73s.15-.69.15-1.27v-7.32c0-.56-.04-1-.15-1.27s-.27-.52-.5-.73h6.11v1.8c-.27-.23-.56-.38-.89-.48s-.71-.15-1.12-.15c-.23,0-.46.02-.75.06-.27.04-.58.08-.91.17v3.19h2.75v1.65c-.13-.15-.31-.27-.52-.31-.23-.06-.63-.1-1.2-.1h-1.02l-.02,3.5h-.02Z"/>
    <path class="cls-1" d="M123.19,41.08c0,.56.04.98.15,1.27.1.27.27.52.5.73h-3.04c.23-.21.4-.46.5-.73s.15-.69.15-1.27v-7.32c0-.56-.04-1-.15-1.27s-.27-.52-.5-.73h3.86c1.1,0,1.99.27,2.67.79.67.54,1,1.23,1,2.09,0,.63-.21,1.16-.6,1.65s-1.04.89-1.9,1.25l2.9,3.92c.17.23.38.48.63.73s.52.52.83.81l-.85.08h-.15c-.4,0-.79-.1-1.18-.33-.4-.21-.71-.52-.98-.89l-3.31-4.66c.98-.23,1.71-.52,2.17-.91s.69-.89.69-1.5c0-.56-.19-1.04-.58-1.39s-.89-.54-1.54-.54c-.15,0-.31.02-.52.04s-.44.06-.69.1l-.02,8.1h-.03Z"/>
    <path class="cls-1" d="M133.53,41.08c0,.56.04,1,.15,1.27s.27.52.5.73h-3.04c.23-.21.4-.46.5-.73s.15-.69.15-1.27v-7.32c0-.56-.04-.98-.15-1.27-.1-.27-.27-.52-.5-.73h3.04c-.25.21-.42.46-.5.73-.1.27-.15.69-.15,1.27v7.32h0Z"/>
    <path class="cls-1" d="M144.8,40.94l-.81,2.11h-8.7l5.93-9.85c-.44-.1-.85-.19-1.25-.25s-.75-.08-1.08-.08c-.5,0-.96.06-1.41.19s-.91.31-1.39.58l.77-1.9h7.21l-5.93,9.85c.67.08,1.2.13,1.67.17.44.04.83.04,1.16.04.77,0,1.47-.08,2.11-.21s1.2-.38,1.74-.65h0Z"/>
    <path class="cls-1" d="M151.29,32.71c-1.25,0-2.28.44-3.06,1.29s-1.2,1.97-1.2,3.31.4,2.53,1.18,3.44,1.8,1.37,2.98,1.37,2.26-.44,3.06-1.29c.79-.87,1.2-1.99,1.2-3.31s-.4-2.53-1.18-3.44c-.81-.94-1.8-1.37-2.98-1.37h0ZM151.23,43.35c-.85,0-1.65-.15-2.4-.42s-1.39-.67-1.94-1.18c-.56-.54-1-1.18-1.31-1.92s-.46-1.5-.46-2.32c0-.63.1-1.25.29-1.86s.48-1.14.85-1.67c.58-.79,1.31-1.41,2.17-1.84.85-.44,1.8-.65,2.8-.65.87,0,1.67.15,2.42.42.75.27,1.39.67,1.94,1.18.58.54,1.02,1.18,1.31,1.92.31.75.46,1.54.46,2.4,0,.79-.17,1.57-.52,2.32-.33.75-.83,1.41-1.43,2.01-.56.52-1.18.91-1.9,1.18s-1.45.42-2.28.42h0Z"/>
    <path class="cls-1" d="M169,31.78c-.25.21-.42.46-.5.73-.1.27-.15.69-.15,1.27v9.58c-.4-.02-.75-.15-1.1-.38-.36-.25-.79-.71-1.31-1.37l-5.78-7.4v6.88c0,.58.04,1.02.15,1.29s.25.5.5.71h-2.53c.23-.21.4-.46.5-.73s.15-.69.15-1.27v-7.32c0-.56-.04-.98-.15-1.27-.1-.27-.27-.52-.5-.73h2.26l6.59,8.49v-6.51c0-.56-.06-.98-.15-1.27-.1-.27-.27-.52-.5-.73h2.53v.04h0Z"/>
    <path class="cls-1" d="M173.11,37.71h3.27l-1.59-4.38-1.69,4.38h0ZM171.59,41.54c-.04.1-.08.23-.1.36s-.04.25-.04.38c0,.1.04.23.1.36.08.13.21.27.38.44h-2.63c.21-.15.42-.36.58-.63s.36-.63.54-1.08l3.13-8.08c.06-.15.1-.29.15-.44s.04-.27.04-.4-.02-.25-.08-.36c-.06-.1-.17-.21-.31-.33h2.55l3.54,9.49c.17.44.33.77.54,1.04.19.27.44.52.73.77h-3.19l.04-.04c.29-.31.44-.54.44-.69,0-.17-.06-.42-.19-.77-.02-.06-.02-.1-.04-.13l-.96-2.61h-4.15l-1.06,2.71h-.01Z"/>
    <path class="cls-1" d="M186.58,13.33l2.9,4.93,1.94-3.21c.13-.19.21-.38.27-.54s.08-.29.08-.42-.04-.25-.13-.38c-.08-.13-.19-.25-.36-.4h2.63l-3.82,6.24v3.09c0,.56.04,1,.15,1.27s.27.52.5.73h-3.06c.25-.21.42-.46.5-.73.1-.27.15-.69.15-1.27v-3.13l-2.61-4.3c-.27-.4-.46-.44-.71-.54-.27-.1-.73-.1-1.14-.1h-1.25v8.08c0,.56.04,1,.15,1.27.1.27.27.52.5.73h-3.06c.23-.21.42-.46.5-.73.1-.27.15-.69.15-1.27v-8.08h-.89c-.63,0-1.12.04-1.5.15s-.69.25-.91.48l.56-1.86h8.5-.02Z"/>
    <polygon class="cls-1" points="62.86 5.4 62.86 18.13 61.58 18.13 66.72 31.84 71.12 31.88 71.12 44.6 28.69 44.6 28.69 31.88 33.07 31.9 38.25 18.13 36.93 18.13 36.93 5.4 62.86 5.4"/>
    <polyline class="cls-4" points="49.91 10.14 58.1 10.14 58.1 13.44 54.7 13.44 63.65 36.49 66.28 36.49 66.28 39.87 55.2 39.87 55.2 36.59 52.07 36.59 52.07 43.06 69.6 43.06 69.6 33.4 65.66 33.4 59.36 16.61 61.33 16.61 61.33 6.97 49.91 6.97 49.91 6.97 38.48 6.97 38.48 16.61 40.45 16.61 34.15 33.4 30.21 33.4 30.21 43.06 47.72 43.06 47.72 36.59 44.61 36.59 44.61 39.87 33.51 39.87 33.51 36.49 36.16 36.49 45.11 13.44 41.71 13.44 41.71 10.14 49.91 10.14"/>
    <path class="cls-4" d="M74.65,40.24c.31.31.48.69.48,1.14s-.17.83-.48,1.14-.71.46-1.16.46-.85-.15-1.16-.46-.48-.69-.48-1.14.17-.83.48-1.14.71-.46,1.16-.46c.46-.02.85.17,1.16.46h0ZM74.41,40.45c-.25-.25-.56-.4-.94-.4s-.69.13-.94.4c-.25.25-.38.58-.38.96s.13.69.38.96c.25.25.56.4.94.4s.69-.13.94-.4c.25-.25.38-.58.38-.96.02-.4-.13-.71-.38-.96h0ZM72.77,40.45h.75c.21,0,.36.04.48.13.1.08.17.21.17.38s-.06.31-.17.42c-.08.08-.19.13-.33.15l.54.81h-.33l-.48-.81h-.31v.81h-.31v-1.88h0v-.02ZM73.06,41.29h.4c.15,0,.23-.02.31-.08.06-.04.1-.13.1-.23,0-.08-.04-.17-.1-.21s-.17-.06-.31-.06h-.4v.58h0Z"/>
    <path class="cls-3" d="M49.91,10.18l9.1,23.58s1.16,2.86,3.04,2.86h-6.61s.33.04.67-.5c.19-.31.02-.79.02-.79l-2.05-5.26h-8.35l-2.05,5.26s-.15.48.04.79c.33.54.67.5.67.5h-6.63c1.9,0,3.04-2.86,3.04-2.86l9.1-23.58M49.88,27.55h3.21l-3.19-8.26-3.19,8.26h3.17Z"/>
  </g>
</svg>