<?xml version="1.0" encoding="UTF-8"?>
<svg id="Layer_1" xmlns="http://www.w3.org/2000/svg" version="1.1" viewBox="0 0 429.2 50">
  <!-- Generator: Adobe Illustrator 29.0.1, SVG Export Plug-In . SVG Version: 2.1.0 Build 192)  -->
  <defs>
    <style>
      .st0 {
        fill: #fff;
      }

      .st1 {
        fill: #215a99;
      }

      .st2 {
        isolation: isolate;
      }

      .st3 {
        fill: #ffd100;
      }
    </style>
  </defs>
  <g>
    <rect class="st3" x="225.7" y="8" width=".8" height="34"/>
    <g>
      <g>
        <path class="st0" d="M139.2,44.2c0-1.5,1.2-2.7,3-2.7s1.5.2,2,.7l-.7.8c-.4-.3-.8-.4-1.2-.4-1,0-1.8.7-1.8,1.7s.7,1.7,1.7,1.7,1-.2,1.4-.5l.8.8c-.5.5-1.3.8-2.1.8-1.7,0-3-1.2-3-2.7h0v-.2h0Z"/>
        <path class="st0" d="M146.6,41.7h2.4c1.7,0,2.5.9,2.5,2s-.4,1.3-1.1,1.7l1.2,1.5h-1.4l-.9-1.2h-1.6v1.2h-1.2v-5.2h.1ZM149,44.7c.7,0,1.2-.5,1.2-1s-.5-1.1-1.2-1.1h-1.2v2.1h1.2Z"/>
        <path class="st0" d="M153.9,41.7h4.4v1h-3.2v1.1h3v1h-3v1.3h3.3v1h-4.5v-5.2h0s0-.2,0-.2Z"/>
        <path class="st0" d="M160.8,41.7h2.3c1.9,0,3,1.2,3,2.6s-1.2,2.6-3,2.6h-2.3v-5.2h0ZM163,45.9c1.1,0,1.8-.7,1.8-1.6s-.7-1.6-1.8-1.6h-1v3.3h1Z"/>
        <path class="st0" d="M168.5,41.7h1.2v5.2h-1.2v-5.2Z"/>
        <path class="st0" d="M174,42.6h-1.9v-1h5v1h-1.9v4.2h-1.2v-4.2h0Z"/>
        <path class="st0" d="M182,44.8v-3.1h1.2v3.1c0,.8.5,1.2,1.2,1.2s1.2-.4,1.2-1.2v-3.1h1.2v3.1c0,1.4-1,2.2-2.4,2.2s-2.4-.8-2.4-2.2h0Z"/>
        <path class="st0" d="M189.4,41.7h1.2l1.9,2.5c.3.4.7,1,.7,1v-3.4h1.2v5.2h-1.2l-1.9-2.4c-.4-.5-.7-1-.7-1v3.4h-1.2v-5.2h0Z"/>
        <path class="st0" d="M197.1,41.7h1.2v5.2h-1.2v-5.2Z"/>
        <path class="st0" d="M200.8,44.3c0-1.5,1.2-2.7,3-2.7s3,1.2,3,2.7-1.2,2.7-3,2.7-3-1.2-3-2.7ZM205.5,44.3c0-.9-.7-1.7-1.7-1.7s-1.7.7-1.7,1.7.7,1.7,1.7,1.7,1.7-.7,1.7-1.7Z"/>
        <path class="st0" d="M209.2,41.7h1.2l1.9,2.5c.3.4.7,1,.7,1v-3.4h1.2v5.2h-1.2l-1.9-2.4c-.4-.5-.7-1-.7-1v3.4h-1.2v-5.2h0Z"/>
      </g>
      <g>
        <polygon class="st0" points="29.4 46.8 40.6 46.8 58.1 11.3 46.9 11.3 29.4 46.8"/>
        <polygon class="st3" points="25.1 25.4 19.4 36.8 7.9 13.5 19.2 13.5 25.1 25.4"/>
        <polygon class="st1" points="20.4 38.6 31.7 38.6 49.2 3 38 3 20.4 38.6"/>
      </g>
      <g>
        <path class="st0" d="M59.5,19.2h3l4,9.5c.5,1.2,1.3,3.7,1.3,3.7,0,0,.8-2.5,1.3-3.7l4-9.5h3.1l-6.9,16.7h-2.9l-6.9-16.7h0Z"/>
        <path class="st0" d="M74.8,29.5c0-3.7,2.4-6.6,5.9-6.6s3.2.7,4.2,1.9v-1.6h2.9v12.7h-2.9v-1.6c-1,1.2-2.5,1.9-4.2,1.9-3.5,0-5.9-2.9-5.9-6.6h0ZM84.9,29.5c0-2.2-1.5-3.9-3.5-3.9s-3.7,1.6-3.7,3.9,1.5,3.9,3.7,3.9,3.5-1.6,3.5-3.9Z"/>
        <path class="st0" d="M89.9,23.1h2.9v1.8c.9-1.4,2.4-2.1,4.1-2.1,3.4,0,4.6,2.3,4.6,5.7v7.3h-2.9v-6.9c0-2.1-.5-3.3-2.6-3.3s-3.2,1.5-3.2,3.6v6.6h-2.9v-12.7h0Z"/>
        <path class="st0" d="M104.1,31.8v-6.3h-1.9v-2.3h1.9v-2.5l2.9-.6v3.1h3.8v2.3h-3.8v6.4c0,1.4.6,1.8,1.4,1.8s1.9-.6,1.9-.6l.9,2.1c-.6.4-1.6.9-3.1.9-2.6,0-3.9-1.4-3.9-4.3,0,0,0,0-.1,0Z"/>
        <path class="st0" d="M111.5,29.5c0-3.7,2.4-6.6,5.9-6.6s3.2.7,4.2,1.9v-1.6h2.9v12.7h-2.9v-1.6c-1,1.2-2.5,1.9-4.2,1.9-3.5,0-5.9-2.9-5.9-6.6h0ZM121.6,29.5c0-2.2-1.5-3.9-3.5-3.9s-3.7,1.6-3.7,3.9,1.5,3.9,3.7,3.9,3.5-1.6,3.5-3.9Z"/>
        <path class="st0" d="M127.2,37.9l1.1-1.8c1,.9,2.5,1.3,3.8,1.3,2.7,0,4.1-1.7,4.1-4.3h0c-.5.9-1.9,2.1-4.2,2.1-3.5,0-5.8-2.7-5.8-6.1s2.3-6.2,5.8-6.2,3.6.9,4.3,2.2v-1.9h2.7v9.8c0,4.4-3,6.7-6.6,6.7s-4-.6-5.2-1.7h0ZM136.1,28.9c0-2-1.6-3.6-3.6-3.6s-3.5,1.6-3.5,3.7,1.5,3.6,3.5,3.6,3.6-1.5,3.6-3.7h0Z"/>
        <path class="st0" d="M140.6,29.5c0-3.6,2.9-6.6,6.5-6.6s6.1,2.9,6.1,6.5,0,1.1,0,1.1h-9.6c.4,2,2.1,3.1,3.9,3.1s2.6-.4,3.6-1.1l1.1,2.1c-1.4,1-3.1,1.5-4.8,1.5-3.6,0-6.9-2.4-6.9-6.6h0ZM150.5,28.4c-.3-1.8-1.7-3-3.5-3s-3.1,1.2-3.5,3h7Z"/>
        <path class="st0" d="M157.8,19.2h3l3.2,10c.4,1.3.8,2.8.8,2.8,0,0,.4-1.4.7-2.8l2.6-10h3.2l2.6,10c.4,1.3.7,2.8.7,2.8,0,0,.4-1.4.8-2.8l3.2-10h3l-5.3,16.7h-3.2l-2.7-9.7c-.4-1.4-.7-3.3-.7-3.3,0,0-.3,1.9-.7,3.3l-2.7,9.7h-3.2l-5.3-16.7h0Z"/>
        <path class="st0" d="M180.7,29.5c0-3.6,2.9-6.6,6.5-6.6s6.1,2.9,6.1,6.5,0,1.1,0,1.1h-9.6c.4,2,2.1,3.1,3.9,3.1s2.6-.4,3.6-1.1l1.1,2.1c-1.4,1-3.1,1.5-4.8,1.5-3.6,0-6.9-2.4-6.9-6.6h0ZM190.6,28.4c-.3-1.8-1.7-3-3.5-3s-3.1,1.2-3.5,3h7Z"/>
        <path class="st0" d="M194.3,34.3l1.1-2.3c.8.7,2.1,1.5,4,1.5s2.5-.4,2.5-1.3-1.3-1.2-2.5-1.5c-2.4-.7-4.5-1.4-4.5-3.9s2.5-3.8,4.8-3.8,3.2.5,4.5,1.3l-1.1,2.3c-1.1-.6-2.2-.9-3.5-.9s-1.9.4-1.9,1.1,1.1,1.1,2.2,1.3c2.4.5,4.8,1.5,4.8,4.1s-3.1,4.1-5.4,4.1-4.4-1.2-5.1-1.9h0Z"/>
        <path class="st0" d="M207.1,31.8v-6.3h-1.9v-2.3h1.9v-2.5l2.9-.6v3.1h3.8v2.3h-3.8v6.4c0,1.4.6,1.8,1.4,1.8s1.9-.6,1.9-.6l.9,2.1c-.6.4-1.6.9-3.1.9-2.6,0-3.9-1.4-3.9-4.3h0Z"/>
      </g>
    </g>
  </g>
  <g>
    <g class="st2">
      <g class="st2">
        <g class="st2">
          <g class="st2">
            <path class="st0" d="M238,19.2h6.8c1,0,1.9.1,2.7.4.8.3,1.5.7,2,1.2.5.5,1,1.1,1.3,1.8.3.7.4,1.5.4,2.3h0c0,1-.2,1.9-.5,2.6-.3.7-.8,1.3-1.4,1.8-.6.5-1.3.9-2.1,1.1-.8.2-1.7.4-2.6.4h-2.8v5h-3.7v-16.7ZM244.6,27.6c.9,0,1.6-.2,2.1-.7s.8-1.1.8-1.8h0c0-.9-.3-1.5-.8-1.9-.5-.4-1.3-.6-2.2-.6h-2.8v5.1h2.9Z"/>
            <path class="st0" d="M253.9,19.2h7.6c2.1,0,3.7.6,4.9,1.7s1.4,2.2,1.4,3.8h0c0,1.4-.3,2.5-1,3.3s-1.5,1.5-2.6,1.9l4.1,6h-4.3l-3.6-5.3h-2.9v5.3h-3.7v-16.7ZM261.3,27.3c.9,0,1.6-.2,2.1-.6.5-.4.7-1,.7-1.7h0c0-.8-.3-1.4-.8-1.8s-1.2-.6-2.1-.6h-3.6v4.8h3.7Z"/>
            <path class="st0" d="M271.3,19.2h3.7v16.7h-3.7v-16.7Z"/>
            <path class="st0" d="M279.1,19.2h3.4l7.8,10.3v-10.3h3.6v16.7h-3.1l-8.1-10.6v10.6h-3.6v-16.7Z"/>
            <path class="st0" d="M301.8,22.6h-5.1v-3.4h13.8v3.4h-5.1v13.3h-3.7v-13.3Z"/>
          </g>
        </g>
      </g>
    </g>
    <g class="st2">
      <g class="st2">
        <g class="st2">
          <g class="st2">
            <path class="st0" d="M321.2,19h6.8c1,0,1.9.1,2.7.4s1.5.7,2,1.2,1,1.1,1.3,1.8c.3.7.4,1.5.4,2.3h0c0,1-.2,1.9-.5,2.6-.3.7-.8,1.3-1.4,1.8-.6.5-1.3.9-2.1,1.1-.8.2-1.7.4-2.6.4h-2.8v5h-3.7v-16.7ZM327.8,27.4c.9,0,1.6-.2,2.1-.7s.8-1.1.8-1.8h0c0-.9-.3-1.5-.8-1.9-.5-.4-1.3-.6-2.2-.6h-2.8v5.1h2.9Z"/>
            <path class="st0" d="M345.2,36c-1.3,0-2.5-.2-3.5-.7s-2-1.1-2.8-1.8c-.8-.8-1.4-1.7-1.8-2.7-.4-1-.7-2.2-.7-3.3h0c0-1.2.2-2.4.7-3.4.4-1,1.1-2,1.8-2.7.8-.8,1.7-1.4,2.8-1.9s2.3-.7,3.6-.7,2.5.2,3.5.7,2,1.1,2.8,1.8,1.4,1.7,1.8,2.7c.4,1,.7,2.2.7,3.3h0c0,1.2-.2,2.4-.7,3.4-.4,1-1.1,2-1.8,2.7-.8.8-1.7,1.4-2.8,1.9-1.1.5-2.3.7-3.6.7ZM345.2,32.6c.7,0,1.4-.1,2-.4.6-.3,1.1-.6,1.6-1.1s.8-1,1-1.7c.2-.6.4-1.3.4-2h0c0-.8-.1-1.4-.4-2.1s-.6-1.2-1-1.7c-.5-.5-1-.9-1.6-1.1-.6-.3-1.3-.4-2-.4s-1.4.1-2,.4c-.6.3-1.1.6-1.6,1.1-.4.5-.8,1-1,1.7s-.4,1.3-.4,2h0c0,.8.1,1.4.4,2.1s.6,1.2,1,1.7c.5.5,1,.9,1.6,1.1.6.3,1.3.4,2,.4Z"/>
            <path class="st0" d="M357.3,19h7.6c2.1,0,3.7.6,4.9,1.7,1,1,1.4,2.2,1.4,3.8h0c0,1.4-.3,2.5-1,3.3s-1.5,1.5-2.6,1.9l4.1,6h-4.3l-3.6-5.3h-2.9v5.3h-3.7v-16.7ZM364.7,27.1c.9,0,1.6-.2,2.1-.6.5-.4.7-1,.7-1.7h0c0-.8-.3-1.4-.8-1.8s-1.2-.6-2.1-.6h-3.6v4.8h3.7Z"/>
            <path class="st0" d="M378.4,22.4h-5.1v-3.4h13.8v3.4h-5.1v13.3h-3.7v-13.3Z"/>
            <path class="st0" d="M395.7,18.9h3.4l7.1,16.8h-3.8l-1.5-3.7h-7l-1.5,3.7h-3.7l7.1-16.8ZM399.5,28.7l-2.2-5.4-2.2,5.4h4.4Z"/>
            <path class="st0" d="M408.8,19h3.7v13.4h8.3v3.3h-12v-16.7Z"/>
          </g>
        </g>
      </g>
    </g>
  </g>
</svg>