<?xml version="1.0" encoding="UTF-8"?>
<svg id="Layer_1" xmlns="http://www.w3.org/2000/svg" version="1.1" viewBox="0 0 325.5 50">
  <!-- Generator: Adobe Illustrator 29.0.1, SVG Export Plug-In . SVG Version: 2.1.0 Build 192)  -->
  <defs>
    <style>
      .st0 {
        fill: #fff;
      }

      .st1 {
        fill: #215a99;
      }

      .st2 {
        isolation: isolate;
      }

      .st3 {
        fill: #ffd100;
      }
    </style>
  </defs>
  <g>
    <rect class="st3" x="225.7" y="8" width=".8" height="34"/>
    <g>
      <g>
        <path class="st0" d="M139.2,44.2c0-1.5,1.2-2.7,3-2.7s1.5.2,2,.7l-.7.8c-.4-.3-.8-.4-1.2-.4-1,0-1.8.7-1.8,1.7s.7,1.7,1.7,1.7,1-.2,1.4-.5l.8.8c-.5.5-1.3.8-2.1.8-1.7,0-3-1.2-3-2.7h0v-.2h0Z"/>
        <path class="st0" d="M146.6,41.7h2.4c1.7,0,2.5.9,2.5,2s-.4,1.3-1.1,1.7l1.2,1.5h-1.4l-.9-1.2h-1.6v1.2h-1.2v-5.2h.1ZM149,44.7c.7,0,1.2-.5,1.2-1s-.5-1.1-1.2-1.1h-1.2v2.1h1.2Z"/>
        <path class="st0" d="M153.9,41.7h4.4v1h-3.2v1.1h3v1h-3v1.3h3.3v1h-4.5v-5.2h0s0-.2,0-.2Z"/>
        <path class="st0" d="M160.8,41.7h2.3c1.9,0,3,1.2,3,2.6s-1.2,2.6-3,2.6h-2.3v-5.2h0ZM163,45.9c1.1,0,1.8-.7,1.8-1.6s-.7-1.6-1.8-1.6h-1v3.3h1Z"/>
        <path class="st0" d="M168.5,41.7h1.2v5.2h-1.2v-5.2Z"/>
        <path class="st0" d="M174,42.6h-1.9v-1h5v1h-1.9v4.2h-1.2v-4.2h0Z"/>
        <path class="st0" d="M182,44.8v-3.1h1.2v3.1c0,.8.5,1.2,1.2,1.2s1.2-.4,1.2-1.2v-3.1h1.2v3.1c0,1.4-1,2.2-2.4,2.2s-2.4-.8-2.4-2.2h0Z"/>
        <path class="st0" d="M189.4,41.7h1.2l1.9,2.5c.3.4.7,1,.7,1v-3.4h1.2v5.2h-1.2l-1.9-2.4c-.4-.5-.7-1-.7-1v3.4h-1.2v-5.2h0Z"/>
        <path class="st0" d="M197.1,41.7h1.2v5.2h-1.2v-5.2Z"/>
        <path class="st0" d="M200.8,44.3c0-1.5,1.2-2.7,3-2.7s3,1.2,3,2.7-1.2,2.7-3,2.7-3-1.2-3-2.7ZM205.5,44.3c0-.9-.7-1.7-1.7-1.7s-1.7.7-1.7,1.7.7,1.7,1.7,1.7,1.7-.7,1.7-1.7Z"/>
        <path class="st0" d="M209.2,41.7h1.2l1.9,2.5c.3.4.7,1,.7,1v-3.4h1.2v5.2h-1.2l-1.9-2.4c-.4-.5-.7-1-.7-1v3.4h-1.2v-5.2h0Z"/>
      </g>
      <g>
        <polygon class="st0" points="29.4 46.8 40.6 46.8 58.1 11.3 46.9 11.3 29.4 46.8"/>
        <polygon class="st3" points="25.1 25.4 19.4 36.8 7.9 13.5 19.2 13.5 25.1 25.4"/>
        <polygon class="st1" points="20.4 38.6 31.7 38.6 49.2 3 38 3 20.4 38.6"/>
      </g>
      <g>
        <path class="st0" d="M59.5,19.2h3l4,9.5c.5,1.2,1.3,3.7,1.3,3.7,0,0,.8-2.5,1.3-3.7l4-9.5h3.1l-6.9,16.7h-2.9l-6.9-16.7h0Z"/>
        <path class="st0" d="M74.8,29.5c0-3.7,2.4-6.6,5.9-6.6s3.2.7,4.2,1.9v-1.6h2.9v12.7h-2.9v-1.6c-1,1.2-2.5,1.9-4.2,1.9-3.5,0-5.9-2.9-5.9-6.6h0ZM84.9,29.5c0-2.2-1.5-3.9-3.5-3.9s-3.7,1.6-3.7,3.9,1.5,3.9,3.7,3.9,3.5-1.6,3.5-3.9Z"/>
        <path class="st0" d="M89.9,23.1h2.9v1.8c.9-1.4,2.4-2.1,4.1-2.1,3.4,0,4.6,2.3,4.6,5.7v7.3h-2.9v-6.9c0-2.1-.5-3.3-2.6-3.3s-3.2,1.5-3.2,3.6v6.6h-2.9v-12.7h0Z"/>
        <path class="st0" d="M104.1,31.8v-6.3h-1.9v-2.3h1.9v-2.5l2.9-.6v3.1h3.8v2.3h-3.8v6.4c0,1.4.6,1.8,1.4,1.8s1.9-.6,1.9-.6l.9,2.1c-.6.4-1.6.9-3.1.9-2.6,0-3.9-1.4-3.9-4.3h-.1Z"/>
        <path class="st0" d="M111.5,29.5c0-3.7,2.4-6.6,5.9-6.6s3.2.7,4.2,1.9v-1.6h2.9v12.7h-2.9v-1.6c-1,1.2-2.5,1.9-4.2,1.9-3.5,0-5.9-2.9-5.9-6.6h0ZM121.6,29.5c0-2.2-1.5-3.9-3.5-3.9s-3.7,1.6-3.7,3.9,1.5,3.9,3.7,3.9,3.5-1.6,3.5-3.9Z"/>
        <path class="st0" d="M127.2,37.9l1.1-1.8c1,.9,2.5,1.3,3.8,1.3,2.7,0,4.1-1.7,4.1-4.3h0c-.5.9-1.9,2.1-4.2,2.1-3.5,0-5.8-2.7-5.8-6.1s2.3-6.2,5.8-6.2,3.6.9,4.3,2.2v-1.9h2.7v9.8c0,4.4-3,6.7-6.6,6.7s-4-.6-5.2-1.7h0ZM136.1,28.9c0-2-1.6-3.6-3.6-3.6s-3.5,1.6-3.5,3.7,1.5,3.6,3.5,3.6,3.6-1.5,3.6-3.7h0Z"/>
        <path class="st0" d="M140.6,29.5c0-3.6,2.9-6.6,6.5-6.6s6.1,2.9,6.1,6.5,0,1.1,0,1.1h-9.6c.4,2,2.1,3.1,3.9,3.1s2.6-.4,3.6-1.1l1.1,2.1c-1.4,1-3.1,1.5-4.8,1.5-3.6,0-6.9-2.4-6.9-6.6h0ZM150.5,28.4c-.3-1.8-1.7-3-3.5-3s-3.1,1.2-3.5,3h7Z"/>
        <path class="st0" d="M157.8,19.2h3l3.2,10c.4,1.3.8,2.8.8,2.8,0,0,.4-1.4.7-2.8l2.6-10h3.2l2.6,10c.4,1.3.7,2.8.7,2.8,0,0,.4-1.4.8-2.8l3.2-10h3l-5.3,16.7h-3.2l-2.7-9.7c-.4-1.4-.7-3.3-.7-3.3,0,0-.3,1.9-.7,3.3l-2.7,9.7h-3.2l-5.3-16.7h0Z"/>
        <path class="st0" d="M180.7,29.5c0-3.6,2.9-6.6,6.5-6.6s6.1,2.9,6.1,6.5,0,1.1,0,1.1h-9.6c.4,2,2.1,3.1,3.9,3.1s2.6-.4,3.6-1.1l1.1,2.1c-1.4,1-3.1,1.5-4.8,1.5-3.6,0-6.9-2.4-6.9-6.6h0ZM190.6,28.4c-.3-1.8-1.7-3-3.5-3s-3.1,1.2-3.5,3h7Z"/>
        <path class="st0" d="M194.3,34.3l1.1-2.3c.8.7,2.1,1.5,4,1.5s2.5-.4,2.5-1.3-1.3-1.2-2.5-1.5c-2.4-.7-4.5-1.4-4.5-3.9s2.5-3.8,4.8-3.8,3.2.5,4.5,1.3l-1.1,2.3c-1.1-.6-2.2-.9-3.5-.9s-1.9.4-1.9,1.1,1.1,1.1,2.2,1.3c2.4.5,4.8,1.5,4.8,4.1s-3.1,4.1-5.4,4.1-4.4-1.2-5.1-1.9h0Z"/>
        <path class="st0" d="M207.1,31.8v-6.3h-1.9v-2.3h1.9v-2.5l2.9-.6v3.1h3.8v2.3h-3.8v6.4c0,1.4.6,1.8,1.4,1.8s1.9-.6,1.9-.6l.9,2.1c-.6.4-1.6.9-3.1.9-2.6,0-3.9-1.4-3.9-4.3h0Z"/>
      </g>
    </g>
  </g>
  <g class="st2">
    <g class="st2">
      <g class="st2">
        <g class="st2">
          <path class="st0" d="M238.1,9.9h5.4c.8,0,1.5.1,2.1.3s1.2.5,1.6.9c.4.4.8.9,1,1.5s.4,1.2.4,1.9h0c0,.8-.1,1.5-.4,2.1s-.7,1.1-1.1,1.5c-.5.4-1.1.7-1.7.9-.7.2-1.4.3-2.1.3h-2.2v4h-2.9v-13.3ZM243.3,16.6c.7,0,1.3-.2,1.7-.6.4-.4.6-.9.6-1.4h0c0-.7-.2-1.2-.6-1.5-.4-.3-1-.5-1.7-.5h-2.3v4.1h2.3Z"/>
          <path class="st0" d="M250.8,9.9h6.1c1.7,0,3,.4,3.9,1.3.8.8,1.1,1.8,1.1,3h0c0,1.1-.3,2-.8,2.7s-1.2,1.2-2.1,1.5l3.2,4.8h-3.4l-2.9-4.3h-2.3v4.3h-2.9v-13.3ZM256.7,16.4c.7,0,1.3-.2,1.7-.5.4-.3.6-.8.6-1.4h0c0-.7-.2-1.1-.6-1.5-.4-.3-1-.5-1.7-.5h-2.9v3.8h3Z"/>
          <path class="st0" d="M264.7,9.9h2.9v13.3h-2.9v-13.3Z"/>
          <path class="st0" d="M270.9,9.9h2.7l6.2,8.2v-8.2h2.9v13.3h-2.5l-6.4-8.5v8.5h-2.9v-13.3Z"/>
          <path class="st0" d="M289,12.6h-4v-2.7h11v2.7h-4v10.6h-2.9v-10.6Z"/>
        </g>
      </g>
    </g>
    <g class="st2">
      <g class="st2">
        <g class="st2">
          <path class="st0" d="M238.1,29.5h5.4c.8,0,1.5.1,2.1.3s1.2.5,1.6.9c.4.4.8.9,1,1.5s.4,1.2.4,1.9h0c0,.8-.1,1.5-.4,2.1s-.7,1.1-1.1,1.5c-.5.4-1.1.7-1.7.9-.7.2-1.4.3-2.1.3h-2.2v4h-2.9v-13.3ZM243.3,36.2c.7,0,1.3-.2,1.7-.6.4-.4.6-.9.6-1.4h0c0-.7-.2-1.2-.6-1.5-.4-.3-1-.5-1.7-.5h-2.3v4.1h2.3Z"/>
          <path class="st0" d="M257.2,43c-1,0-2-.2-2.8-.5-.9-.4-1.6-.8-2.2-1.5s-1.1-1.3-1.5-2.2c-.3-.8-.5-1.7-.5-2.7h0c0-1,.2-1.9.5-2.7.4-.8.8-1.6,1.5-2.2s1.4-1.1,2.2-1.5c.9-.4,1.8-.5,2.8-.5s2,.2,2.8.5c.9.4,1.6.8,2.2,1.5s1.1,1.3,1.5,2.2c.3.8.5,1.7.5,2.7h0c0,1-.2,1.9-.5,2.7-.4.8-.8,1.6-1.5,2.2s-1.4,1.1-2.2,1.5c-.9.4-1.8.5-2.8.5ZM257.3,40.3c.6,0,1.1-.1,1.6-.3.5-.2.9-.5,1.3-.9.3-.4.6-.8.8-1.3.2-.5.3-1,.3-1.6h0c0-.6,0-1.1-.3-1.7s-.5-1-.8-1.3c-.4-.4-.8-.7-1.3-.9s-1-.3-1.6-.3-1.1.1-1.6.3c-.5.2-.9.5-1.3.9-.3.4-.6.8-.8,1.3-.2.5-.3,1-.3,1.6h0c0,.6,0,1.1.3,1.7.2.5.5,1,.8,1.3s.8.7,1.3.9c.5.2,1,.3,1.6.3Z"/>
          <path class="st0" d="M266.9,29.5h6.1c1.7,0,3,.4,3.9,1.3.8.8,1.1,1.8,1.1,3h0c0,1.1-.3,2-.8,2.7-.5.7-1.2,1.2-2.1,1.5l3.2,4.8h-3.4l-2.9-4.3h-2.3v4.3h-2.9v-13.3ZM272.8,36c.7,0,1.3-.2,1.7-.5.4-.3.6-.8.6-1.4h0c0-.7-.2-1.1-.6-1.5s-1-.5-1.7-.5h-2.9v3.8h3Z"/>
          <path class="st0" d="M283.8,32.2h-4v-2.7h11v2.7h-4v10.6h-2.9v-10.6Z"/>
          <path class="st0" d="M297.5,29.4h2.7l5.7,13.4h-3.1l-1.2-3h-5.6l-1.2,3h-3l5.7-13.4ZM300.6,37.2l-1.8-4.3-1.8,4.3h3.5Z"/>
          <path class="st0" d="M308,29.5h2.9v10.7h6.6v2.6h-9.6v-13.3Z"/>
        </g>
      </g>
    </g>
  </g>
</svg>