<?xml version="1.0" encoding="utf-8"?>
<!-- Generator: Adobe Illustrator 26.2.1, SVG Export Plug-In . SVG Version: 6.00 Build 0)  -->
<svg version="1.1" id="a" xmlns="http://www.w3.org/2000/svg" xmlns:xlink="http://www.w3.org/1999/xlink" x="0px" y="0px"
	 viewBox="0 0 780 250" style="enable-background:new 0 0 780 250;" xml:space="preserve">
<style type="text/css">
	.st0{fill:#005687;}
	.st1{fill:#FFFFFF;}
	.st2{fill:#6DC4BC;}
	.st3{fill:#6BBBAD;}
	.st4{fill:#C3DFD9;}
</style>
<g>
	<rect class="st0" width="780" height="250"/>
	<g>
		<rect x="392.8" y="56.7" class="st1" width="2.6" height="136.2"/>
		<path class="st1" d="M394.9,57.2v135.2h-1.6V57.2H394.9 M395.9,56.2h-3.6v137.2h3.6V56.2L395.9,56.2z"/>
	</g>
	<g>
		<g>
			<path class="st1" d="M499,97.3c-0.6,1.4-1.5,2.5-2.7,3.4s-2.5,1.6-4,2.1c-1.5,0.5-3.2,0.7-4.9,0.7h-5.2v9.3h-6.8V81.7h12.7
				c1.9,0,3.5,0.3,5,0.8s2.7,1.2,3.7,2.2c1,0.9,1.8,2.1,2.4,3.4c0.5,1.3,0.8,2.8,0.8,4.4v0.1C500,94.4,499.7,95.9,499,97.3L499,97.3
				L499,97.3z M493.1,92.6c0-1.5-0.5-2.7-1.5-3.5s-2.4-1.2-4.1-1.2h-5.3v9.5h5.4c1.7,0,3-0.4,4-1.3S493.1,94,493.1,92.6L493.1,92.6
				L493.1,92.6L493.1,92.6z"/>
			<path class="st1" d="M546.1,112.8l-6.7-9.9h-5.4v9.9h-6.8V81.7h14.2c3.7,0,6.6,0.9,8.6,2.7s3.1,4.3,3.1,7.6v0.1
				c0,2.5-0.6,4.6-1.8,6.2c-1.2,1.6-2.8,2.8-4.8,3.5l7.6,11.1H546.1L546.1,112.8z M546.2,92.3c0-1.5-0.5-2.6-1.4-3.3s-2.3-1.1-4-1.1
				h-6.8v8.9h6.9c1.7,0,3-0.4,3.9-1.2C545.8,94.8,546.2,93.8,546.2,92.3L546.2,92.3L546.2,92.3z"/>
			<path class="st1" d="M581.8,112.8V81.7h6.8v31.1L581.8,112.8L581.8,112.8z"/>
			<path class="st1" d="M640.4,112.8l-15-19.8v19.8h-6.8V81.7h6.3l14.6,19.1V81.7h6.8v31.1L640.4,112.8L640.4,112.8z"/>
			<path class="st1" d="M690,88v24.8h-6.8V88h-9.5v-6.3h25.8V88L690,88L690,88z"/>
		</g>
		<g>
			<path class="st1" d="M462.8,152.2c-0.6,1.4-1.5,2.5-2.7,3.4s-2.5,1.6-4,2.1c-1.5,0.5-3.2,0.7-4.9,0.7H446v9.3h-6.8v-31.1h12.7
				c1.9,0,3.5,0.3,5,0.8s2.7,1.2,3.7,2.2c1,0.9,1.8,2.1,2.4,3.4c0.5,1.3,0.8,2.8,0.8,4.4v0.1C463.7,149.3,463.4,150.9,462.8,152.2
				L462.8,152.2L462.8,152.2z M456.8,147.5c0-1.5-0.5-2.7-1.5-3.5c-1-0.8-2.4-1.2-4.1-1.2H446v9.5h5.4c1.7,0,3-0.4,4-1.4
				C456.4,150.1,456.8,149,456.8,147.5L456.8,147.5L456.8,147.5L456.8,147.5z"/>
			<path class="st1" d="M521.4,158.4c-0.8,1.9-2,3.6-3.4,5.1c-1.5,1.5-3.2,2.6-5.2,3.5c-2,0.8-4.2,1.3-6.6,1.3s-4.6-0.4-6.6-1.3
				c-2-0.8-3.8-2-5.2-3.4c-1.5-1.4-2.6-3.1-3.4-5.1c-0.8-1.9-1.2-4-1.2-6.2v-0.1c0-2.2,0.4-4.3,1.2-6.2c0.8-1.9,2-3.6,3.4-5.1
				c1.5-1.5,3.2-2.6,5.2-3.5c2-0.8,4.2-1.3,6.6-1.3s4.6,0.4,6.6,1.3c2,0.8,3.8,2,5.2,3.4s2.6,3.1,3.4,5.1c0.8,1.9,1.2,4,1.2,6.2v0.1
				C522.6,154.4,522.2,156.5,521.4,158.4L521.4,158.4L521.4,158.4z M515.5,152.2c0-1.3-0.2-2.6-0.7-3.8c-0.5-1.2-1.1-2.2-2-3.1
				s-1.8-1.6-3-2.1c-1.1-0.5-2.4-0.8-3.8-0.8s-2.7,0.2-3.8,0.8c-1.1,0.5-2.1,1.2-2.9,2.1s-1.5,1.9-1.9,3.1s-0.7,2.4-0.7,3.8v0.1
				c0,1.3,0.2,2.6,0.7,3.8c0.5,1.2,1.1,2.2,2,3.1s1.8,1.6,3,2.1s2.4,0.8,3.8,0.8s2.6-0.2,3.8-0.8s2.1-1.2,2.9-2.1s1.5-1.9,1.9-3.1
				C515.3,154.9,515.5,153.6,515.5,152.2L515.5,152.2L515.5,152.2L515.5,152.2z"/>
			<path class="st1" d="M569.8,167.7l-6.7-9.9h-5.4v9.9h-6.8v-31.1h14.2c3.7,0,6.6,0.9,8.6,2.7c2.1,1.8,3.1,4.3,3.1,7.6v0.1
				c0,2.5-0.6,4.6-1.8,6.1c-1.2,1.6-2.8,2.8-4.8,3.5l7.6,11.1L569.8,167.7L569.8,167.7z M569.9,147.3c0-1.5-0.5-2.6-1.4-3.3
				s-2.3-1.1-4-1.1h-6.8v8.9h6.9c1.7,0,3-0.4,3.9-1.2C569.5,149.8,569.9,148.7,569.9,147.3L569.9,147.3z"/>
			<path class="st1" d="M619.3,143v24.8h-6.8V143H603v-6.3h25.8v6.3H619.3L619.3,143z"/>
			<path class="st1" d="M679.3,167.7l-2.8-7h-13.1l-2.8,7h-7l13.3-31.3h6.3l13.3,31.3H679.3L679.3,167.7z M669.9,144.7l-4.1,10.1
				h8.3L669.9,144.7z"/>
			<path class="st1" d="M713.5,167.7v-31.1h6.8v24.9h15.5v6.2H713.5z"/>
		</g>
	</g>
	<g>
		<path class="st0" d="M79.1,141.6c-19.2,0-35.5-12.4-41.3-29.7c4,19.5,21,34.2,41.3,34.2s37.4-14.8,41.3-34.4
			C114.7,129.1,98.3,141.6,79.1,141.6"/>
		<path class="st1" d="M122.7,99.4h-0.4l0,0l-0.9,0l-3.1-0.1c-0.2,0-0.5,0-0.8,0c-1.2,0-2.7,0.1-4.5,0.2l-0.7-2.6l-0.2-0.9l-0.9,0.2
			l-1.9,0.3c-3.8-13.5-16.2-22.8-30.3-22.8s-26.4,9.4-30.3,22.8L47,96.2L46,96l-0.2,0.9l-0.7,2.6c-1.7-0.1-3.2-0.2-4.5-0.2
			c-0.2,0-0.5,0-0.8,0l-3.2,0.1l-1,0c-0.1,0-0.2,0-0.2,0c-0.2,2.8,1,7.7,1.4,9.3c4.8,18.9,21.8,32.9,42.2,32.9s37.2-13.8,42.1-32.4
			v0.1C121.2,109.3,123,102.9,122.7,99.4"/>
		<path class="st2" d="M64.4,131.7c-1-1.1-2-2.3-2.8-3.6c-1.9-3-3.2-6.3-3.8-9.9c-0.2-1.5-0.4-3-0.4-4.5c0-3.7,0.8-7.2,2.2-10.5
			c-0.6-0.2-1.3-0.5-2.1-0.7c-1.5-0.5-3.3-1.1-4.9-1.5c-1.2-0.3-2.5-0.7-3.5-0.8c0,0,0,0.1-0.1,0.4c-0.1,0.5-0.3,1.6-0.4,2.8
			c0,0.5-0.1,1-0.1,1.5c0,11.3,5.8,21.3,14.6,27.1c0.7,0.5,1.5,1,2.3,1.4c0.2,0.1,0.7,0.4,0.9,0.4C65.7,133.1,64.8,132.3,64.4,131.7
			"/>
		<path class="st2" d="M45.6,103c-1.7-0.2-3.5-0.3-5-0.3c-0.2,0-0.5,0-0.7,0c0,0,0,0.3,0.1,0.9c0.1,1.2,0.3,2.5,0.6,3.8
			c1.8,8.4,6.6,15.3,13.1,19.8c-5.2-6.2-8.2-14.2-8.2-22.5C45.6,104.1,45.6,103.5,45.6,103"/>
		<path class="st2" d="M77,116.4c-1-6.2-6.3-12.5-12.4-16.5c-0.4,0.5-0.7,1.1-1,1.7c-2.1,3.6-3.3,7.7-3.3,12.1s1.3,8.8,3.4,12.4
			c1,1.7,2.2,3.2,3.6,4.6c0.2,0.2,0.5,0.5,0.8,0.7c0.7,0.7,1.5,1.3,2.3,1.9c0,0,0,0,0,0c0.3,0.2,0.6,0.4,0.9,0.6
			c0.4,0.2,0.7,0.4,1.1,0.7c1.6,0.9,3.3,1.6,5.1,2.1c0.1-2.4,0.2-9.3-0.1-15.2C77.4,119.5,77.2,117.8,77,116.4"/>
		<path class="st2" d="M93.8,131.7c1-1.1,2-2.3,2.8-3.6c1.9-3,3.2-6.3,3.8-9.9c0.2-1.5,0.4-3,0.4-4.5c0-3.7-0.8-7.2-2.2-10.5
			c0.6-0.2,1.3-0.5,2.1-0.7c1.5-0.5,3.3-1.1,4.9-1.5c1.2-0.3,2.5-0.7,3.5-0.8c0,0,0,0.1,0.1,0.4c0.1,0.5,0.3,1.6,0.4,2.8
			c0,0.5,0.1,1,0.1,1.5c0,11.3-5.8,21.3-14.6,27.1c-0.7,0.5-1.5,1-2.3,1.4c-0.2,0.1-0.7,0.4-0.9,0.4
			C92.4,133.1,93.3,132.3,93.8,131.7"/>
		<path class="st2" d="M112.5,103c1.7-0.2,3.5-0.3,5-0.3c0.2,0,0.4,0,0.7,0c0,0,0,0.3-0.1,0.9c-0.1,1.2-0.3,2.5-0.6,3.8
			c-1.8,8.4-6.6,15.3-13.1,19.8c5.2-6.2,8.2-14.2,8.2-22.5C112.6,104.1,112.6,103.5,112.5,103"/>
		<path class="st2" d="M81.1,116.4c1-6.2,6.3-12.5,12.4-16.5c0.4,0.5,0.7,1.1,1.1,1.7c2.1,3.6,3.3,7.7,3.3,12.1s-1.3,8.8-3.4,12.4
			c-1,1.7-2.2,3.2-3.6,4.6c-0.2,0.2-0.5,0.5-0.8,0.7c-0.7,0.7-1.5,1.3-2.3,1.9c0,0,0,0,0,0c-0.3,0.2-0.6,0.4-0.9,0.6
			c-0.4,0.2-0.7,0.4-1.1,0.7c-1.6,0.9-3.3,1.6-5.1,2.1c-0.1-2.4-0.2-9.3,0.1-15.2C80.8,119.5,80.9,117.8,81.1,116.4"/>
		<path class="st3" d="M64.4,131.7c-1-1.1-2-2.3-2.8-3.6c-1.9-3-3.2-6.3-3.8-9.9c-0.2-1.5-0.4-3-0.4-4.5c0-3.7,0.8-7.2,2.2-10.5
			c-0.6-0.2-1.3-0.5-2.1-0.7c-1.5-0.5-3.3-1.1-4.9-1.5c-1.2-0.3-2.5-0.7-3.5-0.8c0,0,0,0.1-0.1,0.4c-0.1,0.5-0.3,1.6-0.4,2.8
			c0,0.5-0.1,1-0.1,1.5c0,11.3,5.8,21.3,14.6,27.1c0.7,0.5,1.5,1,2.3,1.4c0.2,0.1,0.7,0.4,0.9,0.4C65.7,133.1,64.8,132.3,64.4,131.7
			"/>
		<path class="st3" d="M45.6,103c-1.7-0.2-3.5-0.3-5-0.3c-0.2,0-0.5,0-0.7,0c0,0,0,0.3,0.1,0.9c0.1,1.2,0.3,2.5,0.6,3.8
			c1.8,8.4,6.6,15.3,13.1,19.8c-5.2-6.2-8.2-14.2-8.2-22.5C45.6,104.1,45.6,103.5,45.6,103"/>
		<path class="st3" d="M77,116.4c-1-6.2-6.3-12.5-12.4-16.5c-0.4,0.5-0.7,1.1-1,1.7c-2.1,3.6-3.3,7.7-3.3,12.1s1.3,8.8,3.4,12.4
			c1,1.7,2.2,3.2,3.6,4.6c0.2,0.2,0.5,0.5,0.8,0.7c0.7,0.7,1.5,1.3,2.3,1.9c0,0,0,0,0,0c0.3,0.2,0.6,0.4,0.9,0.6
			c0.4,0.2,0.7,0.4,1.1,0.7c1.6,0.9,3.3,1.6,5.1,2.1c0.1-2.4,0.2-9.3-0.1-15.2C77.4,119.5,77.2,117.8,77,116.4"/>
		<path class="st3" d="M93.8,131.7c1-1.1,2-2.3,2.8-3.6c1.9-3,3.2-6.3,3.8-9.9c0.2-1.5,0.4-3,0.4-4.5c0-3.7-0.8-7.2-2.2-10.5
			c0.6-0.2,1.3-0.5,2.1-0.7c1.5-0.5,3.3-1.1,4.9-1.5c1.2-0.3,2.5-0.7,3.5-0.8c0,0,0,0.1,0.1,0.4c0.1,0.5,0.3,1.6,0.4,2.8
			c0,0.5,0.1,1,0.1,1.5c0,11.3-5.8,21.3-14.6,27.1c-0.7,0.5-1.5,1-2.3,1.4c-0.2,0.1-0.7,0.4-0.9,0.4
			C92.4,133.1,93.3,132.3,93.8,131.7"/>
		<path class="st3" d="M112.5,103c1.7-0.2,3.5-0.3,5-0.3c0.2,0,0.4,0,0.7,0c0,0,0,0.3-0.1,0.9c-0.1,1.2-0.3,2.5-0.6,3.8
			c-1.8,8.4-6.6,15.3-13.1,19.8c5.2-6.2,8.2-14.2,8.2-22.5C112.6,104.1,112.6,103.5,112.5,103"/>
		<path class="st3" d="M81.1,116.4c1-6.2,6.3-12.5,12.4-16.5c0.4,0.5,0.7,1.1,1.1,1.7c2.1,3.6,3.3,7.7,3.3,12.1s-1.3,8.8-3.4,12.4
			c-1,1.7-2.2,3.2-3.6,4.6c-0.2,0.2-0.5,0.5-0.8,0.7c-0.7,0.7-1.5,1.3-2.3,1.9c0,0,0,0,0,0c-0.3,0.2-0.6,0.4-0.9,0.6
			c-0.4,0.2-0.7,0.4-1.1,0.7c-1.6,0.9-3.3,1.6-5.1,2.1c-0.1-2.4-0.2-9.3,0.1-15.2C80.8,119.5,80.9,117.8,81.1,116.4"/>
		<path class="st0" d="M53.6,97.7c1.6,0.4,3.3,1,5.1,1.6c0.5,0.2,1.1,0.4,1.6,0.5c0.3-0.6,0.7-1.1,1-1.5l1.7-2.4l0.6-0.8l0.8,0.5
			l2.5,1.6c5.4,3.6,9.8,8.3,12.2,13.4c2.4-5,6.8-9.8,12.2-13.4l2.5-1.6l0.8-0.5l0.6,0.8l1.7,2.4c0.3,0.5,0.7,1,1,1.5
			c0.5-0.2,1-0.3,1.6-0.5c1.9-0.6,3.6-1.2,5.1-1.6c0.5-0.1,0.9-0.2,1.3-0.3c-3.4-11.6-14.1-20-26.8-20s-23.4,8.5-26.8,20
			C52.7,97.4,53.2,97.5,53.6,97.7"/>
		<polygon class="st1" points="148.7,106.2 135.1,87.2 130.7,87.2 130.7,114.1 135.3,114.1 135.3,95.1 148.9,114.1 153.3,114.1 
			153.3,87.2 148.7,87.2 		"/>
		<path class="st1" d="M171.1,86.8c-8.1,0-14.1,6-14.1,13.9s6.1,13.9,14.1,13.9s14.1-6,14.1-13.9S179.2,86.8,171.1,86.8
			 M180.4,100.7c0,4.7-3.5,9.6-9.3,9.6s-9.3-4.9-9.3-9.6s3.5-9.6,9.3-9.6S180.4,95.9,180.4,100.7"/>
		<path class="st1" d="M206.5,95.4c0-4.9-3.9-8.2-9.8-8.2H189v26.9h4.6v-10.4h1.5l7.3,10.4h5.6l-7.7-10.9
			C202.3,102.6,206.5,100.8,206.5,95.4 M201.9,95.4c0,2.5-1.8,4-4.9,4h-3.3v-7.9h3.3C200.1,91.5,201.9,92.9,201.9,95.4"/>
		<polygon class="st1" points="208.6,91.5 216.4,91.5 216.4,114.1 221.1,114.1 221.1,91.5 228.9,91.5 228.9,87.2 208.6,87.2 		"/>
		<polygon class="st1" points="249.1,98.2 236.8,98.2 236.8,87.2 232.2,87.2 232.2,114.1 236.8,114.1 236.8,102.5 249.1,102.5 
			249.1,114.1 253.7,114.1 253.7,87.2 249.1,87.2 		"/>
		<polygon class="st1" points="302.6,102.5 314.1,102.5 314.1,98.2 302.6,98.2 302.6,91.5 315,91.5 315,87.2 297.9,87.2 
			297.9,114.1 315.2,114.1 315.2,109.8 302.6,109.8 		"/>
		<path class="st1" d="M329.5,98.8c-3.8-1.6-5.6-2.5-5.6-4.6c0-1.5,1.4-3.1,3.9-3.1c3,0,4.7,2.4,4.7,2.4l0.4,0.6l3.5-2.7l-0.4-0.5
			c-0.1-0.2-2.9-4-8.3-4s-8.5,3.8-8.5,7.4c0,5,4.4,6.9,7.9,8.4c3.1,1.3,4.9,2.2,4.9,4.4c0,2.3-2.3,3.3-4.4,3.3
			c-3.8,0-5.3-3.4-5.3-3.5L322,106l-3.9,2.2l0.2,0.6c0.1,0.2,2.5,5.8,9.3,5.8c5.3,0,9.1-3.2,9.1-7.6
			C336.7,102.2,333.4,100.4,329.5,98.8"/>
		<polygon class="st1" points="339.2,87.2 339.2,91.5 347,91.5 347,114.1 351.6,114.1 351.6,91.5 359.4,91.5 359.4,87.2 		"/>
		<polygon class="st1" points="268.6,114.3 275.8,95.9 282.9,114.3 284.3,114.3 295.1,87.2 290.2,87.2 283.7,103.7 277.5,87.2 
			274.2,87.2 268,103.7 261.6,87.2 256.5,87.2 267.3,114.3 		"/>
		<polygon class="st1" points="141.8,132.1 133.6,132.1 133.6,124.9 130.7,124.9 130.7,142.4 133.6,142.4 133.6,134.8 141.8,134.8 
			141.8,142.4 144.7,142.4 144.7,124.9 141.8,124.9 		"/>
		<polygon class="st1" points="159.4,134.8 166.9,134.8 166.9,132.1 159.4,132.1 159.4,127.6 167.5,127.6 167.5,124.9 156.5,124.9 
			156.5,142.4 167.7,142.4 167.7,139.7 159.4,139.7 		"/>
		<path class="st1" d="M185,124.9l-7.3,17.5h3.1l1.9-4.5h7.1l1.9,4.5h3.1l-7.3-17.5H185L185,124.9z M188.7,135.2h-4.9l2.4-6
			L188.7,135.2L188.7,135.2z"/>
		<polygon class="st1" points="208,124.9 205.1,124.9 205.1,142.4 216,142.4 216,139.7 208,139.7 		"/>
		<polygon class="st1" points="223.1,127.6 228.2,127.6 228.2,142.4 231.1,142.4 231.1,127.6 236.2,127.6 236.2,124.9 223.1,124.9 
					"/>
		<polygon class="st1" points="258.3,132.1 250.2,132.1 250.2,124.9 247.2,124.9 247.2,142.4 250.2,142.4 250.2,134.8 258.3,134.8 
			258.3,142.4 261.2,142.4 261.2,124.9 258.3,124.9 		"/>
		<path class="st1" d="M285.8,137.9c0,0-1.8,2.1-4.8,2.1c-3.8,0-6.1-3.2-6.1-6.3s2.3-6.3,6.1-6.3c3,0,4.6,1.8,4.6,1.8l0.3,0.3
			l2.1-1.8l-0.3-0.3c-0.1-0.1-2.4-2.7-6.7-2.7c-5.2,0-9.2,3.9-9.2,9s4,9,9.2,9c4.3,0,6.8-2.8,6.9-2.9l0.2-0.3l-2-1.9L285.8,137.9
			L285.8,137.9z"/>
		<path class="st1" d="M303.8,124.9l-7.3,17.5h3.1l1.9-4.5h7.1l1.9,4.5h3.1l-7.3-17.5H303.8z M307.5,135.2h-4.9l2.5-6L307.5,135.2
			L307.5,135.2z"/>
		<path class="st1" d="M335.2,130.3c0-3.2-2.5-5.3-6.3-5.3h-5v17.5h2.9v-6.8h1l4.8,6.8h3.5l-5-7.1
			C332.4,134.9,335.2,133.8,335.2,130.3 M332.3,130.3c0,1.7-1.2,2.6-3.3,2.6h-2.2v-5.3h2.2C331.1,127.6,332.3,128.6,332.3,130.3"/>
		<polygon class="st1" points="349.8,139.7 349.8,134.8 357.3,134.8 357.3,132.1 349.8,132.1 349.8,127.6 357.9,127.6 357.9,124.9 
			346.9,124.9 346.9,142.4 358.1,142.4 358.1,139.7 		"/>
		<rect x="36.2" y="154.1" class="st3" width="322.8" height="22.6"/>
		<path class="st1" d="M47.5,171.4v-12h1.8l2,5.1c0.4,1.1,1,2.6,1.4,3.8h0c-0.1-1.5-0.2-3.4-0.2-5.5v-3.4h1.7v12h-1.8l-2.1-5.1
			c-0.5-1.1-1-2.6-1.3-3.8h0c0.1,1.4,0.1,3.1,0.1,5.6v3.4L47.5,171.4L47.5,171.4z"/>
		<path class="st1" d="M59.3,171.5c-2.4,0-3.6-2.5-3.6-6.2s1.4-6.1,3.8-6.1s3.5,2.8,3.5,6C63,169.7,61.4,171.5,59.3,171.5
			L59.3,171.5L59.3,171.5z M59.4,169.9c1.2,0,1.6-2.2,1.6-4.6c0-2.2-0.4-4.4-1.6-4.4s-1.7,2.2-1.7,4.5
			C57.6,167.7,58.1,169.9,59.4,169.9L59.4,169.9L59.4,169.9z"/>
		<path class="st1" d="M64.5,159.5c0.7-0.2,1.5-0.2,2.3-0.2c1.2,0,2.3,0.2,3,0.9c0.7,0.6,0.9,1.4,0.9,2.4c0,1.4-0.7,2.5-1.9,3v0
			c0.9,0.3,1.3,1.1,1.5,2.5c0.2,1.5,0.5,2.8,0.7,3.2h-2c-0.1-0.3-0.4-1.5-0.6-2.9c-0.2-1.6-0.7-2.1-1.6-2.1h-0.4v5h-1.9L64.5,159.5
			L64.5,159.5z M66.4,164.9h0.5c1.1,0,1.9-0.9,1.9-2.1s-0.5-2-1.7-2c-0.2,0-0.5,0-0.6,0.1L66.4,164.9L66.4,164.9z"/>
		<polygon class="st1" points="73.7,161.1 71.5,161.1 71.5,159.3 77.7,159.3 77.7,161.1 75.6,161.1 75.6,171.4 73.7,171.4 		"/>
		<polygon class="st1" points="80.8,159.4 80.8,164.3 83.7,164.3 83.7,159.4 85.6,159.4 85.6,171.4 83.7,171.4 83.7,166.1 
			80.8,166.1 80.8,171.4 78.9,171.4 78.9,159.4 		"/>
		<path class="st1" d="M88.9,171.4l-2.2-12h2l0.8,5.2c0.2,1.4,0.4,2.8,0.5,4.3H90c0.2-1.5,0.4-2.8,0.7-4.3l1-5.2h1.6l0.9,5.2
			c0.2,1.4,0.5,2.7,0.6,4.4h0c0.2-1.6,0.4-2.9,0.5-4.3l0.8-5.2h1.9l-2.2,12h-1.9l-0.9-4.8c-0.2-1.2-0.4-2.6-0.6-4h0
			c-0.2,1.4-0.4,2.7-0.7,4l-1,4.8L88.9,171.4L88.9,171.4z"/>
		<polygon class="st1" points="104,165.9 101.2,165.9 101.2,169.7 104.4,169.7 104.4,171.4 99.2,171.4 99.2,159.3 104.2,159.3 
			104.2,161 101.2,161 101.2,164.3 104,164.3 		"/>
		<path class="st1" d="M105.7,169.4c0.4,0.3,1.2,0.5,1.9,0.5c1.2,0,1.8-0.7,1.8-1.7s-0.6-1.5-1.6-2.2c-1.3-0.9-2.3-2.1-2.3-3.4
			c0-1.9,1.3-3.4,3.5-3.4c0.8,0,1.5,0.2,1.8,0.4l-0.3,1.6c-0.3-0.2-0.8-0.4-1.5-0.4c-1.1,0-1.6,0.7-1.6,1.5c0,0.9,0.5,1.4,1.7,2.1
			c1.5,1,2.1,2.2,2.1,3.4c0,2.2-1.5,3.5-3.7,3.5c-0.9,0-1.8-0.2-2.2-0.5L105.7,169.4L105.7,169.4z"/>
		<polygon class="st1" points="114,161.1 111.9,161.1 111.9,159.3 118.1,159.3 118.1,161.1 115.9,161.1 115.9,171.4 114,171.4 		"/>
		<rect x="123.5" y="159.3" class="st4" width="0.8" height="12.1"/>
		<path class="st1" d="M132.6,171.5c-2.4,0-3.6-2.5-3.6-6.2s1.4-6.1,3.8-6.1s3.5,2.8,3.5,6C136.3,169.7,134.7,171.5,132.6,171.5
			L132.6,171.5L132.6,171.5z M132.7,169.9c1.2,0,1.6-2.2,1.6-4.6c0-2.2-0.4-4.4-1.6-4.4s-1.7,2.2-1.7,4.5
			C130.9,167.7,131.4,169.9,132.7,169.9L132.7,169.9L132.7,169.9z"/>
		<path class="st1" d="M137.8,159.5c0.7-0.2,1.5-0.2,2.3-0.2c1.2,0,2.3,0.2,3,0.9c0.7,0.6,0.9,1.4,0.9,2.4c0,1.4-0.7,2.5-1.9,3v0
			c0.9,0.3,1.3,1.1,1.5,2.5c0.2,1.5,0.5,2.8,0.7,3.2h-2c-0.1-0.3-0.4-1.5-0.6-2.9c-0.2-1.6-0.7-2.1-1.6-2.1h-0.4v5h-1.9L137.8,159.5
			L137.8,159.5z M139.6,164.9h0.5c1.1,0,1.9-0.9,1.9-2.1s-0.5-2-1.7-2c-0.2,0-0.5,0-0.6,0.1L139.6,164.9L139.6,164.9z"/>
		<path class="st1" d="M148.5,171.5c-2.4,0-3.6-2.5-3.6-6.2s1.4-6.1,3.8-6.1s3.5,2.8,3.5,6C152.3,169.7,150.7,171.5,148.5,171.5
			L148.5,171.5L148.5,171.5z M148.6,169.9c1.2,0,1.6-2.2,1.6-4.6c0-2.2-0.4-4.4-1.6-4.4s-1.7,2.2-1.7,4.5
			C146.9,167.7,147.4,169.9,148.6,169.9L148.6,169.9L148.6,169.9z"/>
		<path class="st1" d="M158.4,171.4l-2.7-12h2.1l1,5.4c0.2,1.3,0.5,2.9,0.7,4.4h0.1c0.2-1.5,0.4-3,0.7-4.4l1-5.4h2.1l-2.8,12
			L158.4,171.4L158.4,171.4z"/>
		<path class="st1" d="M165,168.3l-0.6,3.1h-1.9l2.7-12h2.2l2.5,12H168l-0.6-3.1H165L165,168.3z M167.2,166.8l-0.5-2.8
			c-0.2-0.8-0.3-1.9-0.4-2.7h-0.1c-0.1,0.8-0.3,2-0.4,2.8l-0.5,2.8H167.2L167.2,166.8z"/>
		<polygon class="st1" points="171.1,159.4 173,159.4 173,169.8 176.2,169.8 176.2,171.4 171.1,171.4 		"/>
		<polygon class="st1" points="177.4,159.4 179.3,159.4 179.3,169.8 182.5,169.8 182.5,171.4 177.4,171.4 		"/>
		<polygon class="st1" points="188.4,165.9 185.6,165.9 185.6,169.7 188.8,169.7 188.8,171.4 183.7,171.4 183.7,159.3 188.6,159.3 
			188.6,161 185.6,161 185.6,164.3 188.4,164.3 		"/>
		<path class="st1" d="M192.1,171.4v-4.8l-2.6-7.2h2l0.9,2.9c0.3,0.8,0.5,1.7,0.8,2.6h0c0.2-0.9,0.4-1.8,0.7-2.7l0.8-2.9h2l-2.7,7.1
			v4.9L192.1,171.4L192.1,171.4z"/>
		<rect x="202" y="159.3" class="st4" width="0.8" height="12.1"/>
		<path class="st1" d="M208.5,169.4c0.4,0.3,1.2,0.5,1.9,0.5c1.2,0,1.8-0.7,1.8-1.7s-0.6-1.5-1.6-2.2c-1.3-0.9-2.3-2.1-2.3-3.4
			c0-1.9,1.3-3.4,3.5-3.4c0.8,0,1.5,0.2,1.8,0.4l-0.3,1.6c-0.3-0.2-0.8-0.4-1.5-0.4c-1.1,0-1.6,0.7-1.6,1.5c0,0.9,0.5,1.4,1.7,2.1
			c1.5,1,2.1,2.2,2.1,3.4c0,2.2-1.5,3.5-3.7,3.5c-0.9,0-1.8-0.2-2.2-0.5L208.5,169.4L208.5,169.4z"/>
		<path class="st1" d="M217.1,168.3l-0.6,3.1h-1.9l2.7-12h2.2l2.5,12h-1.9l-0.6-3.1H217.1L217.1,168.3z M219.3,166.8l-0.5-2.8
			c-0.2-0.8-0.3-1.9-0.4-2.7h-0.1c-0.1,0.8-0.3,2-0.4,2.8l-0.5,2.8H219.3z"/>
		<polygon class="st1" points="225.1,159.4 225.1,164.3 227.9,164.3 227.9,159.4 229.8,159.4 229.8,171.4 227.9,171.4 227.9,166.1 
			225.1,166.1 225.1,171.4 223.1,171.4 223.1,159.4 		"/>
		<path class="st1" d="M233.6,159.4v7.9c0,1.9,0.6,2.6,1.4,2.6c0.8,0,1.4-0.6,1.4-2.6v-7.9h1.9v7.6c0,3.1-1.2,4.6-3.3,4.6
			c-2.2,0-3.3-1.5-3.3-4.5v-7.7L233.6,159.4L233.6,159.4z"/>
		<path class="st1" d="M241.5,168.3l-0.6,3.1H239l2.7-12h2.2l2.5,12h-1.9l-0.6-3.1H241.5L241.5,168.3z M243.7,166.8l-0.5-2.8
			c-0.2-0.8-0.3-1.9-0.4-2.7h-0.1c-0.1,0.8-0.3,2-0.4,2.8l-0.5,2.8H243.7z"/>
		<path class="st1" d="M247.6,159.5c0.7-0.2,1.5-0.2,2.3-0.2c1.2,0,2.3,0.2,3,0.9c0.7,0.6,0.9,1.4,0.9,2.4c0,1.4-0.7,2.5-1.9,3v0
			c0.9,0.3,1.3,1.1,1.5,2.5c0.2,1.5,0.5,2.8,0.7,3.2h-2c-0.1-0.3-0.4-1.5-0.6-2.9c-0.2-1.6-0.7-2.1-1.6-2.1h-0.4v5h-1.9L247.6,159.5
			L247.6,159.5z M249.5,164.9h0.5c1.1,0,1.9-0.9,1.9-2.1s-0.5-2-1.7-2c-0.2,0-0.5,0-0.6,0.1V164.9z"/>
		<rect x="255.4" y="159.3" class="st1" width="1.9" height="12"/>
		<polygon class="st1" points="260.6,161.1 258.5,161.1 258.5,159.3 264.7,159.3 264.7,161.1 262.5,161.1 262.5,171.4 260.6,171.4 
					"/>
		<path class="st1" d="M266.9,168.3l-0.6,3.1h-1.9l2.7-12h2.2l2.5,12h-1.9l-0.6-3.1H266.9z M269.1,166.8l-0.5-2.8
			c-0.2-0.8-0.3-1.9-0.5-2.7h0c-0.1,0.8-0.3,2-0.5,2.8l-0.5,2.8H269.1L269.1,166.8z"/>
		<rect x="277.5" y="159.3" class="st4" width="0.8" height="12.1"/>
		<polygon class="st1" points="286.1,159.4 286.1,164.3 289,164.3 289,159.4 290.9,159.4 290.9,171.4 289,171.4 289,166.1 
			286.1,166.1 286.1,171.4 284.2,171.4 284.2,159.4 		"/>
		<path class="st1" d="M296,171.5c-2.4,0-3.6-2.5-3.6-6.2s1.4-6.1,3.8-6.1s3.5,2.8,3.5,6C299.7,169.7,298.1,171.5,296,171.5
			L296,171.5L296,171.5z M296.1,169.9c1.2,0,1.6-2.2,1.6-4.6c0-2.2-0.4-4.4-1.6-4.4s-1.7,2.2-1.7,4.5
			C294.3,167.7,294.8,169.9,296.1,169.9L296.1,169.9L296.1,169.9z"/>
		<path class="st1" d="M303,159.4v7.9c0,1.9,0.6,2.6,1.4,2.6c0.8,0,1.4-0.6,1.4-2.6v-7.9h1.9v7.6c0,3.1-1.2,4.6-3.3,4.6
			c-2.2,0-3.3-1.5-3.3-4.5v-7.7L303,159.4L303,159.4z"/>
		<path class="st1" d="M315.9,171.1c-0.5,0.2-1.5,0.4-2.3,0.4c-1.2,0-2.2-0.3-3-1.2c-1-1-1.5-2.7-1.5-4.8c0-4.5,2.5-6.2,4.9-6.2
			c0.8,0,1.5,0.2,1.9,0.4l-0.4,1.6c-0.3-0.2-0.8-0.3-1.4-0.3c-1.5,0-3,1.1-3,4.5s1.2,4.4,2.5,4.4c0.3,0,0.5,0,0.6-0.1v-3.4h-1.3
			v-1.6h3L315.9,171.1L315.9,171.1z"/>
		<polygon class="st1" points="319.5,159.4 319.5,164.3 322.4,164.3 322.4,159.4 324.3,159.4 324.3,171.4 322.4,171.4 322.4,166.1 
			319.5,166.1 319.5,171.4 317.6,171.4 317.6,159.4 		"/>
		<polygon class="st1" points="327.6,161.1 325.4,161.1 325.4,159.3 331.6,159.3 331.6,161.1 329.5,161.1 329.5,171.4 327.6,171.4 
					"/>
		<path class="st1" d="M335.7,171.5c-2.4,0-3.6-2.5-3.6-6.2s1.4-6.1,3.8-6.1s3.5,2.8,3.5,6C339.4,169.7,337.8,171.5,335.7,171.5
			L335.7,171.5L335.7,171.5z M335.8,169.9c1.2,0,1.6-2.2,1.6-4.6c0-2.2-0.4-4.4-1.6-4.4s-1.7,2.2-1.7,4.5
			C334.1,167.7,334.5,169.9,335.8,169.9L335.8,169.9L335.8,169.9z"/>
		<path class="st1" d="M340.9,171.4v-12h1.8l2,5.1c0.4,1.1,1,2.6,1.4,3.8h0c-0.1-1.5-0.2-3.4-0.2-5.5v-3.4h1.7v12h-1.8l-2.1-5.1
			c-0.5-1.1-1-2.6-1.3-3.8h0c0.1,1.4,0.1,3.1,0.1,5.6v3.4L340.9,171.4L340.9,171.4z"/>
	</g>
</g>
</svg>
