<?xml version="1.0" encoding="UTF-8"?><svg id="a" xmlns="http://www.w3.org/2000/svg" viewBox="0 0 780 250"><defs><style>.b{fill:#fff;}.c{fill:#c3dfd9;}.d{fill:#6bbbad;}.e{fill:#005687;}.f{fill:#6dc4bc;}</style></defs><rect class="e" width="780" height="250"/><g><rect class="b" x="392.8" y="56.71" width="2.57" height="136.2"/><path class="b" d="M394.87,57.21V192.41h-1.57V57.21h1.57m1-1h-3.57V193.41h3.57V56.21h0Z"/></g><g><g><path class="b" d="M499.01,97.31c-.65,1.36-1.55,2.5-2.69,3.42s-2.47,1.61-4,2.06c-1.52,.46-3.16,.69-4.9,.69h-5.19v9.32h-6.84v-31.07h12.7c1.86,0,3.53,.26,4.99,.78s2.71,1.25,3.73,2.2c1.02,.95,1.8,2.08,2.35,3.4,.55,1.32,.82,2.77,.82,4.37v.09c0,1.8-.32,3.38-.97,4.74h0Zm-5.95-4.7c0-1.54-.5-2.71-1.49-3.51s-2.35-1.2-4.06-1.2h-5.28v9.5h5.42c1.72,0,3.05-.45,4-1.35s1.42-2.02,1.42-3.35v-.09h-.01Z"/><path class="b" d="M546.11,112.81l-6.66-9.94h-5.37v9.94h-6.84v-31.08h14.21c3.7,0,6.58,.9,8.64,2.71s3.08,4.32,3.08,7.55v.09c0,2.52-.61,4.57-1.84,6.15-1.23,1.58-2.83,2.75-4.82,3.48l7.59,11.1h-7.99Zm.13-20.47c0-1.48-.47-2.59-1.42-3.33s-2.26-1.11-3.95-1.11h-6.79v8.92h6.92c1.69,0,2.98-.4,3.88-1.2,.9-.8,1.35-1.86,1.35-3.2v-.08h.01Z"/><path class="b" d="M581.84,112.81v-31.08h6.84v31.07h-6.84Z"/><path class="b" d="M640.44,112.81l-15.05-19.75v19.75h-6.75v-31.08h6.3l14.56,19.13v-19.13h6.75v31.07h-5.81Z"/><path class="b" d="M689.98,88.04v24.77h-6.84v-24.77h-9.46v-6.3h25.75v6.3h-9.45Z"/></g><g><path class="b" d="M462.76,152.24c-.65,1.36-1.55,2.5-2.69,3.42s-2.47,1.61-3.99,2.06c-1.52,.46-3.16,.69-4.91,.69h-5.19v9.32h-6.84v-31.07h12.7c1.86,0,3.53,.26,4.99,.78s2.71,1.25,3.73,2.2c1.02,.95,1.81,2.08,2.35,3.4,.55,1.32,.82,2.78,.82,4.37v.09c0,1.8-.32,3.38-.97,4.74h0Zm-5.95-4.7c0-1.54-.5-2.71-1.49-3.51-.99-.8-2.35-1.2-4.06-1.2h-5.28v9.5h5.42c1.72,0,3.05-.45,4-1.35,.95-.9,1.42-2.02,1.42-3.35v-.09h-.01Z"/><path class="b" d="M521.4,158.44c-.83,1.94-1.97,3.64-3.44,5.11-1.47,1.46-3.21,2.62-5.24,3.46-2.03,.84-4.24,1.26-6.64,1.26s-4.6-.42-6.61-1.26c-2.01-.84-3.75-1.98-5.22-3.42-1.46-1.44-2.61-3.12-3.42-5.06-.81-1.94-1.22-4.02-1.22-6.24v-.09c0-2.22,.42-4.3,1.24-6.24,.83-1.94,1.97-3.64,3.44-5.1,1.46-1.46,3.21-2.62,5.24-3.46,2.03-.84,4.24-1.27,6.64-1.27s4.6,.42,6.61,1.27c2.01,.84,3.75,1.98,5.22,3.42s2.6,3.12,3.42,5.06c.81,1.94,1.22,4.02,1.22,6.24v.09c.01,2.21-.41,4.29-1.24,6.23h0Zm-5.9-6.24c0-1.33-.23-2.59-.69-3.77-.46-1.18-1.11-2.22-1.95-3.11s-1.84-1.59-3-2.11c-1.15-.52-2.41-.78-3.77-.78s-2.66,.25-3.79,.75c-1.14,.5-2.12,1.2-2.93,2.09s-1.45,1.92-1.91,3.09-.69,2.42-.69,3.75v.09c0,1.33,.23,2.59,.69,3.77,.46,1.18,1.11,2.22,1.95,3.11s1.83,1.59,2.97,2.11,2.4,.78,3.8,.78,2.62-.25,3.77-.75,2.14-1.2,2.95-2.09,1.45-1.92,1.91-3.09c.46-1.17,.69-2.42,.69-3.75v-.09h0Z"/><path class="b" d="M569.79,167.74l-6.66-9.94h-5.37v9.94h-6.84v-31.07h14.21c3.7,0,6.58,.9,8.63,2.71,2.06,1.81,3.09,4.32,3.09,7.55v.07c0,2.52-.61,4.57-1.84,6.15-1.23,1.58-2.83,2.75-4.82,3.48l7.59,11.1h-7.99Zm.14-20.45c0-1.48-.47-2.59-1.42-3.33s-2.26-1.11-3.95-1.11h-6.79v8.92h6.92c1.69,0,2.98-.4,3.89-1.2,.9-.8,1.35-1.86,1.35-3.2v-.08Z"/><path class="b" d="M619.29,142.96v24.77h-6.84v-24.77h-9.45v-6.3h25.75v6.3h-9.46Z"/><path class="b" d="M679.31,167.74l-2.84-6.97h-13.14l-2.84,6.97h-6.97l13.32-31.3h6.3l13.32,31.3h-7.15Zm-9.41-23.09l-4.13,10.08h8.26l-4.13-10.08Z"/><path class="b" d="M713.45,167.74v-31.07h6.84v24.9h15.49v6.17h-22.33Z"/></g></g><g><path class="e" d="M79.07,141.61c-19.21,0-35.5-12.45-41.29-29.72,4,19.54,20.96,34.23,41.3,34.23s37.4-14.77,41.34-34.4c-5.73,17.36-22.07,29.89-41.35,29.89"/><path class="b" d="M122.69,99.43s-.41,0-.41,0h0l-.9-.02-3.12-.08c-.23,0-.51,0-.75,0-1.24,0-2.74,.07-4.46,.21l-.67-2.58-.24-.91-.92,.17-1.88,.34c-3.85-13.46-16.21-22.83-30.26-22.83s-26.41,9.37-30.26,22.83l-1.86-.35-.93-.17-.24,.91-.67,2.59c-1.72-.14-3.22-.21-4.46-.21-.24,0-.53,0-.76,.01l-3.24,.07-.95,.02c-.11,0-.23,0-.24,0-.23,2.82,.96,7.67,1.38,9.29,4.76,18.89,21.85,32.89,42.22,32.89s37.19-13.76,42.11-32.42v.08s1.79-6.41,1.52-9.83"/><path class="f" d="M64.36,131.74c-1.02-1.13-1.96-2.34-2.77-3.63-1.88-2.96-3.18-6.32-3.79-9.9-.25-1.48-.38-2.99-.38-4.52,0-3.67,.75-7.23,2.16-10.54-.64-.23-1.35-.47-2.12-.74-1.53-.52-3.27-1.07-4.94-1.54-1.25-.35-2.46-.65-3.52-.85,0,0-.04,.14-.09,.39-.11,.54-.31,1.59-.41,2.85-.04,.47-.06,.96-.06,1.48,0,11.33,5.82,21.29,14.62,27.08,.74,.49,1.5,.96,2.29,1.39,.21,.11,.71,.38,.89,.41-.53-.49-1.39-1.33-1.87-1.87"/><path class="f" d="M45.64,102.96c-1.74-.16-3.49-.27-4.99-.27-.21,0-.46,0-.66,.01,0,0,.02,.27,.09,.95,.11,1.25,.29,2.51,.56,3.77,1.76,8.37,6.6,15.29,13.09,19.85-5.18-6.24-8.16-14.16-8.16-22.54,0-.62,.03-1.21,.08-1.77"/><path class="f" d="M77.02,116.41c-1.02-6.22-6.26-12.49-12.39-16.51-.37,.54-.72,1.09-1.05,1.66-2.07,3.55-3.28,7.69-3.28,12.13s1.27,8.79,3.44,12.4c1.01,1.67,2.21,3.2,3.57,4.56,.25,.25,.5,.49,.76,.73,.73,.66,1.5,1.28,2.31,1.85,.01,0,.03,.02,.04,.03,.31,.21,.62,.41,.93,.61,.36,.23,.73,.45,1.11,.66,1.59,.88,3.29,1.57,5.08,2.05,.07-2.45,.23-9.35-.13-15.17-.05-1.88-.16-3.61-.39-4.99"/><path class="f" d="M93.8,131.74c1.02-1.13,1.96-2.34,2.77-3.63,1.88-2.96,3.18-6.32,3.79-9.9,.25-1.48,.38-2.99,.38-4.52,0-3.67-.75-7.23-2.16-10.54,.64-.23,1.35-.47,2.12-.74,1.54-.52,3.27-1.07,4.94-1.54,1.25-.35,2.46-.65,3.52-.85,0,0,.04,.14,.09,.39,.12,.54,.31,1.59,.41,2.85,.04,.47,.06,.96,.06,1.48,0,11.33-5.82,21.29-14.62,27.08-.74,.49-1.5,.96-2.29,1.39-.21,.11-.71,.38-.89,.41,.53-.49,1.39-1.33,1.87-1.87"/><path class="f" d="M112.52,102.96c1.74-.16,3.49-.27,4.99-.27,.21,0,.45,0,.65,0,0,0-.01,.27-.08,.95-.11,1.25-.29,2.51-.56,3.77-1.76,8.37-6.6,15.29-13.09,19.85,5.18-6.24,8.16-14.16,8.16-22.54,0-.62-.03-1.21-.08-1.77"/><path class="f" d="M81.14,116.41c1.02-6.22,6.26-12.49,12.39-16.51,.37,.54,.72,1.09,1.05,1.66,2.07,3.55,3.28,7.69,3.28,12.13s-1.27,8.79-3.44,12.4c-1.01,1.67-2.21,3.2-3.57,4.56-.25,.25-.5,.49-.76,.73-.73,.66-1.5,1.28-2.31,1.85-.01,0-.03,.02-.04,.03-.3,.21-.62,.41-.93,.61-.36,.23-.73,.45-1.11,.66-1.59,.88-3.29,1.57-5.08,2.05-.07-2.45-.23-9.35,.13-15.17,.05-1.88,.16-3.61,.39-4.99"/><path class="d" d="M64.36,131.74c-1.02-1.13-1.96-2.34-2.77-3.63-1.88-2.96-3.18-6.32-3.79-9.9-.25-1.48-.38-2.99-.38-4.52,0-3.67,.75-7.23,2.16-10.54-.64-.23-1.35-.47-2.12-.74-1.53-.52-3.27-1.07-4.94-1.54-1.25-.35-2.46-.65-3.52-.85,0,0-.04,.14-.09,.39-.11,.54-.31,1.59-.41,2.85-.04,.47-.06,.96-.06,1.48,0,11.33,5.82,21.29,14.62,27.08,.74,.49,1.5,.96,2.29,1.39,.21,.11,.71,.38,.89,.41-.53-.49-1.39-1.33-1.87-1.87"/><path class="d" d="M45.64,102.96c-1.74-.16-3.49-.27-4.99-.27-.21,0-.46,0-.66,.01,0,0,.02,.27,.09,.95,.11,1.25,.29,2.51,.56,3.77,1.76,8.37,6.6,15.29,13.09,19.85-5.18-6.24-8.16-14.16-8.16-22.54,0-.62,.03-1.21,.08-1.77"/><path class="d" d="M77.02,116.41c-1.02-6.22-6.26-12.49-12.39-16.51-.37,.54-.72,1.09-1.05,1.66-2.07,3.55-3.28,7.69-3.28,12.13s1.27,8.79,3.44,12.4c1.01,1.67,2.21,3.2,3.57,4.56,.25,.25,.5,.49,.76,.73,.73,.66,1.5,1.28,2.31,1.85,.01,0,.03,.02,.04,.03,.31,.21,.62,.41,.93,.61,.36,.23,.73,.45,1.11,.66,1.59,.88,3.29,1.57,5.08,2.05,.07-2.45,.23-9.35-.13-15.17-.05-1.88-.16-3.61-.39-4.99"/><path class="d" d="M93.8,131.74c1.02-1.13,1.96-2.34,2.77-3.63,1.88-2.96,3.18-6.32,3.79-9.9,.25-1.48,.38-2.99,.38-4.52,0-3.67-.75-7.23-2.16-10.54,.64-.23,1.35-.47,2.12-.74,1.54-.52,3.27-1.07,4.94-1.54,1.25-.35,2.46-.65,3.52-.85,0,0,.04,.14,.09,.39,.12,.54,.31,1.59,.41,2.85,.04,.47,.06,.96,.06,1.48,0,11.33-5.82,21.29-14.62,27.08-.74,.49-1.5,.96-2.29,1.39-.21,.11-.71,.38-.89,.41,.53-.49,1.39-1.33,1.87-1.87"/><path class="d" d="M112.52,102.96c1.74-.16,3.49-.27,4.99-.27,.21,0,.45,0,.65,0,0,0-.01,.27-.08,.95-.11,1.25-.29,2.51-.56,3.77-1.76,8.37-6.6,15.29-13.09,19.85,5.18-6.24,8.16-14.16,8.16-22.54,0-.62-.03-1.21-.08-1.77"/><path class="d" d="M81.14,116.41c1.02-6.22,6.26-12.49,12.39-16.51,.37,.54,.72,1.09,1.05,1.66,2.07,3.55,3.28,7.69,3.28,12.13s-1.27,8.79-3.44,12.4c-1.01,1.67-2.21,3.2-3.57,4.56-.25,.25-.5,.49-.76,.73-.73,.66-1.5,1.28-2.31,1.85-.01,0-.03,.02-.04,.03-.3,.21-.62,.41-.93,.61-.36,.23-.73,.45-1.11,.66-1.59,.88-3.29,1.57-5.08,2.05-.07-2.45-.23-9.35,.13-15.17,.05-1.88,.16-3.61,.39-4.99"/><path class="e" d="M53.61,97.65c1.56,.43,3.29,.97,5.14,1.6,.55,.19,1.08,.37,1.57,.54,.33-.55,.66-1.06,1-1.54l1.69-2.41,.56-.8,.82,.54,2.46,1.61c5.43,3.56,9.79,8.34,12.23,13.37,2.45-5.03,6.8-9.81,12.24-13.37l2.46-1.61,.82-.54,.56,.8,1.69,2.41c.33,.48,.66,.98,1,1.54,.49-.17,1.01-.35,1.57-.54,1.86-.63,3.59-1.17,5.14-1.6,.46-.13,.89-.24,1.3-.35-3.41-11.58-14.1-20.04-26.78-20.04s-23.37,8.46-26.78,20.04c.42,.11,.85,.22,1.31,.35"/><polygon class="b" points="148.66 106.2 135.13 87.19 130.72 87.19 130.72 114.11 135.34 114.11 135.34 95.1 148.88 114.11 153.29 114.11 153.29 87.19 148.66 87.19 148.66 106.2"/><path class="b" d="M171.12,86.75c-8.05,0-14.12,5.97-14.12,13.9s6.07,13.9,14.12,13.9,14.12-5.97,14.12-13.9-6.07-13.9-14.12-13.9m9.27,13.9c0,4.73-3.47,9.62-9.27,9.62s-9.27-4.89-9.27-9.62,3.47-9.62,9.27-9.62,9.27,4.89,9.27,9.62"/><path class="b" d="M206.5,95.43c0-4.93-3.93-8.24-9.77-8.24h-7.75v26.91h4.62v-10.44h1.49l7.34,10.44h5.58l-7.7-10.94c2.01-.57,6.18-2.4,6.18-7.74m-4.62,0c0,2.52-1.81,3.96-4.95,3.96h-3.32v-7.92h3.32c3.15,0,4.95,1.44,4.95,3.96"/><polygon class="b" points="208.65 91.47 216.45 91.47 216.45 114.11 221.07 114.11 221.07 91.47 228.88 91.47 228.88 87.19 208.65 87.19 208.65 91.47"/><polygon class="b" points="249.07 98.18 236.8 98.18 236.8 87.19 232.18 87.19 232.18 114.11 236.8 114.11 236.8 102.46 249.07 102.46 249.07 114.11 253.69 114.11 253.69 87.19 249.07 87.19 249.07 98.18"/><polygon class="b" points="302.56 102.46 314.06 102.46 314.06 98.18 302.56 98.18 302.56 91.47 314.99 91.47 314.99 87.19 297.94 87.19 297.94 114.11 315.22 114.11 315.22 109.83 302.56 109.83 302.56 102.46"/><path class="b" d="M329.53,98.75c-3.82-1.64-5.65-2.53-5.65-4.6,0-1.51,1.37-3.12,3.91-3.12,2.97,0,4.71,2.36,4.73,2.38l.41,.56,3.52-2.68-.37-.53c-.11-.16-2.87-4.01-8.29-4.01s-8.53,3.76-8.53,7.4c0,4.99,4.36,6.88,7.87,8.4,3.11,1.35,4.87,2.22,4.87,4.38,0,2.29-2.29,3.34-4.41,3.34-3.79,0-5.26-3.38-5.32-3.53l-.3-.7-3.91,2.2,.23,.55c.1,.23,2.46,5.75,9.29,5.75,5.28,0,9.11-3.2,9.11-7.61,0-4.71-3.25-6.49-7.17-8.18"/><polygon class="b" points="339.17 87.19 339.17 91.47 346.97 91.47 346.97 114.11 351.59 114.11 351.59 91.47 359.4 91.47 359.4 87.19 339.17 87.19"/><polygon class="b" points="268.62 114.31 275.8 95.91 282.94 114.31 284.28 114.31 295.1 87.19 290.18 87.19 283.7 103.68 277.55 87.19 274.24 87.19 268.02 103.68 261.62 87.19 256.5 87.19 267.28 114.31 268.62 114.31"/><polygon class="b" points="141.76 132.1 133.64 132.1 133.64 124.92 130.72 124.92 130.72 142.42 133.64 142.42 133.64 134.81 141.76 134.81 141.76 142.42 144.69 142.42 144.69 124.92 141.76 124.92 141.76 132.1"/><polygon class="b" points="159.39 134.81 166.9 134.81 166.9 132.1 159.39 132.1 159.39 127.63 167.51 127.63 167.51 124.92 156.46 124.92 156.46 142.42 167.67 142.42 167.67 139.72 159.39 139.72 159.39 134.81"/><path class="b" d="M185.01,124.92l-7.31,17.5h3.15l1.85-4.51h7.13l1.85,4.51h3.1l-7.26-17.5h-2.51Zm3.71,10.28h-4.91l2.45-5.97,2.45,5.97Z"/><polygon class="b" points="208.03 124.92 205.1 124.92 205.1 142.42 216 142.42 216 139.72 208.03 139.72 208.03 124.92"/><polygon class="b" points="223.08 127.63 228.18 127.63 228.18 142.42 231.11 142.42 231.11 127.63 236.21 127.63 236.21 124.92 223.08 124.92 223.08 127.63"/><polygon class="b" points="258.29 132.1 250.18 132.1 250.18 124.92 247.25 124.92 247.25 142.42 250.18 142.42 250.18 134.81 258.29 134.81 258.29 142.42 261.22 142.42 261.22 124.92 258.29 124.92 258.29 132.1"/><path class="b" d="M285.81,137.92s-1.84,2.08-4.83,2.08c-3.82,0-6.1-3.22-6.1-6.33s2.28-6.33,6.1-6.33c3.01,0,4.58,1.8,4.6,1.82l.26,.31,2.07-1.85-.26-.3c-.09-.11-2.38-2.69-6.67-2.69-5.23,0-9.18,3.88-9.18,9.03s3.95,9.04,9.18,9.04c4.29,0,6.77-2.76,6.87-2.88l.25-.29-2.03-1.94-.27,.32Z"/><path class="b" d="M303.77,124.92l-7.31,17.5h3.15l1.85-4.51h7.13l1.85,4.51h3.1l-7.26-17.5h-2.51Zm3.71,10.28h-4.91l2.45-5.97,2.45,5.97Z"/><path class="b" d="M335.23,130.26c0-3.19-2.55-5.34-6.34-5.34h-5.02v17.5h2.93v-6.82h1.04l4.8,6.82h3.54l-5.02-7.13c1.28-.35,4.07-1.51,4.07-5.03m-2.93,0c0,1.67-1.2,2.63-3.28,2.63h-2.22v-5.26h2.22c2.09,0,3.28,.96,3.28,2.63"/><polygon class="b" points="349.81 139.72 349.81 134.81 357.33 134.81 357.33 132.1 349.81 132.1 349.81 127.63 357.94 127.63 357.94 124.92 346.89 124.92 346.89 142.42 358.09 142.42 358.09 139.72 349.81 139.72"/><rect class="d" x="36.18" y="154.05" width="322.77" height="22.64"/><path class="b" d="M47.5,171.39v-12.04h1.75l2.04,5.14c.43,1.09,1.04,2.64,1.41,3.81h.04c-.11-1.54-.21-3.39-.21-5.54v-3.41h1.68v12.04h-1.75l-2.06-5.13c-.45-1.11-.98-2.55-1.32-3.82h-.04c.09,1.39,.14,3.09,.14,5.59v3.36h-1.68Z"/><path class="b" d="M59.26,171.53c-2.39,0-3.59-2.54-3.59-6.18s1.36-6.15,3.79-6.15,3.52,2.75,3.52,6c0,4.54-1.59,6.32-3.7,6.32h-.02Zm.11-1.66c1.23,0,1.63-2.16,1.63-4.57,0-2.18-.36-4.43-1.64-4.43s-1.71,2.23-1.7,4.47c-.02,2.38,.43,4.54,1.7,4.54h.02Z"/><path class="b" d="M64.47,159.52c.66-.16,1.5-.23,2.29-.23,1.25,0,2.29,.21,2.98,.88,.68,.64,.91,1.45,.91,2.45,0,1.39-.68,2.48-1.89,3.04v.04c.86,.3,1.29,1.11,1.54,2.54,.25,1.46,.53,2.75,.73,3.16h-1.98c-.14-.34-.41-1.52-.61-2.93-.23-1.57-.68-2.07-1.64-2.07h-.43v5h-1.89v-11.86Zm1.89,5.39h.5c1.14,0,1.86-.89,1.86-2.13s-.48-1.98-1.71-2c-.25,0-.48,.02-.64,.07v4.06Z"/><polygon class="b" points="73.66 161.1 71.5 161.1 71.5 159.34 77.74 159.34 77.74 161.1 75.58 161.1 75.58 171.39 73.66 171.39 73.66 161.1"/><polygon class="b" points="80.79 159.35 80.79 164.33 83.65 164.33 83.65 159.35 85.56 159.35 85.56 171.39 83.65 171.39 83.65 166.08 80.79 166.08 80.79 171.39 78.88 171.39 78.88 159.35 80.79 159.35"/><path class="b" d="M88.9,171.39l-2.18-12.04h1.98l.77,5.25c.21,1.45,.36,2.82,.5,4.29h.05c.16-1.5,.43-2.8,.7-4.31l.98-5.23h1.57l.93,5.18c.25,1.38,.48,2.73,.64,4.36h.04c.18-1.64,.36-2.95,.54-4.32l.77-5.22h1.88l-2.22,12.04h-1.95l-.91-4.79c-.21-1.2-.41-2.55-.57-3.96h-.04c-.2,1.41-.39,2.73-.66,3.98l-.98,4.77h-1.84Z"/><polygon class="b" points="104.02 165.9 101.16 165.9 101.16 169.72 104.42 169.72 104.42 171.39 99.25 171.39 99.25 159.34 104.2 159.34 104.2 161.01 101.16 161.01 101.16 164.31 104.02 164.31 104.02 165.9"/><path class="b" d="M105.7,169.35c.45,.27,1.23,.48,1.86,.48,1.18,0,1.82-.68,1.82-1.68s-.59-1.52-1.57-2.2c-1.34-.86-2.27-2.06-2.27-3.36,0-1.88,1.27-3.36,3.52-3.36,.77,0,1.46,.23,1.79,.43l-.34,1.64c-.34-.21-.84-.41-1.48-.41-1.09,0-1.61,.73-1.61,1.47,0,.93,.48,1.36,1.71,2.14,1.52,1,2.13,2.16,2.13,3.45,0,2.16-1.54,3.54-3.7,3.54-.89,0-1.8-.25-2.18-.5l.32-1.64Z"/><polygon class="b" points="114.03 161.1 111.87 161.1 111.87 159.34 118.11 159.34 118.11 161.1 115.95 161.1 115.95 171.39 114.03 171.39 114.03 161.1"/><rect class="c" x="123.54" y="159.32" width=".77" height="12.06"/><path class="b" d="M132.55,171.53c-2.39,0-3.59-2.54-3.59-6.18s1.36-6.15,3.79-6.15,3.52,2.75,3.52,6c0,4.54-1.59,6.32-3.7,6.32h-.02Zm.11-1.66c1.23,0,1.63-2.16,1.63-4.57,0-2.18-.36-4.43-1.64-4.43s-1.71,2.23-1.7,4.47c-.02,2.38,.43,4.54,1.7,4.54h.02Z"/><path class="b" d="M137.75,159.52c.66-.16,1.5-.23,2.29-.23,1.25,0,2.29,.21,2.98,.88,.68,.64,.91,1.45,.91,2.45,0,1.39-.68,2.48-1.89,3.04v.04c.86,.3,1.29,1.11,1.54,2.54,.25,1.46,.53,2.75,.73,3.16h-1.98c-.14-.34-.41-1.52-.61-2.93-.23-1.57-.68-2.07-1.64-2.07h-.43v5h-1.89v-11.86Zm1.89,5.39h.5c1.14,0,1.86-.89,1.86-2.13s-.48-1.98-1.71-2c-.25,0-.48,.02-.64,.07v4.06Z"/><path class="b" d="M148.54,171.53c-2.39,0-3.59-2.54-3.59-6.18s1.36-6.15,3.79-6.15,3.52,2.75,3.52,6c0,4.54-1.59,6.32-3.7,6.32h-.02Zm.11-1.66c1.23,0,1.63-2.16,1.63-4.57,0-2.18-.36-4.43-1.64-4.43s-1.71,2.23-1.7,4.47c-.02,2.38,.43,4.54,1.7,4.54h.02Z"/><path class="b" d="M158.44,171.39l-2.71-12.04h2.09l1,5.4c.23,1.32,.54,2.91,.71,4.38h.05c.16-1.48,.43-3.02,.68-4.41l.96-5.36h2.07l-2.77,12.04h-2.09Z"/><path class="b" d="M164.96,168.26l-.64,3.12h-1.86l2.68-12.04h2.23l2.48,12.04h-1.86l-.64-3.12h-2.39Zm2.2-1.5l-.5-2.77c-.16-.79-.32-1.89-.45-2.73h-.05c-.12,.84-.3,2-.45,2.75l-.54,2.75h1.98Z"/><polygon class="b" points="171.06 159.35 172.97 159.35 172.97 169.78 176.19 169.78 176.19 171.39 171.06 171.39 171.06 159.35"/><polygon class="b" points="177.36 159.35 179.27 159.35 179.27 169.78 182.49 169.78 182.49 171.39 177.36 171.39 177.36 159.35"/><polygon class="b" points="188.43 165.9 185.57 165.9 185.57 169.72 188.83 169.72 188.83 171.39 183.66 171.39 183.66 159.34 188.61 159.34 188.61 161.01 185.57 161.01 185.57 164.31 188.43 164.31 188.43 165.9"/><path class="b" d="M192.07,171.39v-4.82l-2.64-7.22h2.02l.93,2.93c.27,.8,.53,1.73,.75,2.64h.04c.2-.89,.45-1.81,.71-2.7l.84-2.88h1.98l-2.72,7.15v4.89h-1.91Z"/><rect class="c" x="202.04" y="159.32" width=".77" height="12.06"/><path class="b" d="M208.46,169.35c.45,.27,1.23,.48,1.86,.48,1.18,0,1.82-.68,1.82-1.68s-.59-1.52-1.57-2.2c-1.34-.86-2.27-2.06-2.27-3.36,0-1.88,1.27-3.36,3.52-3.36,.77,0,1.46,.23,1.79,.43l-.34,1.64c-.34-.21-.84-.41-1.48-.41-1.09,0-1.61,.73-1.61,1.47,0,.93,.48,1.36,1.71,2.14,1.52,1,2.13,2.16,2.13,3.45,0,2.16-1.54,3.54-3.7,3.54-.89,0-1.81-.25-2.18-.5l.32-1.64Z"/><path class="b" d="M217.06,168.26l-.64,3.12h-1.86l2.68-12.04h2.23l2.48,12.04h-1.86l-.64-3.12h-2.39Zm2.2-1.5l-.5-2.77c-.16-.79-.32-1.89-.44-2.73h-.05c-.12,.84-.3,2-.45,2.75l-.54,2.75h1.98Z"/><polygon class="b" points="225.07 159.35 225.07 164.33 227.92 164.33 227.92 159.35 229.84 159.35 229.84 171.39 227.92 171.39 227.92 166.08 225.07 166.08 225.07 171.39 223.15 171.39 223.15 159.35 225.07 159.35"/><path class="b" d="M233.55,159.35v7.93c0,1.95,.61,2.57,1.36,2.57,.84,0,1.4-.61,1.4-2.57v-7.93h1.91v7.61c0,3.11-1.23,4.57-3.31,4.57-2.2,0-3.27-1.5-3.27-4.48v-7.7h1.91Z"/><path class="b" d="M241.54,168.26l-.64,3.12h-1.86l2.68-12.04h2.23l2.48,12.04h-1.86l-.64-3.12h-2.39Zm2.2-1.5l-.5-2.77c-.16-.79-.32-1.89-.44-2.73h-.05c-.12,.84-.3,2-.45,2.75l-.54,2.75h1.98Z"/><path class="b" d="M247.64,159.52c.66-.16,1.5-.23,2.29-.23,1.25,0,2.29,.21,2.98,.88,.68,.64,.91,1.45,.91,2.45,0,1.39-.68,2.48-1.89,3.04v.04c.86,.3,1.29,1.11,1.54,2.54,.25,1.46,.54,2.75,.73,3.16h-1.98c-.14-.34-.41-1.52-.61-2.93-.23-1.57-.68-2.07-1.64-2.07h-.43v5h-1.89v-11.86Zm1.89,5.39h.5c1.14,0,1.86-.89,1.86-2.13s-.48-1.98-1.72-2c-.25,0-.48,.02-.64,.07v4.06Z"/><rect class="b" x="255.43" y="159.34" width="1.91" height="12.04"/><polygon class="b" points="260.64 161.1 258.47 161.1 258.47 159.34 264.71 159.34 264.71 161.1 262.55 161.1 262.55 171.39 260.64 171.39 260.64 161.1"/><path class="b" d="M266.85,168.26l-.64,3.12h-1.86l2.68-12.04h2.23l2.48,12.04h-1.86l-.64-3.12h-2.39Zm2.2-1.5l-.5-2.77c-.16-.79-.32-1.89-.45-2.73h-.05c-.12,.84-.3,2-.45,2.75l-.54,2.75h1.98Z"/><rect class="c" x="277.54" y="159.32" width=".77" height="12.06"/><polygon class="b" points="286.13 159.35 286.13 164.33 288.99 164.33 288.99 159.35 290.9 159.35 290.9 171.39 288.99 171.39 288.99 166.08 286.13 166.08 286.13 171.39 284.22 171.39 284.22 159.35 286.13 159.35"/><path class="b" d="M295.96,171.53c-2.39,0-3.59-2.54-3.59-6.18s1.36-6.15,3.79-6.15,3.52,2.75,3.52,6c0,4.54-1.59,6.32-3.7,6.32h-.02Zm.11-1.66c1.23,0,1.63-2.16,1.63-4.57,0-2.18-.36-4.43-1.65-4.43s-1.71,2.23-1.7,4.47c-.02,2.38,.43,4.54,1.7,4.54h.02Z"/><path class="b" d="M303,159.35v7.93c0,1.95,.61,2.57,1.36,2.57,.84,0,1.4-.61,1.4-2.57v-7.93h1.91v7.61c0,3.11-1.23,4.57-3.31,4.57-2.2,0-3.27-1.5-3.27-4.48v-7.7h1.91Z"/><path class="b" d="M315.9,171.06c-.52,.21-1.5,.43-2.34,.43-1.23,0-2.25-.34-3.05-1.18-.95-.98-1.52-2.72-1.5-4.84,.04-4.52,2.5-6.23,4.86-6.23,.84,0,1.48,.16,1.86,.36l-.38,1.64c-.32-.18-.77-.28-1.38-.28-1.55,0-2.98,1.14-2.98,4.54s1.25,4.38,2.52,4.38c.32,0,.52-.03,.63-.09v-3.38h-1.29v-1.57h3.05v6.23Z"/><polygon class="b" points="319.5 159.35 319.5 164.33 322.36 164.33 322.36 159.35 324.27 159.35 324.27 171.39 322.36 171.39 322.36 166.08 319.5 166.08 319.5 171.39 317.59 171.39 317.59 159.35 319.5 159.35"/><polygon class="b" points="327.58 161.1 325.41 161.1 325.41 159.34 331.65 159.34 331.65 161.1 329.49 161.1 329.49 171.39 327.58 171.39 327.58 161.1"/><path class="b" d="M335.71,171.53c-2.39,0-3.59-2.54-3.59-6.18s1.36-6.15,3.79-6.15,3.52,2.75,3.52,6c0,4.54-1.59,6.32-3.7,6.32h-.02Zm.11-1.66c1.23,0,1.63-2.16,1.63-4.57,0-2.18-.36-4.43-1.65-4.43s-1.71,2.23-1.7,4.47c-.02,2.38,.43,4.54,1.7,4.54h.02Z"/><path class="b" d="M340.92,171.39v-12.04h1.75l2.04,5.14c.43,1.09,1.04,2.64,1.41,3.81h.03c-.11-1.54-.21-3.39-.21-5.54v-3.41h1.68v12.04h-1.75l-2.06-5.13c-.45-1.11-.98-2.55-1.32-3.82h-.04c.09,1.39,.14,3.09,.14,5.59v3.36h-1.68Z"/></g></svg>