<?xml version="1.0" encoding="UTF-8"?><svg id="a" xmlns="http://www.w3.org/2000/svg" xmlns:xlink="http://www.w3.org/1999/xlink" viewBox="0 0 868.12 70.88"><defs><style>.e{fill:#fff;}.f{fill:#004a7c;}.g{fill:url(#d);}.h{fill:#6dc4bc;}.i{fill:#c3e4e0;}</style><linearGradient id="d" x1="-1171.08" y1="3478.26" x2="-1100.15" y2="3478.26" gradientTransform="translate(-3044.2 1171.08) rotate(90) scale(1 -1)" gradientUnits="userSpaceOnUse"><stop offset="0" stop-color="#fff" stop-opacity="0"/><stop offset=".14" stop-color="#fff" stop-opacity="0"/><stop offset=".27" stop-color="#fff" stop-opacity=".06"/><stop offset=".39" stop-color="#fff" stop-opacity=".13"/><stop offset=".51" stop-color="#fff" stop-opacity=".23"/><stop offset=".63" stop-color="#fff" stop-opacity=".36"/><stop offset=".74" stop-color="#fff" stop-opacity=".52"/><stop offset=".86" stop-color="#fff" stop-opacity=".71"/><stop offset=".96" stop-color="#fff" stop-opacity=".92"/><stop offset="1" stop-color="#fff"/></linearGradient></defs><g id="b"><g id="c"><polygon class="g" points="0 70.93 0 0 868.12 0 868.12 70.93 0 70.93"/></g></g><rect class="f" x="142.34" y="19.47" width=".37" height="31.93"/><g><path class="f" d="M158.33,35.4c-.12,.24-.27,.44-.47,.6s-.44,.28-.7,.36c-.27,.08-.55,.12-.86,.12h-.91v1.64h-1.2v-5.45h2.22c.33,0,.62,.04,.87,.13,.26,.09,.48,.22,.65,.39s.32,.36,.41,.6,.14,.49,.14,.76v.02c0,.33-.07,.6-.18,.84h.03Zm-1.04-.84c0-.27-.08-.48-.26-.61-.18-.14-.41-.21-.71-.21h-.92v1.66h.95c.3,0,.54-.08,.7-.24s.25-.35,.25-.59v-.02h0Z"/><path class="f" d="M170.01,38.12l-1.17-1.75h-.94v1.75h-1.2v-5.45h2.49c.65,0,1.15,.16,1.51,.48s.54,.76,.54,1.33v.02c0,.44-.11,.8-.32,1.07-.22,.28-.5,.48-.85,.61l1.33,1.95h-1.39Zm.02-3.61c0-.26-.08-.45-.25-.58s-.39-.19-.69-.19h-1.19v1.56h1.22c.29,0,.52-.07,.68-.21s.24-.33,.24-.56v-.02h0Z"/><path class="f" d="M179.69,38.12v-5.45h1.2v5.45h-1.2Z"/><path class="f" d="M193.38,38.12l-2.64-3.46v3.46h-1.18v-5.45h1.11l2.55,3.35v-3.35h1.18v5.45h-1.02Z"/><path class="f" d="M205.48,33.78v4.34h-1.2v-4.34h-1.65v-1.11h4.52v1.11h-1.67Z"/><path class="f" d="M229.15,35.4c-.12,.24-.27,.44-.47,.6s-.44,.28-.7,.36-.55,.12-.86,.12h-.91v1.64h-1.2v-5.45h2.22c.33,0,.62,.04,.87,.13,.26,.09,.48,.22,.65,.39,.18,.17,.32,.36,.41,.6s.14,.49,.14,.76v.02c0,.33-.06,.6-.18,.84h.03Zm-1.04-.84c0-.27-.08-.48-.26-.61-.18-.14-.41-.21-.71-.21h-.92v1.66h.95c.3,0,.54-.08,.7-.24,.17-.16,.25-.35,.25-.59v-.02h-.01Z"/><path class="f" d="M242.85,36.49c-.14,.34-.34,.64-.6,.9s-.56,.46-.92,.6c-.35,.15-.74,.22-1.16,.22s-.81-.08-1.16-.22c-.35-.15-.65-.34-.92-.6s-.45-.55-.6-.89-.21-.71-.21-1.09v-.02c0-.39,.08-.76,.22-1.09,.14-.34,.34-.64,.6-.9s.56-.46,.92-.6c.35-.15,.74-.22,1.17-.22s.81,.08,1.16,.22c.35,.15,.65,.34,.92,.6s.45,.55,.6,.89c.14,.34,.21,.71,.21,1.09v.02c0,.39-.08,.75-.23,1.09Zm-1.03-1.1c0-.24-.04-.45-.12-.66s-.19-.39-.34-.55-.32-.28-.53-.37-.42-.13-.66-.13-.46,.04-.66,.13-.37,.21-.51,.37-.25,.34-.34,.54-.12,.42-.12,.65v.02c0,.24,.04,.45,.12,.66s.19,.39,.34,.55c.15,.15,.32,.28,.52,.37,.2,.09,.42,.13,.66,.13s.46-.04,.66-.13c.2-.08,.38-.21,.52-.37s.25-.34,.34-.54,.12-.43,.12-.65v-.02h0Z"/><path class="f" d="M254.76,38.12l-1.17-1.75h-.94v1.75h-1.2v-5.45h2.49c.65,0,1.15,.16,1.51,.48,.36,.32,.54,.76,.54,1.33v.02c0,.44-.11,.8-.32,1.07-.22,.28-.5,.48-.84,.61l1.33,1.95h-1.4Zm.03-3.61c0-.26-.08-.45-.25-.58s-.39-.19-.7-.19h-1.19v1.56h1.22c.29,0,.52-.07,.68-.21s.24-.33,.24-.56v-.02h0Z"/><path class="f" d="M266.85,33.78v4.34h-1.2v-4.34h-1.65v-1.11h4.52v1.11h-1.67Z"/><path class="f" d="M280.8,38.12l-.5-1.23h-2.3l-.5,1.23h-1.23l2.33-5.48h1.11l2.33,5.48h-1.24Zm-1.65-4.05l-.72,1.76h1.44l-.72-1.76Z"/><path class="f" d="M290.2,38.12v-5.45h1.2v4.37h2.71v1.08h-3.91Z"/></g><g><g><g><g><path class="h" d="M22.24,37.3c-.37-.43-.74-.85-1.01-1.33-.69-1.12-1.17-2.34-1.44-3.67-.11-.53-.16-1.12-.16-1.7,0-1.38,.27-2.71,.8-3.94-.21-.11-.48-.16-.8-.27-.59-.21-1.22-.43-1.86-.59-.48-.11-.9-.27-1.33-.32,0,0,0,.05-.05,.16-.05,.21-.11,.59-.16,1.06v.53c0,4.2,2.18,7.92,5.43,10.11,.27,.16,.59,.37,.85,.53,.05,.05,.27,.16,.32,.16-.11-.27-.43-.59-.59-.74Z"/><path class="h" d="M15.27,26.55c-.64-.05-1.28-.11-1.86-.11h-.21v.37c.05,.48,.11,.96,.21,1.38,.64,3.14,2.45,5.69,4.89,7.39-1.91-2.34-3.03-5.27-3.03-8.4-.05-.21,0-.43,0-.64Z"/><path class="h" d="M26.98,31.55c-.37-2.34-2.34-4.68-4.63-6.17-.16,.21-.27,.43-.37,.64-.8,1.33-1.22,2.87-1.22,4.52s.48,3.3,1.28,4.63c.37,.64,.8,1.17,1.33,1.7,.11,.11,.21,.16,.27,.27,.27,.27,.59,.48,.85,.69h0c.11,.05,.21,.16,.37,.21,.16,.11,.27,.16,.43,.27,.59,.32,1.22,.59,1.91,.74,.05-.9,.11-3.46-.05-5.64-.05-.69-.11-1.33-.16-1.86Z"/></g><g><path class="h" d="M33.2,37.3c.37-.43,.74-.85,1.01-1.33,.69-1.12,1.17-2.34,1.44-3.67,.11-.53,.16-1.12,.16-1.7,0-1.38-.27-2.71-.8-3.94,.21-.11,.48-.16,.8-.27,.59-.21,1.22-.43,1.86-.59,.48-.11,.9-.27,1.33-.32,0,0,0,.05,.05,.16,.05,.21,.11,.59,.16,1.06v.53c0,4.2-2.18,7.92-5.43,10.11-.27,.16-.59,.37-.85,.53-.05,.05-.27,.16-.32,.16,.11-.27,.43-.59,.59-.74Z"/><path class="h" d="M40.17,26.55c.64-.05,1.28-.11,1.86-.11h.21v.37c-.05,.48-.11,.96-.21,1.38-.64,3.14-2.45,5.69-4.84,7.39,1.91-2.34,3.03-5.27,3.03-8.4,0-.21,0-.43-.05-.64Z"/><path class="h" d="M28.52,31.55c.37-2.34,2.34-4.68,4.63-6.17,.16,.21,.27,.43,.37,.64,.8,1.33,1.22,2.87,1.22,4.52s-.48,3.3-1.28,4.63c-.37,.64-.8,1.17-1.33,1.7-.11,.11-.21,.16-.27,.27-.27,.27-.59,.48-.85,.69h0c-.11,.05-.21,.16-.37,.21-.16,.11-.27,.16-.43,.27-.59,.32-1.22,.59-1.91,.74-.05-.9-.11-3.46,.05-5.64,0-.69,.05-1.33,.16-1.86Z"/></g></g><path class="f" d="M27.72,40.81c-6.97,0-12.92-4.36-15.26-10.53,1.54,7.02,7.82,12.29,15.26,12.29s13.72-5.27,15.32-12.29c-2.39,6.17-8.35,10.53-15.32,10.53Z"/><path class="f" d="M20.91,25.7c.16-.27,.32-.59,.53-.85l.59-.85,.85,.59c2.34,1.54,4.1,3.67,4.79,5.74,.74-2.13,2.5-4.25,4.79-5.74l.85-.59,.59,.85c.21,.27,.37,.59,.53,.85,.85-.32,2.13-.74,3.24-1.01-1.06-4.47-5.11-7.71-9.95-7.71s-8.83,3.24-10.05,7.71c1.17,.27,2.45,.74,3.24,1.01Z"/></g><g><polygon class="f" points="53.68 27.67 48.68 20.6 47.03 20.6 47.03 30.65 48.73 30.65 48.73 23.57 53.78 30.65 55.43 30.65 55.43 20.6 53.68 20.6 53.68 27.67"/><path class="f" d="M62.03,20.44c-2.98,0-5.27,2.23-5.27,5.16s2.23,5.16,5.27,5.16,5.27-2.23,5.27-5.16-2.23-5.16-5.27-5.16Zm3.46,5.16c0,1.76-1.28,3.56-3.46,3.56s-3.46-1.81-3.46-3.56,1.28-3.56,3.46-3.56,3.46,1.81,3.46,3.56Z"/><path class="f" d="M75.22,23.68c0-1.81-1.44-3.08-3.62-3.08h-2.87v10h1.7v-3.88h.53l2.71,3.88h2.07l-2.87-4.1c.8-.16,2.34-.85,2.34-2.82Zm-1.7,0c0,.96-.69,1.49-1.86,1.49h-1.22v-2.98h1.22c1.17,0,1.86,.53,1.86,1.49Z"/><polygon class="f" points="76.01 22.19 78.89 22.19 78.89 30.65 80.64 30.65 80.64 22.19 83.51 22.19 83.51 20.6 76.01 20.6 76.01 22.19"/><polygon class="f" points="91.07 24.69 86.49 24.69 86.49 20.6 84.74 20.6 84.74 30.65 86.49 30.65 86.49 26.29 91.07 26.29 91.07 30.65 92.77 30.65 92.77 20.6 91.07 20.6 91.07 24.69"/><polygon class="f" points="110.96 26.29 115.21 26.29 115.21 24.69 110.96 24.69 110.96 22.19 115.58 22.19 115.58 20.6 109.2 20.6 109.2 30.65 115.64 30.65 115.64 29.05 110.96 29.05 110.96 26.29"/><path class="f" d="M120.96,24.9c-1.44-.64-2.13-.96-2.13-1.7,0-.59,.53-1.17,1.44-1.17,1.12,0,1.76,.85,1.76,.9l.16,.21,1.33-1.01-.16-.21c-.05-.05-1.06-1.49-3.08-1.49s-3.19,1.38-3.19,2.77c0,1.86,1.65,2.55,2.93,3.14,1.17,.48,1.81,.85,1.81,1.65,0,.85-.85,1.22-1.65,1.22-1.44,0-1.97-1.28-1.97-1.33l-.11-.27-1.44,.8,.11,.21c.05,.11,.9,2.13,3.46,2.13,1.97,0,3.4-1.17,3.4-2.82,.05-1.76-1.17-2.39-2.66-3.03Z"/><polygon class="f" points="124.57 20.6 124.57 22.19 127.5 22.19 127.5 30.65 129.2 30.65 129.2 22.19 132.07 22.19 132.07 20.6 124.57 20.6"/><polygon class="f" points="98.3 30.7 101.01 23.84 103.67 30.7 104.15 30.7 108.19 20.6 106.33 20.6 103.94 26.77 101.65 20.6 100.43 20.6 98.09 26.77 95.69 20.6 93.83 20.6 97.82 30.7 98.3 30.7"/></g><g><polygon class="f" points="51.12 37.35 48.09 37.35 48.09 34.64 47.03 34.64 47.03 41.18 48.09 41.18 48.09 38.31 51.12 38.31 51.12 41.18 52.19 41.18 52.19 34.64 51.12 34.64 51.12 37.35"/><polygon class="f" points="57.66 38.31 60.48 38.31 60.48 37.35 57.66 37.35 57.66 35.65 60.7 35.65 60.7 34.64 56.6 34.64 56.6 41.18 60.75 41.18 60.75 40.17 57.66 40.17 57.66 38.31"/><path class="f" d="M67.18,34.64l-2.71,6.49h1.17l.69-1.7h2.66l.69,1.7h1.17l-2.71-6.49h-.96Zm1.38,3.83h-1.81l.9-2.23,.9,2.23Z"/><polygon class="f" points="75.8 34.64 74.68 34.64 74.68 41.18 78.73 41.18 78.73 40.17 75.8 40.17 75.8 34.64"/><polygon class="f" points="81.39 35.65 83.25 35.65 83.25 41.18 84.36 41.18 84.36 35.65 86.28 35.65 86.28 34.64 81.39 34.64 81.39 35.65"/><polygon class="f" points="94.47 37.35 91.44 37.35 91.44 34.64 90.37 34.64 90.37 41.18 91.44 41.18 91.44 38.31 94.47 38.31 94.47 41.18 95.59 41.18 95.59 34.64 94.47 34.64 94.47 37.35"/><path class="f" d="M104.73,39.48s-.69,.8-1.81,.8c-1.44,0-2.29-1.22-2.29-2.34s.85-2.34,2.29-2.34c1.12,0,1.7,.69,1.7,.69l.11,.11,.74-.69-.11-.11c-.05-.05-.9-1.01-2.5-1.01-1.97,0-3.4,1.44-3.4,3.35s1.49,3.35,3.4,3.35c1.6,0,2.5-1.01,2.55-1.06l.11-.11-.74-.74-.05,.11Z"/><path class="f" d="M111.38,34.64l-2.71,6.49h1.17l.69-1.7h2.66l.69,1.7h1.17l-2.71-6.49h-.96Zm1.38,3.83h-1.81l.9-2.23,.9,2.23Z"/><path class="f" d="M123.08,36.66c0-1.17-.96-1.97-2.34-1.97h-1.86v6.49h1.06v-2.55h.37l1.81,2.55h1.33l-1.86-2.66c.48-.16,1.49-.59,1.49-1.86Zm-1.06,0c0,.64-.43,.96-1.22,.96h-.85v-1.97h.85c.74,0,1.22,.37,1.22,1.01Z"/><polygon class="f" points="128.51 40.17 128.51 38.31 131.33 38.31 131.33 37.35 128.51 37.35 128.51 35.65 131.54 35.65 131.54 34.64 127.45 34.64 127.45 41.18 131.59 41.18 131.59 40.17 128.51 40.17"/></g><rect class="h" x="12.19" y="45.54" width="119.67" height="8.4"/><g><path class="e" d="M16.18,52.03v-4.47h.64l.74,1.91c.16,.43,.37,.96,.53,1.44h0c-.05-.59-.05-1.28-.05-2.07v-1.28h.64v4.47h-.64l-.74-1.91c-.16-.43-.37-.96-.48-1.44h0c.05,.53,.05,1.17,.05,2.07v1.22h-.69v.05Z"/><path class="e" d="M20.59,52.08c-.9,0-1.33-.96-1.33-2.29s.48-2.29,1.38-2.29c.96,0,1.33,1.01,1.33,2.23,0,1.65-.64,2.34-1.38,2.34h0Zm0-.64c.48,0,.59-.8,.59-1.7,0-.8-.11-1.65-.59-1.65s-.64,.85-.64,1.65c0,.9,.16,1.7,.64,1.7h0Z"/><path class="e" d="M22.51,47.61c.27-.05,.53-.11,.85-.11,.48,0,.85,.05,1.12,.32,.27,.21,.32,.53,.32,.9,0,.53-.27,.9-.69,1.12h0c.32,.11,.48,.43,.59,.96,.11,.53,.21,1.01,.27,1.17h-.74c-.05-.11-.16-.59-.21-1.06-.11-.59-.27-.74-.59-.74h-.16v1.86h-.69v-4.41h-.05Zm.69,1.97h.21c.43,0,.69-.32,.69-.8,0-.43-.16-.74-.64-.74-.11,0-.16,0-.21,.05v1.49h-.05Z"/><path class="e" d="M25.91,48.2h-.8v-.64h2.34v.64h-.8v3.83h-.69v-3.83h-.05Z"/><path class="e" d="M28.57,47.51v1.86h1.06v-1.86h.69v4.47h-.69v-1.97h-1.06v1.97h-.69v-4.47h.69Z"/><path class="e" d="M31.6,52.03l-.8-4.52h.74l.27,1.97c.05,.53,.11,1.06,.21,1.6h0c.05-.53,.16-1.06,.27-1.6l.37-1.97h.59l.32,1.91c.11,.53,.16,1.01,.27,1.6h0c.05-.59,.11-1.12,.21-1.6l.27-1.91h.69l-.8,4.47h-.74l-.32-1.76c-.05-.43-.16-.96-.21-1.49h0c-.05,.53-.16,1.01-.27,1.49l-.37,1.76h-.69v.05Z"/><path class="e" d="M37.24,49.95h-1.06v1.44h1.22v.64h-1.91v-4.47h1.86v.64h-1.12v1.22h1.06v.53h-.05Z"/><path class="e" d="M37.88,51.23c.16,.11,.48,.16,.69,.16,.43,0,.69-.27,.69-.64s-.21-.59-.59-.8c-.48-.32-.85-.74-.85-1.22,0-.69,.48-1.22,1.33-1.22,.27,0,.53,.11,.64,.16l-.11,.64c-.11-.11-.32-.16-.53-.16-.43,0-.59,.27-.59,.53,0,.32,.16,.48,.64,.8,.59,.37,.8,.8,.8,1.28,0,.8-.59,1.33-1.38,1.33-.32,0-.69-.11-.8-.21l.05-.64Z"/><path class="e" d="M40.96,48.2h-.8v-.64h2.34v.64h-.8v3.83h-.69v-3.83h-.05Z"/><path class="i" d="M44.47,47.51h.27v4.47h-.27v-4.47Z"/><path class="e" d="M47.82,52.08c-.9,0-1.33-.96-1.33-2.29s.48-2.29,1.38-2.29c.96,0,1.33,1.01,1.33,2.23,0,1.65-.59,2.34-1.38,2.34h0Zm.05-.64c.48,0,.59-.8,.59-1.7,0-.8-.11-1.65-.59-1.65s-.64,.85-.64,1.65c0,.9,.16,1.7,.64,1.7h0Z"/><path class="e" d="M49.79,47.61c.27-.05,.53-.11,.85-.11,.48,0,.85,.05,1.12,.32,.27,.21,.32,.53,.32,.9,0,.53-.27,.9-.69,1.12h0c.32,.11,.48,.43,.59,.96,.11,.53,.21,1.01,.27,1.17h-.74c-.05-.11-.16-.59-.21-1.06-.11-.59-.27-.74-.59-.74h-.21v1.86h-.69v-4.41Zm.69,1.97h.21c.43,0,.69-.32,.69-.8,0-.43-.16-.74-.64-.74-.11,0-.16,0-.21,.05v1.49h-.05Z"/><path class="e" d="M53.78,52.08c-.9,0-1.33-.96-1.33-2.29s.48-2.29,1.38-2.29c.96,0,1.33,1.01,1.33,2.23,0,1.65-.59,2.34-1.38,2.34h0Zm.05-.64c.48,0,.59-.8,.59-1.7,0-.8-.11-1.65-.59-1.65s-.64,.85-.64,1.65c0,.9,.16,1.7,.64,1.7h0Z"/><path class="e" d="M57.45,52.03l-1.01-4.47h.8l.37,2.02c.11,.48,.21,1.06,.27,1.65h0c.05-.53,.16-1.12,.27-1.65l.37-1.97h.74l-1.01,4.47h-.8v-.05Z"/><path class="e" d="M59.9,50.86l-.21,1.17h-.69l1.01-4.47h.85l.9,4.47h-.69l-.21-1.17h-.96Zm.8-.59l-.16-1.01c-.05-.27-.11-.69-.16-1.01h0c-.05,.32-.11,.74-.16,1.01l-.21,1.01h.69Z"/><path class="e" d="M62.19,47.51h.69v3.88h1.17v.59h-1.86v-4.47Z"/><path class="e" d="M64.53,47.51h.69v3.88h1.17v.59h-1.91v-4.47h.05Z"/><path class="e" d="M68.62,49.95h-1.06v1.44h1.22v.64h-1.91v-4.47h1.86v.64h-1.12v1.22h1.06v.53h-.05Z"/><path class="e" d="M70,52.03v-1.81l-.96-2.66h.74l.32,1.06c.11,.32,.21,.64,.27,.96h0c.05-.32,.16-.69,.27-1.01l.32-1.06h.74l-1.01,2.66v1.81h-.69v.05Z"/><path class="i" d="M73.67,47.51h.27v4.47h-.27v-4.47Z"/><path class="e" d="M76.07,51.23c.16,.11,.48,.16,.69,.16,.43,0,.69-.27,.69-.64s-.21-.59-.59-.8c-.48-.32-.85-.74-.85-1.22,0-.69,.48-1.22,1.33-1.22,.27,0,.53,.11,.64,.16l-.11,.64c-.11-.11-.32-.16-.53-.16-.43,0-.59,.27-.59,.53,0,.32,.16,.48,.64,.8,.59,.37,.8,.8,.8,1.28,0,.8-.59,1.33-1.38,1.33-.32,0-.69-.11-.8-.21l.05-.64Z"/><path class="e" d="M79.26,50.86l-.27,1.17h-.69l1.01-4.47h.85l.9,4.47h-.69l-.27-1.17h-.85Zm.85-.59l-.21-1.01c-.05-.27-.11-.69-.16-1.01h0c-.05,.32-.11,.74-.16,1.01l-.21,1.01h.74Z"/><path class="e" d="M82.24,47.51v1.86h1.06v-1.86h.69v4.47h-.69v-1.97h-1.06v1.97h-.69v-4.47h.69Z"/><path class="e" d="M85.43,47.51v2.98c0,.74,.21,.96,.48,.96,.32,0,.53-.21,.53-.96v-2.93h.69v2.82c0,1.17-.48,1.7-1.22,1.7-.8,0-1.22-.53-1.22-1.65v-2.87h.74v-.05Z"/><path class="e" d="M88.41,50.86l-.27,1.17h-.69l1.01-4.47h.85l.9,4.47h-.69l-.27-1.17h-.85Zm.8-.59l-.21-1.01c-.05-.27-.11-.69-.16-1.01h0c-.05,.32-.11,.74-.16,1.01l-.21,1.01h.74Z"/><path class="e" d="M90.64,47.61c.27-.05,.53-.11,.85-.11,.48,0,.85,.05,1.12,.32,.27,.21,.32,.53,.32,.9,0,.53-.27,.9-.69,1.12h0c.32,.11,.48,.43,.59,.96,.11,.53,.21,1.01,.27,1.17h-.74c-.05-.11-.16-.59-.21-1.06-.11-.59-.27-.74-.59-.74h-.16v1.86h-.69v-4.41h-.05Zm.74,1.97h.21c.43,0,.69-.32,.69-.8,0-.43-.16-.74-.64-.74-.11,0-.16,0-.27,.05v1.49Z"/><path class="e" d="M94.26,47.51v4.47h-.69v-4.47h.69Z"/><path class="e" d="M95.48,48.2h-.8v-.64h2.34v.64h-.8v3.83h-.69v-3.83h-.05Z"/><path class="e" d="M97.82,50.86l-.27,1.17h-.69l1.01-4.47h.85l.9,4.47h-.69l-.21-1.17h-.9Zm.8-.59l-.21-1.01c-.05-.27-.11-.69-.16-1.01h0c-.05,.32-.11,.74-.16,1.01l-.21,1.01h.74Z"/><path class="i" d="M101.81,47.51h.27v4.47h-.27v-4.47Z"/><path class="e" d="M105,47.51v1.86h1.06v-1.86h.69v4.47h-.69v-1.97h-1.06v1.97h-.69v-4.47h.69Z"/><path class="e" d="M108.62,52.08c-.9,0-1.33-.96-1.33-2.29s.53-2.29,1.38-2.29c.96,0,1.33,1.01,1.33,2.23,0,1.65-.59,2.34-1.38,2.34h0Zm.05-.64c.48,0,.59-.8,.59-1.7,0-.8-.11-1.65-.64-1.65-.48,0-.64,.85-.64,1.65,.05,.9,.21,1.7,.69,1.7h0Z"/><path class="e" d="M111.28,47.51v2.98c0,.74,.21,.96,.48,.96,.32,0,.53-.21,.53-.96v-2.93h.69v2.82c0,1.17-.48,1.7-1.22,1.7-.8,0-1.22-.53-1.22-1.65v-2.87h.74v-.05Z"/><path class="e" d="M116.06,51.87c-.21,.05-.53,.16-.85,.16-.48,0-.85-.11-1.12-.43-.37-.37-.59-1.01-.53-1.81,0-1.7,.96-2.34,1.81-2.34,.32,0,.53,.05,.69,.11l-.16,.59c-.11-.05-.27-.11-.53-.11-.59,0-1.12,.43-1.12,1.7s.48,1.65,.96,1.65c.11,0,.21,0,.21-.05v-1.28h-.48v-.59h1.12v2.39h0Z"/><path class="e" d="M117.39,47.51v1.86h1.06v-1.86h.69v4.47h-.69v-1.97h-1.06v1.97h-.69v-4.47h.69Z"/><path class="e" d="M120.42,48.2h-.8v-.64h2.34v.64h-.8v3.83h-.69v-3.83h-.05Z"/><path class="e" d="M123.4,52.08c-.9,0-1.33-.96-1.33-2.29s.53-2.29,1.38-2.29c.96,0,1.33,1.01,1.33,2.23,0,1.65-.59,2.34-1.38,2.34h0Zm.05-.64c.48,0,.59-.8,.59-1.7,0-.8-.11-1.65-.64-1.65-.48,0-.64,.85-.64,1.65,.05,.9,.21,1.7,.69,1.7h0Z"/><path class="e" d="M125.37,52.03v-4.47h.64l.74,1.91c.16,.43,.37,.96,.53,1.44h0c-.05-.59-.05-1.28-.05-2.07v-1.28h.64v4.47h-.64l-.74-1.91c-.16-.43-.37-.96-.48-1.44h0c.05,.53,.05,1.17,.05,2.07v1.22h-.69v.05Z"/></g></g></svg>