<?xml version="1.0" encoding="UTF-8"?><svg id="a" xmlns="http://www.w3.org/2000/svg" viewBox="0 0 780 250"><defs><style>.b{fill:#fff;}.c{fill:#ffc629;}.d{fill:#2c2159;}</style></defs><rect class="d" width="780" height="250"/><g><g><rect class="c" x="423.83" y="62.09" width="2.37" height="125.82"/><path class="c" d="M425.74,62.55v124.9h-1.45V62.55h1.45m.92-.92h-3.3v126.75h3.3V61.63h0Z"/></g><g><g><path class="b" d="M538.05,99.6c-.6,1.26-1.43,2.31-2.49,3.16s-2.28,1.49-3.7,1.9c-1.4,.42-2.92,.64-4.53,.64h-4.79v8.61h-6.32v-28.7h11.73c1.72,0,3.26,.24,4.61,.72s2.5,1.15,3.45,2.03c.94,.88,1.66,1.92,2.17,3.14,.51,1.22,.76,2.56,.76,4.04v.08c0,1.66-.3,3.12-.9,4.38h0Zm-5.5-4.34c0-1.42-.46-2.5-1.38-3.24s-2.17-1.11-3.75-1.11h-4.88v8.78h5.01c1.59,0,2.82-.42,3.7-1.25s1.31-1.87,1.31-3.09v-.08h0Z"/><path class="b" d="M581.56,113.91l-6.15-9.18h-4.96v9.18h-6.32v-28.71h13.13c3.42,0,6.08,.83,7.98,2.5s2.85,3.99,2.85,6.97v.08c0,2.33-.56,4.22-1.7,5.68-1.14,1.46-2.61,2.54-4.45,3.21l7.01,10.25h-7.38Zm.12-18.91c0-1.37-.43-2.39-1.31-3.08s-2.09-1.03-3.65-1.03h-6.27v8.24h6.39c1.56,0,2.75-.37,3.58-1.11,.83-.74,1.25-1.72,1.25-2.96v-.07h0Z"/><path class="b" d="M614.57,113.91v-28.71h6.32v28.7h-6.32Z"/><path class="b" d="M668.7,113.91l-13.9-18.25v18.25h-6.24v-28.71h5.82l13.45,17.67v-17.67h6.24v28.7h-5.37Z"/><path class="b" d="M714.47,91.03v22.88h-6.32v-22.88h-8.74v-5.82h23.79v5.82h-8.73Z"/></g><g><path class="b" d="M504.56,150.34c-.6,1.26-1.43,2.31-2.49,3.16s-2.28,1.49-3.69,1.9c-1.4,.42-2.92,.64-4.54,.64h-4.79v8.61h-6.32v-28.7h11.73c1.72,0,3.26,.24,4.61,.72s2.5,1.15,3.45,2.03c.94,.88,1.67,1.92,2.17,3.14,.51,1.22,.76,2.57,.76,4.04v.08c0,1.66-.3,3.12-.9,4.38h0Zm-5.5-4.34c0-1.42-.46-2.5-1.38-3.24-.91-.74-2.17-1.11-3.75-1.11h-4.88v8.78h5.01c1.59,0,2.82-.42,3.7-1.25,.88-.83,1.31-1.87,1.31-3.09v-.08h0Z"/><path class="b" d="M558.73,156.07c-.77,1.79-1.82,3.36-3.18,4.72-1.36,1.35-2.97,2.42-4.84,3.2-1.88,.78-3.92,1.16-6.13,1.16s-4.25-.39-6.11-1.16c-1.86-.78-3.46-1.83-4.82-3.16-1.35-1.33-2.41-2.88-3.16-4.67-.75-1.79-1.13-3.71-1.13-5.76v-.08c0-2.05,.39-3.97,1.15-5.76,.77-1.79,1.82-3.36,3.18-4.71,1.35-1.35,2.97-2.42,4.84-3.2,1.88-.78,3.92-1.17,6.13-1.17s4.25,.39,6.11,1.17c1.86,.78,3.46,1.83,4.82,3.16s2.4,2.88,3.16,4.67c.75,1.79,1.13,3.71,1.13,5.76v.08c0,2.04-.38,3.96-1.15,5.76h0Zm-5.45-5.76c0-1.23-.21-2.39-.64-3.48-.42-1.09-1.03-2.05-1.8-2.87s-1.7-1.47-2.77-1.95c-1.06-.48-2.23-.72-3.48-.72s-2.46,.23-3.5,.69c-1.05,.46-1.96,1.11-2.71,1.93s-1.34,1.77-1.76,2.85-.64,2.24-.64,3.46v.08c0,1.23,.21,2.39,.64,3.48,.42,1.09,1.03,2.05,1.8,2.87s1.69,1.47,2.74,1.95,2.22,.72,3.51,.72,2.42-.23,3.48-.69,1.98-1.11,2.73-1.93,1.34-1.77,1.76-2.85,.64-2.24,.64-3.46v-.08h0Z"/><path class="b" d="M603.44,164.66l-6.15-9.18h-4.96v9.18h-6.32v-28.7h13.13c3.42,0,6.08,.83,7.97,2.5,1.9,1.67,2.85,3.99,2.85,6.97v.06c0,2.33-.56,4.22-1.7,5.68-1.14,1.46-2.61,2.54-4.45,3.21l7.01,10.25h-7.38Zm.13-18.85c0-1.37-.43-2.39-1.31-3.08s-2.09-1.03-3.65-1.03h-6.27v8.24h6.39c1.56,0,2.75-.37,3.59-1.11,.83-.74,1.25-1.72,1.25-2.96v-.07Z"/><path class="b" d="M649.17,141.77v22.88h-6.32v-22.88h-8.73v-5.82h23.79v5.82h-8.74Z"/><path class="b" d="M704.61,164.66l-2.62-6.44h-12.14l-2.62,6.44h-6.44l12.31-28.92h5.82l12.31,28.92h-6.61Zm-8.69-21.33l-3.82,9.31h7.63l-3.82-9.31Z"/><path class="b" d="M736.15,164.66v-28.7h6.32v23h14.31v5.7h-20.63Z"/></g></g><g><path class="b" d="M333.02,155.1v-1.39c.07-1.5,.15-2.31,.53-3.21,.99-2.33,3.39-3.79,5.92-3.79h3.28s.77-10.11,1.56-12.81c.77-2.73,8.54-2.33,8.54-2.33v-6.21c0-3.87,6.98-4.27,6.98-4.27h7v34.02h-33.82Zm26.07-12.26h3.87v-6.61h-3.87v6.61Zm0,7.38h3.87v-5.83h-3.87v5.83Zm-5.83-7.38h3.87v-6.61h-3.87v6.61Zm0,7.38h3.87v-5.83h-3.87v5.83Z"/><path class="b" d="M52.79,135.95c2.93,2.58,6.85,5.04,10.33,7.24l-.18,.88h-4.71c-4.32-1.98-6.34-3.19-12.92-7.82v3.54c0,1.3,.04,1.78,.88,3.57l.33,.7h-8.06l.29-.68c.7-1.72,.86-2.95,.86-4.34v-9.36c0-1.96-.51-2.84-.81-3.37l-.44-.75,7.24-.04h.31c5.7,0,10.15,1.3,11.93,3.48,.51,.64,.79,1.32,.79,2.03,0,2.05-1.96,3.7-5.81,4.91m-7.51-1.28c2.82-.42,7.49-1.21,7.49-3.39,0-1.06-1.59-2.91-7.49-3.28v6.67Zm49.45,6.8v-5.48c2.25,.09,3.52,.2,7.18,.75h.15l3.96-3.39h-11.29v-5.22c3.21-.04,5.17,.2,8.76,1.06l.18,.04,3.43-3.7h-19.77l.46,.75c1.08,1.76,1.17,3.65,1.17,4.18v8.61c0,2.16-.66,3.32-1.17,4.27l-.42,.73h18.36l3.39-4.07-1.17,.2c-6.85,1.23-9.25,1.25-13.28,1.25m71.07,1.7l1.21,.86-9.71,.07v-.46c0-.66-.15-1.43-1.25-2.75l-1.85-2.25h-11.4l-1.59,1.78c-1.14,1.3-1.67,2.36-1.56,3.15l.07,.55h-8.59l-.18-.88c1.01-.62,1.96-1.21,4.78-4.14l12.97-13.58h.55l11.43,12.99c2.4,2.73,3.92,3.83,5.13,4.71m-17.06-11.16l-3.24,3.61h6.19l-2.95-3.61Zm48.88,9.34l.18-10.99c.04-2.44,.55-3.13,1.19-4.01l.57-.79h-8.32l-.79,.04,.53,.77c.51,.73,1.03,1.5,1.03,3.81v7.77c0,3.7-.44,4.27-1.23,5.33l-.59,.79h17.33l3.74-4.49-1.21,.26c-3.37,.7-6.65,1.21-12.42,1.5m35.07-11.71l.92-.18c6.14-1.17,8.23-1.21,10.19-1.19v10.88c0,1.87-.35,3.06-.88,4.25l-.31,.7h8.15l-.37-.73c-.59-1.12-.88-2.42-.88-3.94v-11.14c3.61,0,4.78,.2,8.28,.92l.18,.04,3.15-3.68h-25.98l-2.44,4.07v-.02Zm79.44-4.07h-7.16l.07,.51c.07,.55-.15,.99-1.59,2.27l-4.32,4.03-4.45-4.14c-.88-.84-1.45-1.43-1.32-2.14l.09-.57-8.08,.04-.11,.92c1.45,.57,2.11,.97,3.68,2.49l7.33,6.87v4.76c0,1.63-.31,2.03-.79,2.69l-.59,.79h8.67l-.81-.84c-.68-.7-.75-1.45-.75-1.74v-5.88l7.84-7.27,.24-.22c.42-.37,1.23-1.06,2.22-1.74l-.18-.88v.04Z"/><path class="b" d="M23.26,153.49h240.91s.04-.02,.04-.04h10.33c0-2.05,0-.62,.07-3.7H23.26s-.04,.02-.04,.04v3.63s.02,.04,.04,.04"/><path class="b" d="M61.4,78.39c1.81,.09,3.08,.09,4.01,0,.66-.07,1.14-.22,1.5-.48,.4-.29,.81-.59,1.21-.97,.42-.37,.77-.77,1.03-1.14,.29-.35,.44-.68,.48-.99,.07-.4-.04-.79-.29-1.1-.2-.22-.55-.51-1.17-.51-.15,0-.31,0-.42,.04-.09,0-.22,.04-.44,.09-.15,.02-.51,.09-1.25,.18-.62,.07-1.5,.15-2.66,.26-.4,.04-.7,.07-1.01,.11-.57,.07-1.1,.13-2.2,.2-.29,0-.46,.02-.64,.04h-.02c-.2,0-.37,.02-.73,.04-.24,0-.42,0-.59,.02h-.04c-.26,0-.48,.02-.88,.04h-.62c-.29,.02-.51,.02-.95,.02h-10.04c-1.08,0-5.72-.04-6.8-.11-1.12-.07-2.51-.26-4.1-.53-.35-.07-.75-.13-1.12-.2-.4-.09-.77-.15-1.14-.24-.37-.09-.73-.15-1.03-.22-.29-.07-1.81-.26-2.71,0-.26,.11-.57,.24-.92,.4-.37,.18-.75,.37-1.14,.57s-.68,.53-1.06,1.03c-.42,.57-.73,.99-1.12,1.98-.4,.99-.53,2.62-.2,3.06,.29,.4,.75,.68,1.37,.68s1.85-1.37,2.42-1.72c1.89-1.14,3.17-.95,5.77-.86h.57c.35,0,.64,.02,.95,.02h1.63c.37,.02,.84,.04,1.39,.04h2.03c1.39,0,3.1,0,3.57,.02,.48,0,1.01,0,1.61,.02h.09l.04,.4c.11,.9,.18,2.82,.24,4.01,.04,.88,.09,1.37,.13,1.85,.04,.53,.09,1.01,.13,1.92,0,.33,.02,.57,.04,.77v.09c.02,.37,.04,.73,.07,1.54,.02,1.3,.04,2.69,.04,4.16v.92c0,.11,0,.26-.02,1.06-.02,1.54-.07,3.13-.13,4.67-.02,.7-.07,1.54-.13,2.58-.07,.99-.13,2.03-.2,3.06-.07,1.06-.15,2.09-.24,3.04-.09,.97-.2,1.81-.31,2.47-.11,.55-.09,.95,0,1.28,.2,.62,.75,1.01,1.39,1.01,.24,0,.48-.07,.7-.18,.48-.22,1.01-.46,1.61-.75,.57-.29,1.14-.53,1.74-.77,.62-.26,1.06-.66,1.28-1.17,.15-.37,.24-.81,.24-1.34v-.73h0c0-.44,0-.92-.02-1.52v-2.03c-.02-.75-.02-1.5-.02-2.27,0-1.78-.04-3.81-.07-6.03,0-1.1-.02-1.61-.04-2.07,0-.51-.02-.97-.04-2.16-.02-2.31-.02-3.52-.02-5.77v-2.22c0-1.06,0-3.19,.02-4.01v-1.76h7.16c.64,0,1.37,0,2.18,.04"/><path class="b" d="M75.49,89.49c-.11-.15-.29-.33-.64-.4h-.29c-.33,0-.7,.07-1.14,.24-.4,.15-.79,.35-1.21,.57-.4,.22-.79,.48-1.19,.75-.4,.29-.75,.55-.99,.81-.31,.29-.53,.51-.66,.7-.15,.22-.2,.46-.15,.7s.2,.46,.46,.62h.02v.04c.07,.15,.09,.31,.13,.48,.04,.2,.07,.4,.09,.59,0,.24,.04,.44,.07,.59,.07,.88,.13,1.78,.18,2.71,.04,.95,.09,1.96,.13,2.99,.07,2.22,.02,4.25-.13,5.99-.18,1.78-.33,3.3-.51,4.56-.04,.31-.07,.55-.02,.75,.02,.15,.15,.66,.81,.81,.26,.09,.62,.07,1.06-.07,.24-.07,.53-.2,.86-.42,.29-.18,.64-.44,1.03-.73,.4-.31,.86-.7,1.39-1.17,.29-.26,.48-.59,.51-.97,.02-.24,0-.51-.02-.77-.15-1.39-.26-2.8-.33-4.18-.07-1.43-.11-2.73-.13-3.83v-2.22c0-.81,0-1.67,.04-2.58,.04-.88,.11-1.78,.2-2.66,.09-.86,.24-1.67,.44-2.4v-.07c.04-.2,.09-.42,.13-.66,.09-.4-.04-.66-.13-.81"/><path class="b" d="M75.86,78.15c-.22-.15-.46-.24-.7-.24-.31,0-.75,.11-1.12,.57-.29,.31-.53,.59-.77,.86-.24,.26-.42,.46-.51,.57-.48,.55-.92,1.01-1.3,1.32-.42,.37-.79,.73-1.06,1.03-.26,.29-.44,.62-.51,.92-.07,.24-.09,.44-.11,.59-.07,.46,0,.81,.24,1.06,.2,.22,.46,.33,.77,.33s.66-.13,.99-.37c.35-.22,.79-.53,1.3-.92l2.03-1.56c.15-.13,.35-.31,.59-.48,.26-.2,.55-.42,.86-.66,.4-.29,.51-.66,.51-.9,0-.2,0-.44-.04-.66-.07-.37-.24-.7-.53-.97-.2-.2-.42-.35-.64-.48"/><path class="b" d="M99.75,111.51c.75-.29,1.41-.62,1.94-.97,.64-.42,1.21-.95,1.7-1.56s.86-1.41,1.12-2.31c.2-.68-.2-1.06-.4-1.19-.13-.09-.29-.15-.46-.2-.2-.07-.42-.11-.66-.11h-.09c-.33,0-.62,.11-.84,.33-.15,.13-.29,.31-.4,.48-.29,.48-.64,.95-1.06,1.34s-.88,.75-1.39,1.06c-.73,.44-1.56,.77-2.51,.99-1.83,.44-3.81,.44-5.57,.07-.81-.18-1.56-.46-2.2-.84-1.06-.62-1.96-1.37-2.66-2.27-.73-.9-1.3-1.83-1.72-2.77-.4-.92-.64-1.83-.73-2.69-.07-.62-.02-1.17,.11-1.61v-.07h.09c1.45-.29,3.02-.51,4.62-.66,3.15-.29,6.25-.33,9.22-.11,1.3,.09,2.58,.15,3.83,.2,.22,0,.42,.04,.57,.04h.42c.73,0,.97-.42,1.03-.59,.11-.26,.11-.59-.04-1.17-.18-.79-.55-1.65-1.08-2.55-.53-.88-1.21-1.7-2.03-2.44s-1.78-1.37-2.84-1.85c-1.1-.51-2.29-.75-3.57-.75-.75,0-1.5,.09-2.25,.26-1.21,.29-2.44,.73-3.7,1.32-1.25,.57-2.44,1.3-3.54,2.09-1.83,1.34-3.17,2.75-4.03,4.18-.86,1.45-1.37,2.88-1.5,4.27-.11,1.19-.04,2.38,.24,3.5,.29,1.14,.77,2.22,1.45,3.19s1.59,1.83,2.69,2.55c1.08,.73,2.4,1.25,3.87,1.59,.73,.18,1.5,.31,2.29,.37,1.65,.15,3.43,.15,5.15-.02,.9-.09,1.78-.24,2.6-.42,.84-.18,1.63-.42,2.36-.7m-12.53-16.78c.57-.37,1.17-.68,1.81-.95,.66-.26,1.34-.48,2-.64,.66-.15,1.28-.26,1.81-.33h.07s.13-.04,.22-.04h.2c.53,0,1.06,.11,1.63,.31,.53,.2,1.06,.53,1.52,.97,.24,.24,.46,.46,.64,.68l.15,.18-.7-.04c-1.5-.09-3.96-.09-6.78,0-.77,0-1.59,.04-2.42,.07h-.35l.29-.18-.07-.02Z"/><path class="b" d="M117.83,93.94c.37-.09,.75-.15,1.12-.22,.9-.13,1.83-.09,2.66,.13,.18,.07,.31,.13,.44,.22,.15,.11,.31,.22,.46,.35l.07,.04c.59,.42,1.19,.44,1.74,.02,.37-.31,.77-.62,1.17-.95s.77-.68,1.1-.99c.31-.29,.44-.68,.33-1.12-.09-.31-.24-.59-.46-.79h0c-.51-.51-1.14-.86-1.94-1.03-1.94-.4-3.74-.35-5.39,.13-.86,.24-1.65,.53-2.38,.84-1.03,.42-2.03,.9-2.97,1.43l-.15,.09v-.18c0-.31-.02-.62-.07-.9-.07-.35-.2-.66-.44-.95-.37-.46-.79-.55-1.08-.55-.09,0-.15,0-.22,.02h-.11l-.11,.04c-.31,.13-.62,.26-.95,.44s-.64,.35-.95,.53-.59,.37-.86,.55c-.29,.2-.51,.37-.66,.55-.18,.18-.7,.84,0,1.83,.04,.09,.11,.26,.18,.53,.07,.26,.11,.59,.13,.99,.07,1.23,.09,2.44,.13,3.61,.02,1.19,.04,2.31,.07,3.3v2.62c0,.88-.02,1.7-.07,2.44-.02,.77-.07,1.45-.13,2.09-.04,.59-.13,1.12-.2,1.54-.09,.35-.15,.66-.18,.95-.09,.62,.29,1.12,.95,1.28h.4c.26,0,.57-.02,.92-.11,.33-.09,.66-.2,1.01-.33s.68-.29,.99-.44c.33-.18,.59-.31,.84-.46,.4-.29,.55-.64,.62-.86,.04-.24,.07-.55,.04-.97-.07-1.37-.11-2.75-.18-4.14-.07-1.34-.11-2.55-.13-3.63,0-1.01-.02-1.89-.09-2.66-.07-.7-.09-1.34-.09-1.87,0-.48,.04-.88,.15-1.21,.09-.26,.24-.51,.51-.73,.31-.26,.77-.51,1.37-.73,.64-.24,1.48-.51,2.51-.77"/><path class="b" d="M139.16,93.94c.37-.09,.75-.15,1.12-.22,.9-.13,1.83-.09,2.66,.13,.18,.07,.31,.13,.44,.22,.15,.11,.31,.22,.46,.35l.07,.04c.59,.42,1.19,.44,1.74,.02,.37-.31,.77-.62,1.17-.95s.77-.68,1.1-1.01c.31-.29,.44-.68,.33-1.12-.09-.31-.24-.59-.46-.79-.51-.51-1.17-.86-1.94-1.03-1.94-.4-3.74-.35-5.39,.13-.86,.24-1.65,.53-2.38,.84-1.03,.42-2.03,.9-2.97,1.43l-.15,.09v-.18c0-.31-.02-.62-.07-.9-.07-.33-.2-.66-.44-.95-.37-.46-.79-.55-1.08-.55-.09,0-.15,0-.22,.02h-.11l-.11,.04c-.31,.13-.62,.26-.95,.44-.31,.18-.64,.35-.95,.53s-.59,.37-.86,.55c-.29,.2-.51,.37-.66,.55-.18,.18-.7,.84,0,1.83,.04,.09,.11,.24,.18,.53,.07,.26,.11,.59,.13,.99,.07,1.23,.09,2.44,.13,3.61,.02,1.19,.04,2.31,.07,3.3v2.62c0,.9-.02,1.7-.07,2.44-.02,.77-.07,1.45-.13,2.09-.04,.59-.13,1.14-.2,1.54-.09,.33-.13,.66-.18,.95-.09,.62,.29,1.12,.95,1.28h.4c.26,0,.57-.02,.92-.11,.33-.09,.66-.2,1.01-.33s.68-.29,.99-.44,.59-.31,.84-.48c.42-.29,.55-.62,.62-.86,.04-.24,.07-.55,.04-.97-.07-1.41-.11-2.8-.18-4.14-.07-1.34-.11-2.55-.13-3.63,0-1.01-.02-1.89-.09-2.66-.07-.7-.09-1.34-.09-1.87,0-.48,.04-.88,.15-1.21,.09-.26,.24-.51,.51-.73,.31-.26,.77-.51,1.37-.73,.64-.24,1.48-.51,2.51-.77"/><path class="b" d="M166.9,111.75c-.07,.2-.07,.44,0,.68,.04,.15,.26,.66,1.01,.66,.18,0,.33,0,.48-.07,.15-.04,.42-.13,.84-.29,.35-.13,.73-.26,1.12-.4l1.12-.42c.37-.13,.66-.26,.86-.35,.37-.18,.62-.46,.68-.84,.04-.24,.02-.53-.04-.88-.07-.24-.11-.53-.2-.88-.07-.31-.11-.73-.13-1.19-.07-1.61-.11-3.1-.15-4.51s-.11-2.73-.2-3.9c-.09-1.17-.2-2.22-.35-3.13-.15-.95-.4-1.74-.68-2.38-.42-.88-1.01-1.61-1.78-2.16-.75-.53-1.59-.95-2.49-1.23-.9-.29-1.83-.48-2.8-.57-.95-.09-1.85-.11-2.69-.07-1.17,.09-2.25,.22-3.19,.46-.95,.22-1.81,.48-2.6,.77-.79,.29-1.52,.59-2.2,.92-.66,.33-1.28,.59-1.85,.86-.51,.22-.84,.44-1.08,.68-.33,.33-.33,.66-.31,.84,.02,.15,.13,.46,.51,.64,.13,.07,.31,.15,.57,.24,.24,.09,.51,.18,.79,.26s.55,.18,.79,.24c.26,.09,.51,.15,.68,.18,.11,.02,.22,.04,.31,.04,.35,.04,.66,0,.95-.11,.2-.09,.42-.22,.66-.44,.95-.81,1.85-1.43,2.71-1.83,.79-.37,1.76-.55,2.88-.51,1.17,.04,2.14,.2,2.88,.46,.7,.26,1.3,.62,1.72,1.08,.44,.46,.75,1.06,.97,1.78,.18,.59,.29,1.25,.37,2v.09h-.09c-.66,.11-1.34,.2-2,.26-.92,.09-1.87,.22-2.82,.35-.97,.13-1.96,.31-2.97,.55-1.03,.24-2.11,.57-3.24,1.01-1.5,.59-2.91,1.32-4.14,2.16-1.28,.86-2.22,1.83-2.82,2.84-.35,.62-.55,1.23-.57,1.87,0,.62,.11,1.21,.33,1.76s.57,1.06,1.01,1.5c.42,.44,.9,.79,1.41,1.08,.88,.46,1.85,.79,2.88,.97,1.63,.26,3.39,.33,5.11,.15,.68-.07,1.3-.15,1.85-.24,1.21-.22,2.44-.48,3.65-.81,.73-.2,1.45-.42,2.16-.66l.18-.07-.04,.18c-.02,.13-.07,.24-.09,.35m-.73-3.52c-.53,.31-1.12,.59-1.74,.84s-1.25,.46-1.92,.62c-.64,.18-1.28,.31-1.89,.4-.35,.04-.75,.09-1.17,.09-.48,0-.99-.04-1.5-.11s-.97-.18-1.43-.31c-.44-.13-.86-.29-1.23-.46-.35-.15-.62-.33-.81-.53-.2-.18-.33-.4-.42-.68-.09-.35-.15-.75-.15-1.17,0-.35,.04-.7,.15-1.03,.09-.31,.24-.62,.46-.92s.53-.59,.95-.88c.42-.31,.95-.57,1.56-.84,.48-.2,.97-.37,1.43-.53,.46-.13,.95-.24,1.43-.33,.51-.09,1.06-.15,1.61-.2,.59-.04,1.23-.09,1.89-.09s1.34,0,2.07,.04c.55,.04,1.14,.09,1.76,.13h.09v5.11h-.02c-.33,.33-.73,.59-1.14,.84"/><path class="b" d="M215.54,101.29l.09-.07,.04,.11c.15,.35,.31,.7,.48,1.1,.31,.75,.66,1.56,1.03,2.47,.37,.92,.77,1.87,1.17,2.86l.88,2.27c.22,.59,.37,1.03,.48,1.32,.15,.46,.31,.79,.51,1.03,.37,.48,.97,.7,1.56,.55,.2-.04,.44-.11,.79-.24,.07,0,.11-.02,.18-.04,.24-.04,.48-.11,.73-.2l.88-.26,.2-.09c.26-.13,1.06-.53,1.23-1.34,.09-.42,.04-.88-.18-1.34l-.07-.11c-.35-.62-.7-1.23-1.03-1.87-.33-.64-.66-1.28-.99-1.94-.26-.51-.57-1.12-.92-1.83-.35-.7-.7-1.43-1.06-2.16-.35-.75-.7-1.45-1.03-2.14-.33-.66-.59-1.23-.81-1.7-.22-.42-.37-.77-.51-1.06-.13-.29-.24-.55-.35-.79-.11-.22-.22-.46-.31-.68-.11-.22-.22-.48-.37-.81-.18-.37-.4-.88-.7-1.54l-1.01-2.27c-.37-.84-.77-1.7-1.17-2.6s-.79-1.78-1.17-2.64c-.11-.24-.24-.55-.4-.9s-.33-.79-.55-1.32-.46-1.17-.73-1.87-.59-1.59-.99-2.71c-.22-.59-.4-1.19-.57-1.74-.15-.55-.31-1.14-.44-1.72-.04-.24-.09-.42-.11-.57-.04-.29-.09-.53-.18-.73-.15-.42-.46-.73-.86-.88-.33-.15-.73-.15-1.14-.04-.13,.02-.29,.07-.4,.11-.15,.07-.31,.15-.51,.29l-1.23,.86c-.26,.13-.51,.29-.75,.44-.22,.15-.46,.29-.7,.44-.35,.22-.62,.48-.79,.81-.18,.29-.26,.59-.29,.92-.75,3.7-13.52,25.43-13.52,25.43-.2,.31-.46,.75-.81,1.3-.33,.53-.68,1.08-1.08,1.7-.37,.57-.75,1.12-1.1,1.65-.31,.46-.59,.84-.81,1.08l-.29,.29-.46,.48c-.15,.18-.33,.33-.48,.48l-.31,.31-.15,.13-.11,.18c-.35,.64-.2,1.41,.37,1.83,.13,.09,.26,.18,.42,.26,.26,.15,.59,.29,.97,.4,.26,.07,.48,.15,.68,.22l.18,.07h.18c.42,.04,.79-.04,1.14-.2,.29-.13,.53-.33,.75-.55,.18-.18,.35-.4,.48-.62,.11-.2,.24-.37,.33-.55l3.68-6.41c.2-.35,.37-.68,.55-.99,.18-.31,.35-.64,.55-.97,.18-.31,.35-.66,.57-1.01l.4-.7h.07c.64-.04,1.34-.07,2.11-.11,1.06-.04,2.14-.09,3.26-.09s2.22-.02,3.35-.04h3.1c.79,0,1.5,.04,2.05,.07s1.03,.07,1.43,.11c.37,.04,.66,.07,.88,.11,.24,.04,.42,.09,.55,.13,.11,.02,.2,.07,.26,.09,.15,.09,.33,.15,.51,.22,.35,.15,.53,.24,.62,.29,.42,.22,.84,.29,1.21,.2,.15-.04,.31-.11,.46-.2m-2.75-4.71c-.57,0-1.25,.02-2.07,.02h-.31c-.79,0-1.72,0-2.75-.04-1.28-.04-2.53-.09-3.74-.18-1.23-.07-2.36-.15-3.37-.24-.77-.07-1.45-.13-2.07-.2h-.15l1.56-2.77c.44-.77,.86-1.52,1.23-2.22l1.01-1.87c.31-.57,.62-1.14,.95-1.7,.15-.31,.35-.62,.57-.99s.48-.81,.77-1.3,.64-1.03,1.01-1.67l1.03-1.67,.09,.15c.18,.33,.35,.66,.51,.95,.29,.55,.57,1.1,.81,1.61,.24,.48,.48,.99,.73,1.5s.48,1.03,.75,1.59c.46,1.01,.88,1.92,1.21,2.64l1.39,2.95c.15,.33,.31,.64,.46,.95s.31,.64,.46,.99,.37,.81,.62,1.34l.07,.13h-.75l-.02,.04Z"/><path class="b" d="M247.66,112.92c.2,0,.42-.07,.64-.18,.29-.15,.57-.31,.88-.46l1.85-.95c.31-.15,.57-.31,.81-.46,.44-.29,.66-.73,.59-1.19-.02-.2-.07-.44-.09-.77-.04-.29-.07-.62-.09-1.01l-.15-3.46c-.02-.66-.07-1.37-.11-2.16l-.11-2.31c-.04-.75-.07-1.43-.09-2.07s-.04-1.12-.07-1.43c0-.4-.04-.81-.07-1.25-.02-.46-.11-.92-.22-1.39-.11-.48-.31-.95-.57-1.37-.26-.46-.66-.86-1.14-1.23-.57-.44-1.43-.81-2.64-1.17-1.89-.55-4.1-.66-6.34-.33-.81,.11-1.63,.31-2.44,.57s-1.65,.62-2.49,1.06c-.37,.2-.75,.42-1.12,.66l-.15,.11v-.97c0-.48-.13-.84-.4-1.08-.24-.22-.57-.33-.97-.33h-.15c-.37,.02-.75,.13-1.12,.29-.31,.15-.64,.31-.92,.48-.31,.18-.57,.37-.81,.57-.2,.18-.37,.29-.48,.37l-.04,.04c-.31,.26-.55,.53-.68,.81-.22,.4-.24,.97,.33,1.45,.18,.15,.26,.33,.31,.53,.07,.33,.13,.7,.15,1.17,.07,1.08,.13,2.16,.18,3.24,.04,1.1,.07,2.18,.09,3.24,0,1.06,.02,2.09,0,3.06,0,.97-.02,1.87-.04,2.66,0,.48-.04,1.01-.09,1.59-.04,.55-.11,1.14-.24,1.76-.07,.29-.11,.55-.13,.75-.07,.4,.11,.95,.79,1.14,.33,.13,.7,.09,1.32-.11,.31-.11,.66-.22,1.06-.37,.35-.15,.7-.29,1.01-.44,.33-.15,.55-.26,.73-.33l.07-.04c.24-.15,.44-.35,.57-.57,.18-.31,.2-.66,.09-.97-.15-.46-.24-.86-.24-1.21l-.07-1.21c-.04-.81-.07-1.72-.11-2.73-.04-.95-.07-1.98-.11-3.13l-.09-3.21c-.02-.9-.04-1.78-.04-2.58v-.04h.04c.73-.53,1.52-.95,2.36-1.25,.99-.35,1.98-.62,2.95-.79,1.56-.26,2.93-.29,4.16-.04,.55,.11,1.03,.29,1.43,.53s.7,.55,.95,.92,.37,.84,.4,1.39c.07,.99,.09,1.94,.13,2.82,.02,.88,.04,1.72,.07,2.51,0,.77,.02,1.56,0,2.36,0,.77-.02,1.59-.04,2.42,0,.4-.04,.92-.11,1.61-.04,.7-.09,1.5-.13,2.36-.02,.44,0,.79,0,1.1,.09,.75,.57,1.01,.97,1.01"/><path class="b" d="M273.13,89.71c-.2,0-.4,.04-.64,.13-.13,.04-.26,.09-.4,.11-.73,.18-1.5,.33-2.22,.46-.73,.11-1.5,.2-2.2,.24h-1.1c-.22,0-.46,0-.73-.02-.26,0-.59,0-.97-.02h-.64v-.11c0-.51,.04-1.03,.07-1.56,.04-.84,.09-1.7,.13-2.58s.11-1.76,.15-2.64c.07-.86,.11-1.72,.2-2.53,.07-.46-.09-.88-.44-1.14-.26-.2-.57-.31-.95-.35h-.07c-.29,0-.62,.11-1.08,.35-.35,.2-.75,.42-1.14,.68-.42,.26-.81,.55-1.19,.84-.4,.31-.68,.55-.9,.77-.42,.42-.59,.86-.55,1.3,.04,.31,.13,.59,.29,.92,.29,.53,.4,.86,.42,1.03,.07,.29,.09,.59,.09,.9v4.01h-1.48c-.29,0-.55,0-.86-.02h-.15c-.24,0-.46,.04-.66,.11-.22,.09-.44,.24-.64,.48-.09,.09-.22,.22-.57,.66-.26,.35-.51,.75-.73,1.21-.22,.42-.2,.75-.13,.95,.2,.59,.66,.64,.79,.64h.31l.04-.07h.02c.37-.07,.73-.13,1.06-.18,.37-.07,.75-.11,1.12-.15,.37-.04,.77-.07,1.17-.09h.68v3.5c-.04,.59-.04,1.1-.07,1.54v.97c0,.62-.04,1.32-.07,2.11l-.09,2.4c-.02,.81-.04,1.61-.07,2.38v2.05c.04,1.19,.44,2.2,1.14,3.02,.73,.81,1.74,1.28,3.04,1.39h.2c.53,0,1.19-.13,2.03-.37,.79-.24,1.61-.53,2.44-.86,.81-.31,1.61-.64,2.33-.95,.7-.31,1.23-.55,1.59-.73,.22-.09,.4-.2,.55-.33,.22-.18,.37-.44,.44-.68,.09-.26,.15-.55,.22-.86s.13-.84,.18-1.56c.02-.42-.13-.7-.29-.84-.13-.15-.4-.33-.84-.33-.46,0-.9,.18-1.25,.55l-.04,.04c-.68,.79-1.37,1.45-2.07,1.98-.66,.51-1.19,.81-1.61,.92-.26,.09-.48,.13-.68,.15-.22,.02-.4,.04-.57,.04-.31,0-.53-.07-.66-.2-.13-.13-.33-.42-.53-.99-.07-.2-.18-.62-.26-1.43-.09-.68-.15-1.45-.2-2.29-.07-.84-.09-1.65-.11-2.47,0-.81-.02-1.5-.02-2.03v-1.28c0-.51,.02-1.03,.04-1.61l.09-3.04h.11c.15,.02,.29,.04,.42,.04,.35,.04,.66,.07,.97,.11,.31,.04,.57,.09,.86,.13,.31,.07,.64,.11,.99,.18,.62,.11,1.25,.15,1.89,.18h.22c.29,0,.55-.02,.79-.09,.29-.07,.57-.18,.79-.33,.33-.18,.66-.42,.99-.66,.33-.26,.64-.53,.92-.81,.29-.31,.55-.64,.73-.99,.2-.4,.31-.79,.31-1.21,0-.55-.4-.97-.97-.97"/><path class="b" d="M283.61,78.15c-.22-.15-.46-.24-.7-.24-.31,0-.75,.11-1.12,.57-.29,.31-.53,.59-.77,.86-.22,.24-.42,.46-.51,.57-.48,.55-.92,1.01-1.3,1.32-.42,.37-.79,.73-1.06,1.03-.26,.29-.44,.62-.51,.92-.04,.22-.09,.44-.11,.59-.07,.46,0,.81,.24,1.06,.2,.22,.46,.33,.77,.33s.66-.13,.99-.37c.37-.22,.79-.53,1.3-.92l2.03-1.56c.15-.13,.35-.31,.59-.48,.26-.2,.55-.42,.86-.66,.4-.29,.51-.66,.51-.9,0-.2,0-.44-.04-.66-.07-.37-.24-.7-.53-.97-.2-.2-.42-.35-.64-.48"/><path class="b" d="M283.24,89.49c-.11-.15-.29-.33-.64-.4h-.26c-.33,0-.7,.07-1.14,.24-.4,.15-.79,.35-1.21,.57-.4,.22-.79,.48-1.19,.75-.4,.29-.75,.55-.99,.81-.31,.29-.51,.51-.66,.7-.15,.22-.2,.46-.13,.7s.2,.44,.46,.62h.02v.07c.07,.13,.11,.29,.13,.48,.02,.2,.07,.4,.07,.59,0,.24,.04,.44,.07,.59,.07,.88,.13,1.78,.18,2.71,.04,.92,.09,1.94,.13,2.99,.07,2.22,.02,4.25-.13,5.99-.18,1.78-.33,3.3-.51,4.56-.04,.31-.07,.55-.02,.75,.02,.15,.15,.66,.81,.81,.26,.09,.62,.07,1.06-.07,.24-.07,.53-.22,.86-.42,.29-.18,.64-.44,1.03-.73,.4-.31,.86-.7,1.39-1.17,.29-.26,.48-.59,.51-.97,.02-.24,0-.51-.02-.77-.15-1.39-.26-2.8-.31-4.18-.07-1.43-.11-2.73-.13-3.83v-2.22c0-.81,0-1.7,.04-2.58s.11-1.78,.2-2.66c.09-.86,.24-1.67,.44-2.4v-.07c.04-.2,.09-.42,.13-.66,.09-.4-.04-.66-.13-.81"/><path class="b" d="M278.06,142.55c-.35-.44-.66-.81-.95-1.12-.09-.09-.2-.13-.31-.13-.07,0-.13,0-.2,.04-.13,.07-.26,.22-.24,.44,.07,.51,.29,2.22,.75,3.3,.59,1.45,1.54,2.77,2.84,3.96,1.67,1.54,3.26,2.88,5.59,3.81,2.31,.9,4.71,1.65,7.2,1.98,2.49,.31,5.04,.35,7.57,.13,2.53-.22,4.95-.79,7.16-1.41,2.27-.66,4.47-1.5,6.56-2.49,2.07-.99,3.99-2.2,5.75-3.61,1.74-1.41,3.35-3.04,4.76-4.87,1.41-1.81,2.62-3.87,3.61-6.14,.95-2.2,1.43-4.4,1.45-6.52,0-1.98,.04-3.68-.81-5.88-.46-1.19-1.25-2.64-2.11-3.87-.73-1.03-1.72-2-2.93-2.84s-2.69-1.54-4.36-2.11c-.2-.07-.37-.13-.57-.2-1.48-.51-2.86-.97-4.69-1.1-2.33-.22-3.99-.24-5.77-.11-1.74,.13-3.54,.33-5.17,.57-1.96,.29-3.24,.44-4.87,.59-2.27,.22-5.06,.35-6.83-.48-1.32-.64-1.74-.92-2.11-2.71-.15-.75,.2-1.65,1.03-2.73h.02s.2-.13,.29-.2c.37-.22,.7-.44,1.12-.62,.55-.24,1.14-.42,1.76-.57,.64-.15,1.25-.26,1.85-.33,.64-.07,1.17-.13,1.65-.18,.37-.07,.68-.31,.81-.7,.07-.18,.13-.68,.13-.73v-.07h.09c.46-.13,.92-.24,1.34-.35,.59-.18,1.19-.37,1.76-.59,.57-.22,1.12-.51,1.65-.81,.53-.31,1.1-.73,1.65-1.19,1.17-.92,2.11-1.85,2.82-2.73,.73-.92,1.19-1.83,1.39-2.69,.2-.92,.11-1.83-.31-2.69-.15-.33-.37-.68-.64-1.01l-.13-.15h.2c.33,0,.66-.04,1.03-.09,.44-.07,.9-.18,1.37-.37,.48-.22,.95-.48,1.39-.79,.44-.31,.84-.64,1.17-.97,.35-.35,.64-.7,.86-1.06,.22-.37,.37-.73,.44-1.03,.13-.59,.11-1.03-.09-1.37-.15-.26-.46-.55-1.14-.59-.24-.02-.51-.02-.77,0-.31,.02-.62,.11-.95,.24-.31,.13-.59,.29-.81,.46-.24,.2-.46,.48-.59,.84v.04h-.04s-.15,.07-.24,.09c-.35,.09-.79,.13-1.25,.18-.48,.02-.99,.02-1.48,0-.51-.02-.9-.07-1.23-.11-.81-.11-1.5,0-2.03,.4-.29,.22-.59,.48-.9,.81l-.04,.04h-.07c-1.52-.42-3.08-.55-4.65-.4-1.72,.18-3.39,.59-4.93,1.3-1.54,.75-2.84,1.61-3.83,2.58-1.01,.97-1.78,2.07-2.29,3.28-.46,1.01-.66,2.09-.64,3.21,.02,1.12,.31,2.18,.86,3.1,.55,.95,1.37,1.72,2.44,2.31,.29,.15,.59,.29,.95,.4l.22,.07-.2,.11c-.57,.31-1.1,.68-1.56,1.1-.48,.4-.9,.81-1.25,1.25l-.07,.07c-.26,.33-.53,.64-.68,.95l-.04,.04c-.26,.42-.44,.81-.55,1.17-.51,1.59-.35,3.17,.48,4.67,.84,1.52,2.25,2.8,4.21,3.74,1.25,.59,2.47,.97,3.63,1.12,1.19,.15,2.4,.2,3.61,.15s2.47-.15,3.72-.35c1.3-.18,2.69-.31,4.14-.37,1.5-.07,3.06-.04,4.67,.11,1.65,.15,3.46,.53,5.39,1.12,2.03,.62,3.61,1.59,4.73,2.88,1.03,1.21,2.16,2.69,2.51,4.65,.42,2.22,.46,5.77,.11,7.88-.33,1.94-1.34,3.57-2.25,5.02l-.11,.2c-.95,1.5-2.07,2.84-3.35,3.96s-2.77,2.09-4.45,2.86c-1.67,.77-3.61,1.39-5.75,1.83-2.05,.42-4.18,.7-6.41,.88-2.22,.18-4.43,.11-6.56-.22h-.11c-2.09-.33-4.47-.7-7.05-1.39-5.61-2.18-7.88-5.02-9.38-6.89m13.58-45.97c.18-.46,.42-.92,.75-1.41,.31-.44,.77-.84,1.34-1.14,.57-.33,1.19-.57,1.85-.73,.64-.15,1.32-.24,1.98-.24h.11c.7,0,1.43,.11,2.11,.31,.68,.2,1.32,.48,1.89,.84,.53,.35,.92,.77,1.23,1.32,.33,.55,.53,1.14,.62,1.74,.09,.62,.04,1.19-.13,1.74-.15,.53-.44,.99-.84,1.34-.66,.55-1.32,.95-1.98,1.19-.73,.26-1.52,.51-2.42,.73-.68,.18-1.32,.26-1.89,.26-.24,0-.46,0-.68-.04-.73-.11-1.37-.33-1.87-.66-.53-.33-.97-.77-1.34-1.3-.37-.55-.68-1.14-.9-1.78-.04-.15-.11-.42-.09-.9,0-.4,.09-.84,.26-1.28"/><path class="b" d="M336.78,112.17c.35-.15,.7-.31,1.06-.48,.37-.18,.73-.37,1.03-.57,.33-.22,.57-.44,.73-.64,.15-.18,.24-.37,.26-.59,.02-.35-.15-.79-.81-.92h-.07s-.07,0-.18-.18c-.07-.11-.22-.44-.31-1.25-.11-.99-.18-2.03-.2-3.06s-.02-2.09,0-3.13c0-1.03,.07-2.09,.11-3.1,.07-1.08,.11-2.07,.15-3.04,.04-1.08,.09-2,.13-2.73s.11-1.37,.18-1.92c.04-.46-.15-.84-.53-1.01-.2-.09-.4-.13-.64-.13h-.13c-.68,.02-1.37,.13-2.05,.33-.66,.2-1.14,.37-1.5,.53-.62,.24-.97,.77-.92,1.41v.07c.09,.55,.13,1.12,.18,1.65,.04,.57,.11,1.17,.15,1.81,.13,1.43,.24,2.77,.37,3.99,.11,1.12,.18,2.11,.2,2.95,0,.81-.02,1.54-.11,2.14-.09,.57-.26,1.08-.53,1.54-.26,.46-.66,.95-1.14,1.37-.51,.46-1.19,.95-2.03,1.45-.73,.46-1.54,.79-2.42,1.03-1.34,.35-2.8,.44-4.18,.24-.46-.07-.86-.18-1.19-.35-.31-.15-.57-.37-.77-.64-.18-.24-.29-.59-.33-1.03,0-.22-.02-.53-.04-.95v-6.56c.04-1.56,.11-3.08,.22-4.56,.11-1.5,.24-3.04,.4-4.62,.02-.26,0-.53-.09-.81-.13-.51-.51-.81-.99-.81h-.15c-.42,.07-.86,.18-1.32,.31-.44,.13-.86,.29-1.25,.44-.4,.15-.73,.31-.99,.44-.29,.13-.46,.22-.59,.29-.48,.24-.59,.62-.62,.81,0,.22,0,.42,.11,.66,.09,.2,.15,.46,.2,.73,.04,.33,.04,.66,.04,1.03,.04,.99,.07,2,.07,3.02s.02,2.03,.04,3.04v2.66c0,.77,.02,1.5,.07,2.18,.02,.66,.07,1.28,.11,1.83s.09,1.1,.18,1.61c.13,.9,.46,1.67,.99,2.27,.51,.57,1.12,1.06,1.87,1.41,.73,.35,1.52,.59,2.4,.75,2.09,.33,4.32,.26,6.47-.26,1.3-.31,2.42-.75,3.39-1.3,.09-.04,.18-.09,.24-.13,.04-.02,.15-.11,.35-.22,.18-.11,.46-.29,.88-.55,.15-.11,.35-.22,.57-.35l.15-.09v.18c0,.37,.07,.77,.2,1.14,.09,.24,.26,.48,.48,.68,.35,.33,.7,.4,.95,.4h.22c.26-.07,.59-.15,.99-.33"/><path class="b" d="M360.63,111.75c-.07,.2-.07,.44,0,.68,.04,.15,.26,.66,1.01,.66,.18,0,.33,0,.48-.07,.2-.07,.48-.15,.84-.29s.73-.26,1.12-.4l1.12-.42c.37-.13,.66-.26,.86-.35,.37-.18,.62-.46,.68-.84,.04-.24,.02-.53-.04-.88-.07-.24-.13-.53-.2-.9-.07-.33-.11-.73-.13-1.19-.07-1.61-.11-3.1-.15-4.51-.04-1.43-.11-2.73-.2-3.9s-.2-2.22-.35-3.13c-.15-.95-.4-1.74-.68-2.38-.42-.88-1.01-1.61-1.78-2.16-.75-.53-1.59-.95-2.49-1.23s-1.83-.48-2.82-.57c-.95-.09-1.87-.11-2.69-.07-1.17,.09-2.25,.22-3.19,.46-.95,.22-1.81,.48-2.6,.77-.79,.29-1.52,.59-2.2,.92-.66,.33-1.28,.59-1.85,.86-.51,.22-.84,.44-1.08,.68-.33,.33-.33,.66-.31,.84,.02,.15,.13,.46,.51,.64,.13,.07,.31,.15,.57,.24,.24,.09,.51,.18,.79,.26s.55,.18,.79,.24c.26,.09,.51,.15,.68,.18,.11,.02,.22,.04,.31,.04,.35,.04,.66,0,.95-.11,.2-.09,.42-.22,.66-.44,.95-.81,1.85-1.43,2.71-1.83,.79-.37,1.76-.55,2.88-.51,1.17,.04,2.14,.2,2.88,.46,.7,.26,1.3,.62,1.72,1.08,.44,.46,.75,1.06,.97,1.78,.18,.59,.29,1.25,.37,2v.09h-.09c-.66,.11-1.34,.2-2,.26-.92,.09-1.87,.22-2.82,.35-.97,.13-1.96,.31-2.97,.55-1.03,.24-2.11,.57-3.24,1.01-1.52,.59-2.91,1.32-4.14,2.16-1.28,.86-2.22,1.83-2.82,2.84-.35,.62-.55,1.23-.57,1.87,0,.62,.11,1.21,.33,1.76,.22,.55,.57,1.06,1.01,1.5,.42,.44,.9,.79,1.41,1.08,.88,.46,1.85,.79,2.88,.97,1.63,.26,3.39,.33,5.11,.15,.68-.07,1.3-.15,1.85-.24,1.21-.22,2.44-.48,3.65-.81,.73-.2,1.45-.42,2.16-.66l.18-.07-.04,.18c-.02,.13-.07,.24-.09,.35m-.73-3.52c-.53,.31-1.12,.59-1.72,.84-.62,.24-1.25,.46-1.92,.62-.64,.18-1.28,.31-1.89,.4-.35,.04-.75,.09-1.17,.09-.48,0-.99-.04-1.5-.11s-.97-.18-1.43-.31c-.44-.13-.86-.29-1.23-.46-.35-.15-.62-.33-.81-.53-.2-.18-.33-.4-.42-.68-.09-.35-.15-.75-.15-1.17,0-.35,.04-.7,.13-1.03,.09-.31,.24-.62,.46-.92s.53-.59,.95-.88c.42-.31,.95-.57,1.56-.84,.48-.2,.97-.37,1.43-.53,.46-.13,.95-.24,1.43-.33,.51-.09,1.06-.15,1.61-.2,.59-.04,1.23-.09,1.89-.09s1.34,0,2.07,.04c.55,.02,1.12,.09,1.76,.13h.09v5.11h-.02c-.33,.33-.73,.59-1.14,.84"/></g></g></svg>