<?xml version="1.0" encoding="utf-8"?>
<!-- Generator: Adobe Illustrator 26.2.1, SVG Export Plug-In . SVG Version: 6.00 Build 0)  -->
<svg version="1.1" id="a" xmlns="http://www.w3.org/2000/svg" xmlns:xlink="http://www.w3.org/1999/xlink" x="0px" y="0px"
	 viewBox="0 0 780 250" style="enable-background:new 0 0 780 250;" xml:space="preserve">
<style type="text/css">
	.st0{fill:#541F46;}
	.st1{fill:#FFFFFF;}
	.st2{fill:#B32025;}
	.st3{fill:none;}
</style>
<rect class="st0" width="780" height="250"/>
<g>
	<g>
		<path class="st1" d="M71.32,192.79l-5.88-18.13l-5.76,18.13h-1.99l-7.38-23.2c-0.69-2.03-0.93-2.31-2.43-2.43l-0.65-0.08v-1.66
			h11.19v1.66l-0.48,0.04c-1.38,0-1.87,0.32-1.87,1.22c0,0.44,0.08,0.93,0.44,2.03l4.14,13.91l3.73-12.65l-0.45-1.58
			c-0.81-2.27-1.42-2.76-3.85-2.96v-1.66h11.88v1.66l-0.53,0.08c-1.42,0.16-1.91,0.53-1.91,1.38c0,0.41,0.12,1.01,0.41,1.87
			l4.38,13.87l3.4-11.6c0.45-1.5,0.57-2.11,0.57-2.8c0-1.05-0.37-1.83-1.1-2.27c-0.53-0.37-0.65-0.37-2.11-0.48l-0.45-0.04v-1.66
			h9.49v1.66c-2.15,0.49-3,1.34-3.81,3.85l-7.06,21.86H71.32z"/>
		<path class="st1" d="M114.71,174.12l-1.42,0.12c-1.42-5.39-3.37-7.46-7.1-7.46h-3.37c-1.78,0-2.07,0.28-2.07,2.03v8.64h1.34
			c2.56,0,4.1-1.83,4.58-5.48h1.54v12.94h-1.54c-0.24-2.03-0.65-3.29-1.38-4.3c-0.89-1.17-1.62-1.5-3.41-1.5h-1.13v9.2
			c0,2.03,0.28,2.39,1.83,2.39h3.73c2.23,0,4.1-1.13,5.52-3.32c0.69-1.1,1.18-2.43,1.91-5.15l1.62,0.08l-0.48,10.02H90.74v-1.66
			h0.45l1.05-0.04c2.11-0.04,2.43-0.57,2.43-3.9v-15.86c0-2.63-0.12-3.16-0.89-3.57c-0.49-0.29-0.69-0.29-2.6-0.37h-0.45v-1.66
			h23.77L114.71,174.12z"/>
		<path class="st1" d="M143.68,174.73c-2.39-6.29-4.83-8.72-8.8-8.72c-3.16,0-5.52,1.78-5.52,4.22c0,1.01,0.61,2.07,1.62,2.8
			c0.65,0.45,1.87,0.89,3.69,1.34c3.81,0.89,6.89,1.99,8.31,2.88c2.03,1.3,3.08,3.45,3.08,6.37c0,5.27-3.85,8.96-9.29,8.96
			c-2.84,0-5.43-0.89-8.03-2.68l-2.35,2.31h-1.62v-10.63l1.62-0.12c1.09,3,1.82,4.42,2.96,5.76c1.95,2.23,4.67,3.57,7.38,3.57
			c3.08,0,5.43-1.87,5.43-4.3c0-1.38-0.81-2.72-2.11-3.41c-1.14-0.61-1.14-0.61-6.65-1.94c-5.23-1.26-8.07-4.26-8.07-8.4
			c0-2.11,0.89-4.22,2.39-5.72c1.7-1.78,4.06-2.67,6.89-2.67c2.88,0,5.15,0.69,7.42,2.27l1.83-1.9h1.5l-0.12,9.93L143.68,174.73z"/>
		<path class="st1" d="M177.16,175c-0.77-3.12-1.5-4.99-2.47-6.33c-1.14-1.5-2.64-2.31-4.34-2.31c-1.14,0-1.42,0.41-1.42,1.95v17.92
			c0,2.76,0.2,3.41,1.22,3.69c0.61,0.2,0.65,0.2,3.04,0.24v1.66h-14.6v-1.66c2.39-0.04,2.44-0.04,3.04-0.24
			c1.01-0.28,1.22-0.97,1.22-3.69v-17.92c0-1.54-0.29-1.95-1.42-1.95c-2.03,0-3.73,1.1-4.91,3.2c-0.73,1.26-1.3,2.92-1.9,5.43
			l-1.54-0.12l0.53-10.1h24.58l0.53,10.1L177.16,175z"/>
		<path class="st1" d="M206.12,178.58c2.35,0,3.65-0.28,4.75-1.05c1.46-1.02,2.35-3,2.35-5.23c0-3.49-2.19-5.72-5.6-5.72h-2.03
			c-1.62,0-1.94,0.41-1.94,2.31v9.7H206.12z M203.65,186.49c0,2.35,0.04,2.6,0.37,3.12c0.44,0.69,0.69,0.73,3.69,0.81v1.66h-14.07
			v-1.66h0.45l1.05-0.04c2.11-0.04,2.43-0.57,2.43-3.89v-15.86c0-2.64-0.12-3.17-0.89-3.57c-0.49-0.29-0.69-0.29-2.6-0.37h-0.45
			v-1.66h15.05c3.65,0,5.55,0.32,7.42,1.3c2.27,1.17,3.61,3.36,3.61,5.96c0,2.92-1.71,5.6-4.34,6.81c-1.91,0.93-3.97,1.3-7.06,1.3
			h-4.67V186.49z"/>
		<path class="st1" d="M238.26,176.62c4.63,0,6.57-1.62,6.57-5.52c0-3.16-1.5-4.7-4.71-4.7h-2.19c-1.58,0-1.83,0.28-1.83,2.15v8.07
			H238.26z M254.29,185.79c-0.08,2.07-0.4,3.24-1.17,4.34c-0.97,1.46-2.6,2.27-4.47,2.27c-2.11,0-3.97-1.18-4.74-2.96
			c-0.57-1.3-0.73-2.31-1.14-6.25c-0.32-3.73-1.38-4.7-4.91-4.7h-1.74v7.75c0,2.64,0.12,3.16,0.89,3.57
			c0.49,0.29,0.69,0.29,2.6,0.37h0.49v1.66H226.1v-1.66h0.45l1.05-0.04c2.11-0.04,2.44-0.57,2.44-3.89v-15.86
			c0-2.63-0.13-3.16-0.89-3.57c-0.49-0.28-0.69-0.28-2.6-0.37h-0.45v-1.66h14.93c3.2,0,5.43,0.41,7.18,1.3
			c1.91,1.02,3.12,3.04,3.12,5.19c0,2.35-1.34,4.38-3.61,5.56c-1.3,0.69-2.27,0.97-4.34,1.26c1.74,0.2,2.88,0.77,4.01,2.03
			c0.57,0.69,1.01,1.62,1.38,3.12l0.77,3.33c0.32,1.38,0.97,2.23,1.7,2.23c0.9,0,1.38-0.98,1.59-3H254.29z"/>
		<path class="st1" d="M285.49,173.33l-1.42,0.12c-1.42-5.4-3.36-7.46-7.1-7.46h-3.37c-1.78,0-2.07,0.28-2.07,2.03v8.64h1.34
			c2.56,0,4.1-1.83,4.58-5.48H279v12.94h-1.54c-0.24-2.03-0.65-3.29-1.38-4.3c-0.89-1.18-1.62-1.5-3.4-1.5h-1.14v9.2
			c0,2.03,0.28,2.39,1.83,2.39h3.73c2.23,0,4.1-1.13,5.52-3.33c0.69-1.09,1.18-2.43,1.91-5.15l1.62,0.08l-0.48,10.02h-24.13v-1.66
			h0.45l1.05-0.04c2.11-0.04,2.44-0.57,2.44-3.89v-15.86c0-2.64-0.12-3.16-0.89-3.57c-0.48-0.29-0.69-0.29-2.6-0.37h-0.45v-1.66
			h23.77L285.49,173.33z"/>
		<path class="st1" d="M314.85,173.92c-2.39-6.28-4.83-8.72-8.8-8.72c-3.16,0-5.52,1.78-5.52,4.22c0,1.02,0.61,2.07,1.62,2.8
			c0.65,0.45,1.87,0.89,3.69,1.34c3.81,0.89,6.89,1.99,8.31,2.88c2.03,1.3,3.08,3.45,3.08,6.37c0,5.27-3.85,8.97-9.29,8.97
			c-2.84,0-5.43-0.89-8.03-2.68l-2.35,2.31h-1.62v-10.63l1.62-0.12c1.1,3,1.82,4.42,2.96,5.76c1.95,2.23,4.67,3.57,7.38,3.57
			c3.08,0,5.43-1.87,5.43-4.3c0-1.38-0.81-2.72-2.11-3.4c-1.14-0.61-1.14-0.61-6.65-1.95c-5.23-1.26-8.07-4.26-8.07-8.4
			c0-2.11,0.89-4.22,2.39-5.72c1.7-1.78,4.06-2.67,6.89-2.67c2.88,0,5.15,0.69,7.42,2.27l1.83-1.91h1.5l-0.12,9.94L314.85,173.92z"
			/>
		<path class="st1" d="M345.25,174.08c-2.39-6.29-4.83-8.72-8.8-8.72c-3.16,0-5.52,1.78-5.52,4.22c0,1.02,0.61,2.07,1.62,2.8
			c0.65,0.45,1.87,0.89,3.69,1.34c3.81,0.89,6.89,1.99,8.31,2.88c2.03,1.3,3.08,3.45,3.08,6.37c0,5.27-3.85,8.97-9.29,8.97
			c-2.84,0-5.43-0.89-8.03-2.68l-2.35,2.31h-1.62v-10.63l1.62-0.12c1.1,3,1.83,4.42,2.96,5.76c1.95,2.23,4.67,3.57,7.38,3.57
			c3.08,0,5.43-1.87,5.43-4.3c0-1.38-0.81-2.72-2.11-3.4c-1.14-0.61-1.14-0.61-6.65-1.95c-5.23-1.26-8.07-4.26-8.07-8.4
			c0-2.11,0.89-4.22,2.39-5.72c1.7-1.78,4.06-2.67,6.89-2.67c2.88,0,5.15,0.69,7.42,2.27l1.83-1.91h1.5l-0.12,9.94L345.25,174.08z"
			/>
		<path class="st2" d="M186.28,183.44c2.05,0,3.7-1.71,3.7-3.82s-1.66-3.82-3.7-3.82c-2.05,0-3.7,1.71-3.7,3.82
			S184.23,183.44,186.28,183.44"/>
		<g>
			<g>
				<rect x="392.8" y="56.71" class="st2" width="2.57" height="136.2"/>
				<path class="st2" d="M394.87,57.21v135.2h-1.57V57.21H394.87 M395.87,56.21h-1h-1.57h-1v1v135.2v1h1h1.57h1v-1V57.21V56.21
					L395.87,56.21z"/>
			</g>
		</g>
		<g>
			<path class="st2" d="M172.08,129.59c0,0-7.86-20.7-24.67-33.29c-16.82-12.59-32.62-14.71-40.67-16.45c0,0,6.2-12.28,24.96-11.01
				c18.76,1.27,41.32,13.1,56.79,44.45L172.08,129.59z M317.44,67.65c-2.18-2.47-9.26-9.94-23.22-10.06
				c-16.04,0.63-26.48,12.52-26.48,12.52l-54.84,54.92l-7.1-16.14c0,0,39.15-39.81,42.59-43.31c3.45-3.51,7.3-4.25,7.3-4.25
				s0.92-0.12,1.43-0.17c0.52-0.06,0.81-0.35,0.75-1.32c-0.06-1.15-0.75-0.98-0.75-0.98l-27.67,0.02c0,0-0.43-0.13-0.61,0.5
				c-0.34,1.27,0.64,1.27,0.64,1.27l2.24,0.46c0,0,1.95,0.17,2.82,2.36c0.69,2.76-0.86,4.14-0.86,4.14l-33.03,32.85
				c-26.51-34.95-56.08-44.38-75.85-40.63c-19.77,3.75-25.38,20.43-25.38,20.43s-18.67,2.59-25.43,19.11
				c-9.76,26.78,11.74,32.6,11.74,32.6c-8.29-4.94-14.08-15.99-7.89-28.79c6.65-13.75,19.55-13.38,19.55-13.38
				c0.51,15.81,9.28,21,14.63,23.08c3.01,1.17,4.39,0.58,4.39,0.58c-19.11-8.51-13.52-24-13.52-24c46.16,5.11,58.3,63.12,58.3,63.12
				l31.05-30.15c5.29,9.31,8.67,27.02,8.67,27.02l76.13-76c0,0,5.92-6.3,14.72-6.21c12.33,0.5,17.65,9.79,19.43,13.17
				c2.7,5.15,1.61,16.78-4.54,22.47c-6.15,5.69-14.47,6.51-14.47,6.51c8.81,0.76,14.99-2.03,14.99-2.03
				c9.43-3.62,12.82-9.6,12.82-9.6C329.28,81.27,319.62,70.12,317.44,67.65"/>
			<rect x="47.22" y="57.21" class="st3" width="382.24" height="135.57"/>
		</g>
	</g>
	<g>
		<g>
			<path class="st1" d="M496.01,97.31c-0.65,1.36-1.55,2.5-2.69,3.42c-1.14,0.92-2.47,1.61-4,2.06c-1.52,0.46-3.16,0.69-4.9,0.69
				h-5.19v9.32h-6.84V81.73h12.7c1.86,0,3.53,0.26,4.99,0.78c1.46,0.52,2.71,1.25,3.73,2.2c1.02,0.95,1.8,2.08,2.35,3.4
				c0.55,1.32,0.82,2.77,0.82,4.37v0.09C496.98,94.37,496.66,95.95,496.01,97.31z M490.06,92.61c0-1.54-0.5-2.71-1.49-3.51
				c-0.99-0.8-2.35-1.2-4.06-1.2h-5.28v9.5h5.42c1.72,0,3.05-0.45,4-1.35c0.95-0.9,1.42-2.02,1.42-3.35V92.61z"/>
			<path class="st1" d="M543.11,112.81l-6.66-9.94h-5.37v9.94h-6.84V81.73h14.21c3.7,0,6.58,0.9,8.64,2.71
				c2.06,1.81,3.08,4.32,3.08,7.55v0.09c0,2.52-0.61,4.57-1.84,6.15c-1.23,1.58-2.83,2.75-4.82,3.48l7.59,11.1H543.11z
				 M543.24,92.34c0-1.48-0.47-2.59-1.42-3.33s-2.26-1.11-3.95-1.11h-6.79v8.92H538c1.69,0,2.98-0.4,3.88-1.2
				c0.9-0.8,1.35-1.86,1.35-3.2V92.34z"/>
			<path class="st1" d="M578.84,112.81V81.73h6.84v31.07H578.84z"/>
			<path class="st1" d="M637.44,112.81l-15.05-19.75v19.75h-6.75V81.73h6.3l14.56,19.13V81.73h6.75v31.07H637.44z"/>
			<path class="st1" d="M686.98,88.04v24.77h-6.84V88.04h-9.46v-6.3h25.75v6.3H686.98z"/>
		</g>
		<g>
			<path class="st1" d="M459.76,152.24c-0.65,1.36-1.55,2.5-2.69,3.42c-1.14,0.92-2.47,1.61-3.99,2.06
				c-1.52,0.46-3.16,0.69-4.91,0.69h-5.19v9.32h-6.84v-31.07h12.7c1.86,0,3.53,0.26,4.99,0.78c1.46,0.52,2.71,1.25,3.73,2.2
				c1.02,0.95,1.81,2.08,2.35,3.4c0.55,1.32,0.82,2.78,0.82,4.37v0.09C460.74,149.3,460.41,150.88,459.76,152.24z M453.81,147.54
				c0-1.54-0.5-2.71-1.49-3.51c-0.99-0.8-2.35-1.2-4.06-1.2h-5.28v9.5h5.42c1.72,0,3.05-0.45,4-1.35c0.95-0.9,1.42-2.02,1.42-3.35
				V147.54z"/>
			<path class="st1" d="M518.4,158.44c-0.83,1.94-1.97,3.64-3.44,5.11c-1.47,1.46-3.21,2.62-5.24,3.46
				c-2.03,0.84-4.24,1.26-6.64,1.26c-2.4,0-4.6-0.42-6.61-1.26c-2.01-0.84-3.75-1.98-5.22-3.42c-1.46-1.44-2.61-3.12-3.42-5.06
				c-0.81-1.94-1.22-4.02-1.22-6.24v-0.09c0-2.22,0.42-4.3,1.24-6.24c0.83-1.94,1.97-3.64,3.44-5.1c1.46-1.46,3.21-2.62,5.24-3.46
				c2.03-0.84,4.24-1.27,6.64-1.27c2.4,0,4.6,0.42,6.61,1.27c2.01,0.84,3.75,1.98,5.22,3.42c1.47,1.44,2.6,3.12,3.42,5.06
				c0.81,1.94,1.22,4.02,1.22,6.24v0.09C519.65,154.42,519.23,156.5,518.4,158.44z M512.5,152.2c0-1.33-0.23-2.59-0.69-3.77
				c-0.46-1.18-1.11-2.22-1.95-3.11c-0.84-0.89-1.84-1.59-3-2.11c-1.15-0.52-2.41-0.78-3.77-0.78c-1.39,0-2.66,0.25-3.79,0.75
				c-1.14,0.5-2.12,1.2-2.93,2.09c-0.81,0.89-1.45,1.92-1.91,3.09c-0.46,1.17-0.69,2.42-0.69,3.75v0.09c0,1.33,0.23,2.59,0.69,3.77
				c0.46,1.18,1.11,2.22,1.95,3.11s1.83,1.59,2.97,2.11c1.14,0.52,2.4,0.78,3.8,0.78c1.36,0,2.62-0.25,3.77-0.75
				c1.15-0.5,2.14-1.2,2.95-2.09c0.81-0.89,1.45-1.92,1.91-3.09c0.46-1.17,0.69-2.42,0.69-3.75V152.2z"/>
			<path class="st1" d="M566.79,167.74l-6.66-9.94h-5.37v9.94h-6.84v-31.07h14.21c3.7,0,6.58,0.9,8.63,2.71
				c2.06,1.81,3.09,4.32,3.09,7.55V147c0,2.52-0.61,4.57-1.84,6.15c-1.23,1.58-2.83,2.75-4.82,3.48l7.59,11.1H566.79z
				 M566.93,147.27c0-1.48-0.47-2.59-1.42-3.33c-0.95-0.74-2.26-1.11-3.95-1.11h-6.79v8.92h6.92c1.69,0,2.98-0.4,3.89-1.2
				c0.9-0.8,1.35-1.86,1.35-3.2V147.27z"/>
			<path class="st1" d="M616.29,142.96v24.77h-6.84v-24.77H600v-6.3h25.75v6.3H616.29z"/>
			<path class="st1" d="M676.31,167.74l-2.84-6.97h-13.14l-2.84,6.97h-6.97l13.32-31.3h6.3l13.32,31.3H676.31z M666.9,144.65
				l-4.13,10.08h8.26L666.9,144.65z"/>
			<path class="st1" d="M710.45,167.74v-31.07h6.84v24.9h15.49v6.17H710.45z"/>
		</g>
	</g>
</g>
</svg>
