<?xml version="1.0" encoding="UTF-8"?><svg id="a" xmlns="http://www.w3.org/2000/svg" xmlns:xlink="http://www.w3.org/1999/xlink" viewBox="0 0 868.12 70.88"><defs><style>.e{fill:#ffc629;}.f{fill:url(#d);}.g{fill:#2c2159;}</style><linearGradient id="d" x1="1509.92" y1="869.26" x2="1580.85" y2="869.26" gradientTransform="translate(-435.2 -1509.92) rotate(90) scale(1 -1)" gradientUnits="userSpaceOnUse"><stop offset="0" stop-color="#fff" stop-opacity="0"/><stop offset=".14" stop-color="#fff" stop-opacity="0"/><stop offset=".27" stop-color="#fff" stop-opacity=".06"/><stop offset=".39" stop-color="#fff" stop-opacity=".13"/><stop offset=".51" stop-color="#fff" stop-opacity=".23"/><stop offset=".63" stop-color="#fff" stop-opacity=".36"/><stop offset=".74" stop-color="#fff" stop-opacity=".52"/><stop offset=".86" stop-color="#fff" stop-opacity=".71"/><stop offset=".96" stop-color="#fff" stop-opacity=".92"/><stop offset="1" stop-color="#fff"/></linearGradient></defs><g id="b"><g id="c"><polygon class="f" points="0 70.93 0 0 868.12 0 868.12 70.93 0 70.93"/></g></g><g><path class="g" d="M192.74,35.4c-.12,.24-.27,.44-.47,.6s-.44,.28-.7,.36c-.27,.08-.55,.12-.86,.12h-.91v1.64h-1.2v-5.45h2.22c.33,0,.62,.04,.87,.13,.26,.09,.48,.22,.65,.39s.32,.36,.41,.6,.14,.49,.14,.76v.02c0,.33-.07,.6-.18,.84h.03Zm-1.04-.84c0-.27-.08-.48-.26-.61-.18-.14-.41-.21-.71-.21h-.92v1.66h.95c.3,0,.54-.08,.7-.24s.25-.35,.25-.59v-.02h0Z"/><path class="g" d="M204.42,38.12l-1.17-1.75h-.94v1.75h-1.2v-5.45h2.49c.65,0,1.15,.16,1.51,.48s.54,.76,.54,1.33v.02c0,.44-.11,.8-.32,1.07-.22,.28-.5,.48-.85,.61l1.33,1.95h-1.39Zm.02-3.61c0-.26-.08-.45-.25-.58s-.39-.19-.69-.19h-1.19v1.56h1.22c.29,0,.52-.07,.68-.21s.24-.33,.24-.56v-.02h0Z"/><path class="g" d="M214.1,38.12v-5.45h1.2v5.45h-1.2Z"/><path class="g" d="M227.79,38.12l-2.64-3.46v3.46h-1.18v-5.45h1.11l2.55,3.35v-3.35h1.18v5.45h-1.02Z"/><path class="g" d="M239.89,33.78v4.34h-1.2v-4.34h-1.65v-1.11h4.52v1.11h-1.67Z"/><path class="g" d="M263.56,35.4c-.12,.24-.27,.44-.47,.6s-.44,.28-.7,.36-.55,.12-.86,.12h-.91v1.64h-1.2v-5.45h2.22c.33,0,.62,.04,.87,.13,.26,.09,.48,.22,.65,.39,.18,.17,.32,.36,.41,.6s.14,.49,.14,.76v.02c0,.33-.06,.6-.18,.84h.03Zm-1.04-.84c0-.27-.08-.48-.26-.61-.18-.14-.41-.21-.71-.21h-.92v1.66h.95c.3,0,.54-.08,.7-.24,.17-.16,.25-.35,.25-.59v-.02h-.01Z"/><path class="g" d="M277.26,36.49c-.14,.34-.34,.64-.6,.9s-.56,.46-.92,.6c-.35,.15-.74,.22-1.16,.22s-.81-.08-1.16-.22c-.35-.15-.65-.34-.92-.6s-.45-.55-.6-.89-.21-.71-.21-1.09v-.02c0-.39,.08-.76,.22-1.09,.14-.34,.34-.64,.6-.9s.56-.46,.92-.6c.35-.15,.74-.22,1.17-.22s.81,.08,1.16,.22c.35,.15,.65,.34,.92,.6s.45,.55,.6,.89c.14,.34,.21,.71,.21,1.09v.02c0,.39-.08,.75-.23,1.09Zm-1.03-1.1c0-.24-.04-.45-.12-.66s-.19-.39-.34-.55-.32-.28-.53-.37-.42-.13-.66-.13-.46,.04-.66,.13-.37,.21-.51,.37-.25,.34-.34,.54-.12,.42-.12,.65v.02c0,.24,.04,.45,.12,.66s.19,.39,.34,.55c.15,.15,.32,.28,.52,.37,.2,.09,.42,.13,.66,.13s.46-.04,.66-.13c.2-.08,.38-.21,.52-.37s.25-.34,.34-.54,.12-.43,.12-.65v-.02h0Z"/><path class="g" d="M289.17,38.12l-1.17-1.75h-.94v1.75h-1.2v-5.45h2.49c.65,0,1.15,.16,1.51,.48,.36,.32,.54,.76,.54,1.33v.02c0,.44-.11,.8-.32,1.07-.22,.28-.5,.48-.84,.61l1.33,1.95h-1.4Zm.03-3.61c0-.26-.08-.45-.25-.58s-.39-.19-.7-.19h-1.19v1.56h1.22c.29,0,.52-.07,.68-.21s.24-.33,.24-.56v-.02h0Z"/><path class="g" d="M301.26,33.78v4.34h-1.2v-4.34h-1.65v-1.11h4.52v1.11h-1.67Z"/><path class="g" d="M315.21,38.12l-.5-1.23h-2.3l-.5,1.23h-1.23l2.33-5.48h1.11l2.33,5.48h-1.24Zm-1.65-4.05l-.72,1.76h1.44l-.72-1.76Z"/><path class="g" d="M324.61,38.12v-5.45h1.2v4.37h2.71v1.08h-3.91Z"/></g><g><path class="g" d="M150.63,54.14v-.63c.03-.68,.07-1.05,.24-1.46,.45-1.06,1.54-1.72,2.69-1.72h1.49s.35-4.59,.71-5.82c.35-1.24,3.88-1.06,3.88-1.06v-2.82c0-1.76,3.17-1.94,3.17-1.94h3.18v15.45h-15.37Zm11.84-5.57h1.76v-3h-1.76v3Zm0,3.35h1.76v-2.65h-1.76v2.65Zm-2.65-3.35h1.76v-3h-1.76v3Zm0,3.35h1.76v-2.65h-1.76v2.65Z"/><path class="g" d="M23.35,45.44c1.33,1.17,3.11,2.29,4.69,3.29l-.08,.4h-2.14c-1.96-.9-2.88-1.45-5.87-3.55v1.61c0,.59,.02,.81,.4,1.62l.15,.32h-3.66l.13-.31c.32-.78,.39-1.34,.39-1.97v-4.25c0-.89-.23-1.29-.37-1.53l-.2-.34,3.29-.02s.09,0,.14,0c2.59,0,4.61,.59,5.42,1.58,.23,.29,.36,.6,.36,.92,0,.93-.89,1.68-2.64,2.23m-3.41-.58c1.28-.19,3.4-.55,3.4-1.54,0-.48-.72-1.32-3.4-1.49v3.03Zm22.46,3.09v-2.49c1.02,.04,1.6,.09,3.26,.34h.07l1.8-1.54h-5.13v-2.37c1.46-.02,2.35,.09,3.98,.48l.08,.02,1.56-1.68h-8.98l.21,.34c.49,.8,.53,1.66,.53,1.9v3.91c0,.98-.3,1.51-.53,1.94l-.19,.33h8.34l1.54-1.85-.53,.09c-3.11,.56-4.2,.57-6.03,.57m32.28,.77l.55,.39-4.41,.03v-.21c0-.3-.07-.65-.57-1.25l-.84-1.02h-5.18l-.72,.81c-.52,.59-.76,1.07-.71,1.43l.03,.25h-3.9l-.08-.4c.46-.28,.89-.55,2.17-1.88l5.89-6.17h.25l5.19,5.9c1.09,1.24,1.78,1.74,2.33,2.14m-7.75-5.07l-1.47,1.64h2.81l-1.34-1.64Zm22.2,4.24l.08-4.99c.02-1.11,.25-1.42,.54-1.82l.26-.36h-3.78l-.36,.02,.24,.35c.23,.33,.47,.68,.47,1.73v3.53c0,1.68-.2,1.94-.56,2.42l-.27,.36h7.87l1.7-2.04-.55,.12c-1.53,.32-3.02,.55-5.64,.68m15.93-5.32l.42-.08c2.79-.53,3.74-.55,4.63-.54v4.94c0,.85-.16,1.39-.4,1.93l-.14,.32h3.7l-.17-.33c-.27-.51-.4-1.1-.4-1.79v-5.06c1.64,0,2.17,.09,3.76,.42l.08,.02,1.43-1.67h-11.8l-1.11,1.85Zm36.08-1.85h-3.25l.03,.23c.03,.25-.07,.45-.72,1.03l-1.96,1.83-2.02-1.88c-.4-.38-.66-.65-.6-.97l.04-.26-3.67,.02-.05,.42c.66,.26,.96,.44,1.67,1.13l3.33,3.12v2.16c0,.74-.14,.92-.36,1.22l-.27,.36h3.94l-.37-.38c-.31-.32-.34-.66-.34-.79v-2.67l3.56-3.3,.11-.1c.19-.17,.56-.48,1.01-.79l-.08-.4Z"/><path class="g" d="M9.94,53.41H119.36s.02-.01,.02-.02h4.69c0-.93,0-.28,.03-1.68H9.94s-.02,.01-.02,.02v1.65s.01,.02,.02,.02"/><path class="g" d="M27.26,19.3c.82,.04,1.4,.04,1.82,0,.3-.03,.52-.1,.68-.22,.18-.13,.37-.27,.55-.44,.19-.17,.35-.35,.47-.52,.13-.16,.2-.31,.22-.45,.03-.18-.02-.36-.13-.5-.09-.1-.25-.23-.53-.23-.07,0-.14,0-.19,.02-.04,0-.1,.02-.2,.04-.07,.01-.23,.04-.57,.08-.28,.03-.68,.07-1.21,.12-.18,.02-.32,.03-.46,.05-.26,.03-.5,.06-1,.09-.13,0-.21,.01-.29,.02h-.01c-.09,0-.17,.01-.33,.02-.11,0-.19,0-.27,.01h-.02c-.12,0-.22,.01-.4,.02h-.28c-.13,.01-.23,.01-.43,.01-.11,0-.16,0-.2,0h-.03s-.06,0-.21,0c-.42,0-.81,0-1.15,0-.37,0-2.11,0-2.31,0-.21,0-.43,0-.66,0-.49,0-2.6-.02-3.09-.05-.51-.03-1.14-.12-1.86-.24-.16-.03-.34-.06-.51-.09-.18-.04-.35-.07-.52-.11-.17-.04-.33-.07-.47-.1-.13-.03-.82-.12-1.23,0-.12,.05-.26,.11-.42,.18-.17,.08-.34,.17-.52,.26-.18,.09-.31,.24-.48,.47-.19,.26-.33,.45-.51,.9-.18,.45-.24,1.19-.09,1.39,.13,.18,.34,.31,.62,.31,.27,0,.84-.62,1.1-.78,.86-.52,1.44-.43,2.62-.39,.14,0,.22,0,.26,0,.16,0,.29,.01,.43,.01,.09,0,.18,0,.29,0h.45c.17,.01,.38,.02,.63,.02,.09,0,.42,0,.82,0h.1c.63,0,1.41,0,1.62,.01,.22,0,.46,0,.73,.01h.04l.02,.18c.05,.41,.08,1.28,.11,1.82,.02,.4,.04,.62,.06,.84,.02,.24,.04,.46,.06,.87,0,.15,.01,.26,.02,.35v.04c.01,.17,.02,.33,.03,.7,.01,.59,.02,1.22,.02,1.89,0,.34,0,.36,0,.42,0,.05,0,.12-.01,.48-.01,.7-.03,1.42-.06,2.12-.01,.32-.03,.7-.06,1.17-.03,.45-.06,.92-.09,1.39-.03,.48-.07,.95-.11,1.38-.04,.44-.09,.82-.14,1.12-.05,.25-.04,.43,0,.58,.09,.28,.34,.46,.63,.46,.11,0,.22-.03,.32-.08,.22-.1,.46-.21,.73-.34,.26-.13,.52-.24,.79-.35,.28-.12,.48-.3,.58-.53,.07-.17,.11-.37,.11-.61,0-.04,0-.15,0-.33h0c0-.2,0-.42-.01-.69v-.92c-.01-.34-.01-.68-.01-1.03,0-.81-.02-1.73-.03-2.74,0-.5-.01-.73-.02-.94,0-.23-.01-.44-.02-.98-.01-1.05-.01-1.6-.01-2.62,0-.46,0-.53,0-.7v-.31c0-.48,0-1.45,.01-1.82,0-.19,0-.23,0-.28,0-.05,0-.1,0-.23v-.29h3.25c.29,0,.62,0,.99,.02"/><path class="g" d="M33.66,24.34c-.05-.07-.13-.15-.29-.18h-.13c-.15,0-.32,.03-.52,.11-.18,.07-.36,.16-.55,.26-.18,.1-.36,.22-.54,.34-.18,.13-.34,.25-.45,.37-.14,.13-.24,.23-.3,.32-.07,.1-.09,.21-.07,.32s.09,.21,.21,.28h.01v.02c.03,.07,.04,.14,.06,.22,.02,.09,.03,.18,.04,.27,0,.11,.02,.2,.03,.27,.03,.4,.06,.81,.08,1.23,.02,.43,.04,.89,.06,1.36,.03,1.01,.01,1.93-.06,2.72-.08,.81-.15,1.5-.23,2.07-.02,.14-.03,.25-.01,.34,.01,.07,.07,.3,.37,.37,.12,.04,.28,.03,.48-.03,.11-.03,.24-.09,.39-.19,.13-.08,.29-.2,.47-.33,.18-.14,.39-.32,.63-.53,.13-.12,.22-.27,.23-.44,.01-.11,0-.23-.01-.35-.07-.63-.12-1.27-.15-1.9-.03-.65-.05-1.24-.06-1.74,0-.29,0-.63,0-1.01,0-.37,0-.76,.02-1.17,.02-.4,.05-.81,.09-1.21,.04-.39,.11-.76,.2-1.09v-.03c.02-.09,.04-.19,.06-.3,.04-.18-.02-.3-.06-.37"/><path class="g" d="M33.83,19.19c-.1-.07-.21-.11-.32-.11-.14,0-.34,.05-.51,.26-.13,.14-.24,.27-.35,.39-.11,.12-.19,.21-.23,.26-.22,.25-.42,.46-.59,.6-.19,.17-.36,.33-.48,.47-.12,.13-.2,.28-.23,.42-.03,.11-.04,.2-.05,.27-.03,.21,0,.37,.11,.48,.09,.1,.21,.15,.35,.15s.3-.06,.45-.17c.16-.1,.36-.24,.59-.42l.92-.71c.07-.06,.16-.14,.27-.22,.12-.09,.25-.19,.39-.3,.18-.13,.23-.3,.23-.41,0-.09,0-.2-.02-.3-.03-.17-.11-.32-.24-.44-.09-.09-.19-.16-.29-.22"/><path class="g" d="M44.68,34.34c.34-.13,.64-.28,.88-.44,.29-.19,.55-.43,.77-.71,.22-.28,.39-.64,.51-1.05,.09-.31-.09-.48-.18-.54-.06-.04-.13-.07-.21-.09-.09-.03-.19-.05-.3-.05h-.04c-.15,0-.28,.05-.38,.15-.07,.06-.13,.14-.18,.22-.13,.22-.29,.43-.48,.61-.19,.18-.4,.34-.63,.48-.33,.2-.71,.35-1.14,.45-.83,.2-1.73,.2-2.53,.03-.37-.08-.71-.21-1-.38-.48-.28-.89-.62-1.21-1.03-.33-.41-.59-.83-.78-1.26-.18-.42-.29-.83-.33-1.22-.03-.28-.01-.53,.05-.73v-.03h.04c.66-.13,1.37-.23,2.1-.3,1.43-.13,2.84-.15,4.19-.05,.59,.04,1.17,.07,1.74,.09,.1,0,.19,.02,.26,.02,.08,0,.14,0,.19,0,.33,0,.44-.19,.47-.27,.05-.12,.05-.27-.02-.53-.08-.36-.25-.75-.49-1.16-.24-.4-.55-.77-.92-1.11-.37-.34-.81-.62-1.29-.84-.5-.23-1.04-.34-1.62-.34-.34,0-.68,.04-1.02,.12-.55,.13-1.11,.33-1.68,.6-.57,.26-1.11,.59-1.61,.95-.83,.61-1.44,1.25-1.83,1.9-.39,.66-.62,1.31-.68,1.94-.05,.54-.02,1.08,.11,1.59,.13,.52,.35,1.01,.66,1.45,.31,.44,.72,.83,1.22,1.16,.49,.33,1.09,.57,1.76,.72,.33,.08,.68,.14,1.04,.17,.75,.07,1.56,.07,2.34-.01,.41-.04,.81-.11,1.18-.19,.38-.08,.74-.19,1.07-.32m-5.69-7.62c.26-.17,.53-.31,.82-.43,.3-.12,.61-.22,.91-.29,.3-.07,.58-.12,.82-.15h.03s.06-.02,.1-.02c.03,0,.06,0,.09,0,.24,0,.48,.05,.74,.14,.24,.09,.48,.24,.69,.44,.11,.11,.21,.21,.29,.31l.07,.08-.32-.02c-.68-.04-1.8-.04-3.08,0-.35,0-.72,.02-1.1,.03h-.16l.13-.08Z"/><path class="g" d="M52.89,26.36c.17-.04,.34-.07,.51-.1,.41-.06,.83-.04,1.21,.06,.08,.03,.14,.06,.2,.1,.07,.05,.14,.1,.21,.16l.03,.02c.27,.19,.54,.2,.79,.01,.17-.14,.35-.28,.53-.43,.18-.15,.35-.31,.5-.45,.14-.13,.2-.31,.15-.51-.04-.14-.11-.27-.21-.36h0c-.23-.23-.52-.39-.88-.47-.88-.18-1.7-.16-2.45,.06-.39,.11-.75,.24-1.08,.38-.47,.19-.92,.41-1.35,.65l-.07,.04v-.08c0-.14-.01-.28-.03-.41-.03-.16-.09-.3-.2-.43-.17-.21-.36-.25-.49-.25-.04,0-.07,0-.1,.01h-.05l-.05,.02c-.14,.06-.28,.12-.43,.2-.15,.08-.29,.16-.43,.24-.14,.08-.27,.17-.39,.25-.13,.09-.23,.17-.3,.25-.08,.08-.32,.38,0,.83,.02,.04,.05,.12,.08,.24,.03,.12,.05,.27,.06,.45,.03,.56,.04,1.11,.06,1.64,.01,.54,.02,1.05,.03,1.5,0,.4,0,.8,0,1.19,0,.4-.01,.77-.03,1.11-.01,.35-.03,.66-.06,.95-.02,.27-.06,.51-.09,.7-.04,.16-.07,.3-.08,.43-.04,.28,.13,.51,.43,.58h.18c.12,0,.26-.01,.42-.05,.15-.04,.3-.09,.46-.15,.16-.06,.31-.13,.45-.2,.15-.08,.27-.14,.38-.21,.18-.13,.25-.29,.28-.39,.02-.11,.03-.25,.02-.44-.03-.62-.05-1.25-.08-1.88-.03-.61-.05-1.16-.06-1.65,0-.46-.01-.86-.04-1.21-.03-.32-.04-.61-.04-.85,0-.22,.02-.4,.07-.55,.04-.12,.11-.23,.23-.33,.14-.12,.35-.23,.62-.33,.29-.11,.67-.23,1.14-.35"/><path class="g" d="M62.58,26.36c.17-.04,.34-.07,.51-.1,.41-.06,.83-.04,1.21,.06,.08,.03,.14,.06,.2,.1,.07,.05,.14,.1,.21,.16l.03,.02c.27,.19,.54,.2,.79,.01,.17-.14,.35-.28,.53-.43,.18-.15,.35-.31,.5-.46,.14-.13,.2-.31,.15-.51-.04-.14-.11-.27-.21-.36-.23-.23-.53-.39-.88-.47-.88-.18-1.7-.16-2.45,.06-.39,.11-.75,.24-1.08,.38-.47,.19-.92,.41-1.35,.65l-.07,.04v-.08c0-.14-.01-.28-.03-.41-.03-.15-.09-.3-.2-.43-.17-.21-.36-.25-.49-.25-.04,0-.07,0-.1,.01h-.05l-.05,.02c-.14,.06-.28,.12-.43,.2-.14,.08-.29,.16-.43,.24-.14,.08-.27,.17-.39,.25-.13,.09-.23,.17-.3,.25-.08,.08-.32,.38,0,.83,.02,.04,.05,.11,.08,.24,.03,.12,.05,.27,.06,.45,.03,.56,.04,1.11,.06,1.64,.01,.54,.02,1.05,.03,1.5,0,.4,0,.8,0,1.19,0,.41-.01,.77-.03,1.11-.01,.35-.03,.66-.06,.95-.02,.27-.06,.52-.09,.7-.04,.15-.06,.3-.08,.43-.04,.28,.13,.51,.43,.58h.18c.12,0,.26-.01,.42-.05,.15-.04,.3-.09,.46-.15,.16-.06,.31-.13,.45-.2,.14-.07,.27-.14,.38-.22,.19-.13,.25-.28,.28-.39,.02-.11,.03-.25,.02-.44-.03-.64-.05-1.27-.08-1.88-.03-.61-.05-1.16-.06-1.65,0-.46-.01-.86-.04-1.21-.03-.32-.04-.61-.04-.85,0-.22,.02-.4,.07-.55,.04-.12,.11-.23,.23-.33,.14-.12,.35-.23,.62-.33,.29-.11,.67-.23,1.14-.35"/><path class="g" d="M75.18,34.45c-.03,.09-.03,.2,0,.31,.02,.07,.12,.3,.46,.3,.08,0,.15,0,.22-.03,.07-.02,.19-.06,.38-.13,.16-.06,.33-.12,.51-.18l.51-.19c.17-.06,.3-.12,.39-.16,.17-.08,.28-.21,.31-.38,.02-.11,.01-.24-.02-.4-.03-.11-.05-.24-.09-.4-.03-.14-.05-.33-.06-.54-.03-.73-.05-1.41-.07-2.05s-.05-1.24-.09-1.77c-.04-.53-.09-1.01-.16-1.42-.07-.43-.18-.79-.31-1.08-.19-.4-.46-.73-.81-.98-.34-.24-.72-.43-1.13-.56-.41-.13-.83-.22-1.27-.26-.43-.04-.84-.05-1.22-.03-.53,.04-1.02,.1-1.45,.21-.43,.1-.82,.22-1.18,.35-.36,.13-.69,.27-1,.42-.3,.15-.58,.27-.84,.39-.23,.1-.38,.2-.49,.31-.15,.15-.15,.3-.14,.38,.01,.07,.06,.21,.23,.29,.06,.03,.14,.07,.26,.11,.11,.04,.23,.08,.36,.12,.13,.04,.25,.08,.36,.11,.12,.04,.23,.07,.31,.08,.05,.01,.1,.02,.14,.02,.16,.02,.3,0,.43-.05,.09-.04,.19-.1,.3-.2,.43-.37,.84-.65,1.23-.83,.36-.17,.8-.25,1.31-.23,.53,.02,.97,.09,1.31,.21,.32,.12,.59,.28,.78,.49,.2,.21,.34,.48,.44,.81,.08,.27,.13,.57,.17,.91v.04h-.04c-.3,.05-.61,.09-.91,.12-.42,.04-.85,.1-1.28,.16-.44,.06-.89,.14-1.35,.25-.47,.11-.96,.26-1.47,.46-.68,.27-1.32,.6-1.88,.98-.58,.39-1.01,.83-1.28,1.29-.16,.28-.25,.56-.26,.85,0,.28,.05,.55,.15,.8,.1,.25,.26,.48,.46,.68,.19,.2,.41,.36,.64,.49,.4,.21,.84,.36,1.31,.44,.74,.12,1.54,.15,2.32,.07,.31-.03,.59-.07,.84-.11,.55-.1,1.11-.22,1.66-.37,.33-.09,.66-.19,.98-.3l.08-.03-.02,.08c-.01,.06-.03,.11-.04,.16m-.33-1.6c-.24,.14-.51,.27-.79,.38s-.57,.21-.87,.28c-.29,.08-.58,.14-.86,.18-.16,.02-.34,.04-.53,.04-.22,0-.45-.02-.68-.05-.23-.03-.44-.08-.65-.14-.2-.06-.39-.13-.56-.21-.16-.07-.28-.15-.37-.24-.09-.08-.15-.18-.19-.31-.04-.16-.07-.34-.07-.53,0-.16,.02-.32,.07-.47,.04-.14,.11-.28,.21-.42,.1-.14,.24-.27,.43-.4,.19-.14,.43-.26,.71-.38,.22-.09,.44-.17,.65-.24,.21-.06,.43-.11,.65-.15,.23-.04,.48-.07,.73-.09,.27-.02,.56-.04,.86-.04,.29,0,.61,0,.94,.02,.25,.02,.52,.04,.8,.06h.04v.04c0,.11,0,.22,0,.32,0,.2,0,.4,0,.62v.68c0,.19,0,.4,0,.64v.02h-.01c-.15,.15-.33,.27-.52,.38"/><path class="g" d="M97.27,29.7l.04-.03,.02,.05c.07,.16,.14,.32,.22,.5,.14,.34,.3,.71,.47,1.12,.17,.42,.35,.85,.53,1.3l.4,1.03c.1,.27,.17,.47,.22,.6,.07,.21,.14,.36,.23,.47,.17,.22,.44,.32,.71,.25,.09-.02,.2-.05,.36-.11,.03,0,.05-.01,.08-.02,.11-.02,.22-.05,.33-.09l.4-.12,.09-.04c.12-.06,.48-.24,.56-.61,.04-.19,.02-.4-.08-.61l-.03-.05c-.16-.28-.32-.56-.47-.85-.15-.29-.3-.58-.45-.88-.12-.23-.26-.51-.42-.83-.16-.32-.32-.65-.48-.98-.16-.34-.32-.66-.47-.97-.15-.3-.27-.56-.37-.77-.1-.19-.17-.35-.23-.48-.06-.13-.11-.25-.16-.36-.05-.1-.1-.21-.14-.31-.05-.1-.1-.22-.17-.37-.08-.17-.18-.4-.32-.7l-.46-1.03c-.17-.38-.35-.77-.53-1.18-.18-.41-.36-.81-.53-1.2-.05-.11-.11-.25-.18-.41-.07-.16-.15-.36-.25-.6-.1-.24-.21-.53-.33-.85-.12-.32-.27-.72-.45-1.23-.1-.27-.18-.54-.26-.79-.07-.25-.14-.52-.2-.78-.02-.11-.04-.19-.05-.26-.02-.13-.04-.24-.08-.33-.07-.19-.21-.33-.39-.4-.15-.07-.33-.07-.52-.02-.06,.01-.13,.03-.18,.05-.07,.03-.14,.07-.23,.13l-.56,.39c-.12,.06-.23,.13-.34,.2-.1,.07-.21,.13-.32,.2-.16,.1-.28,.22-.36,.37-.08,.13-.12,.27-.13,.42-.34,1.68-6.14,11.55-6.14,11.55-.09,.14-.21,.34-.37,.59-.15,.24-.31,.49-.49,.77-.17,.26-.34,.51-.5,.75-.14,.21-.27,.38-.37,.49-.03,.03-.07,.07-.13,.13l-.21,.22c-.07,.08-.15,.15-.22,.22-.06,.06-.11,.11-.14,.14l-.07,.06-.05,.08c-.16,.29-.09,.64,.17,.83,.06,.04,.12,.08,.19,.12,.12,.07,.27,.13,.44,.18,.12,.03,.22,.07,.31,.1l.08,.03h.08c.19,.02,.36-.02,.52-.09,.13-.06,.24-.15,.34-.25,.08-.08,.16-.18,.22-.28,.05-.09,.11-.17,.15-.25l1.67-2.91c.09-.16,.17-.31,.25-.45,.08-.14,.16-.29,.25-.44,.08-.14,.16-.3,.26-.46l.18-.32h.03c.29-.02,.61-.03,.96-.05,.48-.02,.97-.04,1.48-.04,.5,0,1.01-.01,1.52-.02,.52,0,.98,0,1.41,0,.36,0,.68,.02,.93,.03,.25,.01,.47,.03,.65,.05,.17,.02,.3,.03,.4,.05,.11,.02,.19,.04,.25,.06,.05,.01,.09,.03,.12,.04,.07,.04,.15,.07,.23,.1,.16,.07,.24,.11,.28,.13,.19,.1,.38,.13,.55,.09,.07-.02,.14-.05,.21-.09m-1.25-2.14c-.26,0-.57,.01-.94,.01h-.14c-.36,0-.78,0-1.25-.02-.58-.02-1.15-.04-1.7-.08-.56-.03-1.07-.07-1.53-.11-.35-.03-.66-.06-.94-.09h-.07l.71-1.26c.2-.35,.39-.69,.56-1.01l.46-.85c.14-.26,.28-.52,.43-.77,.07-.14,.16-.28,.26-.45,.1-.17,.22-.37,.35-.59,.13-.22,.29-.47,.46-.76l.47-.76,.04,.07c.08,.15,.16,.3,.23,.43,.13,.25,.26,.5,.37,.73,.11,.22,.22,.45,.33,.68,.11,.23,.22,.47,.34,.72,.21,.46,.4,.87,.55,1.2l.63,1.34c.07,.15,.14,.29,.21,.43,.07,.14,.14,.29,.21,.45,.07,.16,.17,.37,.28,.61l.03,.06h-.34Z"/><path class="g" d="M111.86,34.98c.09,0,.19-.03,.29-.08,.13-.07,.26-.14,.4-.21l.84-.43c.14-.07,.26-.14,.37-.21,.2-.13,.3-.33,.27-.54-.01-.09-.03-.2-.04-.35-.02-.13-.03-.28-.04-.46l-.07-1.57c-.01-.3-.03-.62-.05-.98l-.05-1.05c-.02-.34-.03-.65-.04-.94-.01-.29-.02-.51-.03-.65,0-.18-.02-.37-.03-.57-.01-.21-.05-.42-.1-.63-.05-.22-.14-.43-.26-.62-.12-.21-.3-.39-.52-.56-.26-.2-.65-.37-1.2-.53-.86-.25-1.86-.3-2.88-.15-.37,.05-.74,.14-1.11,.26-.37,.12-.75,.28-1.13,.48-.17,.09-.34,.19-.51,.3l-.07,.05v-.09c0-.11,0-.23,0-.35,0-.22-.06-.38-.18-.49-.11-.1-.26-.15-.44-.15h-.07c-.17,.01-.34,.06-.51,.13-.14,.07-.29,.14-.42,.22-.14,.08-.26,.17-.37,.26-.09,.08-.17,.13-.22,.17l-.02,.02c-.14,.12-.25,.24-.31,.37-.1,.18-.11,.44,.15,.66,.08,.07,.12,.15,.14,.24,.03,.15,.06,.32,.07,.53,.03,.49,.06,.98,.08,1.47,.02,.5,.03,.99,.04,1.47,0,.48,.01,.95,0,1.39,0,.44-.01,.85-.02,1.21,0,.22-.02,.46-.04,.72-.02,.25-.05,.52-.11,.8-.03,.13-.05,.25-.06,.34-.03,.18,.05,.43,.36,.52,.15,.06,.32,.04,.6-.05,.14-.05,.3-.1,.48-.17,.16-.07,.32-.13,.46-.2,.15-.07,.25-.12,.33-.15l.03-.02c.11-.07,.2-.16,.26-.26,.08-.14,.09-.3,.04-.44-.07-.21-.11-.39-.11-.55l-.03-.55c-.02-.37-.03-.78-.05-1.24-.02-.43-.03-.9-.05-1.42l-.04-1.46c-.01-.41-.02-.81-.02-1.17v-.02h.02c.33-.24,.69-.43,1.07-.57,.45-.16,.9-.28,1.34-.36,.71-.12,1.33-.13,1.89-.02,.25,.05,.47,.13,.65,.24,.18,.11,.32,.25,.43,.42,.11,.17,.17,.38,.18,.63,.03,.45,.04,.88,.06,1.28,.01,.4,.02,.78,.03,1.14,0,.35,.01,.71,0,1.07,0,.35-.01,.72-.02,1.1,0,.18-.02,.42-.05,.73-.02,.32-.04,.68-.06,1.07-.01,.2,0,.36,0,.5,.04,.34,.26,.46,.44,.46"/><path class="g" d="M123.43,24.44c-.09,0-.18,.02-.29,.06-.06,.02-.12,.04-.18,.05-.33,.08-.68,.15-1.01,.21-.33,.05-.68,.09-1,.11h-.25c-.08,0-.17,0-.25,0-.1,0-.21,0-.33-.01-.12,0-.27,0-.44-.01h-.29v-.05c0-.23,.02-.47,.03-.71,.02-.38,.04-.77,.06-1.17,.02-.4,.05-.8,.07-1.2,.03-.39,.05-.78,.09-1.15,.03-.21-.04-.4-.2-.52-.12-.09-.26-.14-.43-.16h-.03c-.13,0-.28,.05-.49,.16-.16,.09-.34,.19-.52,.31-.19,.12-.37,.25-.54,.38-.18,.14-.31,.25-.41,.35-.19,.19-.27,.39-.25,.59,.02,.14,.06,.27,.13,.42,.13,.24,.18,.39,.19,.47,.03,.13,.04,.27,.04,.41v1.29c0,.14,0,.26,0,.38v.15h-.67c-.13,0-.25,0-.39-.01h-.07c-.11,0-.21,.02-.3,.05-.1,.04-.2,.11-.29,.22-.04,.04-.1,.1-.26,.3-.12,.16-.23,.34-.33,.55-.1,.19-.09,.34-.06,.43,.09,.27,.3,.29,.36,.29h.14l.02-.03h.01c.17-.03,.33-.06,.48-.08,.17-.03,.34-.05,.51-.07,.17-.02,.35-.03,.53-.04,.08,0,.17,0,.26,0h.05v.05c0,.22,0,.44,0,.65v.89c-.02,.27-.02,.5-.03,.7,0,.2,0,.35,0,.44,0,.28-.02,.6-.03,.96l-.04,1.09c-.01,.37-.02,.73-.03,1.08,0,.36,0,.67,0,.93,.02,.54,.2,1,.52,1.37,.33,.37,.79,.58,1.38,.63h.09c.24,0,.54-.06,.92-.17,.36-.11,.73-.24,1.11-.39,.37-.14,.73-.29,1.06-.43,.32-.14,.56-.25,.72-.33,.1-.04,.18-.09,.25-.15,.1-.08,.17-.2,.2-.31,.04-.12,.07-.25,.1-.39,.03-.14,.06-.38,.08-.71,.01-.19-.06-.32-.13-.38-.06-.07-.18-.15-.38-.15-.21,0-.41,.08-.57,.25l-.02,.02c-.31,.36-.62,.66-.94,.9-.3,.23-.54,.37-.73,.42-.12,.04-.22,.06-.31,.07-.1,.01-.18,.02-.26,.02-.14,0-.24-.03-.3-.09-.06-.06-.15-.19-.24-.45-.03-.09-.08-.28-.12-.65-.04-.31-.07-.66-.09-1.04-.03-.38-.04-.75-.05-1.12,0-.37-.01-.68-.01-.92,0-.16,0-.35,0-.58,0-.23,.01-.47,.02-.73l.04-1.38h.05c.07,.01,.13,.02,.19,.02,.16,.02,.3,.03,.44,.05,.14,.02,.26,.04,.39,.06,.14,.03,.29,.05,.45,.08,.28,.05,.57,.07,.86,.08h.1c.13,0,.25-.01,.36-.04,.13-.03,.26-.08,.36-.15,.15-.08,.3-.19,.45-.3,.15-.12,.29-.24,.42-.37,.13-.14,.25-.29,.33-.45,.09-.18,.14-.36,.14-.55,0-.25-.18-.44-.44-.44"/><path class="g" d="M128.19,19.19c-.1-.07-.21-.11-.32-.11-.14,0-.34,.05-.51,.26-.13,.14-.24,.27-.35,.39-.1,.11-.19,.21-.23,.26-.22,.25-.42,.46-.59,.6-.19,.17-.36,.33-.48,.47-.12,.13-.2,.28-.23,.42-.02,.1-.04,.2-.05,.27-.03,.21,0,.37,.11,.48,.09,.1,.21,.15,.35,.15s.3-.06,.45-.17c.17-.1,.36-.24,.59-.42l.92-.71c.07-.06,.16-.14,.27-.22,.12-.09,.25-.19,.39-.3,.18-.13,.23-.3,.23-.41,0-.09,0-.2-.02-.3-.03-.17-.11-.32-.24-.44-.09-.09-.19-.16-.29-.22"/><path class="g" d="M128.02,24.34c-.05-.07-.13-.15-.29-.18h-.12c-.15,0-.32,.03-.52,.11-.18,.07-.36,.16-.55,.26-.18,.1-.36,.22-.54,.34-.18,.13-.34,.25-.45,.37-.14,.13-.23,.23-.3,.32-.07,.1-.09,.21-.06,.32,.03,.11,.09,.2,.21,.28h.01v.03c.03,.06,.05,.13,.06,.22,.01,.09,.03,.18,.03,.27,0,.11,.02,.2,.03,.27,.03,.4,.06,.81,.08,1.23,.02,.42,.04,.88,.06,1.36,.03,1.01,.01,1.93-.06,2.72-.08,.81-.15,1.5-.23,2.07-.02,.14-.03,.25-.01,.34,.01,.07,.07,.3,.37,.37,.12,.04,.28,.03,.48-.03,.11-.03,.24-.1,.39-.19,.13-.08,.29-.2,.47-.33,.18-.14,.39-.32,.63-.53,.13-.12,.22-.27,.23-.44,.01-.11,0-.23-.01-.35-.07-.63-.12-1.27-.14-1.9-.03-.65-.05-1.24-.06-1.74,0-.29,0-.63,0-1.01,0-.37,0-.77,.02-1.17,.02-.4,.05-.81,.09-1.21,.04-.39,.11-.76,.2-1.09v-.03c.02-.09,.04-.19,.06-.3,.04-.18-.02-.3-.06-.37"/><path class="g" d="M125.67,48.44c-.16-.2-.3-.37-.43-.51-.04-.04-.09-.06-.14-.06-.03,0-.06,0-.09,.02-.06,.03-.12,.1-.11,.2,.03,.23,.13,1.01,.34,1.5,.27,.66,.7,1.26,1.29,1.8,.76,.7,1.48,1.31,2.54,1.73,1.05,.41,2.14,.75,3.27,.9,1.13,.14,2.29,.16,3.44,.06,1.15-.1,2.25-.36,3.25-.64,1.03-.3,2.03-.68,2.98-1.13,.94-.45,1.81-1,2.61-1.64,.79-.64,1.52-1.38,2.16-2.21,.64-.82,1.19-1.76,1.64-2.79,.43-1,.65-2,.66-2.96,0-.9,.02-1.67-.37-2.67-.21-.54-.57-1.2-.96-1.76-.33-.47-.78-.91-1.33-1.29-.55-.38-1.22-.7-1.98-.96-.09-.03-.17-.06-.26-.09-.67-.23-1.3-.44-2.13-.5-1.06-.1-1.81-.11-2.62-.05-.79,.06-1.61,.15-2.35,.26-.89,.13-1.47,.2-2.21,.27-1.03,.1-2.3,.16-3.1-.22-.6-.29-.79-.42-.96-1.23-.07-.34,.09-.75,.47-1.24h.01s.09-.06,.13-.09c.17-.1,.32-.2,.51-.28,.25-.11,.52-.19,.8-.26,.29-.07,.57-.12,.84-.15,.29-.03,.53-.06,.75-.08,.17-.03,.31-.14,.37-.32,.03-.08,.06-.31,.06-.33v-.03h.04c.21-.06,.42-.11,.61-.16,.27-.08,.54-.17,.8-.27,.26-.1,.51-.23,.75-.37,.24-.14,.5-.33,.75-.54,.53-.42,.96-.84,1.28-1.24,.33-.42,.54-.83,.63-1.22,.09-.42,.05-.83-.14-1.22-.07-.15-.17-.31-.29-.46l-.06-.07h.09c.15,0,.3-.02,.47-.04,.2-.03,.41-.08,.62-.17,.22-.1,.43-.22,.63-.36,.2-.14,.38-.29,.53-.44,.16-.16,.29-.32,.39-.48,.1-.17,.17-.33,.2-.47,.06-.27,.05-.47-.04-.62-.07-.12-.21-.25-.52-.27-.11-.01-.23-.01-.35,0-.14,.01-.28,.05-.43,.11-.14,.06-.27,.13-.37,.21-.11,.09-.21,.22-.27,.38v.02h-.02s-.07,.03-.11,.04c-.16,.04-.36,.06-.57,.08-.22,.01-.45,.01-.67,0-.23-.01-.41-.03-.56-.05-.37-.05-.68,0-.92,.18-.13,.1-.27,.22-.41,.37l-.02,.02h-.03c-.69-.19-1.4-.25-2.11-.18-.78,.08-1.54,.27-2.24,.59-.7,.34-1.29,.73-1.74,1.17-.46,.44-.81,.94-1.04,1.49-.21,.46-.3,.95-.29,1.46,.01,.51,.14,.99,.39,1.41,.25,.43,.62,.78,1.11,1.05,.13,.07,.27,.13,.43,.18l.1,.03-.09,.05c-.26,.14-.5,.31-.71,.5-.22,.18-.41,.37-.57,.57l-.03,.03c-.12,.15-.24,.29-.31,.43l-.02,.02c-.12,.19-.2,.37-.25,.53-.23,.72-.16,1.44,.22,2.12,.38,.69,1.02,1.27,1.91,1.7,.57,.27,1.12,.44,1.65,.51,.54,.07,1.09,.09,1.64,.07,.55-.02,1.12-.07,1.69-.16,.59-.08,1.22-.14,1.88-.17,.68-.03,1.39-.02,2.12,.05,.75,.07,1.57,.24,2.45,.51,.92,.28,1.64,.72,2.15,1.31,.47,.55,.98,1.22,1.14,2.11,.19,1.01,.21,2.62,.05,3.58-.15,.88-.61,1.62-1.02,2.28l-.05,.09c-.43,.68-.94,1.29-1.52,1.8-.58,.51-1.26,.95-2.02,1.3-.76,.35-1.64,.63-2.61,.83-.93,.19-1.9,.32-2.91,.4-1.01,.08-2.01,.05-2.98-.1h-.05c-.95-.15-2.03-.32-3.2-.63-2.55-.99-3.58-2.28-4.26-3.13m6.17-20.88c.08-.21,.19-.42,.34-.64,.14-.2,.35-.38,.61-.52,.26-.15,.54-.26,.84-.33,.29-.07,.6-.11,.9-.11h.05c.32,0,.65,.05,.96,.14,.31,.09,.6,.22,.86,.38,.24,.16,.42,.35,.56,.6,.15,.25,.24,.52,.28,.79,.04,.28,.02,.54-.06,.79-.07,.24-.2,.45-.38,.61-.3,.25-.6,.43-.9,.54-.33,.12-.69,.23-1.1,.33-.31,.08-.6,.12-.86,.12-.11,0-.21,0-.31-.02-.33-.05-.62-.15-.85-.3-.24-.15-.44-.35-.61-.59-.17-.25-.31-.52-.41-.81-.02-.07-.05-.19-.04-.41,0-.18,.04-.38,.12-.58"/><path class="g" d="M152.34,34.64c.16-.07,.32-.14,.48-.22,.17-.08,.33-.17,.47-.26,.15-.1,.26-.2,.33-.29,.07-.08,.11-.17,.12-.27,.01-.16-.07-.36-.37-.42h-.03s-.03,0-.08-.08c-.03-.05-.1-.2-.14-.57-.05-.45-.08-.92-.09-1.39-.01-.47-.01-.95,0-1.42,0-.47,.03-.95,.05-1.41,.03-.49,.05-.94,.07-1.38,.02-.49,.04-.91,.06-1.24,.02-.33,.05-.62,.08-.87,.02-.21-.07-.38-.24-.46-.09-.04-.18-.06-.29-.06h-.06c-.31,.01-.62,.06-.93,.15-.3,.09-.52,.17-.68,.24-.28,.11-.44,.35-.42,.64v.03c.04,.25,.06,.51,.08,.75,.02,.26,.05,.53,.07,.82,.06,.65,.11,1.26,.17,1.81,.05,.51,.08,.96,.09,1.34,0,.37-.01,.7-.05,.97-.04,.26-.12,.49-.24,.7-.12,.21-.3,.43-.52,.62-.23,.21-.54,.43-.92,.66-.33,.21-.7,.36-1.1,.47-.61,.16-1.27,.2-1.9,.11-.21-.03-.39-.08-.54-.16-.14-.07-.26-.17-.35-.29-.08-.11-.13-.27-.15-.47,0-.1-.01-.24-.02-.43,0-.19,0-.4,0-.65v-1.46c0-.22,0-.4,0-.56,0-.16,0-.27,0-.31,.02-.71,.05-1.4,.1-2.07,.05-.68,.11-1.38,.18-2.1,.01-.12,0-.24-.04-.37-.06-.23-.23-.37-.45-.37h-.07c-.19,.03-.39,.08-.6,.14-.2,.06-.39,.13-.57,.2-.18,.07-.33,.14-.45,.2-.13,.06-.21,.1-.27,.13-.22,.11-.27,.28-.28,.37,0,.1,0,.19,.05,.3,.04,.09,.07,.21,.09,.33,.02,.15,.02,.3,.02,.47,.02,.45,.03,.91,.03,1.37,0,.46,.01,.92,.02,1.38,0,.46,0,.86,0,1.21,0,.35,.01,.68,.03,.99,.01,.3,.03,.58,.05,.83,.02,.25,.04,.5,.08,.73,.06,.41,.21,.76,.45,1.03,.23,.26,.51,.48,.85,.64,.33,.16,.69,.27,1.09,.34,.95,.15,1.96,.12,2.94-.12,.59-.14,1.1-.34,1.54-.59,.04-.02,.08-.04,.11-.06,.02-.01,.07-.05,.16-.1,.08-.05,.21-.13,.4-.25,.07-.05,.16-.1,.26-.16l.07-.04v.08c0,.17,.03,.35,.09,.52,.04,.11,.12,.22,.22,.31,.16,.15,.32,.18,.43,.18h.1c.12-.03,.27-.07,.45-.15"/><path class="g" d="M163.17,34.45c-.03,.09-.03,.2,0,.31,.02,.07,.12,.3,.46,.3,.08,0,.15,0,.22-.03,.09-.03,.22-.07,.38-.13,.16-.06,.33-.12,.51-.18l.51-.19c.17-.06,.3-.12,.39-.16,.17-.08,.28-.21,.31-.38,.02-.11,.01-.24-.02-.4-.03-.11-.06-.24-.09-.41-.03-.15-.05-.33-.06-.54-.03-.73-.05-1.41-.07-2.05-.02-.65-.05-1.24-.09-1.77-.04-.53-.09-1.01-.16-1.42-.07-.43-.18-.79-.31-1.08-.19-.4-.46-.73-.81-.98-.34-.24-.72-.43-1.13-.56-.41-.13-.83-.22-1.28-.26-.43-.04-.85-.05-1.22-.03-.53,.04-1.02,.1-1.45,.21-.43,.1-.82,.22-1.18,.35-.36,.13-.69,.27-1,.42-.3,.15-.58,.27-.84,.39-.23,.1-.38,.2-.49,.31-.15,.15-.15,.3-.14,.38,.01,.07,.06,.21,.23,.29,.06,.03,.14,.07,.26,.11,.11,.04,.23,.08,.36,.12,.13,.04,.25,.08,.36,.11,.12,.04,.23,.07,.31,.08,.05,.01,.1,.02,.14,.02,.16,.02,.3,0,.43-.05,.09-.04,.19-.1,.3-.2,.43-.37,.84-.65,1.23-.83,.36-.17,.8-.25,1.31-.23,.53,.02,.97,.09,1.31,.21,.32,.12,.59,.28,.78,.49,.2,.21,.34,.48,.44,.81,.08,.27,.13,.57,.17,.91v.04h-.04c-.3,.05-.61,.09-.91,.12-.42,.04-.85,.1-1.28,.16-.44,.06-.89,.14-1.35,.25-.47,.11-.96,.26-1.47,.46-.69,.27-1.32,.6-1.88,.98-.58,.39-1.01,.83-1.28,1.29-.16,.28-.25,.56-.26,.85,0,.28,.05,.55,.15,.8,.1,.25,.26,.48,.46,.68,.19,.2,.41,.36,.64,.49,.4,.21,.84,.36,1.31,.44,.74,.12,1.54,.15,2.32,.07,.31-.03,.59-.07,.84-.11,.55-.1,1.11-.22,1.66-.37,.33-.09,.66-.19,.98-.3l.08-.03-.02,.08c-.01,.06-.03,.11-.04,.16m-.33-1.6c-.24,.14-.51,.27-.78,.38-.28,.11-.57,.21-.87,.28-.29,.08-.58,.14-.86,.18-.16,.02-.34,.04-.53,.04-.22,0-.45-.02-.68-.05-.23-.03-.44-.08-.65-.14-.2-.06-.39-.13-.56-.21-.16-.07-.28-.15-.37-.24-.09-.08-.15-.18-.19-.31-.04-.16-.07-.34-.07-.53,0-.16,.02-.32,.06-.47,.04-.14,.11-.28,.21-.42,.1-.14,.24-.27,.43-.4,.19-.14,.43-.26,.71-.38,.22-.09,.44-.17,.65-.24,.21-.06,.43-.11,.65-.15,.23-.04,.48-.07,.73-.09,.27-.02,.56-.04,.86-.04,.29,0,.61,0,.94,.02,.25,.01,.51,.04,.8,.06h.04v.04c0,.11,0,.22,0,.32,0,.2,0,.4,0,.62v.68c0,.19,0,.41,0,.64v.02h-.01c-.15,.15-.33,.27-.52,.38"/></g><rect class="e" x="176.47" y="16.73" width=".93" height="37.41"/></svg>