<?xml version="1.0" encoding="UTF-8"?><svg id="a" xmlns="http://www.w3.org/2000/svg" viewBox="0 0 780 250"><defs><style>.b{fill:#fff;}.c{fill:#ffc629;}.d{fill:#2c2159;}</style></defs><rect class="d" width="780" height="250"/><g><g><rect class="c" x="388.74" y="58.42" width="2.51" height="133.15"/><path class="c" d="M390.77,58.91V191.08h-1.53V58.91h1.53m.97-.97h-3.49V192.06h3.49V57.94h0Z"/></g><g><g><path class="b" d="M509.61,98.12c-.63,1.33-1.51,2.44-2.63,3.34s-2.41,1.58-3.92,2.01c-1.48,.44-3.09,.68-4.79,.68h-5.07v9.11h-6.69v-30.37h12.41c1.82,0,3.45,.25,4.88,.76s2.65,1.22,3.65,2.15c.99,.93,1.76,2.03,2.3,3.32s.8,2.71,.8,4.28v.08c0,1.76-.32,3.3-.95,4.64h.01Zm-5.82-4.59c0-1.5-.49-2.65-1.46-3.43s-2.3-1.17-3.97-1.17h-5.16v9.29h5.3c1.68,0,2.98-.44,3.92-1.32s1.39-1.98,1.39-3.27v-.08h-.01Z"/><path class="b" d="M555.66,113.26l-6.51-9.71h-5.25v9.71h-6.69v-30.38h13.89c3.62,0,6.43,.88,8.44,2.65s3.02,4.22,3.02,7.38v.08c0,2.47-.59,4.47-1.8,6.01s-2.76,2.69-4.71,3.4l7.42,10.85h-7.81v.02Zm.12-20.01c0-1.45-.46-2.53-1.39-3.26s-2.21-1.09-3.86-1.09h-6.64v8.72h6.76c1.65,0,2.91-.39,3.79-1.17s1.32-1.82,1.32-3.13v-.07h.01Z"/><path class="b" d="M590.59,113.26v-30.38h6.69v30.37h-6.69Z"/><path class="b" d="M647.87,113.26l-14.71-19.31v19.31h-6.6v-30.38h6.16l14.23,18.7v-18.7h6.6v30.37h-5.68Z"/><path class="b" d="M696.31,89.05v24.21h-6.69v-24.21h-9.25v-6.16h25.18v6.16h-9.24Z"/></g><g><path class="b" d="M474.17,151.81c-.63,1.33-1.51,2.44-2.63,3.34s-2.41,1.58-3.9,2.01c-1.48,.44-3.09,.68-4.8,.68h-5.07v9.11h-6.69v-30.37h12.41c1.82,0,3.45,.25,4.88,.76s2.65,1.22,3.65,2.15c.99,.93,1.77,2.03,2.3,3.32,.54,1.29,.8,2.72,.8,4.28v.08c0,1.76-.32,3.3-.95,4.64h.01Zm-5.82-4.59c0-1.5-.49-2.65-1.46-3.43-.96-.78-2.3-1.17-3.97-1.17h-5.16v9.29h5.3c1.68,0,2.98-.44,3.92-1.32s1.39-1.98,1.39-3.27v-.08h-.01Z"/><path class="b" d="M531.5,157.87c-.81,1.89-1.93,3.56-3.37,4.99-1.44,1.43-3.14,2.56-5.12,3.39-1.99,.83-4.15,1.23-6.49,1.23s-4.5-.41-6.47-1.23c-1.97-.83-3.66-1.94-5.1-3.34-1.43-1.41-2.55-3.05-3.34-4.94s-1.2-3.93-1.2-6.1v-.08c0-2.17,.41-4.2,1.22-6.1,.81-1.89,1.93-3.56,3.37-4.98,1.43-1.43,3.14-2.56,5.12-3.39,1.99-.83,4.15-1.24,6.49-1.24s4.5,.41,6.47,1.24,3.66,1.94,5.1,3.34,2.54,3.05,3.34,4.94c.79,1.89,1.2,3.93,1.2,6.1v.08c0,2.16-.4,4.19-1.22,6.1h0Zm-5.77-6.11c0-1.3-.22-2.53-.68-3.68-.44-1.15-1.09-2.17-1.9-3.04s-1.8-1.56-2.93-2.06c-1.12-.51-2.36-.76-3.68-.76s-2.6,.24-3.7,.73c-1.11,.49-2.07,1.17-2.87,2.04s-1.42,1.87-1.86,3.02-.68,2.37-.68,3.66v.08c0,1.3,.22,2.53,.68,3.68,.44,1.15,1.09,2.17,1.9,3.04s1.79,1.56,2.9,2.06,2.35,.76,3.71,.76,2.56-.24,3.68-.73,2.1-1.17,2.89-2.04,1.42-1.87,1.86-3.02,.68-2.37,.68-3.66v-.08h0Z"/><path class="b" d="M578.81,166.96l-6.51-9.71h-5.25v9.71h-6.69v-30.37h13.89c3.62,0,6.43,.88,8.43,2.65,2.01,1.77,3.02,4.22,3.02,7.38v.06c0,2.47-.59,4.47-1.8,6.01-1.21,1.55-2.76,2.69-4.71,3.4l7.42,10.85h-7.81v.03Zm.14-19.95c0-1.45-.46-2.53-1.39-3.26s-2.21-1.09-3.86-1.09h-6.64v8.72h6.76c1.65,0,2.91-.39,3.8-1.17,.88-.78,1.32-1.82,1.32-3.13v-.07h0Z"/><path class="b" d="M627.2,142.74v24.21h-6.69v-24.21h-9.24v-6.16h25.18v6.16h-9.25Z"/><path class="b" d="M685.87,166.96l-2.77-6.82h-12.85l-2.77,6.82h-6.82l13.03-30.6h6.16l13.03,30.6h-7.01Zm-9.2-22.57l-4.04,9.85h8.07l-4.04-9.85h.01Z"/><path class="b" d="M719.25,166.96v-30.37h6.69v24.34h15.14v6.03h-21.83Z"/></g></g><g><path class="b" d="M300.38,159.76v-1.17c.06-1.27,.13-1.95,.45-2.71,.84-1.97,2.86-3.2,5-3.2h2.77s.65-8.53,1.32-10.81c.65-2.3,7.21-1.97,7.21-1.97v-5.24c0-3.27,5.89-3.6,5.89-3.6h5.91v28.71h-28.53Zm22-10.36h3.27v-5.58h-3.27v5.58Zm0,6.23h3.27v-4.92h-3.27v4.92Zm-4.92-6.23h3.27v-5.58h-3.27v5.58Zm0,6.23h3.27v-4.92h-3.27v4.92Z"/><path class="b" d="M63.88,143.6c2.47,2.18,5.78,4.25,8.72,6.11l-.15,.74h-3.98c-3.65-1.67-5.35-2.69-10.9-6.6v2.99c0,1.1,.03,1.5,.74,3.01l.28,.59h-6.8l.24-.57c.59-1.45,.73-2.49,.73-3.66v-7.9c0-1.65-.43-2.4-.68-2.84l-.37-.63,6.11-.03h.26c4.81,0,8.57,1.1,10.07,2.94,.43,.54,.67,1.11,.67,1.71,0,1.73-1.65,3.12-4.9,4.14m-6.34-1.08c2.38-.35,6.32-1.02,6.32-2.86,0-.89-1.34-2.46-6.32-2.77v5.63Zm41.73,5.74v-4.62c1.9,.08,2.97,.17,6.06,.63h.13l3.34-2.86h-9.53v-4.41c2.71-.03,4.36,.17,7.39,.89l.15,.03,2.89-3.12h-16.69l.39,.63c.91,1.49,.99,3.08,.99,3.53v7.27c0,1.82-.56,2.8-.99,3.6l-.35,.62h15.5l2.86-3.43-.99,.17c-5.78,1.04-7.81,1.05-11.21,1.05m59.98,1.43l1.02,.73-8.19,.06v-.39c0-.56-.13-1.21-1.05-2.32l-1.56-1.9h-9.62l-1.34,1.5c-.96,1.1-1.41,1.99-1.32,2.66l.06,.46h-7.25l-.15-.74c.85-.52,1.65-1.02,4.03-3.49l10.95-11.46h.46l9.65,10.96c2.03,2.3,3.31,3.23,4.33,3.98m-14.4-9.42l-2.73,3.05h5.22l-2.49-3.05Zm41.25,7.88l.15-9.28c.03-2.06,.46-2.64,1-3.38l.48-.67h-7.02l-.67,.03,.45,.65c.43,.62,.87,1.27,.87,3.22v6.56c0,3.12-.37,3.6-1.04,4.5l-.5,.67h14.63l3.16-3.79-1.02,.22c-2.84,.59-5.61,1.02-10.48,1.27m29.6-9.88l.78-.15c5.18-.99,6.95-1.02,8.6-1v9.18c0,1.58-.3,2.58-.74,3.59l-.26,.59h6.88l-.31-.62c-.5-.95-.74-2.04-.74-3.33v-9.4c3.05,0,4.03,.17,6.99,.78l.15,.03,2.66-3.11h-21.93l-2.06,3.43v0Zm67.04-3.43h-6.04l.06,.43c.06,.46-.13,.84-1.34,1.92l-3.65,3.4-3.76-3.49c-.74-.71-1.22-1.21-1.11-1.81l.08-.48-6.82,.03-.09,.78c1.22,.48,1.78,.82,3.11,2.1l6.19,5.8v4.02c0,1.38-.26,1.71-.67,2.27l-.5,.67h7.32l-.68-.71c-.57-.59-.63-1.22-.63-1.47v-4.96l6.62-6.14,.2-.19c.35-.31,1.04-.89,1.87-1.47l-.15-.74v.03h0Z"/><path class="b" d="M38.95,158.4H242.27s.03-.02,.03-.03h8.72c0-1.73,0-.52,.06-3.12H38.95s-.03,.02-.03,.03v3.06s.02,.03,.03,.03"/><path class="b" d="M71.14,95.02c1.53,.08,2.6,.08,3.38,0,.56-.06,.96-.19,1.27-.41,.34-.24,.68-.5,1.02-.82,.35-.31,.65-.65,.87-.96,.24-.3,.37-.57,.41-.84,.06-.34-.03-.67-.24-.93-.17-.19-.46-.43-.99-.43-.13,0-.26,0-.35,.03-.08,0-.19,.03-.37,.08-.13,.02-.43,.08-1.05,.15-.52,.06-1.27,.13-2.24,.22-.34,.03-.59,.06-.85,.09-.48,.06-.93,.11-1.86,.17-.24,0-.39,.02-.54,.03h-.02c-.17,0-.31,.02-.62,.03-.2,0-.35,0-.5,.02h-.03c-.22,0-.41,.02-.74,.03h-.52c-.24,.02-.43,.02-.8,.02h-8.47c-.91,0-4.83-.03-5.74-.09-.95-.06-2.12-.22-3.46-.45-.3-.06-.63-.11-.95-.17-.34-.08-.65-.13-.96-.2s-.62-.13-.87-.19c-.24-.06-1.53-.22-2.29,0-.22,.09-.48,.2-.78,.34-.31,.15-.63,.31-.96,.48s-.57,.45-.89,.87c-.35,.48-.62,.84-.95,1.67-.34,.84-.45,2.21-.17,2.58,.24,.34,.63,.57,1.16,.57s1.56-1.16,2.04-1.45c1.6-.96,2.68-.8,4.87-.73h.48c.3,0,.54,.02,.8,.02h1.38c.31,.02,.71,.03,1.17,.03h1.71c1.17,0,2.62,0,3.01,.02,.41,0,.85,0,1.36,.02h.08l.03,.34c.09,.76,.15,2.38,.2,3.38,.03,.74,.08,1.16,.11,1.56,.03,.45,.08,.85,.11,1.62,0,.28,.02,.48,.03,.65v.08c.02,.31,.03,.62,.06,1.3,.02,1.1,.03,2.27,.03,3.51v.78c0,.09,0,.22-.02,.89-.02,1.3-.06,2.64-.11,3.94-.02,.59-.06,1.3-.11,2.18-.06,.84-.11,1.71-.17,2.58-.06,.89-.13,1.76-.2,2.57-.08,.82-.17,1.53-.26,2.08-.09,.46-.08,.8,0,1.08,.17,.52,.63,.85,1.17,.85,.2,0,.41-.06,.59-.15,.41-.19,.85-.39,1.36-.63,.48-.24,.96-.45,1.47-.65,.52-.22,.89-.56,1.08-.99,.13-.31,.2-.68,.2-1.13v-.62h0c0-.37,0-.78-.02-1.28v-1.71c-.02-.63-.02-1.27-.02-1.92,0-1.5-.03-3.22-.06-5.09,0-.93-.02-1.36-.03-1.75,0-.43-.02-.82-.03-1.82-.02-1.95-.02-2.97-.02-4.87v-1.87c0-.89,0-2.69,.02-3.38v-1.49h6.04c.54,0,1.16,0,1.84,.03"/><path class="b" d="M83.03,104.39c-.09-.13-.24-.28-.54-.34h-.24c-.28,0-.59,.06-.96,.2-.34,.13-.67,.3-1.02,.48-.34,.19-.67,.41-1,.63-.34,.24-.63,.46-.84,.68-.26,.24-.45,.43-.56,.59-.13,.19-.17,.39-.13,.59s.17,.39,.39,.52h.02v.03c.06,.13,.08,.26,.11,.41,.03,.17,.06,.34,.08,.5,0,.2,.03,.37,.06,.5,.06,.74,.11,1.5,.15,2.29,.03,.8,.08,1.65,.11,2.52,.06,1.87,.02,3.59-.11,5.06-.15,1.5-.28,2.79-.43,3.85-.03,.26-.06,.46-.02,.63,.02,.13,.13,.56,.68,.68,.22,.08,.52,.06,.89-.06,.2-.06,.45-.17,.73-.35,.24-.15,.54-.37,.87-.62,.34-.26,.73-.59,1.17-.99,.24-.22,.41-.5,.43-.82,.02-.2,0-.43-.02-.65-.13-1.17-.22-2.36-.28-3.53-.06-1.21-.09-2.3-.11-3.23v-1.87c0-.68,0-1.41,.03-2.18,.03-.74,.09-1.5,.17-2.24,.08-.73,.2-1.41,.37-2.03v-.06c.03-.17,.08-.35,.11-.56,.08-.34-.03-.56-.11-.68"/><path class="b" d="M83.35,94.81c-.19-.13-.39-.2-.59-.2-.26,0-.63,.09-.95,.48-.24,.26-.45,.5-.65,.73-.2,.22-.35,.39-.43,.48-.41,.46-.78,.85-1.1,1.11-.35,.31-.67,.62-.89,.87-.22,.24-.37,.52-.43,.78-.06,.2-.08,.37-.09,.5-.06,.39,0,.68,.2,.89,.17,.19,.39,.28,.65,.28s.56-.11,.84-.31c.3-.19,.67-.45,1.1-.78l1.71-1.32c.13-.11,.3-.26,.5-.41,.22-.17,.46-.35,.73-.56,.34-.24,.43-.56,.43-.76,0-.17,0-.37-.03-.56-.06-.31-.2-.59-.45-.82-.17-.17-.35-.3-.54-.41"/><path class="b" d="M103.51,122.97c.63-.24,1.19-.52,1.64-.82,.54-.35,1.02-.8,1.43-1.32s.73-1.19,.95-1.95c.17-.57-.17-.89-.34-1-.11-.08-.24-.13-.39-.17-.17-.06-.35-.09-.56-.09h-.08c-.28,0-.52,.09-.71,.28-.13,.11-.24,.26-.34,.41-.24,.41-.54,.8-.89,1.13s-.74,.63-1.17,.89c-.62,.37-1.32,.65-2.12,.84-1.54,.37-3.22,.37-4.7,.06-.68-.15-1.32-.39-1.86-.71-.89-.52-1.65-1.16-2.24-1.92-.62-.76-1.1-1.54-1.45-2.34-.34-.78-.54-1.54-.62-2.27-.06-.52-.02-.99,.09-1.36v-.06h.08c1.22-.24,2.55-.43,3.9-.56,2.66-.24,5.27-.28,7.78-.09,1.1,.08,2.18,.13,3.23,.17,.19,0,.35,.03,.48,.03h.35c.62,0,.82-.35,.87-.5,.09-.22,.09-.5-.03-.99-.15-.67-.46-1.39-.91-2.15-.45-.74-1.02-1.43-1.71-2.06s-1.5-1.16-2.4-1.56c-.93-.43-1.93-.63-3.01-.63-.63,0-1.27,.08-1.9,.22-1.02,.24-2.06,.62-3.12,1.11-1.05,.48-2.06,1.1-2.99,1.76-1.54,1.13-2.68,2.32-3.4,3.53-.73,1.22-1.16,2.43-1.27,3.6-.09,1-.03,2.01,.2,2.95,.24,.96,.65,1.87,1.22,2.69s1.34,1.54,2.27,2.15c.91,.62,2.03,1.05,3.27,1.34,.62,.15,1.27,.26,1.93,.31,1.39,.13,2.89,.13,4.35-.02,.76-.08,1.5-.2,2.19-.35,.71-.15,1.38-.35,1.99-.59m-10.57-14.16c.48-.31,.99-.57,1.53-.8,.56-.22,1.13-.41,1.69-.54,.56-.13,1.08-.22,1.53-.28h.06s.11-.03,.19-.03h.17c.45,0,.89,.09,1.38,.26,.45,.17,.89,.45,1.28,.82,.2,.2,.39,.39,.54,.57l.13,.15-.59-.03c-1.27-.08-3.34-.08-5.72,0-.65,0-1.34,.03-2.04,.06h-.3l.24-.15-.06-.02h-.02Z"/><path class="b" d="M118.77,108.14c.31-.08,.63-.13,.95-.19,.76-.11,1.54-.08,2.24,.11,.15,.06,.26,.11,.37,.19,.13,.09,.26,.19,.39,.3l.06,.03c.5,.35,1,.37,1.47,.02,.31-.26,.65-.52,.99-.8s.65-.57,.93-.84c.26-.24,.37-.57,.28-.95-.08-.26-.2-.5-.39-.67h0c-.43-.43-.96-.73-1.64-.87-1.64-.34-3.16-.3-4.55,.11-.73,.2-1.39,.45-2.01,.71-.87,.35-1.71,.76-2.51,1.21l-.13,.08v-.15c0-.26-.02-.52-.06-.76-.06-.3-.17-.56-.37-.8-.31-.39-.67-.46-.91-.46-.08,0-.13,0-.19,.02h-.09l-.09,.03c-.26,.11-.52,.22-.8,.37s-.54,.3-.8,.45-.5,.31-.73,.46c-.24,.17-.43,.31-.56,.46-.15,.15-.59,.71,0,1.54,.03,.08,.09,.22,.15,.45,.06,.22,.09,.5,.11,.84,.06,1.04,.08,2.06,.11,3.05,.02,1,.03,1.95,.06,2.79v2.21c0,.74-.02,1.43-.06,2.06-.02,.65-.06,1.22-.11,1.76-.03,.5-.11,.95-.17,1.3-.08,.3-.13,.56-.15,.8-.08,.52,.24,.95,.8,1.08h.34c.22,0,.48-.02,.78-.09,.28-.08,.56-.17,.85-.28s.57-.24,.84-.37c.28-.15,.5-.26,.71-.39,.34-.24,.46-.54,.52-.73,.03-.2,.06-.46,.03-.82-.06-1.16-.09-2.32-.15-3.49-.06-1.13-.09-2.15-.11-3.06,0-.85-.02-1.6-.08-2.24-.06-.59-.08-1.13-.08-1.58,0-.41,.03-.74,.13-1.02,.08-.22,.2-.43,.43-.62,.26-.22,.65-.43,1.16-.62,.54-.2,1.25-.43,2.12-.65"/><path class="b" d="M136.77,108.14c.31-.08,.63-.13,.95-.19,.76-.11,1.54-.08,2.24,.11,.15,.06,.26,.11,.37,.19,.13,.09,.26,.19,.39,.3l.06,.03c.5,.35,1,.37,1.47,.02,.31-.26,.65-.52,.99-.8s.65-.57,.93-.85c.26-.24,.37-.57,.28-.95-.08-.26-.2-.5-.39-.67-.43-.43-.99-.73-1.64-.87-1.64-.34-3.16-.3-4.55,.11-.73,.2-1.39,.45-2.01,.71-.87,.35-1.71,.76-2.51,1.21l-.13,.08v-.15c0-.26-.02-.52-.06-.76-.06-.28-.17-.56-.37-.8-.31-.39-.67-.46-.91-.46-.08,0-.13,0-.19,.02h-.09l-.09,.03c-.26,.11-.52,.22-.8,.37-.26,.15-.54,.3-.8,.45s-.5,.31-.73,.46c-.24,.17-.43,.31-.56,.46-.15,.15-.59,.71,0,1.54,.03,.08,.09,.2,.15,.45,.06,.22,.09,.5,.11,.84,.06,1.04,.08,2.06,.11,3.05,.02,1,.03,1.95,.06,2.79v2.21c0,.76-.02,1.43-.06,2.06-.02,.65-.06,1.22-.11,1.76-.03,.5-.11,.96-.17,1.3-.08,.28-.11,.56-.15,.8-.08,.52,.24,.95,.8,1.08h.34c.22,0,.48-.02,.78-.09,.28-.08,.56-.17,.85-.28s.57-.24,.84-.37,.5-.26,.71-.41c.35-.24,.46-.52,.52-.73,.03-.2,.06-.46,.03-.82-.06-1.19-.09-2.36-.15-3.49-.06-1.13-.09-2.15-.11-3.06,0-.85-.02-1.6-.08-2.24-.06-.59-.08-1.13-.08-1.58,0-.41,.03-.74,.13-1.02,.08-.22,.2-.43,.43-.62,.26-.22,.65-.43,1.16-.62,.54-.2,1.25-.43,2.12-.65"/><path class="b" d="M160.18,123.17c-.06,.17-.06,.37,0,.57,.03,.13,.22,.56,.85,.56,.15,0,.28,0,.41-.06,.13-.03,.35-.11,.71-.24,.3-.11,.62-.22,.95-.34l.95-.35c.31-.11,.56-.22,.73-.3,.31-.15,.52-.39,.57-.71,.03-.2,.02-.45-.03-.74-.06-.2-.09-.45-.17-.74-.06-.26-.09-.62-.11-1-.06-1.36-.09-2.62-.13-3.81s-.09-2.3-.17-3.29-.17-1.87-.3-2.64c-.13-.8-.34-1.47-.57-2.01-.35-.74-.85-1.36-1.5-1.82-.63-.45-1.34-.8-2.1-1.04-.76-.24-1.54-.41-2.36-.48-.8-.08-1.56-.09-2.27-.06-.99,.08-1.9,.19-2.69,.39-.8,.19-1.53,.41-2.19,.65-.67,.24-1.28,.5-1.86,.78-.56,.28-1.08,.5-1.56,.73-.43,.19-.71,.37-.91,.57-.28,.28-.28,.56-.26,.71,.02,.13,.11,.39,.43,.54,.11,.06,.26,.13,.48,.2,.2,.08,.43,.15,.67,.22s.46,.15,.67,.2c.22,.08,.43,.13,.57,.15,.09,.02,.19,.03,.26,.03,.3,.03,.56,0,.8-.09,.17-.08,.35-.19,.56-.37,.8-.68,1.56-1.21,2.29-1.54,.67-.31,1.49-.46,2.43-.43,.99,.03,1.81,.17,2.43,.39,.59,.22,1.1,.52,1.45,.91,.37,.39,.63,.89,.82,1.5,.15,.5,.24,1.05,.31,1.69v.08h-.08c-.56,.09-1.13,.17-1.69,.22-.78,.08-1.58,.19-2.38,.3-.82,.11-1.65,.26-2.51,.46-.87,.2-1.78,.48-2.73,.85-1.27,.5-2.46,1.11-3.49,1.82-1.08,.73-1.87,1.54-2.38,2.4-.3,.52-.46,1.04-.48,1.58,0,.52,.09,1.02,.28,1.49s.48,.89,.85,1.27c.35,.37,.76,.67,1.19,.91,.74,.39,1.56,.67,2.43,.82,1.38,.22,2.86,.28,4.31,.13,.57-.06,1.1-.13,1.56-.2,1.02-.19,2.06-.41,3.08-.68,.62-.17,1.22-.35,1.82-.56l.15-.06-.03,.15c-.02,.11-.06,.2-.08,.3m-.62-2.97c-.45,.26-.95,.5-1.47,.71s-1.05,.39-1.62,.52c-.54,.15-1.08,.26-1.6,.34-.3,.03-.63,.08-.99,.08-.41,0-.84-.03-1.27-.09s-.82-.15-1.21-.26c-.37-.11-.73-.24-1.04-.39-.3-.13-.52-.28-.68-.45-.17-.15-.28-.34-.35-.57-.08-.3-.13-.63-.13-.99,0-.3,.03-.59,.13-.87,.08-.26,.2-.52,.39-.78s.45-.5,.8-.74c.35-.26,.8-.48,1.32-.71,.41-.17,.82-.31,1.21-.45,.39-.11,.8-.2,1.21-.28,.43-.08,.89-.13,1.36-.17,.5-.03,1.04-.08,1.6-.08s1.13,0,1.75,.03c.46,.03,.96,.08,1.49,.11h.08v4.31h-.02c-.28,.28-.62,.5-.96,.71"/><path class="b" d="M201.23,114.34l.08-.06,.03,.09c.13,.3,.26,.59,.41,.93,.26,.63,.56,1.32,.87,2.08,.31,.78,.65,1.58,.99,2.41l.74,1.92c.19,.5,.31,.87,.41,1.11,.13,.39,.26,.67,.43,.87,.31,.41,.82,.59,1.32,.46,.17-.03,.37-.09,.67-.2,.06,0,.09-.02,.15-.03,.2-.03,.41-.09,.62-.17l.74-.22,.17-.08c.22-.11,.89-.45,1.04-1.13,.08-.35,.03-.74-.15-1.13l-.06-.09c-.3-.52-.59-1.04-.87-1.58s-.56-1.08-.84-1.64c-.22-.43-.48-.95-.78-1.54-.3-.59-.59-1.21-.89-1.82-.3-.63-.59-1.22-.87-1.81-.28-.56-.5-1.04-.68-1.43-.19-.35-.31-.65-.43-.89-.11-.24-.2-.46-.3-.67-.09-.19-.19-.39-.26-.57-.09-.19-.19-.41-.31-.68-.15-.31-.34-.74-.59-1.3l-.85-1.92c-.31-.71-.65-1.43-.99-2.19s-.67-1.5-.99-2.23c-.09-.2-.2-.46-.34-.76s-.28-.67-.46-1.11-.39-.99-.62-1.58-.5-1.34-.84-2.29c-.19-.5-.34-1-.48-1.47-.13-.46-.26-.96-.37-1.45-.03-.2-.08-.35-.09-.48-.03-.24-.08-.45-.15-.62-.13-.35-.39-.62-.73-.74-.28-.13-.62-.13-.96-.03-.11,.02-.24,.06-.34,.09-.13,.06-.26,.13-.43,.24l-1.04,.73c-.22,.11-.43,.24-.63,.37-.19,.13-.39,.24-.59,.37-.3,.19-.52,.41-.67,.68-.15,.24-.22,.5-.24,.78-.63,3.12-11.41,21.46-11.41,21.46-.17,.26-.39,.63-.68,1.1-.28,.45-.57,.91-.91,1.43-.31,.48-.63,.95-.93,1.39-.26,.39-.5,.71-.68,.91l-.24,.24-.39,.41c-.13,.15-.28,.28-.41,.41l-.26,.26-.13,.11-.09,.15c-.3,.54-.17,1.19,.31,1.54,.11,.08,.22,.15,.35,.22,.22,.13,.5,.24,.82,.34,.22,.06,.41,.13,.57,.19l.15,.06h.15c.35,.03,.67-.03,.96-.17,.24-.11,.45-.28,.63-.46,.15-.15,.3-.34,.41-.52,.09-.17,.2-.31,.28-.46l3.11-5.41c.17-.3,.31-.57,.46-.84,.15-.26,.3-.54,.46-.82,.15-.26,.3-.56,.48-.85l.34-.59h.06c.54-.03,1.13-.06,1.78-.09,.89-.03,1.81-.08,2.75-.08s1.87-.02,2.83-.03h2.62c.67,0,1.27,.03,1.73,.06s.87,.06,1.21,.09c.31,.03,.56,.06,.74,.09,.2,.03,.35,.08,.46,.11,.09,.02,.17,.06,.22,.08,.13,.08,.28,.13,.43,.19,.3,.13,.45,.2,.52,.24,.35,.19,.71,.24,1.02,.17,.13-.03,.26-.09,.39-.17m-2.32-3.98c-.48,0-1.05,.02-1.75,.02h-.26c-.67,0-1.45,0-2.32-.03-1.08-.03-2.14-.08-3.16-.15-1.04-.06-1.99-.13-2.84-.2-.65-.06-1.22-.11-1.75-.17h-.13l1.32-2.34c.37-.65,.73-1.28,1.04-1.87l.85-1.58c.26-.48,.52-.96,.8-1.43,.13-.26,.3-.52,.48-.84s.41-.68,.65-1.1,.54-.87,.85-1.41l.87-1.41,.08,.13c.15,.28,.3,.56,.43,.8,.24,.46,.48,.93,.68,1.36,.2,.41,.41,.84,.62,1.27s.41,.87,.63,1.34c.39,.85,.74,1.62,1.02,2.23l1.17,2.49c.13,.28,.26,.54,.39,.8s.26,.54,.39,.84,.31,.68,.52,1.13l.06,.11h-.63l-.02,.03h0Z"/><path class="b" d="M228.34,124.16c.17,0,.35-.06,.54-.15,.24-.13,.48-.26,.74-.39l1.56-.8c.26-.13,.48-.26,.68-.39,.37-.24,.56-.62,.5-1-.02-.17-.06-.37-.08-.65-.03-.24-.06-.52-.08-.85l-.13-2.92c-.02-.56-.06-1.16-.09-1.82l-.09-1.95c-.03-.63-.06-1.21-.08-1.75s-.03-.95-.06-1.21c0-.34-.03-.68-.06-1.05-.02-.39-.09-.78-.19-1.17-.09-.41-.26-.8-.48-1.16-.22-.39-.56-.73-.96-1.04-.48-.37-1.21-.68-2.23-.99-1.6-.46-3.46-.56-5.35-.28-.68,.09-1.38,.26-2.06,.48s-1.39,.52-2.1,.89c-.31,.17-.63,.35-.95,.56l-.13,.09v-.82c0-.41-.11-.71-.34-.91-.2-.19-.48-.28-.82-.28h-.13c-.31,.02-.63,.11-.95,.24-.26,.13-.54,.26-.78,.41-.26,.15-.48,.31-.68,.48-.17,.15-.31,.24-.41,.31l-.03,.03c-.26,.22-.46,.45-.57,.68-.19,.34-.2,.82,.28,1.22,.15,.13,.22,.28,.26,.45,.06,.28,.11,.59,.13,.99,.06,.91,.11,1.82,.15,2.73,.03,.93,.06,1.84,.08,2.73,0,.89,.02,1.76,0,2.58,0,.82-.02,1.58-.03,2.24,0,.41-.03,.85-.08,1.34-.03,.46-.09,.96-.2,1.49-.06,.24-.09,.46-.11,.63-.06,.34,.09,.8,.67,.96,.28,.11,.59,.08,1.11-.09,.26-.09,.56-.19,.89-.31,.3-.13,.59-.24,.85-.37,.28-.13,.46-.22,.62-.28l.06-.03c.2-.13,.37-.3,.48-.48,.15-.26,.17-.56,.08-.82-.13-.39-.2-.73-.2-1.02l-.06-1.02c-.03-.68-.06-1.45-.09-2.3-.03-.8-.06-1.67-.09-2.64l-.08-2.71c-.02-.76-.03-1.5-.03-2.18v-.03h.03c.62-.45,1.28-.8,1.99-1.05,.84-.3,1.67-.52,2.49-.67,1.32-.22,2.47-.24,3.51-.03,.46,.09,.87,.24,1.21,.45s.59,.46,.8,.78,.31,.71,.34,1.17c.06,.84,.08,1.64,.11,2.38,.02,.74,.03,1.45,.06,2.12,0,.65,.02,1.32,0,1.99,0,.65-.02,1.34-.03,2.04,0,.34-.03,.78-.09,1.36-.03,.59-.08,1.27-.11,1.99-.02,.37,0,.67,0,.93,.08,.63,.48,.85,.82,.85"/><path class="b" d="M249.84,104.57c-.17,0-.34,.03-.54,.11-.11,.03-.22,.08-.34,.09-.62,.15-1.27,.28-1.87,.39-.62,.09-1.27,.17-1.86,.2h-.93c-.19,0-.39,0-.62-.02-.22,0-.5,0-.82-.02h-.54v-.09c0-.43,.03-.87,.06-1.32,.03-.71,.08-1.43,.11-2.18s.09-1.49,.13-2.23c.06-.73,.09-1.45,.17-2.14,.06-.39-.08-.74-.37-.96-.22-.17-.48-.26-.8-.3h-.06c-.24,0-.52,.09-.91,.3-.3,.17-.63,.35-.96,.57-.35,.22-.68,.46-1,.71-.34,.26-.57,.46-.76,.65-.35,.35-.5,.73-.46,1.1,.03,.26,.11,.5,.24,.78,.24,.45,.34,.73,.35,.87,.06,.24,.08,.5,.08,.76v3.38h-1.25c-.24,0-.46,0-.73-.02h-.13c-.2,0-.39,.03-.56,.09-.19,.08-.37,.2-.54,.41-.08,.08-.19,.19-.48,.56-.22,.3-.43,.63-.62,1.02-.19,.35-.17,.63-.11,.8,.17,.5,.56,.54,.67,.54h.26l.03-.06h.02c.31-.06,.62-.11,.89-.15,.31-.06,.63-.09,.95-.13s.65-.06,.99-.08h.57v2.95c-.03,.5-.03,.93-.06,1.3v.82c0,.52-.03,1.11-.06,1.78l-.08,2.03c-.02,.68-.03,1.36-.06,2.01v1.73c.03,1,.37,1.86,.96,2.55,.62,.68,1.47,1.08,2.57,1.17h.17c.45,0,1-.11,1.71-.31,.67-.2,1.36-.45,2.06-.73,.68-.26,1.36-.54,1.97-.8,.59-.26,1.04-.46,1.34-.62,.19-.08,.34-.17,.46-.28,.19-.15,.31-.37,.37-.57,.08-.22,.13-.46,.19-.73s.11-.71,.15-1.32c.02-.35-.11-.59-.24-.71-.11-.13-.34-.28-.71-.28s-.76,.15-1.05,.46l-.03,.03c-.57,.67-1.16,1.22-1.75,1.67-.56,.43-1,.68-1.36,.78-.22,.08-.41,.11-.57,.13-.19,.02-.34,.03-.48,.03-.26,0-.45-.06-.56-.17s-.28-.35-.45-.84c-.06-.17-.15-.52-.22-1.21-.08-.57-.13-1.22-.17-1.93-.06-.71-.08-1.39-.09-2.08,0-.68-.02-1.27-.02-1.71v-1.08c0-.43,.02-.87,.03-1.36l.08-2.57h.09c.13,.02,.24,.03,.35,.03,.3,.03,.56,.06,.82,.09s.48,.08,.73,.11c.26,.06,.54,.09,.84,.15,.52,.09,1.05,.13,1.6,.15h.19c.24,0,.46-.02,.67-.08,.24-.06,.48-.15,.67-.28,.28-.15,.56-.35,.84-.56,.28-.22,.54-.45,.78-.68,.24-.26,.46-.54,.62-.84,.17-.34,.26-.67,.26-1.02,0-.46-.34-.82-.82-.82"/><path class="b" d="M258.68,94.81c-.19-.13-.39-.2-.59-.2-.26,0-.63,.09-.95,.48-.24,.26-.45,.5-.65,.73-.19,.2-.35,.39-.43,.48-.41,.46-.78,.85-1.1,1.11-.35,.31-.67,.62-.89,.87-.22,.24-.37,.52-.43,.78-.03,.19-.08,.37-.09,.5-.06,.39,0,.68,.2,.89,.17,.19,.39,.28,.65,.28s.56-.11,.84-.31c.31-.19,.67-.45,1.1-.78l1.71-1.32c.13-.11,.3-.26,.5-.41,.22-.17,.46-.35,.73-.56,.34-.24,.43-.56,.43-.76,0-.17,0-.37-.03-.56-.06-.31-.2-.59-.45-.82-.17-.17-.35-.3-.54-.41"/><path class="b" d="M258.37,104.39c-.09-.13-.24-.28-.54-.34h-.22c-.28,0-.59,.06-.96,.2-.34,.13-.67,.3-1.02,.48-.34,.19-.67,.41-1,.63-.34,.24-.63,.46-.84,.68-.26,.24-.43,.43-.56,.59-.13,.19-.17,.39-.11,.59s.17,.37,.39,.52h.02v.06c.06,.11,.09,.24,.11,.41,.02,.17,.06,.34,.06,.5,0,.2,.03,.37,.06,.5,.06,.74,.11,1.5,.15,2.29,.03,.78,.08,1.64,.11,2.52,.06,1.87,.02,3.59-.11,5.06-.15,1.5-.28,2.79-.43,3.85-.03,.26-.06,.46-.02,.63,.02,.13,.13,.56,.68,.68,.22,.08,.52,.06,.89-.06,.2-.06,.45-.19,.73-.35,.24-.15,.54-.37,.87-.62,.34-.26,.73-.59,1.17-.99,.24-.22,.41-.5,.43-.82,.02-.2,0-.43-.02-.65-.13-1.17-.22-2.36-.26-3.53-.06-1.21-.09-2.3-.11-3.23v-1.87c0-.68,0-1.43,.03-2.18s.09-1.5,.17-2.24c.08-.73,.2-1.41,.37-2.03v-.06c.03-.17,.08-.35,.11-.56,.08-.34-.03-.56-.11-.68"/><path class="b" d="M254,149.17c-.3-.37-.56-.68-.8-.95-.08-.08-.17-.11-.26-.11-.06,0-.11,0-.17,.03-.11,.06-.22,.19-.2,.37,.06,.43,.24,1.87,.63,2.79,.5,1.22,1.3,2.34,2.4,3.34,1.41,1.3,2.75,2.43,4.72,3.22,1.95,.76,3.98,1.39,6.08,1.67,2.1,.26,4.25,.3,6.39,.11s4.18-.67,6.04-1.19c1.92-.56,3.77-1.27,5.54-2.1,1.75-.84,3.37-1.86,4.85-3.05,1.47-1.19,2.83-2.57,4.02-4.11,1.19-1.53,2.21-3.27,3.05-5.18,.8-1.86,1.21-3.71,1.22-5.5,0-1.67,.03-3.11-.68-4.96-.39-1-1.05-2.23-1.78-3.27-.62-.87-1.45-1.69-2.47-2.4s-2.27-1.3-3.68-1.78c-.17-.06-.31-.11-.48-.17-1.25-.43-2.41-.82-3.96-.93-1.97-.19-3.37-.2-4.87-.09-1.47,.11-2.99,.28-4.36,.48-1.65,.24-2.73,.37-4.11,.5-1.92,.19-4.27,.3-5.76-.41-1.11-.54-1.47-.78-1.78-2.29-.13-.63,.17-1.39,.87-2.3h.02s.17-.11,.24-.17c.31-.19,.59-.37,.95-.52,.46-.2,.96-.35,1.49-.48,.54-.13,1.05-.22,1.56-.28,.54-.06,.99-.11,1.39-.15,.31-.06,.57-.26,.68-.59,.06-.15,.11-.57,.11-.62v-.06h.08c.39-.11,.78-.2,1.13-.3,.5-.15,1-.31,1.49-.5,.48-.19,.95-.43,1.39-.68,.45-.26,.93-.62,1.39-1,.99-.78,1.78-1.56,2.38-2.3,.62-.78,1-1.54,1.17-2.27,.17-.78,.09-1.54-.26-2.27-.13-.28-.31-.57-.54-.85l-.11-.13h.17c.28,0,.56-.03,.87-.08,.37-.06,.76-.15,1.16-.31,.41-.19,.8-.41,1.17-.67s.71-.54,.99-.82c.3-.3,.54-.59,.73-.89,.19-.31,.31-.62,.37-.87,.11-.5,.09-.87-.08-1.16-.13-.22-.39-.46-.96-.5-.2-.02-.43-.02-.65,0-.26,.02-.52,.09-.8,.2-.26,.11-.5,.24-.68,.39-.2,.17-.39,.41-.5,.71v.03h-.03s-.13,.06-.2,.08c-.3,.08-.67,.11-1.05,.15-.41,.02-.84,.02-1.25,0-.43-.02-.76-.06-1.04-.09-.68-.09-1.27,0-1.71,.34-.24,.19-.5,.41-.76,.68l-.03,.03h-.06c-1.28-.35-2.6-.46-3.92-.34-1.45,.15-2.86,.5-4.16,1.1-1.3,.63-2.4,1.36-3.23,2.18-.85,.82-1.5,1.75-1.93,2.77-.39,.85-.56,1.76-.54,2.71s.26,1.84,.73,2.62c.46,.8,1.16,1.45,2.06,1.95,.24,.13,.5,.24,.8,.34l.19,.06-.17,.09c-.48,.26-.93,.57-1.32,.93-.41,.34-.76,.68-1.05,1.05l-.06,.06c-.22,.28-.45,.54-.57,.8l-.03,.03c-.22,.35-.37,.68-.46,.99-.43,1.34-.3,2.68,.41,3.94,.71,1.28,1.9,2.36,3.55,3.16,1.05,.5,2.08,.82,3.06,.95,1,.13,2.03,.17,3.05,.13s2.08-.13,3.14-.3c1.1-.15,2.27-.26,3.49-.31,1.27-.06,2.58-.03,3.94,.09,1.39,.13,2.92,.45,4.55,.95,1.71,.52,3.05,1.34,3.99,2.43,.87,1.02,1.82,2.27,2.12,3.92,.35,1.87,.39,4.87,.09,6.65-.28,1.64-1.13,3.01-1.9,4.24l-.09,.17c-.8,1.27-1.75,2.4-2.83,3.34s-2.34,1.76-3.76,2.41c-1.41,.65-3.05,1.17-4.85,1.54-1.73,.35-3.53,.59-5.41,.74-1.87,.15-3.74,.09-5.54-.19h-.09c-1.76-.28-3.77-.59-5.95-1.17-4.73-1.84-6.65-4.24-7.92-5.81m11.46-38.8c.15-.39,.35-.78,.63-1.19,.26-.37,.65-.71,1.13-.96,.48-.28,1-.48,1.56-.62,.54-.13,1.11-.2,1.67-.2h.09c.59,0,1.21,.09,1.78,.26s1.11,.41,1.6,.71c.45,.3,.78,.65,1.04,1.11,.28,.46,.45,.96,.52,1.47,.08,.52,.03,1-.11,1.47-.13,.45-.37,.84-.71,1.13-.56,.46-1.11,.8-1.67,1-.62,.22-1.28,.43-2.04,.62-.57,.15-1.11,.22-1.6,.22-.2,0-.39,0-.57-.03-.62-.09-1.16-.28-1.58-.56-.45-.28-.82-.65-1.13-1.1-.31-.46-.57-.96-.76-1.5-.03-.13-.09-.35-.08-.76,0-.34,.08-.71,.22-1.08"/><path class="b" d="M303.55,123.53c.3-.13,.59-.26,.89-.41,.31-.15,.62-.31,.87-.48,.28-.19,.48-.37,.62-.54,.13-.15,.2-.31,.22-.5,.02-.3-.13-.67-.68-.78h-.06s-.06,0-.15-.15c-.06-.09-.19-.37-.26-1.05-.09-.84-.15-1.71-.17-2.58s-.02-1.76,0-2.64c0-.87,.06-1.76,.09-2.62,.06-.91,.09-1.75,.13-2.57,.03-.91,.08-1.69,.11-2.3s.09-1.16,.15-1.62c.03-.39-.13-.71-.45-.85-.17-.08-.34-.11-.54-.11h-.11c-.57,.02-1.16,.11-1.73,.28-.56,.17-.96,.31-1.27,.45-.52,.2-.82,.65-.78,1.19v.06c.08,.46,.11,.95,.15,1.39,.03,.48,.09,.99,.13,1.53,.11,1.21,.2,2.34,.31,3.37,.09,.95,.15,1.78,.17,2.49,0,.68-.02,1.3-.09,1.81-.08,.48-.22,.91-.45,1.3-.22,.39-.56,.8-.96,1.16-.43,.39-1,.8-1.71,1.22-.62,.39-1.3,.67-2.04,.87-1.13,.3-2.36,.37-3.53,.2-.39-.06-.73-.15-1-.3-.26-.13-.48-.31-.65-.54-.15-.2-.24-.5-.28-.87,0-.19-.02-.45-.03-.8v-5.54c.03-1.32,.09-2.6,.19-3.85,.09-1.27,.2-2.57,.34-3.9,.02-.22,0-.45-.08-.68-.11-.43-.43-.68-.84-.68h-.13c-.35,.06-.73,.15-1.11,.26-.37,.11-.73,.24-1.05,.37-.34,.13-.62,.26-.84,.37-.24,.11-.39,.19-.5,.24-.41,.2-.5,.52-.52,.68,0,.19,0,.35,.09,.56,.08,.17,.13,.39,.17,.62,.03,.28,.03,.56,.03,.87,.03,.84,.06,1.69,.06,2.55s.02,1.71,.03,2.57v2.24c0,.65,.02,1.27,.06,1.84,.02,.56,.06,1.08,.09,1.54s.08,.93,.15,1.36c.11,.76,.39,1.41,.84,1.92,.43,.48,.95,.89,1.58,1.19,.62,.3,1.28,.5,2.03,.63,1.76,.28,3.65,.22,5.46-.22,1.1-.26,2.04-.63,2.86-1.1,.08-.03,.15-.08,.2-.11,.03-.02,.13-.09,.3-.19,.15-.09,.39-.24,.74-.46,.13-.09,.3-.19,.48-.3l.13-.08v.15c0,.31,.06,.65,.17,.96,.08,.2,.22,.41,.41,.57,.3,.28,.59,.34,.8,.34h.19c.22-.06,.5-.13,.84-.28"/><path class="b" d="M323.68,123.17c-.06,.17-.06,.37,0,.57,.03,.13,.22,.56,.85,.56,.15,0,.28,0,.41-.06,.17-.06,.41-.13,.71-.24s.62-.22,.95-.34l.95-.35c.31-.11,.56-.22,.73-.3,.31-.15,.52-.39,.57-.71,.03-.2,.02-.45-.03-.74-.06-.2-.11-.45-.17-.76-.06-.28-.09-.62-.11-1-.06-1.36-.09-2.62-.13-3.81-.03-1.21-.09-2.3-.17-3.29s-.17-1.87-.3-2.64c-.13-.8-.34-1.47-.57-2.01-.35-.74-.85-1.36-1.5-1.82-.63-.45-1.34-.8-2.1-1.04s-1.54-.41-2.38-.48c-.8-.08-1.58-.09-2.27-.06-.99,.08-1.9,.19-2.69,.39-.8,.19-1.53,.41-2.19,.65-.67,.24-1.28,.5-1.86,.78-.56,.28-1.08,.5-1.56,.73-.43,.19-.71,.37-.91,.57-.28,.28-.28,.56-.26,.71,.02,.13,.11,.39,.43,.54,.11,.06,.26,.13,.48,.2,.2,.08,.43,.15,.67,.22s.46,.15,.67,.2c.22,.08,.43,.13,.57,.15,.09,.02,.19,.03,.26,.03,.3,.03,.56,0,.8-.09,.17-.08,.35-.19,.56-.37,.8-.68,1.56-1.21,2.29-1.54,.67-.31,1.49-.46,2.43-.43,.99,.03,1.81,.17,2.43,.39,.59,.22,1.1,.52,1.45,.91,.37,.39,.63,.89,.82,1.5,.15,.5,.24,1.05,.31,1.69v.08h-.08c-.56,.09-1.13,.17-1.69,.22-.78,.08-1.58,.19-2.38,.3-.82,.11-1.65,.26-2.51,.46-.87,.2-1.78,.48-2.73,.85-1.28,.5-2.46,1.11-3.49,1.82-1.08,.73-1.87,1.54-2.38,2.4-.3,.52-.46,1.04-.48,1.58,0,.52,.09,1.02,.28,1.49s.48,.89,.85,1.27c.35,.37,.76,.67,1.19,.91,.74,.39,1.56,.67,2.43,.82,1.38,.22,2.86,.28,4.31,.13,.57-.06,1.1-.13,1.56-.2,1.02-.19,2.06-.41,3.08-.68,.62-.17,1.22-.35,1.82-.56l.15-.06-.03,.15c-.02,.11-.06,.2-.08,.3m-.62-2.97c-.45,.26-.95,.5-1.45,.71-.52,.2-1.05,.39-1.62,.52-.54,.15-1.08,.26-1.6,.34-.3,.03-.63,.08-.99,.08-.41,0-.84-.03-1.27-.09s-.82-.15-1.21-.26c-.37-.11-.73-.24-1.04-.39-.3-.13-.52-.28-.68-.45-.17-.15-.28-.34-.35-.57-.08-.3-.13-.63-.13-.99,0-.3,.03-.59,.11-.87,.08-.26,.2-.52,.39-.78s.45-.5,.8-.74c.35-.26,.8-.48,1.32-.71,.41-.17,.82-.31,1.21-.45,.39-.11,.8-.2,1.21-.28,.43-.08,.89-.13,1.36-.17,.5-.03,1.04-.08,1.6-.08s1.13,0,1.75,.03c.46,.02,.95,.08,1.49,.11h.08v4.31h-.02c-.28,.28-.62,.5-.96,.71"/></g></g></svg>