<?xml version="1.0" encoding="UTF-8"?><svg id="a" xmlns="http://www.w3.org/2000/svg" viewBox="0 0 434.06 70.88"><defs><style>.b{fill:#d02139;}</style></defs><rect class="b" x="100.5" y="13.36" width=".51" height="44.06"/><g><path d="M122.57,35.33c-.16,.32-.37,.6-.65,.82s-.6,.38-.96,.5c-.37,.12-.76,.16-1.18,.16h-1.25v2.26h-1.66v-7.52h3.07c.45,0,.86,.06,1.2,.19,.36,.13,.66,.3,.9,.53s.44,.5,.57,.82,.2,.67,.2,1.05v.02c0,.45-.09,.83-.24,1.16h0Zm-1.44-1.11c0-.37-.12-.66-.36-.85-.24-.2-.57-.29-.98-.29h-1.27v2.29h1.31c.42,0,.74-.1,.96-.32s.35-.49,.35-.81v-.02h0Z"/><path d="M138.68,39.09l-1.61-2.41h-1.3v2.41h-1.66v-7.52h3.44c.89,0,1.59,.22,2.09,.66,.5,.44,.74,1.04,.74,1.83v.02c0,.61-.15,1.1-.44,1.48-.3,.38-.68,.66-1.17,.85l1.83,2.69h-1.92Zm.02-5c0-.36-.12-.63-.35-.8s-.54-.27-.95-.27h-1.64v2.15h1.68c.41,0,.72-.09,.94-.29s.32-.45,.32-.78v-.02h0Z"/><path d="M152.04,39.09v-7.52h1.66v7.52h-1.66Z"/><path d="M170.93,39.09l-3.64-4.77v4.77h-1.63v-7.52h1.53l3.52,4.62v-4.62h1.63v7.52h-1.41Z"/><path d="M187.64,33.1v5.99h-1.66v-5.99h-2.28v-1.53h6.23v1.53h-2.29Z"/><path d="M220.3,35.33c-.16,.32-.37,.6-.65,.82s-.6,.38-.96,.5-.76,.16-1.18,.16h-1.25v2.26h-1.66v-7.52h3.07c.45,0,.86,.06,1.2,.19,.36,.13,.66,.3,.9,.53s.44,.5,.57,.82,.2,.67,.2,1.05v.02c0,.45-.08,.83-.24,1.16h0Zm-1.44-1.11c0-.37-.12-.66-.36-.85-.24-.2-.57-.29-.98-.29h-1.27v2.29h1.31c.42,0,.74-.1,.96-.32,.23-.22,.35-.49,.35-.81v-.02h-.01Z"/><path d="M239.21,36.84c-.2,.46-.47,.88-.83,1.24s-.78,.64-1.26,.83c-.49,.21-1.02,.3-1.6,.3s-1.11-.1-1.6-.3c-.49-.21-.9-.47-1.26-.82s-.63-.75-.82-1.23-.29-.97-.29-1.51v-.02c0-.53,.1-1.04,.3-1.51,.2-.46,.47-.88,.83-1.24s.78-.64,1.26-.83c.49-.21,1.02-.3,1.61-.3s1.11,.1,1.6,.3c.49,.21,.9,.47,1.26,.82s.63,.75,.82,1.23c.2,.47,.29,.97,.29,1.51v.02c0,.53-.1,1.03-.31,1.51h0Zm-1.42-1.52c0-.32-.06-.63-.16-.92s-.27-.53-.47-.75c-.21-.22-.44-.38-.73-.51s-.58-.19-.92-.19-.64,.06-.92,.19c-.28,.13-.51,.29-.71,.51s-.35,.46-.46,.74-.16,.58-.16,.9v.02c0,.32,.06,.63,.16,.92s.27,.53,.47,.75c.21,.21,.44,.38,.72,.51,.28,.13,.58,.19,.92,.19s.64-.06,.92-.19c.28-.12,.52-.29,.72-.51s.35-.46,.46-.74,.16-.59,.16-.9v-.02h0Z"/><path d="M255.63,39.09l-1.61-2.41h-1.3v2.41h-1.66v-7.52h3.44c.89,0,1.59,.22,2.09,.66,.5,.44,.74,1.04,.74,1.83v.02c0,.61-.15,1.1-.44,1.48-.3,.38-.68,.66-1.16,.85l1.83,2.69h-1.93Zm.03-5c0-.36-.12-.63-.35-.8s-.54-.27-.96-.27h-1.64v2.15h1.68c.41,0,.72-.09,.94-.29s.32-.45,.32-.78v-.02h.01Z"/><path d="M272.33,33.1v5.99h-1.66v-5.99h-2.28v-1.53h6.23v1.53h-2.29Z"/><path d="M291.57,39.09l-.68-1.69h-3.17l-.68,1.69h-1.69l3.22-7.56h1.53l3.22,7.56h-1.75Zm-2.28-5.58l-1,2.43h1.99l-1-2.43h.01Z"/><path d="M304.54,39.09v-7.52h1.66v6.02h3.74v1.49h-5.4Z"/></g><g><polygon points="9.85 53.94 13.53 53.94 13.53 55.1 11.35 55.1 11.35 56.64 13.44 56.64 13.44 57.8 11.35 57.8 11.35 60.58 9.85 60.58 9.85 53.94"/><rect x="14.13" y="53.94" width="1.56" height="6.64"/><g><path d="M18.07,56.77h.49c.6,0,.91-.4,.91-.88,0-.28-.09-.84-.92-.84h-.48v1.71m-1.5-2.83h2.43c1.09,0,2.03,.48,2.03,1.71,0,.28-.04,1.37-1.32,1.63v.02c.48,.06,.68,.32,.92,1.11l.68,2.17h-1.64l-.51-1.78c-.26-.9-.47-.9-1.04-.9v2.68h-1.56v-6.64Z"/><path d="M25.44,55.29c-.37-.19-.89-.34-1.31-.34-.5,0-.88,.23-.88,.72,0,1.21,2.61,.65,2.61,3,0,1.26-1,2.02-2.32,2.02-.81,0-1.5-.19-1.79-.28l.09-1.29c.47,.18,.88,.41,1.45,.41,.49,0,.97-.25,.97-.79,0-1.28-2.62-.66-2.62-3.02,0-.2,.08-1.89,2.3-1.89,.61,0,.99,.1,1.56,.23l-.07,1.24"/><polygon points="27.33 55.14 25.89 55.14 25.89 53.94 30.34 53.94 30.34 55.14 28.89 55.14 28.89 60.58 27.33 60.58 27.33 55.14"/><polygon points="32.83 53.94 36.51 53.94 36.51 55.1 34.33 55.1 34.33 56.64 36.42 56.64 36.42 57.8 34.33 57.8 34.33 60.58 32.83 60.58 32.83 53.94"/><path d="M39.74,59.57c.9,0,1.23-1.04,1.23-2.31s-.32-2.31-1.23-2.31-1.22,1.04-1.22,2.31,.31,2.31,1.22,2.31m0-5.74c1.91,0,2.82,1.48,2.82,3.43s-.91,3.43-2.82,3.43-2.81-1.48-2.81-3.43,.9-3.43,2.81-3.43"/><path d="M44.7,56.77h.48c.6,0,.91-.4,.91-.88,0-.28-.09-.84-.92-.84h-.48v1.71m-1.5-2.83h2.43c1.09,0,2.03,.48,2.03,1.71,0,.28-.04,1.37-1.32,1.63v.02c.48,.06,.68,.32,.92,1.11l.68,2.17h-1.64l-.51-1.78c-.26-.9-.47-.9-1.04-.9v2.68h-1.56v-6.64Z"/><polygon points="53.63 57.82 52.02 57.82 52.02 60.58 50.46 60.58 50.46 53.94 52.02 53.94 52.02 56.58 53.63 56.58 53.63 53.94 55.19 53.94 55.19 60.58 53.63 60.58 53.63 57.82"/><path d="M56,53.94h1.56v4.48c0,.67,.25,1.07,.88,1.07s.87-.41,.87-1.07v-4.48h1.56v4.23c0,1.65-.94,2.52-2.43,2.52s-2.43-.88-2.43-2.52v-4.23"/><polygon points="61.65 53.94 63.48 53.94 65.41 58.54 65.43 58.54 65.43 53.94 66.79 53.94 66.79 60.58 64.95 60.58 63.04 55.78 63.02 55.78 63.02 60.58 61.65 60.58 61.65 53.94"/><polygon points="68.71 55.14 67.26 55.14 67.26 53.94 71.71 53.94 71.71 55.14 70.26 55.14 70.26 60.58 68.71 60.58 68.71 55.14"/><polygon points="72.2 53.94 76.04 53.94 76.04 55.1 73.71 55.1 73.71 56.58 75.92 56.58 75.92 57.74 73.71 57.74 73.71 59.42 76.15 59.42 76.15 60.58 72.2 60.58 72.2 53.94"/><path d="M78.17,56.77h.48c.6,0,.91-.4,.91-.88,0-.28-.09-.84-.92-.84h-.48v1.71m-1.5-2.83h2.43c1.09,0,2.03,.48,2.03,1.71,0,.28-.04,1.37-1.32,1.63v.02c.48,.06,.68,.32,.92,1.11l.68,2.17h-1.64l-.51-1.78c-.26-.9-.47-.9-1.04-.9v2.68h-1.56v-6.64Z"/><path d="M85.44,55.29c-.37-.19-.89-.34-1.31-.34-.5,0-.88,.23-.88,.72,0,1.21,2.62,.65,2.62,3,0,1.26-1,2.02-2.32,2.02-.81,0-1.5-.19-1.79-.28l.09-1.29c.47,.18,.88,.41,1.45,.41,.49,0,.97-.25,.97-.79,0-1.28-2.61-.66-2.61-3.02,0-.2,.08-1.89,2.3-1.89,.61,0,.99,.1,1.56,.23l-.07,1.24"/><path class="b" d="M66.09,45.42v.04c0,2.68-2.63,4.84-5.88,4.84h-14.24c-3.25,0-5.88-2.17-5.88-4.84v-13.33c0-2.67,2.63-4.84,5.88-4.84h14.24c3.25,0,5.88,2.17,5.88,4.84v4.87h-10.14v-3.45h-4.38v10.47h4.38v-3.43h10.14v4.84"/><path class="b" d="M9.8,32.14c0-2.67,2.63-4.84,5.88-4.84h21.45v7.34h-10.51v-2.68h-5.4v2.97l16.46,2.91v7.62c0,2.67-2.63,4.84-5.88,4.84H9.8v-7.68h11.41v2.97h4.98v-3.55l-16.39-2.83v-7.06"/></g><g><polygon class="b" points="67.84 27.29 85.55 27.29 85.55 33.53 82.52 33.53 82.5 44.02 85.58 44.02 85.58 50.3 67.84 50.3 67.84 44.02 70.91 44.02 70.91 33.55 67.84 33.55 67.84 27.29"/><path class="b" d="M68.87,17.65c0-3.72,3.44-6.32,6.89-6.67,3.52-.36,7.54,1.47,8.56,5.08,1.02,3.57-1.58,6.84-4.88,7.9-3.47,1.11-7.79-.01-9.72-3.25-.55-.92-.86-1.98-.86-3.05m-1.19,0c0,3.59,2.78,6.48,6.09,7.48,3.52,1.06,7.66,.13,10.12-2.69,2.31-2.65,2.44-6.5,.26-9.27-2.31-2.93-6.39-4.02-9.94-3.12-3.49,.89-6.52,3.84-6.52,7.6"/><path class="b" d="M72.9,17.64c0-1.9,.41-4.02,1.64-5.52,.9-1.1,2.32-1.6,3.57-.73,1.45,1.01,2.08,2.99,2.31,4.66,.28,2.03,.07,4.27-.89,6.11-.8,1.56-2.5,2.93-4.22,1.73-1.88-1.31-2.41-4.12-2.41-6.25m-.59,0c0,1.93,.43,4,1.57,5.59,.82,1.15,2.17,2.05,3.63,1.6,1.55-.47,2.51-2.07,3.01-3.51,.7-1.97,.79-4.2,.33-6.24-.48-2.15-2.17-5.48-4.92-4.65-1.19,.36-2.04,1.42-2.58,2.49-.73,1.45-1.04,3.1-1.04,4.71"/></g><g><path class="b" d="M76.71,14.38c-1.32,0-2.65-.22-3.88-.7-.53-.21-1.05-.48-1.51-.82-.2-.14-.38-.3-.56-.47-.06,0-.23,.23-.28,.28,1.6,1.57,4.06,2.1,6.23,2.1s4.72-.55,6.3-2.18c-.09-.09-.18-.18-.27-.26,0,0-.49,.42-.56,.46-.45,.34-.96,.62-1.48,.83-1.26,.52-2.63,.75-3.99,.75"/><path class="b" d="M70.48,22.63c.09,.09,.18,.18,.27,.27,0,0,.51-.41,.57-.46,.46-.34,.98-.6,1.51-.82,1.27-.51,2.66-.72,4.02-.7,1.29,.02,2.6,.24,3.8,.73,.52,.21,1.02,.48,1.48,.81,.22,.16,.43,.34,.61,.54,.06,0,.24-.23,.29-.28-1.54-1.6-4.03-2.17-6.18-2.19-2.21-.03-4.74,.5-6.37,2.1"/><rect class="b" x="76.41" y="9.96" width=".59" height="15.26"/><path class="b" d="M68.27,17.45c0,.24-.1,.4,.14,.4h16.23c.1,0,.25,.05,.25-.06,0-.29,.08-.33-.17-.33h-16.45"/></g></g></svg>