<?xml version="1.0" encoding="UTF-8"?><svg id="a" xmlns="http://www.w3.org/2000/svg" xmlns:xlink="http://www.w3.org/1999/xlink" viewBox="0 0 780 250"><defs><style>.e{fill:#fff;}.f{fill:#d02139;}.g{clip-path:url(#b);}.h{clip-path:url(#c);}.i{clip-path:url(#d);}.j{fill:none;}</style><clipPath id="b"><rect class="j" x="58.65" y="38.25" width="261.37" height="175.08"/></clipPath><clipPath id="c"><rect class="j" x="58.65" y="38.25" width="260.68" height="174.62"/></clipPath><clipPath id="d"><rect class="j" x="58.65" y="38.25" width="261.37" height="175.08"/></clipPath></defs><rect width="780" height="250"/><g><rect class="f" x="371.08" y="68.9" width="2.57" height="136.2"/><path class="f" d="M373.15,69.4V204.6h-1.57V69.4h1.57m1-1h-3.57V205.6h3.57V68.4h0Z"/></g><g><g><path class="e" d="M486.29,109.5c-.65,1.36-1.55,2.5-2.69,3.42s-2.47,1.61-4,2.06c-1.52,.46-3.16,.69-4.9,.69h-5.19v9.32h-6.84v-31.07h12.7c1.86,0,3.53,.26,4.99,.78s2.71,1.25,3.73,2.2c1.02,.95,1.8,2.08,2.35,3.4,.55,1.32,.82,2.77,.82,4.37v.09c0,1.8-.32,3.38-.97,4.74h0Zm-5.95-4.7c0-1.54-.5-2.71-1.49-3.51s-2.35-1.2-4.06-1.2h-5.28v9.5h5.42c1.72,0,3.05-.45,4-1.35s1.42-2.02,1.42-3.35v-.09h-.01Z"/><path class="e" d="M533.39,125l-6.66-9.94h-5.37v9.94h-6.84v-31.08h14.21c3.7,0,6.58,.9,8.64,2.71s3.08,4.32,3.08,7.55v.09c0,2.52-.61,4.57-1.84,6.15-1.23,1.58-2.83,2.75-4.82,3.48l7.59,11.1h-7.99Zm.13-20.47c0-1.48-.47-2.59-1.42-3.33s-2.26-1.11-3.95-1.11h-6.79v8.92h6.92c1.69,0,2.98-.4,3.88-1.2,.9-.8,1.35-1.86,1.35-3.2v-.08h.01Z"/><path class="e" d="M569.12,125v-31.08h6.84v31.07h-6.84Z"/><path class="e" d="M627.72,125l-15.05-19.75v19.75h-6.75v-31.08h6.3l14.56,19.13v-19.13h6.75v31.07h-5.81Z"/><path class="e" d="M677.26,100.23v24.77h-6.84v-24.77h-9.46v-6.3h25.75v6.3h-9.45Z"/></g><g><path class="e" d="M450.04,164.43c-.65,1.36-1.55,2.5-2.69,3.42s-2.47,1.61-3.99,2.06c-1.52,.46-3.16,.69-4.91,.69h-5.19v9.32h-6.84v-31.07h12.7c1.86,0,3.53,.26,4.99,.78s2.71,1.25,3.73,2.2c1.02,.95,1.81,2.08,2.35,3.4,.55,1.32,.82,2.78,.82,4.37v.09c0,1.8-.32,3.38-.97,4.74h0Zm-5.95-4.7c0-1.54-.5-2.71-1.49-3.51-.99-.8-2.35-1.2-4.06-1.2h-5.28v9.5h5.42c1.72,0,3.05-.45,4-1.35,.95-.9,1.42-2.02,1.42-3.35v-.09h-.01Z"/><path class="e" d="M508.68,170.63c-.83,1.94-1.97,3.64-3.44,5.11-1.47,1.46-3.21,2.62-5.24,3.46-2.03,.84-4.24,1.26-6.64,1.26s-4.6-.42-6.61-1.26c-2.01-.84-3.75-1.98-5.22-3.42-1.46-1.44-2.61-3.12-3.42-5.06-.81-1.94-1.22-4.02-1.22-6.24v-.09c0-2.22,.42-4.3,1.24-6.24,.83-1.94,1.97-3.64,3.44-5.1,1.46-1.46,3.21-2.62,5.24-3.46,2.03-.84,4.24-1.27,6.64-1.27s4.6,.42,6.61,1.27c2.01,.84,3.75,1.98,5.22,3.42s2.6,3.12,3.42,5.06c.81,1.94,1.22,4.02,1.22,6.24v.09c.01,2.21-.41,4.29-1.24,6.23h0Zm-5.9-6.24c0-1.33-.23-2.59-.69-3.77-.46-1.18-1.11-2.22-1.95-3.11s-1.84-1.59-3-2.11c-1.15-.52-2.41-.78-3.77-.78s-2.66,.25-3.79,.75c-1.14,.5-2.12,1.2-2.93,2.09s-1.45,1.92-1.91,3.09-.69,2.42-.69,3.75v.09c0,1.33,.23,2.59,.69,3.77,.46,1.18,1.11,2.22,1.95,3.11s1.83,1.59,2.97,2.11,2.4,.78,3.8,.78,2.62-.25,3.77-.75,2.14-1.2,2.95-2.09,1.45-1.92,1.91-3.09c.46-1.17,.69-2.42,.69-3.75v-.09h0Z"/><path class="e" d="M557.07,179.93l-6.66-9.94h-5.37v9.94h-6.84v-31.07h14.21c3.7,0,6.58,.9,8.63,2.71,2.06,1.81,3.09,4.32,3.09,7.55v.07c0,2.52-.61,4.57-1.84,6.15-1.23,1.58-2.83,2.75-4.82,3.48l7.59,11.1h-7.99Zm.14-20.44c0-1.48-.47-2.59-1.42-3.33s-2.26-1.11-3.95-1.11h-6.79v8.92h6.92c1.69,0,2.98-.4,3.89-1.2,.9-.8,1.35-1.86,1.35-3.2v-.08Z"/><path class="e" d="M606.57,155.15v24.77h-6.84v-24.77h-9.45v-6.3h25.75v6.3h-9.46Z"/><path class="e" d="M666.59,179.93l-2.84-6.97h-13.14l-2.84,6.97h-6.97l13.32-31.3h6.3l13.32,31.3h-7.15Zm-9.41-23.09l-4.13,10.08h8.26l-4.13-10.08Z"/><path class="e" d="M700.73,179.93v-31.07h6.84v24.9h15.49v6.17h-22.33Z"/></g></g><g><polygon class="e" points="58.81 189.73 71.42 189.73 71.42 193.7 63.96 193.7 63.96 198.98 71.13 198.98 71.13 202.96 63.96 202.96 63.96 212.47 58.81 212.47 58.81 189.73"/><rect class="e" x="73.51" y="189.73" width="5.35" height="22.75"/><g class="g"><path class="e" d="M87,199.44h1.66c2.05,0,3.13-1.37,3.13-3,0-.95-.3-2.87-3.16-2.87h-1.63v5.87m-5.15-9.71h8.34c3.75,0,6.94,1.66,6.94,5.87,0,.94-.13,4.69-4.53,5.57v.07c1.66,.19,2.31,1.11,3.16,3.81l2.35,7.43h-5.61l-1.76-6.09c-.88-3.1-1.6-3.1-3.55-3.1v9.19h-5.35v-22.75Z"/><path class="e" d="M112.26,194.36c-1.27-.65-3.06-1.17-4.5-1.17-1.73,0-3.03,.78-3.03,2.48,0,4.14,8.96,2.22,8.96,10.3,0,4.3-3.42,6.91-7.95,6.91-2.77,0-5.15-.65-6.13-.95l.29-4.43c1.6,.62,3,1.4,4.99,1.4,1.7,0,3.32-.85,3.32-2.7,0-4.4-8.96-2.25-8.96-10.36,0-.69,.26-6.48,7.89-6.48,2.09,0,3.39,.36,5.35,.78l-.23,4.24"/><polygon class="e" points="118.74 193.83 113.79 193.83 113.79 189.73 129.04 189.73 129.04 193.83 124.09 193.83 124.09 212.47 118.74 212.47 118.74 193.83"/><polygon class="e" points="137.58 189.73 150.19 189.73 150.19 193.7 142.73 193.7 142.73 198.98 149.9 198.98 149.9 202.96 142.73 202.96 142.73 212.47 137.58 212.47 137.58 189.73"/><path class="e" d="M161.27,209.02c3.1,0,4.2-3.55,4.2-7.92s-1.11-7.92-4.2-7.92-4.17,3.55-4.17,7.92,1.07,7.92,4.17,7.92m0-19.68c6.55,0,9.68,5.08,9.68,11.77s-3.13,11.76-9.68,11.76-9.65-5.08-9.65-11.76,3.09-11.77,9.65-11.77"/><path class="e" d="M178.28,199.44h1.66c2.05,0,3.13-1.37,3.13-3,0-.95-.3-2.87-3.16-2.87h-1.63v5.87m-5.15-9.71h8.34c3.75,0,6.94,1.66,6.94,5.87,0,.94-.13,4.69-4.53,5.57v.07c1.66,.19,2.31,1.11,3.16,3.81l2.35,7.43h-5.61l-1.76-6.09c-.88-3.1-1.6-3.1-3.55-3.1v9.19h-5.35v-22.75Z"/><polygon class="e" points="208.88 203.03 203.34 203.03 203.34 212.48 198 212.48 198 189.73 203.34 189.73 203.34 198.79 208.88 198.79 208.88 189.73 214.23 189.73 214.23 212.48 208.88 212.48 208.88 203.03"/><path class="e" d="M217,189.73h5.35v15.35c0,2.28,.85,3.68,3,3.68s3-1.4,3-3.68v-15.35h5.35v14.5c0,5.64-3.23,8.64-8.34,8.64s-8.34-3-8.34-8.64v-14.5"/><polygon class="e" points="236.35 189.73 242.61 189.73 249.23 205.5 249.3 205.5 249.3 189.73 253.99 189.73 253.99 212.47 247.66 212.47 241.11 196.02 241.05 196.02 241.05 212.47 236.35 212.47 236.35 189.73"/><polygon class="e" points="260.54 193.83 255.58 193.83 255.58 189.73 270.84 189.73 270.84 193.83 265.88 193.83 265.88 212.47 260.54 212.47 260.54 193.83"/><polygon class="e" points="272.53 189.73 285.66 189.73 285.66 193.7 277.68 193.7 277.68 198.79 285.27 198.79 285.27 202.77 277.68 202.77 277.68 208.5 286.06 208.5 286.06 212.47 272.53 212.47 272.53 189.73"/><path class="e" d="M292.96,199.44h1.66c2.05,0,3.13-1.37,3.13-3,0-.95-.29-2.87-3.16-2.87h-1.63v5.87m-5.15-9.71h8.34c3.75,0,6.94,1.66,6.94,5.87,0,.94-.13,4.69-4.53,5.57v.07c1.66,.19,2.31,1.11,3.16,3.81l2.35,7.43h-5.61l-1.76-6.09c-.88-3.1-1.6-3.1-3.55-3.1v9.19h-5.34v-22.75Z"/><path class="e" d="M317.89,194.36c-1.27-.65-3.06-1.17-4.5-1.17-1.73,0-3.03,.78-3.03,2.48,0,4.14,8.96,2.22,8.96,10.3,0,4.3-3.42,6.91-7.95,6.91-2.77,0-5.15-.65-6.13-.95l.29-4.43c1.6,.62,3,1.4,4.99,1.4,1.7,0,3.32-.85,3.32-2.7,0-4.4-8.96-2.25-8.96-10.36,0-.69,.26-6.48,7.88-6.48,2.09,0,3.39,.36,5.35,.78l-.23,4.24"/><path class="f" d="M251.56,160.53v.14c0,9.17-9.02,16.6-20.15,16.6h-48.8c-11.13,0-20.16-7.43-20.16-16.6v-45.68c0-9.17,9.02-16.6,20.16-16.6h48.8c11.13,0,20.15,7.43,20.15,16.6v16.68h-34.75v-11.84h-15.01v35.88h15.01v-11.77h34.76v16.58"/><path class="f" d="M58.65,115.03c0-9.17,9.02-16.6,20.16-16.6h73.5v25.14h-36.03v-9.17h-18.51v10.18l56.4,9.98v26.1c0,9.17-9.03,16.6-20.16,16.6H58.67v-26.33h39.09v10.17h17.08v-12.16l-56.17-9.71-.02-24.2"/></g><g class="h"><polygon class="f" points="257.57 98.38 318.27 98.38 318.27 119.77 307.87 119.77 307.83 155.71 318.36 155.71 318.36 177.26 257.57 177.26 257.57 155.71 268.1 155.71 268.1 119.83 257.57 119.83 257.57 98.38"/><path class="f" d="M261.1,65.34c0-12.75,11.79-21.65,23.63-22.87,12.07-1.25,25.83,5.03,29.35,17.41,3.48,12.22-5.43,23.44-16.74,27.06-11.88,3.8-26.68-.04-33.31-11.14-1.88-3.15-2.93-6.78-2.93-10.46m-4.07,0c0,12.32,9.54,22.21,20.88,25.64,12.07,3.65,26.25,.44,34.67-9.21,7.91-9.08,8.35-22.29,.88-31.78-7.9-10.04-21.92-13.78-34.08-10.69-11.98,3.03-22.36,13.15-22.36,26.05"/><path class="f" d="M274.91,65.32c0-6.5,1.42-13.77,5.64-18.93,3.1-3.78,7.94-5.47,12.22-2.49,4.98,3.47,7.11,10.25,7.9,15.96,.97,6.97,.23,14.63-3.03,20.94-2.76,5.35-8.58,10.02-14.45,5.94-6.44-4.49-8.27-14.13-8.27-21.42m-2.04,0c0,6.62,1.47,13.69,5.38,19.16,2.83,3.96,7.42,7.01,12.44,5.5,5.31-1.61,8.59-7.1,10.32-12.02,2.39-6.77,2.69-14.39,1.12-21.38-1.66-7.37-7.45-18.77-16.87-15.92-4.07,1.23-6.98,4.87-8.83,8.52-2.52,4.95-3.56,10.62-3.56,16.14"/></g><g class="i"><path class="f" d="M287.97,54.14c-4.52,0-9.09-.74-13.29-2.41-1.82-.72-3.59-1.63-5.18-2.79-.67-.49-1.32-1.02-1.91-1.61-.22,0-.79,.8-.95,.97,5.47,5.38,13.91,7.2,21.34,7.2s16.19-1.9,21.6-7.46c-.31-.3-.62-.61-.93-.91-.03-.03-1.69,1.43-1.91,1.59-1.55,1.18-3.29,2.11-5.08,2.85-4.31,1.79-9.03,2.56-13.68,2.56"/><path class="f" d="M266.63,82.42c.31,.31,.61,.62,.91,.93,.03,.03,1.73-1.41,1.95-1.57,1.59-1.16,3.36-2.07,5.18-2.79,4.35-1.73,9.1-2.47,13.77-2.41,4.43,.05,8.92,.81,13.04,2.49,1.78,.73,3.5,1.63,5.06,2.78,.75,.55,1.46,1.16,2.1,1.83,.22,0,.81-.78,.98-.94-5.29-5.5-13.82-7.43-21.18-7.52-7.57-.09-16.24,1.71-21.82,7.2"/><rect class="f" x="286.95" y="38.99" width="2.04" height="52.3"/><path class="f" d="M259.06,64.66c0,.83-.35,1.36,.48,1.36h55.63c.33,0,.87,.17,.87-.21,0-.98,.26-1.15-.6-1.15h-56.38"/></g></g></svg>