<?xml version="1.0" encoding="UTF-8"?><svg id="a" xmlns="http://www.w3.org/2000/svg" xmlns:xlink="http://www.w3.org/1999/xlink" viewBox="0 0 434.06 70.88"><defs><style>.ay{fill:url(#t);}.b`{clip-path:url(#ac);}.ba{fill:#fff;}.bb{fill:url(#ap);}.bc{fill:url(#r);}.bd{mask:url(#b);}.be{clip-path:url(#ak);}.bf{fill:url(#l);}.bg{clip-path:url(#au);}.bh{fill:url(#af);}.bi{fill:url(#c);}.bj{fill:url(#ah);}.bk{fill:url(#v);}.bl{clip-path:url(#as);}.bm{clip-path:url(#ag);}.bn{fill:url(#av);}.bo{fill:url(#a`);}.bp{clip-path:url(#aa);}.bq{fill:url(#f);}.br{clip-path:url(#u);}.bs{clip-path:url(#o);}.bt{fill:url(#p);}.bu{clip-path:url(#aw);}.bv{clip-path:url(#m);}.bw{fill:url(#ad);}.bx{fill:url(#ab);}.by{clip-path:url(#ae);}.c`{clip-path:url(#d);}.ca{clip-path:url(#w);}.cb{clip-path:url(#ai);}.cc{fill:url(#aj);}.cd{fill:url(#ar);}.ce{fill:url(#h);}.cf{fill:none;}.cg{fill:url(#x);}.ch{clip-path:url(#ao);}.ci{fill:url(#at);}.cj{fill:url(#n);}.ck{fill:#50b748;}.cl{clip-path:url(#q);}.cm{clip-path:url(#y);}.cn{fill:url(#al);}.co{fill:url(#j);}.cp{fill:url(#an);}.cq{clip-path:url(#s);}.cr{fill:url(#ax);}.cs{clip-path:url(#aq);}.ct{clip-path:url(#i);}.cu{clip-path:url(#k);}.cv{clip-path:url(#g);}.cw{clip-path:url(#am);}</style><mask id="b" x="181.52" y="29.65" width="194.8" height="11.08" maskUnits="userSpaceOnUse"><g><path class="ba" d="M187.78,35.33c-.16,.32-.37,.6-.65,.82s-.6,.38-.96,.5c-.37,.12-.76,.16-1.18,.16h-1.25v2.26h-1.66v-7.52h3.07c.45,0,.86,.06,1.2,.19,.36,.13,.66,.3,.9,.53s.44,.5,.57,.82,.2,.67,.2,1.05v.02c0,.45-.09,.83-.24,1.16h0Zm-1.44-1.13c0-.37-.12-.66-.36-.85-.24-.2-.57-.29-.98-.29h-1.27v2.29h1.31c.42,0,.74-.1,.96-.32s.35-.49,.35-.81v-.02h-.01Z"/><path class="ba" d="M203.89,39.09l-1.61-2.41h-1.3v2.41h-1.66v-7.52h3.44c.89,0,1.59,.22,2.09,.66,.5,.44,.74,1.04,.74,1.83v.02c0,.61-.15,1.1-.44,1.48-.3,.38-.68,.66-1.17,.85l1.83,2.69h-1.92Zm.02-4.98c0-.36-.12-.63-.35-.8s-.54-.27-.95-.27h-1.64v2.15h1.68c.41,0,.72-.09,.94-.29s.32-.45,.32-.78v-.02h0Z"/><path class="ba" d="M217.25,39.09v-7.52h1.66v7.52h-1.66Z"/><path class="ba" d="M236.14,39.09l-3.64-4.77v4.77h-1.63v-7.52h1.53l3.52,4.62v-4.62h1.63v7.52h-1.41Z"/><path class="ba" d="M252.85,33.1v5.99h-1.66v-5.99h-2.28v-1.53h6.23v1.53h-2.29Z"/><path class="ba" d="M285.51,35.33c-.16,.32-.37,.6-.65,.82s-.6,.38-.96,.5-.76,.16-1.18,.16h-1.25v2.26h-1.66v-7.52h3.07c.45,0,.86,.06,1.2,.19,.36,.13,.66,.3,.9,.53s.44,.5,.57,.82,.2,.67,.2,1.05v.02c0,.45-.08,.83-.24,1.16h0Zm-1.44-1.13c0-.37-.12-.66-.36-.85-.24-.2-.57-.29-.98-.29h-1.27v2.29h1.31c.42,0,.74-.1,.96-.32,.23-.22,.35-.49,.35-.81v-.02h-.01Z"/><path class="ba" d="M304.42,36.84c-.2,.46-.47,.88-.83,1.24s-.78,.64-1.26,.83c-.49,.21-1.02,.3-1.6,.3s-1.11-.1-1.6-.3c-.49-.21-.9-.47-1.26-.82s-.63-.75-.82-1.23-.29-.97-.29-1.51v-.02c0-.53,.1-1.04,.3-1.51,.2-.46,.47-.88,.83-1.24s.78-.64,1.26-.83c.49-.21,1.02-.3,1.61-.3s1.11,.1,1.6,.3c.49,.21,.9,.47,1.26,.82s.63,.75,.82,1.23c.2,.47,.29,.97,.29,1.51v.02c0,.53-.1,1.03-.31,1.51h0Zm-1.42-1.52c0-.32-.06-.63-.16-.92s-.27-.53-.47-.75c-.21-.22-.44-.38-.73-.51s-.58-.19-.92-.19-.64,.06-.92,.19c-.28,.13-.51,.29-.71,.51s-.35,.46-.46,.74-.16,.58-.16,.9v.02c0,.32,.06,.63,.16,.92s.27,.53,.47,.75c.21,.21,.44,.38,.72,.51,.28,.13,.58,.19,.92,.19s.64-.06,.92-.19c.28-.12,.52-.29,.72-.51s.35-.46,.46-.74,.16-.59,.16-.9v-.02h0Z"/><path class="ba" d="M320.84,39.09l-1.61-2.41h-1.3v2.41h-1.66v-7.52h3.44c.89,0,1.59,.22,2.09,.66,.5,.44,.74,1.04,.74,1.83v.02c0,.61-.15,1.1-.44,1.48-.3,.38-.68,.66-1.16,.85l1.83,2.69h-1.93Zm.03-4.98c0-.36-.12-.63-.35-.8s-.54-.27-.96-.27h-1.64v2.15h1.68c.41,0,.72-.09,.94-.29s.32-.45,.32-.78v-.02h.01Z"/><path class="ba" d="M337.54,33.1v5.99h-1.66v-5.99h-2.28v-1.53h6.23v1.53h-2.29Z"/><path class="ba" d="M356.78,39.09l-.68-1.69h-3.17l-.68,1.69h-1.69l3.22-7.56h1.53l3.22,7.56h-1.75Zm-2.28-5.58l-1,2.43h1.99l-1-2.43h.01Z"/><path class="ba" d="M369.75,39.09v-7.52h1.66v6.02h3.74v1.49h-5.4Z"/></g></mask><linearGradient id="c" x1="181.52" y1="35.19" x2="376.32" y2="35.19" gradientTransform="matrix(1, 0, 0, 1, 0, 0)" gradientUnits="userSpaceOnUse"><stop offset="0" stop-color="#008ec6"/><stop offset="1" stop-color="#006cb6"/></linearGradient><clipPath id="e"><path class="cf" d="M54.62,44.35c.13-.36,.26-.73,.35-1.14h.02c.05,.41,.17,.8,.29,1.14l.56,1.63h-1.83l.6-1.63Zm-.4-2.35l-2.75,6.69h-.63v1.14h2.91v-1.14h-.75l.56-1.5h2.69l.51,1.5h-.64v1.14h3.11v-1.14h-.63l-2.58-6.69h-1.8Z"/></clipPath><linearGradient id="f" x1="82.47" y1="117.1" x2="83.63" y2="117.1" gradientTransform="translate(-7023.83 -9999.48) scale(85.78)" gradientUnits="userSpaceOnUse"><stop offset="0" stop-color="#97ca4e"/><stop offset="1" stop-color="#42a655"/></linearGradient><clipPath id="g"><path class="cf" d="M70.01,43.14h.74c1,0,1.37,.38,1.37,1.14s-.4,1.14-1.27,1.14h-.84v-2.28Zm-2.4-1.14v1.14h.77v5.55h-.7v1.14h3.04v-1.14h-.71v-2.06h.38c.29,0,.49,.14,.65,.39l.95,1.63c.6,1.03,.89,1.17,1.31,1.17h1.25v-1.14h-.29c-.21,0-.4-.09-.64-.49l-.7-1.17c-.39-.65-.61-.79-1-.83v-.02c.87-.03,1.84-.86,1.84-2.02,0-.79-.34-1.51-1.05-1.86-.45-.22-.73-.29-1.65-.29h-3.46Z"/></clipPath><linearGradient id="h" y1="117.1" x2="83.63" y2="117.1" gradientTransform="translate(-7023.83 -9999.48) scale(85.78)" xlink:href="#f"/><clipPath id="i"><polygon class="cf" points="82.88 42 82.88 43.14 83.58 43.14 83.58 48.69 82.88 48.69 82.88 49.82 85.92 49.82 85.92 48.69 85.21 48.69 85.21 43.14 85.92 43.14 85.92 42 82.88 42"/></clipPath><linearGradient id="j" x1="82.47" y1="117.1" x2="83.63" y2="117.1" gradientTransform="translate(-7023.83 -9999.48) scale(85.78)" xlink:href="#f"/><clipPath id="k"><path class="cf" d="M94.84,42l-.07,2.18h1.41l.07-1.04h2.69v.02c-.17,.11-.35,.29-.54,.54l-3.93,5.04v1.08h6.33l.09-2.18h-1.42l-.06,1.04h-2.97v-.03c.18-.11,.35-.29,.54-.53l3.84-4.99v-1.14h-5.98Z"/></clipPath><linearGradient id="l" x1="82.47" y1="117.1" x2="83.63" y2="117.1" gradientTransform="translate(-7023.83 -9999.48) scale(85.78)" xlink:href="#f"/><clipPath id="m"><path class="cf" d="M111.07,45.91c0-1.51,.63-2.77,2.1-2.77s2.1,1.26,2.1,2.77-.56,2.78-2.1,2.78-2.1-1.27-2.1-2.78m-1.76,0c0,2.2,1.13,4.05,3.87,4.05s3.87-1.84,3.87-4.05-1.21-4.05-3.87-4.05c-2.47,0-3.87,1.91-3.87,4.05"/></clipPath><linearGradient id="n" x1="82.47" y1="117.1" x2="83.63" y2="117.1" gradientTransform="translate(-7023.83 -9999.48) scale(85.78)" xlink:href="#f"/><clipPath id="o"><path class="cf" d="M130.75,42v1.14h.72v4.06h-.02c-.1-.3-.31-.61-.66-1.05l-3.3-4.15h-2.27v1.14h.99v5.55h-.73v1.14h2.77v-1.14h-.76v-4.14h.02c.02,.11,.18,.37,.37,.6l3.73,4.67h1.21v-6.69h.77v-1.14h-2.83Z"/></clipPath><linearGradient id="p" x1="82.47" y1="117.1" x2="83.63" y2="117.1" gradientTransform="translate(-7023.83 -9999.48) scale(85.78)" xlink:href="#f"/><clipPath id="q"><path class="cf" d="M145.37,44.35c.13-.36,.26-.73,.35-1.14h.02c.06,.41,.17,.8,.29,1.14l.56,1.63h-1.82l.6-1.63Zm-.4-2.35l-2.75,6.69h-.62v1.14h2.91v-1.14h-.75l.56-1.5h2.7l.5,1.5h-.64v1.14h3.11v-1.14h-.62l-2.58-6.69h-1.8Z"/></clipPath><linearGradient id="r" y1="117.1" x2="83.63" y2="117.1" gradientTransform="translate(-7023.83 -9999.48) scale(85.78)" xlink:href="#f"/><clipPath id="s"><path class="cf" d="M49.89,27.53c0,2.05,.93,3.12,3.66,3.82l1.46,.38c1.79,.46,2.17,.95,2.17,1.63,0,1.01-.72,1.79-2.35,1.79-.78,0-1.54-.06-2.24-.34v-1.75h-2.77v3.51c1.78,.59,3.3,.74,4.76,.74,3.78,0,5.49-1.84,5.49-4.37,0-2.75-2.17-3.4-4.12-3.89l-1.6-.4c-.87-.21-1.57-.49-1.57-1.46,0-.74,.59-1.69,2.43-1.69,.65,0,1.29,.15,1.78,.32v1.61h2.51v-3.17c-1.14-.44-2.76-.7-4.37-.7-3.76,0-5.24,1.86-5.24,3.97"/></clipPath><linearGradient id="t" x1="82.49" y1="116.43" x2="83.65" y2="116.43" gradientTransform="translate(-5087.3 -7202.54) scale(62.12)" gradientUnits="userSpaceOnUse"><stop offset="0" stop-color="#008ec6"/><stop offset="1" stop-color="#006cb6"/></linearGradient><clipPath id="u"><path class="cf" d="M60.7,27.15v1.94h1.29v6.06h-1.08v1.94h4.88v-1.94h-1.14v-8h-3.95Zm.74-3.3c0,.99,.68,1.65,1.78,1.65s1.78-.66,1.78-1.65-.68-1.65-1.78-1.65-1.78,.66-1.78,1.65"/></clipPath><linearGradient id="v" x1="82.49" y1="116.45" x2="83.65" y2="116.45" gradientTransform="translate(-5084.01 -7204.24) scale(62.12)" xlink:href="#t"/><clipPath id="w"><path class="cf" d="M70.82,28.75c1.24,0,2.02,.78,2.02,2.15h-4.05c.11-1.35,.82-2.15,2.03-2.15m-4.9,3.42c0,2.75,1.61,5.15,5.45,5.15,1.35,0,2.43-.17,3.67-.63l.13-2.11c-1.12,.48-1.94,.69-3.21,.69-1.86,0-3.08-.97-3.15-2.55h6.91c0-3.21-1.39-5.79-4.81-5.79-3.11,0-4.99,2.15-4.99,5.24"/></clipPath><linearGradient id="x" x1="82.49" y1="116.47" x2="83.65" y2="116.47" gradientTransform="translate(-5078.28 -7202.81) scale(62.12)" xlink:href="#t"/><clipPath id="y"><path class="cf" d="M79.9,29.43h-.04c.13-.93,.17-1.59,.17-2.28h-3.86v1.94h1.29v6.06h-1.08v1.94h5v-1.94h-1.25v-3.21c0-1.63,1.02-2.62,2.47-2.62,.26,0,.57,.04,.85,.09l.17-2.37c-.28-.06-.55-.11-.87-.11-1.52,0-2.45,.84-2.85,2.51"/></clipPath><linearGradient id="a`" x1="82.49" y1="116.48" x2="83.65" y2="116.48" gradientTransform="translate(-5074.04 -7203.97) scale(62.12)" xlink:href="#t"/><clipPath id="aa"><path class="cf" d="M87.99,29.43h-.04c.13-.93,.17-1.59,.17-2.28h-3.85v1.94h1.29v6.06h-1.08v1.94h5v-1.94h-1.26v-3.21c0-1.63,1.03-2.62,2.47-2.62,.27,0,.57,.04,.86,.09l.17-2.37c-.28-.06-.55-.11-.87-.11-1.52,0-2.45,.84-2.85,2.51"/></clipPath><linearGradient id="ab" x1="82.49" y1="116.5" x2="83.65" y2="116.5" gradientTransform="translate(-5070.17 -7204.91) scale(62.12)" xlink:href="#t"/><clipPath id="ac"><path class="cf" d="M94.76,34.18c0-.85,.68-1.31,2.85-1.31h.74c0,1.82-1.06,2.51-2.13,2.51s-1.46-.61-1.46-1.2m-2.18-6.23v2.52h2.28v-1.33c.45-.17,1.27-.29,1.65-.29,1.26,0,1.88,.4,1.88,1.9v.47c-1.94,0-3.29,.09-4.29,.46-1.05,.38-1.99,1.31-1.99,2.73,0,1.56,1.08,2.89,3.32,2.89,1.67,0,2.58-.7,3.25-2.2h.04c-.1,.38-.13,.72-.13,1.37v.61h3.34v-1.94h-1.12c.04-1.41,.09-2.77,.09-4.41,0-2.89-1.69-3.82-4.35-3.82-1.77,0-3.32,.67-3.97,1.03"/></clipPath><linearGradient id="ad" x1="82.49" y1="116.51" x2="83.65" y2="116.51" gradientTransform="translate(-5065.77 -7205.85) scale(62.12)" xlink:href="#t"/><clipPath id="ae"><path class="cf" d="M118.76,23.79h-5.17v1.94h1.37l-2.6,7.6c-.17,.49-.32,1.04-.4,1.59h-.04c-.08-.55-.23-1.1-.4-1.59l-2.6-7.6h1.12v-1.94h-5.39v1.94h1.06l4.47,11.36h3.09l4.47-11.36h1.02v-1.93h0Z"/></clipPath><linearGradient id="af" x1="82.49" y1="116.54" x2="83.65" y2="116.54" gradientTransform="translate(-5060.18 -7209.11) scale(62.12)" xlink:href="#t"/><clipPath id="ag"><path class="cf" d="M118.75,27.15v1.94h1.29v6.06h-1.08v1.94h4.88v-1.94h-1.14v-8h-3.95Zm.74-3.3c0,.99,.69,1.65,1.79,1.65s1.78-.66,1.78-1.65-.69-1.65-1.78-1.65-1.79,.66-1.79,1.65"/></clipPath><linearGradient id="ah" x1="82.49" y1="116.56" x2="83.65" y2="116.56" gradientTransform="translate(-5056.28 -7210.96) scale(62.12)" xlink:href="#t"/><clipPath id="ai"><path class="cf" d="M124.5,30.17c0,1.42,.74,2.37,2.47,2.64l2.24,.34c1.16,.17,1.5,.46,1.5,1.01,0,1.04-1.39,1.22-1.94,1.22s-1.33-.17-1.77-.32v-1.16h-2.39v2.79c1.06,.38,2.71,.63,3.91,.63,3.46,0,4.69-1.67,4.69-3.44s-.95-2.68-3.23-3l-2.09-.3c-.76-.11-.9-.3-.9-.78,0-.55,.57-1.04,1.79-1.04,.49,0,1,.09,1.54,.29v1.01h2.39v-2.45c-1.46-.49-2.79-.67-3.85-.67-2.05,0-4.37,.8-4.37,3.25"/></clipPath><linearGradient id="aj" x1="82.49" y1="116.57" x2="83.65" y2="116.57" gradientTransform="translate(-5050.55 -7209.54) scale(62.12)" xlink:href="#t"/><clipPath id="ak"><path class="cf" d="M135.02,25.1v2.05h-1.35v1.94h1.35v5.56c0,1.75,1.04,2.66,3,2.66,.65,0,1.33-.13,2.31-.47l.09-1.88c-.49,.19-.93,.3-1.29,.3-1.1,0-1.46-.34-1.46-1.75v-4.43h2.66v-1.94h-2.66v-2.2l-2.66,.15Z"/></clipPath><linearGradient id="al" x1="82.49" y1="116.59" x2="83.65" y2="116.59" gradientTransform="translate(-5047.48 -7211.4) scale(62.12)" xlink:href="#t"/><clipPath id="am"><path class="cf" d="M143.68,34.18c0-.85,.69-1.31,2.85-1.31h.74c0,1.82-1.06,2.51-2.13,2.51s-1.46-.61-1.46-1.2m-2.18-6.23v2.52h2.28v-1.33c.46-.17,1.27-.29,1.65-.29,1.25,0,1.88,.4,1.88,1.9v.47c-1.94,0-3.28,.09-4.29,.46-1.04,.38-1.99,1.31-1.99,2.73,0,1.56,1.08,2.89,3.32,2.89,1.67,0,2.58-.7,3.25-2.2h.04c-.09,.38-.13,.72-.13,1.37v.61h3.34v-1.94h-1.12c.04-1.41,.09-2.77,.09-4.41,0-2.89-1.69-3.82-4.35-3.82-1.77,0-3.33,.67-3.97,1.03"/></clipPath><linearGradient id="an" x1="82.49" y1="116.61" x2="83.65" y2="116.61" gradientTransform="translate(-5042.4 -7211.51) scale(62.12)" xlink:href="#t"/><clipPath id="ao"><path class="cf" d="M12.04,42.66h0Zm16.8,6.19c-.04-.06-.08-.12-.1-.19,.03,.07,.07,.13,.11,.19h0Zm-8.8-2.03h0m0-.08h0Zm4.9-2.19h0Zm-11.85-1.92c.06,.05,.04,.06,.12,.08,0,.01,0,.03,.01,.04,.02,.02,.02,.03,.01,.03-.02,0-.16-.1-.14-.14m-.32-.16s0-.03,0-.06c.09,.03,.09,.06,.17,.12l.04,.03c-.05,.02-.08-.01-.11-.04-.02-.02-.05-.05-.09-.04h-.02Zm0-.09s-.04,0-.06,.02c-.02,.02-.04,.03-.06,.01,0-.02,.02-.01,.03,0,0-.03,0-.06-.01-.1,0-.01-.02,0-.03,0,.02-.08,.07,.03,.13,.06m-.56-.15s.02-.05,.04-.09c.06,.02,.04,.05,.04,.09l-.02,.02s-.02,0-.03,0h0s-.03,0-.04-.02m.26-.11s-.04,.13,.04,.09c-.03-.03-.03-.03-.01-.03,.02,0,.04,0,.05-.03h.02l-.02,.03c.06,.04,0,.01-.03,.04,.01,.03,.1,.03,.07,.08-.02,0-.04-.03-.06,0h-.01c-.07-.08-.17-.05-.16-.15,.04-.02,.05,0,.05,0h0s.02,0,.04-.02m.6-.48h-.01c0-.07-.06-.07-.1-.08-.03-.03-.06-.06,0-.12,0,.07,.02,.07,.1,.13l.03,.02c.05-.03,.06,0,.06,.02,0,.02-.02,.04-.04,.04,0,0-.02,0-.03-.01m32.19-.22c-.12,.02-.2,.06-.33,.08,.12-.02,.21-.06,.33-.08m-4.76-6.12s-.04-.02-.05,0c-.12,.01-.22,.06-.32,.12-.02-.02-.03-.02-.04,0-.1,.03-.19,.09-.29,.14-.08,.05-.17,.07-.24,.14-.14,0-.23,.16-.37,.18h-.01c-.04,.11-.13,.04-.18,.13-.02,.03-.04,.04-.07,.03l-.02,.03c-.09,.07-.2,.11-.29,.2-.11,.05-.21,.12-.3,.21-.06,.03-.12,.12-.19,.13-.03,.04-.06,.09-.1,.07l-.09,.11c-.1,.05-.19,.15-.29,.2-.11,.1-.22,.18-.33,.29-.03-.03-.05,0-.07,.03-.05,.07-.12,.06-.17,.15-.05,.01-.09,.04-.12,.1-.06,.05-.13,.08-.18,.16-.02-.02-.03-.02-.04,0l-.07,.08s-.02,.02-.03,.02c-.02,0-.03,0-.04,.03-.09,.11-.19,.13-.28,.23-.02-.03-.04,0-.05,.02l-.06,.07s-.04,.01-.06,.03c-.12,.12-.24,.2-.37,.29l-.02,.03c-.04,.07-.11,.04-.15,.12-.08,.07-.17,.12-.25,.19h-.01c-.07,.06-.07,.13-.06,.21-.07-.11-.11-.06-.14-.01-.09,.04-.18,.11-.26,.21-.03-.03-.04,.01-.06,.03-.03,.07-.09,.03-.12,.1l-.03,.04c-.07,.09-.14,.14-.21,.19-.06-.03-.1,.09-.15,.12l-.07,.08c-.06-.03-.09,.08-.14,.11-.05,.04-.1,.04-.13,.11-.05,.03-.02,.08-.07,.11-.02-.02-.05-.05-.06-.02l-.07,.08c-.09,.06-.23,.21-.36,.31,0,0-.02,0-.02,0,0,0-.01,0-.02,0l-.1,.1-.11,.12c-.08,.01-.13,.07-.16,.13-.03,0-.06,.02-.09,.06l-.04,.04s-.06,.05-.1,.07l-.05,.05c-.07,0-.07,.07-.15,.12l-.02,.03-.02,.03c-.07,.05-.12,.05-.21,.14l-.12,.13c-.07,.05-.14,.09-.2,.17-.11-.03-.19,.2-.3,.21l-.06,.06s0,.05-.03,.07c-.06-.04-.1,.02-.14,.07-.04,.05-.07,.09-.11,.08-.03,.05-.08,.06-.11,.08-.16,.14-.37,.27-.49,.43h0s.03-.03,.02-.05c-.15-.03-.17-.18-.28-.26-.04-.03-.03-.1-.1-.09,0-.01,0-.03,.02-.04l-.05-.05s-.02,0-.03,0c0,0-.02,0-.03-.01,.03-.07-.08-.05-.1-.09l.02-.02s-.06-.12-.13-.12c-.02-.02,0-.04-.02-.05-.05-.06-.1-.07-.15-.1,0-.01,.03-.03,.02-.04-.04,.03-.06-.04-.06-.06-.04-.04-.09-.07-.09-.11-.01,0-.03-.02-.04,0-.02,0-.03,0-.04,0l-.04-.04s.02-.06-.02-.08h-.01c-.18-.07-.22-.26-.35-.33,.08-.04-.06-.13-.05-.05-.03-.04,.02-.08-.06-.11l-.03-.02c-.05,0-.15-.06-.11-.13-.15,0-.13-.14-.23-.21h-.01s-.08-.1-.12-.09c-.07-.03-.03-.08-.06-.11-.03-.01-.04,0-.04-.04l-.04-.03-.09-.08-.02,.02-.05-.05c.02-.07-.06-.03-.1-.12-.02-.01-.02-.03-.02-.05-.09-.05-.12-.17-.19-.18l-.05-.05c.01-.06-.1-.1-.14-.16l-.05-.05c.02-.09-.15-.08-.14-.16-.03-.03-.06-.06-.09-.06-.05-.01-.01-.1-.08-.07l-.08-.07v-.03s-.03-.07-.06-.09l-.07-.08s0-.01,0-.02h0l-.14-.15s-.04-.07-.09-.1c-.02-.01-.03-.03-.04-.04h-.01c-.03-.06-.06-.11-.12-.15l-.03-.04s-.04-.07-.08-.09l-.07-.08s-.02-.02-.03-.03l-.1-.11s-.02-.03-.03-.05l-.11-.11s0-.03-.02-.05c-.15-.17-.32-.32-.5-.44h0l-.02-.02c-.45-.31-.98-.48-1.51-.5-.69-.03-1.39,.19-1.95,.67l-.05,.05s-.02,.02-.04,.04l.02,.02h-.01c-.1,.08-.22,.16-.35,.27-.03-.02-.04,.02-.07,.03l-.04,.04-.09,.09c-.06,0-.11,.1-.17,.15l-.02,.02-.03,.03c-.09,.03-.16,.14-.25,.19h0s-.06,.04-.08,.07c-.02,.03-.03,.07-.07,.06-.08,.04-.07,.15-.15,.15-.04-.03-.07,.05-.1,.07-.05,.03-.03,.06-.06,.09-.06,0-.11,.07-.16,.1l-.09,.09-.09,.09c-.06-.02-.09,.08-.11,.11-.14,.04-.21,.2-.32,.26-.05,.05-.11,.11-.13,.16,0,0-.02,0-.03,0-.01,0-.03-.01-.04,0l.02,.02-.04,.04-.05,.05c-.17,.13-.24,.19-.38,.35-.04,.02-.08,.03-.11,.08-.05,.03,0,.06-.06,.09l-.02-.02c-.05,.03-.12,.07-.13,.13-.04-.02-.07,.03-.1,.04l-.18,.18-.05,.05s-.06,.02-.08,.05c-.02,.03-.03,.06-.06,.05l-.18,.18s-.05,.02-.06,.04c-.01,.02-.02,.05-.05,.04-.01,.02-.03,.04-.05,.05-.01,0-.03-.01-.05-.03-.04-.06-.09-.03-.14-.08-.05-.04-.1-.08-.15-.09-.06-.03-.13-.06-.19-.12-.02,.03-.04,.03-.07,0,.03-.04-.05-.05-.07-.08v.02l-.11-.08s-.06-.02-.1-.05l-.05-.04-.03-.02c-.05-.02-.1-.12-.15-.09h-.01c-.07-.06-.14-.16-.22-.15-.01,0-.03-.02-.04,0l-.04-.03s0-.03-.01-.04c-.07-.07-.15-.06-.22-.14-.03,0-.01-.1-.07-.06l-.12-.1-.09-.08-.08-.06-.04-.03-.08-.06-.11-.09-.08-.06-.16-.13-.13-.11-.03-.02-.24-.2s-.1-.13-.15-.12c-.06,0-.11-.06-.16-.1l-.04-.03c-.02,.05-.04,.03-.06,.02-.01-.01-.03-.03-.04,0,.01,.06,.14,.09,.09,.17-.05-.05-.1-.03-.15-.09-.01,.09-.05,.05-.07,.12l.04,.03s-.03,.01-.04,.03l-.06-.05-.08,.09c.06,.06,.07,.14,.13,.2l.5,.4c.2,.14,.31,.3,.51,.44,.07,.03,.05,.09,.12,.12l.04,.03,.12,.1c.16,.08,.23,.26,.38,.3h.02c.08,.07,.09,.13,.18,.15-.01,.02,0,.03-.01,.05-.09-.07-.16-.14-.25-.16l-.04-.03s-.02-.04-.04-.06v.02l-.82-.63-.08-.06-.11-.09s-.11-.14-.16-.13l-.03-.02s-.03-.08-.09-.1l-.02,.02h-.02c-.08-.04-.07-.15-.16-.14h-.02c0-.08-.12-.12-.17-.18-.05-.06-.1-.04-.12-.1-.07,.06,.03,.07-.03,.12-.04-.03-.08-.05-.12-.04,.04,.06,.04,.13,.12,.18h.02v.02l.07,.04-.03,.04,.12,.1c-.01,.06,.09,.08,.12,.12,0,.01,.03,.02,.01,.04l-.11-.09-.15-.12-.03-.02-.11-.08-.11-.09s-.05,.07-.03,.1c-.01,.03-.01,.05,.01,.07-.01,.01-.02,.01-.03,0,0,0-.02,0-.03,0-.05,.03-.09,.02-.15,.07-.03,.04,.02,.05-.03,.1-.02,0-.04-.03-.06-.01,.03,.02,.02,.06,.07,.08l.03,.02s-.02,.01-.03,0c0,0-.02,0-.03,0-.03,0-.06-.08-.08-.03,.01,.02,0,.04,0,.06-.01,0-.03,0-.04,0-.02-.01-.04-.02-.06,.02,.05,.01,.02,.05,.06,.07-.01,.02-.03,.01-.04,.03,.09,.07,.13,.15,.23,.21-.02,.05,.07,.06,.1,.1l.09,.06c.15,.17,.43,.31,.53,.49-.07-.04-.14-.06-.21-.13l-.12-.09-.12-.09-.04-.03-.15-.12-.14-.1-.03-.02-.13-.09-.05-.04-.05-.04c-.06-.04-.12-.12-.18-.08,.01,.02,0,.05,.04,.06-.04,.03,.07,.07,0,.06-.04,.02-.07,.06-.09,.11-.02,.04-.04,.04-.06,.04-.02,0-.03,0-.04,0,.06,.06,.2,.11,.21,.18l-.03-.02-.15-.11c-.05-.06-.06,0-.09,.06-.02-.02-.1-.08-.07-.02,.04,.02,.05,.05,.04,.09-.01,0-.02,0-.03,0-.02,0-.04,0-.07,.02l.05,.04s-.02,.01-.03,.01c0,0-.02,0-.03,0,.04,.03-.08,.03,0,.06,0,.08-.05,.02-.09,0-.1,.09-.02,.12-.03,.18h-.03s-.06,0-.1,.05l.03,.02-.02,.02s-.09-.12-.14-.04c.11,.01,.1,.1,.18,.16l.04,.03s.14,.06,.1,.13l-.07-.05-.03-.02s-.03-.02-.04,0c0-.04-.1-.13-.15-.11,0,.03,.02,.05,.05,.07-.03,.03-.05,.03-.07,0-.07,.06,.03,.07-.03,.12-.04-.03-.08-.07-.11-.02,0,.1,.19,.14,.18,.24l-.14-.1s-.02-.03-.03-.05l-.04-.03s-.06-.08-.1-.04c.06,.03,0,.02-.03,.07,.03,.01,.02,.04,.04,.06h.02c-.03,.05-.06-.02-.09-.02-.04,.09,.09,.12,.11,.19,.08,.05,.09,.12,.18,.16-.02,.01-.03,.04-.04,.03-.06-.07-.17-.14-.23-.21-.03,0-.07-.01-.1-.04-.02-.03,.03-.02,.04-.03-.05-.01-.03-.11-.1-.07,.01,.02,.01,.05,0,.09-.05,.11,.08,.16,.1,.21,0-.01-.04,0-.04,0,.05,.08,.1,.09,.18,.19-.02,.03,.02,.04,.04,.06l-.03,.04c-.1-.05-.11-.12-.2-.17-.03-.07-.15-.11-.19-.18-.02,.03-.04,.04-.06,.05,.02,.02,.09,.03,.03,.08,.06,.02,.05,.07,.1,.1,0-.02,0-.03-.01-.04,.06-.04,.06,.05,.08,.06-.02,.03-.05,.02-.07,.01-.01,0-.03,0-.05,0-.04-.01,0-.15-.09-.06,.06,.02,.04,.07,.1,.1-.02,.02-.03,.02-.04,.03-.08-.02-.05-.15-.14-.12,.02,.04,.04,.09-.03,.09-.04,.12,0,.22,.1,.3,.03,.05,.1,.08,.11,.13,.02,.01,.04,.03,.03,.05-.18-.08-.26-.26-.37-.31,.02,.04,.1,.1,.03,.13-.05-.01,.05,.15,.12,.19-.03,.04,.06,.05,.07,.08l.07,.05c-.08,.1-.2-.07-.26-.09,.02,0-.04,.05,.11,.11,0,.06,.11,.09,.16,.13,0,.06,.15,.09,.15,.15-.07,.02-.07-.05-.11-.08l-.13-.09c-.06-.06-.16-.18-.23-.18,.07,.05,.06,.13,.15,.18,.05,.03,.05,.08,.12,.1l.07,.05c.12,.12,.18,.26,.38,.36,.02,.05,.06,.07,.12,.08-.02,.02,0,.03,.01,.04-.01,.03,0,.05-.04,.03,.02-.05-.08-.07-.12-.11-.25-.16,0,.03,.07,.1,.12,.08,.16,.18,.29,.25h.01c.02,.07,.1,.11,.15,.16,0,.04,.06,.06,.1,.1,.02,.04,.06,.08,.12,.11,0,.03,.06,.11,.08,.09,.06,.03,.09,.02,.09,.09,.03,.06,.09,.13,.16,.14,.07,.05,.06,.07,.13,.09l.04,.03c-.06,.1,.05,.07,.1,.1,.06,.03,.03,.03-.02,.07,0,.02,.03,.01,.05,0,.02-.01,.04-.03,.02,.02,.02,.06,.15,.15,.22,.15l.03,.02s.02,.04,.04,.06c-.03,.03,.07,.09,.09,.06,.07,.06,.19,.1,.21,.18,.02-.02,.04-.04,.06-.02-.03,.03-.02,.05,.02,.07l.1,.07,.06,.04s.06,.03,.09,.06c.03,.03,.06,.06,.11,.05l.08,.06h.02c.11,.09,.13,.07,.23,.14l.04,.03,.09,.06s.1,.11,.15,.08h.02v.02s.03,.05,.06,.03l.08,.06,.13,.09c.19,.1,.28,.24,.44,.31h.02c-.03,.05,.05,.06,.07,.09,.05,.08,.13,.16,.2,.17,.04,.02,.05,.04,.06,.07l.06,.04s.04,.04,.06,.07c.03,.04,.04,.05,.06,.05l.36,.08,.3,.19s.1,.06,.15,.09h.03s.09,.05,.13,.07c.03,.01,.06,.02,.09,.03,.03,0,.05,.02,.07,.03,.03,0,.06,.02,.09,.02,.02,0,.05,.01,.07,.02,.03,0,.06,.01,.09,.02,.03,0,.05,0,.08,.01,.03,0,.06,0,.09,0,.02,0,.05,0,.07,0,.03,0,.07,0,.1,0h.03s.03,0,.04,0c.04,0,.07,0,.11,0h.05s.07-.02,.11-.02c.02,0,.03,0,.05,0,.04,0,.07-.02,.11-.03h.02l.13,.02c.38,.08,.77-.14,.89-.52,0-.02,0-.03,.02-.06,.05-.03,.11-.03,.16-.1,0-.02-.03-.03-.02-.04,.01-.02,.03-.02,.05-.02,.02,0,.04,0,.06-.03h.01c.11-.03,.12-.12,.16-.2,.02-.02,.04-.01,.07,.02,.02-.08,.1-.07,.09-.16l.05,.05s.04-.05,.02-.08c0,0,.01-.02,0-.03,.02-.01,.05,.02,.07,.02,.09-.21,.34-.19,.44-.41,.05,.02,.1-.09,.15-.12,.11-.15,.27-.15,.24-.3,.04-.04,.07-.08,.12-.05,.04,.03,.07-.05,.1-.07,.04,.02,.13-.07,.08-.12,.01-.02,.03-.02,.04-.01,.02,0,.03,0,.05-.02,.02-.04,.06,0,.08-.04l.05-.05,.04-.04s.07-.08,.1-.07c.04-.05,.09-.09,.14-.11l-.02-.02c.07,0,.13-.11,.2-.17,.01-.02,.04-.03,.02-.05l.03-.03,.02,.02s.09-.04,.12-.09c.07,.01,.02-.06,.06-.09,.04,0,.07-.01,.1-.04l-.03-.03,.04-.04s0,.04,.03,.06c.05-.04,0-.09,.04-.13,.06,.04,.05-.01,.08-.04,.02,0,.04-.02,.06-.03h0c.22-.13,.41-.38,.65-.55l.07-.07,.1,.07c.04,.05,.06,.09,.14,.13l-.02,.02c.18,.21,.43,.47,.6,.64-.02,.05,.07,.08,.09,.13,0,.02,.02,.02,.02,.03h0c.13,.15,.31,.35,.44,.51l.02-.02s.04,.04,0,.07l.07,.07s.05,.11,.09,.09c.01,0,.02,.02,.04,0,.02,.03,.08,.05,.02,.08,.02,.04,.06,0,.08,.04-.02,.02,0,.04,0,.06,.02,.03,.05,.03,.08,.03,.02,0,.04,0,.06,0,.03,.04-.03,.16,.08,.14l.02,.02c0,.07,.04,.06,.09,.09,.07,.03,0,.07,.04,.11,.08,.1,.14,.11,.18,.26,.03-.04,.04-.02,.06-.01,.01,0,.03,.02,.04,.01,.03,.1,.09,.25,.19,.3,.06,.09,.09,.09,.17,.17,.03,.02,.04,.05,.04,.08-.01,.08,.12,.05,.06,.13,.02-.01,.03,0,.04,0,.02,.02,.02,.13,.09,.06l.04,.04,.04,.04,.07,.07c.07,.14,.16,.32,.31,.39-.04,.03,0,.07,.05,.12,.15,.09,.2,.19,.32,.34,.09,.06,.1,.19,.2,.17,.01,.12,.06,.15,.17,.24,.02,.02,.02,.12,.08,.09,.05,.06,.09,.18,.15,.19l.04,.04c.05,.05,.03,.07,.09,.09h.01s.05,.08,.08,.12c.32,.38,.73,.64,1.18,.79h0l.04,.02c.19,.06,.38,.1,.58,.12h.06c.16,.01,.32,.02,.48,0,.06,.01,.12,.02,.18,.02h0c.29,.02,.57-.07,.8-.23h0c.11-.08,.21-.18,.3-.29l.13-.1c.08-.06,.16-.12,.25-.17,.05-.08,.11-.11,.2-.13v-.04h.03c.07,0,.14-.11,.2-.15l.05-.04s.06-.03,.08-.04c.04,.03,.06-.07,.08-.1,.09-.02,.08-.07,.16-.1,.13,0,.16-.11,.29-.17l.05-.04c.06-.07,.13-.04,.15-.12,.06,.05,.01-.05,.07-.05,.06-.05,.15-.02,.16-.1,.03-.01,.13,0,.11-.06,.12-.05,.21-.11,.3-.18l.03-.02c.05-.02,.03-.06,.06-.08,.04,.07,.06,0,.09,0l.03-.02h.02c.03-.06,.08-.01,.11-.07l.07-.06h.02c.06-.06,.11-.12,.18-.12l.04-.03s.06,0,.07-.04c.02-.03,.03-.06,.06-.04,.07-.03,.12-.05,.15-.12,.03,0,.06,0,.08-.03,.03-.06,.1,0,.1-.08,.06,0,.09-.03,.11-.09h.01l.03,.03s.08-.05,.08-.09c.03-.01,.05-.07,.09,0l.1-.08s-.03-.04-.02-.05c0,0,.02,0,.03,0,0,0,.02,0,.02,0,.05,0,.15-.02,.15-.09,.01-.03,.03-.02,.04-.02,.02,0,.03,0,.04-.01,.06,0,.12-.06,.18-.11,.09-.05,.26-.11,.3-.21,.09-.02,.13-.1,.19-.12,.05,0,.17-.05,.17-.1l.03-.02c.16-.05,.3-.18,.46-.26l.18-.14s.02,0,.03,0c0,0,.02,0,.03,0,.11-.06,.22-.12,.32-.21,.03,.03,.05,0,.07-.02l.19-.15c.09-.01,.18-.07,.27-.13l.11-.08s.06-.03,.09-.03c.08-.06,.17-.07,.25-.16,.04,.05,.06-.03,.1-.04l.08-.06s.05,0,.07-.02l.14-.1s.03,.02,.05,0c.06-.07,.13-.06,.2-.11l.08-.06s.05,0,.07-.02c.03-.02,.04-.04,.04-.06,.05,0,.09,0,.13-.03l.12-.09c.16-.05,.32-.15,.48-.24,.29-.13,.58-.29,.86-.44,.09-.06,.19-.07,.28-.16,.02,.02,.03,.02,.05,0,.08-.09,.18-.07,.26-.15,.08-.01,.16-.07,.23-.13,.09,0,.17-.07,.26-.1l.07-.05,.06-.03c.07-.02,.13-.08,.2-.12,.04,.06,.06-.02,.09-.03,.05-.06,.12-.04,.18-.08,.09-.03,.17-.06,.25-.13,.11,0,.19-.13,.3-.12,.06-.03,.12-.12,.19-.09h.01c.05-.05,.1-.08,.17-.08l.03-.02,.06-.04c.05-.06,.12-.02,.17-.07l.16-.11c.04-.06,.1-.01,.14-.05l.22-.14,.09-.06c.05,.04,.17-.04,.15-.09l.12-.07s.03-.07,.07-.09c-.02-.05,.05-.04,.01-.09,.03-.11-.13-.32-.2-.48,0-.08-.09-.2-.21-.34,.04-.05,.05-.12,.03-.2-.1-.17-.32-.23-.3-.34h.01s0-.05-.02-.09c-.06,.06-.07-.06-.16-.11,0-.01,0-.03-.03-.07h-.01l-.05-.05,.07-.05c-.05-.06-.09-.08-.11-.05-.02-.03-.04-.03-.06-.05-.03-.03,0-.05,.02-.06-.03-.04-.06-.06-.08-.08l.05-.04s-.06-.06-.09-.08l-.12-.14h-.02s-.02-.03,0-.04c-.05-.07-.08-.04-.13-.13,.02-.02,.04-.04,.03-.07-.13-.14-.16-.18-.33-.35-.05-.16-.17-.32-.34-.49,.07,0-.05-.11-.09-.17-.05-.18-.16-.22-.27-.41-.07-.08-.03-.07,0-.06,.04,0,.08,.02,.04-.04-.03-.01-.05,0-.07,0-.03,0-.05,0-.08-.01-.04-.17-.31-.44-.37-.62h-.01c-.03-.08-.17-.22-.24-.28,.06,0-.03-.09-.07-.14-.09-.13-.11-.22-.26-.37h.01l-.12-.16c-.14-.25-.24-.3-.45-.55-.14-.04-.27-.06-.39-.06-.16,0-.32,.03-.46,.08"/></clipPath><linearGradient id="ap" x1="79.81" y1="118.02" x2="80.78" y2="118.02" gradientTransform="translate(-2745.3 -4034.8) scale(34.55)" xlink:href="#f"/><clipPath id="aq"><path class="cf" d="M12.44,43.3c.09,.04-.03-.06-.1-.1-.02,0-.03-.01-.03-.01-.02,0,.1,.09,.13,.11"/></clipPath><linearGradient id="ar" x1="-561.87" y1="322.67" x2="-560.9" y2="322.67" gradientTransform="translate(108.34 -11.88) scale(.17)" xlink:href="#f"/><clipPath id="as"><path class="cf" d="M10.16,39.58h0m.03-.02h0m1.58-2.49s.08-.15,.14-.1c-.08,.02-.07,.09-.11,.13l-.02-.03Zm3.13-.25s.02-.02,0-.04l.06-.04,.08-.06h.02s.05-.04,.02-.07l.24-.18s.08-.1,.15-.02c-.07,.02-.11,.03-.13,.1-.06,.07-.22,.1-.22,.2-.04,.08-.09,.06-.14,.15-.02-.03-.04-.03-.06-.05m-2.57-.53l.08-.06s-.03,.21-.12,.09c0,0,.02,0,.03,0h.02s.02,0,0-.03m3.25-.15c.1-.14,.26-.25,.39-.38l.04-.03c.09,.09-.01,.08-.03,.11-.12,.07-.18,.32-.32,.32-.02,0-.05,0-.08-.02m.5-.5l.04-.03s.12-.03,.08-.11l.15-.11s.06-.03,.07,.04h-.01c-.02,.05-.12,.05-.08,.12l-.04,.03c-.05-.04-.05,0-.06,.03,0,.02-.01,.05-.04,.05l-.04,.03s-.04-.03-.06-.05m-2.61-.59c-.05-.06,.05-.06,.06-.09,.02,0,.02-.03,0-.05l.03-.02,.04,.06s-.05,.03-.06,.06l-.06,.06s-.02,0-.03-.02m4.01-.58l.04-.03s.05,.03,.08,.08c-.09,.02-.04,.02-.07,.09-.07-.07-.01-.08-.06-.14m.42-.35s.06-.05,.11,.05c0,.02-.03,.01-.05,0-.03,0-.06,0-.03,.05l-.06,.04s-.04,.04-.07,0c.09,0-.03-.11,0-.14,.01,.01,.02,.01,.03,.01,.02,0,.03-.01,.04-.02m-1.5,1.2c.09-.03,.07-.13,.16-.16l.06-.04,.07-.05c-.04-.07,.07-.07,.08-.11,.14-.09,.2-.23,.36-.31-.04-.08,.08-.07,.1-.12l.03-.02c.06-.06,.08-.13,.17-.17,.12-.09,.18-.21,.32-.28-.03-.08,.09-.08,.11-.13,.04,.06-.06,.06-.03,.11-.04,.07-.11,.06-.16,.16-.05,0-.18,.14-.19,.23-.02-.02-.03-.02-.06-.05-.06,.01,.06,.11-.03,.11-.08,.04-.07,.03-.13,.1l-.1,.08c-.07,.02-.04,.09-.1,.12-.06,.02-.05,.07-.08,.11-.03-.05-.12,.01-.07,.05l-.09,.06s-.02,.04-.02,.06c-.04,.02-.07,.05-.06,.09-.15,0-.17,.18-.3,.18h0l-.02-.03Zm1.67-1.33s0-.06,.04-.07c.04,.07,0,.09,.07,.13-.03,.03-.06,.01-.09,0-.02,0-.04-.02-.06-.02l.04-.03Zm-.14-.16l.12-.09c0,.07-.03,.12-.09,.16h-.02s-.03,.02-.03,.02c-.03,0,.05-.05,.02-.09m-2.98-.41s.01-.07,.05-.08c.03,.04,.02,.07,.07,.13,.01,.03,.01,.04,0,.05-.04-.04-.08-.06-.12-.09m4.03-.38s-.02,0-.03,0c0,0,.02,0,.03,0m-.33-3.31l-.03,.02,.03-.02m4.48,0l.03-.02s.05,.01,.05,.05c0,.03,0,.06-.02,.06-.02,0-.04-.02-.07-.08m-4.42-.05s0,0-.02,.01c0,0,.01,0,.02-.01m5.43-.75s-.02,.04-.03,.06c.02-.01,.03-.03,.03-.06m.04-.11s-.03,.06-.04,.09c0-.03,.02-.06,.04-.09m.02-.03l-.02,.02,.02-.02m6.5-4.72l-.12,.13,.12-.13Zm2.53-1.64l-.23,.14-.24,.15-.22,.14-.2-.2-.08-.08-.18-.07-.08,.09-.12,.13-.17,.24-.35,.34-.31,.35-.28,.31-.25,.16-.17,.11c-.04,.06-.18,.06-.17,.15l-.05,.03c-.06,0-.21,.01-.21,.09-.03,.05-.16,.04-.14,.13-.02,.04-.04,.02-.06,0-.01-.01-.03-.03-.04-.02l-.12,.08c-.11-.03-.2,.11-.3,.15-.05,.02-.03,.09-.11,.11-.04,.01,0,.08-.06,.08-.04-.03-.23,.03-.15,.14-.09,0-.03,.12-.14,.13-.06-.17-.18-.03-.18,.03h-.02l-.17,.12c-.09,.05-.17,.1-.21,.18-.05-.07-.06,.04-.04,.07-.02,.02,0,.04,.04,.06-.03,0-.03,.01-.03,.04,0,.03,0,.06-.04,.01-.03-.04,0-.04,0-.08-.01,0-.03-.01-.05-.05l-.09,.06c.01,.05-.02,.04-.05,.02-.03-.02-.07-.03-.05,.03,.11,.17-.11,.03-.12,.16-.03,.02-.05,0-.05-.05,0,.08-.1,0-.05,.12,.02,.04,.04,.08,0,.08-.02,0-.03,.02-.05,0,.02-.01-.01-.05-.03-.02-.02,.01-.04,0-.06-.01-.03-.02-.05-.04-.07,0-.12,.04-.15,.14-.24,.2-.06,.02-.03,.08-.06,.12,0,.03-.03,.01-.06,0-.03-.02-.05-.04-.03,.01-.01,.04-.03,.09-.05,.12l-.06-.09c-.11-.01,.06,.14-.02,.14-.03,0-.02-.04-.06-.09-.03,.03,.02,.15-.07,.09-.05-.07-.09,.03-.13,.04,.03,.05,.07,.1,.03,.11-.03,.01-.05,.04-.09-.03-.04,.04,.04,.2-.07,.13,0,.1-.07,.01-.05-.05-.09,.03,.02,.19-.11,.2-.02-.04,0-.05-.04-.1-.05,.22-.28,.1-.26,.38-.03,.01-.01,.06-.04,.07-.05-.05-.06,0-.07-.08-.04,.02-.08,.04-.04,.11h-.02c-.06,.06-.05,.02-.05-.04-.04,.03-.08,.06-.02,.14l-.05,.03c-.04-.15-.05,.02-.11,.03l.06,.09-.07,.07s.04-.09-.04-.04c-.04-.1-.07-.03-.1-.02,0,.04,.03,.09,.07,.14l-.08,.08h-.02s0-.05-.04-.05c-.03-.05,.03-.05-.03-.11-.09,.04-.09,.1-.17,.11,.03,.04,.04,.07,.04,.1,0,.02,0,.04,.02,.07-.04,.03-.07,.05-.11,.03l-.04-.06c-.05-.02-.07,.03-.09,.09-.02,.06-.04,.13-.14,.06,.03,.04,.03,.07,.04,.1l-.06,.04c-.08,.05-.16,.03-.24,.11h-.02s.03,.11-.04,.12c.02,.04,.06,.09,.04,.1l-.03,.02c0-.08-.05-.06-.09-.03-.04,.03-.08,.06-.07-.04-.04,.03-.12,.04-.07,.13h-.02s.02,.05,0,.05c.02,.06-.01,.04-.04,.02-.03-.02-.06-.03-.04,.03h-.02c0,.06-.05,.08-.09,.11-.02,0-.03,0-.04,.01,.01,0,.02-.01,.04-.01-.07-.13,.09,0,.02-.14-.08,.08-.21,.14-.22,.27,.01,.04,.04,.1,.03,.1,0,0,.01,0,.02,0-.02,0-.03,0-.05,0l-.03,.02h-.02s-.05,0-.09-.06c-.09,0,0,.12,0,.17-.03,.04-.04,0-.06-.03-.01-.03-.02-.07-.05-.03-.02,.05,.03,.15-.05,.16-.02-.05,0-.07-.03-.11l-.05,.03s-.02,.02,0,.04c.01-.01,.03,.02,.04,.05,0,.03,0,.06-.02,.06l-.06-.09-.08,.05s.06,.09,.04,.1h-.02l-.08,.06s-.01-.04-.03-.07c-.06,.02,.03,.13-.03,.15-.04-.03-.16-.12-.13,0,.06-.05,.03,.05,.06,.09-.04,.03-.11,.05-.02,.1-.03,0-.05,.05-.08,0,.03-.03-.06-.04-.08-.12-.02,.04-.13,.03-.09,.1,0,.06-.06,.09-.05,.16l-.08,.05s.05,.04,.06,.09l-.03,.02-.06-.09s-.05,0-.05-.05c-.05,.03-.09,.08-.09,.14,0,0-.02,.02,0,.04l-.04,.03c.02,.07,.1,.12,.02,.16l-.02-.03-.05,.03s-.05-.06-.07-.08c-.02-.02-.04-.03-.05-.01-.08,.03,.03,.09,0,.12-.02-.01-.12-.09-.08,0-.13,0-.24,.12-.26,.25,.02,0,.04-.03,.07,0-.02,.03,0,.03,0,.03,.02,0,.05,0,.06,.05-.04,.06-.03,.04-.09,.1-.04-.1-.06-.14-.12-.09,0,0-.02,0-.03,0,0,0-.01,0-.02,0,0,0-.02,0-.03,0,0,0-.02,0-.02,0,0,.1-.18,.09-.11,.24-.04,0-.02,.03,0,.07,.02,.03,.04,.07,0,.06-.11-.1-.04-.11-.05-.18-.1,.03-.12,.1-.08,.22l-.05,.03c-.06,.04-.05,0-.05-.05-.08-.05-.05,.05-.11,.07h-.01s-.03,.11,0,.18c-.02-.03-.04-.03-.06-.05-.02-.03,0-.06-.04-.06-.04,.05-.09,.09-.14,.14-.01-.01-.03-.02-.03-.03,.09-.05,0-.08,.05-.12,0,.02,.02,0,.04,0l-.02-.03s0-.05,.05-.05c0-.04-.04-.02-.07,0-.04,.02-.08,.04-.07-.02-.02-.02-.03-.06-.07-.04,0,.02-.02,.05-.04,.07l-.03-.05-.03-.05s.06-.02,.06-.04c0-.02-.03-.02-.06-.01-.04,0-.07,.01,.02-.05-.04-.05-.12-.03-.15-.1l.09-.06-.07-.11c-.17,.11-.05,0-.07-.04-.09,.08-.11,.04-.15,.03,0-.03,0-.02,.03-.02,.02,0,.06,0,.1-.04-.1-.03-.07-.03-.08-.12-.06,.05-.12,.07-.14,.05,.02-.01,.03-.03,.02-.03,.04-.02,.08-.02,.05-.05,0-.03-.04,0-.07,.02-.03,.03-.07,.05-.07,.02,.08-.07-.07-.01-.05-.08l-.03-.05,.09-.06s.03-.12-.05-.08c-.03-.01-.02-.1-.08-.06-.05,0-.06-.02-.04-.06l-.03-.05s-.04,0-.07,0c-.04,.01-.08,.03,0-.03,0-.04-.04-.02-.08-.01-.02,0-.04,.01-.05,.01l-.1-.02-.06-.41-.13-.12-.15,.04-.11-.18-.1-.17h-.15l-.15,.1-.1,.18-.28,.11-.13,.18-.16-.03h0s0,.03-.03,.03l-.06-.09-.03,.02s0,.05-.02,.06c-.08,.01-.04,.13-.12,.09-.07,.06-.17,.1-.15,.2-.02,.01,0,.04,0,.05-.02,.02,0,.05-.02,.06-.06-.12-.18,.03-.07,.06-.06,.01,0,.08-.07,.09-.03-.04-.04-.07-.05-.1-.03,.01,0,.06-.04,.07-.02,.02-.13,.08-.05,.08,.06-.06,.04,0,.12,.09-.01,0-.03,.02-.05,0-.06-.11-.09-.01-.08,.02,0,.03-.03,.01-.05,0-.02-.02-.04-.04-.05,0,.03,.04,.04,.07,.05,.1l-.04,.03-.06-.09-.03,.02s.03,.08,.02,.12c0-.02,0-.05-.01-.08,0,.05-.09,0-.07,.09,.02,0,.04,.01,.06,.05h-.01l.02,.04c.04,.05,.03,.08,0,.09-.03-.04-.06-.09-.08-.08l-.06,.04s-.02-.04-.03-.07c-.05,.03,0,.1-.05,.12-.1-.04-.11,.09-.18,.13-.05,.07-.14,.12-.04,.26h-.01c-.06-.09-.09-.06-.11-.14-.15,.01-.05,.28-.15,.2h-.01c.03,.08,.04,.16-.03,.12,.01,.06-.06,.08,.01,.17l-.04,.03c-.11-.19-.19-.15-.26-.08-.03,.05-.14,.05-.11,.13l-.09,.06s0,.05-.02,.06c-.04,.03-.09,.05-.08,.11-.02,.04-.13,.04-.1,.12-.07,.1-.08,.23-.22,.3-.03,.02-.05,0-.06-.05,0,.11-.24,.08-.14,.19-.05-.05,.04-.09,.07,0l-.1,.08c-.07-.12-.1,.01-.15,.02,.03,.06,.08,.06,.07,.09-.11-.13-.24,.03-.1,.12,0,.09-.2,.27-.12,.09-.04-.11,.13,0,.03-.11-.06-.05-.08,.07-.08,.11-.06,.09-.16,.15-.21,.24l-.07,.06,.06,.09-.06,.04c.04,.07-.06,.07-.08,.11l-.04,.03c-.06-.07-.02-.08-.09-.16-.01,.07-.06,.1-.13,.1,.03,.04,.02,.07,.07,.13l-.03,.02-.07-.09c-.09,0,.03,.1,0,.13-.03-.04-.07,0-.04,.03,.02,0,.04,.03,0,.04l-.07-.09s-.02,.03,0,.05c.01,.03,.03,.05,0,.05-.06,.01,0,.08-.06,.09-.03-.01-.07,0-.1,.03,0,.07,0,.16,.08,.08,0,0,.02,0,.04,.02h-.02l-.03,.03c-.05,0-.03,.05-.03,.08l-.05,.03s-.02-.1-.04-.07c-.04,.02-.05,.05-.02,.1h-.02l-.07,.06-.02-.03c0-.05-.03-.05-.06-.09,0,.03-.1,.02-.05,.09-.06,.02-.08,.07-.1,.12-.02,.05-.01,.1-.06,.14-.02-.02-.04-.06-.06-.05,0,.04,.03,.1,0,.13l-.04-.06c-.06,.01,.03,.1-.03,.11-.01,0-.03-.01-.05-.03-.02-.02-.04-.04-.06-.03h-.02c.03,.06,.03,.1,.02,.13-.02,0-.04,.02-.07-.04-.04,.03-.11,.06-.02,.1,.05,.06-.04,.05-.05,.08-.01,.05-.04,.02-.07,0-.02-.02-.04-.04-.05-.04,.04,.07-.06,.06,.04,.11,0,.05-.04,.08-.08,.11l.02,.03s0,.04,0,.05c-.06,.01,0,.08-.06,.09-.06-.1-.07-.02-.07,0-.02-.04-.04-.05-.06-.05-.01-.03,0-.04-.03-.07,0,.09-.16,.11-.08,.24,.03-.01,.05-.05,.08-.01h-.01s-.01,.08-.05,.09c-.03-.04-.02-.07-.07-.13,.02,.09-.07,.13-.1,.21-.04-.04-.08,.06-.08,.11,.08,0,0,.12,.11,.15l-.04,.03-.11-.15c-.02,.1-.03,.19-.1,.26l-.07-.09s-.06,.07-.05,.13c0,.03-.1,.02-.05,.08,.02,0,.12,.06,.08,.08-.04,.04-.09-.02-.14-.03,0,.03,.02,.08,.06,.14h-.02c-.07,.14-.14,.3-.3,.28l.04,.06-.04,.03-.02-.03s-.02-.02-.04-.06c-.05,.05-.07,.13-.12,.18h-.02s.09,.14,.08,.17h0s-.07-.09-.09-.06c-.01,.02-.02,0-.04,0-.01,0-.02,0-.03,0-.02,.01-.02,.04-.02,.06-.07,.03,.04,.14-.04,.16,0-.05-.03-.07-.06-.05-.04,.03-.07,.07-.12,.05-.04,0,0,.06,.03,.11l-.04,.03,.02,.03h-.01s-.05,0-.09-.04c-.03-.04-.06-.08-.08-.05,.12,.25-.03,.19-.08,.33,.01,.1-.12,.12,0,.27h-.01c-.02,.06-.05,.1-.08,.14l-.04,.05h-.01c-.1-.01-.1,.07-.15,.12-.01,.01,0,.04,0,.05,.02,.03,0,.05-.02,.06-.04,0-.03,.04-.03,.06l-.02,.02-.06,.05h-.02c-.02,.05-.13,.05-.1,.13-.05,.08-.1,.08-.13,.19-.06,.02-.05,.07-.08,.11-.05,.08-.16,.13-.18,.22-.01,.02-.03,.01-.04,0-.02,0-.04-.01-.05,.02,.02,.03,.01,.04,.03,.07l-.18,.13c.02,.05-.02,.08,0,.13h-.01s-.06,.05-.1,.04h-.02s.03,.07,.01,.09c-.02,0-.03-.01-.06-.05,0,.05-.07,.07-.04,.13,.02,0,.04-.04,.06,0-.04,.02-.05,.05-.05,.08-.08-.01-.13-.03-.07,.05-.02,0-.04-.01-.06-.05-.05,.02,.02,.1,.03,.16,.06,.09-.13,.06-.07,.15-.07,.06-.11,.14-.09,.25,.05,.11-.18,.33-.05,.31,0,0,.02,0,.04,.02-.03,.07-.1,.12-.1,.21l-.06,.04c.02,.06,0,.1,.03,.16-.04,.02-.05,.06-.03,.11-.02,.02,0,.06-.04,.07-.01,.02,0,.05,.02,.08l-.03,.02c-.07,.1-.03,.26-.08,.38-.07,.05-.05,.13-.01,.23-.04,.03,0,.08-.07,.09,.02,.04,.06,.08,.05,.1-.07-.04-.08,.05-.05,.12-.05,.02-.03,.08-.04,.12,.11,.06,.06,.19,.16,.15l.04-.03c-.09-.09,.01-.08,.03-.11,.06,0,.08-.02,.08-.04,0-.03-.01-.06,.1,0,.1,.02,.09-.11,.19-.14,.04-.06,.18-.07,.16-.16,.02-.01,0-.04,0-.05,.31-.14,.44-.74,.7-.74-.03-.04-.05-.07-.02-.08l.07,.09c.07,0-.01-.09-.03-.13l.03-.03s.03,.02,.04,.04c.05,0-.01-.08,.02-.1l.06-.09h0s.08-.02,.12-.05c-.03-.04-.05-.07-.02-.08,.04,0,.07-.12,.13,0,.03-.02,.04-.06,.02-.1,.02-.04,.04-.09,.1-.12l.08-.06s.04,.06,.06,.05c-.03-.06,0-.05,.03-.05,.02,0,.04,0,.05,0-.02-.03-.04-.06-.03-.07,.09,.08,.28-.07,.24-.18,.11-.01,.16-.04,.19-.14,.04,.03,.08,.03,.12,0-.02-.06-.1-.15-.1-.2,.02,0,.04,.02,.06,.05,.03,.04,.07,.08,.08,.02h.01c0-.08,.07-.1,.11-.14,.03,.07-.06,.08-.03,.15,.11-.05,.1-.17,.16-.25-.04-.01-.07,0-.1,.03-.04-.03,.05-.13,.11-.13,.02,.04,0,.05-.02,.06,.19,.2,0-.12,.11-.13h.02l.06-.05s.01,.04,.03,.07c.02,0,.05,.01,.07,.04,.01-.09,0-.08,.09-.07-.11-.15,.12-.03,.07-.15l-.04-.06s-.01-.04,0-.05c.07,.1,.12,.13,.17,.1-.02-.03-.01-.04-.03-.07,.07-.09,.24-.15,.33-.2-.03-.08-.07-.16-.03-.2,.07,.02,.03,.09,.08,.08,0-.05-.1-.16-.01-.17,.02-.02,0-.05,.02-.06,.03,.04,.05,.03,.08,.08-.02,0-.02,.02-.02,.03,0,.03,0,.06-.04,0h-.02c.06,.16,.2-.02,.15-.1,.06-.01,.03-.07,.07-.09,0-.04-.05-.07-.06-.14-.15,.15-.26,.26-.44,.42l-.09,.06c-.04,.08-.16,.09-.2,.19l-.07,.06,.02,.03c-.08,.03-.05,.07-.03,.11-.02,.02-.06,0-.09-.03-.16,.18-.42,.19-.52,.38-.06-.06-.09,.05-.14,.06l.02,.03c-.07,0-.11,.05-.15,.1-.04,.05-.08,.11-.17,.09,.02-.01,.02-.04,.02-.06,.1,.06,.07-.11,.16-.12l.09-.07s.03-.02,0-.05c-.01-.06,.2,0,.18-.13h.02l.07-.07,.03-.02s-.02-.1-.03-.16l.08-.06s.03,0,.05,.01c-.05,.03-.09,.06,0,.14l.06-.04c.03-.05,.01-.04,.07-.05,.07-.02-.05-.13-.03-.16,.04,.01,.09,.05,.1,.1l.03-.02s.06-.03,.04-.07c.02-.01,.02-.04,.03-.06,0,0,0,0,.02,0,.03,.01,.07,.01,.06-.03h0s0-.02,0-.02c0,0,0,.01,0,.02h0c.32-.14,.59-.61,.9-.68-.09-.17,.23-.14,.2-.28l.15-.11c.06-.05,.11-.1,.12-.18h.01c.1,0,.15-.1,.18-.14l.13-.1,.13-.1h.02v-.02s.04-.04,.04-.06l.06-.04,.03-.02,.03-.02c.06,.08-.1,.04-.03,.11l-.03,.02h-.02s0,.08-.05,.09l-.03,.02-.09,.07c-.18,.2-.33,.24-.44,.46-.09,.07-.19,.13-.23,.22-.02,0,0,.02,0,.04h.01c.08,0,.06-.04,.14-.07,.01,.03,.02,.06,.05,.1l.13-.1-.02-.03,.16-.12,.09-.06h.01c.13-.13,.27-.24,.43-.42l-.02-.03,.15-.11c.09-.04,0-.18,.13-.1,.27-.18,.23-.38,.57-.56-.02-.03-.04-.02-.06-.01-.01,0-.03,.01-.05,0-.02-.04,.02-.05,.04-.07-.05-.08,0-.07,.04-.06,.02,0,.04,0,.05,0-.01,.03,0,.06-.04,.07l.02,.03,.06-.04c.01-.09,.15-.05,.16-.16l.03-.02s.12-.04,.08-.11h.02c.07,.01,.08-.12,.18-.14,0-.01,.03-.02,0-.05-.03,.01-.06-.06-.1-.1,.02-.02,0-.05,.02-.06l.04,.06s.02,.06,.05,.1c.13,0,.16-.17,.3-.22,0-.04-.17-.23-.06-.18,.06-.01,.03-.07,.06-.1l.09,.12,.09-.07,.09-.07c-.07-.12-.09,0-.13,0l.02,.03c-.06,.07-.05,.03-.13-.08l.03-.02c.07,.11,.17-.02,.16-.07h.02c-.03-.05,0-.07,0-.1,0-.05,.05-.04,.09-.03,.04,.02,.07,.03,.05-.03,.06-.05,.03,.04,.06,.09l.08-.06c-.03-.07-.01-.06,.01-.05,.02,0,.05,.02,.07-.02,.02-.03-.04-.04-.03-.07,.11,.03,0-.07,.04-.12,.03-.01,.04,.01,.06,.03,.02,.03,.03,.06,.06,.01,.05-.06,.18-.08,.17-.17,.01-.09,.09-.04,.15-.11-.08-.09,0-.07,.02-.06,.11-.07,.2-.14,.26-.24l.04-.03,.09-.06s.1-.02,.05-.09c0-.05-.06-.13-.06-.18l.03-.02s.04,.07,.05,.1c.05,.07,.08,.02,.1-.03,.02-.03,.04-.06,.08-.06,.02-.02,.06-.03,.04-.07l.04-.03c-.01-.06,0-.1-.06-.05-.01-.02-.03-.04,0-.04,0,0,.02-.02,0-.04,.05,0,.08-.12,.14-.06,.02,.05-.06,.05-.02,.1h.01c.11-.07,.16-.15,.23-.23,0-.03,.1-.02,.05-.08l.06-.04c.09,0,0-.1,.05-.12,.17,.12,.14-.15,.14-.24h0c-.06-.02-.05,.07-.09,.1,.04-.03,.03-.12,.09-.1h.02c.14,.14,.19-.05,.08-.16,.03,.03,.05,0,.07,0v.02s.03,0,.04,0c-.08,.03,.03,.11,.07,.09l.06,.09c.08,.07,.16,.17,.24,.24l.09,.14s.09,.03,.1,.09c.01,0,.04-.01,.07-.03,.03-.02,.06-.03,.07-.02,.02,.03-.08,.06-.07,.09-.06,.07,.06,.11,.11,.1,0-.02,.02-.05,.04-.07v.02l.04,.05s-.06,0-.1,.04c.06,.06,.11,.16,.22,.14-.01-.06-.13-.12-.08-.19l.04,.06s.02,.12,.09,.07l.09,.14s.02,.03,0,.05c-.03-.02-.02-.11-.09-.07,.03,.06,0,.12,.07,.17,.02,.08,.09,.07,.12,.12l.02,.03s.03,.05,.05,.08l.13,.3,.09,.2,.04,.1,.05,.1,.04,.09,.08,.02,.16-.12,.06-.03-.02-.02,.02,.02,.16,.18,.1-.03,.07-.11,.12-.06,.07-.11,.18-.16,.1-.04s.07-.04,.06-.08l.06-.04c.1-.08,.2-.15,.26-.25l.11-.07c.07,0,.01-.06,.02-.09h.02s.01,.03,.02,.06l.06-.04-.02-.03c.08-.07,.11-.19,.23-.19,.08-.02,.06-.06,.04-.11,.06,.03,.11-.03,.16-.06-.02-.04-.04-.08,0-.08,0,0,.02,0,.03,0,.02,0,.04,.01,.05-.01,.02-.02,.06-.03,.04-.07,.1-.03,.1-.13,.2-.17,.06-.04,.11-.09,.08-.18h.02c.05,.02,.1,0,.15-.02,.05-.11,.19-.15,.26-.25l.11-.07-.02-.03c.05-.05,.15-.06,.15-.14,.06,0,.11-.02,.12-.08,.04-.01,.06-.04,.06-.08l.06-.04h.02c.09-.04,.08-.14,.18-.17,.08-.02,.09-.09,.13-.13l.14-.09s.14-.03,.11-.11l.05-.03s.1-.02,.06-.08c.24-.2,.5-.38,.62-.6l.02,.03s.15,.01,.12-.08c.11-.06,.21-.13,.28-.22,.07-.03,.12-.07,.1-.15,.53-.35,1-.8,1.6-1.22l.03-.02c.05-.06,.2-.07,.2-.17l.09-.06,.21-.13s.13-.03,.11-.11l.06-.04,.11-.07,.05-.03,.03-.02,.08-.05h.02c.06-.03,.02-.1,.09-.11l.19-.12c.23-.18,.45-.24,.63-.44,.14-.02,.37-.16,.45-.28h.02l.02-.02c.07-.04,.14-.11,.22-.1,.2-.12,.29-.2,.48-.3,.06-.01,.06-.07,.09-.1h.02c.04-.08,.15,0,.14-.1h.02c.17-.05,.33-.18,.5-.28,.05,0,.09-.13,.15,0,.03-.04-.02-.13,.07-.13h.02l.04,.05c.08-.02,.09-.09,.13-.13,.05,.11,.15,0,.13-.04-.03,.03-.07,.05-.12-.01l.12-.08c.03,.09,.14,.1,.1,.02-.01,0-.02,0-.03-.02,0-.01,.02-.02,.01-.04l.23,.06,.04,.06-.08,.04s.02,.07,.06,.05c0-.01,.03-.04,.05-.04l.06,.08h0s.01,.03-.01,.05c-.11-.04-.05,0-.08,.08,.08,0,.05-.05,.14-.05l.03,.05-.1,.05,.03,.06,.1-.05,.03,.05s-.01,.03-.06,.05l.04,.07s.02,.05,0,.08l.02,.03v.02c.09-.05,.11-.01,.14,.01,0,.09,.02,.17,.02,.26l.03,.05c.05-.01,.05,.01,.04,.03,0,.02-.02,.05,.03,.03,.02,0,.04-.02,.04,0l.03,.05,.04,.08s-.04,.04-.09,.07c0,.1,.11,.07,.17,.09v.02c0,.09-.04,.23,.09,.22l-.1,.05s.03,.04,.06,.04c.03,0,.05,0,.06,.02-.08,.09,.08,.07,.08,.15l.02,.03s-.02,.03-.02,.05c0,.04-.02,.15,.09,.1,.06,.05,0,.11,.05,.16l.02,.03c-.07,.05,.03,.09,.03,.13,.04,.12,.05,.15,.13,.24-.09,.07,.06,.04,.05,.1,.04,.12,.08,.19,.11,.28l.03,.07c.02,.08,.08,.09,.12,.14-.07,.06-.02,.2,.06,.2,.08,.18,.12,.36,.24,.53l.02,.03s.03,.16,.12,.15c0,.09,.05,.18,.11,.28l.26,.49c.06,.08,.07,.24,.18,.26l.13,.24c.07,.09,.09,.26,.19,.29l.1,.19s.02,.13,.09,.1l.1,.18,.04,.08c.09,0,.08,.18,.18,.18,.06,.07,.07,.21,.16,.23l.04,.08s.08,.02,.08,.08v.02c.08,.13,.19,.22,.3,.31,.47,.48,.9,1.02,1.68,1.06,.08,0,.15,.03,.27-.02,0,.04,.04,.02,.07,.01,.02,0,.04-.01,.05-.01,.08,.05,.23-.02,.35-.04,.05,0,.13-.05,.18-.05,.07,.03,.24-.09,.37-.15,.09-.06,.29-.13,.31-.19l.06-.03c.17-.23,.3-.45,.22-.68,.04-.05-.02-.17-.09-.16-.03-.05-.07-.09-.1-.14h0l-.36-.43c-.06-.09-.08-.23-.17-.25-.05-.05-.04-.18-.14-.18-.29-.45-.54-.84-.83-1.33v-.02c.06-.07-.05-.12-.09-.15,.04-.05-.03-.18-.1-.18-.18-.29-.4-.8-.58-1.09l-.09-.18c-.14-.24-.29-.57-.41-.76l-.04-.08-.02-.03c.03-.08-.06-.25-.15-.28l-.02-.03v-.03l-.09-.15c.04-.1-.09-.2-.12-.29-.07-.09-.08-.26-.19-.29l-.03-.05c.06-.07-.05-.13-.06-.19l-.11-.21c.03-.07-.05-.22-.12-.23v-.02l-.03-.05c.06-.06-.05-.12-.05-.18l-.07-.13-.04-.08-.16-.29-.03-.05c-.06-.07-.06-.22-.16-.23l-.09-.16s-.03-.16-.12-.14l-.06-.11-.03-.05-.05-.1v-.02l.03-.02-.04-.06-.17-.32-.17-.31-.25-.47-.38-.71-.24-.46-.24-.44-.11-.21-.06-.04-.06-.03-.15,.09Z"/></clipPath><linearGradient id="at" x1="79.48" y1="118.13" x2="80.45" y2="118.13" gradientTransform="translate(-2480.41 -3668.57) scale(31.33)" xlink:href="#t"/><clipPath id="au"><path class="cf" d="M12.29,36.01s.04,0,.06,0c.01,.05,.03,.05,.07,.09,0-.03-.02-.07-.03-.11l-.02-.03s-.02,0-.03,0c-.03,0-.05,.03-.04,.06"/></clipPath><linearGradient id="av" x1="-725.32" y1="376.59" x2="-724.35" y2="376.59" gradientTransform="translate(111.19 -15.33) scale(.14)" xlink:href="#t"/><clipPath id="aw"><path class="cf" d="M13.9,37.89s-.04,.02-.05,.04l-.06,.04s0,.04,0,.05c-.07,0,.05,.11,.04,.15,.05,.06,.08-.04,.12-.05,.06-.03,.09-.08,.08-.15-.02,0-.03,.02-.05,0,0-.05-.03-.08-.05-.08h-.02Z"/></clipPath><linearGradient id="ax" x1="-318.15" y1="245.52" x2="-317.18" y2="245.52" gradientTransform="translate(101.21 -29.43) scale(.27)" xlink:href="#t"/></defs><g class="bd"><path class="bi" d="M181.52,29.65h194.8v11.08H181.52v-11.08Z"/></g><g id="d"><polygon class="cf" points="15.12 70.93 15.12 0 868.12 0 868.12 70.93 15.12 70.93"/></g><rect class="ck" x="165.71" y="13.36" width=".51" height="44.06"/><g><g class="c`"><rect class="bq" x="50.84" y="42" width="8.39" height="7.83"/></g><g class="cv"><rect class="ce" x="67.61" y="42" width="6.94" height="7.83"/></g><g class="ct"><rect class="co" x="82.88" y="42" width="3.04" height="7.83"/></g><g class="cu"><rect class="bf" x="94.47" y="42" width="6.42" height="7.83"/></g><g class="bv"><rect class="cj" x="109.31" y="41.86" width="7.74" height="8.1"/></g><g class="bs"><rect class="bt" x="125.22" y="42" width="8.36" height="7.83"/></g><g class="cl"><rect class="bc" x="141.59" y="42" width="8.38" height="7.83"/></g><g class="cq"><rect class="ay" x="46.4" y="22.47" width="17.08" height="15.93" transform="translate(.29 61.4) rotate(-58.52)"/></g><g class="br"><rect class="bk" x="55.56" y="23.58" width="15.36" height="12.12" transform="translate(4.94 68.09) rotate(-58.52)"/></g><g class="ca"><rect class="cg" x="63.83" y="25.23" width="13.98" height="13.78" transform="translate(6.44 75.74) rotate(-58.51)"/></g><g class="cm"><rect class="bo" x="73.62" y="26.18" width="12.55" height="11.66" transform="translate(10.87 83.42) rotate(-58.51)"/></g><g class="bp"><rect class="bx" x="81.71" y="26.18" width="12.56" height="11.66" transform="translate(14.74 90.32) rotate(-58.52)"/></g><g class="b`"><rect class="bw" x="90.02" y="25.22" width="13.99" height="13.8" transform="translate(18.96 98.08) rotate(-58.51)"/></g><g class="by"><rect class="bh" x="102.36" y="20.95" width="18.71" height="18.98" transform="translate(27.41 109.8) rotate(-58.51)"/></g><g class="bm"><rect class="bj" x="113.61" y="23.58" width="15.36" height="12.12" transform="translate(32.67 117.59) rotate(-58.51)"/></g><g class="cb"><rect class="cc" x="122.15" y="25.69" width="13.41" height="12.86" transform="translate(34.17 125.23) rotate(-58.51)"/></g><g class="be"><rect class="cn" x="130.01" y="25.02" width="14.07" height="12.22" transform="translate(38.92 131.74) rotate(-58.51)"/></g><g class="cw"><rect class="cp" x="138.94" y="25.22" width="13.99" height="13.8" transform="translate(42.32 139.79) rotate(-58.51)"/></g><g><g class="ch"><rect class="bb" x="11.98" y="35.23" width="33.42" height="14.54"/></g><g class="cs"><rect class="cd" x="12.29" y="43.2" width=".24" height=".15"/></g><g class="bl"><rect class="ci" x="9.57" y="22.34" width="30.37" height="19.66"/></g><g class="bg"><rect class="bn" x="12.28" y="35.95" width=".14" height=".15"/></g><g class="bu"><rect class="cr" x="13.71" y="37.89" width=".32" height=".34"/></g></g></g></svg>