<?xml version="1.0" encoding="UTF-8"?><svg id="a" xmlns="http://www.w3.org/2000/svg" xmlns:xlink="http://www.w3.org/1999/xlink" viewBox="0 0 780 250"><defs><style>.x{fill:#fff;}.y{clip-path:url(#l);}.a`{fill:url(#r);}.aa{clip-path:url(#h);}.ab{fill:url(#u);}.ac{clip-path:url(#n);}.ad{clip-path:url(#o);}.ae{clip-path:url(#m);}.af{fill:url(#b);}.ag{clip-path:url(#c);}.ah{clip-path:url(#t);}.ai{clip-path:url(#e);}.aj{clip-path:url(#d);}.ak{clip-path:url(#v);}.al{fill:none;}.am{clip-path:url(#p);}.an{clip-path:url(#f);}.ao{clip-path:url(#j);}.ap{fill:url(#w);}.aq{fill:#50b748;}.ar{clip-path:url(#q);}.as{clip-path:url(#s);}.at{clip-path:url(#i);}.au{clip-path:url(#k);}.av{clip-path:url(#g);}</style><linearGradient id="b" x1="0" y1="125" x2="780" y2="125" gradientTransform="matrix(1, 0, 0, 1, 0, 0)" gradientUnits="userSpaceOnUse"><stop offset="0" stop-color="#008ec6"/><stop offset="1" stop-color="#006cb6"/></linearGradient><clipPath id="c"><path class="x" d="M142.26,149.31c.31-.83,.6-1.69,.81-2.66h.05c.12,.96,.39,1.85,.68,2.66l1.3,3.8h-4.25l1.41-3.8Zm-.93-5.46l-6.4,15.56h-1.46v2.65h6.77v-2.65h-1.74l1.29-3.49h6.27l1.18,3.49h-1.49v2.65h7.24v-2.65h-1.46l-6.01-15.56h-4.19Z"/></clipPath><clipPath id="d"><path class="x" d="M178.06,146.5h1.72c2.32,0,3.2,.88,3.2,2.65s-.93,2.66-2.96,2.66h-1.96v-5.31Zm-5.59-2.66v2.66h1.8v12.91h-1.63v2.65h7.08v-2.65h-1.64v-4.79h.89c.68,0,1.14,.31,1.5,.91l2.21,3.8c1.41,2.39,2.08,2.73,3.05,2.73h2.91v-2.65h-.68c-.49,0-.93-.21-1.48-1.15l-1.64-2.73c-.91-1.51-1.43-1.85-2.33-1.92v-.05c2.03-.08,4.29-2.01,4.29-4.71,0-1.85-.8-3.51-2.44-4.32-1.04-.52-1.7-.68-3.83-.68h-8.04Z"/></clipPath><clipPath id="e"><polygon class="x" points="208 143.85 208 146.5 209.64 146.5 209.64 159.41 208 159.41 208 162.06 215.08 162.06 215.08 159.41 213.43 159.41 213.43 146.5 215.08 146.5 215.08 143.85 208 143.85"/></clipPath><clipPath id="f"><path class="x" d="M235.84,143.85l-.16,5.08h3.28l.15-2.42h6.25v.05c-.39,.26-.82,.68-1.25,1.25l-9.13,11.73v2.52h14.73l.21-5.07h-3.31l-.15,2.42h-6.9v-.06c.42-.26,.81-.67,1.25-1.24l8.94-11.6v-2.66h-13.91Z"/></clipPath><clipPath id="g"><path class="x" d="M273.59,152.95c0-3.51,1.46-6.45,4.89-6.45s4.89,2.94,4.89,6.45-1.3,6.46-4.89,6.46-4.89-2.94-4.89-6.46m-4.11,0c0,5.13,2.62,9.42,9,9.42s9.01-4.29,9.01-9.42-2.81-9.42-9.01-9.42c-5.74,0-9,4.45-9,9.42"/></clipPath><clipPath id="h"><path class="x" d="M319.38,143.85v2.66h1.67v9.44h-.05c-.24-.7-.73-1.43-1.54-2.44l-7.67-9.66h-5.28v2.66h2.31v12.91h-1.69v2.65h6.43v-2.65h-1.77v-9.63h.05c.05,.26,.41,.86,.85,1.41l8.67,10.88h2.81v-15.56h1.8v-2.66h-6.59Z"/></clipPath><clipPath id="i"><path class="x" d="M353.39,149.31c.31-.83,.6-1.69,.8-2.66h.05c.14,.96,.39,1.85,.68,2.66l1.31,3.8h-4.24l1.41-3.8Zm-.94-5.47l-6.4,15.56h-1.45v2.65h6.76v-2.65h-1.75l1.31-3.49h6.27l1.17,3.49h-1.48v2.65h7.22v-2.65h-1.45l-6.01-15.56h-4.19Z"/></clipPath><clipPath id="j"><path class="x" d="M131.27,110.2c0,4.78,2.16,7.25,8.53,8.88l3.4,.89c4.16,1.06,5.04,2.21,5.04,3.8,0,2.34-1.68,4.16-5.48,4.16-1.81,0-3.58-.13-5.21-.8v-4.06h-6.45v8.17c4.15,1.37,7.69,1.72,11.08,1.72,8.79,0,12.77-4.29,12.77-10.16,0-6.4-5.04-7.91-9.58-9.06l-3.72-.93c-2.02-.49-3.66-1.15-3.66-3.4,0-1.72,1.37-3.93,5.66-3.93,1.5,0,3,.35,4.15,.75v3.76h5.83v-7.38c-2.66-1.01-6.41-1.64-10.17-1.64-8.75,0-12.19,4.33-12.19,9.24"/></clipPath><clipPath id="k"><path class="x" d="M156.4,109.31v4.51h3.01v14.1h-2.52v4.51h11.36v-4.51h-2.64v-18.61h-9.2Zm1.73-7.69c0,2.3,1.58,3.84,4.15,3.84s4.15-1.55,4.15-3.84-1.58-3.84-4.15-3.84-4.15,1.55-4.15,3.84"/></clipPath><clipPath id="l"><path class="x" d="M179.94,113.02c2.88,0,4.69,1.81,4.69,4.99h-9.41c.27-3.14,1.9-4.99,4.72-4.99m-11.39,7.95c0,6.41,3.76,11.97,12.68,11.97,3.14,0,5.66-.4,8.53-1.46l.31-4.9c-2.61,1.11-4.51,1.59-7.47,1.59-4.33,0-7.16-2.25-7.34-5.92h16.09c0-7.47-3.23-13.48-11.19-13.48-7.24,0-11.61,4.99-11.61,12.2"/></clipPath><clipPath id="m"><path class="x" d="M201.07,114.62h-.09c.31-2.16,.4-3.71,.4-5.3h-8.98v4.51h3v14.1h-2.52v4.51h11.62v-4.51h-2.92v-7.47c0-3.8,2.38-6.1,5.74-6.1,.61,0,1.32,.09,1.99,.22l.39-5.52c-.66-.13-1.28-.27-2.03-.27-3.53,0-5.7,1.95-6.62,5.83"/></clipPath><clipPath id="n"><path class="x" d="M235.65,125.66c0-1.99,1.59-3.05,6.63-3.05h1.72c0,4.24-2.47,5.83-4.95,5.83s-3.41-1.42-3.41-2.78m-5.07-14.49v5.87h5.3v-3.09c1.06-.4,2.96-.66,3.84-.66,2.92,0,4.38,.93,4.38,4.42v1.1c-4.51,0-7.65,.22-9.99,1.06-2.44,.88-4.64,3.05-4.64,6.36,0,3.62,2.52,6.72,7.73,6.72,3.9,0,6.01-1.63,7.56-5.13h.09c-.22,.89-.31,1.68-.31,3.18v1.42h7.78v-4.51h-2.61c.09-3.27,.22-6.45,.22-10.25,0-6.71-3.93-8.88-10.11-8.88-4.12,0-7.73,1.55-9.23,2.39"/></clipPath><clipPath id="o"><path class="x" d="M291.49,101.49h-12.02v4.5h3.18l-6.05,17.68c-.4,1.15-.75,2.43-.93,3.71h-.08c-.18-1.28-.53-2.56-.93-3.71l-6.05-17.68h2.6v-4.5h-12.55v4.5h2.47l10.39,26.43h7.2l10.39-26.43h2.38v-4.5h0Z"/></clipPath><clipPath id="p"><path class="al" d="M43.22,145.41h0Zm39,14.37c-.09-.14-.18-.29-.24-.44,.07,.15,.16,.3,.25,.44h0Zm-20.43-4.71s-.01,0-.01,0c0,0,0,0,.01,0m.02-.18h0Zm11.38-5.08h0Zm-27.51-4.47c.15,.11,.1,.13,.27,.19,.02,.03,0,.07,.03,.09,.04,.04,.05,.06,.03,.06-.06,0-.37-.22-.33-.33m-.74-.37c.05-.06-.02-.08,0-.13,.21,.07,.21,.14,.4,.27l.1,.07c-.12,.04-.19-.03-.26-.09-.05-.06-.11-.11-.21-.1l-.04-.02Zm0-.2s-.09,.02-.13,.05c-.05,.04-.09,.08-.15,.03,.02-.04,.04-.03,.07-.02,.02-.08-.02-.15-.03-.22-.02-.03-.04,0-.07,.02,.04-.19,.17,.08,.3,.14m-1.31-.35c.07-.08,.04-.12,.1-.2,.14,.04,.1,.12,.1,.2l-.04,.04s-.04,0-.06,0h-.02s-.07,0-.09-.04m.61-.26c.06,.04-.1,.31,.1,.2-.08-.06-.06-.06-.02-.06,.04,0,.1,0,.13-.07l.04,.02-.04,.04c.13,.1-.02,.03-.07,.09,.03,.07,.23,.08,.17,.18-.04-.02-.09-.07-.14-.02l-.03-.02c-.15-.16-.39-.1-.37-.32,.1-.04,.12-.01,.12,.01,.01,.02,.01,.03,.02,.03,.02,0,.04-.02,.1-.08m1.39-1.12l-.03-.02c0-.13-.14-.13-.24-.16-.06-.07-.13-.14,.01-.27,.02,.16,.05,.15,.23,.3l.06,.04c.12-.07,.15,0,.13,.05,0,.04-.04,.08-.09,.08-.02,0-.04,0-.08-.02m74.71-.5c-.27,.05-.47,.14-.76,.19,.28-.05,.49-.14,.76-.19m-11.04-14.21c-.05-.04-.08-.05-.11,0-.27,.03-.51,.13-.75,.29-.04-.04-.08-.05-.1,0-.24,.07-.45,.22-.67,.32-.2,.11-.4,.17-.57,.33-.33-.02-.54,.37-.85,.43l-.03,.03c-.1,.22-.3,.07-.41,.26-.04,.06-.09,.09-.16,.07l-.05,.06c-.22,.16-.46,.24-.67,.46-.24,.12-.48,.29-.7,.49-.15,.08-.27,.27-.43,.29-.08,.09-.14,.2-.24,.16l-.2,.25c-.24,.11-.44,.34-.67,.46-.26,.22-.51,.41-.75,.67-.07-.08-.11,.02-.15,.07-.12,.17-.28,.14-.39,.35-.11,.03-.2,.09-.28,.22-.14,.12-.3,.18-.42,.38-.04-.04-.08-.04-.1,0l-.16,.19s-.05,.04-.08,.04c-.04,0-.08,0-.1,.06-.2,.26-.45,.3-.65,.54-.06-.06-.09-.01-.12,.04l-.14,.15c-.07-.07-.1,.03-.15,.07-.28,.27-.56,.47-.85,.67l-.05,.06c-.1,.17-.24,.1-.34,.29-.19,.15-.39,.28-.57,.45l-.03,.03c-.17,.12-.17,.28-.14,.46-.15-.25-.25-.15-.33-.02-.22,.1-.41,.26-.6,.48-.07-.07-.1,.03-.15,.07-.08,.16-.2,.08-.29,.22l-.08,.09c-.15,.2-.32,.32-.48,.44-.14-.07-.22,.21-.34,.28l-.16,.18c-.13-.07-.2,.19-.32,.25-.11,.09-.22,.09-.31,.25-.13,.06-.04,.19-.15,.26-.05-.06-.11-.11-.13-.04l-.16,.18c-.22,.15-.54,.49-.83,.71-.02,.02-.04,.01-.06,0-.02,0-.03,0-.04,0l-.22,.24-.25,.27c-.18,.02-.3,.15-.37,.31-.07-.02-.14,.05-.2,.13l-.08,.09c-.1-.1-.15,.13-.23,.16l-.11,.12c-.16,.01-.16,.15-.34,.27l-.06,.06-.05,.06c-.16,.11-.28,.11-.48,.32l-.27,.3c-.16,.11-.32,.2-.46,.39-.26-.08-.45,.45-.7,.48l-.14,.14c-.06,.05-.01,.12-.07,.16-.13-.08-.23,.04-.33,.17-.08,.11-.16,.21-.26,.19-.08,.12-.18,.15-.26,.19-.38,.32-.85,.62-1.14,1,0,0,0,0,0,0,.02-.03,.08-.07,.04-.1-.34-.07-.39-.41-.66-.59-.1-.08-.08-.24-.24-.22-.02-.03,0-.06,.04-.1l-.12-.11s-.04-.02-.06-.02c-.02,0-.04,0-.07-.03,.06-.16-.18-.12-.24-.22l.04-.04c-.09-.09-.13-.29-.3-.27-.04-.04,.01-.09-.05-.12-.11-.14-.23-.15-.34-.23,.02-.03,.07-.07,.04-.1-.1,.08-.15-.1-.14-.13-.08-.08-.22-.16-.2-.26-.03-.01-.06-.05-.1-.02-.04,.02-.07,.02-.1-.02l-.09-.08c.06-.07,.04-.13-.04-.18l-.03-.03c-.41-.14-.51-.57-.81-.73,.18-.1-.15-.3-.12-.11-.06-.09,.04-.19-.13-.26l-.06-.05c-.13,.02-.35-.13-.26-.31-.34,.01-.29-.32-.54-.49l-.03-.03c-.09-.07-.18-.2-.28-.18-.17-.07-.07-.18-.13-.26-.06-.02-.1,0-.09-.08l-.09-.08-.21-.19-.04,.04-.12-.11c.06-.15-.14-.06-.22-.28-.04-.03-.05-.08-.06-.12-.21-.11-.27-.4-.44-.41l-.11-.11c.02-.14-.23-.24-.32-.36l-.12-.11c.04-.21-.35-.18-.32-.36-.06-.07-.14-.14-.21-.13-.12-.03-.03-.24-.18-.17l-.18-.15-.03-.06c.02-.1-.04-.15-.12-.2l-.16-.19s0-.03,0-.05l-.02,.02-.32-.36c-.06-.08-.09-.17-.2-.24-.04-.03-.06-.06-.1-.1l-.02-.03c-.08-.11-.15-.22-.28-.32l-.08-.1c-.04-.08-.1-.17-.18-.2l-.15-.18s-.05-.05-.08-.08l-.22-.26s-.05-.07-.06-.12l-.26-.25s-.02-.08-.05-.12c-.35-.4-.74-.73-1.15-1.03l-.02-.02-.04-.02c-1.05-.73-2.27-1.12-3.52-1.17-1.6-.06-3.22,.44-4.53,1.55l-.13,.11s-.05,.05-.09,.09l.04,.04-.02,.03c-.22,.15-.52,.33-.81,.6-.06-.05-.1,.04-.15,.08l-.09,.09-.2,.2c-.15-.02-.26,.24-.4,.34l-.06,.06-.06,.06c-.2,.06-.38,.33-.58,.43l-.02,.03c-.1-.03-.14,.05-.18,.13-.04,.08-.08,.16-.16,.14-.18,.1-.16,.34-.34,.34-.1-.07-.16,.13-.24,.16-.11,.06-.06,.14-.13,.21-.13,.02-.26,.16-.38,.24l-.2,.2-.2,.2c-.13-.04-.22,.18-.26,.26-.32,.1-.48,.47-.75,.61-.12,.12-.26,.24-.3,.38-.02,.02-.04,0-.07,0-.03-.01-.06-.03-.09,.02l.04,.04-.08,.08-.12,.11c-.38,.3-.55,.44-.89,.81-.09,.05-.18,.07-.26,.19-.11,.06-.02,.15-.14,.21l-.04-.04c-.12,.08-.27,.15-.31,.31-.09-.04-.16,.08-.24,.09l-.43,.42-.11,.11c-.1-.03-.14,.04-.18,.12-.04,.07-.08,.14-.14,.12l-.43,.42c-.09-.02-.12,.04-.15,.09-.03,.05-.06,.11-.12,.09-.03,.05-.06,.09-.11,.12-.03-.02-.07-.03-.11-.06-.1-.14-.22-.06-.32-.18-.11-.1-.23-.18-.35-.2-.14-.06-.29-.14-.44-.28-.05,.08-.1,.07-.16,0,.07-.09-.12-.12-.15-.19l-.03,.04-.22-.18c-.07-.11-.14-.05-.22-.11l-.12-.1-.06-.04c-.12-.05-.23-.27-.35-.21l-.03-.03c-.16-.1-.33-.33-.5-.33-.03-.01-.06-.05-.1-.01l-.09-.07s-.02-.07-.03-.09c-.16-.17-.34-.15-.51-.33-.08-.02-.03-.23-.16-.13l-.28-.22-.22-.18-.19-.15-.09-.08-.19-.15-.25-.2-.19-.15-.38-.3-.31-.26-.06-.05-.56-.45c.01-.11-.24-.31-.34-.28-.13-.02-.26-.13-.38-.23l-.09-.08c-.05,.12-.09,.08-.13,.04-.03-.03-.07-.07-.1,0,.03,.14,.32,.2,.21,.38-.12-.12-.24-.06-.35-.21-.03,.22-.11,.11-.17,.29l.09,.08s-.06,.03-.1,.06l-.15-.13-.18,.22c.14,.14,.16,.32,.3,.46l1.17,.92c.46,.32,.73,.69,1.19,1.01,.16,.08,.12,.21,.28,.29l.1,.07,.28,.22c.37,.2,.54,.61,.88,.69l.04,.03c.18,.13,.2,.27,.41,.31-.03,.04,0,.07-.03,.11-.2-.15-.38-.32-.58-.38l-.09-.07c.04-.07-.05-.1-.1-.14l-.03,.04-1.86-1.46-.19-.15-.26-.2c0-.11-.26-.33-.37-.3l-.07-.05c-.11-.07-.07-.18-.21-.24l-.04,.04-.04-.02c-.19-.08-.17-.33-.37-.3l-.04-.03c0-.16-.29-.25-.4-.39-.13-.14-.24-.09-.29-.22-.16,.13,.06,.16-.08,.29-.1-.08-.19-.12-.29-.09,.1,.14,.09,.31,.27,.43l.04,.02,.03,.02,.13,.1-.07,.09,.29,.22c-.03,.13,.21,.19,.28,.29,.02,.03,.07,.05,.03,.1l-.26-.2-.35-.27-.06-.05-.26-.2-.25-.2c-.09,.09-.12,.17-.08,.23-.03,.06-.02,.12,.02,.16-.02,.03-.04,.02-.07,.02-.02,0-.04,0-.06,0-.12,.07-.22,.04-.34,.17-.07,.09,.04,.12-.07,.22-.04-.02-.09-.08-.13-.03,.08,.06,.04,.15,.16,.19l.06,.05s-.04,.03-.07,.02c-.02,0-.04,0-.06,.02-.07-.01-.13-.18-.2-.08,.02,.04,0,.09,0,.14-.03,.02-.06,0-.1-.01-.04-.02-.09-.05-.14,.05,.12,.03,.04,.13,.13,.17-.03,.04-.07,.03-.1,.06,.2,.15,.3,.34,.54,.48-.05,.11,.17,.15,.22,.24l.2,.14c.36,.4,.99,.72,1.24,1.15-.16-.09-.32-.14-.48-.3l-.29-.21-.29-.22-.1-.07-.35-.27-.32-.24-.07-.05-.29-.22-.13-.1-.13-.09c-.14-.09-.28-.28-.42-.18,.03,.04,0,.11,.09,.14-.09,.06,.16,.16,0,.13-.1,.04-.16,.15-.2,.26-.05,.09-.1,.09-.14,.08-.04,0-.06,0-.1,.02,.14,.15,.46,.25,.48,.43l-.06-.05-.36-.26c-.12-.14-.13,.02-.2,.13-.04-.04-.22-.18-.16-.05,.08,.05,.12,.12,.09,.2-.03,0-.05,0-.08,0-.05,0-.1-.02-.16,.04l.13,.09s-.04,.03-.07,.03c-.02,0-.04,0-.06,.01,.09,.07-.18,.06,0,.13,0,.18-.11,.06-.2,0-.24,.2-.05,.28-.08,.42-.02,0-.04,0-.07,0-.07,0-.15-.02-.23,.13l.07,.05-.04,.04c-.11-.02-.21-.29-.33-.1,.26,.03,.24,.23,.42,.37l.1,.07c.09,.09,.33,.15,.22,.3l-.16-.12-.07-.05s-.07-.04-.1,0c-.02-.1-.24-.3-.36-.26,0,.07,.04,.12,.13,.16-.06,.08-.12,.08-.17,.02-.16,.14,.07,.16-.08,.29-.09-.06-.18-.16-.26-.05,0,.23,.44,.33,.42,.57l-.33-.23c-.05-.03-.06-.07-.07-.11l-.1-.07c-.07-.01-.15-.19-.23-.09,.13,.08-.02,.04-.07,.15,.07,.03,.04,.1,.1,.13l.04,.02c-.07,.1-.14-.06-.2-.07-.09,.2,.22,.28,.26,.45,.19,.11,.21,.27,.43,.37-.04,.03-.07,.08-.1,.06-.14-.17-.4-.32-.53-.5-.08,.02-.16-.03-.24-.1-.04-.06,.06-.04,.1-.06-.11-.02-.07-.26-.23-.16,.02,.06,.02,.12,0,.2-.12,.26,.18,.38,.22,.49-.02-.03-.1,0-.1,0,.13,.19,.24,.21,.43,.43-.04,.07,.05,.09,.1,.13l-.07,.09c-.23-.11-.25-.28-.46-.39-.08-.16-.34-.26-.44-.43-.04,.06-.09,.09-.14,.11,.05,.05,.2,.07,.07,.18,.15,.05,.11,.16,.23,.22,.02-.04,.02-.07-.03-.09,.13-.1,.13,.11,.2,.14-.05,.07-.11,.04-.16,.03-.03-.01-.07-.02-.11-.01-.09-.03,0-.34-.2-.13,.15,.05,.08,.17,.24,.22-.04,.04-.07,.04-.1,.06-.19-.05-.12-.35-.33-.29,.04,.1,.1,.22-.07,.22-.1,.28-.01,.51,.23,.68,.08,.11,.22,.19,.26,.31,.04,.03,.1,.06,.06,.11-.41-.18-.61-.6-.87-.72,.04,.1,.24,.24,.06,.31-.13-.03,.12,.34,.27,.44-.07,.1,.13,.11,.17,.18l.16,.11c-.18,.24-.46-.17-.6-.21,.04,.02-.1,.11,.26,.25,.02,.14,.25,.21,.37,.31,.02,.15,.34,.2,.34,.36-.16,.05-.16-.12-.26-.18l-.3-.2c-.13-.13-.38-.41-.54-.42,.16,.12,.13,.31,.34,.42,.11,.07,.11,.18,.27,.24l.16,.11c.28,.29,.42,.61,.88,.84,.05,.11,.13,.16,.27,.18-.04,.04,.02,.06,.03,.09-.03,.06-.01,.12-.1,.06,.04-.12-.19-.15-.27-.24-.59-.37-.02,.06,.17,.24,.27,.18,.38,.41,.67,.58l.03,.02c.04,.14,.24,.23,.34,.36,0,.09,.14,.15,.23,.22,.06,.09,.14,.18,.27,.25,0,.06,.13,.26,.2,.2,.15,.07,.2,.05,.2,.2,.06,.14,.2,.3,.37,.31,.17,.11,.13,.15,.3,.21l.1,.07c-.14,.22,.12,.16,.24,.22,.14,.08,.06,.07-.04,.17,.02,.05,.07,.03,.11,0,.05-.03,.09-.06,.05,.04,.04,.13,.36,.35,.5,.34l.06,.04c-.04,.07,.06,.09,.1,.13-.06,.07,.15,.21,.2,.14,.16,.14,.44,.24,.5,.41,.04-.05,.09-.09,.13-.04-.06,.07-.04,.12,.04,.15l.23,.16,.13,.09c.09-.02,.15,.06,.21,.13,.07,.07,.14,.15,.25,.13l.19,.14,.04,.02c.24,.18,.31,.15,.53,.31l.1,.07,.2,.14c.11,.04,.24,.25,.35,.19l.04,.02,.03,.02c-.04,.05,.05,.12,.1,.07l.19,.14,.3,.21c.44,.22,.65,.55,1.01,.73l.04,.02c-.07,.09,.12,.12,.16,.18,.12,.18,.31,.38,.45,.39,.09,.04,.12,.1,.13,.16l.13,.09c-.07,.09,.1,.1,.13,.16,.06,.09,.1,.12,.15,.13l.85,.18,.69,.43c.11,.07,.23,.13,.34,.2,.02,.01,.04,.02,.06,.03,.1,.05,.2,.1,.3,.14,.06,.03,.14,.05,.2,.07,.06,.02,.11,.04,.16,.06,.08,.02,.14,.04,.22,.06,.05,.01,.11,.03,.17,.04,.07,.02,.14,.02,.2,.04,.06,0,.12,.02,.18,.03,.07,0,.14,.01,.22,.02,.05,0,.11,.01,.17,.02,.08,0,.15,0,.23,0,.02,0,.04,0,.06,0,.03,0,.06,0,.09,0,.08,0,.17-.01,.26-.02,.04,0,.08,0,.13-.01,.08-.01,.17-.03,.26-.04,.04,0,.08-.01,.12-.02,.09-.02,.17-.04,.25-.07h.04l.29,.05c.89,.19,1.78-.33,2.06-1.21,0-.04,.02-.08,.04-.14,.12-.06,.26-.06,.38-.24-.02-.04-.07-.07-.04-.1,.03-.05,.07-.04,.11-.04,.05,0,.09,.02,.13-.06l.03-.03c.26-.04,.27-.24,.36-.44,.04-.06,.1-.03,.16,.06,.05-.18,.23-.16,.21-.36l.11,.11c.08-.05,.1-.11,.05-.19,.01-.02,.03-.04-.01-.07,.05-.03,.11,.05,.16,.05,.2-.5,.79-.44,1.03-.96,.13,.04,.23-.2,.34-.28,.24-.35,.62-.35,.56-.7,.08-.1,.17-.18,.27-.13,.09,.07,.15-.13,.23-.16,.09,.04,.3-.17,.2-.27,.03-.05,.07-.04,.1-.03,.04,0,.08,.02,.11-.04,.06-.08,.13,0,.18-.1l.12-.11,.08-.09c.08-.08,.15-.18,.24-.16,.1-.12,.21-.21,.32-.24l-.04-.04c.17-.02,.31-.26,.46-.39,.02-.04,.09-.07,.04-.12l.06-.06,.04,.04c.1-.04,.2-.1,.29-.22,.17,.03,.04-.13,.14-.21,.08,.02,.16-.02,.24-.09l-.07-.07,.09-.09c.04,.05,0,.09,.07,.14,.11-.09,.02-.21,.1-.31,.13,.1,.12-.02,.18-.1,.04-.02,.09-.05,.14-.07h0c.52-.3,.94-.88,1.51-1.27l.17-.17,.24,.16c.1,.12,.15,.21,.33,.31l-.04,.04c.43,.49,1,1.08,1.4,1.49-.05,.11,.16,.19,.22,.29,.02,.04,.04,.05,.06,.06h0c.31,.35,.72,.82,1.02,1.19l.04-.04s.1,.1,.01,.16l.17,.17c-.06,.07,.13,.26,.2,.2,.03,.01,.05,.05,.09,.02,.04,.06,.18,.11,.04,.19,.06,.09,.13,0,.18,.1-.05,.05,.02,.09-.02,.13,.05,.07,.11,.07,.18,.07,.04,0,.09,0,.13,.02,.06,.09-.06,.37,.18,.33l.06,.06c0,.17,.08,.13,.2,.2,.17,.07,0,.17,.09,.25,.18,.23,.31,.26,.43,.59,.06-.09,.1-.06,.14-.03,.03,.02,.06,.04,.09,.03,.07,.23,.21,.58,.45,.68,.13,.2,.2,.21,.39,.4,.08,.05,.1,.12,.1,.18-.03,.18,.27,.11,.14,.31,.04-.02,.07-.02,.1,.02,.05,.04,.05,.31,.2,.13l.09,.09,.09,.09,.17,.17c.16,.32,.36,.74,.73,.91-.1,.07-.02,.17,.12,.28,.34,.2,.47,.44,.75,.78,.21,.15,.24,.45,.46,.39,.03,.28,.14,.35,.4,.57,.05,.05,.05,.27,.19,.2,.11,.14,.22,.41,.36,.44l.08,.09c.13,.11,.06,.16,.2,.2l.02,.03c.05,.08,.12,.16,.18,.24,.75,.88,1.7,1.49,2.73,1.84l.02,.02,.1,.02c.43,.14,.89,.23,1.34,.27h.14c.37,.03,.75,.04,1.12,0,.14,.03,.28,.04,.42,.05h.02c.66,.04,1.31-.15,1.85-.53h0c.26-.19,.49-.41,.69-.68l.31-.22c.18-.13,.37-.28,.59-.38,.12-.2,.26-.26,.47-.31l-.03-.04,.06-.05,.03-.02c.17,.03,.31-.23,.47-.31l.12-.1c.08,.1,.13-.07,.2-.08,.1,.07,.14-.16,.18-.22,.2-.05,.19-.15,.37-.24,.3,0,.38-.25,.66-.4l.12-.1c.14-.16,.3-.09,.34-.28,.14,.11,.03-.12,.16-.13,.14-.11,.34-.05,.38-.23,.07-.03,.31-.02,.25-.13,.28-.11,.49-.26,.7-.41l.06-.05c.12-.04,.08-.14,.14-.19,.08,.16,.14,.02,.2-.01l.06-.05,.04-.02c.08-.1,.18,0,.25-.13l.16-.13,.04-.02c.13-.11,.26-.24,.41-.26l.1-.07c.1,.05,.14-.02,.17-.09,.04-.07,.07-.13,.15-.09,.16-.07,.27-.12,.34-.27,.07,.01,.13,0,.19-.08,.08-.13,.24-.01,.22-.18,.13-.02,.2-.07,.25-.2l.03-.02,.08,.09c.08-.07,.2-.13,.18-.22,.06-.03,.12-.17,.2,0l.22-.18s-.08-.09-.05-.12c.02-.01,.04,0,.06,0,.02,0,.04,0,.05,0,.12,.02,.35-.04,.35-.2,.03-.06,.06-.05,.1-.05,.04,0,.06,0,.1-.03,.15,0,.28-.14,.41-.25,.22-.12,.61-.26,.7-.48,.2-.04,.31-.24,.45-.27,.12,0,.4-.12,.39-.22l.07-.05c.37-.12,.71-.43,1.06-.59l.42-.32s.04,0,.06,0c.02,0,.05,0,.07-.02,.25-.15,.5-.27,.74-.49,.07,.07,.12-.02,.17-.05l.45-.34c.21-.03,.42-.15,.62-.31l.26-.2c.08,.11,.13-.07,.2-.07,.19-.15,.4-.16,.59-.36,.1,.11,.15-.08,.23-.09l.2-.15c.07,.07,.12,0,.17-.04l.32-.24s.08,.04,.11,0c.14-.17,.31-.13,.46-.26l.2-.14c.07,.08,.12,0,.17-.04,.06-.04,.09-.09,.09-.15,.11-.01,.21,.02,.31-.06l.29-.22c.38-.12,.74-.35,1.1-.55,.67-.3,1.34-.67,2-1.02,.21-.14,.44-.16,.64-.37,.04,.04,.08,.04,.11,0,.18-.2,.41-.17,.6-.34,.18-.03,.36-.16,.53-.29,.21,0,.39-.17,.59-.23l.17-.12,.14-.06c.16-.04,.3-.18,.46-.27,.1,.13,.13-.05,.21-.06,.12-.15,.29-.09,.41-.19,.2-.07,.4-.14,.58-.3,.24-.02,.44-.3,.7-.29,.15-.07,.27-.27,.45-.21l.03-.02c.12-.1,.24-.17,.38-.16l.07-.04,.13-.09c.11-.15,.27-.05,.38-.16l.37-.25c.09-.13,.22-.02,.32-.11l.51-.33,.2-.13c.12,.08,.38-.09,.34-.22l.27-.17c-.02-.1,.06-.15,.15-.2-.05-.11,.12-.09,.03-.22,.07-.26-.3-.74-.46-1.12,0-.18-.21-.47-.49-.8,.1-.12,.12-.28,.08-.47-.22-.39-.74-.53-.68-.78l.03-.02c-.07-.09,.01-.1-.04-.18-.15,.15-.17-.14-.37-.26,.01-.03,0-.08-.08-.15l-.03,.02-.11-.13,.16-.12c-.12-.15-.2-.19-.26-.13-.05-.07-.08-.06-.14-.11-.06-.08,0-.11,.04-.14-.07-.09-.13-.13-.19-.18l.12-.1c-.08-.09-.14-.14-.2-.18l-.27-.33-.04,.02c-.04-.06-.04-.1,.01-.12-.12-.17-.18-.1-.3-.31,.05-.04,.09-.09,.07-.17-.3-.32-.36-.42-.77-.82-.11-.37-.39-.74-.78-1.15,.16-.02-.12-.25-.21-.39-.11-.43-.38-.52-.62-.95-.17-.2-.08-.17,.02-.15,.08,.02,.18,.04,.09-.09-.06-.02-.11-.02-.16,0-.06,0-.12,.02-.18-.02-.08-.38-.71-1.02-.87-1.44l-.03,.03c-.07-.2-.39-.53-.55-.67,.13-.02-.07-.2-.17-.33-.2-.29-.25-.52-.6-.87l.02-.03-.28-.33c-.32-.57-.55-.69-1.04-1.28-.32-.09-.62-.13-.91-.13-.38,0-.73,.07-1.07,.2"/></clipPath><clipPath id="q"><path class="al" d="M44.15,146.89c.2,.1-.06-.14-.23-.22-.04-.02-.06-.02-.07-.02-.04,0,.22,.21,.3,.25"/></clipPath><linearGradient id="r" x1="-1211.73" y1="491.95" x2="-1209.48" y2="491.95" gradientTransform="translate(250.94 62.74) scale(.17)" gradientUnits="userSpaceOnUse"><stop offset="0" stop-color="#97ca4e"/><stop offset="1" stop-color="#42a655"/></linearGradient><clipPath id="s"><path class="al" d="M38.87,138.26s0-.01,0-.02c0,0,0,0,0,.02s0,.01-.01,.02c0,0,0,0,.01-.02m.07-.05s-.02,0-.02,0c0,0,.02,0,.02,0m3.66-5.78c0-.11,.18-.34,.31-.23-.18,.06-.15,.21-.26,.29l-.05-.07Zm7.27-.57s.04-.04-.01-.09l.13-.1,.18-.13,.04-.02s.11-.06,.05-.14l.55-.41c0-.11,.19-.24,.34-.04-.16,.05-.26,.07-.31,.23-.14,.17-.5,.23-.5,.47-.08,.18-.2,.14-.33,.35-.05-.07-.09-.06-.14-.11m-5.96-1.24l.18-.13c0,.09-.06,.49-.28,.2,.02,0,.04,0,.06,0,.02,0,.03,0,.04,0,.02,0,.04-.02,0-.08m7.55-.35c.22-.33,.61-.57,.89-.87l.1-.08c.2,.2-.03,.19-.08,.26-.29,.17-.42,.74-.74,.74-.05,0-.12-.02-.18-.06m1.15-1.17l.1-.08c.04-.09,.29-.08,.19-.24l.34-.26c.08-.09,.13-.07,.17,.09l-.03,.02c-.04,.09-.29,.09-.2,.25l-.1,.07c-.12-.09-.12-.01-.14,.07,0,.06-.03,.11-.1,.11l-.1,.08c-.04-.07-.08-.06-.13-.11m-6.06-1.38c-.11-.15,.12-.13,.15-.21,.05-.02,.05-.06,.02-.12l.07-.05,.1,.14c-.08,0-.11,.08-.14,.15l-.13,.14s-.04-.02-.07-.04m9.3-1.34l.1-.08c.07,.09,.12,.06,.18,.18-.2,.04-.1,.06-.15,.22-.16-.17-.03-.19-.13-.32m.97-.81c.07-.06,.15-.11,.26,.11-.02,.04-.06,.03-.11,.02-.07,0-.13-.02-.06,.11l-.14,.1s-.09,.08-.16,0c.2-.02-.06-.26,.02-.33,.03,.02,.06,.03,.08,.03,.04,0,.07-.02,.1-.04m-3.49,2.78c.21-.08,.16-.29,.36-.37l.14-.1,.17-.13c-.09-.16,.15-.15,.19-.24,.33-.22,.47-.53,.84-.73-.09-.18,.18-.17,.23-.27l.07-.05c.14-.13,.18-.3,.4-.4,.27-.2,.41-.48,.73-.65-.08-.18,.2-.18,.26-.3,.1,.15-.14,.13-.07,.26-.1,.16-.26,.15-.36,.37-.13,.02-.41,.33-.45,.54-.04-.05-.08-.04-.13-.11-.14,.03,.13,.26-.07,.26-.18,.09-.17,.08-.31,.23l-.24,.18c-.17,.04-.1,.2-.22,.27-.14,.04-.12,.16-.19,.25-.07-.12-.27,.02-.17,.13l-.2,.15c-.05,.03-.06,.09-.06,.15-.09,.05-.17,.11-.15,.21-.34,.02-.4,.42-.7,.42h0l-.05-.07Zm3.88-3.08c.08-.03,.02-.13,.09-.17,.09,.15,0,.21,.17,.3-.06,.07-.14,.03-.22,0-.05-.02-.1-.04-.14-.04l.1-.08Zm-.33-.38l.27-.2c0,.16-.08,.28-.2,.36l-.04,.03s-.06,.02-.08,.02c-.06,0,.12-.12,.05-.21m-6.92-.95c0-.09,.03-.16,.12-.19,.06,.1,.05,.17,.17,.29,.03,.06,.02,.1-.02,.12-.1-.09-.18-.13-.27-.22m9.35-.88s-.04,0-.06,0c.02,0,.04,0,.06,0m-.77-7.68s-.05,.03-.07,.05c.02-.02,.05-.03,.07-.05m10.4,.01l.08-.05c.08-.06,.12,.03,.13,.11,0,.07,0,.13-.04,.13-.04,0-.09-.05-.16-.19m-10.25-.12s-.02,.02-.04,.03c.02,0,.03-.02,.04-.03m12.61-1.73c-.02,.06-.04,.1-.08,.13,.04-.02,.06-.07,.08-.13m.1-.26c-.04,.06-.06,.14-.08,.21,.02-.07,.04-.15,.08-.21m.06-.08s-.04,.04-.05,.06c.02-.02,.04-.04,.05-.06m15.07-10.95l-.28,.31,.28-.31Zm5.88-3.8l-.53,.33-.55,.35-.51,.32-.46-.47-.18-.19-.43-.17-.19,.22-.27,.3-.39,.55-.81,.8-.73,.82-.64,.73-.57,.36-.4,.25c-.1,.13-.41,.13-.39,.34l-.11,.07c-.14,0-.48,.03-.48,.2-.08,.11-.37,.1-.32,.3-.04,.1-.09,.05-.15,0-.02-.03-.06-.06-.08-.06l-.29,.18c-.25-.08-.46,.25-.7,.34-.12,.05-.07,.22-.24,.25-.1,.02,0,.18-.14,.18-.1-.06-.52,.07-.35,.32-.2-.02-.06,.29-.32,.3-.15-.39-.43-.06-.41,.06l-.04,.02-.4,.25c-.21,.11-.39,.24-.49,.41-.12-.16-.14,.09-.1,.16-.04,.04,.02,.09,.08,.14-.06-.02-.07,.03-.08,.09,0,.07,0,.14-.1,.03-.06-.09,.02-.1-.02-.19-.03,0-.07-.03-.13-.12l-.21,.14c.03,.12-.04,.09-.11,.05-.08-.04-.16-.08-.11,.08,.26,.4-.26,.07-.28,.37-.06,.04-.11,0-.12-.12-.02,.18-.24,0-.13,.28,.05,.09,.1,.18,.02,.19-.04,0-.08,.04-.12-.02,.04-.03-.03-.11-.08-.05-.04,.03-.09,0-.14-.03-.06-.04-.12-.09-.17,.02-.28,.1-.35,.32-.57,.46-.14,.04-.08,.19-.13,.28,0,.07-.08,.03-.13,0-.06-.05-.12-.09-.06,.03-.03,.1-.06,.2-.13,.28l-.14-.21c-.24-.03,.13,.31-.04,.33-.08,0-.06-.1-.14-.22-.08,.08,.04,.34-.17,.21-.12-.15-.2,.08-.3,.09,.07,.11,.16,.24,.06,.26-.06,.03-.12,.09-.2-.08-.08,.09,.1,.46-.16,.3,0,.24-.17,.03-.12-.12-.21,.08,.04,.44-.26,.46-.06-.09-.02-.13-.1-.24-.12,.52-.66,.24-.61,.88-.08,.02-.03,.13-.1,.16-.11-.12-.14,.02-.17-.19-.1,.05-.18,.1-.1,.26l-.04,.02c-.14,.11-.11,.02-.12-.12-.09,.07-.18,.13-.04,.33l-.11,.07c-.09-.35-.11,.05-.26,.07l.13,.22-.17,.17c0-.11,.09-.21-.1-.1-.1-.24-.16-.08-.23-.05,.02,.09,.07,.2,.15,.33l-.19,.19-.04,.02c-.05-.08-.01-.14-.09-.14-.07-.12,.06-.12-.06-.26-.22,.1-.2,.24-.4,.25,.07,.1,.08,.17,.1,.24-.02,.04,0,.09,.06,.17-.08,.07-.17,.12-.26,.07l-.09-.14c-.13-.04-.17,.08-.21,.2-.05,.15-.1,.29-.33,.14,.06,.1,.08,.17,.09,.24l-.14,.09c-.18,.12-.37,.07-.55,.25l-.04,.02c-.05,.07,.06,.24-.09,.25,.04,.09,.13,.2,.1,.24l-.08,.04c-.02-.19-.12-.13-.21-.07-.1,.07-.19,.13-.15-.1-.09,.08-.28,.09-.16,.3l-.04,.02s.05,.09,.01,.09c.04,.13-.03,.09-.1,.05-.06-.04-.13-.08-.08,.06l-.04,.02c.02,.13-.11,.17-.21,.23-.04,0-.06,.01-.09,.03,.03-.02,.06-.03,.09-.03-.16-.29,.21-.01,.04-.33-.19,.2-.48,.33-.51,.62,.02,.1,.09,.22,.06,.24,.01,0,.03,0,.04,0-.04,.01-.07,.01-.12-.02l-.08,.04-.04,.02c-.06,.05-.13-.02-.2-.17-.21,0,.02,.27,0,.4-.08,.08-.1,0-.13-.07-.03-.08-.05-.16-.11-.07-.04,.12,.08,.35-.12,.37-.06-.11-.02-.16-.06-.26l-.11,.07s-.04,.04,0,.1c.03-.03,.08,.04,.1,.12,.02,.07,.02,.14-.04,.13l-.13-.22-.18,.11c.04,.09,.13,.2,.1,.24l-.04,.02-.18,.11c-.05-.07-.02-.1-.06-.16-.15,.04,.07,.31-.08,.35-.09-.08-.38-.27-.31,0,.14-.11,.07,.11,.14,.21-.1,.06-.26,.11-.06,.23-.06,.02-.12,.11-.19,.02,.08-.08-.13-.09-.18-.29-.05,.09-.3,.06-.21,.23-.02,.13-.15,.2-.11,.37l-.18,.11c.07,.09,.11,.09,.13,.22l-.07,.04-.14-.21c-.06,.04-.11,0-.12-.12-.12,.08-.2,.18-.2,.33-.02,.02-.04,.04,0,.09l-.1,.07c.04,.17,.24,.29,.04,.37l-.04-.07-.11,.07c-.06-.1-.12-.14-.17-.19-.04-.05-.08-.06-.12-.03-.18,.07,.07,.22,.02,.28-.04-.02-.29-.22-.18,.02-.3,.02-.56,.28-.6,.57,.05-.02,.1-.08,.16,0-.04,.07-.02,.07,.02,.06,.04,0,.12,0,.15,.13-.1,.13-.07,.09-.2,.23-.09-.22-.15-.33-.29-.22-.02,.01-.04,0-.07,0-.02-.01-.03-.02-.05-.02-.02,.01-.04,0-.06-.01-.02,0-.04-.02-.06-.02,0,.23-.42,.22-.25,.56-.1,0-.06,.07,0,.15,.05,.08,.1,.16,0,.15-.25-.22-.1-.24-.12-.42-.22,.07-.29,.24-.18,.51l-.11,.07c-.14,.1-.11,.02-.12-.12-.18-.11-.13,.11-.26,.16l-.03,.02c-.07,.09-.06,.23,0,.4-.05-.07-.09-.07-.13-.12-.05-.08-.02-.14-.08-.14-.09,.12-.22,.21-.32,.32-.03-.02-.06-.04-.08-.07,.2-.11-.02-.18,.12-.28,0,.04,.05,.02,.1,0l-.05-.07c-.04-.06,.01-.11,.12-.12,0-.08-.08-.04-.16,0-.09,.04-.18,.09-.16-.04-.04-.04-.06-.15-.16-.1,.01,.05-.04,.11-.1,.16l-.07-.11-.07-.11c.07-.02,.15-.04,.14-.09,0-.05-.08-.04-.14-.03-.09,.01-.16,.03,.04-.11-.1-.11-.29-.06-.35-.23l.21-.14-.15-.25c-.4,.26-.12-.01-.16-.1-.21,.18-.26,.09-.35,.07,0-.07,.02-.06,.07-.04,.06,0,.14,.02,.24-.1-.23-.08-.16-.07-.18-.29-.15,.11-.27,.16-.33,.11,.04-.03,.08-.06,.04-.08,.1-.05,.18-.04,.12-.13,0-.07-.08,0-.16,.05-.08,.06-.16,.12-.16,.05,.18-.16-.15-.03-.12-.18l-.06-.11,.21-.13s.06-.27-.11-.18c-.08-.03-.04-.24-.18-.13-.12,0-.14-.04-.09-.14l-.07-.11s-.09-.02-.16,0c-.1,.03-.18,.07,.02-.07-.02-.08-.1-.06-.18-.03-.04,.02-.09,.03-.12,.02l-.24-.04-.14-.95-.29-.28-.35,.09-.25-.42-.24-.38-.36,.02-.35,.21-.23,.42-.66,.25-.31,.42-.36-.07v.02s-.02,.05-.08,.06l-.15-.2-.07,.05s.02,.12-.05,.14c-.19,.03-.09,.3-.28,.2-.16,.13-.4,.22-.34,.46-.04,.03,0,.09-.02,.12-.04,.04,.02,.12-.06,.14-.13-.28-.43,.07-.17,.13-.14,.03-.02,.19-.16,.22-.07-.09-.09-.16-.12-.23-.07,.03-.02,.13-.09,.17-.05,.04-.3,.18-.12,.19,.14-.15,.1,.02,.27,.22-.03,0-.07,.05-.11-.02-.15-.26-.2-.03-.19,.04-.02,.08-.07,.03-.12-.02-.04-.05-.09-.1-.11-.02,.07,.09,.09,.16,.11,.23l-.1,.07-.15-.2-.07,.05c.05,.11,.06,.19,.05,.27,0-.05-.01-.11-.03-.18,0,.13-.2,.02-.16,.22,.04,0,.09,.03,.13,.11l-.03,.03,.05,.07c.09,.12,.08,.18,0,.21-.07-.1-.14-.2-.18-.18l-.14,.1c-.05-.07-.04-.1-.07-.16-.11,.06,0,.23-.11,.29-.24-.09-.26,.22-.41,.3-.12,.15-.32,.27-.09,.59l-.03,.03c-.14-.23-.22-.16-.26-.34-.35,.03-.11,.65-.35,.47l-.03,.02c.07,.15,.1,.35-.07,.26,.03,.14-.14,.19,.03,.4l-.1,.08c-.26-.44-.44-.35-.61-.18-.06,.11-.33,.12-.26,.3l-.2,.15s.02,.12-.05,.15c-.1,.07-.22,.12-.2,.24-.05,.1-.31,.1-.22,.27-.17,.22-.18,.53-.5,.68-.06,.05-.11,0-.13-.11,0,.25-.56,.2-.32,.44-.11-.12,.08-.21,.16,0l-.24,.18c-.16-.28-.22,.03-.34,.04,.08,.13,.18,.13,.15,.2-.26-.31-.55,.07-.22,.27,.01,.21-.46,.64-.28,.2-.1-.24,.3,0,.07-.26-.15-.12-.2,.16-.2,.24-.13,.2-.36,.36-.48,.57l-.17,.13,.15,.2-.14,.1c.1,.16-.15,.15-.19,.25l-.1,.08c-.14-.15-.04-.2-.22-.36-.03,.15-.14,.24-.3,.23,.06,.1,.04,.16,.16,.3l-.07,.05-.15-.2c-.21,0,.06,.23,.01,.3-.06-.09-.16-.02-.1,.08,.04-.02,.09,.07,.02,.09l-.15-.2c-.09,0-.05,.06-.02,.12,.03,.06,.07,.12-.02,.12-.13,.03,0,.19-.15,.22-.08-.03-.16-.02-.22,.06,0,.16,.02,.36,.18,.18,.02-.01,.04-.02,.08,.04l-.04,.02-.07,.05c-.12,.01-.07,.11-.06,.19l-.12,.07c-.04-.07-.04-.22-.1-.16-.1,.04-.12,.11-.04,.24l-.04,.02-.17,.13-.05-.07c-.02-.12-.06-.12-.15-.2-.02,.08-.24,.05-.12,.2-.14,.05-.18,.17-.22,.27-.04,.11-.03,.24-.14,.31-.05-.05-.1-.13-.14-.11,0,.1,.07,.23,.02,.31l-.1-.14c-.14,.03,.07,.24-.08,.26-.03,.02-.08-.03-.12-.07-.05-.05-.1-.1-.13-.06l-.04,.02c.06,.11,.07,.21,.05,.28-.05,.02-.09,.04-.17-.08-.09,.07-.26,.13-.04,.24,.12,.14-.1,.12-.12,.19-.03,.13-.1,.05-.16-.02-.04-.05-.08-.09-.12-.09,.08,.15-.15,.14,.08,.25,.02,.13-.1,.18-.19,.24l.05,.07c.05,.07,0,.09-.02,.12-.14,.03,0,.19-.15,.22-.15-.24-.15-.06-.15,0-.06-.08-.1-.11-.14-.11-.03-.06-.01-.09-.07-.16,0,.22-.36,.25-.18,.55,.06-.02,.11-.12,.19-.03l-.03,.02c0,.09-.02,.16-.12,.19-.06-.1-.05-.17-.17-.29,.04,.22-.17,.31-.23,.48-.09-.1-.19,.15-.19,.24,.19,.02,.01,.27,.25,.34l-.1,.07-.25-.34c-.04,.22-.08,.44-.24,.6l-.15-.2c-.08,.07-.13,.16-.11,.29-.02,.07-.23,.05-.12,.19,.04,0,.27,.15,.18,.18-.09,.09-.21-.04-.32-.08,0,.08,.05,.19,.13,.32l-.04,.02c-.16,.3-.33,.66-.7,.63l.1,.13-.1,.08-.04-.07c.02-.07-.05-.05-.1-.13-.13,.12-.16,.29-.28,.41l-.04,.02c-.02,.08,.21,.29,.18,.37h0c-.08-.09-.16-.22-.21-.14-.03,.04-.05,.02-.09,.02-.02,0-.04-.02-.07,0-.04,.03-.05,.09-.05,.14-.17,.06,.09,.33-.09,.38-.02-.11-.07-.16-.14-.11-.09,.07-.17,.17-.29,.11-.1,.02,0,.14,.08,.25l-.1,.08,.05,.07-.03,.03c-.04,.08-.12-.02-.2-.12-.08-.09-.14-.19-.19-.12,.28,.58-.07,.44-.18,.76,.02,.23-.29,.28-.01,.64l-.03,.02c-.05,.11-.12,.2-.2,.3l-.09,.12-.02,.02c-.23-.04-.23,.14-.34,.25-.03,.02,0,.09-.02,.12,.06,.08,0,.11-.05,.14-.08,.02-.07,.09-.08,.15l-.04,.04-.14,.11-.04,.02c-.05,.1-.31,.1-.22,.27-.12,.19-.22,.19-.31,.44-.14,.04-.13,.16-.2,.25-.12,.18-.36,.3-.41,.51-.03,.04-.07,.03-.1,.02-.04-.02-.09-.03-.12,.04,.05,.07,.03,.1,.06,.16l-.41,.3c.04,.12-.05,.18,0,.31l-.03,.03c-.06,.08-.14,.09-.22,.06l-.04,.03s.06,.14,.03,.19c-.04,0-.08-.03-.14-.11-.02,.11-.15,.15-.1,.29,.04-.02,.08-.09,.15-.01-.09,.04-.12,.11-.12,.2-.18-.03-.3-.07-.17,.13-.04,0-.08-.02-.14-.11-.13,.04,.04,.24,.06,.37,.13,.21-.3,.13-.17,.34-.16,.15-.26,.33-.22,.57,.12,.26-.42,.77-.11,.71,.02-.01,.04-.02,.08,.04-.07,.17-.22,.29-.22,.48l-.14,.1c.04,.14,.02,.24,.06,.37-.09,.05-.11,.14-.07,.26-.04,.05,0,.14-.09,.17-.02,.04,0,.11,.04,.18l-.07,.05c-.16,.24-.07,.61-.19,.88-.16,.11-.12,.31-.02,.54-.09,.06-.02,.19-.15,.22,.05,.08,.14,.19,.11,.23-.16-.08-.19,.12-.11,.29-.13,.05-.06,.2-.1,.29,.25,.15,.13,.45,.37,.35l.1-.07c-.2-.2,.03-.19,.08-.26,.14,0,.18-.04,.18-.09,.02-.07-.02-.14,.22,0,.24,.04,.21-.24,.44-.33,.1-.14,.41-.17,.36-.37,.04-.03,0-.09,.02-.12,.72-.33,1.01-1.71,1.63-1.73-.06-.09-.11-.17-.04-.19l.16,.2c.16-.01-.02-.2-.06-.31l.06-.07s.06,.04,.1,.1c.13-.02-.03-.19,.04-.24l.15-.22h0c.11,.06,.19-.04,.29-.11-.06-.08-.11-.16-.04-.18,.1-.01,.16-.29,.31-.02,.06-.06,.09-.13,.04-.24,.05-.1,.08-.21,.22-.27l.18-.13s.1,.13,.14,.11c-.07-.13-.01-.12,.07-.11,.04,0,.09,.02,.11-.02-.04-.06-.1-.14-.07-.16,.21,.18,.65-.15,.55-.41,.26-.03,.38-.1,.44-.33,.1,.08,.2,.08,.27,0-.05-.14-.23-.35-.23-.46,.04-.01,.09,.05,.15,.12,.08,.1,.16,.19,.19,.05l.03-.03c-.02-.15,.16-.2,.26-.3,.08,.17-.14,.19-.06,.35,.26-.12,.24-.39,.36-.59-.08-.02-.15-.02-.22,.06-.1-.08,.12-.29,.26-.29,.06,.09,0,.11-.05,.14,.45,.46,0-.28,.25-.3l.04-.02,.14-.1c.04,.07,.03,.1,.06,.16,.04-.02,.11,.03,.17,.08,.03-.22,0-.19,.21-.15-.25-.36,.29-.07,.17-.34l-.1-.14c-.03-.06-.02-.1,.02-.12,.16,.23,.28,.3,.39,.24-.04-.07-.03-.1-.06-.16,.16-.22,.56-.34,.77-.46-.08-.18-.16-.37-.08-.46,.15,.04,.08,.2,.18,.18,.01-.13-.24-.38-.02-.4,.04-.04-.02-.12,.05-.14,.07,.08,.11,.06,.18,.18-.05,0-.05,.04-.05,.08,0,.07,.02,.13-.09,.02l-.04,.02c.14,.35,.47-.07,.34-.26,.14-.03,.08-.16,.16-.21,0-.09-.12-.15-.14-.32-.34,.35-.61,.61-1.03,.97l-.2,.15c-.09,.18-.36,.2-.46,.45l-.17,.13,.04,.07c-.18,.07-.12,.16-.07,.26-.06,.05-.13,.02-.2-.06-.36,.41-.97,.44-1.21,.89-.14-.13-.21,.12-.32,.14l.06,.07c-.16,0-.26,.11-.35,.22-.09,.12-.19,.24-.39,.22,.05-.03,.06-.09,.06-.14,.24,.13,.16-.26,.38-.28l.21-.15s.06-.05,.02-.12c-.03-.14,.47,.02,.41-.3l.04-.03,.17-.13,.07-.05c.07-.07-.04-.24-.08-.36l.19-.14s.08,0,.12,.02c-.11,.06-.2,.13-.02,.33l.14-.1c.07-.12,.03-.1,.17-.13,.16-.04-.13-.29-.06-.37,.1,.02,.21,.12,.24,.24l.07-.05s.15-.07,.09-.17c.05-.03,.06-.09,.06-.14,0,0,.02-.01,.04-.01,.08,.03,.16,.03,.14-.06v-.02s0-.02-.02-.04c.01,.02,.02,.02,.02,.04v.02c.75-.33,1.37-1.42,2.08-1.6-.2-.4,.52-.33,.46-.66l.34-.26c.15-.11,.26-.23,.27-.41l.03-.03c.22,0,.36-.21,.42-.3l.31-.23,.31-.23,.04-.02,.03-.03c.05-.03,.05-.09,.05-.14l.14-.1,.07-.05,.07-.05c.15,.18-.23,.08-.07,.26l-.07,.05-.04,.02c0,.09-.02,.16-.12,.19l-.07,.05-.21,.15c-.41,.47-.78,.55-1.01,1.06-.2,.15-.43,.29-.53,.5-.04,0-.02,.05,.02,.09l.03-.03c.18,.02,.14-.07,.33-.13,.03,.07,.05,.13,.12,.23l.31-.23-.05-.07,.38-.28,.21-.15,.03-.03c.31-.28,.64-.52,1-.95l-.06-.07,.34-.25c.2-.09,0-.42,.31-.23,.64-.41,.53-.87,1.33-1.29-.06-.07-.09-.05-.13-.03-.03,.02-.07,.03-.11,0-.06-.1,.04-.12,.09-.17-.11-.18-.01-.16,.09-.15,.05,.01,.1,.02,.12,0-.03,.06,0,.14-.09,.17l.05,.07,.14-.1c.03-.2,.34-.11,.36-.37l.07-.05c.04-.09,.29-.08,.19-.24l.04-.03c.17,.06,.2-.25,.41-.3,.01-.03,.07-.05,.02-.12-.06,.03-.15-.14-.23-.24,.04-.04-.02-.12,.05-.14l.1,.14c.02,.07,.05,.14,.12,.23,.3,0,.36-.39,.68-.51-.02-.08-.4-.53-.15-.41,.14-.03,.07-.16,.15-.22l.2,.27,.21-.15,.21-.15c-.15-.27-.21,0-.31,.02l.05,.07c-.15,.15-.13,.06-.3-.19l.07-.05c.15,.26,.4-.05,.36-.16l.04-.02c-.06-.1,.02-.13,0-.21,.02-.13,.12-.09,.2-.06,.09,.04,.16,.07,.12-.07,.14-.12,.08,.1,.15,.2l.18-.13c-.07-.17-.03-.14,.03-.11,.05,.02,.13,.05,.17-.04,.05-.07-.1-.1-.07-.16,.25,.06,0-.17,.1-.29,.07-.03,.1,.03,.14,.08,.04,.07,.07,.13,.15,.02,.11-.15,.43-.18,.4-.4,.02-.2,.21-.08,.34-.25-.2-.21-.02-.16,.05-.15,.24-.16,.46-.33,.6-.55l.1-.08,.2-.15c.02-.08,.24-.05,.12-.2,0-.12-.14-.29-.14-.41l.07-.05c.07,.09,.09,.16,.12,.23,.12,.16,.18,.05,.24-.07,.04-.07,.1-.15,.18-.15,.04-.05,.15-.07,.09-.17l.1-.08c-.03-.14,0-.23-.13-.11-.03-.04-.06-.09-.02-.09,.02-.02,.04-.04-.02-.09,.11-.02,.19-.27,.33-.13,.05,.11-.13,.11-.04,.23l.03-.03c.26-.13,.36-.33,.54-.5,.02-.07,.23-.05,.12-.19l.14-.1c.21-.01,0-.23,.11-.29,.4,.29,.33-.35,.33-.55,0,0-.02,0-.02,0-.14-.03-.11,.17-.2,.24,.09-.07,.06-.27,.2-.24,0,0,.02,0,.02,0,0,0,.01,0,.02,0,.33,.32,.45-.13,.19-.37,.07,.07,.12,0,.17-.02,0,.02,.01,.02,.02,.04,.04-.01,.06-.01,.07,0-.18,.08,.06,.25,.16,.22l.14,.22c.19,.17,.36,.39,.55,.56l.2,.33c.08,.07,.2,.07,.24,.21,.03,0,.1-.02,.16-.06,.07-.04,.15-.08,.17-.05,.04,.06-.18,.15-.16,.21-.14,.16,.13,.26,.25,.24,0-.05,.05-.11,.1-.16l.02,.04,.07,.11c-.09,.06-.13,.02-.24,.1,.15,.14,.26,.36,.51,.33-.03-.15-.31-.28-.18-.44l.1,.15c.08,.04,.04,.27,.2,.17l.2,.32s.04,.08-.02,.12c-.08-.04-.04-.26-.21-.17,.06,.14,.02,.28,.15,.4,.05,.18,.2,.17,.28,.28l.04,.07c.05,.03,.08,.11,.11,.18l.3,.69,.21,.47,.1,.22,.11,.24,.1,.22,.18,.04,.37-.28,.14-.06-.04-.05,.04,.05,.37,.42,.22-.08,.15-.26,.29-.14,.16-.26,.42-.37,.22-.1c.09-.04,.17-.08,.14-.2l.14-.09c.22-.18,.47-.34,.6-.57l.25-.16c.16,.01,.03-.15,.04-.22l.04-.03h.01c.04,.07,.02,.1,.05,.16l.14-.09-.04-.08c.18-.17,.26-.44,.53-.43,.2-.06,.14-.15,.09-.25,.14,.08,.24-.08,.37-.13-.04-.09-.09-.18-.02-.19,.02,0,.05,0,.07,0,.04,.02,.09,.03,.12-.03,.04-.04,.15-.06,.1-.16,.23-.08,.22-.31,.46-.39,.15-.09,.26-.2,.19-.42l.04-.02c.12,.07,.23,.01,.34-.02,.11-.25,.45-.35,.59-.57l.26-.16-.05-.07c.12-.11,.36-.14,.36-.32,.14,.01,.26-.04,.29-.18,.1-.03,.13-.1,.14-.19l.14-.09,.04-.02c.22-.08,.19-.3,.42-.36,.18-.06,.2-.2,.31-.3l.33-.2c.06-.1,.31-.08,.24-.26l.11-.07c.02-.07,.24-.04,.14-.19,.57-.46,1.16-.88,1.44-1.4l.04,.07c.08-.03,.36,.03,.29-.18,.26-.14,.49-.3,.64-.5,.16-.07,.27-.16,.24-.35,1.24-.8,2.31-1.86,3.7-2.83l.08-.04c.13-.15,.47-.17,.46-.39l.21-.13,.48-.3c.06-.1,.31-.08,.24-.25l.14-.09,.25-.16,.11-.07,.07-.04,.18-.11,.04-.02c.14-.04,.04-.21,.21-.23l.44-.27c.53-.41,1.05-.55,1.47-1.03,.33-.05,.86-.37,1.04-.66l.04-.02,.04-.03c.17-.1,.33-.25,.51-.22,.46-.28,.68-.47,1.12-.71,.14-.03,.14-.15,.2-.23l.04-.02c.1-.16,.34,.03,.33-.2l.04-.02c.4-.1,.77-.4,1.16-.63,.12,0,.2-.31,.34-.02,.08-.09-.04-.29,.16-.3l.04-.02,.09,.14c.18-.05,.21-.2,.31-.3,.11,.26,.36,.02,.3-.09-.08,.07-.16,.12-.27-.03l.29-.18c.08,.2,.32,.24,.24,.05-.03,0-.05,.02-.08-.05,.01-.03,.05-.04,.03-.09l.53,.14,.1,.14-.18,.09c.04,.05,.05,.16,.15,.11-.01-.03,.06-.08,.11-.09l.13,.19h0s.03,.08-.03,.12c-.26-.09-.12,.01-.18,.2,.18-.02,.13-.11,.32-.12l.06,.11-.22,.12,.07,.15,.22-.12,.06,.11s-.03,.08-.13,.11l.08,.15c.04,.07,.04,.13,0,.19l.04,.08,.02,.04c.2-.12,.24-.02,.3,.03,0,.2,.05,.4,.04,.61l.06,.11c.12-.02,.11,.03,.1,.08-.02,.05-.04,.11,.08,.07,.04-.02,.09-.04,.09,0l.06,.12,.1,.19s-.09,.1-.2,.16c.02,.24,.26,.16,.4,.22l.02,.05c-.04,.21-.12,.53,.19,.52l-.22,.11c0,.1,.07,.09,.13,.09,.06,0,.12,0,.14,.06-.18,.2,.18,.17,.18,.34l.04,.07s-.04,.08-.04,.12c0,.1-.05,.34,.22,.22,.14,.12-.01,.25,.11,.38l.04,.07c-.16,.11,.07,.2,.07,.3,.09,.27,.12,.34,.3,.57-.2,.17,.15,.09,.12,.23,.1,.28,.19,.44,.24,.64l.08,.15c.04,.18,.18,.22,.28,.33-.17,.13-.04,.46,.14,.46,.2,.41,.29,.83,.57,1.24l.04,.08c.11,.09,.08,.37,.28,.34,0,.22,.13,.43,.25,.64l.6,1.13c.15,.18,.17,.55,.41,.6l.3,.57c.17,.2,.2,.6,.45,.68l.24,.45c.09,.05,.04,.3,.22,.22l.22,.41,.1,.19c.22,.02,.18,.41,.41,.41,.13,.17,.16,.48,.38,.53l.1,.19c.04,.09,.18,.04,.19,.19l.02,.04c.18,.31,.42,.51,.66,.71,1.09,1.12,2.08,2.37,3.89,2.47,.19,0,.35,.07,.64-.05,0,.09,.08,.06,.16,.03,.05-.02,.09-.03,.12-.03,.18,.11,.53-.04,.81-.09,.12-.01,.3-.11,.42-.12,.16,.06,.55-.21,.86-.36,.22-.14,.67-.29,.73-.43l.15-.08c.4-.53,.69-1.06,.5-1.57,.1-.11-.06-.4-.2-.38-.08-.11-.16-.22-.24-.32h-.01v-.02l-.84-.99c-.13-.2-.18-.53-.4-.58-.12-.11-.1-.43-.32-.41-.66-1.05-1.25-1.96-1.92-3.08l-.02-.04c.15-.16-.11-.28-.18-.34,.1-.12-.07-.42-.22-.41-.41-.67-.93-1.85-1.34-2.52l-.22-.42c-.33-.56-.67-1.33-.95-1.77l-.1-.19-.04-.07c.06-.19-.15-.58-.34-.64l-.04-.08-.03-.07-.18-.34c.09-.23-.21-.45-.27-.68-.17-.2-.19-.6-.45-.67l-.06-.11c.14-.16-.12-.3-.14-.45l-.26-.49c.07-.15-.11-.5-.28-.53l-.02-.04-.06-.11c.14-.14-.12-.28-.13-.42l-.16-.3-.1-.19-.36-.68-.06-.11c-.14-.15-.14-.51-.38-.53l-.2-.38c-.11-.09-.07-.37-.27-.33l-.14-.26-.06-.11-.12-.23-.02-.04,.08-.04-.08-.15-.39-.73-.39-.73-.57-1.09-.88-1.65-.57-1.07-.55-1.03-.26-.49-.14-.1-.15-.07-.34,.22Z"/></clipPath><clipPath id="t"><path class="al" d="M43.81,129.98c.06,.07,.1,.01,.15,0,.03,.12,.07,.11,.15,.2,0-.07-.04-.16-.08-.26l-.06-.07s-.05-.02-.07-.02c-.07,0-.11,.06-.1,.15"/></clipPath><linearGradient id="u" x1="-1583.66" y1="495.75" x2="-1581.42" y2="495.75" gradientTransform="translate(259.73 62.4) scale(.14)" gradientUnits="userSpaceOnUse"><stop offset="0" stop-color="#008ec6"/><stop offset="1" stop-color="#006cb6"/></linearGradient><clipPath id="v"><path class="al" d="M47.54,134.33s-.09,.04-.12,.09l-.14,.1c.04,.07,0,.09-.02,.12-.16,.02,.12,.26,.1,.35,.12,.14,.19-.1,.29-.11,.13-.08,.2-.18,.18-.34-.04,0-.08,.05-.12-.02-.02-.12-.07-.18-.13-.19h-.04Z"/></clipPath><linearGradient id="w" x1="-650.19" y1="359.78" x2="-647.95" y2="359.78" gradientTransform="translate(225.93 35.84) scale(.27)" xlink:href="#u"/></defs><rect class="af" width="780" height="250"/><g><rect class="aq" x="399.5" y="56.9" width="2.57" height="136.2"/><path class="aq" d="M401.57,57.4V192.6h-1.57V57.4h1.57m1-1h-3.57V193.6h3.57V56.4h0Z"/></g><g><g><path class="x" d="M505.71,97.5c-.65,1.36-1.55,2.5-2.69,3.42s-2.47,1.61-4,2.06c-1.52,.46-3.16,.69-4.9,.69h-5.19v9.32h-6.84v-31.07h12.7c1.86,0,3.53,.26,4.99,.78s2.71,1.25,3.73,2.2c1.02,.95,1.8,2.08,2.35,3.4,.55,1.32,.82,2.77,.82,4.37v.09c0,1.8-.32,3.38-.97,4.74h0Zm-5.95-4.7c0-1.54-.5-2.71-1.49-3.51s-2.35-1.2-4.06-1.2h-5.28v9.5h5.42c1.72,0,3.05-.45,4-1.35s1.42-2.02,1.42-3.35v-.09h-.01Z"/><path class="x" d="M552.81,113l-6.66-9.94h-5.37v9.94h-6.84v-31.08h14.21c3.7,0,6.58,.9,8.64,2.71s3.08,4.32,3.08,7.55v.09c0,2.52-.61,4.57-1.84,6.15-1.23,1.58-2.83,2.75-4.82,3.48l7.59,11.1h-7.99Zm.13-20.47c0-1.48-.47-2.59-1.42-3.33s-2.26-1.11-3.95-1.11h-6.79v8.92h6.92c1.69,0,2.98-.4,3.88-1.2,.9-.8,1.35-1.86,1.35-3.2v-.08h.01Z"/><path class="x" d="M588.54,113v-31.08h6.84v31.07h-6.84Z"/><path class="x" d="M647.14,113l-15.05-19.75v19.75h-6.75v-31.08h6.3l14.56,19.13v-19.13h6.75v31.07h-5.81Z"/><path class="x" d="M696.68,88.23v24.77h-6.84v-24.77h-9.46v-6.3h25.75v6.3h-9.45Z"/></g><g><path class="x" d="M469.46,152.43c-.65,1.36-1.55,2.5-2.69,3.42s-2.47,1.61-3.99,2.06c-1.52,.46-3.16,.69-4.91,.69h-5.19v9.32h-6.84v-31.07h12.7c1.86,0,3.53,.26,4.99,.78s2.71,1.25,3.73,2.2c1.02,.95,1.81,2.08,2.35,3.4,.55,1.32,.82,2.78,.82,4.37v.09c0,1.8-.32,3.38-.97,4.74h0Zm-5.95-4.7c0-1.54-.5-2.71-1.49-3.51-.99-.8-2.35-1.2-4.06-1.2h-5.28v9.5h5.42c1.72,0,3.05-.45,4-1.35,.95-.9,1.42-2.02,1.42-3.35v-.09h-.01Z"/><path class="x" d="M528.1,158.63c-.83,1.94-1.97,3.64-3.44,5.11-1.47,1.46-3.21,2.62-5.24,3.46-2.03,.84-4.24,1.26-6.64,1.26s-4.6-.42-6.61-1.26c-2.01-.84-3.75-1.98-5.22-3.42-1.46-1.44-2.61-3.12-3.42-5.06-.81-1.94-1.22-4.02-1.22-6.24v-.09c0-2.22,.42-4.3,1.24-6.24,.83-1.94,1.97-3.64,3.44-5.1,1.46-1.46,3.21-2.62,5.24-3.46,2.03-.84,4.24-1.27,6.64-1.27s4.6,.42,6.61,1.27c2.01,.84,3.75,1.98,5.22,3.42s2.6,3.12,3.42,5.06c.81,1.94,1.22,4.02,1.22,6.24v.09c.01,2.21-.41,4.29-1.24,6.23h0Zm-5.9-6.24c0-1.33-.23-2.59-.69-3.77-.46-1.18-1.11-2.22-1.95-3.11s-1.84-1.59-3-2.11c-1.15-.52-2.41-.78-3.77-.78s-2.66,.25-3.79,.75c-1.14,.5-2.12,1.2-2.93,2.09s-1.45,1.92-1.91,3.09-.69,2.42-.69,3.75v.09c0,1.33,.23,2.59,.69,3.77,.46,1.18,1.11,2.22,1.95,3.11s1.83,1.59,2.97,2.11,2.4,.78,3.8,.78,2.62-.25,3.77-.75,2.14-1.2,2.95-2.09,1.45-1.92,1.91-3.09c.46-1.17,.69-2.42,.69-3.75v-.09h0Z"/><path class="x" d="M576.49,167.93l-6.66-9.94h-5.37v9.94h-6.84v-31.07h14.21c3.7,0,6.58,.9,8.63,2.71,2.06,1.81,3.09,4.32,3.09,7.55v.07c0,2.52-.61,4.57-1.84,6.15-1.23,1.58-2.83,2.75-4.82,3.48l7.59,11.1h-7.99Zm.14-20.45c0-1.48-.47-2.59-1.42-3.33s-2.26-1.11-3.95-1.11h-6.79v8.92h6.92c1.69,0,2.98-.4,3.89-1.2,.9-.8,1.35-1.86,1.35-3.2v-.08Z"/><path class="x" d="M625.99,143.15v24.77h-6.84v-24.77h-9.45v-6.3h25.75v6.3h-9.46Z"/><path class="x" d="M686.01,167.93l-2.84-6.97h-13.14l-2.84,6.97h-6.97l13.32-31.3h6.3l13.32,31.3h-7.15Zm-9.41-23.09l-4.13,10.08h8.26l-4.13-10.08Z"/><path class="x" d="M720.15,167.93v-31.07h6.84v24.9h15.49v6.17h-22.33Z"/></g></g><g><g><path class="x" d="M142.26,149.31c.31-.83,.6-1.69,.81-2.66h.05c.12,.96,.39,1.85,.68,2.66l1.3,3.8h-4.25l1.41-3.8Zm-.93-5.46l-6.4,15.56h-1.46v2.65h6.77v-2.65h-1.74l1.29-3.49h6.27l1.18,3.49h-1.49v2.65h7.24v-2.65h-1.46l-6.01-15.56h-4.19Z"/><g class="ag"><rect class="x" x="133.47" y="143.85" width="19.52" height="18.21"/></g></g><g><path class="x" d="M178.06,146.5h1.72c2.32,0,3.2,.88,3.2,2.65s-.93,2.66-2.96,2.66h-1.96v-5.31Zm-5.59-2.66v2.66h1.8v12.91h-1.63v2.65h7.08v-2.65h-1.64v-4.79h.89c.68,0,1.14,.31,1.5,.91l2.21,3.8c1.41,2.39,2.08,2.73,3.05,2.73h2.91v-2.65h-.68c-.49,0-.93-.21-1.48-1.15l-1.64-2.73c-.91-1.51-1.43-1.85-2.33-1.92v-.05c2.03-.08,4.29-2.01,4.29-4.71,0-1.85-.8-3.51-2.44-4.32-1.04-.52-1.7-.68-3.83-.68h-8.04Z"/><g class="aj"><rect class="x" x="172.47" y="143.85" width="16.16" height="18.21"/></g></g><g><polygon class="x" points="208 143.85 208 146.5 209.64 146.5 209.64 159.41 208 159.41 208 162.06 215.08 162.06 215.08 159.41 213.43 159.41 213.43 146.5 215.08 146.5 215.08 143.85 208 143.85"/><g class="ai"><rect class="x" x="208" y="143.85" width="7.08" height="18.21"/></g></g><g><path class="x" d="M235.84,143.85l-.16,5.08h3.28l.15-2.42h6.25v.05c-.39,.26-.82,.68-1.25,1.25l-9.13,11.73v2.52h14.73l.21-5.07h-3.31l-.15,2.42h-6.9v-.06c.42-.26,.81-.67,1.25-1.24l8.94-11.6v-2.66h-13.91Z"/><g class="an"><rect class="x" x="234.97" y="143.85" width="14.94" height="18.21"/></g></g><g><path class="x" d="M273.59,152.95c0-3.51,1.46-6.45,4.89-6.45s4.89,2.94,4.89,6.45-1.3,6.46-4.89,6.46-4.89-2.94-4.89-6.46m-4.11,0c0,5.13,2.62,9.42,9,9.42s9.01-4.29,9.01-9.42-2.81-9.42-9.01-9.42c-5.74,0-9,4.45-9,9.42"/><g class="av"><rect class="x" x="269.49" y="143.54" width="18.01" height="18.83"/></g></g><g><path class="x" d="M319.38,143.85v2.66h1.67v9.44h-.05c-.24-.7-.73-1.43-1.54-2.44l-7.67-9.66h-5.28v2.66h2.31v12.91h-1.69v2.65h6.43v-2.65h-1.77v-9.63h.05c.05,.26,.41,.86,.85,1.41l8.67,10.88h2.81v-15.56h1.8v-2.66h-6.59Z"/><g class="aa"><rect class="x" x="306.5" y="143.85" width="19.46" height="18.21"/></g></g><g><path class="x" d="M353.39,149.31c.31-.83,.6-1.69,.8-2.66h.05c.14,.96,.39,1.85,.68,2.66l1.31,3.8h-4.24l1.41-3.8Zm-.94-5.47l-6.4,15.56h-1.45v2.65h6.76v-2.65h-1.75l1.31-3.49h6.27l1.17,3.49h-1.48v2.65h7.22v-2.65h-1.45l-6.01-15.56h-4.19Z"/><g class="at"><rect class="x" x="344.59" y="143.85" width="19.5" height="18.21"/></g></g><g><path class="x" d="M131.27,110.2c0,4.78,2.16,7.25,8.53,8.88l3.4,.89c4.16,1.06,5.04,2.21,5.04,3.8,0,2.34-1.68,4.16-5.48,4.16-1.81,0-3.58-.13-5.21-.8v-4.06h-6.45v8.17c4.15,1.37,7.69,1.72,11.08,1.72,8.79,0,12.77-4.29,12.77-10.16,0-6.4-5.04-7.91-9.58-9.06l-3.72-.93c-2.02-.49-3.66-1.15-3.66-3.4,0-1.72,1.37-3.93,5.66-3.93,1.5,0,3,.35,4.15,.75v3.76h5.83v-7.38c-2.66-1.01-6.41-1.64-10.17-1.64-8.75,0-12.19,4.33-12.19,9.24"/><g class="ao"><rect class="x" x="123.15" y="98.43" width="39.74" height="37.05" transform="translate(-31.41 177.83) rotate(-58.52)"/></g></g><g><path class="x" d="M156.4,109.31v4.51h3.01v14.1h-2.52v4.51h11.36v-4.51h-2.64v-18.61h-9.2Zm1.73-7.69c0,2.3,1.58,3.84,4.15,3.84s4.15-1.55,4.15-3.84-1.58-3.84-4.15-3.84-4.15,1.55-4.15,3.84"/><g class="au"><rect class="x" x="144.45" y="101.01" width="35.73" height="28.19" transform="translate(-20.61 193.41) rotate(-58.52)"/></g></g><g><path class="x" d="M179.94,113.02c2.88,0,4.69,1.81,4.69,4.99h-9.41c.27-3.14,1.9-4.99,4.72-4.99m-11.39,7.95c0,6.41,3.76,11.97,12.68,11.97,3.14,0,5.66-.4,8.53-1.46l.31-4.9c-2.61,1.11-4.51,1.59-7.47,1.59-4.33,0-7.16-2.25-7.34-5.92h16.09c0-7.47-3.23-13.48-11.19-13.48-7.24,0-11.61,4.99-11.61,12.2"/><g class="y"><rect class="x" x="163.69" y="104.83" width="32.52" height="32.07" transform="translate(-17.11 211.2) rotate(-58.52)"/></g></g><g><path class="x" d="M201.07,114.62h-.09c.31-2.16,.4-3.71,.4-5.3h-8.98v4.51h3v14.1h-2.52v4.51h11.62v-4.51h-2.92v-7.47c0-3.8,2.38-6.1,5.74-6.1,.61,0,1.32,.09,1.99,.22l.39-5.52c-.66-.13-1.28-.27-2.03-.27-3.53,0-5.7,1.95-6.62,5.83"/><g class="ae"><rect class="x" x="186.46" y="107.04" width="29.21" height="27.12" transform="translate(-6.8 229.07) rotate(-58.52)"/></g></g><path class="x" d="M219.89,114.62h-.09c.31-2.16,.39-3.71,.39-5.3h-8.97v4.51h3v14.1h-2.52v4.51h11.62v-4.51h-2.92v-7.47c0-3.8,2.39-6.1,5.74-6.1,.62,0,1.33,.09,1.99,.22l.4-5.52c-.66-.13-1.28-.27-2.04-.27-3.53,0-5.69,1.95-6.62,5.83"/><g><path class="x" d="M235.65,125.66c0-1.99,1.59-3.05,6.63-3.05h1.72c0,4.24-2.47,5.83-4.95,5.83s-3.41-1.42-3.41-2.78m-5.07-14.49v5.87h5.3v-3.09c1.06-.4,2.96-.66,3.84-.66,2.92,0,4.38,.93,4.38,4.42v1.1c-4.51,0-7.65,.22-9.99,1.06-2.44,.88-4.64,3.05-4.64,6.36,0,3.62,2.52,6.72,7.73,6.72,3.9,0,6.01-1.63,7.56-5.13h.09c-.22,.89-.31,1.68-.31,3.18v1.42h7.78v-4.51h-2.61c.09-3.27,.22-6.45,.22-10.25,0-6.71-3.93-8.88-10.11-8.88-4.12,0-7.73,1.55-9.23,2.39"/><g class="ac"><rect class="x" x="224.62" y="104.81" width="32.54" height="32.1" transform="translate(12.01 263.17) rotate(-58.52)"/></g></g><g><path class="x" d="M291.49,101.49h-12.02v4.5h3.18l-6.05,17.68c-.4,1.15-.75,2.43-.93,3.71h-.08c-.18-1.28-.53-2.56-.93-3.71l-6.05-17.68h2.6v-4.5h-12.55v4.5h2.47l10.39,26.43h7.2l10.39-26.43h2.38v-4.5h0Z"/><g class="ad"><rect class="x" x="253.32" y="94.88" width="43.52" height="44.15" transform="translate(31.67 290.45) rotate(-58.52)"/></g></g><g><polygon class="x" points="291.44 109.31 291.44 113.82 294.45 113.82 294.45 127.92 291.93 127.92 291.93 132.42 303.29 132.42 303.29 132.42 303.29 127.92 300.63 127.92 300.63 109.31 291.44 109.31"/><path class="x" d="M293.16,101.63c0,2.3,1.6,3.84,4.16,3.84s4.15-1.55,4.15-3.84-1.59-3.84-4.15-3.84-4.16,1.55-4.16,3.84"/></g><path class="x" d="M304.84,116.34c0,3.31,1.72,5.52,5.74,6.14l5.21,.79c2.69,.4,3.49,1.06,3.49,2.34,0,2.43-3.23,2.83-4.51,2.83s-3.1-.4-4.12-.75v-2.69h-5.56v6.49c2.47,.88,6.31,1.46,9.1,1.46,8.04,0,10.92-3.89,10.92-8s-2.22-6.23-7.51-6.98l-4.86-.71c-1.77-.27-2.08-.71-2.08-1.81,0-1.28,1.33-2.43,4.16-2.43,1.14,0,2.33,.22,3.57,.66v2.34h5.57v-5.7c-3.4-1.15-6.49-1.55-8.97-1.55-4.77,0-10.16,1.86-10.16,7.56"/><path class="x" d="M329.31,104.54v4.77h-3.14v4.51h3.14v12.94c0,4.07,2.43,6.19,6.98,6.19,1.5,0,3.09-.31,5.38-1.1l.22-4.37c-1.15,.44-2.16,.71-3,.71-2.56,0-3.4-.8-3.4-4.07v-10.29h6.18v-4.51h-6.18v-5.12l-6.18,.35Z"/><path class="x" d="M349.45,125.66c0-1.99,1.6-3.05,6.63-3.05h1.73c0,4.24-2.48,5.83-4.95,5.83s-3.41-1.42-3.41-2.78m-5.08-14.49v5.87h5.3v-3.09c1.07-.4,2.96-.66,3.85-.66,2.91,0,4.37,.93,4.37,4.42v1.1c-4.51,0-7.64,.22-9.98,1.06-2.43,.88-4.64,3.05-4.64,6.36,0,3.62,2.52,6.72,7.73,6.72,3.88,0,6.01-1.63,7.56-5.13h.08c-.22,.89-.3,1.68-.3,3.18v1.42h7.77v-4.51h-2.61c.09-3.27,.22-6.45,.22-10.25,0-6.71-3.93-8.88-10.11-8.88-4.11,0-7.74,1.55-9.24,2.39"/><g class="am"><rect class="x" x="43.08" y="128.15" width="77.57" height="33.75"/></g><g class="ar"><rect class="a`" x="43.8" y="146.65" width=".55" height=".35"/></g><g class="as"><rect class="x" x="37.5" y="98.25" width="70.49" height="45.62"/></g><g class="ah"><rect class="ab" x="43.79" y="129.83" width=".32" height=".34"/></g><g class="ak"><rect class="ap" x="47.1" y="134.33" width=".75" height=".79"/></g></g></svg>